<svg height="300" viewBox="0 0 212.8 240" width="266" xmlns="http://www.w3.org/2000/svg"><path d="m-.05542115.0754873h213.29269v240.13986h-213.29269z" fill="#041a25" fill-opacity=".76862745" fill-rule="evenodd" opacity=".97000002"/><path d="m39.792502 24.92002c.235163-.03374.700143-.106042.935306-.139783-.919272 1.952141-1.897334 3.880182-2.69368 5.870884 2.896774-.535031 5.825616-1.055602 8.802559-.915819-.224473 1.118263-.33671 2.250987-.427568 3.383711-.133615 1.870199-.304643 3.735579-.464981 5.600958-1.058231.231365-2.116462.46273-3.174693.655534-2.41576-.05784-4.842209-.197625-7.241935.101222-2.127151.279566-4.093964 1.089343-6.09819 1.730416.02672-.236185.08017-.718195.106892-.9592 3.548816-5.037006 6.809022-10.233076 10.25629-15.327923z" fill="#ae0000"/><g transform="matrix(.53446013 0 0 .48201015 -435.98925 2.1402205)"><path d="m1052.33 66.38c4.99-1 9.93-2.18 14.92-3.17l-.72.22c-1.25.34-2.5.69-3.73 1.03-3.14.83-6.28 1.66-9.34 2.73-4.35 1.47-8.48 3.53-12.26 6.12 3.57 3.77 9.07 3.29 13.8 2.97 6.18-.71 12.42-.89 18.63-.44 4.53.84 9.06 1.71 13.55 2.77 9.67 2.7 18.95 6.76 27.58 11.88 5.3 3.48 10.36 7.33 15.23 11.39l.55.61c-1.52-.52-3.05-.97-4.54-1.5-3.98-3.41-8.22-6.5-12.72-9.19-6.98-5.62-15.57-8.62-23.99-11.36-7.02-2.29-14.43-3.47-21.81-2.75-7.39-.53-14.81.34-22.18-.34-2.85-.05-3.86-2.94-4.84-5.1.88-.76 1.8-1.51 2.75-2.23 3.12-.98 6.14-2.27 9.12-3.64z" fill="#e00000"/><path d="m850.04 218.07c.4-.97 1.13-1.49 2.18-1.56.29-.04.88-.13 1.17-.18-.54 6.43.36 12.93 2.77 18.92 2.69 8.39 7.11 16.09 12.31 23.16.13 1.8.22 3.61.32 5.42-1.27-.75-2.55-1.49-3.81-2.23-1.95 5.11-3.88 10.23-5.82 15.34 1.21-.15 2.44-.3 3.67-.44.15.75.43 2.24.58 2.99-7.15 4.98-14.49 10.06-19.46 17.38-3.3 4.11-5.42 8.98-7.04 13.97-1.02 2.5-2.19 4.93-3.16 7.45-.05-6.71 2.91-12.86 4.73-19.19 1.93-4.88 4.77-9.33 7.27-13.93-1.27-.36-2.53-.71-3.77-1.06-.67-1.14-1.33-2.27-1.98-3.41-1.69.64-3.36 1.28-5.03 1.93-1.55-.98-3.1-1.95-4.63-2.91-1.35 4.71-.73 9.59.1 14.32.11 2.46-.12 4.92-.32 7.37-.8-3.34-1.87-6.6-2.91-9.86-1.57-9.47-4.67-18.9-3.58-28.6 1.51-10.61 5.88-20.7 12.17-29.35.85.14 1.72.27 2.6.41-3.94 5.68-6.74 12.12-8.48 18.8-.79 2.59-1.69 5.15-2.44 7.75-2.41 5.83-.93 12.12 0 18.09 4.17.54 8.11-.97 11.81-2.72-3.64-4.04-1.22-9.53-.63-14.22 1.67-11.32 5.57-22.12 8.02-33.26 1.14-1.82 2.36-3.59 3.56-5.38-.47-.41-1.42-1.22-1.9-1.62.55-1.13 1.09-2.27 1.7-3.38z" fill="#e00000"/></g><path d="m118.1978 38.68623c.58256-.607333 1.21857-1.180925 1.89734-1.720776.52377 1.041142 1.06357 2.434151 2.58678 2.458252 3.93898.327767 7.90467-.09158 11.85433.163883-1.84389 1.007401-3.83742 1.860559-5.32322 3.296949-1.30409 1.248407-2.62955 2.477533-4.03518 3.634357 2.07905-.0482 4.16345-.110862 6.2425-.226545-.38481.544672-.75894 1.089343-1.11168 1.648475l-.12293.192804c-.17637.313307-.52911.94474-.70548 1.258047-1.98819.901358-4.01914 1.715956-6.06078 2.491992-.22447-.178344-.67342-.530211-.89789-.708555-.26723.525391-.52378 1.050782-.77497 1.571353-1.14375 1.055602-2.51731 2.029263-4.20086 2.173866-.32067.03856-.64135.07712-.94599.115682-.40085 1.306248-1.10633 2.520913-2.43714 3.224648-.51308-.448269-1.03685-.872438-1.56062-1.296607-.0214 1.132724-.0321 2.275088.0909 3.407812-1.01013 1.132724-2.17525 2.135305-3.25486 3.205367-1.66751 3.581336-3.38848 7.191592-4.35585 10.994652-.25654.732655.30464 1.364088.66273 1.976241 2.3249.385608 4.70325.375968 7.06557.356688.57721.255465 1.14908.525391 1.73165.800137-1.52322.308486-3.04108.626613-4.56429.901359-3.11056-.183164-6.23181-.289206-9.32099-.698915-.50239-.07712-.99944-.163883-1.48045-.265106-1.165126-.732655-1.010132-2.352209-1.095646-3.518674 0-.342227 0-1.036322 0-1.383369.101548-.274746.309987-.829057.416876-1.103803 1.32546-2.535373 1.40563-5.364773 1.69959-8.102591.2886-2.954722.22981-5.919084.36343-8.878627 1.19185 1.778618.97272 3.938023 1.33615 5.914265.97272-1.836459 1.50718-3.885002 2.83264-5.557577 1.02616-1.262867 2.89677-1.079703 4.42533-1.108623 2.41576-2.737818 3.59157-6.13117 5.61717-9.090712 1.33081-1.952141 2.45318-4.010324 3.42589-6.126349z" fill="#ff9800"/><path d="m92.126838 41.631312c1.34684.559132 2.688335 1.142364 4.051208 1.682216 3.361754 1.527972 6.910574-.08676 9.764584-1.749697-1.45907 1.368908-3.19607 2.699257-5.3927 2.839039-2.731091.424169-5.248399-.766396-7.616057-1.793077-.203095-.241005-.609284-.732656-.807035-.978481z" fill="#4f9c00"/><path d="m135.19364 54.125015c1.32011-2.549834 2.77919-5.408154 5.85233-6.564978-.016 1.966601-.14964 3.933203-.21378 5.899804.84445.245825 1.69424.496471 2.54403.747116 1.737-1.952141 3.0678-4.993625 6.23715-5.152689-.86048 1.87984-1.60873 3.80306-1.99888 5.813043 1.07426.101222 2.15387.212084 3.23348.342227-.0855 1.205025-.18706 2.410051-.27257 3.615076 3.68777-.94474 6.64334-3.224648 9.99975-4.796001-.0267.356688-.0748 1.065243-.10155 1.42193l-.0428.47237c-.59325 1.561713-1.3789 3.051124-2.16456 4.535716.78031.583232 1.52321 1.224305 2.41576 1.682215 2.79523.501291 5.58511-.351867 8.23603-1.084523-.41688 2.048543-2.16991 3.470473-3.71984 4.873123.97271.708555 1.97216 1.45085 3.21745 1.749697.13361.679634.26188 1.364088.3955 2.053363 1.10633.02892 2.21801.0482 3.33503.0723-.005.303667-.016.911-.0214 1.209846-4.30775 1.402649-8.85066.46755-13.27599.347047-4.37188-.154243-8.00621 2.38113-12.14828 3.176447-4.44671.983301-9.04306.400068-13.53253.07712-1.46976-.08676-2.91281-.45309-4.12069-1.219486-1.13305-1.233946-2.59213-2.491993-2.59747-4.217589-.27258-1.870199.3474-3.682557.85513-5.470815-3.9069 1.470131-8.35895 3.065585-10.45404 6.613179-1.17046 1.629195.62532 3.099325 2.15388 3.745219-3.39382.236185-6.77161.708555-9.98906 1.720776-1.40029.110863-2.99832.216905-3.8107-1.031501 1.65148-.612153 4.89565-.390429 4.79411-2.660696-.81773-1.344809-2.27146-2.410051-2.53335-3.995865 1.71562.380788 3.1747 1.354449 4.72998 2.077464.0321-2.357029-3.35107-3.750039-2.36766-6.208291 1.51786.05784 3.24417 1.696676 4.59101.698915-.34205-1.503872-1.19185-2.84868-1.72631-4.29471-.12292-1.132724-.11223-2.275088-.0909-3.407812.52377.424169 1.04754.848338 1.56062 1.296607 1.34684 1.214666 2.15922 3.012564 4.02983 3.672918 1.04754-1.605094-1.06892-2.974003-1.41632-4.501975-.60929-.94474.13896-1.788258.76962-2.511273 1.26133 1.571353 2.6723 3.041484 4.23827 4.376652.56653-.607333 1.14909-1.214665 1.737-1.817178-.86048-1.484591-1.65683-3.036664-1.77441-4.73334.25119-.520571.50774-1.045962.77497-1.571353.22447.178344.67342.530211.89789.708555.51308 1.320708 1.1384 2.602855 1.89199 3.827161.1924-.91582.39015-1.831639.59859-2.747458.79635.665174 1.59804 1.330348 2.41042 1.981061.20844-1.870199.32602-3.79824 1.15978-5.552756.17637-.313307.52911-.94474.70548-1.258047 2.50128 1.667755 1.01548 4.892403 2.54403 7.090369.36344-.780856.73221-1.561713 1.0903-2.352209.44895.419349.90859.833877 1.37357 1.253226m-5.04531 10.821128c-1.01013 1.768977-.99409 3.889822-.30998 5.760021.42756 1.007402 1.52855 1.542433 2.44248 2.154586 1.33615.255465 2.70437.318126 4.07258.197624-.0321-.318127-.10154-.94956-.13361-1.267687-.89789-.46273-1.89733-.843518-2.56541-1.576173-.51308-1.103803-.47567-2.434151.1443-3.499394.33671-.824237 1.12237-1.648474.71618-2.569114-1.44304-.289206-3.5114-.602512-4.36654.800137m12.34069.0048c-.0481.568772-.0855 1.142364-.11758 1.715956l.41153-.02892c.6467.226544 1.30408.443449 1.97216.665174.48636.395248.96737.819417 1.52321 1.161644 1.22926.428989 2.73109-.780856 2.10577-1.91358-.4436-1.118264-1.91337-.602513-2.87005-.578412-.41153-.202445-.82307-.404889-1.22391-.607333l.016-.400069c-.61463-.0096-1.21857-.01446-1.81716-.01446m8.47119 2.83904c-.0748.795317-.1443 1.590633-.18706 2.39077-.70014.785677-1.0903 1.744877-1.41632 2.699257 1.20788-.318127 2.373-.838698 3.14797-1.768977.45429-1.079703.15499-2.207607-.12293-3.282489-.35808-.0096-1.06892-.02892-1.42166-.03856z" fill="#060809"/><path d="m37.050722 64.78226c.641352-1.084523 1.427008-2.091924 2.159219-3.133066.309987.761576.609284 1.527972.87117 2.308828.283264.800137.491703 1.648475 1.036852 2.35221 2.597477.920639 5.622521 1.817178 8.268099.510931.630663.51093 1.261326 1.017041 1.897333 1.523152.181717.144603.539805.433809.716177.573592 1.277359-.578412 2.437138-1.344809 3.575538-2.125665-.0053.920639.01069 1.846099-.02672 2.766738-.106892.491651-.203095.983301-.293953 1.474951 1.320116-.125322 2.661611-.163883 3.971039-.409708.571872-.294027 1.127711-.631434 1.688894-.959201-.0053.337408-.02138 1.017042-.03207 1.354449-1.945435 2.207606-3.869491 4.506795-6.531103 6.054047-3.661052 2.159406-7.653469 3.807881-11.538994 5.596138-.245852-.03856-.7429-.125322-.994096-.163883.54515-1.123084 1.063576-2.458252 2.399726-3.002923 1.560624-.703735 3.318998-.187984 4.933067.07712-.251196-.838697-.491703-1.682215-.716176-2.520913-1.699584-.313306-3.479336-.515751-5.146851.04338-1.47511 1.007401-3.030389 2.144945-3.473991 3.860901.261885.906179.625318 1.783438 1.020819 2.651056l.05879.139783c-.897893.347047-1.758374.761576-2.634888 1.137544-.363433-.0096-1.090299-.02892-1.453732-.03856-.400845-3.017383-.46498-6.338433 1.859921-8.787045.908583.544672 1.790442 1.137544 2.688335 1.711136.0962-.322947.288608-.96884.384811-1.291787-.657386-.274746-1.304083-.554312-1.945435-.829057 1.14909-.91582 2.362314-1.764158 3.564849-2.622136-1.40563.236185-2.816604.496471-4.142066.992941-3.495369 1.152005-6.782299 3.349971-8.118449 6.589079-.919271 2.323289-1.33615 4.979165-.46498 7.365115-.668075.708555-1.373563 1.378549-2.127152 2.009982-.689453.0048-1.378907.0096-2.063016.01446.122926-.737476.256541-1.474951.384812-2.212427-1.223914-.03374-2.453172-.0723-3.661052-.202444-1.090299-.236185-1.913368-.915819-2.693679-1.590634.876514-.207264 1.74234-.457909 2.640233-.612152.213784-.01928.646696-.06266.86048-.08194.01069-.236185.02672-.708555.03741-.94474-.828414-.134963-1.651482-.274746-2.458517-.428989-2.287489-.679634-4.778073-1.571353-5.96992-3.600616 1.421664.318127 2.827295 1.354449 4.313094 1.036322.08017-.207265.240507-.616973.320676-.824238.66273-.192804 1.33615-.385608 2.00957-.578412-.7429-.645893-1.507178-1.277327-2.244733-1.92322-1.485799-1.446031-2.656267-3.349971-2.549375-5.374413l.668076.265105c.379466.154243 1.133055.46273 1.507177.616973-.07482-.641073-.149649-1.286967-.219128-1.92804.817724.47719 1.646137.94956 2.485239 1.407469-.06948-.9592-.149649-1.9184-.224473-2.88242 1.063576.554311 2.127151 1.098983 3.228139 1.595453.02672-1.624374-1.298738-3.750039.33671-5.012905.774967 1.074882 1.416319 2.250987 2.383692 3.210187 3.21745-.46755 2.75247-3.836801 3.238829-6.015486.908582.785676 1.779752 1.624374 2.800571 2.299188.855136.342227 1.736995.655534 2.61351.96884.251196-.809777.502392-1.614734.80169-2.41005z" fill="#060809"/><path d="m25.811025 161.37709c2.693679-1.04114 5.569075-1.71595 8.524639-1.50387 4.943757.25065 9.962337-.26992 14.847303.57841 4.318438.8628 7.824496 3.44638 11.800879 5.05147 7.877943 5.55758 17.893726 7.97727 27.658312 9.14855.20844.49647.374122 1.0074.502393 1.5328-1.245292 1.77379-3.949661 1.53279-5.975265 1.58099-1.272015-.38561-2.522651-.8146-3.783977-1.21467-2.944876-1.32552-5.708034-2.9499-8.636876-4.29953-5.547696-2.71853-12.100177-2.77156-18.251813-2.70889-10.005094.22172-20.063634-.46755-30.02597.63625-1.582002.10122-2.992977.7664-4.334472 1.46049-.769623.29885-1.54459.57841-2.303523.87244-.587906-.42899-1.165123-.85316-1.779753-1.23395.304643-.58805.630663-1.16646.929961-1.75933 1.491144.19762 3.153315.30366 4.403952-.6218 2.864706-1.92322 4.361194-4.96952 6.42421-7.51936z" fill="#0c0a0b"/><g transform="matrix(.42710933 0 0 .38926315 35.886232 132.32132)"><path d="m316.22 35.44c7.75-1.98 15.91-2.22 23.82-1.1l-.1.36c-.71.17-2.13.5-2.85.67 3.61 2.93 7.13 6.1 9.54 10.14 1.2 2.45 2.26 4.99 3.12 7.59.12.64.35 1.93.46 2.57.04 1.41.05 2.81.03 4.22-2.21.03-4.4.06-6.59.11-.18-.6-.53-1.79-.71-2.38-.26-2.2-.5-4.4-.86-6.58-.23-1.16-.49-2.32-.78-3.46-.6-1.84-1.33-3.64-2.21-5.36-.53-.89-1.09-1.76-1.68-2.61-.62-.79-1.27-1.56-1.95-2.3-1.43-.97-2.89-1.98-4.55-2.5-2.05-.05-3.7 1.53-5.34 2.55-.68.73-1.31 1.5-1.9 2.28-.6.84-1.16 1.7-1.69 2.57-.23.45-.68 1.35-.91 1.8-1.69-.11-3.38-.23-5.07-.27.45-.81.91-1.62 1.39-2.41.59-.65 1.21-1.28 1.85-1.89 1.78-1.5 3.51-3.05 5.15-4.7-4.25.45-8.37 1.88-11.69 4.62-.99.78-1.94 1.61-2.85 2.48-1.02 1.05-1.98 2.16-2.91 3.3-.26.32-.76.97-1.02 1.29-1.51-.73-3.01-1.48-4.51-2.23 1.28-1.11 2.52-2.26 3.77-3.41 3.09-2.8 7.1-4.24 11.04-5.35z" fill="#12140d"/><path d="m312.7 39.36c3.32-2.74 7.44-4.17 11.69-4.62-1.64 1.65-3.37 3.2-5.15 4.7-2.18.09-4.36.03-6.54-.08z" fill="#044dbf"/><path d="m325.57 37.36c1.64-1.02 3.29-2.6 5.34-2.55 1.66.52 3.12 1.53 4.55 2.5-3.24.96-6.65 1-9.89.05z" fill="#014ecd"/><path d="m337.09 35.37c.72-.17 2.14-.5 2.85-.67l.89-.02c4.73 2.8 9.56 5.68 13.08 10.01-2.45.06-4.88.34-7.28.82-2.41-4.04-5.93-7.21-9.54-10.14z" fill="#289671"/><path d="m340.83 34.68c10.76.96 22.11 6.28 27.06 16.38 3.3 6.12 3.21 13.28 2.64 20.01-.8 6.35-3.31 12.33-6.14 18.01-2.09 4.07-4.69 7.86-7.47 11.48-1.98 2.45-3.82 5.04-6.07 7.26-4.15 3.66-7.94 7.69-11.96 11.49-1.1-.14-2.2-.26-3.3-.37 4.12-5.05 7.38-10.73 10.62-16.37 1.86-3.31 3.73-6.62 5.8-9.8.83.74 1.65 1.5 2.46 2.27-.56.94-1.11 1.88-1.67 2.81-.77 1.31-1.53 2.62-2.32 3.91-2.43 3.8-5.21 7.35-7.6 11.17 4.1-3.59 7.85-7.57 11.28-11.79 1.06-1.32 2.08-2.66 3.09-4.02 2.58-3.52 4.94-7.21 6.88-11.12 1.58-3.21 2.92-6.53 3.87-9.98 1.73-6.65 2.18-13.77.17-20.42-.84-2.32-1.94-4.54-3.18-6.67-.8-1.08-1.67-2.11-2.63-3.06-1.62-1.72-3.48-3.19-5.45-4.49 1.02 1.5 2.11 2.96 3.24 4.37.56 1.04 1.09 2.09 1.58 3.16 1.22 2.92 2.1 5.98 2.62 9.1.93 6.58.44 13.37-1.75 19.66-.54 1.56-1.12 3.1-1.71 4.63-1.15-.83-2.29-1.65-3.39-2.52.2-.58.61-1.75.81-2.34 3.06-7.95 3.29-16.92.11-24.87-1.22-2.78-2.78-5.39-4.51-7.88-3.52-4.33-8.35-7.21-13.08-10.01z" fill="#080a0a"/><path d="m364.76 35.17c1.3-.75 2.33 1.51 1.25 2.29-1.27.69-2.23-1.52-1.25-2.29z" fill="#76807f"/><path d="m323.67 39.64c.59-.78 1.22-1.55 1.9-2.28 3.24.95 6.65.91 9.89-.05.68.74 1.33 1.51 1.95 2.3-4.58.27-9.17.28-13.74.03z" fill="#177a88"/><path d="m262.59 43.48c2.29-5.44 9.04-5.7 14.09-5.44l.09.46c.57 3.83 2.17 7.99.59 11.73-2.55 2.41-5.79 3.87-8.79 5.6-.23.52-.67 1.54-.9 2.05-2.81-4.2-6.49-9.06-5.08-14.4m1.17 3.41c1.59 1.71 4.43 4.41 6.67 2.23-.17-2.25-.41-4.5-.76-6.73.18-.34.53-1.03.71-1.38-2.84.9-7.88 1.75-6.62 5.88z" fill="#f5ab01"/><path d="m277.36 50.23c1.58-3.74-.02-7.9-.59-11.73 2.57.75 5.46 1.87 6.39 4.67 1.95 5.26-1.12 10.58-4.45 14.51-1.57 1.64-3.1 4.17-5.71 3.82-2.42.18-3.68-2.29-5.33-3.62.23-.51.67-1.53.9-2.05 3-1.73 6.24-3.19 8.79-5.6z" fill="#da9e01"/><path d="m309.85 41.84c.91-.87 1.86-1.7 2.85-2.48 2.18.11 4.36.17 6.54.08-.64.61-1.26 1.24-1.85 1.89-2.52.14-5.03.32-7.54.51z" fill="#177a86"/><path d="m321.98 42.21c.53-.87 1.09-1.73 1.69-2.57 4.57.25 9.16.24 13.74-.03.59.85 1.15 1.72 1.68 2.61-5.7.3-11.41.34-17.11-.01z" fill="#39aa51"/><path d="m263.76 46.89c-1.26-4.13 3.78-4.98 6.62-5.88-.18.35-.53 1.04-.71 1.38-1.07.76-2.16 1.48-3.26 2.19.59 2.12 2.04 3.62 4.02 4.54-2.24 2.18-5.08-.52-6.67-2.23z" fill="#fccb2f"/><path d="m309.85 41.84c2.51-.19 5.02-.37 7.54-.51-.48.79-.94 1.6-1.39 2.41l-.71.01c-2.82.24-5.61.73-8.35 1.39.93-1.14 1.89-2.25 2.91-3.3z" fill="#3ea848"/><path d="m321.98 42.21c5.7.35 11.41.31 17.11.01.88 1.72 1.61 3.52 2.21 5.36-7.22.18-14.46.3-21.6 1.37l.16-.72c.34-1.42.74-2.83 1.21-4.22.23-.45.68-1.35.91-1.8z" fill="#8ee607"/><path d="m356.91 41.38c1.97 1.3 3.83 2.77 5.45 4.49-.55-.03-1.65-.09-2.21-.12-1.13-1.41-2.22-2.87-3.24-4.37z" fill="#074ea5"/><path d="m266.41 44.58c1.1-.71 2.19-1.43 3.26-2.19.35 2.23.59 4.48.76 6.73-1.98-.92-3.43-2.42-4.02-4.54z" fill="#fcefa6"/><path d="m306.94 45.14c2.74-.66 5.53-1.15 8.35-1.39-.6 1.14-1.18 2.29-1.75 3.45-.12.27-.37.82-.49 1.1-2.79.07-5.57.2-8.35.37.39-.76.79-1.5 1.22-2.24.26-.32.76-.97 1.02-1.29z" fill="#8ae60b"/><path d="m296.83 48.5c1.41-1.55 2.99-2.94 4.58-4.3 1.5.75 3 1.5 4.51 2.23-.43.74-.83 1.48-1.22 2.24-.65 1.29-1.28 2.6-1.9 3.91-1.67.02-3.35.04-5.01.07.33-1.21.65-2.42.92-3.65-.47-.12-1.41-.37-1.88-.5z" fill="#62754b"/><path d="m315.29 43.75.71-.01c1.69.04 3.38.16 5.07.27-.47 1.39-.87 2.8-1.21 4.22-2.12-.32-4.22-.66-6.32-1.03.57-1.16 1.15-2.31 1.75-3.45z" fill="#495030"/><path d="m346.63 45.51c2.4-.48 4.83-.76 7.28-.82 1.73 2.49 3.29 5.1 4.51 7.88-2.77-.45-5.54-.93-8.34-1.17-.08.43-.25 1.28-.33 1.7-.86-2.6-1.92-5.14-3.12-7.59z" fill="#a4e301"/><path d="m360.15 45.75c.56.03 1.66.09 2.21.12.96.95 1.83 1.98 2.63 3.06-1.09-.01-2.18-.02-3.26-.02-.49-1.07-1.02-2.12-1.58-3.16z" fill="#2d8a52"/><path d="m313.05 48.3c.12-.28.37-.83.49-1.1 2.1.37 4.2.71 6.32 1.03l-.16.72c-.19.92-.35 1.84-.48 2.76l-.1.89c-2.42-.3-4.84-.57-7.26-.66.37-1.22.75-2.44 1.19-3.64z" fill="#707946"/><path d="m304.7 48.67c2.78-.17 5.56-.3 8.35-.37-.44 1.2-.82 2.42-1.19 3.64l-.96.02c-2.71.16-5.4.41-8.1.62.62-1.31 1.25-2.62 1.9-3.91z" fill="#bdea33"/><path d="m319.7 48.95c7.14-1.07 14.38-1.19 21.6-1.37.29 1.14.55 2.3.78 3.46-4.68.14-9.36.12-14.04.15-2.95.04-5.89.24-8.82.52.13-.92.29-1.84.48-2.76z" fill="#c8dc01"/><path d="m361.73 48.91c1.08 0 2.17.01 3.26.02 1.24 2.13 2.34 4.35 3.18 6.67-1.28.8-2.55 1.6-3.82 2.41-.52-3.12-1.4-6.18-2.62-9.1z" fill="#aee403"/><path d="m292.62 55.74c1.1-2.56 2.34-5.13 4.21-7.24.47.13 1.41.38 1.88.5-.27 1.23-.59 2.44-.92 3.65-.17.63-.51 1.87-.68 2.5-1.5.2-3 .4-4.49.59z" fill="#9ed918"/><path d="m319.22 51.71c2.93-.28 5.87-.48 8.82-.52-.86 6.79-1.47 13.69-3.62 20.23-.62 2.46-2.92 3.79-4.7 5.35-.35-2.7-.8-5.39-1.06-8.1-.01-5.36-.05-10.73.46-16.07z" fill="#fad51f"/><path d="m328.04 51.19c4.68-.03 9.36-.01 14.04-.15.36 2.18.6 4.38.86 6.58-.07 7.2-.47 14.4-1.59 21.52-7.21-.08-14.39-.66-21.59-.84-.01-.38-.03-1.15-.04-1.53 1.78-1.56 4.08-2.89 4.7-5.35 2.15-6.54 2.76-13.44 3.62-20.23z" fill="#ffcd02"/><path d="m350.08 51.4c2.8.24 5.57.72 8.34 1.17 3.18 7.95 2.95 16.92-.11 24.87-2.86.44-5.72.87-8.59 1.28 1.37-7.59 2.16-15.44.49-23.05-.11-.64-.34-1.93-.46-2.57.08-.42.25-1.27.33-1.7z" fill="#fecd02"/><path d="m297.79 52.65c1.66-.03 3.34-.05 5.01-.07-.9 4.03-1.63 8.09-2.17 12.18-.59 1.77-1.3 3.51-2.02 5.23-1.76-3.85-2.04-8.12-1.98-12.29.12-.64.36-1.92.48-2.55.17-.63.51-1.87.68-2.5z" fill="#b4b871"/><path d="m302.8 52.58c2.7-.21 5.39-.46 8.1-.62-.13 1.16-.25 2.32-.37 3.47-.12 1.11-.22 2.21-.29 3.32-.47 5.13-.43 10.3-.05 15.44-2.53.48-5.09.81-7.64 1.15-.98-3.45-1.68-7-1.92-10.58.54-4.09 1.27-8.15 2.17-12.18z" fill="#f5e156"/><path d="m310.9 51.96.96-.02c2.42.09 4.84.36 7.26.66-.51 5.34-.47 10.71-.46 16.07-.34 1.43-.72 2.85-1.09 4.27-2.16-.17-4.32-.35-6.47-.54-.01.4-.05 1.2-.06 1.6l-.85.19c-.38-5.14-.42-10.31.05-15.44.27 3.03.75 6.04 1.18 9.05 1.87.01 3.73.02 5.61.03.55-3.97.78-7.97.8-11.98-2.44-.16-4.87-.3-7.3-.42.12-1.15.24-2.31.37-3.47z" fill="#949e5b"/><path d="m292.62 55.74c1.49-.19 2.99-.39 4.49-.59-.12.63-.36 1.91-.48 2.55-.82 5.35-.71 10.86.53 16.15-1.19-.23-2.37-.47-3.55-.71l-.78-.19c-.89-5.69-1.83-11.54-.21-17.21z" fill="#fad417"/><path d="m310.53 55.43c2.43.12 4.86.26 7.3.42-.02 4.01-.25 8.01-.8 11.98-1.88-.01-3.74-.02-5.61-.03-.43-3.01-.91-6.02-1.18-9.05.07-1.11.17-2.21.29-3.32z" fill="#b5bf7c"/><path d="m350.21 55.67c1.67 7.61.88 15.46-.49 23.05-.48 2.38-1.04 4.75-1.7 7.09-.1.35-.31 1.05-.42 1.39-2.32-.88-4.65-1.72-6.99-2.55.06-.41.17-1.24.23-1.66.16-1.28.33-2.57.51-3.85 1.12-7.12 1.52-14.32 1.59-21.52.18.59.53 1.78.71 2.38.15 2.82.01 5.72.94 8.43 1.69.46 3.44.7 5.18.98.2-3.17.39-6.34.47-9.52.02-1.41.01-2.81-.03-4.22z" fill="#566443"/><path d="m364.35 58.01c1.27-.81 2.54-1.61 3.82-2.41 2.01 6.65 1.56 13.77-.17 20.42-1.81.55-3.61 1.1-5.4 1.65 2.19-6.29 2.68-13.08 1.75-19.66z" fill="#fccc02"/><path d="m297.16 73.85c-1.24-5.29-1.35-10.8-.53-16.15-.06 4.17.22 8.44 1.98 12.29.72-1.72 1.43-3.46 2.02-5.23.24 3.58.94 7.13 1.92 10.58.1.34.3 1.02.4 1.36-1.51.4-3.02.8-4.53 1.21-.47-1.34-.9-2.69-1.26-4.06z" fill="#7c8258"/><path d="m343.65 60c2.19-.05 4.38-.08 6.59-.11-.08 3.18-.27 6.35-.47 9.52-1.74-.28-3.49-.52-5.18-.98-.93-2.71-.79-5.61-.94-8.43z" fill="#373e26"/><path d="m379.38 61.66c1.76-.39 3.53-.79 5.31-1.16.77 2.82 1.93 5.59 2.12 8.53-.74 3.46-2.22 6.71-3.03 10.15-.19.61-.59 1.83-.78 2.44-1.38-1.18-2.75-2.35-4.12-3.52-.67 1.44-1.34 2.89-2.01 4.33-2.67-4.07-4.32-8.85-3.8-13.76 1.09 2.77 2.13 5.56 3.22 8.33.27-1.79.55-3.58.83-5.37 1.69 2.22 3.34 4.47 5.04 6.68.22-1.29.44-2.58.64-3.88.63-4.08.75-8.22.98-12.34-1.42 1.45-2.84 2.89-4.26 4.33-.07-1.59-.11-3.17-.14-4.76z" fill="#fe834e"/><path d="m384.69 60.5c2.11-.02 4.24-.02 6.36 0 1.57 3.36 3.55 6.72 3.67 10.53.19 3.73-1.28 7.26-2.77 10.6-.46-2.74-.81-5.49-1.06-8.25-2.13 2.21-4.58 4.07-7.11 5.8.81-3.44 2.29-6.69 3.03-10.15-.19-2.94-1.35-5.71-2.12-8.53z" fill="#ff6317"/><path d="m391.05 60.5c4.22 1.03 9.1 2.89 10.36 7.56 2.22 8.81-3.87 16.75-9.87 22.46-1.74 2.01-4.69 1.22-6.97.88-3.08-2.51-5.35-5.81-7.7-8.97.67-1.44 1.34-2.89 2.01-4.33 1.37 1.17 2.74 2.34 4.12 3.52.19-.61.59-1.83.78-2.44 2.53-1.73 4.98-3.59 7.11-5.8.25 2.76.6 5.51 1.06 8.25 1.49-3.34 2.96-6.87 2.77-10.6-.12-3.81-2.1-7.17-3.67-10.53z" fill="#f14201"/><path d="m372.77 67.88c1.67-2.58 3.83-4.82 6.61-6.22.03 1.59.07 3.17.14 4.76.05 3.02.19 6.49 3.28 8.01-.2 1.3-.42 2.59-.64 3.88-1.7-2.21-3.35-4.46-5.04-6.68-.28 1.79-.56 3.58-.83 5.37-1.09-2.77-2.13-5.56-3.22-8.33z" fill="#fdb999"/><path d="m379.52 66.42c1.42-1.44 2.84-2.88 4.26-4.33-.23 4.12-.35 8.26-.98 12.34-3.09-1.52-3.23-4.99-3.28-8.01z" fill="#fee8de"/><path d="m271.58 63.14c.97-1.51 3.59.14 2.38 1.61-1 1.44-3.53-.14-2.38-1.61z" fill="#dfb741"/><path d="m317.57 72.94c.37-1.42.75-2.84 1.09-4.27.26 2.71.71 5.4 1.06 8.1.01.38.03 1.15.04 1.53.02.49.06 1.46.09 1.95-.26-1-.52-2-.79-2.99-2.45.45-4.89.9-7.3 1.5l-.87.25c.09-1.67.1-3.34.15-5.01.01-.4.05-1.2.06-1.6 2.15.19 4.31.37 6.47.54z" fill="#667243"/><path d="m276.5 71.48c2.25-.67 4.52-1.3 6.84-1.75-.9 4.37 2.54 7.54 3.79 11.38.79 3.07-1.55 5.51-3.09 7.86-1.96 2.7-2.62 6.03-3.56 9.16-.85-1.44-1.67-2.89-2.49-4.34-.33-.2-.98-.59-1.31-.79.23 2.45.4 4.91.42 7.37-1.4-1.62-2.85-3.2-4.19-4.87l-.25-.61c-2.27-5.65-5.75-12.33-2.14-18.21.01.39.03 1.17.04 1.56.15 3.75.24 7.61 1.78 11.11.68 1.29 1.43 2.54 2.18 3.8-.15-1.95-.32-3.9-.47-5.85.89.22 1.79.44 2.7.67 1.07 2 2.2 3.96 3.38 5.9.41-1.87.82-3.74 1.1-5.63l.01-.93c.86-1.65 2.46-3.21 2.17-5.21-.42-3.4-1.33-6.71-1.89-10.08-2.17 1.65-4.36 3.29-6.55 4.9.5-1.81 1.02-3.62 1.53-5.44z" fill="#d24554"/><path d="m283.34 69.73c.99.03 2.96.1 3.95.14 3.36 5.8 3.49 12.61 2.96 19.11-2.31 1.75-4.6 3.54-6.88 5.33-.3 2.31-.61 4.62-.94 6.92-.66-1.03-1.32-2.06-1.95-3.1.94-3.13 1.6-6.46 3.56-9.16 1.54-2.35 3.88-4.79 3.09-7.86-1.25-3.84-4.69-7.01-3.79-11.38z" fill="#cc261c"/><path d="m287.29 69.87c1.41.01 2.82.02 4.24.01.15.97.34 1.93.56 2.89.71 2.75 1.66 5.43 2.63 8.1-.25 5.1-.94 10.49-4.36 14.53-.09-2.14-.15-4.28-.11-6.42.53-6.5.4-13.31-2.96-19.11z" fill="#e33845"/><path d="m270.52 76.68c.63-2.73 3.8-3.84 5.98-5.2-.51 1.82-1.03 3.63-1.53 5.44 2.19-1.61 4.38-3.25 6.55-4.9.56 3.37 1.47 6.68 1.89 10.08.29 2-1.31 3.56-2.17 5.21-.26-4.27-.49-8.55-.89-12.81-4.3 3.18-3.69 8.74-3.6 13.47-.91-.23-1.81-.45-2.7-.67.15 1.95.32 3.9.47 5.85-.75-1.26-1.5-2.51-2.18-3.8.6-4.79.98-9.61 1.62-14.4-1.13 1.1-2.26 2.2-3.4 3.29-.01-.39-.03-1.17-.04-1.56z" fill="#d7718e"/><path d="m292.09 72.77.74.18.78.19c.95 2.67 1.76 5.4 2.89 8 1.07 2.39 2.26 4.72 3.5 7.02 1.49 2.76 3.04 5.48 4.67 8.16 1.5 2.42 3.16 4.91 5.72 6.33l-.65.92c-.24.39-.73 1.15-.97 1.54-2.97-3.32-5.26-7.15-7.44-11.02-3.66 4.65-6.95 9.8-11.82 13.29-2.15.72-4.47.38-6.68.29 2.08-.36 4.26-.37 6.26-1.11 4.19-4.32 9.09-8.61 11.01-14.47-1.37-3.93-3.73-7.41-5.38-11.22-.97-2.67-1.92-5.35-2.63-8.1z" fill="#9f969d"/><path d="m293.61 73.14c1.18.24 2.36.48 3.55.71.36 1.37.79 2.72 1.26 4.06.24.63.71 1.87.94 2.49-.96.25-1.91.49-2.86.74-1.13-2.6-1.94-5.33-2.89-8z" fill="#f38e10"/><path d="m310.19 74.19.85-.19c-.05 1.67-.06 3.34-.15 5.01-.08.43-.24 1.29-.31 1.71-2.04.2-4.07.4-6.09.61-.55-1.53-1.06-3.07-1.54-4.63-.1-.34-.3-1.02-.4-1.36 2.55-.34 5.11-.67 7.64-1.15z" fill="#f8b231"/><path d="m270.56 78.24c1.14-1.09 2.27-2.19 3.4-3.29-.64 4.79-1.02 9.61-1.62 14.4-1.54-3.5-1.63-7.36-1.78-11.11z" fill="#f7a0a3"/><path d="m276.75 87.97c-.09-4.73-.7-10.29 3.6-13.47.4 4.26.63 8.54.89 12.81l-.01.93c-1.5-.09-2.99-.18-4.48-.27z" fill="#fde0e6"/><path d="m362.6 77.67c1.79-.55 3.59-1.1 5.4-1.65-.95 3.45-2.29 6.77-3.87 9.98-1.75.3-3.49.6-5.23.9.7-1.51 1.37-3.05 1.99-4.6.59-1.53 1.17-3.07 1.71-4.63z" fill="#fb6e01"/><path d="m298.42 77.91c1.51-.41 3.02-.81 4.53-1.21.48 1.56.99 3.1 1.54 4.63.12.33.37 1 .49 1.33-1.21.81-2.41 1.61-3.6 2.42-.71-1.54-1.38-3.11-2.02-4.68-.23-.62-.7-1.86-.94-2.49z" fill="#464c3e"/><path d="m311.76 78.76c2.41-.6 4.85-1.05 7.3-1.5.27.99.53 1.99.79 2.99l.15.9c.28 1.58.56 3.16.85 4.74l.14.82c-2.44-.1-4.89-.15-7.33-.14h-.74c-.33-2.61-.75-5.21-1.16-7.81z" fill="#40442a"/><path d="m349.72 78.72c2.87-.41 5.73-.84 8.59-1.28-.2.59-.61 1.76-.81 2.34-.73 1.85-1.54 3.66-2.35 5.47-2.38.2-4.75.39-7.13.56.66-2.34 1.22-4.71 1.7-7.09z" fill="#fd9201"/><path d="m319.76 78.3c7.2.18 14.38.76 21.59.84-.18 1.28-.35 2.57-.51 3.85-7 .34-14.02-.21-20.84-1.84l-.15-.9c-.03-.49-.07-1.46-.09-1.95z" fill="#feaa00"/><path d="m310.89 79.01.87-.25c.41 2.6.83 5.2 1.16 7.81-2.12-.01-4.23-.03-6.34-.05-.57-1.27-1.1-2.56-1.6-3.86-.12-.33-.37-1-.49-1.33 2.02-.21 4.05-.41 6.09-.61.07-.42.23-1.28.31-1.71z" fill="#fc781d"/><path d="m296.5 81.14c.95-.25 1.9-.49 2.86-.74.64 1.57 1.31 3.14 2.02 4.68.19.4.56 1.19.74 1.58-.53.38-1.59 1.13-2.12 1.5-1.24-2.3-2.43-4.63-3.5-7.02z" fill="#f04b08"/><path d="m355.15 85.25c.81-1.81 1.62-3.62 2.35-5.47 1.1.87 2.24 1.69 3.39 2.52-.62 1.55-1.29 3.09-1.99 4.6-1.34 2.79-2.86 5.48-4.43 8.14-.81-.77-1.63-1.53-2.46-2.27l-.47-.38c1.29-2.33 2.51-4.71 3.61-7.14z" fill="#2d2f31"/><path d="m290.36 95.4c3.42-4.04 4.11-9.43 4.36-14.53 1.65 3.81 4.01 7.29 5.38 11.22-1.92 5.86-6.82 10.15-11.01 14.47-2 .03-4.02.15-5.99-.26-1.83-1.11-3.35-2.67-4.69-4.31-.33-.41-.99-1.21-1.31-1.62-.02-2.46-.19-4.92-.42-7.37.33.2.98.59 1.31.79.82 1.45 1.64 2.9 2.49 4.34.63 1.04 1.29 2.07 1.95 3.1.33-2.3.64-4.61.94-6.92 2.28-1.79 4.57-3.58 6.88-5.33-.04 2.14.02 4.28.11 6.42z" fill="#a20204"/><path d="m320 81.15c6.82 1.63 13.84 2.18 20.84 1.84-.06.42-.17 1.25-.23 1.66-.1.66-.3 1.99-.4 2.65-6.44-.65-12.9-1.14-19.36-1.41-.29-1.58-.57-3.16-.85-4.74z" fill="#ff8500"/><path d="m301.38 85.08c1.19-.81 2.39-1.61 3.6-2.42.5 1.3 1.03 2.59 1.6 3.86 1.06 2.36 2.2 4.69 3.37 7.01 2.65 5.28 5.77 10.31 9.01 15.25 1.89 3 3.73 6.04 5.54 9.09-1.85-1.25-3.67-2.57-5.32-4.07-2.73-3.52-5.12-7.3-7.94-10.75-1.23-2.15-2.45-4.31-3.73-6.42-1.97-3.23-3.77-6.55-5.39-9.97-.18-.39-.55-1.18-.74-1.58z" fill="#090809"/><path d="m340.21 87.3c.1-.66.3-1.99.4-2.65 2.34.83 4.67 1.67 6.99 2.55-.38 1.19-.77 2.38-1.18 3.56-.39 1.14-.81 2.27-1.19 3.41-.05-.69-.16-2.06-.21-2.75-1.83-.26-3.65-.53-5.46-.79.07-.39.23-1.16.31-1.55.08-.44.25-1.34.34-1.78z" fill="#313824"/><path d="m348.02 85.81c2.38-.17 4.75-.36 7.13-.56-1.1 2.43-2.32 4.81-3.61 7.14-1.69-.61-3.41-1.11-5.12-1.63.41-1.18.8-2.37 1.18-3.56.11-.34.32-1.04.42-1.39z" fill="#fe5001"/><path d="m306.58 86.52c2.11.02 4.22.04 6.34.05h.74c.53 2.21 1.1 4.41 1.78 6.59-1.83.14-3.66.26-5.49.37-1.17-2.32-2.31-4.65-3.37-7.01z" fill="#fb3b03"/><path d="m313.66 86.57c2.44-.01 4.89.04 7.33.14.21 1.18.43 2.35.66 3.53.32 1.63.66 3.25 1 4.87.48 2.37.96 4.75 1.49 7.11.3 1.3.63 2.6.98 3.9.43 1.65.89 3.29 1.35 4.94.4 1.43.81 2.87 1.24 4.3.37 1.25.75 2.5 1.14 3.75-.69-.04-2.05-.11-2.74-.15-1.44-3.04-2.76-6.14-4.15-9.2-2.47-5.41-4.59-10.98-6.52-16.6-.68-2.18-1.25-4.38-1.78-6.59z" fill="#11100c"/><path d="m320.85 85.89c6.46.27 12.92.76 19.36 1.41-.09.44-.26 1.34-.34 1.78-5.94 1.62-12.15.87-18.22 1.16-.23-1.18-.45-2.35-.66-3.53z" fill="#ff5e01"/><path d="m358.9 86.9c1.74-.3 3.48-.6 5.23-.9-1.94 3.91-4.3 7.6-6.88 11.12-1.49.24-2.97.49-4.45.73.56-.93 1.11-1.87 1.67-2.81 1.57-2.66 3.09-5.35 4.43-8.14z" fill="#f91a04"/><path d="m276.75 87.97c1.49.09 2.98.18 4.48.27-.28 1.89-.69 3.76-1.1 5.63-1.18-1.94-2.31-3.9-3.38-5.9z" fill="#f89290"/><path d="m321.65 90.24c6.07-.29 12.28.46 18.22-1.16-.08.39-.24 1.16-.31 1.55-.34 1.54-.69 3.08-1.03 4.62-5.29-.18-10.59-.21-15.88-.14-.34-1.62-.68-3.24-1-4.87z" fill="#ff3a01"/><path d="m364.39 89.08c.52-.1 1.57-.31 2.09-.41.55 2.64 1.49 5.3 1.25 8.04-.57 2.34-1.83 4.42-2.87 6.56-1.21-.62-2.41-1.25-3.61-1.88-.48 1.27-.97 2.53-1.45 3.8-.93-1.57-1.89-3.11-2.88-4.63 2.78-3.62 5.38-7.41 7.47-11.48m-2.64 6.98c-.3 2.17 1.42 3.91 2.34 5.71 1.2-3.27 1.43-6.77 1-10.21-1.23 1.4-2.69 2.71-3.34 4.5z" fill="#9f51e6"/><path d="m366.48 88.67c1.64.01 3.28.02 4.93.02 3.99 5.65 3.38 13.19-.29 18.84-.24-2.87-.42-5.74-.61-8.61-2.98 2.65-4.64 6.26-4.81 10.25-1.14-1.72-2.3-3.43-3.47-5.13.54 2.04 1.08 4.08 1.73 6.08l-.58-.49c-1.42-1.28-2.49-2.89-3.58-4.44.48-1.27.97-2.53 1.45-3.8 1.2.63 2.4 1.26 3.61 1.88 1.04-2.14 2.3-4.22 2.87-6.56.24-2.74-.7-5.4-1.25-8.04z" fill="#820ddb"/><path d="m371.41 88.69c3.24 1.13 7.24 2.48 8.01 6.33 1.59 7.42-3.97 13.62-8.88 18.37-2.3-.86-4.71-1.62-6.58-3.27-.65-2-1.19-4.04-1.73-6.08 1.17 1.7 2.33 3.41 3.47 5.13.17-3.99 1.83-7.6 4.81-10.25.19 2.87.37 5.74.61 8.61 3.67-5.65 4.28-13.19.29-18.84z" fill="#570198"/><path d="m338.53 95.25c.34-1.54.69-3.08 1.03-4.62 1.81.26 3.63.53 5.46.79.05.69.16 2.06.21 2.75-.81 2.58-1.7 5.14-2.7 7.66-2.51 5.77-5.23 11.44-7.86 17.16-.47.02-1.41.07-1.89.09.33-1.44.67-2.88 1.02-4.32.34-1.39.69-2.77 1.04-4.15.38-1.47.76-2.93 1.14-4.39.27-1.12.55-2.23.82-3.35.59-2.54 1.15-5.08 1.73-7.62z" fill="#090a0a"/><path d="m345.23 94.17c.38-1.14.8-2.27 1.19-3.41 1.71.52 3.43 1.02 5.12 1.63l.47.38c-2.07 3.18-3.94 6.49-5.8 9.8-.92-.19-2.76-.55-3.68-.74 1-2.52 1.89-5.08 2.7-7.66z" fill="#fb1105"/><path d="m361.75 96.06c.65-1.79 2.11-3.1 3.34-4.5.43 3.44.2 6.94-1 10.21-.92-1.8-2.64-3.54-2.34-5.71z" fill="#e5bcfc"/><path d="m309.95 93.53c1.83-.11 3.66-.23 5.49-.37 1.93 5.62 4.05 11.19 6.52 16.6-1-.33-2-.66-3-.98-3.24-4.94-6.36-9.97-9.01-15.25z" fill="#f80a07"/><path d="m385.13 93.81c1.38-.07 2.77-.14 4.17-.2.04.95.14 2.86.18 3.82-1.49-.09-2.97-.17-4.45-.26.02-.84.08-2.52.1-3.36z" fill="#ed7b4a"/><path d="m260.11 100.19c.95-3.54 4.95-4.44 7.81-5.89-1 5.18-1.09 10.47-1.09 15.72-1.15-2.09-2.32-4.17-3.5-6.23.1 2.11.2 4.22.4 6.32-2.17-2.8-4.18-6.25-3.62-9.92m5.92 4.36c.1-2.27.09-4.54-.05-6.8-1.68 2.05-2.8 5.14.05 6.8z" fill="#83d7c5"/><path d="m267.92 94.3.75.72c3.65 2.38 2.43 7 2.53 10.66-2.44 1.95-4.06 4.64-4.38 7.77-1.08-1.07-2.19-2.12-3.09-3.34-.2-2.1-.3-4.21-.4-6.32 1.18 2.06 2.35 4.14 3.5 6.23 0-5.25.09-10.54 1.09-15.72z" fill="#4395a8"/><path d="m268.67 95.02c1.33-.04 2.66-.08 3.99-.13l.25.61c.95 4.96.63 10.14-1.62 14.73-.05-1.52-.08-3.03-.09-4.55-.1-3.66 1.12-8.28-2.53-10.66z" fill="#71caae"/><path d="m322.65 95.11c5.29-.07 10.59-.04 15.88.14-.58 2.54-1.14 5.08-1.73 7.62-4.23.34-8.5.24-12.66-.65-.53-2.36-1.01-4.74-1.49-7.11z" fill="#ff1205"/><path d="m271.29 110.23c2.25-4.59 2.57-9.77 1.62-14.73 1.34 1.67 2.79 3.25 4.19 4.87.32.41.98 1.21 1.31 1.62-.33 2.42-1.21 4.77-2.41 6.89-2.35 2.99-5.41 5.54-9.4 5.63l.22-1.06c.32-3.13 1.94-5.82 4.38-7.77.01 1.52.04 3.03.09 4.55z" fill="#237677"/><path d="m304.67 96.32c.71.08 2.13.23 2.84.31 1.28 2.11 2.5 4.27 3.73 6.42l-.85-.4c-2.56-1.42-4.22-3.91-5.72-6.33z" fill="#af176c"/><path d="m352.8 97.85c1.48-.24 2.96-.49 4.45-.73-1.01 1.36-2.03 2.7-3.09 4.02-1.23.21-2.46.42-3.68.62.79-1.29 1.55-2.6 2.32-3.91z" fill="#ba0e59"/><path d="m266.03 104.55c-2.85-1.66-1.73-4.75-.05-6.8.14 2.26.15 4.53.05 6.8z" fill="#cff5e9"/><path d="m324.14 102.22c4.16.89 8.43.99 12.66.65-.27 1.12-.55 2.23-.82 3.35-3.63.11-7.25.09-10.86-.1-.35-1.3-.68-2.6-.98-3.9z" fill="#e40430"/><path d="m334.67 118.99c2.63-5.72 5.35-11.39 7.86-17.16.92.19 2.76.55 3.68.74-3.24 5.64-6.5 11.32-10.62 16.37z" fill="#8c1380"/><path d="m308.77 105.11c.24-.39.73-1.15.97-1.54 2.76 3.74 5.87 7.24 9.44 10.23 1.65 1.5 3.47 2.82 5.32 4.07.41.27 1.21.81 1.61 1.09.69.04 2.05.11 2.74.15 1.31.02 2.62.01 3.93-.03.48-.02 1.42-.07 1.89-.09l.92-.05c1.1.11 2.2.23 3.3.37 4.02-3.8 7.81-7.83 11.96-11.49-2.77 4.74-7.14 8.19-10.91 12.09-2.27 2.45-5.87 2.39-8.95 2.4-3.12 0-6.68.11-9.06-2.26-4.9-4.49-9.19-9.62-13.16-14.94z" fill="#445257"/><path d="m325.12 106.12c3.61.19 7.23.21 10.86.1-.38 1.46-.76 2.92-1.14 4.39-2.79.09-5.58.24-8.37.45-.46-1.65-.92-3.29-1.35-4.94z" fill="#b61476"/><path d="m266.6 114.51c3.99-.09 7.05-2.64 9.4-5.63-1.89 3.46-4.48 6.47-6.58 9.8-1.05-1.32-1.97-2.72-2.82-4.17z" fill="#9cc5bd"/><path d="m283.65 109.61c1.47-.33 2.97-.49 4.46-.7.14 1.53.27 3.06.38 4.59-1.86-.09-3.72-.2-5.56-.36.19-1.19.43-2.36.72-3.53z" fill="#d63f5d"/><path d="m363.38 109.63.58.49c1.87 1.65 4.28 2.41 6.58 3.27-.28 1.58-.57 3.16-.86 4.73-2.4-.2-3.43-1.75-3.22-4.06-1.02-1.48-2.07-2.95-3.08-4.43z" fill="#bf63f6"/><path d="m385.14 113.25c1.37-2.07 3.87-2.8 6.06-3.63-.18 2.93-.49 5.84-.79 8.75-.09-2.29-.29-4.58-.49-6.87-.92 1.7-1.82 3.41-2.63 5.16-.45.98-.87 1.98-1.26 2.99-1.09-1.94-1.79-4.24-.89-6.4z" fill="#b2f76d"/><path d="m391.2 109.62c1.86.35 3.9.19 5.62 1.08-.3.09-.9.26-1.2.34-.1 1.9.3 3.78.45 5.67-.94.04-1.87.09-2.8.13-1.01 1.41-2.03 2.82-3.03 4.23-.62-.12-1.87-.37-2.49-.49.07.62.2 1.87.26 2.5-.66-1.12-2.02-2.05-1.98-3.43.39-1.01.81-2.01 1.26-2.99 1.01.91 2.03 1.82 3.06 2.72l.06-1.01c.3-2.91.61-5.82.79-8.75z" fill="#84eb18"/><path d="m326.47 111.06c2.79-.21 5.58-.36 8.37-.45-.35 1.38-.7 2.76-1.04 4.15-2.03.2-4.06.4-6.09.6-.43-1.43-.84-2.87-1.24-4.3z" fill="#761ec7"/><path d="m395.62 111.04c.3-.08.9-.25 1.2-.34 2.62.73 3.87 3.79 3.51 6.32-.56 4.11-3.65 7.2-6.42 10.03-1.19-.46-2.37-.91-3.54-1.41-1.12-.45-1.85-1.52-2.36-2.56-.06-.63-.19-1.88-.26-2.5.62.12 1.87.37 2.49.49 1-1.41 2.02-2.82 3.03-4.23.93-.04 1.86-.09 2.8-.13-.15-1.89-.55-3.77-.45-5.67z" fill="#5dd002"/><path d="m387.29 116.66c.81-1.75 1.71-3.46 2.63-5.16.2 2.29.4 4.58.49 6.87l-.06 1.01c-1.03-.9-2.05-1.81-3.06-2.72z" fill="#d8fcb3"/><path d="m327.71 115.36c2.03-.2 4.06-.4 6.09-.6-.35 1.44-.69 2.88-1.02 4.32-1.31.04-2.62.05-3.93.03-.39-1.25-.77-2.5-1.14-3.75z" fill="#4a1493"/><path d="m324.95 123.74c1.97-.03 3.94-.13 5.91.03 1.83.94 3.6 2.02 5.23 3.3-3.02 1.7-6.46 2.36-9.85 2.89-.36-1.82-.73-3.65-1.12-5.47z" fill="#7f9397"/><path d="m330.86 123.77c2.19.22 5.39-.63 6.48 1.95.72 2.87.22 5.88.07 8.8-3.5-.15-6.94.54-10.41.8-4.46-1.28-2.94-7.53-1.88-10.83.39 1.82.76 3.65 1.12 5.47 3.39-.53 6.83-1.19 9.85-2.89-1.63-1.28-3.4-2.36-5.23-3.3z" fill="#090b0c"/><path d="m390.37 125.64c1.17.5 2.35.95 3.54 1.41.04.72.11 2.15.14 2.87-.7-.05-2.09-.14-2.79-.19-.3-1.36-.6-2.73-.89-4.09z" fill="#a8dc95"/></g><path d="m142.48902 64.950963c.59859 0 1.20253.0048 1.81716.01446l-.016.400069c-.0107.289206-.0374.867618-.0534 1.156824-.36343.02892-1.0903.08676-1.45373.115683l-.41153.02892c.0321-.573592.0695-1.147184.11758-1.715956z" fill="#f1f5f5"/><g transform="matrix(.43617645 0 0 .4012734 59.372229504213 120.27737004986)"><g transform="translate(104.09583 147.68276)"><path d="m86.77 92.91c4.8-4.61 10.67-7.84 15.96-11.81-.15 16.24-.03 32.49.03 48.73-30.25.18-60.5-.1-90.75.06-.25-9.67-.02-19.35-.02-29.02 1.1 2.82 2.57 5.47 4.08 8.09 15.99.08 32.27 1.44 47.94-2.57 6.05 1.27 12.97 3.05 18.44-.94 4.27-2.63 4.73-8.03 4.32-12.54z" fill="#181d34"/><path d="m12.02 69.83c1.08 3.04 1.92 6.49 4.4 8.72 3.5 1.87 7.51 2.48 11.29 3.59.05 8.32-.26 16.65.1 24.97l.98.09c3.03.17 6.06.11 9.09.07.04-4.96.04-9.92.12-14.88 4.7.05 9.68-.07 13.84-2.54 3.19-1.76 5.19-4.89 7.12-7.85.8-.96 1.64-1.89 2.46-2.82.39 2.02.75 4.05 1.26 6.05 2.7 4.52 7.55 6.76 12.09 8.97 2 .75 2.71 2.84 3.61 4.57-5.24 2.74-10.82.12-15.73-1.97-.1 3.25-.08 6.59 1.36 9.59-15.67 4.01-31.95 2.65-47.94 2.57-1.51-2.62-2.98-5.27-4.08-8.09-.08-10.35.01-20.7.03-31.04z" fill="#171d41"/></g><g transform="translate(104.09583 148.19555)"><path d="m11.64 41.49c27.08-.15 54.16-.02 81.24-.09 3.63.02 7.26.02 10.89-.03-.04 29.8.04 59.61.02 89.42-30.58.04-61.17-.06-91.75.04l-.03-.94c30.25-.16 60.5.12 90.75-.06-.06-16.24-.18-32.49-.03-48.73-5.29 3.97-11.16 7.2-15.96 11.81-3.13-5.13-8.9-7.07-13.8-9.96-2.15-.81-1.76-4.13.4-4.61 3.92-1.08 7.8.86 11.5 1.97.05-2.5.1-5.01.18-7.51-3.87-1.8-8.11-2.48-12.35-2.47-1.87-.24-3.73-.56-5.59-.86 3.02-3.68 6.28-7.99 5.57-13.06-.56-4.36-1.58-10.16-6.51-11.54-8.13-2.51-16.77-1.87-25.17-1.96-9.24.18-18.75-.91-27.66 2.17-.41 2.39-.87 4.77-1.22 7.16-.01-3.59-.21-7.17-.48-10.75z" fill="#171d44"/><path d="m138.85 41.17c16.69.03 33.38-.03 50.07-.02 13.73.12 27.46-.27 41.19.2-1.71.2-3.42.39-5.14.5-13.59.19-27.19.19-40.78.25l.05.63c2.69.22 5.47.16 8.07 1.01 1.12.74 2.16 2.46 1.23 3.72-3.04 4.67-7.62 8.04-11.93 11.46 1.45 1.87 2.67 3.94 3.23 6.27-.21-.57-.64-1.7-.85-2.26-3.57.04-7.14.06-10.7.18-1.52 5.06-3.17 10.08-4.82 15.1-2.83-.07-7.12-2.13-8.96 1.06-4.22 7.21-11.22 12.08-16.88 18.07-3.37-8.56-1.61-17.89-3.81-26.65-.3-9.84-.34-19.69.03-29.52z" fill="#352703"/><path d="m230.11 41.35.77-.08c-.31 3.56-.35 7.15-.33 10.73.11 26.01-.01 52.03.12 78.04-21.22.28-42.44 0-63.67.1-9.21-.1-18.44.18-27.65-.24-1.38-4.96-.57-10.15-.55-15.21.88 3.83 1.1 7.78 1.97 11.61 1.05 1.93 3.51 1.19 5.24.93 3.78-.63 7.22-2.59 9.81-5.41 6.68-6.98 13.67-13.66 20.37-20.63 1.83-1.73 3.59-3.78 6.03-4.63 1.41.11 2.77.52 4.14.85 1.02 3.35 1.86 6.78 3.29 9.99 2.82.74 5.77.43 8.66.48-1.78-6.21-3.86-12.33-5.79-18.49 1.48-2.49 2.93-5 4.36-7.52 1.16-.48 2.32-.96 3.49-1.44.42-1.59.84-3.17 1.27-4.76.14 10.73-.03 21.46.15 32.19 2.71 0 5.43.01 8.14.02.02-10.83.32-21.66-.06-32.49-1.29.05-2.57.09-3.85.13.56-1.61 1.12-3.21 1.67-4.82.43-.12 1.3-.36 1.73-.48.49-.15 1.48-.45 1.97-.6 1.58-3.83 3.44-7.81 7.11-10.07 4.77-3.03 9.12-7.61 9.55-13.52.47-2.1-1.82-3.01-3.08-4.18 1.72-.11 3.43-.3 5.14-.5z" fill="#1d1a0c"/><path d="m13.34 45.08c8.91-3.08 18.42-1.99 27.66-2.17 8.4.09 17.04-.55 25.17 1.96 4.93 1.38 5.95 7.18 6.51 11.54.71 5.07-2.55 9.38-5.57 13.06 1.86.3 3.72.62 5.59.86-3.02 1.15-6.28 2.4-8.2 5.16-2.01 2.82-1.69 6.46-1.82 9.74-.51-2-.87-4.03-1.26-6.05-.82.93-1.66 1.86-2.46 2.82.73-4.86 1.19-10.2-1.39-14.63-2.49-4.49-7.57-6.93-12.55-7.32-5.43-.43-10.88-.01-16.32.15-.15 15.66-.16 31.34.09 47l-.98-.09c-.36-8.32-.05-16.65-.1-24.97-3.78-1.11-7.79-1.72-11.29-3.59-2.48-2.23-3.32-5.68-4.4-8.72-.14-5.86-.15-11.73.1-17.59.35-2.39.81-4.77 1.22-7.16z" fill="#161d56"/><path d="m3.39 44c-.01-3.3-.02-6.61.29-9.9-.23 23.96-.07 47.92-.06 71.88-.01 11.12-.17 22.25.06 33.37 36.16.05 72.32-.07 108.48.06.37-34.76-.16-69.53.29-104.29-.15 35.05.2 70.11-.2 105.16-36.23.18-72.47-.04-108.7.1-.31-32.12-.03-64.25-.16-96.38z" fill="#2a2108"/><path d="m138.82 70.69c2.2 8.76.44 18.09 3.81 26.65 5.66-5.99 12.66-10.86 16.88-18.07 1.84-3.19 6.13-1.13 8.96-1.06-2.03 6.35-3.98 12.72-6 19.07-1.19 3.51-2.34 7.04-3.42 10.58 2.85 0 5.71-.02 8.56-.08 1.18-4.2 2.46-8.37 3.7-12.55 2.23-.05 4.47-.08 6.7-.08 2.57 0 5.14.03 7.71.08.16.55.48 1.63.64 2.18-1.37-.33-2.73-.74-4.14-.85-2.44.85-4.2 2.9-6.03 4.63-6.7 6.97-13.69 13.65-20.37 20.63-2.59 2.82-6.03 4.78-9.81 5.41-1.73.26-4.19 1-5.24-.93-.87-3.83-1.09-7.78-1.97-11.61-.34-14.66-.25-29.34.02-44z" fill="#2a2108"/><path d="m93.33 34.35c6.39-.26 12.78-.42 19.16-.15l-.04.92c-.45 34.76.08 69.53-.29 104.29-36.16-.13-72.32-.01-108.48-.06-.23-11.12-.07-22.25-.06-33.37 2.47-.01 4.94-.01 7.42-.01.29 8.29.06 16.58.05 24.87l.95-.01c30.58-.1 61.17 0 91.75-.04.02-29.81-.06-59.62-.02-89.42-3.63.05-7.26.05-10.89.03.15-2.35.3-4.7.45-7.05z" fill="#86d5ff"/><path d="m11.21 68c .25-8.83-.31-17.69.43-26.51.27 3.58.47 7.16.48 10.75-.25 5.86-.24 11.73-.1 17.59-.02 10.34-.11 20.69-.03 31.04 0 9.67-.23 19.35.02 29.02l.03.94-.95.01c.01-8.29.24-16.58-.05-24.87-.17-12.65.14-25.31.17-37.97z" fill="#659ced"/><path d="m28.7 60.2c5.44-.16 10.89-.58 16.32-.15 4.98.39 10.06 2.83 12.55 7.32 2.58 4.43 2.12 9.77 1.39 14.63-1.93 2.96-3.93 6.09-7.12 7.85-4.16 2.47-9.14 2.59-13.84 2.54-.08 4.96-.08 9.92-.12 14.88-3.03.04-6.06.1-9.09-.07-.25-15.66-.24-31.34-.09-47m9.39 6.91c-.15 5.93-.21 11.88-.01 17.81 3.05-.1 6.56.36 9.08-1.76 3.63-3.03 3.71-8.85 1.56-12.76-2.2-3.69-6.96-3.21-10.63-3.29z" fill="#97defe"/><path d="m38.09 67.11c3.67.08 8.43-.4 10.63 3.29 2.15 3.91 2.07 9.73-1.56 12.76-2.52 2.12-6.03 1.66-9.08 1.76-.2-5.93-.14-11.88.01-17.81z" fill="#171d52"/><path d="m3.7 33.23c32.77.13 65.53.08 98.3.04 3.5.03 7.17-.52 10.49.93-6.38-.27-12.77-.11-19.16.15-.15 2.35-.3 4.7-.45 7.05-27.08.07-54.16-.06-81.24.09-.74 8.82-.18 17.68-.43 26.51-.03 12.66-.34 25.32-.17 37.97-2.48 0-4.95 0-7.42.01-.01-23.96-.17-47.92.06-71.88z" fill="#9be0ff"/><path d="m72.7 70.33c4.24-.01 8.48.67 12.35 2.47-.08 2.5-.13 5.01-.18 7.51-3.7-1.11-7.58-3.05-11.5-1.97-2.16.48-2.55 3.8-.4 4.61 4.9 2.89 10.67 4.83 13.8 9.96.41 4.51-.05 9.91-4.32 12.54-5.47 3.99-12.39 2.21-18.44.94-1.44-3-1.46-6.34-1.36-9.59 4.91 2.09 10.49 4.71 15.73 1.97-.9-1.73-1.61-3.82-3.61-4.57-4.54-2.21-9.39-4.45-12.09-8.97.13-3.28-.19-6.92 1.82-9.74 1.92-2.76 5.18-4.01 8.2-5.16z" fill="#89d5fe"/><path d="m130.55 32.69c21.63 0 43.27-.22 64.9.07-1.97 2.95-4.17 5.74-6.53 8.39-16.69-.01-33.38.05-50.07.02h-.8c.47 15.96-.43 31.93-.37 47.89.25 3.37-2.47 5.65-4.53 7.89-.64-.23-1.91-.69-2.55-.92-.04-21.11.12-42.22-.05-63.34z" fill="#ffb830"/><path d="m195.45 32.76c14.68-.13 29.37-.32 44.05.05-.19.45-.56 1.35-.75 1.79-2.2 2.67-4.88 4.93-7.87 6.67l-.77.08c-13.73-.47-27.46-.08-41.19-.2 2.36-2.65 4.56-5.44 6.53-8.39z" fill="#ffa913"/><path d="m230.88 41.27c2.99-1.74 5.67-4 7.87-6.67.63 34.68-.07 69.39.39 104.07-6.37-.57-12.76-.22-19.14-.3-28.4-.07-56.81.15-85.21-.07 2.06-2.42 6.7-4.65 4.56-8.4 9.21.42 18.44.14 27.65.24 21.23-.1 42.45.18 63.67-.1-.13-26.01-.01-52.03-.12-78.04-.02-3.58.02-7.17.33-10.73z" fill="#ff9300"/><path d="m138.05 41.17h.8c-.37 9.83-.33 19.68-.03 29.52-.27 14.66-.36 29.34-.02 44-.02 5.06-.83 10.25.55 15.21 2.14 3.75-2.5 5.98-4.56 8.4-1.36-.02-2.73-.04-4.09-.07-.3-14.06-.03-28.13-.1-42.2.64.23 1.91.69 2.55.92 2.06-2.24 4.78-4.52 4.53-7.89-.06-15.96.84-31.93.37-47.89z" fill="#ffa914"/><path d="m184.19 42.1c13.59-.06 27.19-.06 40.78-.25 1.26 1.17 3.55 2.08 3.08 4.18-.43 5.91-4.78 10.49-9.55 13.52-3.67 2.26-5.53 6.24-7.11 10.07-.49.15-1.48.45-1.97.6.32-2.13 1.79-4.67.15-6.59-1.33-1.89-4.11-2.01-6.08-1.18-2.71 1.44-3.01 5.76-.49 7.53 1.42.79 3.12.69 4.69.72-.55 1.61-1.11 3.21-1.67 4.82-1.46.05-2.92.1-4.38.15-.43 1.59-.85 3.17-1.27 4.76-1.17.48-2.33.96-3.49 1.44-1.43 2.52-2.88 5.03-4.36 7.52-1.37-4.16-2.72-8.32-4.12-12.46-1.34-3.87-2.4-7.82-3.56-11.74-.56-2.33-1.78-4.4-3.23-6.27 4.31-3.42 8.89-6.79 11.93-11.46.93-1.26-.11-2.98-1.23-3.72-2.6-.85-5.38-.79-8.07-1.01z" fill="#292108"/><path d="m203.49 62.45c1.97-.83 4.75-.71 6.08 1.18 1.64 1.92.17 4.46-.15 6.59-.43.12-1.3.36-1.73.48-1.57-.03-3.27.07-4.69-.72-2.52-1.77-2.22-6.09.49-7.53z" fill="#fda608"/><path d="m173.29 63.11c3.56-.12 7.13-.14 10.7-.18.21.56.64 1.69.85 2.26 1.16 3.92 2.22 7.87 3.56 11.74-1.41 1.95-2.84 3.89-4.29 5.82-.53-.17-1.6-.53-2.13-.71-1.27-4.01-2.42-8.07-3.53-12.13-1.9 6.16-3.37 12.47-5.79 18.46-2.44 3.75-5.12 8.74-10.19 8.91 2.02-6.35 3.97-12.72 6-19.07 1.65-5.02 3.3-10.04 4.82-15.1z" fill="#febb36"/><path d="m172.66 88.37c2.42-5.99 3.89-12.3 5.79-18.46 1.11 4.06 2.26 8.12 3.53 12.13.68 2.19 1.37 4.38 2.06 6.56-.41.16-1.21.46-1.61.61-3.27-.13-6.53-.38-9.77-.84z" fill="#292008"/><path d="m201.64 75.67c1.46-.05 2.92-.1 4.38-.15 1.28-.04 2.56-.08 3.85-.13.38 10.83.08 21.66.06 32.49-2.71-.01-5.43-.02-8.14-.02-.18-10.73-.01-21.46-.15-32.19z" fill="#fe8f00"/><path d="m188.4 76.93c1.4 4.14 2.75 8.3 4.12 12.46 1.93 6.16 4.01 12.28 5.79 18.49-2.89-.05-5.84.26-8.66-.48-1.43-3.21-2.27-6.64-3.29-9.99-.16-.55-.48-1.63-.64-2.18-2.57-.05-5.14-.08-7.71-.08 1.48-1.98 2.9-3.99 4.42-5.94.4-.15 1.2-.45 1.61-.61-.69-2.18-1.38-4.37-2.06-6.56.53.18 1.6.54 2.13.71 1.45-1.93 2.88-3.87 4.29-5.82z" fill="#fd9b00"/><path d="m162.47 97.28c5.07-.17 7.75-5.16 10.19-8.91 3.24.46 6.5.71 9.77.84-1.52 1.95-2.94 3.96-4.42 5.94-2.23 0-4.47.03-6.7.08-1.24 4.18-2.52 8.35-3.7 12.55-2.85.06-5.71.08-8.56.08 1.08-3.54 2.23-7.07 3.42-10.58z" fill="#fdaa15"/></g></g><path d="m115.21017 82.973323c1.83854.303666 3.70381.50129 5.55304.800137 1.34684.265105 2.73109.544671 3.94966 1.161644.18172.684454.23516 1.393009.32602 2.096744-2.16456 1.320708-4.55894 2.255808-6.84643 3.369251-.68411.231365-.53446 1.098983-.0534 1.446031 1.83855 1.846098 4.65515 2.39077 7.1297 3.224647-2.84867 1.542433-6.16232.780853-9.24081.457913-3.7145-2.25581-6.36542-5.5624-8.53533-9.032873 1.74234.48683 3.45795 1.171285 5.30184 1.325528 1.61942-.650714 2.61886-2.135305 3.86949-3.239108-.4917-.535032-.97806-1.074883-1.45373-1.609914z" fill="#e70025"/><path d="m21.551378 83.932523c.807035.154243 1.630103.294026 2.458517.428989-.01069.236185-.02672.708555-.03741.94474-.213784.01928-.646696.06266-.86048.08194-.7429-.226545-1.07961-.964021-1.560624-1.455671z" fill="#df6e00"/><path d="m18.424786 145.22493c6.974705-3.18608 15.162634-4.54535 22.842826-2.88242-3.265551-.0193-6.536447.0289-9.78062.36151.40619.52057.823069 1.04114 1.239947 1.56171-2.431793.40007-4.676526 1.42193-6.654028 2.733-2.244733 1.47495-4.510844 2.9981-6.242495 4.97435-1.699583 1.9425-2.527996 4.33809-3.361754 6.65656-.219128-.0723-.657386-.21691-.881859-.28921-.470325-.81942-.935305-1.63883-1.389596-2.45825.01603 2.10638-.08551 4.21277-.122926 6.32397-.400845-1.8943-.748244-3.79342-.988751-5.70218-.02138-1.8702-.117582-3.76932.32602-5.60578.464981-1.79789 1.875955-3.20054 3.196072-4.54053.849791.10604 1.60338-.38561 1.817164-1.13273z" fill="#df6e00"/><path d="m846.46 227.59.22.86c-2.45 11.14-6.35 21.94-8.02 33.26-.59 4.69-3.01 10.18.63 14.22-3.7 1.75-7.64 3.26-11.81 2.72-.93-5.97-2.41-12.26 0-18.09.26 2.99.74 5.96 1.27 8.93 3.71-7.36 5.01-15.64 7.09-23.55 2.47-6.68 6.3-12.72 10.62-18.35z" fill="#f30005" transform="matrix(.53446013 0 0 .48201015 -435.98925 2.1402205)"/><path d="m830.24 255.09c2.1-2.9 4.02-5.94 5.6-9.15-2.08 7.91-3.38 16.19-7.09 23.55-.53-2.97-1.01-5.94-1.27-8.93.75-2.6 1.65-5.16 2.44-7.75.08.57.24 1.71.32 2.28z" fill="#ff184b" transform="matrix(.53446013 0 0 .48201015 -435.98925 2.1402205)"/><path d="m830.44 294.04c-.83-4.73-1.45-9.61-.1-14.32 1.53.96 3.08 1.93 4.63 2.91 1.67-.65 3.34-1.29 5.03-1.93.65 1.14 1.31 2.27 1.98 3.41 1.24.35 2.5.7 3.77 1.06-2.5 4.6-5.34 9.05-7.27 13.93-.6-1.8-.51-4.3-2.45-5.26-1.76-.97-3.78.02-5.59.2z" fill="#ea0031" transform="matrix(.53446013 0 0 .48201015 -435.98925 2.1402205)"/><path d="m827.21 291.55c1.04 3.26 2.11 6.52 2.91 9.86.68 6.41 2.64 12.58 3.59 18.95.13.88.41 2.64.55 3.52-2.72-4.54-2.8-9.99-4.12-14.99-.95-5.78-3.22-11.41-2.93-17.34z" fill="#d67ba9" transform="matrix(.53446013 0 0 .48201015 -435.98925 2.1402205)"/><path d="m825.24 335.17c2.25.59 4.49 1.19 6.73 1.87 2.95 2.76 4.76 6.63 6.93 10.05.32.94.65 1.89 1.01 2.83.77 2.1 1.78 4.1 2.88 6.06-.28 1.41-.45 2.83-.64 4.26-5.89-5.46-9.2-13.1-15.42-18.22-.51-2.29-1.01-4.57-1.49-6.85z" fill="#d8b88d" transform="matrix(.53446013 0 0 .48201015 -435.98925 2.1402205)"/><g transform="matrix(.53446013 0 0 .48201015 -435.98925 2.1402205)"><path d="m909.89 9.58c5.04-.3 10.1-.32 15.16-.35-1.49 13.35-2.81 27.18 1.31 40.22 1.77 7.53 5.65 14.34 7.53 21.82-3.45-5.59-5.54-11.84-7.86-17.94-1.34-5.28-2.59-10.6-3.41-16-.4-9.09.05-18.2 1.38-27.2-.72-.06-2.16-.17-2.88-.22-.77-.05-2.32-.16-3.09-.21-1.76-.08-3.52-.12-5.26-.12-.72 0-2.16 0-2.88 0z" fill="#e28dd5"/><path d="m902.71 23.59c2.33-4.7 4.71-9.37 7.18-14.01h2.88c-1.48 3.25-2.81 6.57-4.02 9.93 1.73-.49 3.48-.97 5.23-1.45-.4 2.59-.8 5.18-1.44 7.72-.72 2.18-1.63 4.28-2.41 6.42.01-1.66-.03-3.32-.04-4.98-2.02 1.95-4.2 3.71-6.5 5.3-.06-2.73-.21-5.46-.75-8.14z" fill="#a50092"/><path d="m912.77 9.58c1.74 0 3.5.04 5.26.12-2.2 6.24-3.72 12.89-2.38 19.5-1.05-1.14-2.08-2.28-3.11-3.42.64-2.54 1.04-5.13 1.44-7.72-1.75.48-3.5.96-5.23 1.45 1.21-3.36 2.54-6.68 4.02-9.93z" fill="#ad04c2"/><path d="m918.03 9.7c.77.05 2.32.16 3.09.21-1.27 7.1-2.05 14.29-1.76 21.52-.28 2.17-.54 4.34-.79 6.52-.81-1.71-1.63-3.41-2.36-5.16-.21-1.19-.4-2.39-.56-3.59-1.34-6.61.18-13.26 2.38-19.5z" fill="#e228e7"/><path d="m921.12 9.91c.72.05 2.16.16 2.88.22-1.33 9-1.78 18.11-1.38 27.2-.6-3.51-1.2-7.02-1.88-10.52-.43 1.26-.82 2.53-1.17 3.81l-.21.81c-.29-7.23.49-14.42 1.76-21.52z" fill="#a00188"/><path d="m879.18 63.96c7.95-13.15 14.89-26.96 23.66-39.58.54 2.68.69 5.41.75 8.14 2.3-1.59 4.48-3.35 6.5-5.3.01 1.66.05 3.32.04 4.98-.11.43-.33 1.3-.44 1.73-.77 2.99-1.4 6.02-1.96 9.07l-.96-.04c.04-.72.12-2.18.15-2.91-2.88.55-5.76 1.13-8.63 1.73-.48-.53-1.44-1.58-1.92-2.11.53-1.3 1.03-2.61 1.53-3.92-3.39 3.24-5.58 7.4-7.69 11.51-6.45 10.57-12.55 21.35-19.19 31.8 2.04-5.38 5.37-10.11 8.16-15.1z" fill="#aa0069"/><path d="m910.13 32.2c.78-2.14 1.69-4.24 2.41-6.42 1.03 1.14 2.06 2.28 3.11 3.42.16 1.2.35 2.4.56 3.59.31 2.38.55 4.78.92 7.15-2.26-1.12-4.51-2.25-6.75-3.38-.18-.66-.52-1.98-.69-2.63.11-.43.33-1.3.44-1.73z" fill="#c70598"/><path d="m920.74 26.81c.68 3.5 1.28 7.01 1.88 10.52.82 5.4 2.07 10.72 3.41 16-.55-.07-1.66-.22-2.21-.29-.18-.35-.54-1.04-.71-1.38-2.06-6.83-3.18-13.92-3.54-21.04.35-1.28.74-2.55 1.17-3.81z" fill="#ba0153"/><path d="m919.36 31.43.21-.81c.36 7.12 1.48 14.21 3.54 21.04-.1.88-.31 2.64-.41 3.52-1.13-1.76-2.24-3.55-3.18-5.42-1.06-3.2-1.83-6.5-2.39-9.82-.37-2.37-.61-4.77-.92-7.15.73 1.75 1.55 3.45 2.36 5.16.25-2.18.51-4.35.79-6.52z" fill="#f329b2"/><path d="m907.73 43c .56-3.05 1.19-6.08 1.96-9.07.17.65.51 1.97.69 2.63 2.24 1.13 4.49 2.26 6.75 3.38.56 3.32 1.33 6.62 2.39 9.82-.49 1.13-.97 2.27-1.44 3.4-1.94-3.92-5.24-7.05-9.64-7.85-.18-.58-.53-1.74-.71-2.31z" fill="#c80173"/><path d="m890.21 47.26c2.11-4.11 4.3-8.27 7.69-11.51-.5 1.31-1 2.62-1.53 3.92-1.48 3.26-2.81 6.6-3.74 10.06 3.97-.53 7.94-1.09 11.93-1.53.2 1.32.38 2.64.56 3.97-.12.39-.35 1.17-.46 1.56-.43 1.18-.88 2.34-1.27 3.52-5.57-.29-11.05.79-16.47 1.9 1.49-4.13 3.32-8.13 5.04-12.18-.44.07-1.31.22-1.75.29z" fill="#aa002a"/><path d="m892.63 49.73c.93-3.46 2.26-6.8 3.74-10.06.48.53 1.44 1.58 1.92 2.11 2.87-.6 5.75-1.18 8.63-1.73-.03.73-.11 2.19-.15 2.91-.22 3.12-.79 6.21-1.65 9.21-.18-1.33-.36-2.65-.56-3.97-3.99.44-7.96 1-11.93 1.53z" fill="#aa0049"/><path d="m906.77 42.96.96.04c.18.57.53 1.73.71 2.31 4.4.8 7.7 3.93 9.64 7.85.84 2.16 1.5 4.39 2.14 6.62.02.82.05 2.46.06 3.28-1.07-.74-2.12-1.48-3.12-2.28-1.12-1.53-2.12-3.2-3.61-4.37-2.22-1.03-4.72-.94-7.09-1.18-.45-.38-1.35-1.12-1.8-1.5.11-.39.34-1.17.46-1.56.86-3 1.43-6.09 1.65-9.21z" fill="#c70050"/><path d="m1042.77 49.47c4.95-1.33 10.13-1.43 15.22-1.86 6.39.02 12.87-.55 19.18.76-2.78.2-5.54.58-8.26 1.08-4.68.88-9.27 2.23-14.02 2.67-1.47.08-2.92.11-4.37.13-2.6-.89-5.15-1.93-7.75-2.78z" fill="#50f0e3"/><path d="m1054.89 52.12c4.75-.44 9.34-1.79 14.02-2.67 3.51 1.67 7.21 3.06 11.12 3.48-.33.51-.99 1.54-1.32 2.05-7.12.03-14.24-.07-21.35.04-.84-.97-1.66-1.93-2.47-2.9z" fill="#3edfc0"/><path d="m1068.91 49.45c2.72-.5 5.48-.88 8.26-1.08 11.06.39 21.77 3.52 32.62 5.4l-.18.74c-9.78-1.78-19.72-1.23-29.58-1.58-3.91-.42-7.61-1.81-11.12-3.48z" fill="#4dfdae"/><path d="m919.52 49.76c.94 1.87 2.05 3.66 3.18 5.42.1-.88.31-2.64.41-3.52.17.34.53 1.03.71 1.38 1.84 4.95 3.14 10.09 5.24 14.96-.07 1.4-.15 2.8-.25 4.21-3.71-3.5-6.3-7.93-8.59-12.43-.64-2.23-1.3-4.46-2.14-6.62.47-1.13.95-2.27 1.44-3.4z" fill="#fa186e"/><path d="m1032.37 51.16c3.42-.76 6.86-1.75 10.4-1.69 2.6.85 5.15 1.89 7.75 2.78-3.82.69-7.6 1.91-11.52 1.7-4.12-.19-8.31-.96-12.35.21-3.61.88-7.19 1.87-10.77 2.84 4.93-3.27 10.83-4.42 16.49-5.84z" fill="#51e0fc"/><path d="m1050.52 52.25c1.45-.02 2.9-.05 4.37-.13.81.97 1.63 1.93 2.47 2.9-.98.79-1.93 1.59-2.88 2.38-4.11-.5-8.24.14-12.28.85-5.27-1.01-10.56-2.09-15.55-4.09 4.04-1.17 8.23-.4 12.35-.21 3.92.21 7.7-1.01 11.52-1.7z" fill="#35bee6"/><path d="m923.82 53.04c.55.07 1.66.22 2.21.29 2.32 6.1 4.41 12.35 7.86 17.94 4.33 8.64 8.65 17.32 11.82 26.47-.41.64-1.23 1.91-1.64 2.55-.57-.82-1.14-1.63-1.7-2.43-5.22-8.59-15.72-11.03-24.46-14.49 1.24-.07 2.5-.16 3.76-.27-1.93-4.97-3.98-10-4.46-15.35-.11-2.33-.04-4.65-.05-6.97 1 .8 2.05 1.54 3.12 2.28.56 4.66 1.8 9.21 2.92 13.76.81 2.82 1.55 6.08 4.2 7.79 3.94 2.64 8.42 4.3 12.74 6.23-3.26-7.81-6.8-15.53-11.08-22.84-2.1-4.87-3.4-10.01-5.24-14.96z" fill="#ed022b"/><path d="m1080.03 52.93c9.86.35 19.8-.2 29.58 1.58 1.59.26 3.1.86 4.65 1.4l-.87.1c-5.62.52-11.21 1.22-16.74 2.3-5.54.19-11.07-.11-16.6 0-.46-1.11-.91-2.22-1.34-3.33.33-.51.99-1.54 1.32-2.05z" fill="#35eb85"/><path d="m903.39 57.25c.39-1.18.84-2.34 1.27-3.52.45.38 1.35 1.12 1.8 1.5 2.37.24 4.87.15 7.09 1.18 1.49 1.17 2.49 2.84 3.61 4.37.01 2.32-.06 4.64.05 6.97-4.66-2.11-10.08-1.03-14.62-3.48.17-2.35.38-4.7.8-7.02z" fill="#c90029"/><path d="m1015.88 57c3.58-.97 7.16-1.96 10.77-2.84 4.99 2 10.28 3.08 15.55 4.09-2.58.79-5.11 1.71-7.69 2.44-13.98 3.41-27.49 8.48-40.7 14.13-3.1 1.15-4.87 4.05-6.64 6.65l-.42.62c1.47-7.99 8.14-13.45 14.48-17.78 4.61-2.91 9.46-5.56 14.65-7.31z" fill="#309bff"/><path d="m1057.36 55.02c7.11-.11 14.23-.01 21.35-.04.43 1.11.88 2.22 1.34 3.33-4.39.26-8.72 1.04-13.03 1.81-4.38.36-8.6-.96-12.54-2.72.95-.79 1.9-1.59 2.88-2.38z" fill="#26bbb0"/><path d="m1096.65 58.31c5.53-1.08 11.12-1.78 16.74-2.3 11.18 3.12 21.25 9.34 30.95 15.58 2.22 1.33 4.22 3.01 5.71 5.15-2.68-.88-5.38-1.78-7.82-3.19-3.55-2.13-7.25-3.98-11.1-5.48-10.83-5.24-22.72-7.64-34.48-9.76z" fill="#35fd52"/><path d="m1042.2 58.25c4.04-.71 8.17-1.35 12.28-.85 3.94 1.76 8.16 3.08 12.54 2.72-5.04 1.16-9.89 3.06-15.02 3.79-4.42.68-8.84 1.5-13.01 3.16-1.51-2.12-3.01-4.25-4.48-6.38 2.58-.73 5.11-1.65 7.69-2.44z" fill="#188ed5"/><path d="m1067.02 60.12c4.31-.77 8.64-1.55 13.03-1.81 5.53-.11 11.06.19 16.6 0 11.76 2.12 23.65 4.52 34.48 9.76-.63.08-1.91.22-2.54.3-4.48-1.75-9-3.42-13.74-4.29-.66-.14-2-.41-2.67-.55-3.25-.59-6.51-1.15-9.77-1.66-11.58-2.13-23.85-2.18-35.16 1.34-4.99.99-9.93 2.17-14.92 3.17l-1.13-.05c.2-.6.6-1.81.8-2.42 5.13-.73 9.98-2.63 15.02-3.79z" fill="#146b6e"/><path d="m920.22 59.78c2.29 4.5 4.88 8.93 8.59 12.43.1-1.41.18-2.81.25-4.21 4.28 7.31 7.82 15.03 11.08 22.84-4.32-1.93-8.8-3.59-12.74-6.23-2.65-1.71-3.39-4.97-4.2-7.79-1.12-4.55-2.36-9.1-2.92-13.76-.01-.82-.04-2.46-.06-3.28z" fill="#ff124d"/><path d="m993.81 74.82c13.21-5.65 26.72-10.72 40.7-14.13 1.47 2.13 2.97 4.26 4.48 6.38-8.64 3.27-16.89 7.44-24.98 11.89-5.68 3.21-11.97 5.06-18.3 6.46-2.55-1.12-5.06-2.33-7.58-3.49l-.96-.46c1.77-2.6 3.54-5.5 6.64-6.65z" fill="#1d7fff"/><path d="m960.86 365.67c3.53-.15 7.01-.83 10.51-1.31-1.67.47-3.3 1.03-4.95 1.54-1.86-.15-3.71-.24-5.56-.23z" fill="#1d7fff"/><path d="m848.95 383.08c1.52.84 3.07 1.62 4.65 2.38.51.24 1.53.72 2.04.96 1.18.8 2.33 1.67 3.53 2.48-3.79-1.16-7.3-3.13-10.22-5.82z" fill="#1d7fff"/><path d="m1067.25 63.21c11.31-3.52 23.58-3.47 35.16-1.34-7.49.32-14.99-.66-22.45.18-4.48.48-8.94 1.07-13.43 1.38z" fill="#9e2bcd"/><path d="m1066.53 63.43c4.49-.31 8.95-.9 13.43-1.38 7.46-.84 14.96.14 22.45-.18 3.26.51 6.52 1.07 9.77 1.66.58 1.08 1.18 2.15 1.79 3.23-1.88-.04-3.76-.08-5.62-.12-9.76-1.48-19.75-1.63-29.51-.1-5.49.84-11.03 1.15-16.57 1.32.17-1.13.34-2.27.53-3.4 1.23-.34 2.48-.69 3.73-1.03z" fill="#ea49ff"/><path d="m902.59 64.27c4.54 2.45 9.96 1.37 14.62 3.48.48 5.35 2.53 10.38 4.46 15.35-1.26.11-2.52.2-3.76.27-.42-.09-1.27-.29-1.69-.38-4.49-1.83-9.11-3.36-13.93-3.97-2.19-.55-4.33-1.24-6.51-1.77 1.98-.4 3.96-.88 5.94-1.36.3-3.87.62-7.74.87-11.62z" fill="#cd0002"/><path d="m1038.99 67.07c4.17-1.66 8.59-2.48 13.01-3.16-.2.61-.6 1.82-.8 2.42-2.11-.12-4.25-.12-6.23.65-5.54 2.06-11.2 3.95-16.31 6.97-2.18.99-4.35 2.01-6.49 3.08-2.87 1.32-5.59 2.97-8.19 4.76-5.34 3.45-11.98 6.8-18.27 3.63 6.33-1.4 12.62-3.25 18.3-6.46 8.09-4.45 16.34-8.62 24.98-11.89z" fill="#0254f1"/><path d="m1112.18 63.53c.67.14 2.01.41 2.67.55 2.68 1.06 5.23 2.41 7.77 3.76-.55.33-1.65.98-2.2 1.31-7.5-.13-14.92 1.25-22.42.96-4.3-.02-8.61-.46-12.88.03-1.84.13-2.8 1.91-4.03 3.01-2.52.8-5.04 1.64-7.46 2.69-6.21-.45-12.45-.27-18.63.44-4.73.32-10.23.8-13.8-2.97 3.78-2.59 7.91-4.65 12.26-6.12-.47 1.59-.92 3.17-1.37 4.76 7.13-.25 14.24-.96 21.38-1.25 5.16.1 9.31-3.9 14.48-3.78 6.79-.04 13.6.24 20.4-.28 1.86.04 3.74.08 5.62.12-.61-1.08-1.21-2.15-1.79-3.23z" fill="#ac06d6"/><path d="m1114.85 64.08c4.74.87 9.26 2.54 13.74 4.29-2.9.88-5.91 1.29-8.93 1.22l.76-.44c.55-.33 1.65-.98 2.2-1.31-2.54-1.35-5.09-2.7-7.77-3.76z" fill="#8401bd"/><path d="m1053.46 67.19c3.06-1.07 6.2-1.9 9.34-2.73-.19 1.13-.36 2.27-.53 3.4 5.54-.17 11.08-.48 16.57-1.32 9.76-1.53 19.75-1.38 29.51.1-6.8.52-13.61.24-20.4.28-5.17-.12-9.32 3.88-14.48 3.78-7.14.29-14.25 1-21.38 1.25.45-1.59.9-3.17 1.37-4.76z" fill="#cc1dee"/><path d="m1044.97 66.98c1.98-.77 4.12-.77 6.23-.65l1.13.05c-2.98 1.37-6 2.66-9.12 3.64-4.89 1.17-9.67 2.75-14.55 3.93 5.11-3.02 10.77-4.91 16.31-6.97z" fill="#659c64"/><path d="m1128.59 68.37c.63-.08 1.91-.22 2.54-.3 3.85 1.5 7.55 3.35 11.1 5.48-6.75-.21-13.56-.79-20.27.15-4.3.82-9.6 5.33-6.6 9.98 4.26 6.61 11.14 10.91 17.41 15.44 8.75 6.13 18.58 11.08 26.1 18.76.3 1.07.6 2.16.89 3.25-7.51-5.1-14.92-10.34-22.41-15.47-2.3-1.55-4.86-2.64-7.36-3.78-4.87-4.06-9.93-7.91-15.23-11.39-1.13-4.25-3.37-8.58-2.33-13.07.81-3.74 4.35-5.78 7.23-7.83 3.02.07 6.03-.34 8.93-1.22z" fill="#57016b"/><path d="m1098 70.11c7.5.29 14.92-1.09 22.42-.96l-.76.44c-4.41 1-8.02 3.66-11.86 5.85-7.68-1.07-15.21-4.2-23.12-3 .85 2.04 1.71 4.09 2.5 6.17-4.49-1.06-9.02-1.93-13.55-2.77 2.42-1.05 4.94-1.89 7.46-2.69 1.23-1.1 2.19-2.88 4.03-3.01 4.27-.49 8.58-.05 12.88-.03z" fill="#9700c3"/><path d="m1028.66 73.95c4.88-1.18 9.66-2.76 14.55-3.93-.95.72-1.87 1.47-2.75 2.23-1.27 1.12-2.46 2.31-3.55 3.57-3.7 3.88-6.32 8.64-10.25 12.31-1.74-3.64-3.03-7.57-2.5-11.65-.49.14-1.49.41-1.99.55 2.14-1.07 4.31-2.09 6.49-3.08z" fill="#ffc11b"/><path d="m1107.8 75.44c3.84-2.19 7.45-4.85 11.86-5.85-2.88 2.05-6.42 4.09-7.23 7.83-1.04 4.49 1.2 8.82 2.33 13.07-8.63-5.12-17.91-9.18-27.58-11.88-.79-2.08-1.65-4.13-2.5-6.17 7.91-1.2 15.44 1.93 23.12 3z" fill="#8d00ad"/><path d="m1026.66 88.13c3.93-3.67 6.55-8.43 10.25-12.31-1.82 4.39-3.92 8.66-6.41 12.71-3.79 6.14-5.99 13.18-10.51 18.86-2.86.06-6.36-.32-8.28 2.3-2.48 3.47-3.48 7.72-5.3 11.53-.68-4.1-.27-8.58-2.5-12.27-.93-1.38-1.93-2.7-2.88-4.05-3.82-5.62-8.06-11-11.17-17.07-.15-1.29-.22-2.58-.22-3.87 4.43 2.13 9.14 4.6 14.25 3.72 4.11-.29 7.36-3.05 10.09-5.89 2.6-1.79 5.32-3.44 8.19-4.76.5-.14 1.5-.41 1.99-.55-.53 4.08.76 8.01 2.5 11.65z" fill="#ffac00"/><path d="m870.82 81.05c3.75-1.33 7.43-3.01 11.41-3.59 4.49-.62 9.03-.33 13.55-.21 2.18.53 4.32 1.22 6.51 1.77-5.84-.07-11.72-1.09-17.52 0 2.49.65 5.01 1.28 7.56 1.77-8.93.48-18.46 1.99-25.26 8.31-.81.98-1.03 2.28-1.45 3.45-1.12.82-2.18 1.71-3.18 2.66 1.77-5.87 5.07-11.17 8.58-16.15-.05.5-.15 1.5-.2 1.99z" fill="#fd7500"/><path d="m884.77 79.02c5.8-1.09 11.68-.07 17.52 0 4.82.61 9.44 2.14 13.93 3.97-3.07-.36-6.15-.57-9.23-.77.73.54 1.48 1.07 2.25 1.59-5.63-1.07-11.26-2.11-16.91-3.02-2.55-.49-5.07-1.12-7.56-1.77z" fill="#ff8332"/><path d="m1067.48 77.69c7.38-.72 14.79.46 21.81 2.75-2.64.29-5.25.77-7.85 1.24 4.45 3.63 7.98 8.16 11.33 12.79-6.28-.75-12.68-1.25-18.95-.15-4.71.62-9.58 2.61-14.25.7.66-1.16 1.36-2.29 2.08-3.42-3.89.24-7.79.37-11.68.47 2.63-2.4 5.11-4.95 7.55-7.54 2.78-2.98 6.51-4.75 9.96-6.84z" fill="#ff7c01"/><path d="m867.07 89.1c6.8-6.32 16.33-7.83 25.26-8.31 5.65.91 11.28 1.95 16.91 3.02 3.64 1.56 7.34 3.08 10.61 5.35 4.29 2.96 7.76 6.91 11.76 10.22-.78 1.33-1.51 2.67-2.29 3.99l-.74.05c-3.53-4.41-6.58-9.44-11.56-12.4-9.82-6.24-22.22-6.01-33.28-4.02-6.28.94-12.29 3.11-18.12 5.55.42-1.17.64-2.47 1.45-3.45z" fill="#dd2f01"/><path d="m1081.44 81.68c2.6-.47 5.21-.95 7.85-1.24 8.42 2.74 17.01 5.74 23.99 11.36-6.54-2.19-12.63-5.51-19.21-7.58-.21.38-.63 1.13-.84 1.51 9.92 5.78 18.26 13.8 28.01 19.84-1.54.3-3.07.6-4.58.9-4.63-3.49-10.17-5.38-15.33-7.88-3.25-1.57-6.73-2.53-10.25-3.2.95-.15 1.92-.31 2.91-.47-.31-.11-.91-.34-1.22-.45-3.35-4.63-6.88-9.16-11.33-12.79z" fill="#ff7132"/><path d="m906.99 82.22c3.08.2 6.16.41 9.23.77.42.09 1.27.29 1.69.38 8.74 3.46 19.24 5.9 24.46 14.49-5.8-4.71-12.45-8.29-19.57-10.54 3.07 3.78 6.13 7.57 9.28 11.29l-.47.77c-4-3.31-7.47-7.26-11.76-10.22-3.27-2.27-6.97-3.79-10.61-5.35-.77-.52-1.52-1.05-2.25-1.59z" fill="#ff876c"/><path d="m987.72 88.49c-.56-2.05-1.58-4.27-.97-6.4l.42-.62.96.46c.37.51 1.13 1.53 1.51 2.03 0 1.29.07 2.58.22 3.87.53 5.4 3.61 10.02 5.44 15.02-3.44-4.23-5.69-9.28-7.58-14.36z" fill="#c11162"/><path d="m1094.07 84.22c6.58 2.07 12.67 5.39 19.21 7.58 4.5 2.69 8.74 5.78 12.72 9.19 2.97 3.52 6.14 7.33 6.51 12.14-3.98-2.18-7.61-4.89-11.27-7.56-9.75-6.04-18.09-14.06-28.01-19.84.21-.38.63-1.13.84-1.51z" fill="#ff7c6f"/><path d="m883.74 87c11.06-1.99 23.46-2.22 33.28 4.02 4.98 2.96 8.03 7.99 11.56 12.4-.43.5-1.28 1.51-1.7 2.02-.92-.54-1.83-1.07-2.74-1.6-2.91-1.87-5.94-3.54-9.11-4.92-4.69-2.99-8.52-7.74-14.22-8.81-5.25-.85-10.59-.41-15.87-.42 1.38-.86 2.78-1.72 4.17-2.59-1.8-.05-3.59-.12-5.37-.1z" fill="#82f5f5"/><path d="m878.69 132.95c2.11-1.03 4.24-2.03 6.39-2.99-.56 1.65-1.03 3.32-1.5 5-1.64-.65-3.29-1.3-4.89-2.01z" fill="#ff0d00"/><path d="m1098.15 160.19c8.21-3.4 16.68-6.24 25.45-7.85-.32.3-.94.9-1.26 1.21-7.99 2.2-15.9 4.69-23.46 8.13-2.83 1.02-5.71 1.84-8.62 2.53-9.08.29-18.17.14-27.25.21-4.49.08-8.96-.5-13.35-1.34 2.83.04 5.68-.05 8.53.03 7.86.41 15.75.5 23.61.01 5.55-.2 11.18-.71 16.35-2.93z" fill="#ff0d00"/><path d="m865.62 92.55c5.83-2.44 11.84-4.61 18.12-5.55 1.78-.02 3.57.05 5.37.1-1.39.87-2.79 1.73-4.17 2.59 5.28.01 10.62-.43 15.87.42 5.7 1.07 9.53 5.82 14.22 8.81-2.36-.71-4.73-1.31-7.08-2-4.44-2.41-8.63-5.91-13.9-6.16-7.28-.39-14.67.58-21.52 3.1-6.13 1.66-10.83 6.14-14.67 10.99 1.36-3.28 2.69-6.61 4.58-9.64 1-.95 2.06-1.84 3.18-2.66z" fill="#83d4fb"/><path d="m922.8 87.32c7.12 2.25 13.77 5.83 19.57 10.54.56.8 1.13 1.61 1.7 2.43.41-.64 1.23-1.91 1.64-2.55 2.8 6.35.02 13.22-1.71 19.45l-.04-.8-.03-.83c-.07-1.2-.25-2.39-.47-3.57-1.4-2.27-3.19-4.25-4.95-6.23-2.16-2.37-4.35-4.71-6.43-7.15-3.15-3.72-6.21-7.51-9.28-11.29z" fill="#ff9ca5"/><path d="m989.86 87.83c3.11 6.07 7.35 11.45 11.17 17.07 3.54 9.22-.14 18.93-.7 28.32.26-5.85-.14-11.73-1.21-17.48-.58-3.75-1.47-7.47-3.01-10.94-.2-.49-.61-1.46-.81-1.95-1.83-5-4.91-9.62-5.44-15.02z" fill="#870129"/><path d="m872.53 93.86c6.85-2.52 14.24-3.49 21.52-3.1 5.27.25 9.46 3.75 13.9 6.16-2.23-.54-4.48-1.01-6.74-1.36-9.47-2.69-19.35 1.6-28.68-1.7z" fill="#68aff1"/><path d="m857.86 104.85c3.84-4.85 8.54-9.33 14.67-10.99 9.33 3.3 19.21-.99 28.68 1.7-6.99-.19-14.25-.52-20.83 2.25-9 2.35-17.25 6.73-24.7 12.25.5-1.82.91-3.74 2.18-5.21z" fill="#6da0fc"/><path d="m1073.82 94.32c6.27-1.1 12.67-.6 18.95.15.31.11.91.34 1.22.45-.99.16-1.96.32-2.91.47 3.52.67 7 1.63 10.25 3.2 5.16 2.5 10.7 4.39 15.33 7.88 9.99 8.02 19.12 17.35 25.72 28.39-2.02-1.72-4.13-3.33-6.19-4.98.42 2.42.88 4.85 1.37 7.26-1.07.65-2.15 1.29-3.2 1.94.01-1.37.05-2.73.09-4.1-1.2.34-2.4.68-3.58.99-2.33-.62-4.2-2.16-6.02-3.63 2.9-2.91 6.18-5.86 6.96-10.11-4.96 1.52-10.18 3.29-15.41 2.25-1.67-.95-3.06-2.28-4.52-3.49 1.47-3.08 2.94-6.17 4.05-9.41 1.93 4.21 5.99 6.65 9.99 8.6-2.57-3.88-5.8-7.34-9.91-9.58.05-.74.14-2.21.19-2.95-6.28 3.26-11.81 7.99-18.71 9.95.16-2.5.35-5 .51-7.5-2.02-.27-4.04-.5-6.05-.71.73-4.17 2.13-8.16 3.74-12.06-5.93.33-8.42 6.64-11.67 10.69-1.59-.52-3.18-1.04-4.76-1.55.12-4.08.37-8.16.4-12.24-5.75 2.4-8.48 8.33-10.95 13.62-.87-.87-1.73-1.73-2.57-2.6-.67 1.64-1.36 3.26-2.04 4.88-2.86-4.56-.08-11.25-4.76-14.71l.23-.4c4.67 1.91 9.54-.08 14.25-.7m33.08 10.51c1.45 2.15 3.75 6.23 6.44 3.1-1.69-1.82-4.11-2.54-6.44-3.1z" fill="#bc0000"/><path d="m885.74 97.51c11.65-2.27 23.68.44 34.54 4.76-1.07.5-2.13 1-3.18 1.5 1.67 3.32 3.59 6.99 2.53 10.82-.98 5.77-5.18 10.92-11.18 11.74-.14-.82-.42-2.46-.56-3.28 2.85-2.56 5.32-5.99 4.89-10.03.66-5.38-3.4-9.7-7.75-12.13-5.84-3.34-12.82-2.84-19.29-3.38z" fill="#cc0100"/><path d="m880.38 97.81c1.78-.11 3.57-.21 5.36-.3 6.47.54 13.45.04 19.29 3.38-2.73-.45-5.48-.68-8.22-.98-5.18-.68-10.43-.55-15.61-1.21z" fill="#e26604"/><path d="m1046.68 103.2c3.82-1.61 7.62-3.3 11.34-5.17-1.56 3.64-1.78 7.64-2.17 11.52-1.52-1.35-3.02-2.73-4.51-4.11-.39 1.9-.76 3.8-1.12 5.7-1.41-2.54-2.58-5.2-3.54-7.94z" fill="#ad0101"/><path d="m869.69 102.51c3.64-1.8 7.5-3.12 11.51-3.81 5.18.66 10.43.53 15.61 1.21 1.1.61 2.18 1.26 3.28 1.91-2.61 1.71-5.22 3.42-7.8 5.14.79 1.91 2 3.75 2.16 5.85-1.26 3.77-3.41 7.19-5.33 10.65-1.37 2.16-2.84 4.25-4.04 6.5-2.15.96-4.28 1.96-6.39 2.99-1.91-1.4-3.54-3.14-5.24-4.77-.91 4.52-.04 11.51-6.06 12.48-1.81-1.99-3.01-4.43-4.46-6.66 2.57-2.56 4.3-5.77 6.34-8.74 3.24-4.82 7.75-8.55 11.73-12.73-1.2-1-2.39-2-3.56-2.99 3-3.14 6.4-5.85 9.71-8.64-5.88-.63-11.7.63-17.46 1.61z" fill="#f2c702"/><path d="m931.61 99.38.47-.77c2.08 2.44 4.27 4.78 6.43 7.15-2.19 1.73-4.79 3.47-5.1 6.5-.99 5.3-3.16 10.34-6.72 14.43-3.37 3.76-6 8.18-7 13.18.07-1.91.04-3.83.05-5.74-2.13 1.62-4.3 3.21-6.69 4.41.1-.79.28-2.38.37-3.18 4.38-2.78 8.83-5.84 11.56-10.39 2.45-4.08 4.97-8.33 5.79-13.09.49-2.02-1.22-3.51-2.24-5.02-.19-.24-.56-.74-.74-.99.5-.83 1.01-1.66 1.53-2.5.78-1.32 1.51-2.66 2.29-3.99z" fill="#fa3141"/><path d="m869.69 102.51c5.76-.98 11.58-2.24 17.46-1.61-3.31 2.79-6.71 5.5-9.71 8.64 1.17.99 2.36 1.99 3.56 2.99-3.98 4.18-8.49 7.91-11.73 12.73-2.04 2.97-3.77 6.18-6.34 8.74-3.06 2.62-.58 7.03-.63 10.4-2.06-1.03-4.05-2.16-6.04-3.31.14 2 .29 3.99.42 5.98-1.57-.95-3.12-1.93-4.65-2.92-1.42-10.13 1.1-20.16 1.8-30.22l.08-.92c.34-.26 1.03-.77 1.38-1.02 4.56-3.49 9.07-7.19 14.4-9.48m-11.7 14.52c2.25-.93 4.37-2.18 6.15-3.87 3.44-3.24 7.51-5.73 10.9-9.05-7.47.57-14.38 5.98-17.05 12.92z" fill="#ebe914"/><path d="m896.81 99.91c2.74.3 5.49.53 8.22.98 4.35 2.43 8.41 6.75 7.75 12.13.43 4.04-2.04 7.47-4.89 10.03-5.03 3.52-11.19 4.5-17.14 5.2-.49-1.62-1.05-3.21-1.63-4.79 1.92-3.46 4.07-6.88 5.33-10.65-.16-2.1-1.37-3.94-2.16-5.85 2.58-1.72 5.19-3.43 7.8-5.14-1.1-.65-2.18-1.3-3.28-1.91z" fill="#feb005"/><path d="m1126 100.99c1.49.53 3.02.98 4.54 1.5 1.57 1.74 2.95 3.64 4.25 5.6 5.12 7.01 7 15.82 12.51 22.58 2.74 3.83 6.05 8.09 5.58 13.08-.57 3.19-3.91 4.16-6.72 3.95 1.52-4.78-.8-9.24-3.78-12.84-6.6-11.04-15.73-20.37-25.72-28.39 1.51-.3 3.04-.6 4.58-.9 3.66 2.67 7.29 5.38 11.27 7.56-.37-4.81-3.54-8.62-6.51-12.14z" fill="#ff2d4b"/><path d="m1129.99 101.88c2.5 1.14 5.06 2.23 7.36 3.78 7.49 5.13 14.9 10.37 22.41 15.47-.29-1.09-.59-2.18-.89-3.25 5.51 4.51 8.68 11.31 10.34 18.1.51 4.49 1.07 9.57-1.88 13.39.41-4.5.4-9.02.37-13.54-1 4.75-.82 10.57-5.31 13.6 2.41-5.7 2.35-12.21-1.11-17.48-5.52-9.81-12.88-20.01-24.28-23.16-.56-.18-1.66-.53-2.21-.7-1.3-1.96-2.68-3.86-4.25-5.6z" fill="#8a0185"/><path d="m917.1 103.77c1.05-.5 2.11-1 3.18-1.5 1.28.51 2.57 1.02 3.86 1.57.91.53 1.82 1.06 2.74 1.6.42-.51 1.27-1.52 1.7-2.02l.74-.05c-.52.84-1.03 1.67-1.53 2.5.18.25.55.75.74.99-3.46 10.38-7.88 21.33-17.05 27.97.06.84.13 1.68.23 2.52-1.19-1.05-2.37-2.1-3.55-3.16-4.95 2.71-10.61.85-15.47-1.06-1.02-1.46-1.41-3.22-1.94-4.88 5.95-.7 12.11-1.68 17.14-5.2.14.82.42 2.46.56 3.28 6-.82 10.2-5.97 11.18-11.74 1.06-3.83-.86-7.5-2.53-10.82z" fill="#ec0b01"/><path d="m857.99 117.03c2.67-6.94 9.58-12.35 17.05-12.92-3.39 3.32-7.46 5.81-10.9 9.05-1.78 1.69-3.9 2.94-6.15 3.87z" fill="#f1fe5e"/><path d="m996.11 104.8c1.54 3.47 2.43 7.19 3.01 10.94-.16 10.24-.99 20.52.15 30.73v2.87c-.87-1-2.02-1.96-1.85-3.42-.54-13.7 1.18-27.55-1.31-41.12z" fill="#e3aed6"/><path d="m1001.03 104.9c.95 1.35 1.95 2.67 2.88 4.05-.25 6.14-.14 12.29-.68 18.42-.55 5.68-.7 11.55-3.18 16.81.03-3.66 0-7.31.28-10.96.56-9.39 4.24-19.1.7-28.32z" fill="#d11902"/><path d="m1035.69 109.5c3.15-.3 5.72-2.32 7.86-4.51.22 3.52 1.71 6.74 3.32 9.82-1.1 1.25-2.19 2.51-3.25 3.77-2.93-2.77-5.57-5.82-7.93-9.08z" fill="#b80101"/><path d="m1106.9 104.83c2.33.56 4.75 1.28 6.44 3.1-2.69 3.13-4.99-.95-6.44-3.1z" fill="#ca0c33"/><path d="m938.51 105.76c1.76 1.98 3.55 3.96 4.95 6.23-.17.32-.52.96-.7 1.28-1.38.16-2.76.25-4.13.35-2.83 5.73-6.73 10.88-9.13 16.82-1.51 3.98-4.65 7.31-5.15 11.64h2.22c-2.45.51-4.96.59-7.43.85.17-1.02.35-2.04.55-3.06 1-5 3.63-9.42 7-13.18 3.56-4.09 5.73-9.13 6.72-14.43.31-3.03 2.91-4.77 5.1-6.5z" fill="#fc4070"/><path d="m928.53 106.86c1.02 1.51 2.73 3 2.24 5.02-.82 4.76-3.34 9.01-5.79 13.09-2.73 4.55-7.18 7.61-11.56 10.39-.09.8-.27 2.39-.37 3.18-.33-.29-1-.89-1.34-1.19-.1-.84-.17-1.68-.23-2.52 9.17-6.64 13.59-17.59 17.05-27.97z" fill="#f6182a"/><path d="m1134.79 108.09c.55.17 1.65.52 2.21.7 5.49 9.18 11.53 18.02 16.78 27.36 2.08 4.01 5.21 9.86.65 13.4-10.82.04-21.4 2.67-32.09 4 .32-.31.94-.91 1.26-1.21 3.46-1.12 6.99-2.04 10.51-3.03-4.15-.12-8.29-.34-12.42-.29 8.02-1.88 16.31-1.07 24.47-1.32 2.81.21 6.15-.76 6.72-3.95.47-4.99-2.84-9.25-5.58-13.08-5.51-6.76-7.39-15.57-12.51-22.58z" fill="#f50b41"/><path d="m1033.92 109.74c.57-.08 1.17-.16 1.77-.24-1.18 1.5-2.58 3.25-1.44 5.21.65 3.17 4.61 6.01 2.65 9.34-3.5-1.37-5.02-5.1-7.54-7.62 2.49-1.46 3.81-3.98 4.56-6.69z" fill="#c60101"/><path d="m1137 108.79c11.4 3.15 18.76 13.35 24.28 23.16-.44 2.86-.92 5.71-1.48 8.54-2.1-1.33-4.17-2.7-6.02-4.34-5.25-9.34-11.29-18.18-16.78-27.36z" fill="#b005bf"/><path d="m1116.01 110.6c4.11 2.24 7.34 5.7 9.91 9.58-4-1.95-8.06-4.39-9.99-8.6z" fill="#c70c37"/><path d="m943.46 111.99c.22 1.18.4 2.37.47 3.57-2.41 4.81-5.26 9.46-9.11 13.25-4.03 3.98-7.23 8.66-10.47 13.27.5-4.33 3.64-7.66 5.15-11.64 2.4-5.94 6.3-11.09 9.13-16.82 1.37-.1 2.75-.19 4.13-.35.18-.32.53-.96.7-1.28z" fill="#fe4d93"/><path d="m850.19 145c .12-10.42.58-21.04 3.64-31.07-.7 10.06-3.22 20.09-1.8 30.22.13 1.33.27 2.67.41 4-.7-.32-2.11-.96-2.82-1.28-.35-.28-1.04-.82-1.39-1.09-.27 1.07-.54 2.14-.8 3.21-.09-1.14-.18-2.28-.25-3.42.76-.14 2.26-.43 3.01-.57z" fill="#e5e97f"/><path d="m934.82 128.81c3.85-3.79 6.7-8.44 9.11-13.25l.03.83c-1.4 4.99-4.16 9.43-6.51 14-2.36 4.3-4.49 8.82-7.78 12.51.02-.7.05-2.11.06-2.81-1.05.68-2.09 1.38-3.16 1.99-.55 0-1.66 0-2.22 0 3.24-4.61 6.44-9.29 10.47-13.27z" fill="#fd82b3"/><path d="m999.12 115.74c1.07 5.75 1.47 11.63 1.21 17.48-.28 3.65-.25 7.3-.28 10.96-.2.57-.59 1.72-.78 2.29-1.14-10.21-.31-20.49-.15-30.73z" fill="#c02479"/><path d="m1026.61 120.81c1 3 2.59 5.79 3.23 8.91-2.52 2.07-5.75-1.33-8.59-1.45-1.84 5.1 4.49 7.99 4.43 12.88-2.91-1.5-5.64-3.52-8.85-4.31.49 3.29 3.21 5.5 4.74 8.29.19 4.71-5.88 4.25-8.97 5.52 1.52 2.59 4.51 2.37 7.13 2.14 9.75-.21 19.52-.15 29.27-.03 6.78.27 13.36-2.4 20.15-1.31 7.71 1.17 15.98-1.03 23.2 2.67-6.85.21-13.71.33-20.55-.03-9.58-.97-19.2-.23-28.8-.37-9.81-.12-19.61.09-29.39.65-.67-1.27-1.72-2.58-1.24-4.1 1.81-7.89 5.03-15.38 8.15-22.81 2.02-2.22 4.2-4.3 6.09-6.65z" fill="#a10100"/><path d="m1034.39 141.45c3.92-7.36 12.25-10.67 19.56-13.72-.95 3.71-2.11 7.47-1.6 11.35.01 3.58 2.74 6.19 4.86 8.75-5.71 3.11-12.59 1.09-18.79 1.39-2.86-1.34-6.22-4.39-4.03-7.77z" fill="#dce7e5"/><path d="m1059.27 130.3c1.6-2.91 5.47-2.26 8.17-1.66.76 1.91-.71 3.62-1.34 5.33-1.16 2.21-1.23 4.97-.27 7.26 1.25 1.52 3.12 2.31 4.8 3.27.06.66.19 1.97.25 2.63-2.56.25-5.12.12-7.62-.41-.73-4.73-2.58-9.15-3.97-13.7-.16 3.08-.44 6.15-.6 9.23-1.28-3.88-1.31-8.28.58-11.95z" fill="#45b101"/><g fill="#940000"><path d="m1137.56 137.14c-.49-2.41-.95-4.84-1.37-7.26 2.06 1.65 4.17 3.26 6.19 4.98 2.98 3.6 5.3 8.06 3.78 12.84-8.16.25-16.45-.56-24.47 1.32-4.67.92-9.09 2.77-13.7 3.88-5.11 1.23-10.41 1.54-15.64 1.22-7.22-3.7-15.49-1.5-23.2-2.67-6.79-1.09-13.37 1.58-20.15 1.31-9.75-.12-19.52-.18-29.27.03 6.02-2.1 12.34-3.08 18.69-3.57 6.2-.3 13.08 1.72 18.79-1.39 2.26 1.59 4.96 2.35 7.71 2.53 8.4.67 17 1.88 25.32-.16 7.75-1.65 14.55-6.91 22.73-6.59 8.28.25 16.78 2.19 24.84-.72.01-.62.03-1.88.04-2.51-2.09-.05-4.17-.09-6.24-.15-.25-1.43-.49-2.85-.74-4.26 1.18-.31 2.38-.65 3.58-.99-.04 1.37-.08 2.73-.09 4.1 1.05-.65 2.13-1.29 3.2-1.94z"/><path d="m1126.06 161.03c7.08-1.88 13.81-6.05 21.36-5.34l.83.05c-.56.22-1.68.66-2.24.89-12.33 3.35-24.27 7.9-36.18 12.48.11-.51.32-1.52.43-2.02 5.23-2.1 10.63-3.79 15.8-6.06z"/><path d="m844.57 377.22c2.8 1.94 5.65 3.82 8.67 5.43.09.7.27 2.11.36 2.81-1.58-.76-3.13-1.54-4.65-2.38-1.6-1.85-3.04-3.83-4.38-5.86z"/><path d="m855.64 386.42c8.46 2.01 16.78 4.99 25.62 4.65 3.28.26 6.58.36 9.89.25l1-.07c-.3.56-.92 1.67-1.23 2.22-6.73.12-13.43-.74-20.12-1.32-.66-.13-1.99-.4-2.65-.53-3.03-.78-6.08-1.55-8.98-2.72-1.2-.81-2.35-1.68-3.53-2.48z"/></g><path d="m1085.73 131.17c.75.42 1.52.84 2.29 1.26 1.79-.05 4.54-1.12 5.37 1.2 1.17 2.35-1.64 4.86-3.94 3.97-1.04-.71-1.94-1.59-2.85-2.41-1.25-.46-2.48-.91-3.69-1.38l2.72-.24c.03-.6.08-1.8.1-2.4z" fill="#7a8e8f"/><path d="m1161.28 131.95c3.46 5.27 3.52 11.78 1.11 17.48-2.85.51-5.74.65-8.62.82l.66-.7c4.56-3.54 1.43-9.39-.65-13.4 1.85 1.64 3.92 3.01 6.02 4.34.56-2.83 1.04-5.68 1.48-8.54z" fill="#a80099"/><path d="m1059.29 133.02c1.39 4.55 3.24 8.97 3.97 13.7-1.71-1.27-3.77-2.38-4.57-4.47.16-3.08.44-6.15.6-9.23z" fill="#79d231"/><path d="m1098.21 136.2c.66.02 1.99.06 2.66.08.52 2.23 1.08 4.57.23 6.81-.32-1.57-.67-3.12-1.01-4.66-.77.89-1.51 1.8-2.23 2.73.08-1.66.21-3.31.35-4.96z" fill="#5d6c6d"/><path d="m1162.39 149.43c4.49-3.03 4.31-8.85 5.31-13.6.03 4.52.04 9.04-.37 13.54-1.78 2.83-4.91 4.93-8.3 5.07-3.9.21-7.72 1.07-11.61 1.25-7.55-.71-14.28 3.46-21.36 5.34-.84-.04-2.51-.14-3.35-.19 8.91-6.92 20.27-8.71 31.06-10.59 2.88-.17 5.77-.31 8.62-.82z" fill="#8c015b"/><path d="m1097.86 141.16c.72-.93 1.46-1.84 2.23-2.73.34 1.54.69 3.09 1.01 4.66-1.45 1.93-3.63 3.01-5.89 3.67.61-1.98 1.34-3.97 2.65-5.6z" fill="#edf4f4"/><path d="m889.13 149.14c.67-.05 2-.15 2.66-.19-1.25 1.46-2.52 2.89-3.69 4.42-4.35 5.08-4.23 11.97-3.48 18.23l2.72.08.96.66c-2.35.3-4.7.24-7.04.07-2.59 2.43-5.04 4.98-7.48 7.55-.18-.47-.53-1.41-.71-1.87-1.63-4.95-.85-10.46.87-15.28 2.5-6.72 8.65-11.28 15.19-13.67z" fill="#e2eae8"/><path d="m1107.99 152.9c4.61-1.11 9.03-2.96 13.7-3.88 4.13-.05 8.27.17 12.42.29-3.52.99-7.05 1.91-10.51 3.03-8.77 1.61-17.24 4.45-25.45 7.85-5.17 2.22-10.8 2.73-16.35 2.93 3.59-1.01 7.64-1.97 9.71-5.41-2.93-.39-5.85-.73-8.78-.83 2.18-.43 4.32-1.03 6.47-1.63-5.77-.76-11.62-.51-17.4-1.16 6.84.36 13.7.24 20.55.03 5.23.32 10.53.01 15.64-1.22z" fill="#fe393b"/><path d="m1122.34 153.55c10.69-1.33 21.27-3.96 32.09-4l-.66.7c-10.79 1.88-22.15 3.67-31.06 10.59-8.25.02-16.24 2.4-24.39 3.34.14-.62.42-1.87.56-2.5 7.56-3.44 15.47-5.93 23.46-8.13z" fill="#b2005d"/><path d="m1013.61 154.37c9.78-.56 19.58-.77 29.39-.65 9.6.14 19.22-.6 28.8.37 5.78.65 11.63.4 17.4 1.16-2.15.6-4.29 1.2-6.47 1.63-4.5.43-8.98 1.12-13.48 1.55-7.32-.08-14.42-2.08-21.68-2.82-6.89-.73-13.83-.84-20.74-.5-4.42.04-8.87.06-13.22-.74z" fill="#fe4b04"/><path d="m896.75 155.52c3.12-1.16 6.45-.74 9.63-.09.42 1.74.87 3.49 1.34 5.23-3.02-.55-6.31-1.62-9.23-.16-2.5 1.13-3.47 3.9-4.49 6.23.47.08 1.4.26 1.86.34-1.22.69-2.47 1.33-3.7 1.96-.74-1.8-1.42-3.62-1.91-5.5 4.91-.53 7.72-5.1 11.66-7.54-1.73-.16-3.45-.31-5.16-.47z" fill="#53c101"/><path d="m1026.83 155.11c6.91-.34 13.85-.23 20.74.5 7.26.74 14.36 2.74 21.68 2.82-5.65.54-11.35.53-16.97 1.44 1.93 1.14 3.87 2.27 5.91 3.24-2.85-.08-5.7.01-8.53-.03-3.66-.51-7.29-1.19-10.89-1.97-5.69-1.26-11.57-1.14-17.24-2.47 2.85-.57 5.69-1.23 8.54-1.87-1.09-.57-2.16-1.13-3.24-1.66z" fill="#ff6906"/><path d="m890.25 163.53c.83-3.56 3.74-5.92 6.5-8.01 1.71.16 3.43.31 5.16.47-3.94 2.44-6.75 7.01-11.66 7.54z" fill="#94ec4d"/><path d="m1001.32 156.64c.9.21 1.83.39 2.77.55.43.72.86 1.45 1.31 2.17 3.16 5.69 7.84 10.29 11.48 15.65 4.06 7.2 9.02 14.06 15.97 18.74 6.13 4.79 14.66 3.5 21.2.31 2.63-1.1 4.52-3.29 6.28-5.45-1.63-1.89-3.24-3.8-4.82-5.72 3.55-2.75 7.4-5.19 11.66-6.7 6.05-1.49 11.96-3.48 17.89-5.43 8.27-2.04 16.74-2.82 25.2-3.67-.11.5-.32 1.51-.43 2.02-1.68.86-3.35 1.73-5.06 2.5-.39.12-1.16.37-1.55.49-14.88 1.97-30.11 8.59-39.15 21.01-4.35 2.79-9.01 5.34-14.15 6.25-4.25.64-8.57.37-12.8-.14-5.14-2.34-9.42-6.08-13.42-9.98-.89-1.07-1.78-2.14-2.62-3.23-3.69-5.61-7.59-11.07-11.63-16.41-3.1-4.05-6.82-7.88-8.13-12.96z" fill="#9e0000"/><path d="m1004.09 157.19c5.78.85 11.62 1.07 17.44 1.45 5.67 1.33 11.55 1.21 17.24 2.47 3.6.78 7.23 1.46 10.89 1.97 4.39.84 8.86 1.42 13.35 1.34 9.08-.07 18.17.08 27.25-.21-3.62.96-7.29 1.65-11 2.03-8.85-.38-17.74.26-26.55-.77-6.69-.62-13.25-2.41-20-2.31 2.93 2.18 6.37 3.44 9.91 4.23-.22.49-.68 1.48-.91 1.97-3.46-.62-6.95-1.03-10.39-1.66-9.09-1.32-17.25-5.66-25.92-8.34-.45-.72-.88-1.45-1.31-2.17z" fill="#c20009"/><path d="m1069.25 158.43c4.5-.43 8.98-1.12 13.48-1.55 2.93.1 5.85.44 8.78.83-2.07 3.44-6.12 4.4-9.71 5.41-7.86.49-15.75.4-23.61-.01-2.04-.97-3.98-2.1-5.91-3.24 5.62-.91 11.32-.9 16.97-1.44z" fill="#ff5e46"/><path d="m1109.83 169.11c11.91-4.58 23.85-9.13 36.18-12.48-4 2.97-8.63 4.9-12.72 7.72-16.09 11.02-28.96 25.99-40.08 41.85-.65.09-1.94.26-2.58.35 3.05-8.15 7.59-15.6 11.57-23.31 2.09-4.12 4.54-8.04 7.07-11.91-1.52.08-3.02.15-4.5.28 1.71-.77 3.38-1.64 5.06-2.5z" fill="#84d201"/><path d="m853.14 157.47c1.38 1.34 2.81 2.65 4.2 3.99-1.26.4-2.52.8-3.76 1.2-.19-1.73-.34-3.46-.44-5.19z" fill="#9f9e19"/><path d="m1005.4 159.36c8.67 2.68 16.83 7.02 25.92 8.34.89 1.11 1.8 2.23 2.72 3.34-2.34 2.29-4.21 5.37-7.24 6.72-3.45-.32-6.66-1.74-9.92-2.75-3.64-5.36-8.32-9.96-11.48-15.65z" fill="#f70141"/><path d="m1098.32 164.18c8.15-.94 16.14-3.32 24.39-3.34.84.05 2.51.15 3.35.19-5.17 2.27-10.57 3.96-15.8 6.06-8.46.85-16.93 1.63-25.2 3.67-3.24-.68-6.39-1.67-9.53-2.67 1.22-.64 2.46-1.27 3.73-1.85 3.71-.38 7.38-1.07 11-2.03 2.91-.69 5.79-1.51 8.62-2.53-.14.63-.42 1.88-.56 2.5z" fill="#b30033"/><path d="m1032.71 163.16c6.75-.1 13.31 1.69 20 2.31 8.81 1.03 17.7.39 26.55.77-1.27.58-2.51 1.21-3.73 1.85 3.14 1 6.29 1.99 9.53 2.67-5.93 1.95-11.84 3.94-17.89 5.43-4.38.1-8.69-.68-13.01-1.19-1.6-.3-3.12.33-4.45 1.12-.17-1.46-.27-2.93-.61-4.35-2.28-1.28-4.87-1.86-7.39-2.41.23-.49.69-1.48.91-1.97-3.54-.79-6.98-2.05-9.91-4.23z" fill="#c0001c"/><path d="m1104.77 171.61c1.48-.13 2.98-.2 4.5-.28-2.53 3.87-4.98 7.79-7.07 11.91-3.98 7.71-8.52 15.16-11.57 23.31.64-.09 1.93-.26 2.58-.35-7.9 12-15.44 24.27-21.76 37.19-.78 1.51-1.52 3.05-2.56 4.39-.97 1.04-1.97 2.04-2.96 3.05 1.6-4.24 3.16-8.48 4.51-12.8-1.27.57-2.52 1.14-3.76 1.72 3.68-7.55 7.07-15.25 10.5-22.92 3.63-5.81 8.54-10.76 11.77-16.84 2.79-5.28 5.35-10.67 8.13-15.95 1.62-2.91 1.79-6.29 1.72-9.54 1.48-.78 2.92-1.62 4.42-2.4.39-.12 1.16-.37 1.55-.49z" fill="#8bf301"/><path d="m1064.07 193.11c9.04-12.42 24.27-19.04 39.15-21.01-1.5.78-2.94 1.62-4.42 2.4-10.37 4.79-20.55 10-30.27 16.01-1.5.87-3 1.71-4.46 2.6z" fill="#640401"/><path d="m1049.71 176.12c1.33-.79 2.85-1.42 4.45-1.12 4.32.51 8.63 1.29 13.01 1.19-4.26 1.51-8.11 3.95-11.66 6.7 1.58 1.92 3.19 3.83 4.82 5.72-1.76 2.16-3.65 4.35-6.28 5.45-6.54 3.19-15.07 4.48-21.2-.31 5.76.67 11.96 2.25 17.29-.95-4.63-1.73-9.9-2.86-13.34-6.69-.9-.72-1.18-2.52.1-3 4.28-2.31 8.76-4.25 12.81-6.99z" fill="#c90001"/><path d="m1068.53 190.51c9.72-6.01 19.9-11.22 30.27-16.01.07 3.25-.1 6.63-1.72 9.54-2.78 5.28-5.34 10.67-8.13 15.95-3.23 6.08-8.14 11.03-11.77 16.84-3.28.73-6.54 1.54-9.81 2.26-.21-2.29-.4-4.58-.57-6.86-1.09.14-2.16.28-3.22.43 1.52-7.41 3.67-14.69 4.95-22.15z" fill="#76d800"/><path d="m859.1 177.28c2.26.27 4.56.35 6.85.42-.24 1.53-.49 3.06-.72 4.59 1.28-.01 2.57-.02 3.86-.03-1.89 1.73-3.68 3.57-5.23 5.61-1.67-3.49-2.81-7.23-4.76-10.59z" fill="#e21103"/><path d="m863.31 188.58c2.14-.8 4.13-1.98 5.78-3.58-1.81 3.81-4.24 7.6-4.29 11.95.09 5.56 2.06 10.85 4.18 15.92-.57-.11-1.71-.35-2.29-.46 3.08 9.72 9.31 18.39 17.37 24.6-.02-.51-.06-1.54-.08-2.05 4 3.03 7.83 6.29 12.02 9.07-1.23-.24-2.45-.43-3.67-.63-.49.89-.97 1.78-1.44 2.68-10.52-5.63-19.01-14.63-25.05-24.84-3.41-5.22-7.53-10.1-9.28-16.22-.53 1.01-1.06 2.02-1.54 3.05.18-7.15 4.05-13.44 7.8-19.28z" fill="#b5fbf4"/><path d="m1021.08 186.01c.84 1.09 1.73 2.16 2.62 3.23 7.55 14.02 13.06 29.15 16.4 44.72 1.33 6.36 2.79 12.77 2.46 19.31-.73-2.01-1.2-4.1-1.44-6.22-1.97-17.24-7.29-33.96-14.59-49.65-1.81-3.8-4.34-7.29-5.45-11.39z" fill="#ace178"/><path d="m1023.7 189.24c4 3.9 8.28 7.64 13.42 9.98-1.39-.16-2.77-.32-4.14-.46 2.12 4.05 4.12 8.17 5.65 12.48 5.82 16.92 7.9 34.98 7.07 52.82-.6-1.08-1.2-2.16-1.74-3.26-.41-1.38-.8-2.75-1.14-4.13-.2-1.13-.28-2.26-.26-3.4.33-6.54-1.13-12.95-2.46-19.31-3.34-15.57-8.85-30.7-16.4-44.72z" fill="#37a101"/><path d="m1064.07 193.11c1.46-.89 2.96-1.73 4.46-2.6-1.28 7.46-3.43 14.74-4.95 22.15-1.72 7.18-2.86 14.51-5.33 21.49.32-2.85.78-5.79.17-8.63-.78-2.02-2.64-3.33-4.24-4.65-4.93-3.59-9.6-7.8-15.55-9.63-1.53-4.31-3.53-8.43-5.65-12.48 1.37.14 2.75.3 4.14.46 4.23.51 8.55.78 12.8.14 5.14-.91 9.8-3.46 14.15-6.25z" fill="#5ac600"/><path d="m855.02 208.07c.48-1.03 1.01-2.04 1.54-3.05 1.75 6.12 5.87 11 9.28 16.22 6.04 10.21 14.53 19.21 25.05 24.84.47-.9.95-1.79 1.44-2.68 1.22.2 2.44.39 3.67.63 1.39.32 2.72.88 4.06 1.4-.18.58-.53 1.75-.71 2.33 1.92 1.37 4.06 2.59 5.49 4.54-.07 8.06-4.91 15.12-6.1 23.02-4.01 1.38-8-.23-11.85-1.3.17.37.52 1.09.69 1.46-4.17-.93-8.45-.84-12.54.35.2-.45.6-1.36.81-1.82-2.13.3-4.25.58-6.37.85.14-.44.41-1.33.54-1.78.5-.9.99-1.81 1.5-2.72 1.41-2.77 2.14-5.81 2.85-8.82.53 1.21 1.07 2.43 1.61 3.65 6.36-3.66 5.66-12.79 2.19-18.27-.29-.47-.86-1.43-1.14-1.9-.94-1.45-1.9-2.89-2.94-4.25-.93-1.04-1.92-2.01-2.94-2.93-2.14-1.98-4.36-3.85-6.64-5.64-.62 1.67-1.65 3.38-1.2 5.23.95 5.36 3.16 10.39 4.44 15.67-5.44-6.57-8.07-14.79-11.6-22.41-1.05-4.76-1.48-9.6-1.97-14.44l-.79.08c-.29.05-.88.14-1.17.18 1-2.79 1.66-5.7 2.8-8.44z" fill="#91f1ed"/><path d="m866.69 212.41c.58.11 1.72.35 2.29.46 3.87 6.12 7.49 12.43 12.12 18.01 1.02 1.31 2.15 2.57 2.88 4.08.02.51.06 1.54.08 2.05-8.06-6.21-14.29-14.88-17.37-24.6z" fill="#90ece9"/><path d="m1063.58 212.66c1.06-.15 2.13-.29 3.22-.43.17 2.28.36 4.57.57 6.86 3.27-.72 6.53-1.53 9.81-2.26-3.43 7.67-6.82 15.37-10.5 22.92-1.15 2.38-2.28 4.77-3.32 7.2-3.15 3.03-6.61 5.75-9.5 9.04 1.22-6.76 3.01-13.41 3.92-20.22.12-.41.35-1.22.47-1.62 2.47-6.98 3.61-14.31 5.33-21.49z" fill="#6ce800"/><path d="m835.8 233.6c3.95-5.81 8.76-11.11 14.24-15.53-.61 1.11-1.15 2.25-1.7 3.38.48.4 1.43 1.21 1.9 1.62-1.2 1.79-2.42 3.56-3.56 5.38l-.22-.86c-.11-.43-.34-1.28-.45-1.71-2.7 2.55-5.35 5.18-7.61 8.13-.88-.14-1.75-.27-2.6-.41z" fill="#ed363e"/><path d="m892.37 226.39c1.31-2.42 3.98-3.86 6.66-4.21 9.26-1.18 18.52.7 27.59 2.4 4.68.79 8 4.46 11.76 7.04 2.82 2.23 6.7 3.96 7.38 7.91-3.89-1.71-7.4-4.08-10.93-6.39-1.85-1.16-3.8-2.14-5.73-3.12-8.05-5.03-17.58-8.18-27.15-7.32-3.3.27-7.1 1.49-8.54 4.75-.73 3.31.67 6.61 1.23 9.85-2.62-2.94-3.45-7.18-2.27-10.91z" fill="#bafbf8"/><path d="m893.41 227.45c1.44-3.26 5.24-4.48 8.54-4.75 9.57-.86 19.1 2.29 27.15 7.32-3.27-.83-6.55-1.61-9.85-2.29-1.36-.28-2.71-.58-4.05-.8-6.16-1.06-12.57-1.64-18.73-.36-1.62.15-1.52 2.24-1.56 3.43.25 4.87 4.41 8.23 8.05 10.9-2.9-.9-5.62-2.25-8.32-3.6-.56-3.24-1.96-6.54-1.23-9.85z" fill="#61dbe9"/><path d="m838.4 234.01c2.26-2.95 4.91-5.58 7.61-8.13.11.43.34 1.28.45 1.71-4.32 5.63-8.15 11.67-10.62 18.35-1.58 3.21-3.5 6.25-5.6 9.15-.08-.57-.24-1.71-.32-2.28 1.74-6.68 4.54-13.12 8.48-18.8z" fill="#fe6690"/><path d="m896.47 226.57c6.16-1.28 12.57-.7 18.73.36-2.56-.03-5.1.11-7.64.25-.62 4.07-2.08 7.91-3.27 11.81 1.54 1.55 3.64 2.34 5.65 3.1-2.33-.41-4.7-.61-6.98-1.19-3.64-2.67-7.8-6.03-8.05-10.9.04-1.19-.06-3.28 1.56-3.43z" fill="#35b3ef"/><path d="m907.56 227.18c2.54-.14 5.08-.28 7.64-.25 1.34.22 2.69.52 4.05.8-2.7-.04-5.39.14-8.07.34 1.3 1.9 2.77 3.71 4.56 5.19 5.4 4.51 9.81 10.3 12.32 16.9l.33.74c-5.56-4.02-11.64-7.51-18.45-8.81-2.01-.76-4.11-1.55-5.65-3.1 1.19-3.9 2.65-7.74 3.27-11.81z" fill="#1986ea"/><path d="m911.18 228.07c2.68-.2 5.37-.38 8.07-.34 3.3.68 6.58 1.46 9.85 2.29 1.93.98 3.88 1.96 5.73 3.12 7.34 6.2 10.63 16.67 7.32 25.83-5.26-1.38-9.64-4.67-13.76-8.07l-.33-.74c.95.15 1.91.29 2.89.44 2.45-2.98 5.4-5.84 6.42-9.68.69-2.81-1.52-5.18-3.54-6.77-5.9-4.31-13.47-5.3-20.59-5.55.78 1.57 1.58 3.15 2.5 4.66-1.79-1.48-3.26-3.29-4.56-5.19z" fill="#0151d6"/><path d="m913.24 228.6c7.12.25 14.69 1.24 20.59 5.55 2.02 1.59 4.23 3.96 3.54 6.77-1.02 3.84-3.97 6.7-6.42 9.68-.98-.15-1.94-.29-2.89-.44-2.51-6.6-6.92-12.39-12.32-16.9-.92-1.51-1.72-3.09-2.5-4.66z" fill="#0d0c0c"/><path d="m856.15 230.69c3.53 7.62 6.16 15.84 11.6 22.41-1.28-5.28-3.49-10.31-4.44-15.67-.45-1.85.58-3.56 1.2-5.23 2.28 1.79 4.5 3.66 6.64 5.64-2.09-1.01-4.24-1.86-6.38-2.71.77 6.73 2.43 13.43 6.13 19.19 1.17 2.4 2.35 4.79 3.47 7.22-.71 3.01-1.44 6.05-2.85 8.82.49-4.26-.24-8.59-3.05-11.95-5.2-7.07-9.62-14.77-12.31-23.16-.01-1.53-.01-3.05-.01-4.56z" fill="#55e0e4"/><path d="m934.83 233.14c3.53 2.31 7.04 4.68 10.93 6.39 2.66 1.65 3.66 4.91 5.36 7.4 1.85 3.59 4.88 6.28 7.77 9.01.71.73 1.42 1.48 2.14 2.23-3.86-.35-7.68-1.03-11.4-2.09-.1 1.72-.13 3.46-.47 5.16-2.51 1.37-5.42 1.66-8.21 1.91-9.78-2.19-13.71-12.74-22.4-16.72-5.04-2.68-10.72-3.55-16.32-4.09-3.27-.25-5.71-2.57-7.59-5.04 2.7 1.35 5.42 2.7 8.32 3.6 2.28.58 4.65.78 6.98 1.19 6.81 1.3 12.89 4.79 18.45 8.81 4.12 3.4 8.5 6.69 13.76 8.07 3.31-9.16.02-19.63-7.32-25.83z" fill="#7eedec"/><path d="m864.77 235.13c2.14.85 4.29 1.7 6.38 2.71 1.02.92 2.01 1.89 2.94 2.93-.65.14-1.97.43-2.63.57-.08 4.33-.36 8.66-.56 12.98-3.7-5.76-5.36-12.46-6.13-19.19z" fill="#197cf3"/><path d="m1053.32 248.28c1.23-4.26 2.75-8.42 4.46-12.51-.91 6.81-2.7 13.46-3.92 20.22-1.64 6.96-6.4 12.79-7.04 20.04-.74 1.77-1.48 3.55-2.25 5.31-.3-2.41-.58-4.81-.71-7.22.51.12 1.52.36 2.03.48.87-8.66 1.55-17.36 3.59-25.84 1.27-.16 2.55-.32 3.84-.48z" fill="#50df00"/><path d="m1066.68 239.75c1.24-.58 2.49-1.15 3.76-1.72-1.35 4.32-2.91 8.56-4.51 12.8.99-1.01 1.99-2.01 2.96-3.05-3.26 9.7-8.46 18.61-11.93 28.24-.54.16-1.64.48-2.19.65.07-.67.21-2.01.28-2.68 1.08-2.68 2.23-5.35 3.35-8.02 2.03-5.37 4.7-10.57 5.9-16.22-.31-.36-.93-1.08-1.24-1.44.08-.34.22-1.02.3-1.36 1.04-2.43 2.17-4.82 3.32-7.2z" fill="#89ff39"/><path d="m877.11 262.9c-4.44-6.18-5.56-14.28-3.73-21.59 1.22 1.21 2.47 2.42 3.65 3.71.28.47.85 1.43 1.14 1.9 1.62 5.2 2.85 11.45-1.06 15.98z" fill="#170d0e"/><path d="m899.35 247.76c.18-.58.53-1.75.71-2.33 2.96 1.74 6.41 3.12 8.42 6.07.65 3.63-1.75 6.85-2.86 10.14-2.5 5.56-2.97 12.13-6.99 16.93-2.35 2.6-6.27 1.66-8.69-.32 1.94.47 3.92.98 5.95.92 1.64-.6 2.24-2.37 2.85-3.85 1.19-7.9 6.03-14.96 6.1-23.02-1.43-1.95-3.57-3.17-5.49-4.54z" fill="#65d6df"/><path d="m1053.86 255.99c2.89-3.29 6.35-6.01 9.5-9.04-.08.34-.22 1.02-.3 1.36-1.85 5.1-4.56 9.81-7.14 14.56-3.22 4.26-6.27 8.64-9.1 13.16.64-7.25 5.4-13.08 7.04-20.04z" fill="#78ff2a"/><path d="m966.27 256.31c2.19-2.48 4.28-5.05 6.7-7.32-.33 6.32-5.34 11.57-10.96 13.88-.72.05-2.16.13-2.88.17 2.45-2.17 4.94-4.31 7.14-6.73z" fill="#5bc1e9"/><path d="m1063.06 248.31c.31.36.93 1.08 1.24 1.44-1.2 5.65-3.87 10.85-5.9 16.22-1.25.27-2.49.54-3.71.81.4-1.31.78-2.62 1.23-3.91 2.58-4.75 5.29-9.46 7.14-14.56z" fill="#b8ff7f"/><path d="m949.63 256.08c3.72 1.06 7.54 1.74 11.4 2.09-.72-.75-1.43-1.5-2.14-2.23 2.46.09 4.92.22 7.38.37-2.2 2.42-4.69 4.56-7.14 6.73.72-.04 2.16-.12 2.88-.17-6.25 4.88-14.2 1.47-21.06.28 2.79-.25 5.7-.54 8.21-1.91.34-1.7.37-3.44.47-5.16z" fill="#a4f5f2"/><path d="m1042.82 256.67c.34 1.38.73 2.75 1.14 4.13.01 4.44-.29 8.88-.1 13.32.13 2.41.41 4.81.71 7.22.77-1.76 1.51-3.54 2.25-5.31 2.83-4.52 5.88-8.9 9.1-13.16-.45 1.29-.83 2.6-1.23 3.91-2.06 6.53-5.84 12.33-8.12 18.77-1.07 2.91-2.05 5.86-3.18 8.75-.45-3.48-.8-6.98-.85-10.5.34-9.04-.03-18.09.28-27.13z" fill="#68f94c"/><path d="m868.47 258.41c2.81 3.36 3.54 7.69 3.05 11.95-.51.91-1 1.82-1.5 2.72-2.06 2.28-4.22 4.48-6.61 6.41-.15-.75-.43-2.24-.58-2.99-1.23.14-2.46.29-3.67.44 1.94-5.11 3.87-10.23 5.82-15.34 1.26.74 2.54 1.48 3.81 2.23-.1-1.81-.19-3.62-.32-5.42z" fill="#cd0000"/><path d="m1054.69 266.78c1.22-.27 2.46-.54 3.71-.81-1.12 2.67-2.27 5.34-3.35 8.02-4.09 8.51-6.75 17.62-9.2 26.71.58-.15 1.75-.47 2.34-.63-3.41 9.78-6.26 19.75-9.88 29.44-.45-1.56-.96-3.1-1.37-4.65 3.4-13.45 3.07-27.47 5.6-41.06.05 3.52.4 7.02.85 10.5 1.13-2.89 2.11-5.84 3.18-8.75 2.28-6.44 6.06-12.24 8.12-18.77z" fill="#afa"/><path d="m863.41 279.49c2.39-1.93 4.55-4.13 6.61-6.41-.13.45-.4 1.34-.54 1.78 2.12-.27 4.24-.55 6.37-.85-.21.46-.61 1.37-.81 1.82-3.66 2.01-7.57 3.71-10.69 6.52-1.35.96-.94 2.75-1.18 4.16 3.95.22 7.92.44 11.89.16 5-.32 9.55-3.25 14.64-2.94 5.24.72 9.9 3.49 14.16 6.48 9.32 6.88 18.82 13.66 26.78 22.16 6.17 5.86 10.9 13.17 17.79 18.27 3.69 2.79 8.08 4.46 12.51 5.69 6.68 1.83 13.28 4.05 19.55 7.04 1.75.92 3.64 1.82 4.95 3.37 2.16 3.8 4.74 7.49 5.97 11.73.5 4.44-1.91 8.53-3.33 12.6 2.27.46 4.55.97 6.81 1.58-1.88.69-3.76 2.21-5.84 1.43-4-1.02-7.37-3.55-11.27-4.82-3.39-1.26-7.12-1.34-10.38-2.94l-.98-.42c1.65-.51 3.28-1.07 4.95-1.54 3.79-.1 8.85.4 11.18-3.28-.24-1.09-.55-2.15-.94-3.18-5.44-8.92-15.1-13.75-23.94-18.6-10.92-6.02-19.73-14.97-28.25-23.9-6.26-6.35-12.21-13.19-19.84-17.95-5.02-3.31-10.76-5.36-16.61-6.58-14.37-3.45-29.69-.63-42.74 5.98-1.56-.01-2.87.9-3.4 2.35-2.47 2.78-5.11 5.69-5.98 9.42-.83 3.81-.65 7.75-.61 11.63-.76-2.58-1.68-5.1-2.42-7.68 1.16-5.54 3.87-10.57 6.13-15.7 4.97-7.32 12.31-12.4 19.46-17.38z" fill="#4ac2df"/><path d="m839.73 365.86c.84 1.69 1.49 3.48 2.11 5.27.66 2.12 1.46 4.24 2.73 6.09 1.34 2.03 2.78 4.01 4.38 5.86-5.94-3.32-10.78-10.17-9.22-17.22z" fill="#4ac2df"/><path d="m886.89 274.02c3.85 1.07 7.84 2.68 11.85 1.3-.61 1.48-1.21 3.25-2.85 3.85-2.03.06-4.01-.45-5.95-.92-.95-.78-1.88-1.64-2.36-2.77-.17-.37-.52-1.09-.69-1.46z" fill="#2da0c5"/><path d="m1045.85 300.7c2.45-9.09 5.11-18.2 9.2-26.71-.07.67-.21 2.01-.28 2.68.55-.17 1.65-.49 2.19-.65-2.86 8.04-6.18 15.91-8.77 24.05-.59.16-1.76.48-2.34.63z" fill="#8cff6e"/><path d="m874.67 291.62c6.07-.69 12.19-.79 18.3-.75 5.85 1.22 11.59 3.27 16.61 6.58 7.63 4.76 13.58 11.6 19.84 17.95-.35.76-.7 1.52-1.04 2.29l-.28.57c-7.77-9.55-17.32-18-29.07-22.21-4.24-1.68-8.79-3.07-13.38-2.5-.12.34-.35 1.02-.47 1.36 1.94 1.6 4.36 2.39 6.69 3.29 2.08.78 4.14 1.65 6.13 2.67 6.79 5.87 13.37 11.97 20.06 17.95 4.13 5.32 9.54 9.84 11.91 16.33-7.06-3.95-10.11-11.97-16.63-16.51-3.04-2.29-6.17-4.46-9.26-6.67-4.03-3.3-7.78-6.93-11.72-10.34-4.29-3.79-9.92-5.48-15.37-6.77-.78-1.08-1.56-2.16-2.32-3.24z" fill="#fa7305"/><path d="m830.44 294.04c1.81-.18 3.83-1.17 5.59-.2 1.94.96 1.85 3.46 2.45 5.26-1.82 6.33-4.78 12.48-4.73 19.19-.01.52-.03 1.55-.04 2.07-.95-6.37-2.91-12.54-3.59-18.95.2-2.45.43-4.91.32-7.37z" fill="#e30752"/><path d="m885.65 293.55c4.59-.57 9.14.82 13.38 2.5-2.57-.37-5.15-.59-7.71-.85.17.99.35 1.99.55 3-2.33-.9-4.75-1.69-6.69-3.29.12-.34.35-1.02.47-1.36z" fill="#fc9039"/><path d="m864.54 300.53c3.7-2.72 7.9-4.84 12.45-5.67 5.45 1.29 11.08 2.98 15.37 6.77 3.94 3.41 7.69 7.04 11.72 10.34-5.1-1.22-10.79-5.12-15.85-1.83-2.36 1.23-4.65 2.68-6.53 4.57-1.83 1.83-1.99 4.57-2.55 6.96-5.32 2.25-12.36 2.82-15.1 8.69-3.86 5.29-6.66 11.61-12.02 15.6-2.34 1.92-5.45 1.7-8.24 1.29 1.24-5.1-1.18-10.12-1.7-15.17.07-4.38.26-8.75.23-13.12.85 1.7 1.72 3.4 2.6 5.1.42.15 1.24.45 1.65.6 1.56-4.81 3.11-9.78 6.29-13.81 3.24-4.1 7.48-7.26 11.68-10.32z" fill="#ed6000"/><path d="m891.32 295.2c2.56.26 5.14.48 7.71.85 11.75 4.21 21.3 12.66 29.07 22.21-.23.46-.68 1.38-.91 1.84-9.07-7.32-18.49-14.46-29.19-19.23-1.99-1.02-4.05-1.89-6.13-2.67-.2-1.01-.38-2.01-.55-3z" fill="#fcb587"/><path d="m846.83 299.2c.53-1.45 1.84-2.36 3.4-2.35-.4 1.55-1.81 2.57-3.4 2.35z" fill="#61956d"/><path d="m898 300.87c10.7 4.77 20.12 11.91 29.19 19.23.23-.46.68-1.38.91-1.84l.28-.57c2.77 2.91 5.32 6.02 7.79 9.2.25 1.74.43 3.48.63 5.23-6.77-3.69-11.93-9.65-18.74-13.3-6.69-5.98-13.27-12.08-20.06-17.95z" fill="#ff863b"/><path d="m888.23 310.14c5.06-3.29 10.75.61 15.85 1.83 3.09 2.21 6.22 4.38 9.26 6.67 6.52 4.54 9.57 12.56 16.63 16.51 4.4 3.97 9.6 6.89 14.09 10.77-4.78-2.26-9.22-5.19-14.2-7-7.44-3.33-14-8.69-22.08-10.48-9.14-1.76-18.53-.68-27.78-1.2-5.53-.44-10.91.96-15.95 3.12 2.74-5.87 9.78-6.44 15.1-8.69.56-2.39.72-5.13 2.55-6.96 1.88-1.89 4.17-3.34 6.53-4.57z" fill="#fa5700"/><path d="m833.75 318.29c.97-2.52 2.14-4.95 3.16-7.45-.41 4.42-.71 8.96-2.65 13.04-.14-.88-.42-2.64-.55-3.52.01-.52.03-1.55.04-2.07z" fill="#891245"/><path d="m837.82 312.57c.74 2.58 1.66 5.1 2.42 7.68.45 3.96 1.1 7.9 1.85 11.83.52 5.05 2.94 10.07 1.7 15.17-.56 1.23-1.17 2.43-1.74 3.65-.53-.24-1.61-.73-2.14-.98-.36-.94-.69-1.89-1.01-2.83-1.78-6.47-4.22-13.04-3.25-19.86.75-4.88 1.14-9.82 2.17-14.66z" fill="#63ccfb"/><path d="m928.38 317.69c.34-.77.69-1.53 1.04-2.29 8.52 8.93 17.33 17.88 28.25 23.9 8.84 4.85 18.5 9.68 23.94 18.6-18.27-2.43-37.01-7.45-51.75-18.98 4.98 1.81 9.42 4.74 14.2 7 9.73 4.76 20.19 8.89 31.21 8.66-5.86-4.14-13.11-5.64-18.89-9.92-7.86-4.56-13.83-11.46-20.21-17.77-2.47-3.18-5.02-6.29-7.79-9.2z" fill="#fa3209"/><path d="m918.06 318.82c6.81 3.65 11.97 9.61 18.74 13.3-.2-1.75-.38-3.49-.63-5.23 6.38 6.31 12.35 13.21 20.21 17.77 5.78 4.28 13.03 5.78 18.89 9.92-11.02.23-21.48-3.9-31.21-8.66-4.49-3.88-9.69-6.8-14.09-10.77-2.37-6.49-7.78-11.01-11.91-16.33z" fill="#ff702d"/><path d="m1034.37 343.15c.17-6.16.71-12.39 2.57-18.29.41 1.55.92 3.09 1.37 4.65.25 4.77-2.07 9.35-3.94 13.64z" fill="#b3ffc7"/><path d="m857.8 348.62c18.64-2.29 37.46-.86 56.18-1.32 11.51-.13 23.77-.02 34.15 5.62-6.91-1.9-13.95-3.46-21.11-3.99-7.67-.64-15.36-.15-23.04-.19-18.1.03-36.5-1.07-54.29 2.91 2.51-1.44 5.15-2.82 8.11-3.03z" fill="#881d02"/><path d="m991.41 358.47c-1.23-4.24-3.81-7.93-5.97-11.73 4.14 2.77 5.82 7.64 7.86 11.94 1.84 4.35 4 9.4 1.59 13.97-2.26-.61-4.54-1.12-6.81-1.58 1.42-4.07 3.83-8.16 3.33-12.6z" fill="#74dae6"/><path d="m849.69 351.65c17.79-3.98 36.19-2.88 54.29-2.91l.01 1.17c-3.2.06-6.41.21-9.56.74-4.94 1.39-9.74 3.31-14.85 4-7.94 1.1-15.78 2.85-23.75 3.71-3.84-1.43-7.66-2.91-11.45-4.44l1-.46c1.42-.61 2.87-1.19 4.31-1.81z" fill="#e35e00"/><path d="m903.98 348.74c7.68.04 15.37-.45 23.04.19 7.16.53 14.2 2.09 21.11 3.99 5.48 2.8 10.65 6.17 16.16 8.92-2.05-.37-4.11-.66-6.15-.99-16.44-9.15-35.62-11.42-54.15-10.94z" fill="#df3e2b"/><path d="m839.91 349.92c.53.25 1.61.74 2.14.98 1.15.79 2.23 1.67 3.33 2.56l-1 .46c-.29.37-.87 1.1-1.16 1.46l-.43.6c-1.1-1.96-2.11-3.96-2.88-6.06z" fill="#9ec9bd"/><path d="m894.43 350.65c3.15-.53 6.36-.68 9.56-.74 18.53-.48 37.71 1.79 54.15 10.94-7.97-.41-15.32-3.98-23.22-4.66-10.86-.18-21.1 3.96-31.6 6.12-4.77.76-9.6 1.35-14.23 2.79 3.17-4.21 4.56-9.33 5.34-14.45z" fill="#f56b2b"/><path d="m879.58 354.65c5.11-.69 9.91-2.61 14.85-4-.78 5.12-2.17 10.24-5.34 14.45-2.3.67-4.56 1.46-6.88 2.01-4.79.05-9.76-.11-14.19-2.11-4.24-1.9-8.04-4.6-12.19-6.64 7.97-.86 15.81-2.61 23.75-3.71z" fill="#fa6900"/><path d="m843.22 355.38c.29-.36.87-1.09 1.16-1.46.66 3.1 1.38 6.57 4.18 8.5 5.85 4.38 13.4 5.45 20.46 6.37.97 1.13 1.95 2.26 2.99 3.35-7.12-.02-14.28-.15-21.24-1.81-.58-.85-1.13-1.7-1.67-2.55-2.51-3.85-4.86-7.88-5.88-12.4z" fill="#ffa220"/><path d="m844.38 353.92c3.79 1.53 7.61 3.01 11.45 4.44 4.15 2.04 7.95 4.74 12.19 6.64 4.43 2 9.4 2.16 14.19 2.11-4.32 1.05-8.75 1.65-13.19 1.68-7.06-.92-14.61-1.99-20.46-6.37-2.8-1.93-3.52-5.4-4.18-8.5z" fill="#f67e00"/><path d="m903.32 362.31c10.5-2.16 20.74-6.3 31.6-6.12 7.9.68 15.25 4.25 23.22 4.66 2.04.33 4.1.62 6.15.99 2.36.83 4.7 1.72 7.08 2.52-3.5.48-6.98 1.16-10.51 1.31-4.21.17-8.4.49-12.6.62-12.14-1.14-25.71-.92-35.38 7.61-7.06 3.31-14.39 5.95-21.89 8.07-2.96.42-5.93.65-8.86 1.17 2.44-1.07 4.77-2.38 7.09-3.68-.34-.71-1.04-2.12-1.38-2.83 4.73-.58 10.57 0 14.17-3.67 2.7-3.29-1.86-5.69-3.87-7.76 1.71-.99 3.41-2 5.18-2.89z" fill="#ff833d"/><path d="m889.09 365.1c4.63-1.44 9.46-2.03 14.23-2.79-1.77.89-3.47 1.9-5.18 2.89 2.01 2.07 6.57 4.47 3.87 7.76-3.6 3.67-9.44 3.09-14.17 3.67-5.46-.78-10.64-2.73-15.83-4.49-1.04-1.09-2.02-2.22-2.99-3.35 4.44-.03 8.87-.63 13.19-1.68 2.32-.55 4.58-1.34 6.88-2.01z" fill="#ff852a"/><path d="m845.51 366.23c1.18.53 2.38 1.03 3.59 1.55.36 1.79.72 3.59 1.08 5.39-1.42-.82-2.82-1.64-4.19-2.5-.29-.21-.87-.63-1.16-.83.21-1.21.44-2.41.68-3.61z" fill="#205edb"/><path d="m912.88 373.9c9.67-8.53 23.24-8.75 35.38-7.61-1.91.46-3.77 1.02-5.65 1.54-9.5-.04-18.64 2.99-27.6 5.83-.53.06-1.59.18-2.13.24z" fill="#ff6b56"/><path d="m948.26 366.29c4.2-.13 8.39-.45 12.6-.62 1.85-.01 3.7.08 5.56.23l.98.42c-5.27 1.69-10.82.57-16.21 1.06-4.56.3-8.56 2.89-13.08 3.41 1.49-1 2.97-2.02 4.5-2.96 1.88-.52 3.74-1.08 5.65-1.54z" fill="#e4aaae"/><path d="m915.01 373.66c8.96-2.84 18.1-5.87 27.6-5.83-1.53.94-3.01 1.96-4.5 2.96h-.7c-2.17-.07-4.35.22-6.39.98-11.43 3.01-20.97 11.12-32.97 12.29 5.93-2.96 12.4-5.36 16.96-10.4z" fill="#fd3c65"/><path d="m842.07 367.96c.91.61 1.84 1.24 2.76 1.88.29.2.87.62 1.16.83.26.6.78 1.81 1.04 2.42 1.27 3.74 4.37 6.53 8.05 7.85 5.95 2.41 12.51 2.31 18.83 2.29 2.73-.04 5.47-.01 8.22-.09-8.22 2.32-16.83 1.79-25.21.96-1.27-.43-2.49-.91-3.68-1.45-3.02-1.61-5.87-3.49-8.67-5.43-1.27-1.85-2.07-3.97-2.73-6.09.06-.79.17-2.38.23-3.17z" fill="#f88f01"/><path d="m849.1 367.78c.54.85 1.09 1.7 1.67 2.55.33.46 1 1.39 1.34 1.85-.31.56-.94 1.67-1.25 2.23-1.29-.44-2.57-.88-3.83-1.32-.26-.61-.78-1.82-1.04-2.42 1.37.86 2.77 1.68 4.19 2.5-.36-1.8-.72-3.6-1.08-5.39z" fill="#96a97e"/><path d="m850.77 370.33c6.96 1.66 14.12 1.79 21.24 1.81 5.19 1.76 10.37 3.71 15.83 4.49.34.71 1.04 2.12 1.38 2.83-2.32 1.3-4.65 2.61-7.09 3.68-2.75.08-5.49.05-8.22.09 1.05-.8 2.1-1.59 3.17-2.38-8.15-3.42-17.33-4.02-24.97-8.67-.34-.46-1.01-1.39-1.34-1.85z" fill="#ffa03a"/><path d="m931.02 371.77c2.04-.76 4.22-1.05 6.39-.98-4.81 2.93-9.46 6.08-13.71 9.78l-.61.49c-4.77 3.65-9.46 7.56-15.02 9.97-5.64 1.29-11.37 2.26-17.15 2.44.31-.55.93-1.66 1.23-2.22 8.03-.98 16.02-3.26 23.25-6.9 5.42-3.92 9.69-9.3 15.62-12.58z" fill="#840155"/><path d="m852.11 372.18c7.64 4.65 16.82 5.25 24.97 8.67-1.07.79-2.12 1.58-3.17 2.38-6.32.02-12.88.12-18.83-2.29-3.68-1.32-6.78-4.11-8.05-7.85 1.26.44 2.54.88 3.83 1.32.31-.56.94-1.67 1.25-2.23z" fill="#ffbc53"/><path d="m898.05 384.06c12-1.17 21.54-9.28 32.97-12.29-5.93 3.28-10.2 8.66-15.62 12.58-7.23 3.64-15.22 5.92-23.25 6.9l-1 .07c-.31-.66-.93-1.99-1.23-2.65 1.68-1.23 3.36-2.48 5.13-3.61.98-.34 1.98-.67 3-1z" fill="#ba015e"/><path d="m890.99 381.97c7.5-2.12 14.83-4.76 21.89-8.07.54-.06 1.6-.18 2.13-.24-4.56 5.04-11.03 7.44-16.96 10.4-1.02.33-2.02.66-3 1-3.39.43-6.8.56-10.18.93 2.07-1.28 4.04-2.73 6.12-4.02z" fill="#ff4337"/><path d="m908.07 391.03c5.56-2.41 10.25-6.32 15.02-9.97-1.17 3.69-1.44 7.58-1.7 11.42-5.19 1.67-10.29 3.93-14.48 7.48-2.3 1.91-3.2 4.88-4.35 7.53-2.87.54-5.77 1.03-8.69.95 1.51-.81 2.99-1.68 4.49-2.53-8.93-3.7-17.76-8.13-27.59-8.7-2.08-1.66-4.08-3.41-6-5.24.84-.09 2.54-.26 3.38-.35.66.13 1.99.4 2.65.53 4.32 1.13 8.71 2.07 13.19 2.23 8.1.29 16.65.37 24.08-3.35z" fill="#67e300"/><path d="m923.09 381.06.61-.49c-.47 5.03-1.08 10.28.69 15.15.82 2.87 2.47 6.98-.84 8.9-6.24 3.73-14.01 2.82-20.99 2.87 1.15-2.65 2.05-5.62 4.35-7.53 4.19-3.55 9.29-5.81 14.48-7.48.26-3.84.53-7.73 1.7-11.42z" fill="#93ee00"/><path d="m882.13 383.14c2.93-.52 5.9-.75 8.86-1.17-2.08 1.29-4.05 2.74-6.12 4.02-2.52.38-5.04.72-7.55 1.1-6.87-.31-13.91-.49-20.4-2.99 8.38.83 16.99 1.36 25.21-.96z" fill="#ff540a"/><path d="m853.24 382.65c1.19.54 2.41 1.02 3.68 1.45 6.49 2.5 13.53 2.68 20.4 2.99-1.44.41-2.84.88-4.24 1.34 2.72.9 5.42 1.83 8.18 2.64-8.84.34-17.16-2.64-25.62-4.65-.51-.24-1.53-.72-2.04-.96-.09-.7-.27-2.11-.36-2.81z" fill="#f3060a"/><path d="m884.87 385.99c3.38-.37 6.79-.5 10.18-.93-1.77 1.13-3.45 2.38-5.13 3.61.3.66.92 1.99 1.23 2.65-3.31.11-6.61.01-9.89-.25-2.76-.81-5.46-1.74-8.18-2.64 1.4-.46 2.8-.93 4.24-1.34 2.51-.38 5.03-.72 7.55-1.1z" fill="#df0241"/><path d="m859.17 388.9c2.9 1.17 5.95 1.94 8.98 2.72-.84.09-2.54.26-3.38.35 1.92 1.83 3.92 3.58 6 5.24 2.67 3.31 5.74 7.15 5.25 11.69-.13 3.11-3.6 3.98-5.83 5.27-6.02 2.6-11.72 5.94-16.67 10.25-1.49-5.07 1.64-9.43 4.78-13.04 2.88-3.6 5.54-7.72 6.11-12.39.36-4.07-2.47-7.46-5.24-10.09z" fill="#28ac00"/><path d="m870.77 397.21c9.83.57 18.66 5 27.59 8.7-1.5.85-2.98 1.72-4.49 2.53-4.97 1.82-10.33 2.74-14.82 5.68-4.95 3.25-9.15 7.48-13.6 11.35-2.1 1.69-4.62 3.36-7.43 3.01-1.99-.73-3.52-2.27-5.18-3.5l.68-.56c4.95-4.31 10.65-7.65 16.67-10.25 2.23-1.29 5.7-2.16 5.83-5.27.49-4.54-2.58-8.38-5.25-11.69z" fill="#51cb00"/></g><path d="m117.21285 103.1461c4.55371.92978 8.12781 3.06879 11.90088 4.89281 1.22453.67066 2.64805 1.33624 3.245 2.36255.46685 1.44296.1148 2.9367-.13011 4.38474-.0918.20323-.26786.61477-.3597.82308-1.30872 2.07804-2.47202 4.19165-3.41337 6.35607-.98728.0813-1.9669.16259-2.93887.24387-1.56127 4.3085-2.08169 8.7288-2.74753 13.12876-.39032-.061-1.1633-.18291-1.55363-.24387-.14541-2.25588.0842-4.51174.0765-6.76762.41328.5589.87247 1.10761 1.33167 1.65634.63523-9.06413-.95666-18.24004-5.41088-26.83673z" fill="#4fc700"/></svg>