<svg height="299.2533pt" viewBox="0 0 332.64331 374.06664" width="266.11465pt" xmlns="http://www.w3.org/2000/svg" xmlns:xlink="http://www.w3.org/1999/xlink"><radialGradient id="a" cx="438.06134" cy="25.801119" gradientTransform="matrix(1.0513667 0 0 .9973038 -295.62193 244.24323)" gradientUnits="userSpaceOnUse" r="44.259411"><stop offset="0" stop-color="#bca482" stop-opacity="0"/><stop offset="1" stop-color="#041a25" stop-opacity=".77435899"/></radialGradient><path d="m-.00001526 0h332.64336526v374.06665h-332.64336526z" fill="#041a25" fill-opacity=".76862745" fill-rule="evenodd" opacity=".97000002"/><path d="m164.62449 227.80527c-24.50559.27529-44.27226 19.16592-44.19731 42.25085.0749 23.08491 19.96309 41.62849 44.46908 41.47397l.0429-.00039.0206-.00019.0429-.00036c24.54854-.21531 44.37945-19.12737 44.30438-42.25254-.075-23.12517-20.0276-41.68755-44.57612-41.47227l-.0429.00038-.0208.00017-.0429.00037zm.00004.007.0429-.0004.0207-.00015.0429-.00038c24.54499-.21527 44.49416 18.34472 44.56921 41.46544.075 23.12076-19.7525 42.02959-44.29753 42.24485l-.0429.00038-.0208.00019-.0429.00038c-24.50248.15449-44.38725-18.38591-44.46216-41.46641-.0749-23.08049 19.68837-41.96864 44.19046-42.2439zm-1.65153 3.58878-.003.00085c-4.82654 1.21007-9.69886 7.31145-12.788 16.63693l-.001.003.003.00074c4.12648.90975 8.42169 1.41542 12.84458 1.49739l.003-.00004-.0589-18.14043zm-.007.009.0588 18.12288c-4.41962-.0822-8.71255-.5871-12.83613-1.49594 3.08771-9.3189 7.95731-15.41521 12.77731-16.62694zm3.54732-.001v.00055l.0587 18.08009.002-.00002c4.37934-.15918 8.62966-.7202 12.72871-1.68197l.003-.00083-.001-.003c-3.10668-9.21073-7.99671-15.18642-12.78829-16.3927l-.003-.001zm.007.0105c4.78523 1.20759 9.67219 7.17806 12.77741 16.3822-4.09614.96079-8.34264 1.52112-12.71876 1.68038l-.0587-18.06259zm7.74159.70468.009.009c3.44992 3.35019 6.39269 8.45544 8.48527 14.73578l.001.002.002-.00084c3.90617-1.14119 7.61899-2.64259 11.15982-4.44476l.003-.002-.003-.003c-5.31513-5.00518-12.07855-8.64891-19.64744-10.29331l-.0123-.002zm.0238.0135c7.5606 1.64504 14.31698 5.28548 19.62748 10.28507-3.53807 1.80041-7.24703 3.30038-11.14988 4.44084-2.09089-6.27385-5.03118-11.37514-8.4776-14.72591zm-19.18436.19497-.0123.002c-7.51504 1.7767-14.21226 5.5181-19.43047 10.59557l-.002.003.003.002c3.5096 1.74033 7.21108 3.15684 11.08168 4.22985l.002.00076.001-.002c2.03047-6.27628 4.91849-11.43351 8.34651-14.82384l.008-.009zm-.0238.0133c-3.42455 3.39105-6.30929 8.5439-8.33814 14.81385-3.86732-1.07229-7.56487-2.48756-11.07172-4.2261 5.21374-5.07176 11.90309-8.81059 19.40986-10.58775zm41.28692 12.62736-.002.002c-3.96675 2.08743-8.19109 3.81429-12.63038 5.12105l-.003.00082.001.003c.77767 2.85605 1.38277 5.91537 1.80594 9.11913l.007-.00006c-.42299-3.20296-1.02857-6.26205-1.80592-9.1176 4.4375-1.30647 8.6604-3.03377 12.6258-5.12025 5.46547 6.1889 8.90746 14.04528 9.32083 22.67175l-5.58199.049.00002.008 5.59041-.049-.00088-.003c-.41246-8.63093-3.85604-16.4903-9.32454-22.68166l-.001-.002-.00056.00001zm-63.15211.5546-.001.001c-5.42792 6.28694-8.82111 14.20653-9.17774 22.82404v.003l5.65233-.0496-.00001-.007-5.64546.0494c.35741-8.61311 3.74899-16.52969 9.17395-22.81408 3.95731 2.01699 8.16968 3.67055 12.57261 4.87937-.77156 2.87414-1.36298 5.94944-1.77105 9.16886l.007-.00006c.40821-3.2201 1.00071-6.29587 1.77257-9.17039l.00083-.003-.002-.00077c-4.40465-1.20903-8.61839-2.86219-12.5771-4.88011l-.002-.001zm15.99732 5.73567-.001.003c-.67945 2.56618-1.22158 5.34075-1.60492 8.28568l.007-.00007c.38326-2.94274.92613-5.71577 1.60495-8.28033 4.44495.9666 9.07981 1.52936 13.82066 1.60869l.0212 6.53614.007-.00007-.0214-6.54377-.003.00005c-4.74287-.0792-9.3801-.64219-13.82677-1.6094l-.002-.00078zm31.08867-.25205-.002.00081c-4.41876 1.04493-8.98857 1.66813-13.7093 1.83029l.00002.008-.002-.003.0213 6.53996.007-.00005-.0212-6.53616c4.71867-.1623 9.28618-.78516 13.70318-1.82948.69385 2.54655 1.25413 5.30279 1.65625 8.2311l.007-.00007c-.40225-2.93035-.96256-5.68898-1.65702-8.2372l-.00057-.002zm-56.2766 20.67893.00087.003c.43391 8.61059 3.85615 16.46963 9.32462 22.66103l.001.002.002-.001c3.96675-2.08744 8.14825-3.79483 12.54479-5.10121l.002-.00081-.00057-.002c-.72019-2.60653-1.29484-5.38542-1.71377-8.29012l-.007.00006c.41875 2.90376.99314 5.6819 1.71303 8.28781-4.39462 1.30607-8.575 3.01325-12.54023 5.09963-5.46571-6.18893-8.88687-14.04546-9.32153-22.65187l5.66686-.0496-.00002-.008-5.6745.0496zm76.09087-.66732.00004.008 5.582-.049c-.35743 8.6133-3.74882 16.50945-9.17398 22.81406-3.99998-2.03665-8.23341-3.69037-12.67901-4.91892.7012-2.61208 1.25647-5.38331 1.65618-8.2769l-.007.00005c-.39988 2.89425-.95543 5.66666-1.65694 8.27922l-.001.002.003.00074c4.44751 1.2288 8.6821 2.88199 12.68361 4.91963l.002.001.001-.002c5.42788-6.30704 8.82114-14.20575 9.17774-22.82326l-.00001-.006-5.58962.049zm-52.31993 9.90755c.39146 2.62134.90735 5.10171 1.53582 7.40766l.001.002.003-.00082c4.44005-1.06523 9.07336-1.70934 13.81545-1.87166l.003-.00003-.0184-5.67277-.008.00009.0184 5.66512c-4.74009.16251-9.37174.80704-13.8101 1.87162-.62783-2.30428-1.14297-4.78319-1.53428-7.40232l-.007.00006zm18.88088-.16558.0184 5.67274.002-.00002c4.72149.0794 9.29515.64293 13.72046 1.61031l.002.00077.001-.003c.61197-2.31133 1.11048-4.79452 1.48464-7.41353l-.007.00006c-.37403 2.61717-.87249 5.09843-1.48391 7.4082-4.42355-.96675-8.99487-1.53007-13.71434-1.60961l-.0183-5.66511-.007.00005zm.0284 9.00571.0008.00081.0588 18.11983.003-.001c4.80484-1.29043 9.63522-7.35116 12.70309-16.6362l.001-.003-.003-.00076c-4.12637-.8896-8.38022-1.39595-12.76036-1.47829l-.003.00004zm.007.008c4.37693.0825 8.62694.5889 12.75044 1.47761-3.06658 9.27841-7.8932 15.33378-12.69168 16.62542l-.0588-18.10303zm-3.55027.0442c-4.42207.15955-8.71452.74028-12.8348 1.74246l-.003.00082.001.003c3.14948 9.27077 8.0611 15.26698 12.89526 16.41247l.003.001-.0589-18.16105-.003.00002zm-.003.007.0589 18.14349c-4.82771-1.14718-9.73648-7.13767-12.88453-16.40188 4.11738-1.00119 8.40679-1.58196 12.82566-1.74161zm19.7713 2.29394-.001.003c-2.07297 6.33701-4.96114 11.49311-8.41047 14.90382l-.009.0105.0123-.002c7.55777-1.77705 14.3186-5.53984 19.6008-10.65813l.003-.003-.004-.002c-3.55229-1.73992-7.27392-3.17613-11.18727-4.24873l-.002-.001zm.003.009c3.91006 1.07192 7.6293 2.50756 11.17886 4.24576-5.27761 5.11235-12.03164 8.8713-19.58093 10.64881 3.4458-3.41129 6.33077-8.56395 8.40207-14.89457zm-36.06112.32772-.002.00081c-3.84207 1.1406-7.55473 2.62217-11.05281 4.42395l-.003.002.003.003c5.27231 5.00558 11.99269 8.6298 19.51886 10.27457l.0123.002-.008-.009c-3.44997-3.35016-6.37125-8.43602-8.46374-14.69625l-.001-.002zm-.003.009c2.09083 6.25372 5.00897 11.33569 8.4553 14.68639-7.51769-1.64534-14.23049-5.26662-19.4982-10.26635 3.49525-1.79988 7.20421-3.28021 11.0429-4.42004z" fill="#bca482" overflow="visible" stroke="#bca482" stroke-width=".38832572"/><ellipse cx="164.94119" cy="269.97479" fill="url(#a)" fill-rule="evenodd" rx="46.532875" ry="44.140079"/><path d="m166.03016 312.93195c-.00001 0-.00004-.00003-.00003-.00003z" fill="#bababa"/><path d="m130.87249 11.539417c-.34161.737819-.67451 1.47687-.99431 2.214688 10.79311 5.143032 21.77444 9.924046 32.45123 15.291312-10.5169 4.788592-20.91123 9.888557-31.5081 14.489074-11.78876-5.005592-23.30096-10.743141-34.966226-16.088698-.261641.556978-.791148 1.65764-1.052789 2.207386 10.960255 5.222592 22.058465 10.14006 32.967875 15.463921-10.82947 4.933263-21.63133 9.933279-32.424421 14.946103-11.832445-5.844681-23.691825-11.603079-35.516989-17.462236-.247116.571441-.742311 1.699163-.989427 2.270604 11.243722 5.374508 22.314245 11.126459 33.616122 16.377991-10.61141 5.056226-21.333664 9.909418-32.068621 14.683546-11.70161-5.338338-23.183505-11.197395-34.768827-16.796135-.363404.723344-.721066 1.452438-1.08447 2.175795 10.843977 5.439593 21.848432 10.561702 32.677873 16.015771-10.575059 5.034531-21.330969 9.693114-32.022317 14.474469-5.155397-2.592777-10.334736-5.149363-15.5310677-7.672391.01239.91255.011991 1.824989-.00243 2.737365 4.2434667 2.031298 8.4849397 4.066119 12.6968237 6.157856-4.467913 2.03051-8.959001 4.00715-13.4571709 5.96823-.017208.359352-.046813.705122-.1096659 1.013752-.3039514 1.26947-.3333315 1.36137-.467906 1.90108 5.3214138-2.32684 10.6336828-4.677862 15.9551078-7.003862.241663-.18083.485578-.26217.731103-.27957.736575-.0523 1.480246.48723 2.161628.75849 9.019689 4.470312 18.067639 8.888562 27.08006 13.387802.523301.44125 3.336694.46378 1.759521 1.28116-11.011143 5.04899-22.03767 10.19885-33.13603 14.98743-4.975403-2.57806-9.950322-5.15669-14.9291265-7.72588.0007191.91884.00135 1.83797 0 2.75682 4.0443725 2.09355 8.0904805 4.18303 12.1679935 6.20646-4.032278 1.91696-8.095849 3.76859-12.1679935 5.60358v2.64741c4.2038475-1.88693 8.4138485-3.76157 12.6115295-5.66192.864901-.33997 1.68477-.87547 2.644156-.90435 11.28733 5.8881 22.479843 11.95115 33.759905 17.86094-10.647738 5.27323-21.511995 10.14188-32.319632 15.09684-5.582286-2.91301-11.14536-5.88379-16.6959585-8.88064v2.74223c4.6317545 2.496 9.2474795 5.01963 13.8032275 7.64809-4.18898 1.7705-8.343706 3.63016-12.4945529 5.49904.092479.73909.162775 1.48082.3021893 2.21225.019084.10008.062278.19334.1096659.28444 4.9296467-2.20646 9.8526467-4.42551 14.7634097-6.67081 10.625933 6.01829 21.484919 11.67386 31.834666 18.1551-10.713152 5.27322-21.453807 10.48963-32.312321 15.45905-3.323112-2.03948-6.654188-4.0713-9.981994-6.1068.08962.52995.318335 1.71937.611689 3.23086 2.210993 1.35477 4.419943 2.71313 6.621358 4.08417-1.981424.79789-3.951735 1.62428-5.92681 2.43835.426344 1.07726.708716 1.9049.831021 2.2706.892333-.36975 1.781653-.74912 2.675837-1.11343 1.737072-.61484 3.379029-1.79441 5.254194-1.82328 10.247995 6.37273 20.322842 13.01313 30.323722 19.76201.617787.3906 1.184914.88215 1.68641 1.43189-9.383092 3.71804-18.811583 7.34241-28.347305 10.6626-1.075676.65824-1.991318-.30539-2.863487-.78281-1.469372-.96694-15.437593-6.87916-16.9201637-7.82555.3393616 1.55992.4563892 2.30101.4727809 3.13363.9233146.57582 14.3254128 6.12859 15.2483738 6.70484-.922556.36422-14.3295898 5.69029-15.2581224 6.03873-.077065.90031-.1215246 1.80033-.151095 2.70091 1.8436044-.62666 16.1649684-6.22941 18.0046334-6.86773 10.923926 6.88631 20.649389 15.43006 30.235989 24.00177l.114543.5786c-9.303144 2.4594-18.708239 4.53483-28.076797 6.71212-1.075676.20977-2.332843.6739-3.263158-.15072-1.514937-.96771-15.5148592-14.37302-17.0322646-15.33751-.0000188.97083.0000049 1.94158 0 2.91241.6787519.45641 13.8256436 13.37435 14.4758416 13.87158-.665747.14298-13.8099702.28068-14.4758416.423v2.43835c1.6951024-.33918 15.8691986-.66594 17.5708446-.95298 12.573781 7.6386 25.003342 15.54682 37.722485 22.9467-6.054312-.81737-12.181967-.28339-18.258083-.74633-6.083385-.23148-12.1673.35464-18.236149.32576-2.121177-.93456-16.702028-9.37601-18.7991053-10.36357v2.74222c.8380596.40338 14.1509853 8.28393 14.9900503 8.68371-.840306.086-1.676399.19994-2.512557.31362l-12.4774933 2.75194v2.03722c.6328523-.11874 13.7394533-2.74602 14.3734873-2.85891 1.108382-.17176 2.298418-.51905 3.450807-.52025.691432-.00072 1.370322.12298 2.008096.48378 10.400625 4.98389 20.981403 9.57626 31.491049 14.33591-10.647739 1.90966-21.208174 4.32562-31.739624 6.77777-1.039335.28935-2.12809.11738-3.051137-.38897-1.354627-.63629-15.1794816-6.26715-16.5326783-6.90662v2.68146c.6403687.29614 13.7539863 5.57948 14.3954203 5.87342-.640828.15089-13.7551052 2.8059-14.3954203 2.95859v2.43835c.9277915-.22385 14.3310363-2.94617 15.2605583-3.16281.850366-.15186 1.757863-.55135 2.636846-.48864.292994.0209.581684.093.865139.24311 9.564794 4.31841 19.282023 8.36346 29.246562 11.68364-8.699894 2.65469-17.493268 5.04124-26.222233 7.6019-3.120385-1.05775-18.682771-4.71405-21.7551919-5.91476-.00664.8538-.045638 1.70006-.1096647 2.54532 1.799005.66625 16.0816196 3.80433 17.9047156 4.40264-1.985968.66768-3.983956 1.29804-5.982861 1.92538-.02935.13528-10.025786 2.75722-10.0575424 2.89295-.2398411 1.0252-.4023904 1.68499-.5605127 2.32409 3.4878011-1.04407 16.9655031-4.5442 20.4952591-5.42124 9.964539 3.41422 19.725945 7.45121 29.755897 10.69905-7.383613 2.67318-14.886596 5.01073-22.357134 7.44388.965276.0235 1.930909.0395 2.890295-.0243.718123-.0478 1.419447-.23065 2.129947-.3452 3.771223-2.09669 7.080055-2.93708 11.46857-2.4578 3.199585-1.02116 6.403972-2.01942 9.626192-2.9513 3.080672 1.03124 6.153086 2.10412 9.221647 3.1944 1.598561.002 3.197462.0232 4.796037.0171.791231-.001 1.582414-.0005 2.373648 0-4.165323-1.51199-8.330906-3.02558-12.489679-4.55093 8.80892-2.79215 17.611614-5.76536 26.573162-7.99331 10.487833 3.10319 20.852393 6.75676 31.383813 9.8093-1.99227.68111-3.98014 1.37212-5.97068 2.05668 2.57339-.22145 5.149-.35982 7.73752-.38168.26054.0212.5216.0325.78228.051.54747-.18928 1.09839-.36995 1.64498-.56157.90793.27544 1.82516.51625 2.7392.76822 3.2396.0825 6.48369.039 9.7261-.005-2.82824-.71305-5.67376-1.35175-8.54903-1.86947l.0366-.16046c10.56054-3.27678 21.15739-6.43663 31.75425-9.58321.25801-.0867.51729-.11364.77497-.0997.77303.0421 1.54284.43885 2.30053.59075 10.02269 2.96574 20.00111 6.03946 29.99472 9.07754l.0366.18233c-2.61977.55871-5.22738 1.17176-7.82524 1.82086 2.17781-.00006 4.35583 0 6.53362 0h2.9171c.74673-.21323 1.49677-.41467 2.23963-.64181.62955.21784 1.26307.42623 1.89354.64181h1.66206c.73205.0835 1.50363-.10667 2.23229 0 1.43116.20942 2.84102.56767 4.27695.74147.68932.0834 1.38099.13827 2.0739.17746-2.77475-.96578-5.55043-1.92993-8.32239-2.90024 10.53144-2.62577 20.72948-6.45175 31.0865-9.66343.27256-.0886.54618-.11912.81884-.11177.818.0216 1.63198.38757 2.42239.5883 7.8786 2.33643 15.71392 4.82641 23.56345 7.27858-1.57718.96928-3.37321 1.44698-5.08847 2.098-4.38709 1.59111-8.77703 3.1695-13.16473 4.75513.73542.10978-.13788-.0126 1.86186.27471 1.01421.177 2.03048.35502 3.0487.52511 4.23604-1.52284 8.4766-3.03642 12.69439-4.60928 1.56991-.42316 3.16482-1.44824 4.79604-1.50726.54375-.0197 1.09262.0677 1.64498.32091 6.44268 2.05617 12.86401 4.17264 19.28895 6.28183.88133.00073 1.76282.009 2.64415.007 1.71501-.0112 3.42952-.005 5.14452-.007-8.38891-2.70522-16.75023-5.50805-25.12313-8.27043 10.11716-3.29848 19.96503-7.39187 30.03859-10.81332 7.22558 1.86952 14.33659 4.1725 21.47981 6.35477v-.017-2.54531c-5.91512-1.81994-11.83614-3.62228-17.79505-5.28268 5.96596-2.28903 11.8967-4.67466 17.79505-7.1327v-1.79655-.85573c-7.10853 2.95466-14.21002 5.9293-21.45057 8.54029-8.88159-2.36538-17.63325-5.22125-26.54391-7.49981 10.33521-3.44316 20.24259-8.03031 30.27254-12.22575 5.90826 1.40884 11.8344 2.80062 17.72194 4.33456v-2.4821c-2.02482-.52686-4.04733-1.06464-6.0779-1.56317-2.82728-.65824-5.6126-1.61272-8.52711-1.72847 4.8295-2.41176 9.71815-4.768 14.60501-7.14v-2.7325c-5.94352 2.92231-11.90007 5.81701-17.91934 8.57674-10.98933-2.38706-22.00546-4.87431-33.01662-7.23966 10.98935-4.66563 21.77306-9.80152 32.63158-14.75649 6.14446.90503 12.24835 2.19953 18.30438 3.68548v-2.45779c-4.77382-1.138-9.56238-2.20766-14.37105-3.18712 4.79582-2.29023 9.59056-4.58906 14.37105-6.91634v-2.7252c-6.16599 3.03241-12.3649 5.99857-18.57976 8.92438-8.15478-.96205-16.40327-.80391-24.60894-.71715-3.83754.45569-7.73316-.16456-11.53437.51538 11.90513-6.90077 23.5689-14.22859 35.21236-21.55614.78496-.41955 1.61423-1.26009 2.59542-.76821 5.64363 1.16968 11.27375 2.42017 16.91529 3.60768.00001-.82814-.00006-1.6564 0-2.48453-4.99552-1.04633-9.98847-2.10286-14.98274-3.14822 4.97171-3.22757 9.97589-6.40434 14.98517-9.57348-.00047-.96122.00011-1.92202 0-2.88322-6.17129 3.91509-12.36382 7.80153-18.53833 11.7055-10.40789-2.32196-20.77123-4.92719-31.17911-7.22022 9.60113-8.90446 19.73935-17.28708 30.80137-24.34698 6.33254 1.85539 12.59066 4.13055 18.90633 6.16758-.004-.8548-.002-1.70997-.005-2.56476-5.43564-1.75997-10.85625-3.56901-16.2646-5.40423 5.39373-3.38298 10.81168-6.73906 16.26216-10.0378-.0614-.89666-.1466-1.79206-.25344-2.68633-6.20038 3.72175-12.37029 7.49158-18.42136 11.45026-.32707-.0144-.97918-.0366-1.30624-.051-9.70218-3.45737-19.41145-6.90857-28.89563-10.93001 10.90113-7.06659 21.64884-14.40169 32.76804-21.12827 4.50619 1.91594 9.02818 3.80073 13.56196 5.65705.004-.33299.002-.66163.0125-.99917v-1.63852c-3.73006-1.53325-7.4572-3.07685-11.19806-4.57524 3.72352-2.28149 7.46105-4.54562 11.19806-6.80938v-1.29332-1.5899c-4.62547 2.8079-9.23492 5.64251-13.85684 8.45763-11.03295-4.72348-21.70961-10.22109-32.55358-15.34966 10.53145-6.30762 21.32391-12.17518 32.05887-18.12836 4.77159 2.16561 9.5621 4.29542 14.35155 6.42771v-2.64985c-3.85962-1.72126-7.71813-3.4478-11.59042-5.13681 3.81928-2.22833 7.69783-4.35936 11.59042-6.46417-.00002-.92691-.00024-1.85421 0-2.78113-4.82594 2.56006-9.54176 5.34229-14.44659 7.71859-10.95299-4.77413-21.76789-9.93177-32.57552-15.05306 11.49085-5.75069 22.66886-12.15143 34.18151-17.88039 4.31683 1.78918 8.59134 3.68994 12.85766 5.61086.004-.54618-.002-1.09234.002-1.63852.001-.34748-.0127-.6953-.0171-1.04292-3.38128-1.51818-6.7648-3.03101-10.13796-4.56552 3.47151-1.70136 6.92205-3.44589 10.36703-5.20245-.4832-.85667-.055-.0871-.96506-1.71875-.0356-.16369-.0707-.32755-.10718-.49107-4.02796 2.05211-8.05267 4.11379-12.03639 6.2478-10.43696-4.85368-20.94459-9.53263-31.41063-14.30674-.67593-.32551-1.3024-.70864-1.89111-1.14988 10.06629-4.64392 19.8722-9.85303 29.90942-14.569292 1.43182-1.02715 2.94958.21804 4.32326.71716 2.56995 1.12326 5.13689 2.25619 7.70339 3.388892-.0701-.887032-.0761-1.776452-.0195-2.654722-2.6715-1.16394-5.33936-2.33435-8.01777-3.48369 2.63199-1.24262 5.25443-2.503075 7.87398-3.770564-.0936-.85914-.18143-1.718965-.27294-2.579351-3.47717 1.695279-6.95794 3.382966-10.45721 5.032275-10.64774-4.810295-21.40561-9.403481-31.94433-14.438013 10.35701-5.121336 20.81726-10.060636 31.18154-15.189204-.41428-.694417-.82846-1.39629-1.22094-2.090708-11.01113 5.294935-21.94232 10.756286-32.9898 15.928257-10.85852-4.723494-21.58003-9.779359-32.35132-14.698146 10.88758-4.897092 21.50657-10.380362 32.21972-15.660833-.27619-.520807-.82773-1.569951-1.09666-2.098001-11.06929 5.302166-21.99369 10.886082-33.07024 16.173785-.87944.629307-1.78873-.19431-2.61003-.469189-10.21893-4.672847-20.35624-9.520748-30.64784-14.03446 10.27706-4.969434 20.73376-9.561213 30.98901-14.559574l.21935-.522673-.93095-1.820857c-10.44424 4.991128-20.98357 9.779521-31.44962 14.720015-.92305.506343-2.01855.715067-2.96341.165321-10.22619-4.71625-20.40972-9.548331-30.67952-14.163312 10.4733-4.716249 20.88069-9.599566 31.25223-14.532826-.42154-.694417-.84322-1.38164-1.2575-2.068824-10.25526 4.875391-20.59721 9.548218-30.83793 14.44531-.82856.289343-1.77438.992311-2.63928.457041-11.26552-5.21537-22.49438-10.510993-33.75991-15.711892zm34.67378 18.916007c.85889.08439 1.68874.798798 2.4955 1.042933 9.64474 4.716249 19.61071 8.802532 29.11009 13.779197-10.74222 4.47031-21.14306 9.787276-31.7908 14.489062-8.43825-3.927795-16.87011-7.835875-25.30835-11.741975-2.0932-.940357-4.09997-2.095885-6.31673-2.725205 1.36639-1.056089 2.99456-1.678538 4.5572-2.401882 8.78711-4.101406 17.61051-8.146476 26.38307-12.276809.29255-.151903.58373-.193464.87002-.165321zm-34.75908 15.884493c10.47333 5.106861 21.2004 9.715556 31.6519 14.858587-11.0911 5.085166-22.19804 10.141766-33.21646 15.378835-6.44672-3.139354-12.89329-6.285889-19.33281-9.432475-3.82301-2.032617-7.92975-3.51738-11.592851-5.832096 10.865771-4.918799 21.682521-9.931088 32.490221-14.972851zm69.30857.01456c10.78584 5.06347 21.61454 10.032419 32.45124 14.980145-10.24071 5.200897-20.6267 10.121228-30.91104 15.228101-11.14924-5.164739-22.25543-10.460209-33.49915-15.400704 10.68408-4.868152 21.33302-9.816413 31.95895-14.807542zm-34.74933 16.130034c11.17104 4.983897 22.16022 10.381943 33.37486 15.264571-8.70715 4.665615-17.77169 8.693708-26.6024 13.149555-2.35486.925901-4.48382 2.407811-6.91136 3.123911-6.78113-3.175517-13.4606-6.573245-20.22719-9.777696-4.28816-2.21346-8.80016-3.992856-12.94296-6.481182 11.20012-4.882628 22.2107-10.186761 33.30905-15.279159zm70.02507.405984c.8811-.000399 1.69163.671129 2.52473.911642 9.82646 4.535407 19.66643 9.026702 29.52195 13.475317-9.99361 5.519179-20.60352 9.909641-30.67709 15.298614-10.86578-4.752422-21.5438-9.924554-32.37324-14.76378 10.29887-4.759652 20.40938-9.937535 30.62104-14.87803.129-.03074.25673-.04369.38261-.04381zm-140.059868.0075c10.378818 4.730713 20.531868 9.990547 30.852548 14.873175-10.47331 5.1358-21.16453 9.815866-31.73231 14.741898-10.473296-4.665645-20.642272-10.121034-31.086505-14.902381.959387-.860796 2.202662-1.295233 3.372823-1.823284 9.572063-4.188211 18.948703-8.882068 28.593444-12.889437zm175.028528 15.950047c10.87305 4.311175 21.36863 9.743337 32.24895 14.126846-9.95727 5.25153-20.2133 9.990382-30.23598 15.147882-1.0466.79568-2.09915-.17558-3.07307-.53727-9.8846-4.70901-20.02419-8.918762-29.79976-13.837542 10.34974-4.83923 20.54645-10.002824 30.85986-14.899916zm-210.016688.04381c.219974.0037.43871.06074.653119.201778 10.102633 4.839226 20.087438 9.930765 30.255484 14.639798-.530568.38337-1.075678.72453-1.649855 1.02833-9.499378 4.30395-18.984267 8.658972-28.461845 13.028012-.879437.37619-1.918251 1.03416-2.797689.26741-10.037221-5.1792-20.371238-9.780362-30.313972-15.118702.923046-.29658 1.859933-.55003 2.768443-.91894 9.201391-4.159273 18.438924-8.222728 27.596707-12.461573.61597-.195306 1.28969-.676282 1.949608-.666113zm68.653028.491071c11.12745 4.940482 21.97883 10.613033 33.01905 15.806705.007.14467.0291.42664.0366.5713-10.30613 4.983902-20.61951 9.937772-30.92565 14.907212-11.23653-5.75789-22.74267-10.99476-33.95731-16.781552 10.66954-4.701789 21.15769-9.809123 31.82736-14.503665zm72.67895.09485c.39317-.02166.79076.05788 1.19413.296587 8.40917 3.833771 16.78953 7.747775 25.1987 11.581528 1.90424.88973 3.76304 1.92321 5.87806 2.24873-4.9859 3.01637-10.62461 5.24438-15.85762 7.971422-6.20694 2.98744-12.37761 6.04658-18.57002 9.06296-10.39335-5.02006-20.75681-10.11969-31.20104-15.038492 9.85552-5.12855 19.97892-9.765052 29.92893-14.720009 1.112-.358063 2.24939-1.337616 3.42886-1.402726zm-107.584257 15.983985c.698079-.0227 1.402018.47675 2.039777.73174 10.71315 5.171972 21.2951 10.611012 32.11736 15.558732-1.59897 1.2948-3.54696 2.01283-5.3858 2.88809-8.88159 4.22437-17.7064 8.56224-26.624331 12.69981-11.127429-5.9604-22.47279-11.52304-33.796461-17.10731 1.104749-1.11397 2.645049-1.5686 4.033252-2.22684 8.983347-4.09418 17.945583-8.22396 26.921654-12.318142.228947-.1519.461855-.21852.694549-.22608zm142.879477.002c10.41515 4.716262 20.7714 9.560822 31.20836 14.219212-.007.13744-.0291.40711-.0366.54455-11.24372 5.5264-22.3986 11.23253-33.54056 16.96146-7.29715-2.94404-14.23812-6.80675-21.43351-10.02566-3.55411-1.82289-7.2971-3.28434-10.71311-5.34588 10.02269-4.68009 19.89869-9.68579 29.87776-14.459902 1.5263-.62932 2.94415-1.87935 4.63762-1.89378zm-71.7797 1.50238c1.09749.0362 1.99201.79599 2.98046 1.21553 9.50666 4.593282 19.02095 9.181292 28.52034 13.803502-10.28434 5.25878-20.83112 10.00173-31.06457 15.35453-8.56181-3.81207-16.82652-8.26684-25.30835-12.2525-2.06416-1.0778-4.28795-1.8884-6.14858-3.29894 10.44424-4.71625 20.65642-9.93226 31.0207-14.822122zm106.04164 14.440452c1.35187-.007 2.46371.91071 3.68475 1.38812 7.36256 3.37082 14.73877 6.71296 22.11587 10.05484 2.72554 1.10672 5.2713 2.68219 8.16399 3.36214-11.33094 6.30763-22.93156 12.21093-34.35698 18.37389-11.20012-5.47578-22.63952-10.46641-33.72334-16.1592 11.48356-5.4179 22.67576-11.49339 34.11571-17.01979zm-212.185628.0268.626312.0584c11.294599 5.57705 22.487078 11.3582 33.752595 17.00034-1.39547 1.03441-3.016463 1.67624-4.571832 2.41405-9.695624 4.58604-19.397367 9.16652-29.08572 13.76703-8.917935-4.91156-17.931016-9.642-26.921654-14.41613-2.333054-1.27309-4.825808-2.29331-6.97716-3.86293 11.134701-4.81033 22.086368-10.04915 33.177459-14.96069zm72.020968 2.07612c10.62594 4.57881 20.92558 10.2362 31.47156 15.13329-10.48784 5.30941-21.07191 10.45951-31.63971 15.60978-.93758.83908-1.94006-.15122-2.79769-.50566-9.55029-5.16473-19.36201-9.86734-28.839581-15.14059 10.647741-4.92603 21.135941-10.22868 31.805421-15.09682zm68.33864.0171c.71682-.038 1.44531.40532 2.08852.69285 7.4934 3.7325 15.1101 7.2188 22.63983 10.87895 2.54382 1.11397 4.90745 2.69819 7.67659 3.25517-10.17531 5.74343-20.80205 10.75026-31.06458 16.37071-10.75676-5.46131-21.74757-10.47559-32.41711-16.10328 10.09536-5.0056 20.27949-9.8507 30.36758-14.87074.23258-.14287.47024-.211.70917-.22366zm-103.168391 16.62874c10.473301 4.90432 20.575781 10.61779 30.925671 15.79698-11.18572 5.86638-22.53108 11.46551-33.818402 17.15106-9.637479-5.28048-19.195054-10.70539-28.876138-15.89908-.683197-.33994-1.32117-.73675-1.786328-1.34437 11.294599-4.99113 22.31874-10.59773 33.555197-15.70459zm138.234541.0388c.81869.0203 1.63603.6763 2.38827.95297 10.42242 4.9622 20.8085 10.01131 31.33996 14.75648-10.08083 5.81576-20.39438 11.26157-30.54061 16.97605-1.99146-.23871-3.68315-1.54082-5.4711-2.36543-8.02396-4.07971-16.04907-8.15262-24.11665-12.14553-1.53356-.77398-3.15422-1.41628-4.51334-2.47238 10.08082-5.05623 19.98717-10.46805 30.09707-15.47364.27074-.1718.54351-.2353.8164-.22852zm-69.35487.0194c5.07312 1.87348 9.88434 4.65044 14.80483 6.99415 5.90168 2.84276 11.76886 5.7807 17.63421 8.68856-.007.11576-.0291.34615-.0366.46191-10.41517 5.59151-20.86822 11.13301-31.19617 16.88365-.8867.74505-1.88139.0355-2.70995-.3841-10.08083-5.47578-20.10475-11.07529-30.31642-16.31236-.0944-.14467-.27589-.43393-.3631-.5786 10.75677-5.19366 21.43367-10.54507 32.18316-15.75321zm105.63708 17.28964c.69264-.0818 1.43497.42498 2.08365.66368 10.18985 4.72349 20.31476 9.5986 30.59909 14.11955-10.21165 6.03998-20.75782 11.55858-30.96221 17.62026-.87216.81016-1.9327-.0998-2.78307-.41085-9.91365-4.96942-19.74753-10.07772-29.71934-14.91693 9.84825-5.90256 20.07445-11.18268 30.11171-16.76696.21439-.18988.4393-.28151.67017-.30875zm-211.030479.0195c10.422428 5.4613 20.793963 11.10338 30.925663 17.09274-10.684079 4.98389-20.9316 10.89436-31.673824 15.71187-10.655007-5.92425-21.194627-12.0794-31.907778-17.91685 11.018411-4.65115 21.666601-10.1932 32.655939-14.88776zm141.110219.0219c11.38182 5.54087 22.64589 11.34124 33.9841 16.99062-10.85124 6.06168-21.60083 12.30617-32.18316 18.81634-.26891.10854-.80579.3169-1.07471.42544-11.31641-5.96766-22.33393-12.52044-33.66486-18.48086 6.04704-3.68186 12.41887-6.7991 18.5822-10.27119 4.81874-2.43046 9.44321-5.25243 14.35643-7.48035zm-70.83902.0972c.7539.0743 1.39723.67933 2.10313.95783 10.22621 5.51917 20.55475 10.87336 30.62104 16.68187-10.98934 5.85915-21.80502 12.04432-32.71442 18.04813-1.25737 1.04164-2.51417-.28428-3.61165-.85573-9.99365-6.24252-20.32828-11.92074-30.423643-17.97519 11.250993-5.57704 22.406843-11.34735 33.694103-16.85206.11267-.0136.22373-.0154.33144-.005zm107.30888 18.26205c10.64774 5.25155 21.14336 10.79988 31.84197 15.95014-11.12743 6.4957-22.15376 13.20084-32.69249 20.60073l-.68967.0997c-10.62593-5.59874-21.08414-11.50686-31.6592-17.1924 10.86577-6.81397 22.05742-13.09987 33.19939-19.45814zm-144.073622.051c9.840982 5.41791 19.514002 11.14545 29.144202 16.93226 1.35186.77398 2.70246 1.59085 3.90897 2.58908-10.72049 5.73618-21.29489 11.7618-32.066183 17.41119-10.349744-7.7254-21.52812-14.26431-32.59014-20.91191 10.53145-5.3528 21.042625-10.72569 31.603151-16.02062zm72.150132.63449c11.2946 6.35104 22.7184 12.48567 33.95486 18.9452-11.6144 6.68377-22.82855 14.08401-34.14495 21.27412-11.20011-7.28415-22.57508-14.30689-33.8915-21.40297 11.36729-6.25699 22.6489-12.66785 34.08159-18.81635zm106.33163 16.63812c8.46732 4.13035 16.87585 8.40475 25.45946 12.31085 2.40573 1.07057 4.70902 2.41631 7.30372 2.98777-10.87306 7.04544-21.84754 13.96134-32.52434 21.31059l-.7701.0291c-11.12017-4.62946-21.77473-10.27958-32.50241-15.71919 10.40789-7.84837 21.81903-14.29329 33.03367-20.9192zm-212.889912.051c11.265527 6.53911 22.55275 13.17264 32.975188 20.98483-10.87305 5.46854-21.578278 11.36366-32.880144 15.89908-10.698616-7.24076-21.544106-14.28644-32.424424-21.25955 10.843977-5.06346 21.688909-10.13412 32.32938-15.62436zm142.998892 3.42777c10.62594 6.10508 21.39057 11.99265 32.2709 17.62756-10.4297 8.0292-19.45653 17.72203-27.61132 28.00086-12.38482-7.08163-24.31973-14.89898-36.41382-22.45077-.90124-.52805-1.71511-1.18016-2.4492-1.90351 11.49085-6.94417 22.68354-14.3806 34.20344-21.27414zm-72.98602.10207c11.39636 7.01651 22.70662 14.16169 34.00848 21.33734-12.60285 8.23174-25.37989 16.22522-38.30981 23.93613-1.09021 1.15014-1.7586-.6442-2.42726-1.23011-6.21422-7.9424-13.21355-15.23316-20.64879-22.03991-1.613509-1.5335-3.53963-2.73454-4.964185-4.45612 10.931185-5.56257 21.562995-11.70265 32.341565-17.54733zm107.53308 18.83579c10.80037 5.59151 21.549 11.37113 32.8436 15.92825-4.7824 3.69633-9.8934 6.95139-14.69761 10.61154-6.52673 4.75966-12.586 10.09689-18.5749 15.49309-8.62721-3.59505-16.85607-8.06513-24.98179-12.65119-.83583-.44847-1.5908-.9967-2.3176-1.58262 8.28561-10.14862 17.21865-19.87113 27.7283-27.79907zm-142.345774.15802c10.342474 8.13047 19.339044 17.82461 27.406614 28.1613-8.80165 5.04176-17.68915 9.95975-26.985011 14.05391-6.163333-5.5915-12.400075-11.13143-19.093976-16.10085-4.578896-3.48655-9.412029-6.6338-13.998188-10.10588 11.178309-4.7235 21.906539-10.42422 32.670561-16.00848zm71.160704 3.93587c13.19157 8.24622 26.32534 16.61444 39.64772 24.65087-2.20949 2.7632-2.90297 3.57774-5.17061 6.30477 1.45216 1.35774 1.19108 1.28319 1.71439 1.94143 2.4566-2.92957 3.20189-3.91968 5.52769-6.95775 8.9252 4.70902 17.62377 9.93809 26.99232 13.76462-8.39463 8.26068-14.44009 14.55753-22.4059 23.23776-.0644 1.23523-.34934 3.08165-.4947 4.26794 1.69251-2.23913 1.09679-1.7501 2.76845-3.56956 7.47886-7.7254 14.97308-15.45901 22.82261-22.82272 10.37156 4.08693 21.1364 7.08144 31.89316 10.00378-11.94146 10.94431-23.91268 21.88202-36.40651 32.21872-1.5481 1.56966-3.94724.65836-5.88781.89706-7.6751.41231-14.25795.18014-21.94032.21636-.49423.78122-.98007 1.56233-1.45976 2.34354 8.68536.18084 16.29141.28268 24.96951-.22366-3.76487 3.34188-7.93514 6.22244-12.09975 9.04351-8.32923 1.17905-15.74592.6426-24.10421 1.6553-1.60205.87019-5.01856 2.22792-6.87785 3.25291 7.60967-.88249 17.38225-1.02592 24.9992-1.92288.55238-.25311 1.14173-.36686 1.75951-.3452-4.36084 2.95851-9.15849 5.33837-14.14441 7.08165-12.96623 4.13033-26.75235 3.86971-40.16923 2.92213-7.42071-.26041-14.87181-.98479-22.08176-2.77869-4.97137-1.20077-9.55038-3.51536-14.04205-5.88072 7.44251.73782 14.90003 1.31588 22.34982 1.98859 4.46113-.0162 7.01376 1.30783-.1341-2.17494.19685.3882.38187.6111.58863.96487-.58863-.96487 1.03102-.66993-2.98418-1.84089-2.04233.48464-4.17209.10069-6.22169-.0656-3.60497-.50634-7.25186-.52703-10.84957-1.05508-2.87816-.44848-6.17793.32533-8.67089-1.49754-3.94655-2.63299-7.81307-5.37501-11.52706-8.31905 8.65629.20978 16.65044.3325 25.30676-.24615 4.2966 5.34002-.54699-.4497-1.70155-2.27969-8.04583.78145-15.71306.23153-23.77336.007-1.49724-.20254-3.26985.23291-4.403673-1.00402-12.697335-10.41626-24.97429-21.35246-36.901211-32.62228 10.822173-2.633 21.419797-6.16437 31.885844-9.9041 9.35401 9.05636 16.42067 16.61252 25.1569 26.2548-.60366-3.55117-.31733-4.09572-1.09501-5.4556-8.39464-8.05814-13.19764-14.1223-21.846647-21.9345 9.237717-4.0146 18.085077-8.87662 26.748617-13.99071 2.43889 3.05514 3.18705 3.59587 5.3361 6.98375 1.04928-1.23988.50935-.5878 1.45421-1.62284-1.37899-2.16308-.78586.83002-.2299.18077-.15098.24893 0 0 .46372-.54925-2.13799-2.98992-2.74523-3.62676-4.85276-6.23469v-.002c13.56226-7.97134 26.74706-16.56327 40.09126-24.88181zm106.77519 13.06443c9.69562 4.02906 19.52337 7.81842 29.50245 11.08074-7.76958 5.49024-15.54088 11.03905-22.56184 17.48411-2.92905 2.19176-5.29644 5.08551-8.31996 7.11812-10.84398-2.71257-21.68975-5.70855-32.0613-9.88951 10.37155-9.55548 21.81173-17.82936 33.44065-25.79346zm-213.304214.26013c11.51991 7.9641 23.177982 16.08816 33.004433 26.04871-10.415164 4.03631-21.163589 7.18198-31.985763 9.91626-7.929477-7.36372-16.084975-14.53889-24.864817-20.87545-1.824289-1.34543-3.813966-2.44629-5.471089-4.0015 9.899127-3.34911 19.636152-7.15299 29.317236-11.08802zm212.768074 38.23557c10.09536 2.66193 20.29942 4.88196 30.46019 7.29073-12.74094 7.77603-25.30951 15.84315-38.29031 23.21411-3.20523.78122-6.54799.20262-9.80409.60047-6.22148.62931-12.4777.46193-18.69918 1.05508 12.50837-10.27159 24.28291-21.36798 36.33339-32.16039zm-212.039407.52025c11.941458 11.16132 24.064869 22.17861 36.747679 32.51531-9.194127-.54252-18.404843-.80353-27.569899-1.54858-13.242443-7.69647-26.446353-15.50684-39.216371-23.95558 10.080829-2.06879 20.008639-4.79046 30.038591-7.01115zm232.870967 31.84434c2.85999-.007 5.71701.0449 8.5661.33791-11.07656 4.75965-21.87009 10.19877-33.06293 14.68356-7.60968-1.28757-15.17459-3.12475-22.90059-3.5226 5.56734-3.23339 11.34532-6.11946 16.88362-9.42518.98118-.52803 1.91991-1.27957 3.08281-1.37355 6.26509-.51358 12.55856-.78922 18.85271-.68068 2.85636.0543 5.71829-.0125 8.57828-.0194zm-247.003191.72688c5.839353.0349 11.676788.20708 17.502608.68313 2.115012.26763 4.49997-.45596 6.360599.8533 5.96709 3.39253 11.97765 6.73262 18.119172 9.80687-7.522457.20254-14.921544 1.75179-22.298646 3.10445-1.322792.28934-2.507185-.41971-3.662827-.90436-9.928199-4.37629-19.928807-8.63592-29.646231-13.45344 2.594705-.0344 5.190521-.0681 7.786248-.0851 1.946796-.0127 3.892626-.0164 5.839077-.005zm213.728251.17504c-6.03251 3.29848-12.00702 6.72765-18.17035 9.78741-1.1411.64379-2.45636.26031-3.67013.25284-5.73452-.24593-11.48529.009-17.19798.50079 4.1428-2.88618 8.10469-6.0253 12.09487-9.11402 8.97608-.50634 17.96024-.92067 26.94359-1.42702zm-185.395568.89706c1.642584.18083 3.285171.40617 4.949569.3987 5.640026-.0723 11.236258.89556 16.876297.71472 1.584441.0289 3.416926-.18738 4.696112.96999 3.71399 2.92234 7.55796 5.67236 11.40277 8.41388-5.85807-.31104-11.707928-.6524-17.573273-.46434-2.282171.26765-4.156862-1.24973-6.104711-2.15391-4.775125-2.58237-9.696949-4.92778-14.246764-7.87904zm162.107498 11.43081c-9.45577 4.78135-19.38374 8.64956-29.65354 11.2898-4.08467.11576-8.20506.25418-12.26791-.1726l-.022-.17504c8.53273-.88973 15.69808-6.20413 22.92983-10.34169 6.34503-.0434 12.66126-.67279 19.01355-.60047zm5.05192.42542c7.80592.13021 15.57586 1.53396 23.15647 3.29894-9.3831 3.48655-18.58519 7.52912-28.16452 10.49486-1.10475.27488-2.20942-.0574-3.28509-.23095-6.11246-1.3816-12.35611-2.19169-18.6212-2.35083 9.31041-2.88618 18.09816-7.1323 26.91434-11.21202zm-143.790874.50576c4.578884.0723 9.156094.3118 13.734984.38412 2.17316.23871 4.57329.0301 6.47026 1.31762 8.05303 4.95496 17.08661 8.91848 26.69503 9.08484-5.00045.63656-10.08728.38335-15.11679.29659-10.90933-2.69086-21.64452-6.21501-31.783484-11.08317zm-6.384968.0875c.630962.0144 1.249077.12322 1.835069.43515 7.864063 3.8193 15.924463 7.31307 24.348163 9.72907 1.30099.33996 2.84026.30997 3.85779 1.34437-7.92947-.59315-15.83061.76625-23.629248 2.00319-9.920929-3.08149-19.725252-6.63271-29.224629-10.85708 6.555811-.72336 13.004063-2.43129 19.632556-2.46751 1.040242.0226 2.128697-.21122 3.180299-.18719zm177.779912 3.32809c11.08382 2.35089 22.26102 4.3978 33.21402 7.34908-10.08809 4.0146-20.00805 8.56315-30.35053 11.92674-10.48057-2.95128-21.04759-5.59083-31.62265-8.17319 9.7901-3.15382 19.24525-7.21823 28.75916-11.10263zm-204.850223.44003c9.535723 3.66741 18.969019 7.74138 28.751848 10.80116-10.625933 2.59682-21.252169 5.23586-31.805423 8.10756-10.371552-3.47931-20.597878-7.4936-30.540614-12.05072 11.214648-2.15559 22.29959-5.11471 33.594189-6.858zm123.388273 8.71289c3.39056-.0144 6.77896.0719 10.14771.39383-9.92093 1.87349-19.71816 4.43409-29.66816 6.1846-2.96537.11576-5.80752-.96877-8.71475-1.41002-6.76659-1.1863-13.40969-3.05155-20.21988-4.00637 12.71188-1.11397 25.57604.42626 38.29519-.94811 3.37602-.0831 6.76934-.19947 10.15989-.21393zm21.34334.13128c.432-.00019.86743.0275 1.30623.09 7.02824.41954 14.12164.66553 20.98998 2.36542-11.13469 3.18272-22.07487 7.12489-33.28225 10.01106-8.22746-1.20799-16.30131-3.51653-24.57238-4.25433 0-.16636.00017-.50466-.007-.67827 9.0197-1.09226 17.84986-3.56597 26.70964-5.58413 2.9572-.56963 5.83212-1.94841 8.8561-1.94969zm-80.83807.66124c10.77131 2.3509 21.50532 5.23781 32.42198 6.87258.0364.15914.10257.4851.13891.64423-6.57035.79569-13.01073 2.40852-19.53019 3.50801-2.3912.31828-4.86855 1.52589-7.23794.54213-10.42227-3.22615-20.93876-6.18477-31.24491-9.74366 8.40918-1.35267 16.9484-1.52671 25.45215-1.82329zm107.74998 2.86621c.18724-.01.37596-.0112.56538 0 .25257.0146.50659.0472.76279.0997 10.33522 2.36536 20.62877 4.97786 30.84767 7.81339-9.76831 3.5589-19.58861 7.00824-29.4732 10.19097-8.40917-2.0977-16.8194-4.32644-25.3376-5.99739-3.34331-.78122-6.76502-1.22863-10.04292-2.22685 10.45877-2.73427 20.7073-6.25756 31.02071-9.50542.54374-.21972 1.09545-.34389 1.65717-.37438zm-138.590351.0705c.850706-.0166 1.687018.36008 2.510121.61505 10.08082 3.27678 20.23331 6.33654 30.36515 9.43249 1.80249.96205-1.635.15205-2.01298.60776-10.7566 2.11219-21.52036 4.29782-32.095418 7.21293-1.700733.56421-3.350504-.37097-4.934946-.84114-8.685359-2.95128-17.334605-6.00236-26.019961-8.96086 10.313412-3.09595 20.837536-5.49695 31.332643-7.89848.287088-.11215.571822-.16221.855391-.16775zm69.635131 5.66921c.64618-.0327 1.29549-.006 1.94961.11663 8.1257 1.53351 16.21545 3.28525 24.39204 4.57281-8.83072 2.71981-17.6772 5.44573-26.6024 7.82556-8.70716-2.32919-17.35611-4.95474-25.96879-7.63837 6.86108-1.06333 13.64377-2.57508 20.47577-3.82647 1.90786-.30382 3.81524-.95189 5.75377-1.05022zm105.73701 3.49585c8.74349 2.10495 17.25457 5.11485 26.00534 7.16918-9.55753 3.89885-19.36785 7.16051-29.0126 10.8279-1.1629.57146-2.34119-.13141-3.44594-.44245-7.87134-2.66917-15.88721-4.90303-23.78035-7.50709 7.95128-2.30749 15.68459-5.31689 23.51959-7.99329 2.2313-.66548 4.37363-1.95293 6.71396-2.05425zm-211.980912.0219c10.124437 2.94405 19.834675 7.43707 30.119012 9.85306-.566903.70166-1.722774.71521-2.514995 1.06965-8.111182 2.24962-16.054174 5.1065-24.158084 7.32719-7.05004-2.43769-14.027449-5.11393-21.041148-7.64566-2.84182-.97652-5.581261-2.30648-8.553907-2.8273.02907-.15191.07816-.45586.107232-.60777 8.750771-2.09771 17.298392-4.99911 26.04189-7.16917zm137.766642 2.3484c.30638-.009.61473.0226.92362.11662 11.59259 2.51004 23.40365 4.38372 34.71277 7.98601-10.34974 3.37082-20.70063 6.71365-31.12306 9.84576-10.53145-3.51549-21.14827-6.79949-31.85415-9.72907 8.06756-2.92957 16.48343-4.88897 24.64548-7.55814.87218-.2387 1.77615-.63615 2.69534-.66125zm-63.11614.16774c.5124-.0199 1.02647.0504 1.52069.27471 8.40192 2.71257 17.00594 4.81806 25.33517 7.73317-10.69135 3.00915-21.32295 6.26369-31.89803 9.66343-10.52431-2.8934-20.83955-6.44445-31.261973-9.65613 11.396343-3.36359 23.157083-5.34624 34.785883-7.74777.49423-.13731 1.00586-.24754 1.51826-.26741z" fill="#bca482" stroke="#041a25" stroke-opacity=".4" stroke-width="1.49546754"/><g fill="#bababa"><path d="m178.17266 251.67435c.30872.33126.30872.33126 0 0z"/><path d="m140.31629 267.37692c.29125.34288.29125.34288 0 0z"/><path d="m139.74545 270.88705c.34367.32544.34367.32544 0 0z"/><path d="m154.30783 270.8638c.33785.32544.33785.32544 0 0z"/><path d="m153.69621 280.80721c.36697.26152.36697.26152 0 0z"/><path d="m160.10366 294.16195c.32037.33706.32037.33706 0 0z"/><path d="m190.98173 302.83265c.3495.30219.3495.30219 0 0z"/></g><g transform="matrix(1.303418 0 0 1.28966 -7.5466241 -112.79136)"><path d="m108.18784 304.95457 19.3526-.17794c.81166-.007 4.90042-.20811 5.64058-.54103.74017-.33291 1.41531-.76713 2.02545-1.30265.62809-.54929 1.17203-1.16574 1.63186-1.84934.47776-.69737.85109-1.40736 1.11999-2.12998.27905-.74989.43961-1.49189.48169-2.22601.0549-.73424-.0236-1.38572-.23567-1.95445-.21205-.56874-.56133-1.02751-1.04782-1.37632-.48648-.3488-1.11622-.51965-1.88924-.51254l-6.5981.0606-3.50074 9.40768 2.78279-.0256c.51534-.005 4.31715-.14161 4.77976-.34968.47549-.20819.90294-.47707 1.28238-.80667.39231-.3297.73153-.70648 1.01764-1.13033.299-.42397.52967-.8541.69203-1.29041.15728-.42265.24761-.83791.27098-1.24576.0284-.42147-.0343-.78776-.18812-1.09887-.14097-.31121-.37564-.56043-.70399-.74764-.31039-.20096-.72971-.29901-1.25792-.29415l-4.93616.0454.52944-1.24813 4.85163-.0446c.68282-.006 1.24404.12444 1.68366.39214.44472.25408.76372.60443.95702 1.05104.21126.43286.30697.93472.28713 1.50559-.0147.55723-.13376 1.1358-.357 1.73571-.21309.57264-.52281 1.14617-.92914 1.72059-.38839.56067-.84412 1.06081-1.36721 1.50042-.52308.43961-1.10591.79826-1.74848 1.07591-.62969.27755-4.60525.44998-5.30095.45638l-3.96162.0364 4.414-11.86186 8.18275-.0752c.88896-.008 1.60518.18905 2.14867.59169.55637.40251.95515.93546 1.196 1.59913.25385.66347.34979 1.4235.28782 2.2801-.0569.84295-.25277 1.71436-.58762 2.61422-.33486.89987-.79737 1.78053-1.38756 2.64198-.5773.86132-1.23758 1.6351-1.98082 2.32132-.73817.67259-1.54409 1.2167-2.41776 1.63237-.8608.41554-5.04852.65786-5.93747.66604l-19.7391.1815z" fill="#bca482" stroke="#bca482" stroke-width=".29510838"/><path d="m143.89324 293.90279-2.86713 8.27719.87656-.008 2.08523-6.00926.48564 1.13415-2.02725 5.86022-2.6297.0241 3.99649-11.5714 3.70852 8.66226 3.66927-8.7301 4.06793 11.49725-2.62971.0241-2.06341-5.82261.47859-1.14302 2.12231 5.97058.87656-.008-2.91821-8.224-3.5969 8.51493-3.63479-8.44843z" fill="#bca482" stroke="#bca482" stroke-width=".17706503"/><g transform="matrix(1.0455982 0 0 1.027662 -5.2734761 74.177418)"><path d="m113.04922 220.84817-2.79096-8.00263.83834-.008 2.02976 5.80987.45771-1.11224-1.97342-5.66589-2.51503.0235 3.89053 11.18778 3.49528-8.49499 3.56076 8.42897 3.82222-11.25993-2.51502.0235-1.93884 5.70248.46446 1.10363 1.99428-5.84752.83835-.008-2.7421 8.05439-3.49026-8.22088-3.42606 8.28559z" fill="#bca482" stroke="#bca482" stroke-width=".17081469"/><path d="m119.90521 225.04862-11.65602.10905c-.32032.003-.60985-.14068-.81958-.37602-.20973-.23535-.33967-.56235-.34078-.92601l-.0193-6.33533-.0193-6.33533c-.001-.36366.12682-.69308.33512-.93233.20828-.23925.49693-.38834.81724-.39133l23.31204-.2181 23.31204-.21809c.32031-.003.60985.14068.81958.37602.20973.23535.33967.56235.34077.92601l.0193 6.33533.0193 6.33533c.001.36366-.12683.69308-.33512.93233-.20828.23926-.49693.38834-.81724.39134l-11.65603.10904-3.36797.0315-2.46004.023" fill="none" stroke="#bca482" stroke-linejoin="round" stroke-width="1.11428106"/></g></g></svg>