<?xml version="1.0" encoding="UTF-8" standalone="no"?>
<svg
   xmlns:dc="http://purl.org/dc/elements/1.1/"
   xmlns:cc="http://creativecommons.org/ns#"
   xmlns:rdf="http://www.w3.org/1999/02/22-rdf-syntax-ns#"
   xmlns:svg="http://www.w3.org/2000/svg"
   xmlns="http://www.w3.org/2000/svg"
   xmlns:sodipodi="http://sodipodi.sourceforge.net/DTD/sodipodi-0.dtd"
   xmlns:inkscape="http://www.inkscape.org/namespaces/inkscape"
   width="267.81009pt"
   height="300.59479pt"
   viewBox="0 0 267.81009 300.59479"
   version="1.1"
   id="svg2"
   inkscape:version="0.91 r13725"
   sodipodi:docname="Cpp.svg">
  <metadata
     id="metadata13">
    <rdf:RDF>
      <cc:Work
         rdf:about="">
        <dc:format>image/svg+xml</dc:format>
        <dc:type
           rdf:resource="http://purl.org/dc/dcmitype/StillImage" />
        <dc:title />
      </cc:Work>
    </rdf:RDF>
  </metadata>
  <defs
     id="defs11" />
  <sodipodi:namedview
     pagecolor="#ffffc8"
     bordercolor="#666666"
     borderopacity="1"
     objecttolerance="10"
     gridtolerance="10"
     guidetolerance="10"
     inkscape:pageopacity="0"
     inkscape:pageshadow="2"
     inkscape:window-width="640"
     inkscape:window-height="480"
     id="namedview9"
     showgrid="false"
     inkscape:zoom="1.4820958"
     inkscape:cx="218.38551"
     inkscape:cy="388.51483"
     inkscape:current-layer="g4414"
     fit-margin-top="0"
     fit-margin-left="0"
     fit-margin-right="0"
     fit-margin-bottom="0" />
  <g
     id="g4233"
     transform="translate(0.1320195,-0.08428525)">
    <g
       id="g4414">
      <rect
         style="opacity:0.97000002;fill:#041a25;fill-opacity:0.76862745;fill-rule:evenodd;stroke:none;stroke-width:2.50948715;stroke-linecap:round;stroke-linejoin:round;stroke-miterlimit:4;stroke-dasharray:none;stroke-dashoffset:0;stroke-opacity:1"
         id="rect12859"
         width="267.81009"
         height="300.59479"
         x="-0.1320195"
         y="0.084285252" />
      <g
         transform="matrix(0.61532009,0,0,0.44855009,-122.80367,153.95582)"
         id="g4319">
        <g
           id="#48277aff">
          <path
             style="opacity:1;fill:#48277a"
             inkscape:connector-curvature="0"
             id="path5"
             d="m 474.24,28.1 c 12.33,-2.21 25.08,-2.86 37.46,-0.7 -1.2,0.85 -2.37,1.72 -3.53,2.61 0.63,1.93 1.72,3.97 0.78,5.99 -2.25,6.29 0.75,12.93 -0.53,19.33 -0.68,2.85 0.75,5.62 0.84,8.47 -0.03,1.14 -0.09,2.29 -0.11,3.43 -0.8,3.12 -0.32,6.33 -0.53,9.49 0.33,0.46 0.98,1.37 1.3,1.82 -12.52,5.8 -24.44,12.84 -35.91,20.49 -0.19,-17.01 -0.04,-34.03 -0.07,-51.04 0.09,-6.58 -0.27,-13.17 0.3,-19.74 l 0,-0.15 z" />
        </g>
        <g
           id="#5a257fff">
          <path
             style="opacity:1;fill:#5a257f"
             inkscape:connector-curvature="0"
             id="path8"
             d="m 508.17,30.01 c 1.16,-0.89 2.33,-1.76 3.53,-2.61 22.15,3.21 43.72,14.66 56.85,33.08 -1.07,7.63 0.08,15.33 -0.87,22.97 -4.17,-3.74 -8.94,-6.88 -14.3,-8.61 -7.3,-2.21 -15.02,-3.36 -22.62,-2.24 -1.91,0.2 -3.81,0.51 -5.69,0.87 -4.74,0.99 -9.37,2.47 -13.78,4.45 -0.34,0.15 -1.03,0.47 -1.37,0.62 -0.32,-0.45 -0.97,-1.36 -1.3,-1.82 0.21,-3.16 -0.27,-6.37 0.53,-9.49 0.02,-1.14 0.08,-2.29 0.11,-3.43 -0.09,-2.85 -1.52,-5.62 -0.84,-8.47 1.28,-6.4 -1.72,-13.04 0.53,-19.33 0.94,-2.02 -0.15,-4.06 -0.78,-5.99 z" />
        </g>
        <g
           id="#352975ff">
          <path
             style="opacity:1;fill:#352975"
             inkscape:connector-curvature="0"
             id="path11"
             d="m 441.57,40.18 c 10.16,-5.67 21.22,-9.82 32.67,-11.93 -0.57,6.57 -0.21,13.16 -0.3,19.74 0.03,17.01 -0.12,34.03 0.07,51.04 -10.93,7.29 -21.47,15.14 -31.69,23.37 -0.88,-9.11 -0.21,-18.27 -0.44,-27.4 -0.2,-18.23 0.42,-36.48 -0.3,-54.69 l -0.01,-0.13 z" />
        </g>
        <g
           id="#3a3c80ff">
          <path
             style="opacity:1;fill:#3a3c80"
             inkscape:connector-curvature="0"
             id="path14"
             d="m 424.21,52.84 c 5.43,-4.64 11.08,-9.09 17.37,-12.53 0.72,18.21 0.1,36.46 0.3,54.69 0.23,9.13 -0.44,18.29 0.44,27.4 -5.74,4.61 -11.32,9.4 -16.86,14.25 -0.81,-21.54 -0.12,-43.12 -0.38,-64.68 -0.22,-6.34 0.77,-12.79 -0.85,-19.01 l -0.02,-0.12 z" />
        </g>
        <g
           id="#82c5e1ff">
          <path
             style="opacity:1;fill:#82c5e1"
             inkscape:connector-curvature="0"
             id="path17"
             d="m 287.79,56.64 c 14.01,-5.59 29.73,-5.68 44.26,-2.11 -0.19,11.28 0.06,22.56 -0.05,33.85 -16.07,-0.38 -33.07,5.42 -43.17,18.41 -1.7,-5.46 -0.88,-11.2 -0.97,-16.81 -0.03,-11.11 0.06,-22.23 -0.07,-33.34 z" />
        </g>
        <g
           id="#404d8cff">
          <path
             style="opacity:1;fill:#404d8c"
             inkscape:connector-curvature="0"
             id="path20"
             d="m 412.33,64.28 c 3.86,-3.88 7.69,-7.81 11.9,-11.32 1.62,6.22 0.63,12.67 0.85,19.01 0.26,21.56 -0.43,43.14 0.38,64.68 -1.21,1.06 -2.41,2.14 -3.61,3.21 -1.87,1.79 -4.08,3.43 -5.19,5.84 -0.34,3.26 -0.15,6.59 -1.22,9.74 -1.57,-2.07 -3.04,-4.23 -4.41,-6.44 2.53,-3.1 2,-7.25 1.98,-10.97 -0.24,-15.33 0.1,-30.67 -0.11,-46 -0.21,-9.19 0.6,-18.43 -0.54,-27.58 l -0.03,-0.17 z" />
        </g>
        <g
           id="#7abcdaff">
          <path
             style="opacity:1;fill:#7abcda"
             inkscape:connector-curvature="0"
             id="path23"
             d="m 332.05,54.53 c 2.48,0.68 4.95,1.44 7.42,2.19 1.62,9.98 0.42,20.15 0.75,30.21 -0.59,0.46 -1.77,1.37 -2.36,1.83 -1.95,-0.19 -3.91,-0.32 -5.86,-0.38 0.11,-11.29 -0.14,-22.57 0.05,-33.85 z" />
        </g>
        <g
           id="#72b0d3ff">
          <path
             style="opacity:1;fill:#72b0d3"
             inkscape:connector-curvature="0"
             id="path26"
             d="m 279.7,60.66 c 2.64,-1.45 5.32,-2.82 8.09,-4.02 0.13,11.11 0.04,22.23 0.07,33.34 0.09,5.61 -0.73,11.35 0.97,16.81 -3.98,5.19 -6.75,11.29 -7.6,17.8 -2.39,-4.14 -1.2,-9.05 -1.39,-13.58 C 279.73,94.23 280,77.44 279.7,60.66 Z" />
        </g>
        <g
           id="#6ea9ceff">
          <path
             style="opacity:1;fill:#6ea9ce"
             inkscape:connector-curvature="0"
             id="path29"
             d="m 339.47,56.72 c 6.93,2.52 13.58,5.79 19.84,9.69 l -0.01,0.09 c -1.5,9.01 0.15,18.16 -1.11,27.18 -6.52,-2.54 -13.37,-4.2 -20.33,-4.92 0.59,-0.46 1.77,-1.37 2.36,-1.83 -0.33,-10.06 0.87,-20.23 -0.75,-30.21 z" />
        </g>
        <g
           id="#649ac3ff">
          <path
             style="opacity:1;fill:#649ac3"
             inkscape:connector-curvature="0"
             id="path32"
             d="m 271.66,66.57 c 2.56,-2.12 5.23,-4.12 8.04,-5.91 0.3,16.78 0.03,33.57 0.14,50.35 0.19,4.53 -1,9.44 1.39,13.58 -0.87,7.12 -0.67,14.39 1,21.39 -3.6,-1.25 -7.25,-2.5 -10.52,-4.51 0.96,-8.44 0.35,-16.94 0.43,-25.41 0.14,-9.67 0.07,-19.33 0.08,-29 -0.09,-6.83 0.4,-13.69 -0.56,-20.49 z" />
        </g>
        <g
           id="#75297dff">
          <path
             style="opacity:1;fill:#75297d"
             inkscape:connector-curvature="0"
             id="path35"
             d="m 567.68,83.45 c 0.95,-7.64 -0.2,-15.34 0.87,-22.97 3.89,5.09 6.96,10.79 9.26,16.75 -1.8,6.89 -0.67,14.07 -0.9,21.09 -2.33,-5.37 -5.25,-10.54 -9.23,-14.87 z" />
          <path
             style="opacity:1;fill:#75297d"
             inkscape:connector-curvature="0"
             id="path37"
             d="m 568.75,148.06 c 2.76,-3.83 4.7,-8.15 6.86,-12.32 0.3,2.3 0.75,4.58 1.24,6.85 -1.92,4.37 -4.31,8.52 -7,12.47 -0.4,-2.33 -0.77,-4.67 -1.1,-7 z" />
        </g>
        <g
           id="#465c98ff">
          <path
             style="opacity:1;fill:#465c98"
             inkscape:connector-curvature="0"
             id="path40"
             d="m 396.43,82.3 c 4.96,-6.22 10.36,-12.15 15.93,-17.85 1.14,9.15 0.33,18.39 0.54,27.58 0.21,15.33 -0.13,30.67 0.11,46 0.02,3.72 0.55,7.87 -1.98,10.97 -4.41,3.65 -9.03,7.05 -13.67,10.4 -0.88,-17.8 -0.23,-35.62 -0.46,-53.42 -0.07,-7.9 0.85,-15.83 -0.47,-23.68 z" />
        </g>
        <g
           id="#5279acff">
          <path
             style="opacity:1;fill:#5279ac"
             inkscape:connector-curvature="0"
             id="path43"
             d="m 262.21,77.51 c 2.23,-4.31 5.88,-7.72 9.45,-10.94 0.96,6.8 0.47,13.66 0.56,20.49 -0.01,9.67 0.06,19.33 -0.08,29 -0.08,8.47 0.53,16.97 -0.43,25.41 -3.01,-1.98 -5.89,-4.19 -8.3,-6.87 1.63,-6.08 0.73,-12.41 0.94,-18.61 -0.11,-12.52 0.24,-25.05 -0.14,-37.56 -0.61,0.1 -1.84,0.3 -2.45,0.4 l 0.45,-1.32 z" />
        </g>
        <g
           id="#6194bfff">
          <path
             style="opacity:1;fill:#6194bf"
             inkscape:connector-curvature="0"
             id="path46"
             d="m 359.3,66.5 c 1.65,1.03 3.29,2.09 4.89,3.2 -0.69,8.71 0.67,17.53 -0.93,26.16 -1.68,-0.76 -3.36,-1.5 -5.07,-2.18 1.26,-9.02 -0.39,-18.17 1.11,-27.18 z" />
        </g>
        <g
           id="#5c87b6ff">
          <path
             style="opacity:1;fill:#5c87b6"
             inkscape:connector-curvature="0"
             id="path49"
             d="m 364.19,69.7 c 1.78,1.36 3.54,2.73 5.31,4.11 -0.41,8.3 0.46,16.64 -0.61,24.91 -1.85,-1.01 -3.73,-1.97 -5.63,-2.86 1.6,-8.63 0.24,-17.45 0.93,-26.16 z" />
        </g>
        <g
           id="#6c4e9aff">
          <path
             style="opacity:1;fill:#6c4e9a"
             inkscape:connector-curvature="0"
             id="path52"
             d="m 530.76,72.6 c 7.6,-1.12 15.32,0.03 22.62,2.24 1.37,6.28 0.57,12.72 0.69,19.09 0.1,22.4 -0.09,44.8 0.12,67.2 -5.33,3.09 -11.02,5.59 -17.01,7.07 -0.27,-31.6 0.15,-63.21 -0.22,-94.81 -2.07,-0.28 -4.13,-0.58 -6.2,-0.79 z" />
        </g>
        <g
           id="#6e5da3ff">
          <path
             style="opacity:1;fill:#6e5da3"
             inkscape:connector-curvature="0"
             id="path55"
             d="m 525.07,73.47 c 1.88,-0.36 3.78,-0.67 5.69,-0.87 2.07,0.21 4.13,0.51 6.2,0.79 0.37,31.6 -0.05,63.21 0.22,94.81 -0.35,0.09 -1.03,0.26 -1.38,0.35 -3.12,0.66 -6.25,1.32 -9.42,1.69 0.32,-2.4 0.6,-4.8 0.64,-7.22 0,-28.67 -0.11,-57.34 0.01,-86.01 0.24,-1.58 -0.8,-2.68 -1.96,-3.54 z" />
        </g>
        <g
           id="#4e70a6ff">
          <path
             style="opacity:1;fill:#4e70a6"
             inkscape:connector-curvature="0"
             id="path58"
             d="m 369.5,73.81 c 6.62,5.61 12.72,11.89 17.75,18.98 3.14,-3.43 5.98,-7.12 9.18,-10.49 1.32,7.85 0.4,15.78 0.47,23.68 0.23,17.8 -0.42,35.62 0.46,53.42 -5.57,3.91 -11.26,7.65 -17.18,11.01 -0.37,-22.48 0.31,-44.98 -0.33,-67.45 -0.85,0.43 -1.69,0.85 -2.52,1.31 -2.64,-2.1 -5.49,-3.93 -8.44,-5.55 1.07,-8.27 0.2,-16.61 0.61,-24.91 z" />
        </g>
        <g
           id="#7068aaff">
          <path
             style="opacity:1;fill:#7068aa"
             inkscape:connector-curvature="0"
             id="path61"
             d="m 511.29,77.92 c 4.41,-1.98 9.04,-3.46 13.78,-4.45 1.16,0.86 2.2,1.96 1.96,3.54 -0.12,28.67 -0.01,57.34 -0.01,86.01 -0.04,2.42 -0.32,4.82 -0.64,7.22 -10.36,1.01 -20.9,0.97 -31.13,-1.08 11.39,-7.54 19.4,-19.51 23.13,-32.56 5.73,-19.47 2.76,-41.04 -7.09,-58.68 z" />
        </g>
        <g
           id="#69398dff">
          <path
             style="opacity:1;fill:#69398d"
             inkscape:connector-curvature="0"
             id="path64"
             d="m 553.38,74.84 c 5.36,1.73 10.13,4.87 14.3,8.61 3.98,4.33 6.9,9.5 9.23,14.87 3.92,12.12 3.93,25.69 -1.3,37.42 -2.16,4.17 -4.1,8.49 -6.86,12.32 -3.94,5.25 -8.89,9.75 -14.56,13.07 -0.21,-22.4 -0.02,-44.8 -0.12,-67.2 -0.12,-6.37 0.68,-12.81 -0.69,-19.09 z" />
        </g>
        <g
           id="#81c4e0ff">
          <path
             style="opacity:1;fill:#81c4e0"
             inkscape:connector-curvature="0"
             id="path67"
             d="m 253.16,96.94 c 2.03,-6.86 4.78,-13.64 9.05,-19.43 l -0.45,1.32 c -0.99,2.9 -2.65,5.51 -3.81,8.34 -5.37,12.46 -6.2,27.37 0.13,39.65 1.43,2.81 3.29,5.38 5.33,7.78 2.41,2.68 5.29,4.89 8.3,6.87 3.27,2.01 6.92,3.26 10.52,4.51 1.89,0.63 3.8,1.21 5.73,1.7 -0.45,3.09 -1.23,6.27 -0.29,9.35 1.2,3.46 -0.17,6.93 -0.55,10.39 0.17,2.14 0.49,4.28 0.35,6.44 -16.44,-9.88 -29.23,-26.03 -34.07,-44.69 -2.61,-10.48 -3.54,-21.79 -0.24,-32.23 z" />
        </g>
        <g
           id="#455995ff">
          <path
             style="opacity:1;fill:#455995"
             inkscape:connector-curvature="0"
             id="path70"
             d="m 261.76,78.83 c 0.61,-0.1 1.84,-0.3 2.45,-0.4 0.38,12.51 0.03,25.04 0.14,37.56 -0.21,6.2 0.69,12.53 -0.94,18.61 -2.04,-2.4 -3.9,-4.97 -5.33,-7.78 1.83,-6.82 0.8,-13.92 1.05,-20.87 -0.28,-6.26 0.9,-12.72 -1.18,-18.78 1.16,-2.83 2.82,-5.44 3.81,-8.34 z" />
        </g>
        <g
           id="#8d3073ff">
          <path
             style="opacity:1;fill:#8d3073"
             inkscape:connector-curvature="0"
             id="path73"
             d="m 576.91,98.32 c 0.23,-7.02 -0.9,-14.2 0.9,-21.09 5.72,14.15 6.81,29.83 4.85,44.86 -0.96,7.06 -2.93,13.98 -5.81,20.5 -0.49,-2.27 -0.94,-4.55 -1.24,-6.85 5.23,-11.73 5.22,-25.3 1.3,-37.42 z" />
        </g>
        <g
           id="#3b4284ff">
          <path
             style="opacity:1;fill:#3b4284"
             inkscape:connector-curvature="0"
             id="path76"
             d="m 257.95,87.17 c 2.08,6.06 0.9,12.52 1.18,18.78 -0.25,6.95 0.78,14.05 -1.05,20.87 -6.33,-12.28 -5.5,-27.19 -0.13,-39.65 z" />
        </g>
        <g
           id="#5681b2ff">
          <path
             style="opacity:1;fill:#5681b2"
             inkscape:connector-curvature="0"
             id="path79"
             d="m 377.33,104.27 c 0.83,-0.46 1.67,-0.88 2.52,-1.31 0.64,22.47 -0.04,44.97 0.33,67.45 -4.71,2.38 -9.2,5.39 -14.29,6.88 l -0.58,-0.24 c -0.73,-11.66 0.03,-23.36 -0.4,-35.04 -0.4,-8.28 1.22,-16.69 -0.73,-24.84 4.54,-4.14 8.65,-8.73 13.15,-12.9 z" />
        </g>
        <g
           id="#5e90bdff">
          <path
             style="opacity:1;fill:#5e90bd"
             inkscape:connector-curvature="0"
             id="path82"
             d="m 348.96,129.93 c 5.28,-4 10.38,-8.23 15.22,-12.76 1.95,8.15 0.33,16.56 0.73,24.84 0.43,11.68 -0.33,23.38 0.4,35.04 l -0.13,0.68 c -5.13,2.6 -10.7,4.33 -16.21,5.97 0,-17.93 -0.06,-35.85 -0.01,-53.77 z" />
        </g>
        <g
           id="#67a0c8ff">
          <path
             style="opacity:1;fill:#67a0c8"
             inkscape:connector-curvature="0"
             id="path85"
             d="m 329.2,142.02 c 6.97,-3.36 13.57,-7.46 19.76,-12.09 -0.05,17.92 0.01,35.84 0.01,53.77 -6.27,1.19 -12.63,1.94 -19.01,1.93 0.3,-10.87 -0.13,-21.76 0.18,-32.63 0.16,-3.69 -0.12,-7.38 -0.94,-10.98 z" />
        </g>
        <g
           id="#4b5a96ff">
          <path
             style="opacity:1;fill:#4b5a96"
             inkscape:connector-curvature="0"
             id="path88"
             d="m 416.66,145.7 c 1.11,-2.41 3.32,-4.05 5.19,-5.84 2.28,1.4 4.56,2.82 6.86,4.19 -2.68,3.06 -1.16,7.29 -1.98,10.92 -0.86,3.8 -1.86,7.58 -2.28,11.47 -3.27,-3.44 -6.25,-7.14 -9.01,-11 1.07,-3.15 0.88,-6.48 1.22,-9.74 z" />
        </g>
        <g
           id="#71aed2ff">
          <path
             style="opacity:1;fill:#71aed2"
             inkscape:connector-curvature="0"
             id="path91"
             d="m 310.19,148.22 c 6.6,-1.15 12.96,-3.36 19.01,-6.2 0.82,3.6 1.1,7.29 0.94,10.98 -0.31,10.87 0.12,21.76 -0.18,32.63 -6.12,-0.05 -12.22,-0.76 -18.21,-2.02 -0.47,-8.63 0.38,-17.26 -0.27,-25.88 -0.33,-3.2 1.55,-7.06 -1.29,-9.51 z" />
        </g>
        <g
           id="#5369a0ff">
          <path
             style="opacity:1;fill:#5369a0"
             inkscape:connector-curvature="0"
             id="path94"
             d="m 426.73,154.97 c 0.82,-3.63 -0.7,-7.86 1.98,-10.92 3.7,2.2 7.48,4.26 11.28,6.28 -2.3,7.49 -0.56,15.4 -1.31,23.08 -2.95,-1 -5.97,-1.86 -9.09,-2.07 l -0.19,-0.02 c -1.7,-1.53 -3.34,-3.13 -4.97,-4.72 l 0.02,-0.16 c 0.42,-3.89 1.42,-7.67 2.28,-11.47 z" />
        </g>
        <g
           id="#79badaff">
          <path
             style="opacity:1;fill:#79bada"
             inkscape:connector-curvature="0"
             id="path97"
             d="m 287.96,147.68 c 7.27,1.71 14.88,1.82 22.23,0.54 2.84,2.45 0.96,6.31 1.29,9.51 0.65,8.62 -0.2,17.25 0.27,25.88 -8.52,-2.01 -16.79,-5.18 -24.28,-9.75 0.14,-2.16 -0.18,-4.3 -0.35,-6.44 0.38,-3.46 1.75,-6.93 0.55,-10.39 -0.94,-3.08 -0.16,-6.26 0.29,-9.35 z" />
        </g>
        <g
           id="#602481ff">
          <path
             style="opacity:1;fill:#602481"
             inkscape:connector-curvature="0"
             id="path100"
             d="m 554.19,161.13 c 5.67,-3.32 10.62,-7.82 14.56,-13.07 0.33,2.33 0.7,4.67 1.1,7 -7.86,11.26 -18.73,20.21 -30.88,26.5 -0.81,-3.84 -2.36,-7.87 -0.55,-11.67 -0.88,-0.46 -1.75,-0.91 -2.62,-1.34 0.35,-0.09 1.03,-0.26 1.38,-0.35 5.99,-1.48 11.68,-3.98 17.01,-7.07 z" />
        </g>
        <g
           id="#5b78abff">
          <path
             style="opacity:1;fill:#5b78ab"
             inkscape:connector-curvature="0"
             id="path103"
             d="m 439.99,150.33 c 2.57,1.33 5.16,2.61 7.78,3.84 -1.3,5.51 -0.8,11.21 -0.84,16.81 -0.18,1.93 0.84,3.59 1.8,5.16 -3.39,-0.75 -6.74,-1.68 -10.05,-2.73 0.75,-7.68 -0.99,-15.59 1.31,-23.08 z" />
        </g>
        <g
           id="#6184b3ff">
          <path
             style="opacity:1;fill:#6184b3"
             inkscape:connector-curvature="0"
             id="path106"
             d="m 446.93,170.98 c 0.04,-5.6 -0.46,-11.3 0.84,-16.81 2.5,1.14 5.02,2.27 7.57,3.33 -0.34,6.58 -1,13.25 0.38,19.76 -2.34,-0.32 -4.67,-0.68 -6.99,-1.12 -0.96,-1.57 -1.98,-3.23 -1.8,-5.16 z" />
        </g>
        <g
           id="#6892bdff">
          <path
             style="opacity:1;fill:#6892bd"
             inkscape:connector-curvature="0"
             id="path109"
             d="m 455.34,157.5 c 3.11,1.28 6.25,2.51 9.41,3.67 -1.24,5.49 -0.77,11.13 -0.77,16.71 -2.76,-0.04 -5.52,-0.29 -8.26,-0.62 -1.38,-6.51 -0.72,-13.18 -0.38,-19.76 z" />
        </g>
        <g
           id="#6f9fc6ff">
          <path
             style="opacity:1;fill:#6f9fc6"
             inkscape:connector-curvature="0"
             id="path112"
             d="m 463.98,177.88 c 0,-5.58 -0.47,-11.22 0.77,-16.71 3.17,1.14 6.36,2.19 9.58,3.16 0.02,4.12 -1.84,9.13 1.39,12.5 -0.94,0.14 -1.87,0.28 -2.8,0.42 -2.97,0.36 -5.95,0.6 -8.94,0.63 z" />
        </g>
        <g
           id="#78b1d3ff">
          <path
             style="opacity:1;fill:#78b1d3"
             inkscape:connector-curvature="0"
             id="path115"
             d="m 474.33,164.33 c 6.81,2.13 13.8,3.56 20.8,4.91 -1.29,0.8 -2.59,1.55 -3.92,2.26 -4.85,2.58 -10.11,4.29 -15.49,5.33 -3.23,-3.37 -1.37,-8.38 -1.39,-12.5 z" />
        </g>
        <g
           id="#53267dff">
          <path
             style="opacity:1;fill:#53267d"
             inkscape:connector-curvature="0"
             id="path118"
             d="m 495.13,169.24 0.12,-0.08 c 10.23,2.05 20.77,2.09 31.13,1.08 3.17,-0.37 6.3,-1.03 9.42,-1.69 0.87,0.43 1.74,0.88 2.62,1.34 -1.81,3.8 -0.26,7.83 0.55,11.67 -12.02,6.05 -25.23,9.92 -38.67,10.83 -2.73,-0.25 -5.44,-0.6 -8.16,-0.89 -0.17,-6.27 0.43,-12.54 0.41,-18.8 -0.34,-0.3 -1.01,-0.9 -1.34,-1.2 1.33,-0.71 2.63,-1.46 3.92,-2.26 z" />
        </g>
        <g
           id="#372975ff">
          <path
             style="opacity:1;fill:#372975"
             inkscape:connector-curvature="0"
             id="path121"
             d="m 429.59,171.34 c 3.12,0.21 6.14,1.07 9.09,2.07 3.31,1.05 6.66,1.98 10.05,2.73 2.32,0.44 4.65,0.8 6.99,1.12 2.74,0.33 5.5,0.58 8.26,0.62 2.99,-0.03 5.97,-0.27 8.94,-0.63 -3.41,3.66 -1.48,9.38 -1.09,13.84 -15.35,-3.08 -30.36,-9.4 -42.24,-19.75 z" />
        </g>
        <g
           id="#442878ff">
          <path
             style="opacity:1;fill:#442878"
             inkscape:connector-curvature="0"
             id="path124"
             d="m 475.72,176.83 c 5.38,-1.04 10.64,-2.75 15.49,-5.33 0.33,0.3 1,0.9 1.34,1.2 0.02,6.26 -0.58,12.53 -0.41,18.8 2.72,0.29 5.43,0.64 8.16,0.89 -9.49,0.94 -19.09,0.38 -28.47,-1.3 -0.39,-4.46 -2.32,-10.18 1.09,-13.84 0.93,-0.14 1.86,-0.28 2.8,-0.42 z" />
        </g>
      </g>
      <path
         style="fill:#000000;stroke:none"
         id="path26-0"
         d="m 179.56271,71.652844 c 2.51941,2.183059 5.20679,3.492893 5.71067,2.910747 1.67961,-1.455369 -4.36699,-6.840248 -7.55825,-6.840248 -1.84757,0 -1.34369,1.018761 1.84758,3.929501 z"
         inkscape:connector-curvature="0" />
      <path
         inkscape:connector-curvature="0"
         style="display:inline;fill:#ffffff;fill-opacity:1;fill-rule:evenodd;stroke:#9e0000;stroke-width:0.40549985px;stroke-linecap:butt;stroke-linejoin:miter;stroke-opacity:1"
         d="m 183.3283,105.02263 c -0.10293,-0.77155 -5.23594,0 -5.23594,0 0,0 -0.89716,3.08624 0.41182,3.08624 1.30898,0 4.92707,-2.31468 4.82412,-3.08624 z"
         id="path5093-5"
         sodipodi:nodetypes="cczz" />
      <path
         inkscape:connector-curvature="0"
         style="display:inline;fill:#ffffff;fill-opacity:0.31362472;fill-rule:evenodd;stroke:#000000;stroke-width:0.5712707px;stroke-linecap:butt;stroke-linejoin:miter;stroke-opacity:1"
         d="m 189.83396,53.363155 5.79606,6.428541 3.65732,0.08926 13.51852,13.029299 3.36222,3.533256 6.0431,-3.354324 7.08216,-13.588868 3.92969,-10.80375 0.53658,-9.050504 -3.24452,-3.378277 -11.33928,0 -8.60046,1.753256 c 0,0 -7.08216,3.068312 -5.05878,3.068312 2.02339,0 11.63523,2.630138 11.63523,2.630138 l 4.0474,2.630137 1.01198,3.945212 -5.56508,9.643661 -2.52907,2.191954 -11.63584,-6.57534 -3.54108,-2.191962 -3.54169,-0.43818 -5.56446,0.43818 z"
         id="path8354-6"
         sodipodi:nodetypes="ccccccccccccsccccccccc" />
      <path
         inkscape:connector-curvature="0"
         style="display:inline;fill:#ffcfab;fill-opacity:1;fill-rule:evenodd;stroke:#000000;stroke-width:0.5712707px;stroke-linecap:butt;stroke-linejoin:miter;stroke-opacity:1"
         d="m 153.40934,23.117046 11.63585,12.712031 3.03538,4.383919 -22.25969,-6.575505 2.52969,-6.136898 5.05877,-4.383547 z"
         id="path3100-5" />
      <path
         inkscape:connector-curvature="0"
         style="display:inline;fill:#f39a05;fill-opacity:1;fill-rule:evenodd;stroke:#000000;stroke-width:0.5712707px;stroke-linecap:butt;stroke-linejoin:miter;stroke-opacity:1"
         d="m 144.80948,32.760815 11.12955,5.260228 11.63523,3.068313 -15.68261,7.452238 -11.63522,-0.876889 -1.012,-7.013529 5.56505,-7.890361 z"
         id="path3976-3" />
      <path
         inkscape:connector-curvature="0"
         style="display:inline;fill:#f39105;fill-opacity:1;fill-rule:evenodd;stroke:#000000;stroke-width:0.5712707px;stroke-linecap:butt;stroke-linejoin:miter;stroke-opacity:1"
         d="m 58.807347,81.856498 -6.576454,-14.46576 7.082147,-3.068316 14.165545,-1.753786 26.306452,-28.054416 14.670613,1.753568 9.61184,-4.383704 7.08278,-1.315015 -11.12955,21.040837 -21.753375,2.191959 -39.459998,28.054633 z"
         id="path2211-6" />
      <path
         inkscape:connector-curvature="0"
         style="display:inline;fill:#ffffff;fill-opacity:0.31372549;fill-rule:evenodd;stroke:#000000;stroke-width:0.5712707px;stroke-linecap:butt;stroke-linejoin:miter;stroke-opacity:1"
         d="m 180.19123,50.139864 -24.75788,5.415254 -16.18892,5.69845 -14.16493,-3.506491 -5.05878,-5.260282 13.15293,-25.862934 12.324,-13.225119 8.07391,-2.770332 8.94394,1.5298 9.26639,11.784142 9.71059,5.63529 -1.11844,1.704543 -14.31746,-4.219985 -12.64724,-4.821884 -12.14154,16.218907 -2.52906,5.698981 2.02337,5.260275 32.88292,-4.822101 3.51082,2.528161 3.03538,3.015325 z"
         id="path7479-7"
         sodipodi:nodetypes="cccccccccccccccccccc" />
      <path
         inkscape:connector-curvature="0"
         style="display:inline;fill:#ab9a7e;fill-opacity:0.75443037;fill-rule:evenodd;stroke:none;stroke-width:1.44;stroke-linecap:butt;stroke-linejoin:miter;stroke-miterlimit:4;stroke-dasharray:none;stroke-opacity:0.59640104"
         d="m 59.31304,82.732843 8.094765,11.397459 -8.094765,17.972238 19.224306,3.06885 4.046773,3.50649 12.141538,16.21902 38.447993,-17.53408 11.44572,2.73993 12.33167,-3.1781 -8.60047,-7.89043 1.51771,-2.19195 4.04737,-2.19143 2.02338,5.69846 3.54109,7.01352 9.61184,10.08238 2.52969,-1.31507 0.5057,-6.57534 8.93381,-1.36289 3.15295,-2.12289 7.8923,-0.82883 2.02726,-8.61674 -5.81739,-20.821734 0,-8.767312 9.10614,-1.31506 8.09415,5.260267 11.63523,2.630147 4.55309,-0.876905 -13.65862,-14.90393 -8.39593,-7.448564 -4.75761,-2.633272 -9.10616,-5.260282 -18.71801,0.87636 -14.6706,3.068853 -12.64785,5.26027 -7.58785,-0.87689 -9.61244,-3.945202 -3.0354,-3.945211 -19.729383,-0.43818 -40.471997,30.246048 z"
         id="path4852-8"
         sodipodi:nodetypes="ccccccccccccccccccccccccccccccccccccccc" />
      <path
         inkscape:connector-curvature="0"
         style="fill:#000000;fill-opacity:1;stroke:none"
         d="m 195.41115,80.402458 c 1.13414,-1.574606 3.91253,-1.376558 8.45065,1.057682 3.69515,1.891979 8.56603,2.281363 13.78372,2.591335 8.54597,0.507676 7.86371,-0.593537 3.85221,-4.095868 l -4.8334,-3.757145 c 0,0 1.77834,0.89213 4.72869,-1.470725 3.94949,-3.163055 11.52607,-17.717833 12.86976,-28.196506 1.51165,-10.624209 -0.50388,-12.225117 -13.60486,-10.915283 -5.37475,0.582148 -11.8467,1.950589 -14.53407,3.405961 0,0 -3.83811,1.664232 -3.25024,2.610223 0.58786,0.945991 5.69112,1.406208 5.69112,1.406208 9.57378,1.309835 12.19577,4.054214 12.19577,7.110494 0,3.201815 -4.97344,11.081646 -7.32491,11.081646 -0.83981,0 -3.8631,-2.03752 -6.71844,-4.366114 -5.71068,-4.802724 -8.78398,-5.432099 -14.30939,-4.008921 -3.10278,-0.736825 -7.60692,-1.124026 -11.2447,-2.935979 -0.89143,-0.444019 -0.32504,-1.06817 -2.08965,-2.989404 -3.18873,-3.471745 -5.61258,-3.164035 -8.9718,-2.436351 -4.19903,0.873223 -4.367,0.873223 -1.17573,-1.164297 3.19125,-2.037518 3.0233,-2.328593 -4.03107,-10.333134 l -7.05436,-8.295616 8.39805,3.638428 c 8.56602,3.783965 15.95631,4.802724 17.63592,2.474131 0.67185,-0.727686 -1.67961,-2.619668 -5.2068,-4.075039 -3.35921,-1.455372 -7.39029,-4.802725 -8.90194,-7.276856 -1.6796,-2.619668 -3.8631,-5.675947 -4.87087,-6.840244 -2.51942,-2.474131 -11.30846,-3.8062764 -16.03418,-2.257601 -4.81843,1.579063 -7.80578,5.8231 -11.67058,10.210418 -3.26295,3.704065 -5.08068,6.499586 -6.60655,8.749881 -3.14039,-0.64294 -8.5188,1.343903 -10.70229,3.090349 -3.69514,2.910743 -4.53495,3.056279 -11.75728,1.455371 -7.22233,-1.746445 -8.06214,-1.600908 -11.925247,1.455372 -2.183495,1.891982 -8.230099,8.441153 -13.436894,14.553711 -5.038836,6.258096 -9.741749,11.351895 -10.245633,11.497432 -0.503884,0 -4.03107,0.291074 -7.726215,0.582148 -3.695147,0.291075 -8.733982,1.164297 -11.2534,2.03752 -4.031069,1.309834 -4.366991,1.891986 -3.191263,5.675944 0.839806,2.183058 4.534952,8.877763 8.398059,14.69925 l 6.886409,10.478671 -4.199029,8.73223 c -2.351457,4.80273 -3.863108,9.31437 -3.359225,9.89652 0.503885,0.72769 5.374759,1.74645 10.917479,2.3286 l 10.07767,1.01875 7.726216,10.04207 c 7.222331,9.45992 8.51189,9.98968 11.085438,8.87776 0.865841,-0.37409 5.038835,-2.91073 10.581555,-5.23933 5.54271,-2.47414 13.10097,-6.11256 16.79613,-8.29562 5.22858,-2.99016 10.52228,-4.00583 13.32741,-3.08212 1.7004,0.55991 2.48636,1.83246 1.78909,3.8098 -1.4662,4.0836 -1.39925,6.6247 -0.74143,9.27391 1.1453,1.06086 2.62258,1.5455 4.77249,2.80568 7.41204,3.94661 10.24563,4.22057 10.4136,0 l 0,-3.20182 1.84757,3.34736 c 2.68739,4.80272 7.05437,3.49289 7.72622,-2.47414 0.50388,-3.49289 -0.50389,-5.82148 -3.19127,-8.29561 -2.01552,-1.89199 -3.06478,-4.3696 -2.22498,-4.3696 1.67962,0 7.43178,6.69819 7.43178,8.44463 0,0.58215 1.00777,1.1643 2.35146,1.1643 2.51941,0 4.36699,-3.05627 4.36699,-7.27684 0,-1.60831 5.01171,-2.51495 9.6882,-3.95097 1.24806,-0.38324 1.23905,-0.92605 2.43323,-1.63417 2.25693,0.40981 1.51448,0.43663 3.19804,0.33294 2.50437,-0.15422 3.62092,-0.76539 4.33199,-1.73359 3.52717,-4.94826 4.03107,-11.20636 1.34368,-16.736769 -1.34368,-2.910747 -2.5194,-8.950842 -2.35145,-11.570509 0,0 0.16036,-1.730596 0.89914,-3.441981 M 173.12491,102.8541 c 0,-2.910745 -0.67185,-2.910745 -6.71845,-0.14555 -2.85534,1.30984 -5.03883,3.34737 -5.03883,4.6572 0,3.34735 4.87087,7.71346 8.56601,7.71346 1.67962,0 9.76189,1.31001 11.96496,1.33084 -0.0475,0.557 -0.97663,1.04193 -1.58978,1.21167 -2.54454,0.70446 -6.70286,0.31172 -8.19169,0.0772 -2.68736,-0.29107 -3.02329,0.43661 -2.85533,4.6572 0.33592,2.76519 0,4.07502 -0.67185,2.91073 -0.50387,-1.1643 -2.85534,-3.78397 -5.37476,-5.82149 -2.68737,-2.18305 -4.53494,-5.67594 -4.87087,-8.73222 -0.8398,-6.84024 -4.19902,-12.079579 -10.91748,-17.027841 -7.05436,-5.093806 -9.74174,-9.168836 -8.39806,-13.24388 0.67184,-2.328595 2.1835,-3.20182 5.37476,-3.20182 5.71069,-0.145537 16.4602,-4.366111 23.34661,-9.314373 9.06991,-6.840244 6.0466,-7.131318 -4.70291,-0.582146 -8.90194,5.384872 -11.42136,6.25809 -21.49903,6.694706 l -11.2534,0.727688 5.54272,-4.948262 c 2.85533,-2.619668 5.37475,-5.239335 5.37475,-5.821487 0,-3.056279 15.45243,-8.732227 27.04176,-9.896524 16.46019,-1.600909 17.3,-1.455371 18.30777,3.347354 1.17572,5.53041 4.87087,6.840243 3.8631,1.309834 -0.67185,-3.929502 -0.67185,-3.929502 1.84757,-1.309834 1.51166,1.600908 2.68738,4.51165 2.68738,6.54917 0,2.037521 0.50388,5.239334 1.00778,6.985778 0.8398,2.474137 0,3.201819 -4.36699,4.075044 l -5.54274,1.018761 1.17574,8.586685 c 0.50388,4.657189 2.1835,10.915286 3.52719,13.971568 2.51941,5.093799 2.01553,14.117089 -0.83982,15.718009 -0.67184,0.43661 -4.87086,0.29107 -9.0699,-0.14554 -6.8864,-0.87323 -7.72621,-1.30984 -7.72621,-4.80273 M 160.52782,12.621084 c 1.51165,0.582148 4.19902,3.49289 5.87864,6.54917 1.84758,3.056279 5.03883,6.549171 7.05437,7.713467 2.05933,1.267861 7.40517,3.07514 7.09786,3.325464 -0.64518,0.525491 -10.36019,-2.114523 -16.50369,-5.071909 -4.7029,-2.328595 -9.57379,-3.929503 -10.74951,-3.492892 -1.34369,0.291075 -5.20681,4.511651 -8.90195,9.459913 -7.39029,9.896524 -8.73398,17.60999 -3.35922,19.210899 3.19126,0.873223 26.87127,-3.982317 30.7369,-4.51165 2.79679,-0.382967 6.38253,2.037519 6.38253,3.783965 0,0.582148 -5.03884,1.455371 -11.08545,1.891983 -7.22232,0.582148 -13.77281,2.183056 -18.64369,4.657187 -8.73399,4.220576 -13.77282,4.511651 -20.65921,1.455371 -6.88642,-3.056279 -6.55049,-6.258096 3.35921,-23.431475 10.91748,-19.356437 18.6437,-25.0323842 29.39321,-21.539493 z m -0.83981,17.60999 c 7.22234,9.459912 7.22234,9.023301 2.1835,7.859005 -7.3903,-1.891983 -13.18194,-4.857519 -14.57315,-5.655354 1.20151,-2.2909 4.15956,-7.588524 6.17509,-7.588524 1.17572,0 3.86311,2.474131 6.21456,5.384873 z m -31.91261,2.474132 c 0,0.291074 -1.84758,4.075039 -4.19905,8.58669 -3.8631,7.131318 -4.87086,8.00454 -10.58155,8.877763 -3.35922,0.436611 -8.39806,0.873223 -11.2534,0.873223 -4.031066,0 -7.894173,2.328594 -18.475728,11.351895 -7.390293,6.258097 -15.788352,12.807266 -18.643693,14.553716 l -5.206797,3.056276 -3.023302,-5.821487 c -3.695145,-7.131321 -2.687378,-8.295611 8.901944,-9.168837 9.573787,-0.727687 10.581555,-1.309834 18.30777,-11.060821 2.855339,-3.638428 8.062137,-9.459913 11.757283,-12.952803 5.710683,-5.675947 6.886413,-6.258096 10.077673,-4.657188 5.37476,2.474131 11.42136,1.891983 15.78836,-1.309834 3.69514,-2.619668 6.55049,-3.638428 6.55049,-2.328593 z m 30.06505,7.131318 7.39028,2.03752 -5.71068,2.474131 c -3.0233,1.309834 -8.23009,2.765205 -11.58932,3.201816 -7.55825,1.018761 -9.0699,-1.01876 -5.71068,-7.859005 1.38644,-3.04954 2.31677,-3.747682 3.0945,-4.856049 0.87391,0.290085 8.49482,3.83729 12.5259,5.001587 z m 74.81901,3.107377 c 0.33592,5.093799 -2.09183,11.737408 -5.45105,18.868728 -5.2068,11.351892 -10.38956,15.765234 -13.41286,11.108044 -1.74673,-2.648675 -5.80242,-7.948536 -12.57358,-12.764708 -0.50883,-0.361922 -1.16659,-0.947039 -2.61564,-1.236061 -2.11523,-0.421883 -2.70142,0.298351 -3.25157,-0.06911 -2.83578,-3.288759 -2.74636,-4.751626 0.94878,-4.897164 2.01555,0 5.03884,1.309835 6.71846,3.05628 1.51165,1.60091 4.87087,3.929503 7.22233,4.948262 4.03107,1.891983 4.70292,1.746446 8.2301,-1.455371 2.68738,-2.47413 4.21104,-5.998661 4.47821,-10.457846 0.26285,-4.386939 -1.62288,-6.861071 -10.18889,-8.461979 -2.51942,-0.436611 -7.49703,-0.379939 -6.8252,-0.81655 1.51166,-1.309834 16.06306,-3.986174 20.93394,-3.840637 3.86311,0.291074 5.62991,-0.05666 5.78697,6.018119 z M 127.10355,60.357257 c 3.19126,1.309834 6.88641,2.328594 8.23009,2.328594 4.36698,0 -0.8398,5.384871 -7.89417,8.150081 -3.52719,1.309834 -6.38253,2.910741 -6.38253,3.492894 0,0.582138 3.35922,1.600899 7.55826,2.183051 6.71844,0.727682 7.55825,1.309834 6.71844,3.783965 -1.67961,4.65719 2.01554,10.478671 10.24562,16.59123 6.5505,4.657188 7.39031,5.821478 5.37477,7.422388 -1.67961,1.45538 -4.19903,1.74646 -9.74175,0.87323 l -7.55825,-1.1643 0.50388,-7.567927 c 0.50388,-8.295618 -2.01553,-10.333134 -3.69515,-3.056283 -2.51942,11.06082 -1.00777,13.09835 10.91749,14.99033 3.35922,0.4366 7.72621,2.47412 9.74175,4.3661 l 3.69514,3.4929 -4.87088,1.45537 c -2.85534,0.87322 -5.71068,1.01876 -6.38252,0.29107 -3.52719,-2.61966 -11.92526,-2.61966 -16.62816,0 l -4.87088,2.76521 -6.71844,-4.65718 c -9.40583,-6.25811 -10.58156,-7.85902 -13.77282,-16.591233 -2.351456,-6.985792 -4.870873,-10.333141 -6.550484,-8.877771 -0.335924,0.291072 0.839805,4.511647 2.855339,9.605454 3.191265,8.58668 7.726215,13.82601 17.300005,19.79305 1.84757,1.16429 3.0233,2.3286 2.51942,2.7652 -1.17574,0.87323 -21.499037,9.75098 -22.506805,9.75098 -0.503883,0 -4.031068,-4.22057 -7.894175,-9.4599 -6.046603,-8.15008 -7.726215,-9.45992 -12.261167,-9.60546 -2.85534,-0.14554 -7.222331,-0.58215 -9.741749,-1.16429 l -4.36699,-0.87323 4.031069,-8.44115 4.199028,-8.441146 -3.695146,-5.093805 c -2.183495,-3.201813 -3.0233,-5.967018 -2.351456,-7.567924 1.175728,-2.183058 1.51165,-2.037529 2.351456,0.873218 1.343689,4.511647 4.031069,4.220574 4.366991,-0.436609 0,-2.037522 2.351457,-5.530414 4.870875,-7.713472 2.687378,-2.183052 4.36699,-3.201813 3.695145,-2.183052 -1.175727,2.037515 0.503884,6.258095 2.519418,6.258095 0.839807,0 1.511651,-2.183058 1.511651,-4.802725 0,-3.347357 1.847574,-6.403633 6.718448,-11.206359 5.710681,-5.675947 6.550486,-6.112559 6.718448,-3.347353 0,1.891982 1.007767,3.347353 2.183495,3.347353 1.511651,0 2.015534,-1.309834 1.511651,-4.220576 l -0.671845,-4.366114 9.741748,-0.436611 c 7.72622,-0.291074 10.24564,0.145537 11.2534,1.891983 0.8398,1.309833 4.03107,3.49289 7.22234,4.802724 z m 47.57529,45.576793 c -0.13141,0.75644 0.19789,1.74003 0.56886,2.32413 1.71989,2.708 6.69336,1.79267 10.64226,-2.05674 2.35145,-2.18305 2.35145,-2.76519 0.33592,-3.49289 -2.36353,-0.89598 -9.38618,-0.0698 -10.49807,0.91605 -0.66824,0.59232 -0.91796,1.55517 -1.04897,2.30945 z m 32.87811,-37.572255 c 1.84757,2.037522 5.03883,5.967031 7.22234,8.586698 0,0 1.41293,1.518293 3.04269,2.901334 1.62977,1.383041 3.47636,2.630816 3.47636,2.630816 0,0 -2.704,0.112633 -8.53459,-1.311583 -13.39612,-3.272197 -14.2767,-4.948262 -13.26893,-8.441148 0.8398,-2.765204 1.17572,-2.765204 5.54271,0.873218 2.35146,2.037529 5.03884,3.20182 5.54273,2.619668 1.84757,-1.455364 -7.22233,-9.023294 -9.90972,-8.150076 -2.35145,0.727689 -4.46337,-4.71687 -3.87315,-7.207607 0.15939,-0.672614 0.94415,-0.692261 1.98347,-0.303809 2.08098,0.777766 4.98293,3.694055 8.77609,7.802489 z m -14.78058,9.896532 c -0.67184,0.436608 -1.67962,0.436608 -2.35146,0 -0.50389,-0.582153 0,-1.018768 1.17574,-1.018768 1.17572,0 1.6796,0.436615 1.17572,1.018768 z m -23.01069,30.271713 c 0,3.78397 -2.35145,4.80272 -4.19902,2.18306 -1.51166,-2.03752 0.16795,-5.82149 2.51942,-5.82149 0.8398,0 1.6796,1.60092 1.6796,3.63843 z m 13.97348,-3.36624 c 0,0.80045 -5.33157,3.55068 -6.0358,1.84072 -0.72421,-1.75849 0.75839,-2.19734 2.59804,-2.34537 1.92611,-0.15499 3.43776,-0.29581 3.43776,0.50465 z m -29.08999,3.36624 c 0,1.1643 -0.67184,2.18306 -1.51165,2.18306 -2.18349,0 -3.69514,-2.32859 -2.35145,-3.49289 1.84758,-1.60091 3.8631,-0.87323 3.8631,1.30983 z"
         id="path10-8"
         sodipodi:nodetypes="ccsccscccscssccsscscccccccssccccccscccccccccsccsccccccccssssscscccsccsscscccccccccccccsccccscccccccccccsccscssccscccccsccccsccccccccccccccccccccsscccccscccccscscccccccccccccccccscccsccccccccccccssccsccccccsccscccscsccccsscccscccsccssccssc" />
      <path
         style="fill:#000000;stroke:none"
         id="path30-3"
         d="m 167.58219,76.511877 c -3.69515,3.056283 -4.19904,4.366117 -2.85535,6.549169 1.00777,1.600907 3.02331,2.910741 4.367,2.910741 3.52718,0 12.93302,-8.295613 12.0932,-10.624208 -1.34369,-3.347355 -8.73398,-2.765203 -13.60485,1.164298 z m 10.58156,-0.727688 c 0,0.727688 -1.17573,1.45537 -2.51942,1.45537 -1.34369,0 -3.19127,1.309833 -4.19904,2.910747 -1.00775,1.600907 -2.68737,2.474131 -3.69514,2.037522 -1.17572,-0.727688 -0.33592,-2.328602 2.68739,-4.511654 4.87087,-3.492892 7.72621,-4.220574 7.72621,-1.891985 z"
         inkscape:connector-curvature="0" />
      <path
         inkscape:connector-curvature="0"
         style="fill:#ffcfab;fill-opacity:1;fill-rule:evenodd;stroke:#000000;stroke-width:0.70837569;stroke-linecap:butt;stroke-linejoin:miter;stroke-miterlimit:4;stroke-dasharray:none;stroke-opacity:1"
         d="m 154.27311,104.54666 c 0,0 -1.11982,1.03819 -2.40308,1.81998 -1.28326,0.78179 -2.90881,1.30717 -2.90881,1.30717 0,0 6.04902,6.77566 6.93435,5.89896 0.8853,-0.87671 0.24395,-2.38435 -0.13547,-4.35694 -0.3834,-1.99322 -1.48699,-4.66917 -1.48699,-4.66917 z"
         id="path2180-5"
         sodipodi:nodetypes="czcszc" />
      <path
         inkscape:connector-curvature="0"
         style="fill:#ffffff;fill-opacity:0.31372549;fill-rule:evenodd;stroke:#000000;stroke-width:0.5712707px;stroke-linecap:butt;stroke-linejoin:miter;stroke-opacity:1"
         d="m 170.88211,104.25761 c -0.53659,-2.07287 -7.02026,1.78227 -7.10969,4.02953 -0.0894,2.24722 6.3027,6.61446 6.79668,4.64942 0.49188,-1.95663 0.84564,-6.6213 0.31301,-8.67895 z"
         id="path4122"
         sodipodi:nodetypes="czzz" />
      <g
         id="g4457"
         transform="translate(2.2900763,-1.5267176)"
         style="fill:#ab9a7e;fill-opacity:0.75294118">
        <path
           d="m 14.25549,265.14338 q 0,1.15882 -0.696001,1.90107 -0.690522,0.74225 -1.890714,0.74225 -0.67956,0 -1.249514,-0.21964 -0.5644744,-0.22722 -0.9480975,-0.49232 l 0,-1.59811 0.054828,0 q 0.4877475,0.50746 1.0851035,0.81042 0.597355,0.29538 1.145388,0.29538 0.679561,0 1.063183,-0.30296 0.383624,-0.30296 0.383624,-0.95432 0,-0.49989 -0.208253,-0.7574 -0.208252,-0.25752 -0.800128,-0.4393 -0.219213,-0.0682 -0.575434,-0.15905 -0.350741,-0.0909 -0.641199,-0.19692 -0.805607,-0.29539 -1.1453879,-0.86344 -0.3342993,-0.57562 -0.3342993,-1.40876 0,-0.52261 0.1534505,-0.98462 0.1589272,-0.46201 0.4767867,-0.82557 0.306898,-0.35598 0.778206,-0.56048 0.476789,-0.21207 1.063184,-0.21207 0.548033,0 1.107026,0.18935 0.564474,0.18178 0.937136,0.44686 l 0,1.52239 -0.0548,0 q -0.394584,-0.40143 -0.959057,-0.6741 -0.564474,-0.28023 -1.107026,-0.28023 -0.564474,0 -0.953578,0.30296 -0.389103,0.29538 -0.389103,0.88616 0,0.52261 0.235655,0.78769 0.230173,0.26509 0.745324,0.43173 0.284977,0.0909 0.635718,0.18177 0.356221,0.0909 0.591876,0.16662 0.717922,0.22722 1.107026,0.78013 0.389103,0.56047 0.389103,1.48451 z"
           id="path4310"
           inkscape:connector-curvature="0"
           style="font-style:normal;font-variant:normal;font-weight:normal;font-stretch:normal;font-size:medium;line-height:125%;font-family:sans-serif;-inkscape-font-specification:'sans-serif, Normal';text-align:start;letter-spacing:0px;word-spacing:0px;writing-mode:lr-tb;text-anchor:start;fill:#ab9a7e;fill-opacity:0.75294118;stroke:none;stroke-width:1px;stroke-linecap:butt;stroke-linejoin:miter;stroke-opacity:1" />
        <path
           d="m 18.913769,267.50646 q -0.290458,0.10604 -0.635718,0.1742 -0.339781,0.0682 -0.608316,0.0682 -0.937136,0 -1.424886,-0.69681 Q 15.7571,266.35522 15.7571,264.8177 l 0,-4.49896 -0.696002,0 0,-1.1967 0.696002,0 0,-2.43125 1.030302,0 0,2.43125 2.126367,0 0,1.1967 -2.126367,0 0,3.85517 q 0,0.66651 0.02192,1.04521 0.02192,0.37113 0.153449,0.69681 0.120567,0.30296 0.328819,0.44686 0.213734,0.13633 0.646679,0.13633 0.252095,0 0.526112,-0.0985 0.274016,-0.10604 0.394583,-0.17421 l 0.05481,0 0,1.28001 z"
           id="path4312"
           inkscape:connector-curvature="0"
           style="font-style:normal;font-variant:normal;font-weight:normal;font-stretch:normal;font-size:medium;line-height:125%;font-family:sans-serif;-inkscape-font-specification:'sans-serif, Normal';text-align:start;letter-spacing:0px;word-spacing:0px;writing-mode:lr-tb;text-anchor:start;fill:#ab9a7e;fill-opacity:0.75294118;stroke:none;stroke-width:1px;stroke-linecap:butt;stroke-linejoin:miter;stroke-opacity:1" />
        <path
           d="m 25.238067,267.5822 -1.030301,0 0,-0.93917 q -0.520631,0.56804 -0.99742,0.87101 -0.476789,0.30295 -1.052223,0.30295 -0.964538,0 -1.50161,-0.81041 -0.537072,-0.818 -0.537072,-2.39339 l 0,-5.49115 1.030301,0 0,4.81707 q 0,0.64379 0.04385,1.1058 0.04385,0.45444 0.186331,0.78012 0.147969,0.33326 0.383623,0.48474 0.235654,0.15148 0.685041,0.15148 0.400064,0 0.871372,-0.28781 0.476789,-0.28781 0.887813,-0.73468 l 0,-6.31672 1.030302,0 0,8.46016 z"
           id="path4314"
           inkscape:connector-curvature="0"
           style="font-style:normal;font-variant:normal;font-weight:normal;font-stretch:normal;font-size:medium;line-height:125%;font-family:sans-serif;-inkscape-font-specification:'sans-serif, Normal';text-align:start;letter-spacing:0px;word-spacing:0px;writing-mode:lr-tb;text-anchor:start;fill:#ab9a7e;fill-opacity:0.75294118;stroke:none;stroke-width:1px;stroke-linecap:butt;stroke-linejoin:miter;stroke-opacity:1" />
        <path
           d="m 32.230966,267.5822 -1.030302,0 0,-0.88616 q -0.443907,0.53018 -0.926175,0.82557 -0.482269,0.29538 -1.046743,0.29538 -1.096065,0 -1.742744,-1.16639 -0.641199,-1.1664 -0.641199,-3.2341 0,-1.07551 0.219214,-1.91622 0.224693,-0.84071 0.602836,-1.43149 0.372662,-0.57562 0.865891,-0.87859 0.49871,-0.30295 1.030302,-0.30295 0.482269,0 0.854931,0.1439 0.372663,0.13634 0.783687,0.43172 l 0,-3.66582 1.030302,0 0,11.78515 z m -1.030302,-2.08285 0,-4.85494 q -0.416505,-0.25751 -0.745324,-0.35597 -0.32882,-0.0985 -0.717923,-0.0985 -0.865892,0 -1.348161,0.83314 -0.482269,0.83313 -0.482269,2.36308 0,1.50723 0.372663,2.29493 0.372662,0.78012 1.194711,0.78012 0.438426,0 0.887813,-0.26509 0.449387,-0.27266 0.83849,-0.69681 z"
           id="path4316"
           inkscape:connector-curvature="0"
           style="font-style:normal;font-variant:normal;font-weight:normal;font-stretch:normal;font-size:medium;line-height:125%;font-family:sans-serif;-inkscape-font-specification:'sans-serif, Normal';text-align:start;letter-spacing:0px;word-spacing:0px;writing-mode:lr-tb;text-anchor:start;fill:#ab9a7e;fill-opacity:0.75294118;stroke:none;stroke-width:1px;stroke-linecap:butt;stroke-linejoin:miter;stroke-opacity:1" />
        <path
           d="m 35.365713,257.7057 -1.161829,0 0,-1.47693 1.161829,0 0,1.47693 z m -0.06576,9.8765 -1.030301,0 0,-8.46016 1.030301,0 0,8.46016 z"
           id="path4318"
           inkscape:connector-curvature="0"
           style="font-style:normal;font-variant:normal;font-weight:normal;font-stretch:normal;font-size:medium;line-height:125%;font-family:sans-serif;-inkscape-font-specification:'sans-serif, Normal';text-align:start;letter-spacing:0px;word-spacing:0px;writing-mode:lr-tb;text-anchor:start;fill:#ab9a7e;fill-opacity:0.75294118;stroke:none;stroke-width:1px;stroke-linecap:butt;stroke-linejoin:miter;stroke-opacity:1" />
        <path
           d="m 42.523022,263.35591 q 0,2.0677 -0.767247,3.26439 -0.767245,1.19669 -2.055122,1.19669 -1.298838,0 -2.066084,-1.19669 -0.761765,-1.19669 -0.761765,-3.26439 0,-2.06771 0.761765,-3.2644 0.767246,-1.20426 2.066084,-1.20426 1.287877,0 2.055122,1.20426 0.767247,1.19669 0.767247,3.2644 z m -1.063184,0 q 0,-1.64356 -0.465828,-2.43883 -0.465828,-0.80285 -1.293357,-0.80285 -0.838491,0 -1.304319,0.80285 -0.460347,0.79527 -0.460347,2.43883 0,1.59054 0.465828,2.4161 0.465828,0.818 1.298838,0.818 0.822049,0 1.287877,-0.81042 0.471308,-0.81799 0.471308,-2.42368 z"
           id="path4320"
           inkscape:connector-curvature="0"
           style="font-style:normal;font-variant:normal;font-weight:normal;font-stretch:normal;font-size:medium;line-height:125%;font-family:sans-serif;-inkscape-font-specification:'sans-serif, Normal';text-align:start;letter-spacing:0px;word-spacing:0px;writing-mode:lr-tb;text-anchor:start;fill:#ab9a7e;fill-opacity:0.75294118;stroke:none;stroke-width:1px;stroke-linecap:butt;stroke-linejoin:miter;stroke-opacity:1" />
        <path
           d="m 57.648727,256.30451 -2.120887,11.27769 -1.222113,0 -1.715343,-9.36147 -1.67698,9.36147 -1.194712,0 -2.159249,-11.27769 1.112506,0 1.715343,9.37662 1.687941,-9.37662 1.101546,0 1.704382,9.4675 1.704382,-9.4675 1.063184,0 z"
           id="path4322"
           inkscape:connector-curvature="0"
           style="font-style:normal;font-variant:normal;font-weight:normal;font-stretch:normal;font-size:medium;line-height:125%;font-family:sans-serif;-inkscape-font-specification:'sans-serif, Normal';text-align:start;letter-spacing:0px;word-spacing:0px;writing-mode:lr-tb;text-anchor:start;fill:#ab9a7e;fill-opacity:0.75294118;stroke:none;stroke-width:1px;stroke-linecap:butt;stroke-linejoin:miter;stroke-opacity:1" />
        <path
           d="m 66.137755,261.95472 q 0,1.53752 -0.48775,2.78723 -0.482268,1.24971 -1.287877,1.93895 -0.558993,0.47716 -1.249514,0.68923 -0.685041,0.21207 -1.808509,0.21207 l -2.060603,0 0,-11.27769 2.038682,0 q 1.194712,0 1.896194,0.24237 0.706962,0.2348 1.194711,0.65137 0.83301,0.71952 1.298838,1.91622 0.465828,1.19669 0.465828,2.84025 z m -1.134428,-0.0227 q 0,-1.32544 -0.3343,-2.23433 -0.3343,-0.90887 -0.99742,-1.43148 -0.482269,-0.3787 -1.024821,-0.52261 -0.542553,-0.15148 -1.298838,-0.15148 l -1.019341,0 0,8.70253 1.019341,0 q 0.783687,0 1.364602,-0.15906 0.586395,-0.15905 1.074144,-0.59077 0.608316,-0.53775 0.909734,-1.41634 0.306899,-0.87858 0.306899,-2.19646 z"
           id="path4324"
           inkscape:connector-curvature="0"
           style="font-style:normal;font-variant:normal;font-weight:normal;font-stretch:normal;font-size:medium;line-height:125%;font-family:sans-serif;-inkscape-font-specification:'sans-serif, Normal';text-align:start;letter-spacing:0px;word-spacing:0px;writing-mode:lr-tb;text-anchor:start;fill:#ab9a7e;fill-opacity:0.75294118;stroke:none;stroke-width:1px;stroke-linecap:butt;stroke-linejoin:miter;stroke-opacity:1" />
        <path
           d="m 75.169335,267.5822 -1.085105,0 0,-9.71744 -2.268855,6.6121 -0.646679,0 -2.252415,-6.6121 0,9.71744 -1.013861,0 0,-11.27769 1.479689,0 2.17569,6.27885 2.104446,-6.27885 1.50709,0 0,11.27769 z"
           id="path4326"
           inkscape:connector-curvature="0"
           style="font-style:normal;font-variant:normal;font-weight:normal;font-stretch:normal;font-size:medium;line-height:125%;font-family:sans-serif;-inkscape-font-specification:'sans-serif, Normal';text-align:start;letter-spacing:0px;word-spacing:0px;writing-mode:lr-tb;text-anchor:start;fill:#ab9a7e;fill-opacity:0.75294118;stroke:none;stroke-width:1px;stroke-linecap:butt;stroke-linejoin:miter;stroke-opacity:1" />
        <path
           d="m 88.064547,261.65933 -6.499669,0 0,-1.21184 6.499669,0 0,1.21184 z m 0,3.18108 -6.499669,0 0,-1.21184 6.499669,0 0,1.21184 z"
           id="path4328"
           inkscape:connector-curvature="0"
           style="font-style:normal;font-variant:normal;font-weight:normal;font-stretch:normal;font-size:medium;line-height:125%;font-family:sans-serif;-inkscape-font-specification:'sans-serif, Normal';text-align:start;letter-spacing:0px;word-spacing:0px;writing-mode:lr-tb;text-anchor:start;fill:#ab9a7e;fill-opacity:0.75294118;stroke:none;stroke-width:1px;stroke-linecap:butt;stroke-linejoin:miter;stroke-opacity:1" />
        <path
           d="m 99.452668,270.55121 -0.822049,0 q -0.980979,0 -1.594775,-0.7574 -0.608317,-0.74983 -0.608317,-2.17373 l 0,-1.12853 q 0,-1.28001 -0.454867,-1.99954 -0.454867,-0.72711 -1.392003,-0.72711 l -0.279497,0 0,-1.18154 0.279497,0 q 0.937136,0 1.392003,-0.71953 0.454867,-0.72711 0.454867,-2.00711 l 0,-1.12853 q 0,-1.42391 0.608317,-2.17373 0.613796,-0.75741 1.594775,-0.75741 l 0.822049,0 0,1.04521 -0.624757,0 q -0.745325,0 -1.085105,0.47717 -0.3343,0.47716 -0.3343,1.53752 l 0,1.32545 q 0,1.05278 -0.421986,1.77232 -0.421985,0.71196 -1.17279,1.12853 l 0,0.18177 q 0.750805,0.41657 1.17279,1.1361 0.421986,0.71195 0.421986,1.76475 l 0,1.32544 q 0,1.06037 0.3343,1.53753 0.33978,0.47716 1.085105,0.47716 l 0.624757,0 0,1.04521 z"
           id="path4330"
           inkscape:connector-curvature="0"
           style="font-style:normal;font-variant:normal;font-weight:normal;font-stretch:normal;font-size:medium;line-height:125%;font-family:sans-serif;-inkscape-font-specification:'sans-serif, Normal';text-align:start;letter-spacing:0px;word-spacing:0px;writing-mode:lr-tb;text-anchor:start;fill:#ab9a7e;fill-opacity:0.75294118;stroke:none;stroke-width:1px;stroke-linecap:butt;stroke-linejoin:miter;stroke-opacity:1" />
        <path
           d="m 107.11965,267.5822 -1.3098,0 0,-2.15859 1.3098,0 0,2.15859 z"
           id="path4332"
           inkscape:connector-curvature="0"
           style="font-style:normal;font-variant:normal;font-weight:normal;font-stretch:normal;font-size:medium;line-height:125%;font-family:sans-serif;-inkscape-font-specification:'sans-serif, Normal';text-align:start;letter-spacing:0px;word-spacing:0px;writing-mode:lr-tb;text-anchor:start;fill:#ab9a7e;fill-opacity:0.75294118;stroke:none;stroke-width:1px;stroke-linecap:butt;stroke-linejoin:miter;stroke-opacity:1" />
        <path
           d="m 113.33434,260.67471 -0.0548,0 q -0.23017,-0.0758 -0.44938,-0.10603 -0.21374,-0.0378 -0.50967,-0.0378 -0.47679,0 -0.9207,0.29538 -0.44391,0.28781 -0.85493,0.74983 l 0,6.00619 -1.0303,0 0,-8.46017 1.0303,0 0,1.24971 q 0.6138,-0.68165 1.07963,-0.96189 0.4713,-0.28782 0.95905,-0.28782 0.26854,0 0.38911,0.0227 0.12056,0.0151 0.3617,0.0682 l 0,1.46178 z"
           id="path4334"
           inkscape:connector-curvature="0"
           style="font-style:normal;font-variant:normal;font-weight:normal;font-stretch:normal;font-size:medium;line-height:125%;font-family:sans-serif;-inkscape-font-specification:'sans-serif, Normal';text-align:start;letter-spacing:0px;word-spacing:0px;writing-mode:lr-tb;text-anchor:start;fill:#ab9a7e;fill-opacity:0.75294118;stroke:none;stroke-width:1px;stroke-linecap:butt;stroke-linejoin:miter;stroke-opacity:1" />
        <path
           d="m 119.07224,267.5822 -1.02482,0 0,-0.9013 q -0.13701,0.12875 -0.37266,0.36355 -0.23018,0.22722 -0.44939,0.36355 -0.25757,0.1742 -0.59187,0.28781 -0.3343,0.12118 -0.78369,0.12118 -0.82753,0 -1.40296,-0.75739 -0.57544,-0.7574 -0.57544,-1.93138 0,-0.96189 0.29594,-1.55267 0.30142,-0.59834 0.85493,-0.93918 0.55899,-0.34082 1.34268,-0.46201 0.78369,-0.12118 1.68246,-0.18177 l 0,-0.21965 q 0,-0.48474 -0.12605,-0.80284 -0.12056,-0.31811 -0.35074,-0.49988 -0.21921,-0.17421 -0.52611,-0.2348 -0.3069,-0.0606 -0.6412,-0.0606 -0.40554,0 -0.90425,0.15147 -0.49871,0.14391 -1.0303,0.42414 l -0.0548,0 0,-1.44663 q 0.30142,-0.11361 0.87137,-0.24994 0.56996,-0.13633 1.12347,-0.13633 0.64668,0 1.12347,0.15147 0.48227,0.14391 0.83301,0.4999 0.34526,0.34839 0.52611,0.9013 0.18085,0.5529 0.18085,1.37089 l 0,5.7411 z m -1.02482,-2.08285 0,-2.35551 q -0.47131,0.0378 -1.11251,0.11361 -0.63571,0.0758 -1.00838,0.21964 -0.4439,0.17421 -0.71792,0.54533 -0.27402,0.36355 -0.27402,1.00734 0,0.72711 0.31786,1.09824 0.31786,0.36355 0.97002,0.36355 0.54255,0 0.99194,-0.28782 0.44939,-0.29539 0.83301,-0.70438 z"
           id="path4336"
           inkscape:connector-curvature="0"
           style="font-style:normal;font-variant:normal;font-weight:normal;font-stretch:normal;font-size:medium;line-height:125%;font-family:sans-serif;-inkscape-font-specification:'sans-serif, Normal';text-align:start;letter-spacing:0px;word-spacing:0px;writing-mode:lr-tb;text-anchor:start;fill:#ab9a7e;fill-opacity:0.75294118;stroke:none;stroke-width:1px;stroke-linecap:butt;stroke-linejoin:miter;stroke-opacity:1" />
        <path
           d="m 124.24567,267.50646 q -0.29045,0.10604 -0.63572,0.1742 -0.33978,0.0682 -0.60831,0.0682 -0.93714,0 -1.42489,-0.69681 -0.48775,-0.69681 -0.48775,-2.23433 l 0,-4.49896 -0.696,0 0,-1.1967 0.696,0 0,-2.43125 1.0303,0 0,2.43125 2.12637,0 0,1.1967 -2.12637,0 0,3.85517 q 0,0.66651 0.022,1.04521 0.0219,0.37113 0.15345,0.69681 0.12057,0.30296 0.32882,0.44686 0.21373,0.13633 0.64667,0.13633 0.2521,0 0.52612,-0.0985 0.27401,-0.10604 0.39458,-0.17421 l 0.0548,0 0,1.28001 z"
           id="path4338"
           inkscape:connector-curvature="0"
           style="font-style:normal;font-variant:normal;font-weight:normal;font-stretch:normal;font-size:medium;line-height:125%;font-family:sans-serif;-inkscape-font-specification:'sans-serif, Normal';text-align:start;letter-spacing:0px;word-spacing:0px;writing-mode:lr-tb;text-anchor:start;fill:#ab9a7e;fill-opacity:0.75294118;stroke:none;stroke-width:1px;stroke-linecap:butt;stroke-linejoin:miter;stroke-opacity:1" />
        <path
           d="m 126.60221,257.7057 -1.16183,0 0,-1.47693 1.16183,0 0,1.47693 z m -0.0658,9.8765 -1.0303,0 0,-8.46016 1.0303,0 0,8.46016 z"
           id="path4340"
           inkscape:connector-curvature="0"
           style="font-style:normal;font-variant:normal;font-weight:normal;font-stretch:normal;font-size:medium;line-height:125%;font-family:sans-serif;-inkscape-font-specification:'sans-serif, Normal';text-align:start;letter-spacing:0px;word-spacing:0px;writing-mode:lr-tb;text-anchor:start;fill:#ab9a7e;fill-opacity:0.75294118;stroke:none;stroke-width:1px;stroke-linecap:butt;stroke-linejoin:miter;stroke-opacity:1" />
        <path
           d="m 133.66088,267.5822 -1.03031,0 0,-4.81706 q 0,-0.5832 -0.0493,-1.09066 -0.0493,-0.51503 -0.18085,-0.80285 -0.13701,-0.3181 -0.39458,-0.46959 -0.25757,-0.15904 -0.6686,-0.15904 -0.42199,0 -0.88233,0.2878 -0.46035,0.28781 -0.88234,0.73469 l 0,6.31671 -1.0303,0 0,-8.46016 1.0303,0 0,0.93918 q 0.48228,-0.55291 0.99743,-0.86344 0.51514,-0.31053 1.0577,-0.31053 0.99194,0 1.51257,0.82556 0.52063,0.82557 0.52063,2.37824 l 0,5.49115 z"
           id="path4342"
           inkscape:connector-curvature="0"
           style="font-style:normal;font-variant:normal;font-weight:normal;font-stretch:normal;font-size:medium;line-height:125%;font-family:sans-serif;-inkscape-font-specification:'sans-serif, Normal';text-align:start;letter-spacing:0px;word-spacing:0px;writing-mode:lr-tb;text-anchor:start;fill:#ab9a7e;fill-opacity:0.75294118;stroke:none;stroke-width:1px;stroke-linecap:butt;stroke-linejoin:miter;stroke-opacity:1" />
        <path
           d="m 140.60993,266.6203 q 0,2.15102 -0.70696,3.15836 -0.70696,1.00735 -2.17569,1.00735 -0.48775,0 -0.95358,-0.0985 -0.46035,-0.0909 -0.90973,-0.26508 l 0,-1.45421 0.0548,0 q 0.25209,0.13633 0.80013,0.33325 0.54803,0.2045 1.09606,0.2045 0.52612,0 0.87138,-0.1742 0.34526,-0.1742 0.53707,-0.48474 0.19181,-0.29538 0.27402,-0.71195 0.0822,-0.41658 0.0822,-0.93161 l 0,-0.77255 q -0.46582,0.51503 -0.89329,0.77255 -0.42199,0.24994 -1.07963,0.24994 -1.09606,0 -1.74274,-1.09065 -0.6412,-1.09823 -0.6412,-3.09019 0,-1.09066 0.21922,-1.87836 0.22469,-0.79527 0.60831,-1.3709 0.35622,-0.53775 0.86589,-0.83314 0.50967,-0.30295 1.01386,-0.30295 0.5316,0 0.88782,0.15147 0.3617,0.14391 0.76176,0.44687 l 0.0658,-0.36355 0.96454,0 0,7.49826 z m -1.0303,-1.36332 0,-4.61257 q -0.41103,-0.25751 -0.76724,-0.36355 -0.35075,-0.11361 -0.70149,-0.11361 -0.84945,0 -1.3372,0.7877 -0.48775,0.7877 -0.48775,2.28734 0,1.42392 0.3617,2.1586 0.36171,0.73467 1.2002,0.73467 0.44938,0 0.89877,-0.23479 0.45487,-0.24236 0.83301,-0.64379 z"
           id="path4344"
           inkscape:connector-curvature="0"
           style="font-style:normal;font-variant:normal;font-weight:normal;font-stretch:normal;font-size:medium;line-height:125%;font-family:sans-serif;-inkscape-font-specification:'sans-serif, Normal';text-align:start;letter-spacing:0px;word-spacing:0px;writing-mode:lr-tb;text-anchor:start;fill:#ab9a7e;fill-opacity:0.75294118;stroke:none;stroke-width:1px;stroke-linecap:butt;stroke-linejoin:miter;stroke-opacity:1" />
        <path
           d="m 153.41198,261.65933 -6.49967,0 0,-1.21184 6.49967,0 0,1.21184 z m 0,3.18108 -6.49967,0 0,-1.21184 6.49967,0 0,1.21184 z"
           id="path4346"
           inkscape:connector-curvature="0"
           style="font-style:normal;font-variant:normal;font-weight:normal;font-stretch:normal;font-size:medium;line-height:125%;font-family:sans-serif;-inkscape-font-specification:'sans-serif, Normal';text-align:start;letter-spacing:0px;word-spacing:0px;writing-mode:lr-tb;text-anchor:start;fill:#ab9a7e;fill-opacity:0.75294118;stroke:none;stroke-width:1px;stroke-linecap:butt;stroke-linejoin:miter;stroke-opacity:1" />
        <path
           d="m 165.94001,263.05295 q 0,1.22698 -0.19729,2.14344 -0.19182,0.90888 -0.63573,1.5148 -0.42198,0.57563 -0.98645,0.84071 -0.56448,0.26509 -1.31528,0.26509 -0.76725,0 -1.3372,-0.28023 -0.56996,-0.28024 -0.95906,-0.82557 -0.4439,-0.62107 -0.6412,-1.49965 -0.19181,-0.87859 -0.19181,-2.15859 l 0,-6.74844 1.0851,0 0,6.82418 q 0,0.91645 0.0877,1.44663 0.0932,0.53018 0.3069,0.9619 0.24114,0.49231 0.65216,0.74225 0.41651,0.24995 0.99742,0.24995 0.58639,0 0.99742,-0.24237 0.41102,-0.24994 0.65764,-0.74983 0.21373,-0.43172 0.30142,-0.98462 0.0932,-0.56048 0.0932,-1.38604 l 0,-6.86205 1.08511,0 0,6.74844 z"
           id="path4348"
           inkscape:connector-curvature="0"
           style="font-style:normal;font-variant:normal;font-weight:normal;font-stretch:normal;font-size:medium;line-height:125%;font-family:sans-serif;-inkscape-font-specification:'sans-serif, Normal';text-align:start;letter-spacing:0px;word-spacing:0px;writing-mode:lr-tb;text-anchor:start;fill:#ab9a7e;fill-opacity:0.75294118;stroke:none;stroke-width:1px;stroke-linecap:butt;stroke-linejoin:miter;stroke-opacity:1" />
        <path
           d="m 173.17952,267.5822 -5.16247,0 0,-11.27769 1.08511,0 0,9.94467 4.07736,0 0,1.33302 z"
           id="path4350"
           inkscape:connector-curvature="0"
           style="font-style:normal;font-variant:normal;font-weight:normal;font-stretch:normal;font-size:medium;line-height:125%;font-family:sans-serif;-inkscape-font-specification:'sans-serif, Normal';text-align:start;letter-spacing:0px;word-spacing:0px;writing-mode:lr-tb;text-anchor:start;fill:#ab9a7e;fill-opacity:0.75294118;stroke:none;stroke-width:1px;stroke-linecap:butt;stroke-linejoin:miter;stroke-opacity:1" />
        <path
           d="m 179.42709,267.5822 -5.16247,0 0,-11.27769 1.08511,0 0,9.94467 4.07736,0 0,1.33302 z"
           id="path4352"
           inkscape:connector-curvature="0"
           style="font-style:normal;font-variant:normal;font-weight:normal;font-stretch:normal;font-size:medium;line-height:125%;font-family:sans-serif;-inkscape-font-specification:'sans-serif, Normal';text-align:start;letter-spacing:0px;word-spacing:0px;writing-mode:lr-tb;text-anchor:start;fill:#ab9a7e;fill-opacity:0.75294118;stroke:none;stroke-width:1px;stroke-linecap:butt;stroke-linejoin:miter;stroke-opacity:1" />
        <path
           d="m 186.59536,257.59966 q 0.49871,0.75741 0.76177,1.85564 0.26854,1.09823 0.26854,2.49184 0,1.39362 -0.27402,2.49943 -0.26854,1.09822 -0.75629,1.8329 -0.50419,0.76498 -1.19471,1.15125 -0.68504,0.38627 -1.56737,0.38627 -0.86042,0 -1.56737,-0.39384 -0.70149,-0.39385 -1.19472,-1.14368 -0.49323,-0.74983 -0.76176,-1.84048 -0.26306,-1.09066 -0.26306,-2.49185 0,-1.37846 0.26306,-2.46912 0.26305,-1.09823 0.76724,-1.87836 0.48227,-0.74225 1.19471,-1.13609 0.71793,-0.39385 1.5619,-0.39385 0.87685,0 1.57285,0.40142 0.70148,0.39385 1.18923,1.12852 z m -0.0986,4.34748 q 0,-2.19646 -0.71244,-3.38557 -0.71245,-1.1967 -1.94552,-1.1967 -1.24404,0 -1.95648,1.1967 -0.70696,1.18911 -0.70696,3.38557 0,2.21919 0.7234,3.40073 0.7234,1.17397 1.94004,1.17397 1.21663,0 1.93456,-1.17397 0.7234,-1.18154 0.7234,-3.40073 z"
           id="path4354"
           inkscape:connector-curvature="0"
           style="font-style:normal;font-variant:normal;font-weight:normal;font-stretch:normal;font-size:medium;line-height:125%;font-family:sans-serif;-inkscape-font-specification:'sans-serif, Normal';text-align:start;letter-spacing:0px;word-spacing:0px;writing-mode:lr-tb;text-anchor:start;fill:#ab9a7e;fill-opacity:0.75294118;stroke:none;stroke-width:1px;stroke-linecap:butt;stroke-linejoin:miter;stroke-opacity:1" />
        <path
           d="m 195.57214,267.5822 -1.34268,0 -3.86911,-10.08857 0,10.08857 -1.01387,0 0,-11.27769 1.68247,0 3.52933,9.20999 0,-9.20999 1.01386,0 0,11.27769 z"
           id="path4356"
           inkscape:connector-curvature="0"
           style="font-style:normal;font-variant:normal;font-weight:normal;font-stretch:normal;font-size:medium;line-height:125%;font-family:sans-serif;-inkscape-font-specification:'sans-serif, Normal';text-align:start;letter-spacing:0px;word-spacing:0px;writing-mode:lr-tb;text-anchor:start;fill:#ab9a7e;fill-opacity:0.75294118;stroke:none;stroke-width:1px;stroke-linecap:butt;stroke-linejoin:miter;stroke-opacity:1" />
        <path
           d="m 204.54892,266.74906 q -0.6686,0.42414 -1.46325,0.74225 -0.78917,0.31054 -1.52901,0.31054 -0.95358,0 -1.74823,-0.36355 -0.79464,-0.36356 -1.35364,-1.09066 -0.56447,-0.73468 -0.87137,-1.83291 -0.3069,-1.1058 -0.3069,-2.58274 0,-2.70392 1.13991,-4.26416 1.14539,-1.56782 3.14023,-1.56782 0.696,0 1.4194,0.23479 0.72889,0.22723 1.56738,0.78013 l 0,1.77989 -0.0986,0 q -0.16989,-0.18178 -0.49323,-0.47716 -0.32334,-0.29539 -0.63572,-0.49231 -0.37814,-0.2348 -0.86041,-0.38628 -0.47679,-0.15905 -1.0851,-0.15905 -1.37008,0 -2.17021,1.21942 -0.79465,1.21184 -0.79465,3.28711 0,2.18889 0.83301,3.4083 0.83301,1.21184 2.26886,1.21184 0.52611,0 1.04674,-0.1439 0.52611,-0.14391 0.9207,-0.37113 l 0,-2.76451 -2.18666,0 0,-1.31788 3.2608,0 0,4.83979 z"
           id="path4358"
           inkscape:connector-curvature="0"
           style="font-style:normal;font-variant:normal;font-weight:normal;font-stretch:normal;font-size:medium;line-height:125%;font-family:sans-serif;-inkscape-font-specification:'sans-serif, Normal';text-align:start;letter-spacing:0px;word-spacing:0px;writing-mode:lr-tb;text-anchor:start;fill:#ab9a7e;fill-opacity:0.75294118;stroke:none;stroke-width:1px;stroke-linecap:butt;stroke-linejoin:miter;stroke-opacity:1" />
        <path
           d="m 212.50636,269.8544 -7.17923,0 0,-0.90888 7.17923,0 0,0.90888 z"
           id="path4360"
           inkscape:connector-curvature="0"
           style="font-style:normal;font-variant:normal;font-weight:normal;font-stretch:normal;font-size:medium;line-height:125%;font-family:sans-serif;-inkscape-font-specification:'sans-serif, Normal';text-align:start;letter-spacing:0px;word-spacing:0px;writing-mode:lr-tb;text-anchor:start;fill:#ab9a7e;fill-opacity:0.75294118;stroke:none;stroke-width:1px;stroke-linecap:butt;stroke-linejoin:miter;stroke-opacity:1" />
        <path
           d="m 220.85837,267.5822 -1.0851,0 0,-9.71744 -2.26886,6.6121 -0.64668,0 -2.25241,-6.6121 0,9.71744 -1.01386,0 0,-11.27769 1.47969,0 2.17569,6.27885 2.10444,-6.27885 1.50709,0 0,11.27769 z"
           id="path4362"
           inkscape:connector-curvature="0"
           style="font-style:normal;font-variant:normal;font-weight:normal;font-stretch:normal;font-size:medium;line-height:125%;font-family:sans-serif;-inkscape-font-specification:'sans-serif, Normal';text-align:start;letter-spacing:0px;word-spacing:0px;writing-mode:lr-tb;text-anchor:start;fill:#ab9a7e;fill-opacity:0.75294118;stroke:none;stroke-width:1px;stroke-linecap:butt;stroke-linejoin:miter;stroke-opacity:1" />
        <path
           d="m 229.49537,267.5822 -1.15635,0 -0.80013,-3.14321 -3.52933,0 -0.80013,3.14321 -1.10154,0 2.97034,-11.27769 1.4468,0 2.97034,11.27769 z m -2.29078,-4.43079 -1.43037,-5.5366 -1.43584,5.5366 2.86621,0 z"
           id="path4364"
           inkscape:connector-curvature="0"
           style="font-style:normal;font-variant:normal;font-weight:normal;font-stretch:normal;font-size:medium;line-height:125%;font-family:sans-serif;-inkscape-font-specification:'sans-serif, Normal';text-align:start;letter-spacing:0px;word-spacing:0px;writing-mode:lr-tb;text-anchor:start;fill:#ab9a7e;fill-opacity:0.75294118;stroke:none;stroke-width:1px;stroke-linecap:butt;stroke-linejoin:miter;stroke-opacity:1" />
        <path
           d="m 236.95957,256.30451 -2.81688,5.57447 2.81141,5.70322 -1.255,0 -2.22501,-4.64286 -2.27982,4.64286 -1.18375,0 2.84429,-5.63506 -2.77853,-5.64263 1.24952,0 2.19761,4.58227 2.24693,-4.58227 1.18923,0 z"
           id="path4366"
           inkscape:connector-curvature="0"
           style="font-style:normal;font-variant:normal;font-weight:normal;font-stretch:normal;font-size:medium;line-height:125%;font-family:sans-serif;-inkscape-font-specification:'sans-serif, Normal';text-align:start;letter-spacing:0px;word-spacing:0px;writing-mode:lr-tb;text-anchor:start;fill:#ab9a7e;fill-opacity:0.75294118;stroke:none;stroke-width:1px;stroke-linecap:butt;stroke-linejoin:miter;stroke-opacity:1" />
        <path
           d="m 240.48343,265.42361 -1.54546,4.96097 -0.80013,0 0.95358,-4.96097 1.39201,0 z"
           id="path4368"
           inkscape:connector-curvature="0"
           style="font-style:normal;font-variant:normal;font-weight:normal;font-stretch:normal;font-size:medium;line-height:125%;font-family:sans-serif;-inkscape-font-specification:'sans-serif, Normal';text-align:start;letter-spacing:0px;word-spacing:0px;writing-mode:lr-tb;text-anchor:start;fill:#ab9a7e;fill-opacity:0.75294118;stroke:none;stroke-width:1px;stroke-linecap:butt;stroke-linejoin:miter;stroke-opacity:1" />
        <path
           d="m 106.26472,286.97165 -1.3098,0 0,-2.15859 1.3098,0 0,2.15859 z"
           id="path4370"
           inkscape:connector-curvature="0"
           style="font-style:normal;font-variant:normal;font-weight:normal;font-stretch:normal;font-size:medium;line-height:125%;font-family:sans-serif;-inkscape-font-specification:'sans-serif, Normal';text-align:start;letter-spacing:0px;word-spacing:0px;writing-mode:lr-tb;text-anchor:start;fill:#ab9a7e;fill-opacity:0.75294118;stroke:none;stroke-width:1px;stroke-linecap:butt;stroke-linejoin:miter;stroke-opacity:1" />
        <path
           d="m 114.04678,282.63932 q 0,1.03006 -0.21373,1.88593 -0.21373,0.84828 -0.60284,1.43906 -0.3617,0.56048 -0.85493,0.87101 -0.48775,0.30296 -1.03578,0.30296 -0.47679,0 -0.86589,-0.14391 -0.38363,-0.1439 -0.78369,-0.44687 l 0,3.54464 -1.0303,0 0,-11.58066 1.0303,0 0,0.88616 q 0.41103,-0.47715 0.9207,-0.79527 0.51515,-0.32568 1.09606,-0.32568 1.10703,0 1.72082,1.15883 0.61928,1.15125 0.61928,3.2038 z m -1.06318,0.0378 q 0,-1.52995 -0.37815,-2.28735 -0.37814,-0.7574 -1.16182,-0.7574 -0.44391,0 -0.8933,0.26508 -0.44938,0.2651 -0.86041,0.69681 l 0,4.79435 q 0.43843,0.27266 0.75081,0.37113 0.31785,0.0985 0.71792,0.0985 0.86041,0 1.34268,-0.80285 0.48227,-0.80284 0.48227,-2.37823 z"
           id="path4372"
           inkscape:connector-curvature="0"
           style="font-style:normal;font-variant:normal;font-weight:normal;font-stretch:normal;font-size:medium;line-height:125%;font-family:sans-serif;-inkscape-font-specification:'sans-serif, Normal';text-align:start;letter-spacing:0px;word-spacing:0px;writing-mode:lr-tb;text-anchor:start;fill:#ab9a7e;fill-opacity:0.75294118;stroke:none;stroke-width:1px;stroke-linecap:butt;stroke-linejoin:miter;stroke-opacity:1" />
        <path
           d="m 120.86979,282.74536 q 0,2.0677 -0.76725,3.26439 -0.76724,1.19669 -2.05512,1.19669 -1.29884,0 -2.06608,-1.19669 -0.76177,-1.19669 -0.76177,-3.26439 0,-2.06771 0.76177,-3.2644 0.76724,-1.20427 2.06608,-1.20427 1.28788,0 2.05512,1.20427 0.76725,1.19669 0.76725,3.2644 z m -1.06318,0 q 0,-1.64356 -0.46583,-2.43883 -0.46583,-0.80285 -1.29336,-0.80285 -0.83849,0 -1.30432,0.80285 -0.46034,0.79527 -0.46034,2.43883 0,1.59054 0.46582,2.4161 0.46583,0.81799 1.29884,0.81799 0.82205,0 1.28788,-0.81041 0.47131,-0.818 0.47131,-2.42368 z"
           id="path4374"
           inkscape:connector-curvature="0"
           style="font-style:normal;font-variant:normal;font-weight:normal;font-stretch:normal;font-size:medium;line-height:125%;font-family:sans-serif;-inkscape-font-specification:'sans-serif, Normal';text-align:start;letter-spacing:0px;word-spacing:0px;writing-mode:lr-tb;text-anchor:start;fill:#ab9a7e;fill-opacity:0.75294118;stroke:none;stroke-width:1px;stroke-linecap:butt;stroke-linejoin:miter;stroke-opacity:1" />
        <path
           d="m 130.16991,278.51148 -1.59478,8.46017 -0.95358,0 -1.57285,-6.52122 -1.5619,6.52122 -0.94809,0 -1.61122,-8.46017 1.07415,0 1.12346,6.55152 1.52902,-6.55152 0.84945,0 1.56737,6.55152 1.06318,-6.55152 1.03579,0 z"
           id="path4376"
           inkscape:connector-curvature="0"
           style="font-style:normal;font-variant:normal;font-weight:normal;font-stretch:normal;font-size:medium;line-height:125%;font-family:sans-serif;-inkscape-font-specification:'sans-serif, Normal';text-align:start;letter-spacing:0px;word-spacing:0px;writing-mode:lr-tb;text-anchor:start;fill:#ab9a7e;fill-opacity:0.75294118;stroke:none;stroke-width:1px;stroke-linecap:butt;stroke-linejoin:miter;stroke-opacity:1" />
        <path
           d="m 136.77918,282.88927 -4.51031,0 q 0,0.78011 0.16989,1.36331 0.16989,0.57563 0.46583,0.94675 0.28497,0.36355 0.67408,0.54533 0.39458,0.18178 0.86589,0.18178 0.62476,0 1.255,-0.34083 0.63571,-0.34841 0.90425,-0.68166 l 0.0548,0 0,1.55266 q -0.52063,0.30297 -1.06319,0.50746 -0.54255,0.2045 -1.13991,0.2045 -1.52353,0 -2.37846,-1.1361 -0.85493,-1.14367 -0.85493,-3.24167 0,-2.07528 0.81657,-3.29469 0.82205,-1.21942 2.15925,-1.21942 1.23855,0 1.90716,0.99977 0.67407,0.99977 0.67407,2.84025 l 0,0.77256 z m -1.0029,-1.09066 q -0.006,-1.12096 -0.41102,-1.73445 -0.40007,-0.6135 -1.22212,-0.6135 -0.82753,0 -1.32075,0.67409 -0.48775,0.67408 -0.55352,1.67386 l 3.50741,0 z"
           id="path4378"
           inkscape:connector-curvature="0"
           style="font-style:normal;font-variant:normal;font-weight:normal;font-stretch:normal;font-size:medium;line-height:125%;font-family:sans-serif;-inkscape-font-specification:'sans-serif, Normal';text-align:start;letter-spacing:0px;word-spacing:0px;writing-mode:lr-tb;text-anchor:start;fill:#ab9a7e;fill-opacity:0.75294118;stroke:none;stroke-width:1px;stroke-linecap:butt;stroke-linejoin:miter;stroke-opacity:1" />
        <path
           d="m 142.16086,280.06416 -0.0548,0 q -0.23018,-0.0758 -0.44939,-0.10604 -0.21373,-0.0378 -0.50967,-0.0378 -0.47679,0 -0.92069,0.29538 -0.44391,0.28781 -0.85494,0.74983 l 0,6.00618 -1.0303,0 0,-8.46016 1.0303,0 0,1.24971 q 0.6138,-0.68166 1.07963,-0.96189 0.47131,-0.28782 0.95906,-0.28782 0.26853,0 0.3891,0.0227 0.12057,0.0151 0.3617,0.0682 l 0,1.46178 z"
           id="path4380"
           inkscape:connector-curvature="0"
           style="font-style:normal;font-variant:normal;font-weight:normal;font-stretch:normal;font-size:medium;line-height:125%;font-family:sans-serif;-inkscape-font-specification:'sans-serif, Normal';text-align:start;letter-spacing:0px;word-spacing:0px;writing-mode:lr-tb;text-anchor:start;fill:#ab9a7e;fill-opacity:0.75294118;stroke:none;stroke-width:1px;stroke-linecap:butt;stroke-linejoin:miter;stroke-opacity:1" />
        <path
           d="m 153.91617,281.04878 -6.49967,0 0,-1.21184 6.49967,0 0,1.21184 z m 0,3.18108 -6.49967,0 0,-1.21184 6.49967,0 0,1.21184 z"
           id="path4382"
           inkscape:connector-curvature="0"
           style="font-style:normal;font-variant:normal;font-weight:normal;font-stretch:normal;font-size:medium;line-height:125%;font-family:sans-serif;-inkscape-font-specification:'sans-serif, Normal';text-align:start;letter-spacing:0px;word-spacing:0px;writing-mode:lr-tb;text-anchor:start;fill:#ab9a7e;fill-opacity:0.75294118;stroke:none;stroke-width:1px;stroke-linecap:butt;stroke-linejoin:miter;stroke-opacity:1" />
        <path
           d="m 166.4442,282.44239 q 0,1.22699 -0.1973,2.14345 -0.19181,0.90888 -0.63571,1.5148 -0.42199,0.57563 -0.98646,0.84071 -0.56448,0.26509 -1.31528,0.26509 -0.76725,0 -1.3372,-0.28024 -0.56996,-0.28023 -0.95906,-0.82556 -0.4439,-0.62107 -0.6412,-1.49965 -0.19181,-0.87859 -0.19181,-2.1586 l 0,-6.74843 1.08511,0 0,6.82418 q 0,0.91645 0.0877,1.44663 0.0932,0.53018 0.3069,0.9619 0.24113,0.49231 0.65216,0.74225 0.4165,0.24995 0.99742,0.24995 0.58639,0 0.99742,-0.24237 0.41103,-0.24995 0.65764,-0.74983 0.21373,-0.43172 0.30142,-0.98462 0.0932,-0.56048 0.0932,-1.38604 l 0,-6.86205 1.08511,0 0,6.74843 z"
           id="path4384"
           inkscape:connector-curvature="0"
           style="font-style:normal;font-variant:normal;font-weight:normal;font-stretch:normal;font-size:medium;line-height:125%;font-family:sans-serif;-inkscape-font-specification:'sans-serif, Normal';text-align:start;letter-spacing:0px;word-spacing:0px;writing-mode:lr-tb;text-anchor:start;fill:#ab9a7e;fill-opacity:0.75294118;stroke:none;stroke-width:1px;stroke-linecap:butt;stroke-linejoin:miter;stroke-opacity:1" />
        <path
           d="m 173.68371,286.97165 -5.16247,0 0,-11.27769 1.0851,0 0,9.94467 4.07737,0 0,1.33302 z"
           id="path4386"
           inkscape:connector-curvature="0"
           style="font-style:normal;font-variant:normal;font-weight:normal;font-stretch:normal;font-size:medium;line-height:125%;font-family:sans-serif;-inkscape-font-specification:'sans-serif, Normal';text-align:start;letter-spacing:0px;word-spacing:0px;writing-mode:lr-tb;text-anchor:start;fill:#ab9a7e;fill-opacity:0.75294118;stroke:none;stroke-width:1px;stroke-linecap:butt;stroke-linejoin:miter;stroke-opacity:1" />
        <path
           d="m 179.93128,286.97165 -5.16247,0 0,-11.27769 1.08511,0 0,9.94467 4.07736,0 0,1.33302 z"
           id="path4388"
           inkscape:connector-curvature="0"
           style="font-style:normal;font-variant:normal;font-weight:normal;font-stretch:normal;font-size:medium;line-height:125%;font-family:sans-serif;-inkscape-font-specification:'sans-serif, Normal';text-align:start;letter-spacing:0px;word-spacing:0px;writing-mode:lr-tb;text-anchor:start;fill:#ab9a7e;fill-opacity:0.75294118;stroke:none;stroke-width:1px;stroke-linecap:butt;stroke-linejoin:miter;stroke-opacity:1" />
        <path
           d="m 187.09955,276.98911 q 0.49871,0.75741 0.76177,1.85563 0.26854,1.09824 0.26854,2.49185 0,1.39362 -0.27402,2.49942 -0.26854,1.09823 -0.75629,1.83291 -0.50419,0.76498 -1.19471,1.15125 -0.68504,0.38627 -1.56737,0.38627 -0.86041,0 -1.56738,-0.39384 -0.70148,-0.39385 -1.19471,-1.14368 -0.49323,-0.74983 -0.76176,-1.84048 -0.26306,-1.09066 -0.26306,-2.49185 0,-1.37847 0.26306,-2.46912 0.26305,-1.09824 0.76724,-1.87836 0.48227,-0.74225 1.19471,-1.1361 0.71793,-0.39384 1.5619,-0.39384 0.87685,0 1.57285,0.40142 0.70148,0.39385 1.18923,1.12852 z m -0.0986,4.34748 q 0,-2.19646 -0.71244,-3.38558 -0.71245,-1.19669 -1.94552,-1.19669 -1.24404,0 -1.95648,1.19669 -0.70696,1.18912 -0.70696,3.38558 0,2.21918 0.7234,3.40073 0.7234,1.17397 1.94004,1.17397 1.21663,0 1.93455,-1.17397 0.72341,-1.18155 0.72341,-3.40073 z"
           id="path4390"
           inkscape:connector-curvature="0"
           style="font-style:normal;font-variant:normal;font-weight:normal;font-stretch:normal;font-size:medium;line-height:125%;font-family:sans-serif;-inkscape-font-specification:'sans-serif, Normal';text-align:start;letter-spacing:0px;word-spacing:0px;writing-mode:lr-tb;text-anchor:start;fill:#ab9a7e;fill-opacity:0.75294118;stroke:none;stroke-width:1px;stroke-linecap:butt;stroke-linejoin:miter;stroke-opacity:1" />
        <path
           d="m 196.07633,286.97165 -1.34268,0 -3.86911,-10.08858 0,10.08858 -1.01386,0 0,-11.27769 1.68246,0 3.52933,9.20999 0,-9.20999 1.01386,0 0,11.27769 z"
           id="path4392"
           inkscape:connector-curvature="0"
           style="font-style:normal;font-variant:normal;font-weight:normal;font-stretch:normal;font-size:medium;line-height:125%;font-family:sans-serif;-inkscape-font-specification:'sans-serif, Normal';text-align:start;letter-spacing:0px;word-spacing:0px;writing-mode:lr-tb;text-anchor:start;fill:#ab9a7e;fill-opacity:0.75294118;stroke:none;stroke-width:1px;stroke-linecap:butt;stroke-linejoin:miter;stroke-opacity:1" />
        <path
           d="m 205.05311,286.13851 q -0.6686,0.42414 -1.46325,0.74225 -0.78917,0.31054 -1.52901,0.31054 -0.95358,0 -1.74823,-0.36356 -0.79465,-0.36355 -1.35364,-1.09065 -0.56447,-0.73468 -0.87137,-1.83291 -0.3069,-1.1058 -0.3069,-2.58274 0,-2.70392 1.13991,-4.26416 1.14539,-1.56782 3.14023,-1.56782 0.696,0 1.4194,0.23479 0.72889,0.22722 1.56738,0.78012 l 0,1.7799 -0.0986,0 q -0.16989,-0.18178 -0.49323,-0.47716 -0.32334,-0.29539 -0.63572,-0.49231 -0.37814,-0.2348 -0.86041,-0.38628 -0.47679,-0.15905 -1.0851,-0.15905 -1.37008,0 -2.17021,1.21942 -0.79465,1.21184 -0.79465,3.28711 0,2.18888 0.83301,3.4083 0.83301,1.21184 2.26885,1.21184 0.52611,0 1.04675,-0.14391 0.52611,-0.1439 0.92069,-0.37112 l 0,-2.76451 -2.18665,0 0,-1.31788 3.2608,0 0,4.83979 z"
           id="path4394"
           inkscape:connector-curvature="0"
           style="font-style:normal;font-variant:normal;font-weight:normal;font-stretch:normal;font-size:medium;line-height:125%;font-family:sans-serif;-inkscape-font-specification:'sans-serif, Normal';text-align:start;letter-spacing:0px;word-spacing:0px;writing-mode:lr-tb;text-anchor:start;fill:#ab9a7e;fill-opacity:0.75294118;stroke:none;stroke-width:1px;stroke-linecap:butt;stroke-linejoin:miter;stroke-opacity:1" />
        <path
           d="m 213.01054,289.24385 -7.17923,0 0,-0.90888 7.17923,0 0,0.90888 z"
           id="path4396"
           inkscape:connector-curvature="0"
           style="font-style:normal;font-variant:normal;font-weight:normal;font-stretch:normal;font-size:medium;line-height:125%;font-family:sans-serif;-inkscape-font-specification:'sans-serif, Normal';text-align:start;letter-spacing:0px;word-spacing:0px;writing-mode:lr-tb;text-anchor:start;fill:#ab9a7e;fill-opacity:0.75294118;stroke:none;stroke-width:1px;stroke-linecap:butt;stroke-linejoin:miter;stroke-opacity:1" />
        <path
           d="m 221.36257,286.97165 -1.08511,0 0,-9.71745 -2.26886,6.61211 -0.64668,0 -2.25241,-6.61211 0,9.71745 -1.01386,0 0,-11.27769 1.47969,0 2.17569,6.27884 2.10444,-6.27884 1.5071,0 0,11.27769 z"
           id="path4398"
           inkscape:connector-curvature="0"
           style="font-style:normal;font-variant:normal;font-weight:normal;font-stretch:normal;font-size:medium;line-height:125%;font-family:sans-serif;-inkscape-font-specification:'sans-serif, Normal';text-align:start;letter-spacing:0px;word-spacing:0px;writing-mode:lr-tb;text-anchor:start;fill:#ab9a7e;fill-opacity:0.75294118;stroke:none;stroke-width:1px;stroke-linecap:butt;stroke-linejoin:miter;stroke-opacity:1" />
        <path
           d="m 229.99956,286.97165 -1.15635,0 -0.80013,-3.14321 -3.52933,0 -0.80013,3.14321 -1.10154,0 2.97034,-11.27769 1.4468,0 2.97034,11.27769 z m -2.29078,-4.43079 -1.43036,-5.5366 -1.43585,5.5366 2.86621,0 z"
           id="path4400"
           inkscape:connector-curvature="0"
           style="font-style:normal;font-variant:normal;font-weight:normal;font-stretch:normal;font-size:medium;line-height:125%;font-family:sans-serif;-inkscape-font-specification:'sans-serif, Normal';text-align:start;letter-spacing:0px;word-spacing:0px;writing-mode:lr-tb;text-anchor:start;fill:#ab9a7e;fill-opacity:0.75294118;stroke:none;stroke-width:1px;stroke-linecap:butt;stroke-linejoin:miter;stroke-opacity:1" />
        <path
           d="m 237.46377,275.69396 -2.81689,5.57446 2.81141,5.70323 -1.255,0 -2.22501,-4.64286 -2.27982,4.64286 -1.18375,0 2.84429,-5.63506 -2.77852,-5.64263 1.24951,0 2.19761,4.58227 2.24693,-4.58227 1.18924,0 z"
           id="path4402"
           inkscape:connector-curvature="0"
           style="font-style:normal;font-variant:normal;font-weight:normal;font-stretch:normal;font-size:medium;line-height:125%;font-family:sans-serif;-inkscape-font-specification:'sans-serif, Normal';text-align:start;letter-spacing:0px;word-spacing:0px;writing-mode:lr-tb;text-anchor:start;fill:#ab9a7e;fill-opacity:0.75294118;stroke:none;stroke-width:1px;stroke-linecap:butt;stroke-linejoin:miter;stroke-opacity:1" />
        <path
           d="m 247.51512,282.58183 -0.27949,0 q -0.93715,0 -1.39201,0.7271 -0.45487,0.71954 -0.45487,1.99955 l 0,1.12852 q 0,1.42391 -0.61379,2.17374 -0.60832,0.7574 -1.5893,0.7574 l -0.82205,0 0,-1.04521 0.62476,0 q 0.74532,0 1.07963,-0.47717 0.33977,-0.47716 0.33977,-1.53752 l 0,-1.32545 q 0,-1.05279 0.42199,-1.76475 0.42198,-0.71952 1.17279,-1.13609 l 0,-0.18178 q -0.75081,-0.41657 -1.17279,-1.12852 -0.42199,-0.71954 -0.42199,-1.77232 l 0,-1.32545 q 0,-1.06036 -0.33977,-1.53752 -0.33431,-0.47717 -1.07963,-0.47717 l -0.62476,0 0,-1.04521 0.82205,0 q 0.98098,0 1.5893,0.7574 0.61379,0.74982 0.61379,2.17374 l 0,1.12853 q 0,1.28 0.45487,2.00711 0.45486,0.71952 1.39201,0.71952 l 0.27949,0 0,1.18155 z"
           id="path4404"
           inkscape:connector-curvature="0"
           style="font-style:normal;font-variant:normal;font-weight:normal;font-stretch:normal;font-size:medium;line-height:125%;font-family:sans-serif;-inkscape-font-specification:'sans-serif, Normal';text-align:start;letter-spacing:0px;word-spacing:0px;writing-mode:lr-tb;text-anchor:start;fill:#ab9a7e;fill-opacity:0.75294118;stroke:none;stroke-width:1px;stroke-linecap:butt;stroke-linejoin:miter;stroke-opacity:1" />
        <path
           d="m 250.90585,281.05176 -1.3098,0 0,-2.1586 1.3098,0 0,2.1586 z m 0.40006,4.14298 -1.54545,4.96097 -0.80013,0 0.95358,-4.96097 1.392,0 z"
           id="path4406"
           inkscape:connector-curvature="0"
           style="font-style:normal;font-variant:normal;font-weight:normal;font-stretch:normal;font-size:medium;line-height:125%;font-family:sans-serif;-inkscape-font-specification:'sans-serif, Normal';text-align:start;letter-spacing:0px;word-spacing:0px;writing-mode:lr-tb;text-anchor:start;fill:#ab9a7e;fill-opacity:0.75294118;stroke:none;stroke-width:1px;stroke-linecap:butt;stroke-linejoin:miter;stroke-opacity:1" />
      </g>
    </g>
  </g>
</svg>
