<?xml version="1.0" encoding="UTF-8" standalone="no"?>
<svg
   xmlns:dc="http://purl.org/dc/elements/1.1/"
   xmlns:cc="http://creativecommons.org/ns#"
   xmlns:rdf="http://www.w3.org/1999/02/22-rdf-syntax-ns#"
   xmlns:svg="http://www.w3.org/2000/svg"
   xmlns="http://www.w3.org/2000/svg"
   xmlns:sodipodi="http://sodipodi.sourceforge.net/DTD/sodipodi-0.dtd"
   xmlns:inkscape="http://www.inkscape.org/namespaces/inkscape"
   width="270.20129pt"
   height="305.84143pt"
   viewBox="0 0 270.20129 305.84143"
   version="1.1"
   id="svg2"
   inkscape:version="0.91 r13725"
   sodipodi:docname="data_mining.svg">
  <metadata
     id="metadata116">
    <rdf:RDF>
      <cc:Work
         rdf:about="">
        <dc:format>image/svg+xml</dc:format>
        <dc:type
           rdf:resource="http://purl.org/dc/dcmitype/StillImage" />
        <dc:title />
      </cc:Work>
    </rdf:RDF>
  </metadata>
  <defs
     id="defs114" />
  <sodipodi:namedview
     pagecolor="#ffffc3"
     bordercolor="#666666"
     borderopacity="1"
     objecttolerance="10"
     gridtolerance="10"
     guidetolerance="10"
     inkscape:pageopacity="0"
     inkscape:pageshadow="2"
     inkscape:window-width="640"
     inkscape:window-height="480"
     id="namedview112"
     showgrid="false"
     inkscape:zoom="1.0364306"
     inkscape:cx="-25.382561"
     inkscape:cy="272.58427"
     inkscape:current-layer="svg2"
     fit-margin-top="0"
     fit-margin-left="0"
     fit-margin-right="0"
     fit-margin-bottom="0" />
  <rect
     style="opacity:0.97000002;fill:#041a25;fill-opacity:0.76862745;fill-rule:evenodd;stroke:none;stroke-width:2.50948715;stroke-linecap:round;stroke-linejoin:round;stroke-miterlimit:4;stroke-dasharray:none;stroke-dashoffset:0;stroke-opacity:1"
     id="rect12859"
     width="273.28882"
     height="307.38519"
     x="-0.37134367"
     y="0.077588834" />
  <g
     id="g4356"
     transform="matrix(0.94870689,0,0,0.9814995,8.341913,15.704745)">
    <g
       transform="translate(0,1.5437599)"
       id="g4250">
      <path
         style="opacity:1;fill:#865127;fill-opacity:1"
         inkscape:connector-curvature="0"
         id="path30"
         d="m 134.47329,29.016492 c 0.0207,-1.420388 1.36747,-2.668558 2.86444,-2.637395 1.95796,-0.0016 3.91593,-0.0016 5.87562,0 1.49696,-0.0328 2.85407,1.225208 2.86443,2.645596 0.0225,4.756496 -0.009,9.514633 0.0138,14.27113 -3.53262,-1.935402 -8.10466,-1.933762 -11.63729,0.0016 0.0363,-4.759777 -0.002,-9.521194 0.019,-14.280971 z" />
      <path
         style="opacity:1;fill:#865127;fill-opacity:1"
         inkscape:connector-curvature="0"
         id="path32"
         d="m 117.61131,37.171423 c 4.2906,-4.110269 10.23702,-6.204767 16.13854,-7.177389 -0.0207,4.580998 0.0104,9.160356 -0.0138,13.741354 -2.18933,1.366263 -3.83478,3.467322 -4.65665,5.820968 -0.69754,-0.01148 -1.39336,0.02788 -2.08918,0.01968 -0.59223,-0.02788 -0.98071,0.462528 -1.43826,0.738077 -0.18302,0.370679 -0.34187,0.76268 -0.33324,1.180923 -0.0121,0.985743 0.009,1.971486 -0.005,2.957229 -5.0762,0.01968 -10.15414,0.0016 -15.23034,0.0098 0.37985,-3.244259 1.08948,-6.472115 2.36026,-9.511353 1.19481,-2.888341 2.96112,-5.574942 5.26786,-7.779332 z" />
      <path
         style="opacity:1;fill:#865127;fill-opacity:1"
         inkscape:connector-curvature="0"
         id="path34"
         d="m 146.7995,29.992394 c 5.70641,0.949659 11.45082,2.914584 15.70343,6.778828 3.86586,3.442719 6.15879,8.199215 7.26899,13.063963 0.35223,1.527 0.62331,3.073681 0.79079,4.628563 -5.07621,-0.0098 -10.15242,0.0016 -15.22862,-0.0049 0.0104,-1.162882 -0.0121,-2.325763 0.0155,-3.488644 -0.34014,-0.483851 -0.66475,-1.033308 -1.24316,-1.292455 -0.45064,-0.152536 -0.94272,-0.06069 -1.40718,-0.147616 -0.4092,0.01148 -0.82013,0.0246 -1.22934,0.03772 -0.23309,-0.626545 -0.40402,-1.292455 -0.86848,-1.809109 -0.79078,-1.664773 -2.22731,-2.999873 -3.79161,-4.03154 -0.0104,-4.577718 0.0104,-9.155436 -0.0104,-13.734794 z" />
      <path
         style="opacity:1;fill:#865127;fill-opacity:1"
         inkscape:connector-curvature="0"
         id="path36"
         d="m 134.63387,43.991255 c 2.38961,-1.356421 5.33002,-1.802548 8.04423,-1.220287 2.103,0.446126 4.08514,1.469593 5.54584,2.983471 0.94791,0.897174 1.62128,2.01085 2.25322,3.119606 0.3574,1.067751 0.7269,2.143704 0.80632,3.272141 0.26244,2.865379 -0.79251,5.806206 -2.84544,7.922027 -2.09091,2.19947 -5.20225,3.485364 -8.32394,3.418117 -2.60371,-0.02296 -5.18153,-0.966061 -7.12914,-2.607872 -2.95766,-2.417613 -4.36139,-6.408149 -3.5119,-10.026367 0.30733,-0.96442 0.461,-1.999368 1.09984,-2.835856 0.9669,-1.640171 2.34991,-3.06712 4.06097,-4.02498 m 3.83996,1.879636 c -0.99107,0.244386 -1.95451,0.642947 -2.77638,1.223568 -0.66819,0.646228 -1.47969,1.185844 -1.94069,1.997729 -1.19481,1.763184 -1.49869,4.018419 -0.87884,6.025989 0.59222,1.82059 1.93897,3.416476 3.70701,4.326771 1.95451,1.025107 4.39592,1.185844 6.47302,0.395281 2.25322,-0.806964 4.03334,-2.6866 4.66183,-4.89263 0.57323,-2.004289 0.23309,-4.252964 -1.00143,-5.976784 -1.70588,-2.540625 -5.16772,-3.838001 -8.24452,-3.099924 z" />
      <path
         style="opacity:1;fill:#865127;fill-opacity:1"
         inkscape:connector-curvature="0"
         id="path42"
         d="m 126.02676,50.904577 c 0.2659,-0.587182 1.07395,-0.611784 1.64027,-0.76268 0.37986,0.136134 0.78215,0.124653 1.181,0.09513 -0.0432,0.262427 -0.0846,0.524855 -0.11914,0.788922 -0.45064,1.940323 -0.17611,3.988897 0.50935,5.852131 -0.70791,-0.0098 -1.41581,0.01968 -2.12199,-0.0098 -0.6682,-0.02952 -1.22416,-0.623265 -1.18272,-1.258011 0.0224,-1.568004 -0.0829,-3.144208 0.0932,-4.705651 z" />
      <path
         style="opacity:1;fill:#865127;fill-opacity:1"
         inkscape:connector-curvature="0"
         id="path44"
         d="m 151.67024,50.271471 c 0.52489,-0.0016 1.06531,0.03116 1.57121,-0.136135 0.60603,0.180419 1.33639,0.487131 1.36746,1.189125 0.0276,1.425308 0.009,2.852257 0.0104,4.277566 0.0449,0.639667 -0.53352,1.272773 -1.21725,1.269493 -0.69582,0.02132 -1.39337,0 -2.08919,0.0066 0.79769,-2.104339 0.96863,-4.438303 0.35741,-6.606609 z" />
      <path
         style="opacity:1;fill:#865127;fill-opacity:1"
         inkscape:connector-curvature="0"
         id="path46"
         d="m 106.69574,57.306165 c 0.49035,-1.307216 1.91998,-2.19947 3.37205,-2.168306 5.04513,-0.0016 10.09198,0.0049 15.13884,-0.0033 -0.12777,0.948019 0.33496,1.989528 1.33639,2.317562 0.97553,0.246026 1.9994,0.04592 2.99565,0.119733 0.12604,0.247666 0.25036,0.495331 0.36949,0.746278 -0.0984,-0.01968 -0.29697,-0.05741 -0.39539,-0.07545 l 0.0173,0.224703 c -0.51453,0.547817 -1.13611,1.007065 -1.57121,1.62377 -0.0794,-0.0066 -0.23482,-0.01804 -0.31424,-0.02296 -0.0345,0.428085 -0.51108,0.642947 -0.75107,0.969341 l -0.1036,-0.06069 c -0.23482,0.264068 -0.57496,0.470729 -0.66819,0.823366 -0.63021,0.04592 -1.26215,0.04265 -1.89409,0.03936 -4.72225,-0.0016 -9.44623,0.0016 -14.17021,-0.0016 -0.99625,0.01476 -1.98904,-0.3838 -2.66069,-1.085793 -0.89611,-0.898814 -1.19654,-2.2946 -0.701,-3.446 z" />
      <path
         style="opacity:1;fill:#865127;fill-opacity:1"
         inkscape:connector-curvature="0"
         id="path48"
         d="m 155.33927,55.136218 c 5.05548,0.0066 10.10924,-0.0016 15.16473,0.0033 1.14647,-0.01476 2.2912,0.523214 2.94213,1.426949 0.79596,1.038228 0.8633,2.524223 0.15712,3.621498 -0.6233,1.026747 -1.85264,1.679535 -3.10097,1.648372 -7.66439,0.0066 -15.32877,-0.0016 -22.99315,-0.0033 1.4797,-1.15304 2.72976,-2.59311 3.505,-4.264445 0.95999,-0.01476 1.93207,0.05905 2.88515,-0.07873 1.0515,-0.282109 1.59538,-1.371183 1.43999,-2.353646 z" />
      <path
         style="opacity:1;fill:#865127;fill-opacity:1"
         inkscape:connector-curvature="0"
         id="path50"
         d="m 127.3925,60.579947 c 0.92374,-0.679031 1.51941,-1.704138 2.54674,-2.271637 0.74589,1.369543 1.84919,2.547185 3.10961,3.509966 -2.0253,0.04921 -4.05233,0 -6.07936,0.02952 -0.1554,0.04921 -0.6751,-0.0049 -0.47482,-0.280469 0.34014,-0.293591 0.54733,-0.700353 0.89783,-0.987383 z" />
      <path
         style="opacity:1;fill:#865127;fill-opacity:1"
         inkscape:connector-curvature="0"
         id="path52"
         d="m 107.67472,62.538311 c 8.62092,-0.05741 17.24702,0 25.87139,-0.02624 0.33496,-0.02624 0.67337,0.01968 0.95654,0.205022 2.81436,1.551602 6.33144,1.871435 9.41688,0.902094 0.90128,-0.262427 1.72833,-0.695433 2.56745,-1.089074 8.63301,-0.0328 17.26774,-0.0033 25.90074,-0.0164 0.89438,-0.03936 1.79049,0.354277 2.32228,1.039868 0.79597,0.977542 0.68201,2.504541 -0.25381,3.363991 -0.52834,0.526495 -1.30013,0.787282 -2.05811,0.76596 -21.47028,-0.0066 -42.94056,0.0033 -64.41257,-0.0049 -1.31394,0.0082 -2.52429,-1.010346 -2.65206,-2.255236 -0.23654,-1.362982 0.89956,-2.752207 2.34127,-2.885061 z" />
      <path
         style="opacity:1;fill:#865127;fill-opacity:1"
         inkscape:connector-curvature="0"
         id="path54"
         d="m 108.56219,68.377321 c 3.48601,-0.02132 6.97375,-0.0049 10.46148,-0.0082 -0.41784,0.410043 -0.88057,0.785642 -1.24143,1.24653 -0.1364,0.141055 -0.2728,0.28539 -0.4092,0.428085 -2.93177,0.02788 -5.86354,-0.0098 -8.79531,0.0164 -0.0173,-0.560938 -0.019,-1.121877 -0.0155,-1.682815 z" />
      <path
         style="opacity:1;fill:#865127;fill-opacity:1"
         inkscape:connector-curvature="0"
         id="path56"
         d="m 119.13417,68.37568 c 14.1564,-0.01476 28.31108,-0.0098 42.46748,-0.0016 0.20374,0.720035 1.23797,0.902094 1.42272,1.613929 -0.038,0.0164 -0.11223,0.05248 -0.14849,0.06889 -15.15265,-0.02132 -30.30703,0.02296 -45.45968,-0.02132 0.24173,-0.303432 0.63194,-0.428085 0.92546,-0.66427 0.23827,-0.350996 0.55597,-0.644587 0.79251,-0.995584 z" />
      <path
         style="opacity:1;fill:#865127;fill-opacity:1"
         inkscape:connector-curvature="0"
         id="path58-6"
         d="m 161.63618,68.37568 c 3.44975,-0.01968 6.90122,0 10.35097,-0.0098 0.002,0.564219 0.003,1.126798 0,1.691017 -2.83508,0 -5.67015,-0.02132 -8.50523,0.01148 -0.23309,-0.444486 -0.75971,-0.634746 -1.16891,-0.905374 0.003,-0.08037 0.0121,-0.244386 0.0155,-0.326395 -0.37813,0.131214 -0.61122,-0.139414 -0.69237,-0.460888 z" />
    </g>
    <path
       sodipodi:nodetypes="ccccccccccccccccccccccccccccccccc"
       d="m 220.49431,41.226698 c 8.15848,-7.519614 18.70692,-11.59442 29.16233,-10.837097 4.70435,0.194359 9.40871,1.461031 13.60715,3.954169 0.79666,0.435625 1.4712,1.11923 1.96547,1.963679 3.018,6.232839 3.41342,13.611713 2.88426,20.588473 -1.1979,10.274132 -5.19282,20.085822 -11.02528,27.947239 -3.84373,4.06139 -7.43741,8.43779 -11.46141,12.271319 -3.2506,3.35769 -6.25696,7.03037 -9.62386,10.23392 -1.05251,1.11922 -2.86099,0.99189 -3.89025,-0.0938 -1.45375,-1.47442 -2.67491,-3.21694 -3.89024,-4.94605 -1.18045,-1.59507 -0.22097,-4.10831 -1.59332,-5.60955 -1.8201,-2.251859 -4.2217,-3.800019 -6.71053,-4.865649 -5.90806,5.582759 -22.30669,26.510479 -28.35431,31.898869 -0.23842,-5.02648 -0.5815,-10.06636 -1.42468,-15.01242 4.47175,-5.14712 20.57963,-24.158079 25.07464,-29.278396 2.98892,-3.25716 6.14647,-6.29985 9.22843,-9.43638 3.54717,-3.61237 7.62931,-6.42719 11.81031,-8.953839 -8.19918,2.707599 -14.72944,9.275539 -21.71329,14.576799 -0.88969,-1.7023 -1.83754,-3.44481 -3.26804,-4.61096 -2.07015,-1.72911 -4.68109,-2.07091 -6.94894,-3.31077 1.52353,1.7023 3.57624,2.43281 5.36726,3.65927 1.73869,1.20636 2.54116,3.46492 3.26804,5.53583 -0.56988,0.56298 -1.13975,1.12594 -1.69798,1.6889 -0.72688,-1.63527 -1.4305,-3.36438 -2.7098,-4.53723 -1.35491,-1.52805 -3.76233,-0.47584 -4.94277,-2.33899 -1.38979,-2.00389 -3.29131,-3.68609 -4.09378,-6.13231 -0.44775,-2.70089 1.9713,-4.04799 3.32038,-5.716788 2.88425,-3.391206 6.07669,-6.393686 9.07725,-9.644148 2.91913,-2.922062 5.5359,-6.239541 8.58296,-8.99405 m 43.33935,-0.455736 c 0.7734,9.007459 0.55243,18.329909 -2.37834,26.841412 -1.62821,5.79052 -4.89625,10.64274 -8.10614,15.374337 10.51355,-9.865307 14.29332,-27.464698 10.48448,-42.215749 z"
       id="path66"
       inkscape:connector-curvature="0"
       style="opacity:1;fill:#865127;fill-opacity:1" />
    <path
       d="M 68.926069,30.829901 C 81.845087,19.385955 96.27491,10.01365 111.88512,3.7488074 c 1.26996,-0.917263 3.05764,0.287034 3.01634,2.0716409 -0.86945,1.790846 -2.86118,2.127801 -4.2363,3.250979 C 103.73609,13.819979 96.8722,18.730768 90.539111,24.440261 85.846996,27.996995 82.008123,32.714346 77.935156,37.094743 72.73066,43.234789 67.57171,49.487152 63.273909,56.53822 c -1.484415,2.464754 -2.818557,5.547257 -2.12337,8.767036 0.469264,2.364913 2.909416,3.288418 3.540201,5.559735 0.632357,1.815799 0.373351,3.743931 -0.172537,5.434941 3.374875,3.04506 6.675716,6.19619 9.852191,9.50958 3.87028,3.481849 7.538423,7.256979 11.290168,10.907308 1.685338,1.69101 3.579489,3.10747 5.085539,5.02935 0.0208,1.82205 -0.17668,3.61913 -0.09,5.45366 -9.680259,-9.60942 -19.573052,-18.919329 -29.273274,-28.503788 -1.594078,2.36491 -3.373749,4.54888 -4.979925,6.89507 8.978754,8.529919 17.804874,17.284478 26.734549,25.889268 2.39307,2.38365 4.929632,4.5676 7.22371,7.08851 -0.005,1.75965 0.0119,3.52554 -0.0969,5.27271 -0.32488,-0.31823 -0.96922,-0.9547 -1.29369,-1.2667 l 0.12742,0.68015 c -1.555533,-2.57084 -4.109956,-3.98105 -6.032871,-6.14005 -3.462874,-3.86249 -7.410715,-7.05106 -11.027065,-10.70139 -1.557389,-1.6411 -3.130175,-3.26971 -4.786988,-4.77976 -4.214696,-3.76889 -8.073793,-8.043199 -12.278505,-11.824579 -1.736034,0.99214 -3.809323,1.40397 -5.766212,0.49919 -1.530334,-0.9235 -2.88541,-2.69563 -4.715184,-2.44603 -3.618091,0.312 -6.240735,3.40073 -8.374455,6.3522 -2.511803,3.843769 -5.502751,7.250739 -7.749338,11.331629 -1.354944,2.37739 -2.830399,4.65495 -4.248305,6.98243 -4.319707,7.20706 -7.872196,15.02563 -10.964513,23.08133 -2.721884,7.76865 -5.7180256,15.40627 -7.7346656,23.51188 -0.470119,2.00924 -3.4117465,0.7987 -3.1073915,-1.17934 1.7475975,-15.73698 5.9196735,-30.78135 11.0902311,-45.15804 3.520774,-8.6048 7.056096,-17.23456 11.553263,-25.177929 2.283239,-4.817189 5.328276,-9.022869 8.012631,-13.515579 -0.308261,-1.82829 -0.405322,-3.656575 0.183047,-5.360059 -1.730584,-2.277555 -2.43283,-5.840532 -0.818689,-8.149288 1.387661,-1.815806 2.542179,-3.874968 4.093337,-5.516058 1.698892,-1.778366 4.473652,-1.510051 6.432969,0.06864 1.388166,-1.010861 3.019489,-1.391494 4.71721,-1.272936 2.584932,-3.644092 5.443879,-7.001149 8.463038,-10.15229 3.822021,-4.885829 8.614817,-8.554881 12.886564,-12.87912 m 12.439888,-5.26022 C 77.011295,28.75202 73.251644,32.801704 69.203231,36.427076 61.991516,43.553023 55.195312,51.2156 48.835793,59.327449 c -1.264138,-0.193437 -2.792497,-0.848624 -3.647019,0.52415 -2.411663,3.244739 -4.585194,6.726596 -7.060675,9.908932 -1.489564,1.591168 0.483154,4.324245 -0.893953,5.896695 -4.497145,7.22578 -9.031783,14.457815 -12.767553,22.288864 -4.247998,7.62514 -7.4783,15.96163 -10.835372,24.18578 -2.209094,5.90918 -4.1017846,12.01178 -5.6106306,18.26415 2.2568056,-6.08389 4.1192666,-12.39242 6.6128496,-18.33902 2.979641,-6.76403 5.760412,-13.66534 9.25702,-20.0737 2.742957,-4.98567 5.175678,-10.233419 8.371463,-14.850919 2.050907,-3.612905 4.061359,-7.263235 6.492149,-10.545415 3.510285,2.32748 6.723778,5.22902 10.215368,7.60018 -2.811031,-3.59418 -6.179975,-6.55188 -9.046339,-10.08366 -0.690301,-0.75502 -1.114618,-2.059152 -0.535743,-2.945216 1.274414,-2.127799 2.913739,-3.906165 4.229025,-5.990291 1.128077,-1.491331 1.978327,-3.325857 3.405903,-4.473996 1.270676,0.449272 2.272157,1.559971 3.295961,2.520913 2.723794,2.708109 5.556987,5.272705 8.496603,7.650099 0.04023,0.193437 0.121484,0.592789 0.156702,0.792465 0.0681,-0.193437 0.193895,-0.574073 0.257002,-0.761262 -3.08332,-3.456895 -5.82752,-7.26323 -8.678246,-10.963481 7.499891,-9.422224 15.345478,-18.538694 24.018399,-26.556943 4.044193,-4.405358 8.800629,-7.812333 13.173607,-11.762179 3.862657,-2.851627 7.519496,-6.102607 11.709006,-8.367684 -6.650419,2.870346 -12.340398,7.762415 -18.085333,12.32377 M 35.112852,64.275672 c 0.21439,0.605269 0.766846,2.121568 1.484781,1.528771 1.679728,-2.14028 3.219747,-4.424077 4.829836,-6.632995 -0.576638,-0.436793 -1.157832,-0.861105 -1.738609,-1.279176 -1.605284,2.040441 -3.386074,3.968566 -4.576008,6.3834 z"
       id="path62"
       inkscape:connector-curvature="0"
       style="opacity:1;fill:#865127;fill-opacity:1" />
    <path
       d="m 90.584075,198.12985 c 4.726304,-4.17784 8.846005,-9.0638 13.605635,-13.20624 1.82653,3.93709 4.07303,7.68299 7.0928,10.7137 -4.60632,3.93709 -8.48602,8.73807 -13.12567,12.65392 -6.119544,7.42808 -13.598983,13.43286 -20.078494,20.4927 -3.619729,5.02758 -2.346483,11.94581 -4.966295,17.44782 -2.139833,6.13932 -6.852812,10.57209 -11.132486,15.04734 -1.173245,1.34541 -2.999774,2.52088 -4.766307,1.7632 -2.499812,-0.84973 -3.766382,-3.51223 -5.532922,-5.36748 -5.226271,-5.8065 -10.172559,-11.87501 -15.358842,-17.71691 -1.25324,-1.6499 -1.693205,-4.46817 0.01339,-5.96228 4.879631,-5.02758 10.192566,-10.06224 16.898726,-12.05203 5.566243,-1.96854 12.192408,-0.19827 17.092045,-4.20617 6.659492,-6.64207 13.41898,-13.17085 20.258468,-19.60757 M 73.13877,219.3944 c 2.173178,-1.14006 3.96637,-2.91033 5.77957,-4.58148 2.726459,-2.57043 5.499585,-5.16919 7.566092,-8.39818 -4.806305,3.8592 -9.199311,8.33445 -13.345662,12.97966 m -2.999773,4.68769 c -5.586242,2.18806 -11.679116,0.22659 -17.318693,2.08891 -3.886368,1.30293 -7.786072,2.98115 -10.885848,5.85607 0.106667,1.96147 1.833198,3.16525 2.913118,4.58148 5.672906,6.02601 10.705859,12.68932 16.405425,18.6941 0.5133,0.63729 1.533223,1.55784 2.279832,0.71518 4.706311,-5.54449 7.619428,-12.88759 7.666087,-20.38648 0.01338,-3.3706 1.106587,-6.53585 2.059845,-9.69402 -0.91326,-0.82141 -1.659877,-2.77579 -3.119766,-1.85524 M 39.694629,239.9579 c 1.899855,3.32104 4.619653,5.97645 7.012802,8.88679 2.633134,2.87492 5.012955,6.03309 7.852746,8.6885 -4.266353,-6.46505 -9.74594,-11.89624 -14.865548,-17.57529 z"
       id="path92"
       inkscape:connector-curvature="0"
       style="opacity:1;fill:#865127;fill-opacity:1" />
    <path
       d="m 177.49451,188.16725 c 0.64455,-1.32239 1.27802,-2.65041 1.88932,-3.98971 16.40244,15.45748 32.81542,30.90812 49.1715,46.42436 1.8596,1.8279 4.1828,3.19923 5.47812,5.67041 0.69478,1.97952 1.01128,4.64205 -0.38848,6.31839 -1.52692,2.13937 -2.88922,4.45708 -4.66014,6.33501 -1.80518,1.83611 -4.52751,1.29888 -6.24567,-0.38688 -12.62116,-11.87381 -25.21141,-23.78681 -37.82226,-35.67368 -3.71576,-3.05002 -6.85773,-6.90629 -10.56783,-9.95038 -1.54113,-1.33943 -3.01557,-2.77 -4.47481,-4.22638 -0.0498,-0.67819 -0.0888,-1.35696 -0.12758,-2.0295 0.77861,-0.57389 1.54511,-1.17834 2.31703,-1.78308 9.22252,9.01871 18.77881,17.58799 27.9967,26.6257 3.40997,2.86697 6.57991,6.09075 9.80627,9.23645 5.6418,4.78055 10.62562,10.5594 16.48195,15.02204 1.42389,-2.13994 3.0508,-4.09116 4.53111,-6.17798 0.2567,-0.73879 -0.23848,-1.30498 -0.68393,-1.71774 -12.37589,-11.7124 -24.80252,-23.3408 -37.14211,-35.09268 -3.31747,-2.72838 -6.18967,-6.09349 -9.4358,-8.932 -2.08216,-1.83438 -4.15403,-3.68183 -6.12339,-5.67235 z"
       id="path94"
       inkscape:connector-curvature="0"
       style="opacity:1;fill:#865127;fill-opacity:1" />
    <path
       d="m 97.488621,46.125524 c 3.237439,7.598088 6.937369,15.216337 12.810509,21.106369 7.41479,7.779481 17.62441,12.152915 24.77564,20.229673 -1.79029,-3.118846 -4.53043,-5.512147 -7.20592,-7.824829 -3.68999,-2.982808 -7.43965,-5.890032 -11.13462,-8.862762 -2.23288,-1.803788 -4.28674,-4.035857 -5.17692,-6.842313 -0.80066,-2.458801 -0.5321,-5.093947 -0.2934,-7.618249 1.17859,1.965027 2.14834,4.056012 3.48111,5.920265 2.80976,4.116475 6.56441,7.462052 10.6025,10.303782 4.68957,3.421153 10.04055,6.167151 13.60124,10.933592 -1.80023,-3.516886 -4.61994,-6.358616 -7.65349,-8.797262 -2.50143,-2.085943 -5.24655,-3.965315 -7.17608,-6.650849 6.38039,-3.904856 14.14827,-4.161821 21.38401,-3.612618 3.93367,0.559275 8.0414,1.345282 11.31861,3.768816 -2.93905,3.652927 -7.07164,5.975686 -10.31405,9.311184 -1.7704,1.713098 -3.29215,3.693238 -4.45086,5.879961 4.23702,-5.436567 10.61245,-8.348832 15.87888,-12.576154 5.01779,-3.788969 9.03102,-8.837572 11.73137,-14.551253 0.3332,3.033189 0.59677,6.298152 -0.84541,9.099573 -1.84997,3.834315 -5.58969,6.106686 -8.74259,8.716643 -4.9581,4.151744 -10.73677,7.693826 -14.15324,13.377283 6.80808,-7.749251 16.45576,-12.042073 23.76611,-19.211892 5.79855,-5.592764 9.82671,-12.772655 12.89009,-20.194404 0.27351,-0.478655 0.30833,-1.380555 1.03936,-1.345281 1.41235,3.133963 2.24284,6.691158 1.477,10.117353 -0.78077,3.496737 -2.98382,6.419081 -5.28136,9.054227 -2.90923,3.275041 -6.10688,6.283039 -9.04097,9.532883 4.21215,-3.078534 7.87231,-6.857427 11.50262,-10.606093 1.02941,-1.042971 2.3224,-1.748365 3.64523,-2.337872 -0.10445,2.756069 -0.76088,5.774145 -3.03852,7.542671 -2.94901,2.292527 -6.54451,3.526963 -9.51839,5.789258 2.8595,-1.128627 5.51013,-2.700647 8.29502,-3.990506 1.38747,-0.660048 2.95895,-0.529048 4.45086,-0.524006 -0.79568,2.71576 -3.41646,4.146702 -5.82839,5.124174 -2.6357,1.108478 -5.46039,1.597217 -8.17068,2.463843 2.0638,-0.120929 4.07787,-0.665091 6.14665,-0.735626 1.22834,0.0403 2.88436,1.839061 1.51181,2.836687 -1.23332,1.340247 -3.16782,0.967395 -4.76416,0.780972 -5.42557,-0.710436 -11.30866,-0.690281 -16.18223,2.15145 -1.09407,0.53912 -2.02403,2.065794 -0.84543,3.043265 1.42229,2.055721 4.25693,1.944875 6.18645,0.725551 -0.29838,1.435978 -0.49233,3.028154 -1.59633,4.096312 -2.43679,2.75103 -7.28052,1.85922 -9.06087,-1.209249 -0.64649,-1.128622 -1.07914,-2.363061 -1.63612,-3.531996 -1.37754,0.387966 -2.74512,0.816244 -4.05302,1.400704 0.84541,0.05038 1.70077,0.07053 2.55117,0.09573 1.59634,2.378192 3.14295,5.189681 6.05217,6.086541 3.87896,1.45109 8.59837,-1.43598 9.08075,-5.597797 0.43763,-2.126262 -0.85039,-3.985472 -1.24823,-5.990807 1.16369,-0.287191 2.46164,-0.861585 3.60545,-0.181388 1.72067,0.86159 2.15332,2.89715 2.44175,4.640485 -1.11893,-1.148783 -2.35722,-2.30765 -4.00329,-2.519262 1.01947,0.695318 2.17322,1.254595 2.94403,2.262295 0.9598,1.294904 1.24327,2.932422 1.661,4.459086 -1.17861,-1.078233 -2.4716,-2.050675 -4.0033,-2.534372 1.37754,1.10847 2.98383,2.181681 3.54081,3.9754 0.72109,1.66271 0.41276,3.70834 -0.71612,5.10905 -0.4774,-2.13129 -1.77537,-3.93004 -3.58555,-5.09394 l -0.11935,0.15116 c 1.61125,1.57705 3.18772,3.76881 2.62575,6.16715 -0.24865,1.390628 -1.57147,2.040588 -2.67549,2.645218 -0.0249,-2.216938 -0.552,-4.514508 -2.10856,-6.157068 0.67633,2.06579 1.82511,4.373428 0.82055,6.524888 -0.62163,1.27474 -2.0837,1.55691 -3.32199,1.79875 0.79569,-2.615 0.14422,-5.431528 -1.30292,-7.683748 0.62659,2.09099 1.50185,4.519558 0.38292,6.595428 -0.80563,1.38055 -2.6009,1.12359 -3.93367,0.9825 1.41731,-2.11114 0.97969,-4.831928 0.0696,-7.053928 0.34314,2.12123 0.75093,5.083878 -1.38748,6.368698 -1.62619,0.16123 -2.69538,-1.32513 -3.47118,-2.54949 2.24284,-0.85655 1.74554,-3.471548 1.47698,-5.360988 -0.25859,1.27474 0.0547,2.84676 -0.92995,3.84943 -0.88023,0.811208 -1.99915,0.0202 -2.90921,-0.28719 1.18855,2.504138 2.88933,4.897448 5.41562,6.146988 4.23702,2.11115 9.51341,1.41583 13.35259,-1.25963 4.97302,-3.72347 6.89759,-10.797548 4.96308,-16.677508 -0.51222,-1.763479 -1.40736,-3.370769 -2.36218,-4.917599 3.33193,-0.15619 6.0472,2.211914 7.90711,4.766448 3.82425,5.245101 5.77865,11.533181 8.1309,17.518939 -3.0982,-2.93243 -5.89801,-6.242728 -9.42389,-8.676328 3.73474,4.307928 6.9871,9.064288 9.47859,14.223738 -3.44631,-2.87196 -7.05175,-5.59276 -11.02521,-7.67871 2.86944,2.98785 6.09695,5.6633 8.62324,8.99376 3.25733,4.0409 5.85822,8.87285 6.38536,14.1381 -3.63029,-6.16715 -8.59836,-11.76495 -15.18264,-14.71248 -5.66927,-2.615 -12.46243,-3.01304 -18.16649,-0.29728 -5.62449,2.58476 -9.54821,8.11706 -10.99038,14.1129 -0.80067,2.85684 -0.77083,5.84973 -1.26813,8.75696 -0.47243,-4.22732 -1.0145,-8.61587 0.26357,-12.76258 0.64152,-2.62507 2.16825,-4.85714 3.51593,-7.14462 -1.89472,1.85921 -3.36177,4.12655 -4.57021,6.48962 -2.29257,4.62536 -2.87441,9.82511 -3.9635,14.80821 -0.98467,-5.34083 -1.76543,-10.86809 -4.34644,-15.72019 -1.26314,-2.1716 -2.69537,-4.26763 -4.50059,-6.01096 1.18359,1.82395 2.48652,3.61262 3.26231,5.66835 1.83505,4.75132 1.84002,10.1375 0.53709,15.01479 0.30832,-6.63069 -1.37753,-13.64936 -5.83834,-18.68284 -4.1674,-4.76141 -10.74671,-7.03882 -16.93316,-6.25281 -6.68374,0.71547 -12.755816,4.47924 -17.221599,9.44723 -2.043918,2.18168 -3.560681,4.77148 -5.241575,7.22524 0.845421,-7.71902 5.833373,-14.13809 11.194284,-19.34289 1.24824,-1.28986 2.68545,-2.38322 3.87897,-3.73354 -4.03313,1.98518 -7.588845,4.80171 -11.050062,7.66359 2.396994,-5.15441 5.684166,-9.86039 9.394042,-14.122978 -3.51593,2.3933 -6.385376,5.617948 -9.364207,8.641068 2.23786,-5.930348 4.22706,-12.082378 7.892187,-17.302292 1.89971,-2.660334 4.69454,-5.214868 8.16573,-5.023403 -2.6755,3.778889 -3.75961,8.686406 -2.74512,13.241237 0.84542,3.48162 2.84954,6.741548 5.84828,8.726718 4.08783,2.5243 9.6079,2.98281 13.75043,0.33758 2.04888,-1.31001 3.41646,-3.39596 4.42102,-5.577638 -0.90013,0.31239 -1.91959,1.007698 -2.82966,0.32247 -0.90509,-0.92206 -0.67632,-2.36307 -0.96974,-3.53705 -0.34314,1.87937 -0.48239,4.217248 1.57645,5.124178 -0.9747,1.04801 -2.19807,3.00295 -3.84415,2.23206 -1.83007,-1.46117 -1.49191,-4.151738 -1.06919,-6.207458 -1.00953,2.22703 -1.3129,4.957908 0.0104,7.124468 -1.32283,0.0202 -3.07334,0.36278 -3.90383,-0.99258 -1.03439,-1.92472 -0.21881,-4.136628 0.0149,-6.162118 -1.10899,2.20687 -1.72564,4.786598 -0.91504,7.205088 -1.37256,-0.24185 -3.01864,-0.65501 -3.52588,-2.15649 -0.7161,-2.398328 0.51223,-4.746288 1.40241,-6.912848 -1.57646,1.99021 -2.57106,4.37343 -2.58101,6.953158 -1.16369,-0.70036 -2.49646,-1.49644 -2.69041,-2.987848 -0.37297,-2.44872 1.35267,-4.42381 2.83961,-6.11676 -2.1235,1.04297 -3.12308,3.19442 -4.08287,5.22999 -0.63158,-1.54179 -1.20347,-3.2952 -0.552,-4.93776 0.55698,-1.904559 2.23786,-3.05838 3.66015,-4.272666 -1.50186,0.564315 -2.81474,1.501482 -3.99334,2.589808 0.368,-2.826614 1.82012,-5.623 4.63485,-6.590395 -1.69083,0.0403 -2.96392,1.224362 -4.06793,2.388259 0.31827,-1.587129 0.55697,-3.471538 2.0638,-4.383509 1.17862,-0.947246 2.71031,-0.423239 3.98837,-0.0151 -0.38789,1.98014 -1.70077,3.814157 -1.27309,5.910182 0.47244,4.030831 4.90341,6.973321 8.73761,5.754001 3.07334,-0.78097 4.77411,-3.683166 6.38039,-6.182271 0.88521,-0.03527 1.77538,-0.06549 2.66556,-0.115893 -1.34272,-0.493774 -2.69539,-0.952272 -4.03812,-1.435978 -0.93989,1.496444 -1.27806,3.370777 -2.57105,4.630406 -2.12347,2.181686 -6.07206,2.549496 -8.20052,0.181386 -1.13384,-1.048012 -1.30293,-2.665378 -1.64607,-4.086242 1.57147,0.77594 3.63528,1.370484 5.18189,0.211625 0.8106,-0.634857 1.83504,-1.516605 1.51679,-2.690569 -1.06922,-1.657675 -3.07831,-2.227033 -4.81887,-2.836689 -4.50061,-1.496443 -9.31946,-1.093365 -13.93941,-0.49378 -1.31785,0.176351 -2.89927,0.02015 -3.74468,-1.153818 -0.88521,-0.99259 0.45751,-2.342914 1.44714,-2.559569 2.06878,-0.0907 4.1127,0.503853 6.16655,0.71043 l 0.0104,-0.216655 c -4.00827,-0.957323 -8.23534,-1.828985 -11.621974,-4.343209 -1.074173,-0.720506 -1.66596,-1.894484 -2.113548,-3.073498 1.606302,0.0151 3.317019,-0.10581 4.789047,0.685239 2.665535,1.325133 5.276375,2.776224 8.031425,3.899815 -3.06836,-2.352991 -6.84785,-3.562237 -9.82172,-6.046229 -2.158305,-1.758443 -2.670525,-4.680786 -2.849556,-7.320974 3.396585,1.189097 5.375846,4.388554 7.951886,6.706278 2.35721,2.13633 4.6448,4.373434 7.20591,6.262883 -3.8342,-4.494363 -8.46906,-8.283333 -11.845752,-13.175739 -1.680882,-2.473914 -2.874416,-5.41137 -2.740143,-8.459678 0,-2.680492 0.984669,-5.204793 1.919594,-7.66863 m 35.263751,45.119962 c -1.42727,1.249557 -1.43721,3.295197 -0.98467,5.008297 0.0498,-1.91968 0.73601,-4.06104 2.65064,-4.82691 3.79939,-1.63248 8.29002,-1.667747 12.08942,-0.005 1.88478,0.786 2.61084,2.83668 2.73019,4.75132 0.30833,-1.47125 0.42272,-3.1642 -0.58681,-4.40367 -1.58641,-1.959978 -4.25692,-2.438637 -6.60915,-2.685528 -3.16783,-0.17635 -6.73846,0.02519 -9.28962,2.16152 m 2.79484,3.224658 c -1.62619,0.84143 -2.17819,2.94249 -1.41235,4.57498 1.62619,4.449018 4.15248,8.474798 6.34062,12.651728 2.22791,-4.31298 4.9233,-8.43954 6.45997,-13.080008 0.92995,-2.16153 -0.8305,-4.30793 -2.88437,-4.74628 -2.76997,-0.76082 -5.9179,-0.78098 -8.50387,0.59958 z"
       id="path58"
       inkscape:connector-curvature="0"
       style="opacity:1;fill:#865127" />
    <path
       d="m 169.77656,111.22323 c 4.20719,1.07321 8.17069,3.14908 11.26392,6.26289 3.67009,3.663 6.68872,8.03644 8.79231,12.80288 -3.29713,-3.35061 -6.30083,-7.22523 -10.43342,-9.55807 2.46166,2.07587 4.1127,4.92768 5.87811,7.59809 3.09323,4.9176 4.27682,10.83786 3.97347,16.61705 -0.0597,4.27267 -0.80067,8.48991 -1.2383,12.72731 -1.09405,-6.38382 -2.63569,-12.8432 -6.18644,-18.34023 2.25278,6.88767 3.96848,14.16833 3.08328,21.46915 -0.69125,6.65085 -3.07831,13.0145 -6.11682,18.90957 0.6614,-6.34854 1.16369,-12.86334 -0.1293,-19.1615 -0.38293,9.64877 -1.41235,19.72078 -6.35057,28.21069 -3.95852,7.06905 -10.08529,12.43507 -15.5805,18.20922 2.53128,0.29224 4.67465,-1.84913 7.24073,-1.34528 2.38706,0.21161 3.6154,2.54949 5.37088,3.87966 1.34272,1.1639 3.45128,1.54179 4.95314,0.44842 2.12348,-1.41077 4.28674,-2.94249 6.86775,-3.3103 2.56609,-0.34262 5.15702,-0.64997 7.61867,-1.51659 2.38208,-0.89183 4.94321,-0.89183 7.41977,-1.3201 1.9345,-0.35774 3.34684,-1.83402 4.79399,-3.05334 2.36717,-2.0003 5.53499,-2.97777 8.59837,-2.64523 3.40653,0.25697 6.55446,1.72317 9.65762,3.06846 -3.85409,2.50414 -8.98626,2.40338 -12.48229,5.60788 0.8106,3.37077 4.46079,4.61025 6.29585,7.15974 -0.12929,0.10581 -0.37795,0.31239 -0.50228,0.41316 -2.80976,0.36278 -5.59466,-0.57439 -8.40939,-0.5089 -2.73516,-0.16122 -5.36093,0.67014 -8.02149,1.13367 0.21384,-1.21428 0.57189,-2.39833 0.92995,-3.57734 -2.61085,0.20657 -5.17196,0.80112 -7.75792,1.2042 -2.89927,0.56431 -5.97261,1.0984 -8.33978,3.02815 -3.133,2.34292 -7.29543,3.73859 -11.09979,2.31773 -3.51594,-1.30498 -7.21089,-2.43865 -10.99537,-1.79876 1.83505,0.65501 3.82426,1.25963 5.13713,2.8115 2.19312,2.4588 2.75009,5.91019 2.84457,9.10965 -0.0104,4.75636 -1.03437,9.44219 -2.29753,14.00205 -1.33775,-0.27208 -2.949,-0.80112 -2.99874,-2.4588 -0.19891,-4.42886 -0.71611,-8.86276 -1.97926,-13.12534 0.69125,7.13454 -0.184,14.36482 -2.16327,21.23232 -1.22834,4.35833 -2.93408,8.62596 -5.49022,12.37462 0.0896,0.15116 0.26853,0.44843 0.35805,0.59958 -0.27848,-0.0554 -0.84044,-0.16123 -1.11893,-0.21666 1.45711,-9.90069 1.60132,-20.29516 -1.50683,-29.89355 1.02942,8.86276 1.22835,17.98753 -0.89514,26.70417 -1.16369,4.42887 -3.21755,9.155 -7.42473,11.38202 -0.97472,0.72555 -1.98922,-0.16123 -2.82468,-0.66508 -4.01821,-2.90723 -5.75877,-7.92056 -6.75835,-12.6215 -1.55158,-8.16241 -1.56649,-16.61201 -0.36303,-24.81977 -3.36176,9.68405 -2.949,20.2851 -1.59633,30.32687 -3.02859,-3.47658 -4.61996,-7.95582 -6.01241,-12.30407 -2.04392,-7.12951 -3.29711,-14.67722 -2.31245,-22.09392 -1.25818,3.76378 -1.81018,7.74925 -1.94445,11.70952 -0.0795,1.02786 -0.0747,2.23711 -0.87526,3.00801 -0.65146,0.49881 -1.49688,0.61469 -2.24781,0.88173 -1.39244,-5.05867 -2.55115,-10.2937 -2.213,-15.57407 0.20888,-2.84677 1.00457,-5.83965 3.08328,-7.88529 1.18359,-1.20924 2.8197,-1.72317 4.33151,-2.3681 -1.98921,0.21161 -4.05301,0.12092 -5.94773,0.85151 -1.62122,0.58447 -3.02859,1.63752 -4.62493,2.28245 -2.50641,1.04801 -5.44049,0.88174 -7.86236,-0.32247 -1.26812,-0.57943 -2.47657,-1.45613 -3.923715,-1.44101 -2.551163,-0.11085 -4.978003,0.89182 -7.50928,1.01778 -2.740132,0.36277 -5.465352,-0.23681 -8.115977,-0.88678 -3.40155,-0.79609 -6.8777,-0.16124 -10.304121,0.0403 1.178612,-1.69294 3.247396,-2.42353 5.022763,-3.31031 3.227498,-1.45613 6.643966,0.5492 9.960978,-0.11084 3.635285,-0.62478 7.265595,-1.91464 11.000344,-1.38559 1.979248,0.42827 3.719818,2.29252 5.863198,1.54178 3.79442,-1.07321 7.42473,-3.25992 11.49764,-2.86188 -1.81018,-1.15382 -3.59053,-2.41345 -5.65931,-3.05838 -4.12264,-1.47629 -8.53371,-0.393 -12.780687,-0.7054 -2.392018,-0.12092 -4.172365,-2.11617 -6.544498,-2.34795 -4.043078,-0.49378 -8.359661,-1.19413 -11.522504,-4.03082 -2.158302,-1.63752 -3.665127,-4.26763 -6.400287,-5.00325 -4.634863,-1.26467 -9.359245,0.17131 -13.879732,1.22437 3.650212,-2.11114 7.598795,-3.88975 11.751273,-4.66065 3.953548,-0.78096 8.115978,0.67517 10.900875,3.5824 1.327803,1.51659 3.282205,2.23207 5.261468,2.1716 3.317007,-0.0504 6.310772,1.56698 9.508429,2.20184 4.754213,1.09336 9.732213,-0.95229 14.416803,0.64997 3.46124,1.34024 6.44505,3.69827 9.90131,5.05363 0.8305,0.41316 1.76045,0.26705 2.64565,0.14613 -6.14666,-6.14701 -12.7409,-12.17812 -16.68452,-20.10875 -3.98339,-7.95079 -4.85367,-16.9899 -5.30621,-25.75693 -1.40738,6.15203 -0.60671,12.556 -0.16411,18.78361 -3.033551,-6.3687 -5.689153,-13.09008 -6.18645,-20.21959 -0.537092,-6.8927 0.999568,-13.77029 3.247377,-20.23974 -3.65517,5.44664 -5.14211,11.96648 -6.20136,18.36541 -0.924987,-7.88529 -2.441762,-16.14847 0.134273,-23.87756 1.531686,-4.82691 4.769127,-8.762 7.66344,-12.79281 -3.719826,2.76111 -6.917494,6.18226 -9.951032,9.68908 4.082862,-8.6713 10.627362,-17.39299 20.409312,-19.50916 -3.19766,4.55986 -5.76872,9.62357 -7.06668,15.08534 -2.15332,8.57556 -1.68088,17.59956 0.0747,26.20032 1.49688,7.33105 3.84415,14.47064 6.69867,21.36837 0.80563,2.04061 1.83007,4.10136 3.60048,5.45672 1.32282,1.11351 3.52587,1.34529 4.81388,0.0554 1.20846,-1.14375 1.60132,-2.82157 2.08868,-4.35328 0.0846,2.84676 1.1438,5.67337 3.03354,7.79459 1.48197,1.61232 3.87896,2.74096 6.02233,1.80379 2.44674,-1.13367 3.47118,-3.94012 3.85908,-6.45938 0.2039,2.17663 0.53709,4.52963 2.03398,6.22761 1.64607,1.99526 4.69951,2.15144 6.89261,1.08832 2.53126,-1.47629 3.08327,-4.66568 3.43635,-7.34617 0.22877,2.46889 1.25322,5.13427 3.51594,6.3687 1.93452,1.01778 4.26188,0.21162 5.77867,-1.18909 2.29256,-2.11114 3.32694,-5.26526 3.61538,-8.31357 0.37299,1.57706 0.77083,3.30527 2.03397,4.42887 1.21342,1.16389 3.19766,1.02786 4.50059,0.0907 2.07376,-1.3856 3.11809,-3.77386 4.03313,-6.01096 4.13756,-10.23324 7.37004,-21.00056 7.98171,-32.09539 0.50228,-9.14996 -1.2731,-18.58712 -6.01737,-26.46736 -0.76584,-1.2697 -1.60629,-2.48903 -2.37213,-3.7537 m -53.64407,71.50168 c -0.0696,1.49644 -0.20886,3.08358 0.43267,4.48428 0.90509,2.46384 3.74469,4.14167 6.2859,3.28008 1.9544,-0.52904 3.28221,-2.18168 4.39119,-3.78393 -0.552,-0.21666 -1.09904,-0.42827 -1.65106,-0.62982 -1.05924,1.66272 -2.82964,3.37582 -4.96308,2.70066 -2.29753,-0.89687 -2.83461,-3.65798 -2.70532,-5.87996 -0.59676,-0.0605 -1.19352,-0.11589 -1.7903,-0.17131 m 46.88075,0.15116 c 0.12433,2.19679 -0.3481,4.98309 -2.64565,5.87492 -2.10857,0.76081 -3.97344,-1.02786 -5.01778,-2.69562 -0.53709,0.22673 -1.06921,0.45851 -1.59634,0.69028 1.09903,1.59721 2.4318,3.22969 4.37625,3.74866 2.37711,0.81624 5.05758,-0.62982 6.07208,-2.87196 0.82055,-1.47629 0.69622,-3.20954 0.67136,-4.83698 -0.62661,0.0252 -1.24326,0.0554 -1.85992,0.0907 m -12.33808,4.056 c -0.82552,1.51156 -1.90467,3.16924 -3.71984,3.48666 -1.89968,0.37789 -3.46619,-1.01274 -4.73928,-2.22702 -0.3332,0.66004 -0.79071,1.29993 -0.86033,2.06075 1.20845,1.81891 3.54576,2.50918 5.61455,2.19176 2.67547,-0.31239 4.78902,-2.66538 5.24654,-5.29045 -0.5172,-0.0756 -1.02942,-0.15116 -1.54164,-0.2217 m -20.98618,2.68049 c 1.96931,3.47659 7.56896,3.99052 9.90627,0.67517 -0.0198,-0.76082 -0.49233,-1.40071 -0.74098,-2.08595 -1.47202,1.20924 -3.21755,2.76111 -5.26644,2.12122 -1.67591,-0.41819 -2.42684,-2.13129 -3.40155,-3.38589 -0.31827,0.0453 -0.95482,0.14108 -1.2731,0.18643 -0.3332,0.83135 0.42272,1.74333 0.7758,2.48902 m -8.52875,3.72852 c 0.8504,3.23977 3.97842,6.03111 7.41975,5.34082 2.41193,-0.34261 4.10276,-2.39329 4.96309,-4.56489 -0.5719,-0.0907 -1.13882,-0.17635 -1.70077,-0.25697 -0.84541,2.16657 -3.34187,3.52193 -5.56482,2.70065 -1.70574,-0.4585 -2.64565,-2.09602 -3.18771,-3.67308 -0.65148,0.14612 -1.28801,0.29727 -1.92954,0.45347 m 36.71587,-0.49882 c -0.53708,1.34529 -1.15871,2.83669 -2.57105,3.44131 -2.24781,1.2546 -5.29628,0.0806 -6.14169,-2.37818 -0.58185,0.0554 -1.15871,0.11085 -1.73061,0.17131 0.82055,2.38322 2.83959,4.51452 5.44546,4.67072 3.27225,0.35269 6.09693,-2.31773 6.88268,-5.39627 -0.63158,-0.17131 -1.25818,-0.34261 -1.88479,-0.50889 m -22.99031,1.50652 c -0.38292,3.58239 3.4115,5.91018 6.58428,5.22495 2.63571,-0.13604 4.84375,-2.50919 4.61001,-5.21991 -0.26854,-0.0252 -0.80065,-0.0756 -1.06422,-0.0957 -0.44261,1.41079 -0.99958,3.06342 -2.57107,3.51689 -2.0837,0.43332 -5.12719,0.46355 -5.94277,-2.00029 -0.38788,-0.62981 -0.46249,-2.48399 -1.61623,-1.4259 m -6.32072,5.67338 c 0.56195,1.67782 1.31289,3.56727 3.08826,4.24747 2.95397,1.22436 6.20634,-0.6147 7.79272,-3.17931 -0.36799,-0.12596 -1.104,-0.37285 -1.46703,-0.49881 -1.30293,1.27474 -2.98879,2.61499 -4.92331,2.19176 -1.52173,-0.40813 -2.2478,-1.95998 -2.82467,-3.29016 -0.41774,0.13101 -1.24823,0.39804 -1.66597,0.52905 m 19.41968,2.71072 c -1.93452,0.55424 -3.67009,-0.83639 -4.96805,-2.11618 -0.37299,0.11589 -1.1239,0.34766 -1.49688,0.46355 1.52671,2.44871 4.51053,4.28274 7.4098,3.32542 1.97928,-0.51896 2.7849,-2.60491 3.49107,-4.32808 -0.42767,-0.14613 -1.288,-0.44341 -1.71569,-0.58952 -0.55698,1.30498 -1.22835,2.85181 -2.72025,3.24481 m -23.63183,15.4985 c 0.26356,0.73562 0.87027,2.14138 1.86489,1.52163 -0.46747,-3.83935 -0.37298,-7.83994 1.23331,-11.41729 0.36302,-1.06817 -1.32284,-0.86663 -1.92955,-1.00266 -2.56607,2.96264 -2.3224,7.37135 -1.16865,10.89832 m 3.56567,-6.15204 c -0.46747,2.877 -0.95981,6.22762 0.82551,8.76199 0.66638,1.03794 1.95441,0.82128 2.90425,0.3527 -0.94487,-2.64018 -1.21839,-5.49703 -0.85536,-8.27325 0.14919,-1.89448 0.89515,-3.68316 0.97969,-5.58268 -2.63073,-0.29728 -3.48609,2.68553 -3.85409,4.74124 m 4.43096,3.44131 c 0.0646,2.31269 0.14919,4.99318 2.00413,6.64077 0.95979,-1.17901 1.85992,-2.40337 2.78987,-3.61262 -0.87526,-0.27712 -2.0837,-0.48873 -2.23787,-1.61232 -0.44757,-2.68554 0.28844,-5.37611 0.68131,-8.02637 0.33817,-0.84647 -0.47741,-1.35536 -1.0145,-1.78868 -1.97926,2.30261 -2.11851,5.50207 -2.22294,8.39922 m 13.02436,-6.6055 c 0.38293,2.6553 1.11893,5.36603 0.65146,8.06163 -0.18897,1.06817 -1.33774,1.35033 -2.20801,1.5821 0.94486,1.25459 1.84499,2.56461 3.02856,3.61766 2.0837,-2.7863 1.85495,-6.49465 1.55159,-9.78481 -0.28844,-1.76852 -0.56692,-3.78393 -1.94445,-5.04356 -0.92498,-0.1562 -1.24823,0.80616 -1.07915,1.56698 m 3.75464,-1.27474 c 1.05428,4.41374 1.84499,9.15499 0.21882,13.54858 1.00951,0.6147 2.45169,0.53912 3.04846,-0.61469 1.77039,-2.99792 1.01946,-6.73147 0.29838,-9.94102 -0.368,-1.57705 -1.61624,-3.98546 -3.56566,-2.99287 m 4.01322,0.29727 c 2.14836,3.58742 2.04891,8.00621 1.5516,12.03199 1.5665,0.0101 1.93949,-1.72822 2.26769,-2.9425 0.81558,-3.23473 0.77083,-7.12447 -1.57644,-9.71931 -0.77579,0.11085 -1.54164,0.27208 -2.24285,0.62982 m -17.16191,8.0818 c 1.38748,1.56194 3.63529,1.37552 5.52006,1.34024 1.30294,-0.0907 3.18273,-0.2368 3.47118,-1.86424 -0.15914,-1.87434 -0.0398,-4.06106 -1.34769,-5.56254 -2.06879,0.0453 -4.14254,0.0554 -6.21132,-0.0101 -1.58142,1.56698 -1.21342,4.05601 -1.43223,6.09661 z"
       id="path68"
       inkscape:connector-curvature="0"
       style="opacity:1;fill:#865127" />
    <path
       d="m 136.72085,97.982002 c -1.59138,-0.8112 0.44756,-2.25223 1.18357,-2.94754 0.25362,0.58447 1.05429,1.0984 0.77082,1.80883 -0.31828,0.75074 -1.22835,0.99762 -1.95439,1.13871 z"
       id="path60"
       inkscape:connector-curvature="0"
       style="opacity:1;fill:#865127" />
    <path
       d="m 142.43485,97.135522 c -0.56196,-0.74066 0.24368,-1.45109 0.55697,-2.09602 0.69623,0.66508 1.90469,1.27978 1.83506,2.38826 -0.51222,1.04801 -1.80521,0.25696 -2.39203,-0.29224 z"
       id="path62-4"
       inkscape:connector-curvature="0"
       style="opacity:1;fill:#865127" />
    <path
       d="m 113.82502,110.45738 c 1.27309,-1.15886 3.69993,-0.0453 3.49106,1.74333 0.0896,1.3604 -1.3626,2.46888 -2.64068,2.11113 -1.72564,-0.27207 -2.29256,-2.86187 -0.85038,-3.85446 z"
       id="path64-8"
       inkscape:connector-curvature="0"
       style="opacity:1;fill:#865127" />
    <path
       d="m 163.59509,112.23094 c -0.11935,-2.44368 3.19268,-2.89211 4.31162,-1.02282 -0.0104,0.66005 -0.015,1.32009 -0.015,1.98014 -1.13386,1.80379 -4.25692,1.4007 -4.29669,-0.95732 z"
       id="path66-3"
       inkscape:connector-curvature="0"
       style="opacity:1;fill:#865127" />
    <path
       d="m 118.86766,113.45027 c 2.22793,-0.74571 3.00868,3.17426 0.72608,3.46649 -2.16826,0.60463 -2.96891,-3.15411 -0.72608,-3.46649 z"
       id="path70"
       inkscape:connector-curvature="0"
       style="opacity:1;fill:#865127" />
    <path
       d="m 160.38748,113.677 c 0.89018,-0.21666 2.05387,-0.53913 2.68544,0.38292 1.21342,1.3201 -0.56693,3.6882 -2.14338,2.67546 -1.30294,-0.46355 -1.0493,-2.06076 -0.54206,-3.05838 z"
       id="path72"
       inkscape:connector-curvature="0"
       style="opacity:1;fill:#865127" />
    <path
       d="m 124.30816,114.43781 c 2.15829,-1.08832 3.73474,2.58476 1.54164,3.50681 -2.20305,1.10344 -3.81929,-2.58476 -1.54164,-3.50681 z"
       id="path74"
       inkscape:connector-curvature="0"
       style="opacity:1;fill:#865127" />
    <path
       d="m 155.13098,114.45293 c 1.58641,-0.9019 3.43638,1.3604 2.31247,2.78126 -0.67136,1.25963 -2.72025,1.0984 -3.24739,-0.21162 -0.52714,-0.92205 0.0149,-2.15649 0.93492,-2.56964 z"
       id="path76"
       inkscape:connector-curvature="0"
       style="opacity:1;fill:#865127" />
    <path
       d="m 112.19386,117.24427 c 1.2532,-1.48132 3.90384,-0.94221 4.55529,0.8767 0.82553,1.73326 -0.67135,4.05097 -2.58597,3.8847 -1.03936,0.0101 -1.79526,-0.74066 -2.5462,-1.34528 -0.20885,-1.14879 -0.40777,-2.5495 0.57688,-3.41612 z"
       id="path78"
       inkscape:connector-curvature="0"
       style="opacity:1;fill:#865127" />
    <path
       d="m 165.07207,116.95203 c 1.54662,-1.29489 4.20718,-0.24688 4.42103,1.78868 0.51221,2.18672 -2.14338,4.06104 -4.02319,2.94754 -1.76044,-0.85655 -1.99916,-3.60255 -0.39784,-4.73622 z"
       id="path80"
       inkscape:connector-curvature="0"
       style="opacity:1;fill:#865127" />
    <path
       d="m 119.38486,118.53413 c 0.79071,-1.0984 1.94445,0.10077 1.83505,1.10847 -0.30335,0.16124 -0.91006,0.47867 -1.21342,0.6399 -0.34314,-0.4837 -1.41233,-1.15886 -0.62163,-1.74837 z"
       id="path82-7"
       inkscape:connector-curvature="0"
       style="opacity:1;fill:#865127" />
    <path
       d="m 159.76089,119.79376 c -0.0199,-1.09839 0.44756,-1.7786 1.59136,-1.68287 0.14919,0.31239 0.44757,0.92709 0.59676,1.23444 -0.60671,0.69028 -1.35763,0.92709 -2.18812,0.44843 z"
       id="path84"
       inkscape:connector-curvature="0"
       style="opacity:1;fill:#865127" />
    <path
       d="m 126.31726,119.07829 c 1.35267,-0.96236 2.58598,1.54683 1.0692,2.1716 -1.34272,0.60463 -2.36218,-1.50147 -1.0692,-2.1716 z"
       id="path86"
       inkscape:connector-curvature="0"
       style="opacity:1;fill:#865127" />
    <path
       d="m 152.86329,119.2748 c 0.8305,-0.45348 2.05387,-0.55929 2.397,0.5643 0.13925,1.14375 -0.94984,1.52165 -1.86986,1.57203 -0.28843,-0.6802 -0.47741,-1.40071 -0.52714,-2.13633 z"
       id="path88"
       inkscape:connector-curvature="0"
       style="opacity:1;fill:#865127" />
    <path
       d="m 120.52369,121.28517 c 0.69622,-0.65501 1.43223,-1.59722 2.51634,-1.37048 1.19353,0.12092 1.66597,1.32513 2.06879,2.29756 -0.46746,1.04298 -1.15871,2.36811 -2.52133,2.12122 -1.53169,-0.0252 -2.19808,-1.70806 -2.0638,-3.0483 z"
       id="path90"
       inkscape:connector-curvature="0"
       style="opacity:1;fill:#865127" />
    <path
       d="m 157.65231,119.99026 c 1.80522,-0.64997 3.62036,1.84411 2.38706,3.36573 -0.80563,1.30498 -2.95397,1.34025 -3.67507,-0.0554 -0.84541,-1.18909 -0.0646,-2.96769 1.28801,-3.31031 z"
       id="path92-4"
       inkscape:connector-curvature="0"
       style="opacity:1;fill:#865127" />
    <path
       d="m 116.71932,122.26264 c 1.13883,-0.8364 2.76997,0.55424 2.18316,1.80883 -0.35807,1.25459 -2.16825,1.21932 -2.74511,0.16123 -0.17406,-0.71043 -0.17903,-1.59721 0.56195,-1.97006 z"
       id="path94-9"
       inkscape:connector-curvature="0"
       style="opacity:1;fill:#865127" />
    <path
       d="m 162.46125,122.35837 c 0.99459,-0.88678 2.76996,0.11085 2.42682,1.45109 -0.0448,0.77593 -0.86033,1.18909 -1.53666,1.24956 -1.31289,-0.0353 -1.91959,-1.87433 -0.89016,-2.70065 z"
       id="path96-9"
       inkscape:connector-curvature="0"
       style="opacity:1;fill:#865127" />
    <path
       d="m 108.34972,123.46181 c 1.3079,-0.13604 2.07374,1.81386 0.88022,2.46887 -0.72608,0.64997 -1.53668,-0.0655 -2.03895,-0.6147 -0.22875,-0.87166 0.37796,-1.60225 1.15873,-1.85417 z"
       id="path98"
       inkscape:connector-curvature="0"
       style="opacity:1;fill:#865127" />
    <path
       d="m 130.14649,123.38118 c 1.75549,-0.87165 3.44632,1.77861 2.09365,3.09366 -0.98963,1.14375 -3.27226,0.46858 -3.22253,-1.14374 -0.17903,-0.87167 0.42769,-1.56698 1.12888,-1.94992 z"
       id="path100-7"
       inkscape:connector-curvature="0"
       style="opacity:1;fill:#865127" />
    <path
       d="m 149.10865,123.52227 c 1.1786,-0.8767 3.03354,0.34262 2.85452,1.78364 0.0199,1.24451 -1.4571,2.07587 -2.55116,1.61736 -1.44218,-0.43331 -1.5317,-2.64522 -0.30336,-3.401 z"
       id="path102"
       inkscape:connector-curvature="0"
       style="opacity:1;fill:#865127" />
    <path
       d="m 171.30327,123.7742 c 0.70618,-0.16124 1.66101,-0.50386 2.16826,0.27207 0.99958,0.98756 -0.63656,2.73089 -1.69581,1.92976 -0.89514,-0.3527 -0.5172,-1.49141 -0.47245,-2.20183 z"
       id="path104-1"
       inkscape:connector-curvature="0"
       style="opacity:1;fill:#865127" />
    <path
       d="m 110.93568,124.74159 c 0.49233,-0.35774 0.85039,-1.43094 1.62617,-1.04801 1.05928,-0.0705 0.92998,1.81387 0.0249,1.97006 -0.6813,0.4585 -1.13882,-0.67012 -1.65104,-0.92205 z"
       id="path106"
       inkscape:connector-curvature="0"
       style="opacity:1;fill:#865127" />
    <path
       d="m 154.6138,124.09162 c 1.31786,-0.14107 1.64607,1.98518 0.30832,2.24719 -1.56152,0.40308 -1.93451,-2.21695 -0.30832,-2.24719 z"
       id="path108-7"
       inkscape:connector-curvature="0"
       style="opacity:1;fill:#865127" />
    <path
       d="m 167.9266,123.71373 c 0.60671,-0.0151 1.49687,-0.17635 1.70078,0.61974 0.50227,0.64997 -0.5719,1.14879 -0.81062,1.65767 -0.43762,-0.36781 -0.86033,-0.72555 -1.28801,-1.08832 0.0995,-0.29727 0.29838,-0.89182 0.39785,-1.18909 z"
       id="path110-1"
       inkscape:connector-curvature="0"
       style="opacity:1;fill:#865127" />
    <path
       d="m 124.88503,125.27064 c 0.48239,-0.37789 0.87028,-1.53676 1.64607,-1.12359 1.17364,0.131 0.8852,1.50652 0.50725,2.2371 -0.91007,0.0353 -1.64607,-0.36278 -2.15332,-1.11351 z"
       id="path112"
       inkscape:connector-curvature="0"
       style="opacity:1;fill:#865127" />
    <path
       d="m 114.81465,126.48996 c 1.04434,-0.22673 2.18814,1.14375 1.57644,2.14137 -0.51222,1.4914 -3.14791,0.83135 -2.77494,-0.78601 -0.14422,-0.72555 0.66141,-1.11351 1.1985,-1.35536 z"
       id="path114"
       inkscape:connector-curvature="0"
       style="opacity:1;fill:#865127" />
    <path
       d="m 120.37449,127.08955 c 0.52714,-1.02283 2.13343,-1.12864 2.74014,-0.13605 0.65644,0.68021 0.10445,1.60729 -0.0597,2.37818 -0.80065,0.16124 -1.6212,0.20658 -2.42186,0.0504 -0.20887,-0.73562 -0.76088,-1.54178 -0.2586,-2.29252 z"
       id="path116"
       inkscape:connector-curvature="0"
       style="opacity:1;fill:#865127" />
    <path
       d="m 158.46789,126.35392 c 1.31288,-0.55928 2.83463,0.91197 2.17321,2.23207 -0.45255,1.4914 -2.87937,1.21428 -3.10316,-0.28217 -0.30833,-0.83135 0.34314,-1.49139 0.92995,-1.9499 z"
       id="path118"
       inkscape:connector-curvature="0"
       style="opacity:1;fill:#865127" />
    <path
       d="m 164.98754,129.27627 c -1.17861,-1.00771 -0.37796,-2.484 0.81557,-3.00297 0.55698,0.36278 1.11397,0.72554 1.67591,1.09337 0.0795,1.39566 -1.10402,2.69559 -2.49148,1.9096 z"
       id="path120"
       inkscape:connector-curvature="0"
       style="opacity:1;fill:#865127" />
    <path
       d="m 106.48482,129.33168 c 0.15914,-1.2294 1.52176,-2.62506 2.6755,-1.53674 1.00454,0.58446 0.34312,1.76852 0.0347,2.57468 -1.09406,0.24185 -2.04888,-0.14107 -2.7103,-1.03794 z"
       id="path122"
       inkscape:connector-curvature="0"
       style="opacity:1;fill:#865127" />
    <path
       d="m 171.7807,127.76471 c 1.10898,-1.08328 3.09321,0.50385 2.31245,1.84913 -0.34314,0.92709 -1.42726,0.73563 -2.1931,0.83136 -0.53212,-0.75578 -1.04434,-1.99526 -0.11935,-2.68049 z"
       id="path124"
       inkscape:connector-curvature="0"
       style="opacity:1;fill:#865127" />
    <path
       d="m 125.66082,128.38444 c 1.57148,-0.67516 3.40155,1.15382 2.6556,2.73088 -0.47742,1.66271 -3.08328,1.7786 -3.73972,0.21162 -0.56693,-1.07824 0,-2.46888 1.08412,-2.9425 z"
       id="path126"
       inkscape:connector-curvature="0"
       style="opacity:1;fill:#865127" />
    <path
       d="m 153.5794,128.52552 c 1.44218,-0.90693 3.44632,0.67012 2.95896,2.30765 -0.22877,1.63751 -2.59592,2.21191 -3.5408,0.89685 -0.94985,-0.93213 -0.54703,-2.63514 0.58184,-3.2045 z"
       id="path128"
       inkscape:connector-curvature="0"
       style="opacity:1;fill:#865127" />
    <path
       d="m 118.80301,129.66927 c 1.32781,-0.26704 1.56154,1.89951 0.3133,2.04564 -1.30292,0.29223 -1.76542,-2.06579 -0.3133,-2.04564 z"
       id="path130"
       inkscape:connector-curvature="0"
       style="opacity:1;fill:#865127" />
    <path
       d="m 160.68089,130.83317 c 0.42768,-0.4434 0.82552,-1.50149 1.62619,-1.11352 1.00951,-0.0605 0.96973,1.76852 0.0497,1.91464 -0.64649,0.47363 -1.14878,-0.58951 -1.67592,-0.80112 z"
       id="path132"
       inkscape:connector-curvature="0"
       style="opacity:1;fill:#865127" />
    <path
       d="m 110.67212,131.37229 c 0.0448,-1.10848 1.32282,-1.01778 2.04392,-0.64493 -0.0149,0.42323 -0.0448,1.2697 -0.0597,1.6879 -0.78078,0.27712 -2.22295,0.12093 -1.98425,-1.04297 z"
       id="path134"
       inkscape:connector-curvature="0"
       style="opacity:1;fill:#865127" />
    <path
       d="m 168.2598,132.42533 c 0.0347,-0.70539 -0.21385,-1.70301 0.64649,-2.00532 0.94486,-0.30736 1.89471,0.95228 1.14875,1.7282 -0.42766,0.61471 -1.20346,0.32247 -1.79524,0.27712 z"
       id="path136"
       inkscape:connector-curvature="0"
       style="opacity:1;fill:#865127" />
    <path
       d="m 106.4351,131.61917 c 1.34768,-0.48873 3.0783,0.73563 2.78986,2.25726 0.0547,1.72318 -2.33732,2.75608 -3.5209,1.52668 -1.30293,-1.03794 -0.90509,-3.35063 0.73104,-3.78394 z"
       id="path138"
       inkscape:connector-curvature="0"
       style="opacity:1;fill:#865127" />
    <path
       d="m 114.13831,132.94431 c 0.56694,-0.62981 1.48694,-1.15383 2.00911,-0.14612 0.0347,1.44102 -1.64607,1.29994 -2.00911,0.14612 z"
       id="path140"
       inkscape:connector-curvature="0"
       style="opacity:1;fill:#865127" />
    <path
       d="m 129.99233,132.40518 c 0.28843,-0.11588 0.86033,-0.3527 1.14877,-0.46857 1.20844,0.3678 2.0837,1.91967 0.78077,2.78125 -1.50186,0.99259 -2.88436,-0.97243 -1.92954,-2.31268 z"
       id="path142"
       inkscape:connector-curvature="0"
       style="opacity:1;fill:#865127" />
    <path
       d="m 148.33784,132.82338 c 0.7907,-0.62478 1.68585,-0.9422 2.65061,-0.49881 0.50725,0.94724 0.30336,2.58476 -0.99958,2.60492 -1.26314,0.28215 -1.6759,-1.13367 -1.65103,-2.10611 z"
       id="path144"
       inkscape:connector-curvature="0"
       style="opacity:1;fill:#865127" />
    <path
       d="m 171.69614,133.85124 c -0.30831,-2.03556 2.52631,-3.1642 3.77454,-1.63248 1.10899,1.15382 0.33816,2.8518 -0.72109,3.73355 -1.35763,0.14107 -3.06338,-0.46859 -3.05345,-2.10107 z"
       id="path146"
       inkscape:connector-curvature="0"
       style="opacity:1;fill:#865127" />
    <path
       d="m 164.99251,132.46565 c 0.61167,-0.59959 1.93451,-0.15115 1.50683,0.82632 -0.0497,1.39062 -2.38208,0.24184 -1.50683,-0.82632 z"
       id="path148"
       inkscape:connector-curvature="0"
       style="opacity:1;fill:#865127" />
    <path
       d="m 119.78768,133.3877 c 0.96974,-0.41317 2.23288,0.39804 1.88974,1.53171 -0.0249,1.4914 -2.56111,1.40574 -2.59592,-0.0403 -0.11935,-0.66003 0.11935,-1.15885 0.70618,-1.49139 z"
       id="path150"
       inkscape:connector-curvature="0"
       style="opacity:1;fill:#865127" />
    <path
       d="m 159.17904,134.15859 c 0.19891,-0.21665 0.59676,-0.65501 0.79567,-0.87166 0.65646,0.0856 1.46207,0.0101 1.81517,0.73058 0.54206,0.86663 -0.37298,2.2623 -1.41234,1.96503 -1.0344,0.0453 -1.10899,-1.07825 -1.1985,-1.82395 z"
       id="path152"
       inkscape:connector-curvature="0"
       style="opacity:1;fill:#865127" />
    <path
       d="m 111.2291,135.27715 c 0.49232,-0.89687 1.81018,-1.41079 2.27268,-0.17635 0.32324,1.11855 -0.85537,1.55186 -1.77539,1.37551 -0.12432,-0.30231 -0.37297,-0.9019 -0.49729,-1.19916 z"
       id="path154"
       inkscape:connector-curvature="0"
       style="opacity:1;fill:#865127" />
    <path
       d="m 124.50708,134.96979 c 0.28843,-0.13604 0.86034,-0.40812 1.14877,-0.54415 1.00455,0.37788 1.51677,1.88944 0.30335,2.37314 -1.11893,0.524 -1.63612,-0.9422 -1.45212,-1.82899 z"
       id="path156"
       inkscape:connector-curvature="0"
       style="opacity:1;fill:#865127" />
    <path
       d="m 154.32038,134.83879 c 0.88023,-0.4837 2.22793,-0.18642 2.39701,0.90189 -0.39785,0.59455 -0.86531,1.3856 -1.71072,1.13871 -0.77083,-0.42323 -0.78078,-1.28482 -0.68629,-2.0406 z"
       id="path158"
       inkscape:connector-curvature="0"
       style="opacity:1;fill:#865127" />
    <path
       d="m 167.63318,136.07827 c -0.91504,-0.9019 0.71612,-2.3933 1.56651,-1.48133 0.54206,0.49882 0.22378,1.26467 0.18898,1.88945 -0.55201,-0.14109 -1.41732,0.21161 -1.75549,-0.40812 z"
       id="path160"
       inkscape:connector-curvature="0"
       style="opacity:1;fill:#865127" />
    <path
       d="m 115.59044,136.80381 c 0.67137,-0.0806 1.71569,-0.25192 1.75549,0.75579 0.13426,1.06312 -1.06921,1.0077 -1.78035,0.92708 0.005,-0.56431 0.0104,-1.12359 0.0249,-1.68287 z"
       id="path162"
       inkscape:connector-curvature="0"
       style="opacity:1;fill:#865127" />
    <path
       d="m 163.77412,138.53707 c -0.10942,-0.66005 -0.35806,-1.59722 0.5321,-1.8693 1.13883,-0.11084 1.11397,0.89686 1.13883,1.74838 -0.56195,0.0353 -1.11893,0.0756 -1.67093,0.12092 z"
       id="path164"
       inkscape:connector-curvature="0"
       style="opacity:1;fill:#865127" />
    <path
       d="m 106.14168,137.93748 c 0.38293,-0.0252 1.15375,-0.0705 1.53667,-0.0957 0.50725,0.68524 0.5172,1.42086 0.0498,2.12626 -0.39785,-0.0202 -1.18856,-0.0554 -1.5864,-0.0756 -0.14422,-0.64997 -0.14919,-1.31002 0,-1.95495 z"
       id="path166"
       inkscape:connector-curvature="0"
       style="opacity:1;fill:#865127" />
    <path
       d="m 173.09854,138.19445 c 0.78077,-1.01275 2.37214,0.13099 1.77537,1.21428 -0.56195,1.48133 -3.01366,-0.11084 -1.77537,-1.21428 z"
       id="path172"
       inkscape:connector-curvature="0"
       style="opacity:1;fill:#865127" />
    <path
       d="m 110.00075,139.85212 c -0.10941,-0.78097 0.7012,-1.11351 1.17861,-1.52668 0.3133,0.50386 1.16867,0.82633 0.96975,1.54179 -0.0747,1.15383 -2.06879,1.24452 -2.14836,-0.0151 z"
       id="path174"
       inkscape:connector-curvature="0"
       style="opacity:1;fill:#865127" />
    <path
       d="m 168.7919,139.01573 c 0.26358,-0.12597 0.79072,-0.38293 1.05428,-0.51393 0.27352,0.12092 0.81559,0.36781 1.08412,0.48873 -0.12432,0.63989 0.0696,1.57202 -0.77082,1.7383 -1.07417,0.36277 -1.45709,-0.87168 -1.36758,-1.7131 z"
       id="path176"
       inkscape:connector-curvature="0"
       style="opacity:1;fill:#865127" />
    <path
       d="m 165.38041,167.6295 c 2.39699,-2.63011 3.14792,-6.24777 3.81928,-9.64373 0.23373,3.06846 -0.23374,6.12684 -0.40281,9.18018 -0.38791,3.17931 -0.63656,6.48458 -2.04392,9.40189 -0.67633,1.2697 -2.16327,2.60996 -3.66512,1.97006 -2.00413,-1.11855 -2.28263,-3.84439 -1.75051,-5.87996 0.52218,-2.2371 2.67051,-3.38084 4.04308,-5.02844 z"
       id="path182"
       inkscape:connector-curvature="0"
       style="opacity:1;fill:#865127" />
    <path
       d="m 111.79601,158.40396 c 0.7211,3.02312 1.31786,6.23769 3.33194,8.71161 1.61623,2.16153 4.61,3.55719 4.67962,6.62061 0.30832,2.04061 -0.66142,5.17961 -3.16783,4.96799 -2.51137,-0.81624 -3.20262,-3.75874 -3.69993,-6.06134 -0.77579,-4.69086 -1.35265,-9.4825 -1.1438,-14.23887 z"
       id="path184"
       inkscape:connector-curvature="0"
       style="opacity:1;fill:#865127" />
    <path
       d="m 137.91437,173.54977 c 1.58639,-4.64552 2.13841,-9.58831 2.4318,-14.47065 0.90013,4.83195 0.87029,9.9007 2.77993,14.49584 1.65104,-1.56699 2.85949,-3.50682 3.84912,-5.55246 -0.28843,2.41849 -0.7907,4.80675 -1.15374,7.21517 -0.4426,2.47895 -0.80562,5.05867 -2.05883,7.28067 -1.4024,2.48399 -5.59467,2.33283 -6.73845,-0.32751 -2.14338,-4.58506 -2.00912,-9.82008 -3.30211,-14.65707 1.11397,2.19177 2.24285,4.44902 4.19228,6.01601 z"
       id="path186"
       inkscape:connector-curvature="0"
       style="opacity:1;fill:#865127" />
    <path
       d="m 122.30403,162.13246 c 0.74098,3.32543 1.03935,6.89271 2.93906,9.81002 0.96974,1.57201 2.82469,2.16656 4.04804,3.47154 0.54207,0.83135 0.49234,1.88441 0.67137,2.83669 1.22833,-2.09099 0.98465,-4.58002 0.17902,-6.76674 1.92954,1.98014 2.61582,5.01333 2.15333,7.70894 -0.33818,1.60728 -1.21841,3.4413 -2.94901,3.83431 -2.37711,0.21666 -4.44091,-1.67783 -5.26644,-3.80912 -2.23289,-5.41641 -1.19352,-11.40218 -1.77537,-17.08564 z"
       id="path188"
       inkscape:connector-curvature="0"
       style="opacity:1;fill:#865127" />
    <path
       d="m 158.16952,163.49287 c 0.43762,4.48429 0.46249,9.09957 -0.55699,13.51332 -0.58681,2.48399 -1.94445,5.20983 -4.58512,5.90011 -1.44218,0.53912 -3.01864,-0.37285 -3.65518,-1.70807 -1.69581,-3.18434 -0.78574,-7.29073 1.49687,-9.93091 -0.85038,2.18167 -1.09903,4.65558 -0.0198,6.81207 0.26357,-0.90693 0.36801,-1.87937 0.8305,-2.71072 1.2532,-1.25963 3.06836,-1.87937 4.05302,-3.42619 1.57148,-2.51927 2.1931,-5.51719 2.43678,-8.44961 z"
       id="path190"
       inkscape:connector-curvature="0"
       style="opacity:1;fill:#865127" />
    <g
       transform="matrix(0.89878043,0,0,0.8496152,21.69305,-89.257692)"
       id="g4283">
      <path
         style="font-style:normal;font-variant:normal;font-weight:normal;font-stretch:normal;font-size:medium;line-height:125%;font-family:'HFF Clip Hanger';-inkscape-font-specification:'HFF Clip Hanger, Normal';text-align:start;letter-spacing:0px;word-spacing:0px;writing-mode:lr-tb;text-anchor:start;fill:#865127;fill-opacity:1;stroke:#865127;stroke-width:0;stroke-linecap:butt;stroke-linejoin:miter;stroke-miterlimit:4;stroke-dasharray:none;stroke-opacity:1"
         d="m 99.297305,294.18379 26.676865,0 c 1.11883,0 6.75573,-0.22417 7.77741,-0.67251 1.02169,-0.44835 1.95419,-1.0368 2.7975,-1.76536 0.86811,-0.74724 1.62054,-1.58789 2.25727,-2.52194 0.66155,-0.95273 1.17919,-1.92414 1.55293,-2.91423 0.38784,-1.02746 0.61233,-2.04558 0.67345,-3.05435 0.0789,-1.00877 -0.0266,-1.90546 -0.31649,-2.69006 -0.28988,-0.78461 -0.76937,-1.41977 -1.43847,-1.90547 -0.6691,-0.48571 -1.53642,-0.72856 -2.60198,-0.72856 l -9.09524,0 -4.86568,12.8899 3.83599,0 c 0.71037,0 5.95148,-0.14011 6.59003,-0.42032 0.65632,-0.28022 1.24668,-0.6445 1.7711,-1.09284 0.54219,-0.44835 1.01138,-0.96207 1.40757,-1.54119 0.41396,-0.5791 0.73376,-1.16756 0.95942,-1.76535 0.2186,-0.57911 0.34488,-1.14888 0.37884,-1.70931 0.041,-0.57912 -0.0439,-1.0835 -0.25462,-1.51317 -0.19299,-0.42966 -0.51539,-0.77526 -0.9672,-1.03679 -0.42701,-0.28022 -1.00457,-0.42032 -1.7327,-0.42032 l -6.80431,0 0.73511,-1.70932 6.6878,0 c 0.94123,0 1.71428,0.18681 2.31913,0.56043 0.61191,0.35495 1.05013,0.84065 1.31468,1.45712 0.28937,0.59779 0.41916,1.28899 0.38937,2.07359 -0.0227,0.76592 -0.18923,1.55987 -0.49951,2.38183 -0.29617,0.78461 -0.72553,1.56921 -1.28809,2.35381 -0.53775,0.76592 -1.16808,1.44778 -1.89099,2.04557 -0.72292,0.59779 -1.52783,1.0835 -2.41476,1.45712 -0.86916,0.37362 -6.34989,0.56043 -7.30888,0.56043 l -5.46096,0 6.13498,-16.25248 11.27963,0 c 1.22539,0 2.21181,0.28021 2.95925,0.84065 0.7652,0.56043 1.31246,1.29832 1.64178,2.21369 0.34708,0.91538 0.47608,1.96151 0.38701,3.13842 -0.082,1.15822 -0.35575,2.3538 -0.82115,3.58675 -0.46542,1.23295 -1.10672,2.43787 -1.92392,3.61477 -0.79944,1.17691 -1.71289,2.23238 -2.74032,3.16644 -1.02038,0.91537 -2.13361,1.65327 -3.33967,2.2137 -1.18831,0.56043 -6.96181,0.84064 -8.1872,0.84064 l -27.209631,0 z"
         id="path4143"
         inkscape:connector-curvature="0"
         sodipodi:nodetypes="cssccscsssccscccscccsccscccscscsccscccscccscc" />
      <path
         style="font-style:normal;font-variant:normal;font-weight:normal;font-stretch:normal;font-size:medium;line-height:125%;font-family:'HFF Clip Hanger';-inkscape-font-specification:'HFF Clip Hanger, Normal';text-align:start;letter-spacing:0px;word-spacing:0px;writing-mode:lr-tb;text-anchor:start;fill:#865127;fill-opacity:1;stroke:#865127;stroke-width:0.40626273px;stroke-linecap:butt;stroke-linejoin:miter;stroke-opacity:1"
         d="m 105.85112,289.82217 -3.98745,-11.34365 1.20832,0 2.89997,8.23549 0.66457,-1.56542 -2.81941,-8.03131 -3.62495,0 5.55826,15.85843 5.07494,-11.95621 5.09507,11.95621 5.55826,-15.85843 -3.62495,0 -2.81941,8.03131 0.66458,1.56542 2.89996,-8.23549 1.20832,0 -3.98745,11.34365 -4.99438,-11.66127 -4.97425,11.66127 z"
         id="path4145"
         inkscape:connector-curvature="0" />
      <path
         style="font-style:normal;font-variant:normal;font-weight:normal;font-stretch:normal;font-size:70px;line-height:125%;font-family:'HFF Clip Hanger';-inkscape-font-specification:'HFF Clip Hanger, Normal';text-align:start;letter-spacing:0px;word-spacing:0px;writing-mode:lr-tb;text-anchor:start;fill:#865127;fill-opacity:1;stroke:#865127;stroke-width:0.40626273px;stroke-linecap:butt;stroke-linejoin:miter;stroke-opacity:1"
         d="m 148.56166,280.27081 -3.98745,11.34366 1.20832,0 2.89996,-8.23549 0.66458,1.56542 -2.81941,8.03131 -3.62495,0 5.55826,-15.85843 5.07493,11.95621 5.09508,-11.95621 5.55826,15.85843 -3.62495,0 -2.81941,-8.03131 0.66457,-1.56542 2.89997,8.23549 1.20832,0 -3.98746,-11.34366 -4.99438,11.66128 -4.97424,-11.66128 z"
         id="path4145-0"
         inkscape:connector-curvature="0" />
      <path
         style="font-style:normal;font-variant:normal;font-weight:normal;font-stretch:normal;font-size:medium;line-height:125%;font-family:'HFF Clip Hanger';-inkscape-font-specification:'HFF Clip Hanger, Normal';text-align:start;letter-spacing:0px;word-spacing:0px;writing-mode:lr-tb;text-anchor:start;fill:none;fill-opacity:0.02564105;stroke:#865127;stroke-width:1.58997583;stroke-linecap:butt;stroke-linejoin:round;stroke-miterlimit:4;stroke-dasharray:none;stroke-dashoffset:0;stroke-opacity:1"
         d="m 115.71409,295.01735 -16.800049,0 c -0.46167,0 -0.878342,-0.20683 -1.179591,-0.54211 -0.301256,-0.33528 -0.487089,-0.79902 -0.487089,-1.31284 l 0,-8.95133 0,-8.95134 c 0,-0.51381 0.185833,-0.97755 0.487089,-1.31283 0.301249,-0.33528 0.717921,-0.54211 1.179591,-0.54211 l 33.600089,0 33.60009,0 c 0.46168,0 0.87835,0.20683 1.1796,0.54211 0.30125,0.33528 0.48709,0.79901 0.48709,1.31283 l 0,8.95134 0,8.95133 c 0,0.51382 -0.18584,0.97756 -0.48709,1.31284 -0.30125,0.33528 -0.71792,0.54211 -1.1796,0.54211 l -16.80004,0 -4.85434,0 -3.54569,0"
         id="rect4869"
         inkscape:connector-curvature="0"
         sodipodi:nodetypes="cssscssscssscsssccc" />
    </g>
  </g>
</svg>
