<?xml version="1.0" encoding="UTF-8" standalone="no"?>
<svg
   xmlns:dc="http://purl.org/dc/elements/1.1/"
   xmlns:cc="http://creativecommons.org/ns#"
   xmlns:rdf="http://www.w3.org/1999/02/22-rdf-syntax-ns#"
   xmlns:svg="http://www.w3.org/2000/svg"
   xmlns="http://www.w3.org/2000/svg"
   xmlns:sodipodi="http://sodipodi.sourceforge.net/DTD/sodipodi-0.dtd"
   xmlns:inkscape="http://www.inkscape.org/namespaces/inkscape"
   width="200mm"
   height="200mm"
   viewBox="1 46 200 200"
   id="svg2"
   version="1.1"
   inkscape:version="0.91 r13725"
   sodipodi:docname="hand_made.svg">
  <metadata
     id="metadata24">
    <rdf:RDF>
      <cc:Work
         rdf:about="">
        <dc:format>image/svg+xml</dc:format>
        <dc:type
           rdf:resource="http://purl.org/dc/dcmitype/StillImage" />
        <dc:title />
      </cc:Work>
    </rdf:RDF>
  </metadata>
  <defs
     id="defs22" />
  <sodipodi:namedview
     pagecolor="#3d4b42"
     bordercolor="#666666"
     borderopacity="1"
     objecttolerance="10"
     gridtolerance="10"
     guidetolerance="10"
     inkscape:pageopacity="0"
     inkscape:pageshadow="2"
     inkscape:window-width="640"
     inkscape:window-height="480"
     id="namedview20"
     showgrid="false"
     inkscape:zoom="0.76143272"
     inkscape:cx="-169.08033"
     inkscape:cy="358.77062"
     inkscape:current-layer="svg2" />
  <g
     transform="matrix(1.7043484,0,0,1.4490815,-29.623647,37.181086)"
     id="g3"
     style="fill:#c0aa8b;fill-opacity:0.67341775">
    <path
       style="fill:#c0aa8b;fill-opacity:0.67341775"
       inkscape:connector-curvature="0"
       d="M 134,90.8 C 99.8,78.7 99.8,78.7 99.8,78.7 c 0,0 -6.7,-10.6 -9.5,-15.3 -2.8,-4.7 -6.4,-9.8 -9.1,-9.7 0,0 -20.7,1.1 -21.3,1.2 -0.6,0.1 -2.8,11.5 -3.3,15.3 -0.5,3.8 -2,6.6 1.7,8 3.8,1.4 9.2,-0.2 11.1,-4.5 C 71.3,69.4 72,67 72,67 c 0,0 -2.7,12.9 6.6,19.9 -1,0.8 -1.6,5.2 -1.8,9.9 -1.5,2.3 -5.6,7.4 -13,10.1 0.8,0.4 1.9,0.7 3.2,1.1 0,0 0,0 0,0 l 7.8,33.4 c 0.2,0.7 0.8,1.1 1.5,1 l 8.9,-2.1 c 0.7,-0.2 1.1,-0.8 0.9,-1.5 l -6.8,-29.2 c 5.9,0 11.9,-1.4 15.1,-5.4 -1.7,4.5 -3.6,6.1 -3.6,6.1 l 11.3,6.4 c -2.6,4.3 -6.7,11.5 -6.9,13 -0.2,2.2 2.6,4.1 5.7,4.8 2.6,0.6 9.9,-3 16.1,-9.3 l 0.1,0.1 c 0.1,-0.2 17.1,-18.3 16.9,-34.5 z"
       id="path5" />
    <path
       style="fill:#c0aa8b;fill-opacity:0.67341775"
       inkscape:connector-curvature="0"
       d="m 43.3,59.5 c -2.2,3.1 -2.2,9.3 1,9.3 3.1,0 11.1,-0.4 11.1,-0.4 L 57.2,56.7 C 51.3,55.5 45.5,56.4 43.3,59.5 Z"
       id="path7" />
    <path
       style="fill:#c0aa8b;fill-opacity:0.67341775"
       inkscape:connector-curvature="0"
       d="m 62.3,79.6 c -2.6,0.2 -7.9,0 -8.2,-2.7 C 53.8,74.2 55,70 55,70 l -11.1,0 c 0,0 -3.8,0.7 -2.9,7.2 0.9,6.5 5.1,6.3 5.1,6.3 0,0 3.7,-1.1 16.2,-3.9 z"
       id="path9" />
    <path
       style="fill:#c0aa8b;fill-opacity:0.67341775"
       inkscape:connector-curvature="0"
       d="m 72,86.8 c 1.3,-1.4 0.6,-6.9 -2.3,-7.6 0,0 -22.4,3.4 -24.9,6.9 -2.5,3.4 0.5,8.6 3,9.6 2.5,1 6.4,-0.1 11.6,-2.6 5.4,-2.5 11.3,-4.9 12.6,-6.3 z"
       id="path11" />
    <path
       style="fill:#c0aa8b;fill-opacity:0.67341775"
       inkscape:connector-curvature="0"
       d="m 75.6,95.8 c 0.6,-2.9 -1.1,-9.2 -3.7,-7 0,0 -16.5,9.2 -21.2,8.8 -0.4,3.6 3.6,8.4 8.7,8.8 5.2,0.5 15.5,-7.7 16.2,-10.6 z"
       id="path13" />
    <path
       style="fill:#c0aa8b;fill-opacity:0.67341775"
       inkscape:connector-curvature="0"
       d="m 47.6,34.5 c 0.1,0 0.3,-0.1 0.4,-0.1 l 6,18 c 0.2,0.7 0.8,1.1 1.5,0.9 L 66.3,51.2 C 67,51 67.4,50.4 67.2,49.7 l -2.9,-19 c 0,0 -1.7,-7.9 -2.1,-9.5 -0.4,-1.6 1.9,-6.4 14.9,1.6 13,8 17.3,7.9 17.2,5.4 C 94.2,25.7 80,14.5 69.4,9.8 58.8,5 45.4,8.8 42.1,9.6 c 0,0 -1.2,1.2 -2.5,3.2 -1.3,2 -6.7,2.8 -6.7,2.8 0,0 -2.1,-1.4 -4.3,-0.9 -2.1,0.5 -7.9,1.7 -7.9,1.7 0,0 -1.7,0.6 -0.9,4.4 1.6,7.3 1.7,7.6 1.7,7.6 0,0 1.5,2.4 2.9,2 5.6,-1.2 5.8,-1.3 6.6,-1.5 0.9,-0.2 2.5,-0.7 3.2,-2.5 1.1,-1.7 4.3,-1.9 6.3,-1.9 2.1,0 4.6,1.1 7.1,10 z m -26.1,-14.9 -0.4,-2 6.8,-1.5 0.4,2 -6.8,1.5 z m 1,5.4 -0.9,-4.1 6.8,-1.5 0.9,4.1 -6.8,1.5 z M 42.8,10.5 c 7.3,-2.4 13,-2.7 20.6,-0.7 -6.5,-1.7 -14,1.2 -20.2,2.6 0.5,-1.5 -0.4,-1.9 -0.4,-1.9 z"
       id="path15" />
    <rect
       style="fill:#c0aa8b;fill-opacity:0.67341775"
       x="21.200001"
       y="16.799999"
       transform="matrix(0.9767,-0.2144,0.2144,0.9767,-3.2559,5.6988)"
       width="6.9000001"
       height="2.0999999"
       id="rect17" />
    <rect
       style="fill:#c0aa8b;fill-opacity:0.67341775"
       x="23.4"
       y="18.700001"
       transform="matrix(-0.2143,-0.9768,0.9768,-0.2143,9.236,51.8358)"
       width="4.1999998"
       height="6.9000001"
       id="rect19" />
    <path
       style="fill:#c0aa8b;fill-opacity:0.67341775"
       inkscape:connector-curvature="0"
       d="m 63.4,9.8 c -7.5,-2 -13.2,-1.7 -20.6,0.7 0,0 0.9,0.5 0.4,1.9 C 49.4,11 56.8,8 63.4,9.8 Z"
       id="path21" />
  </g>
</svg>
