<?xml version="1.0" encoding="UTF-8" standalone="no"?>
<svg
   xmlns:dc="http://purl.org/dc/elements/1.1/"
   xmlns:cc="http://creativecommons.org/ns#"
   xmlns:rdf="http://www.w3.org/1999/02/22-rdf-syntax-ns#"
   xmlns:svg="http://www.w3.org/2000/svg"
   xmlns="http://www.w3.org/2000/svg"
   xmlns:sodipodi="http://sodipodi.sourceforge.net/DTD/sodipodi-0.dtd"
   xmlns:inkscape="http://www.inkscape.org/namespaces/inkscape"
   width="266pt"
   height="300pt"
   viewBox="0 0 266 300"
   version="1.1"
   id="svg2"
   inkscape:version="0.91 r13725"
   sodipodi:docname="JavaScript.svg">
  <metadata
     id="metadata13">
    <rdf:RDF>
      <cc:Work
         rdf:about="">
        <dc:format>image/svg+xml</dc:format>
        <dc:type
           rdf:resource="http://purl.org/dc/dcmitype/StillImage" />
      </cc:Work>
    </rdf:RDF>
  </metadata>
  <defs
     id="defs11" />
  <sodipodi:namedview
     pagecolor="#ffffff"
     bordercolor="#666666"
     borderopacity="1"
     objecttolerance="10"
     gridtolerance="10"
     guidetolerance="10"
     inkscape:pageopacity="0"
     inkscape:pageshadow="2"
     inkscape:window-width="640"
     inkscape:window-height="480"
     id="namedview9"
     showgrid="false"
     inkscape:zoom="1.048"
     inkscape:cx="-99.675568"
     inkscape:cy="118.65162"
     inkscape:current-layer="svg2" />
  <rect
     style="opacity:0.97000002;fill:#041a25;fill-opacity:0.76862745;fill-rule:evenodd;stroke:none;stroke-width:2.50948715;stroke-linecap:round;stroke-linejoin:round;stroke-miterlimit:4;stroke-dasharray:none;stroke-dashoffset:0;stroke-opacity:1"
     id="rect12859"
     width="267.81009"
     height="300.59479"
     x="-0.53401619"
     y="0.40819117" />
  <g
     id="g4150"
     transform="matrix(1.0689029,0,0,1.0832494,-7.6863783,3.4677397)">
    <path
       d="m 132.23871,5.9534263 3.18536,0 c 2.35236,0.2731856 4.68474,0.8311816 6.73056,1.9122989 24.19007,12.2410378 48.39345,24.4820758 72.59018,36.7231138 4.28491,2.144797 7.10375,6.167018 7.59688,10.433363 l 0,76.282708 c -0.48647,4.26634 -3.29198,8.29438 -7.57689,10.44499 -23.75024,12.02597 -47.52047,24.01708 -71.25739,36.0663 -5.28449,2.94111 -12.54818,3.22592 -17.93263,0.31969 -7.93008,-4.09197 -15.8335,-8.24207 -23.7769,-12.3166 -0.97293,-0.465 -1.73928,-1.16249 -2.532292,-1.8193 2.052492,-1.49962 4.858002,-1.69143 7.190382,-2.74348 2.31238,-0.72075 4.22493,-2.29011 6.60395,-2.77836 7.02378,3.30729 13.62107,7.2772 20.67151,10.5438 24.23004,-12.0376 48.25351,-24.4007 72.42358,-36.5313 1.15952,-0.66262 2.97877,-1.17412 2.73887,-2.67954 0.0466,-24.24377 -0.0133,-48.487533 0.0267,-72.731298 0.02,-1.01718 0.0466,-2.336608 -1.27281,-2.76673 -23.24379,-11.712104 -46.49424,-23.418396 -69.73802,-35.1305 -1.37943,-0.650995 -2.67223,-1.517052 -4.20494,-1.877424 -1.22616,0.197624 -2.23241,0.912556 -3.30531,1.412427 -22.5374,11.369169 -45.088139,22.709276 -67.63221,34.072633 -1.612671,1.005555 -4.578119,1.493802 -4.251587,3.714161 0.0067,24.441388 -0.01999,48.876961 0.01333,73.318351 -0.11995,0.91256 0.519787,1.62749 1.432745,1.99949 6.204118,3.15035 12.421563,6.27745 18.632345,9.41618 3.145374,1.59843 6.830527,2.66211 10.495688,2.15642 4.271578,-0.55218 7.936739,-3.96991 7.8701,-7.7945 0.03998,-24.23796 -0.01333,-48.475909 0.02666,-72.713862 -0.0733,-1.104367 0.706377,-2.249421 2.072482,-2.319171 3.098727,-0.139499 6.217447,-0.06975 9.316177,-0.04069 1.47273,-0.06394 2.71222,1.081117 2.49231,2.359858 0,24.226328 0.0133,48.458475 -0.0133,72.684795 -0.04,5.33584 -1.5527,11.03786 -6.05085,14.89152 -4.48482,4.03385 -11.288695,5.15565 -17.492813,4.94059 -5.657676,-0.15112 -10.935507,-2.17967 -15.860151,-4.44072 -6.090831,-3.03991 -12.181662,-6.07983 -18.272493,-9.12556 -4.464832,-2.16804 -7.570223,-6.42858 -7.683509,-10.90998 -0.106623,-0.92418 -0.313205,-2.77836 -0.413164,-3.70254 l 0,-65.791219 c 0.133279,-1.84255 0.399836,-5.527648 0.52645,-7.370198 0.653065,-4.016409 3.618514,-7.631758 7.663518,-9.596369 C 77.447962,32.225736 101.63803,20.002136 125.8081,7.7610979 c 1.94586,-1.0404301 4.19827,-1.5054268 6.43069,-1.8076746 z"
       id="path5"
       inkscape:connector-curvature="0"
       style="opacity:1;fill:#539e43" />
    <path
       d="m 144.85352,58.829362 c 9.05628,-0.860244 18.43243,-0.720745 27.22215,1.551927 6.01087,1.580988 11.66854,4.841778 14.6873,9.759118 2.05916,3.301476 3.14538,7.056324 3.36529,10.799548 0.0733,1.110179 -1.1462,2.109922 -2.39902,1.982048 -2.9188,0.01744 -5.83093,0.01162 -8.74307,0.0058 -1.10621,0.09881 -2.31238,-0.546372 -2.45899,-1.546114 -0.75303,-2.55167 -1.7193,-5.184714 -3.86508,-7.131887 -2.47232,-2.359858 -6.11749,-3.411913 -9.62938,-3.929222 -5.93756,-0.738182 -12.00173,-0.831182 -17.92597,0.02325 -3.67848,0.621933 -7.88342,1.865799 -9.56273,5.062651 -0.89963,2.05761 -1.17952,4.63253 0.27988,6.544828 1.626,1.633301 4.15829,2.208735 6.45735,2.772543 12.42823,2.702793 25.56283,2.470295 37.69784,6.277456 5.01128,1.575176 9.89594,4.498842 11.76184,9.038372 2.61892,6.65527 1.51271,14.64159 -3.77845,20.09949 -3.79844,3.91759 -9.28285,6.27745 -14.88055,7.59107 -7.59022,1.82511 -15.54695,1.91811 -23.35707,1.55774 -8.58981,-0.63356 -17.70606,-2.21455 -24.36333,-7.32951 -5.41111,-4.06291 -7.92341,-10.47406 -7.57022,-16.59457 0.13994,-1.0695 1.39276,-1.70887 2.55228,-1.59843 3.1054,0 6.21079,-0.0581 9.31618,0.0349 0.99292,-0.0523 1.87256,0.62775 1.84591,1.50543 0.59309,3.52235 1.9392,7.31789 5.53106,9.38131 5.07125,2.91785 11.40864,3.13291 17.28623,3.30729 5.78429,0.0349 11.7485,0.0523 17.25291,-1.70886 2.9921,-0.94162 5.79762,-2.91786 6.55731,-5.71946 0.57309,-2.13318 0.83299,-4.73135 -0.95961,-6.48671 -1.59268,-1.50542 -3.87841,-2.20873 -6.05085,-2.83066 -11.64188,-2.999237 -24.10343,-2.17968 -35.68534,-5.423032 -5.56438,-1.487989 -11.1954,-4.347719 -13.53444,-9.230184 -2.69222,-5.853146 -2.15911,-12.973408 1.96586,-18.233683 4.74472,-5.928707 13.07463,-8.579189 20.98471,-9.532432 z"
       id="path7"
       inkscape:connector-curvature="0"
       style="opacity:1;fill:#539e43" />
  </g>
  <g
     transform="matrix(0.90914297,0,0,1.099937,-3.2,0)"
     style="font-style:normal;font-variant:normal;font-weight:normal;font-stretch:normal;font-size:12.5990324px;line-height:125%;font-family:sans-serif;-inkscape-font-specification:'sans-serif, Normal';text-align:start;letter-spacing:0px;word-spacing:0px;writing-mode:lr-tb;text-anchor:start;fill:#539e43;fill-opacity:1;stroke:none;stroke-width:1px;stroke-linecap:butt;stroke-linejoin:miter;stroke-opacity:1"
     id="text4136">
    <path
       d="m 77.774654,192.76895 -0.06152,0 q -0.190708,-0.0554 -0.498301,-0.11074 -0.307594,-0.0615 -0.541365,-0.0615 -0.744376,0 -1.082729,0.3322 -0.332201,0.32605 -0.332201,1.18731 l 0,0.23377 2.085484,0 0,0.97199 -2.048573,0 0,5.89965 -1.156552,0 0,-5.89965 -0.781287,0 0,-0.97199 0.781287,0 0,-0.22762 q 0,-1.22422 0.609036,-1.87632 0.609035,-0.65825 1.759435,-0.65825 0.387568,0 0.695161,0.0369 0.313746,0.0369 0.572124,0.0861 l 0,1.05812 z"
       id="path4155"
       inkscape:connector-curvature="0" />
    <path
       d="m 84.20336,201.22162 -1.156551,0 0,-0.76283 q -0.584428,0.46139 -1.119641,0.70746 -0.535213,0.24608 -1.181159,0.24608 -1.08273,0 -1.685613,-0.65825 -0.602883,-0.66441 -0.602883,-1.94399 l 0,-4.46011 1.156551,0 0,3.91259 q 0,0.52291 0.04922,0.89817 0.04922,0.36911 0.209164,0.63364 0.166101,0.27069 0.430631,0.39372 0.26453,0.12304 0.768984,0.12304 0.449086,0 0.978147,-0.23377 0.535213,-0.23377 0.996604,-0.59673 l 0,-5.13066 1.156551,0 0,6.87164 z"
       id="path4157"
       inkscape:connector-curvature="0" />
    <path
       d="m 92.225399,201.22162 -1.156551,0 0,-3.91259 q 0,-0.4737 -0.05537,-0.88587 -0.05537,-0.41833 -0.203012,-0.6521 -0.153797,-0.25838 -0.442935,-0.38142 -0.289138,-0.12918 -0.750528,-0.12918 -0.473694,0 -0.990451,0.23377 -0.516757,0.23377 -0.990452,0.59673 l 0,5.13066 -1.156551,0 0,-6.87164 1.156551,0 0,0.76283 q 0.541365,-0.44909 1.119641,-0.70131 0.578276,-0.25223 1.187311,-0.25223 1.113489,0 1.697917,0.67055 0.584427,0.67056 0.584427,1.93169 l 0,4.46011 z"
       id="path4159"
       inkscape:connector-curvature="0" />
    <path
       d="m 99.533823,200.79099 q -0.578276,0.27683 -1.101185,0.43063 -0.516757,0.1538 -1.101185,0.1538 -0.744376,0 -1.365715,-0.21532 -0.621339,-0.22147 -1.064274,-0.6644 -0.449086,-0.44294 -0.695161,-1.11964 -0.246075,-0.67671 -0.246075,-1.58103 0,-1.68562 0.922781,-2.64531 0.928932,-0.95969 2.448444,-0.95969 0.59058,0 1.156552,0.1661 0.572124,0.1661 1.045818,0.40602 l 0,1.28574 -0.06152,0 q -0.529061,-0.41217 -1.095033,-0.63364 -0.559821,-0.22147 -1.095034,-0.22147 -0.984299,0 -1.556423,0.66441 -0.565972,0.65825 -0.565972,1.93784 0,1.24267 0.553668,1.91323 0.559821,0.6644 1.568727,0.6644 0.350657,0 0.713618,-0.0923 0.36296,-0.0923 0.652098,-0.23992 0.252227,-0.12919 0.473694,-0.27068 0.221467,-0.14765 0.350657,-0.25223 l 0.06152,0 0,1.27344 z"
       id="path4161"
       inkscape:connector-curvature="0" />
    <path
       d="m 104.59066,201.1601 q -0.32605,0.0861 -0.71362,0.14149 -0.38141,0.0554 -0.68285,0.0554 -1.05197,0 -1.59949,-0.56597 -0.54752,-0.56597 -0.54752,-1.8148 l 0,-3.65422 -0.78128,0 0,-0.97199 0.78128,0 0,-1.97475 1.15655,0 0,1.97475 2.38693,0 0,0.97199 -2.38693,0 0,3.13131 q 0,0.54136 0.0246,0.84895 0.0246,0.30145 0.17225,0.56598 0.13535,0.24607 0.36912,0.36296 0.23992,0.11073 0.72592,0.11073 0.28298,0 0.59058,-0.08 0.30759,-0.0861 0.44293,-0.1415 l 0.0615,0 0,1.03967 z"
       id="path4163"
       inkscape:connector-curvature="0" />
    <path
       d="m 107.23596,193.19958 -1.30419,0 0,-1.19962 1.30419,0 0,1.19962 z m -0.0738,8.02204 -1.15655,0 0,-6.87164 1.15655,0 0,6.87164 z"
       id="path4165"
       inkscape:connector-curvature="0" />
    <path
       d="m 115.27031,197.78887 q 0,1.67947 -0.86126,2.65146 -0.86127,0.972 -2.30696,0.972 -1.45799,0 -2.31925,-0.972 -0.85511,-0.97199 -0.85511,-2.65146 0,-1.67946 0.85511,-2.65145 0.86126,-0.97815 2.31925,-0.97815 1.44569,0 2.30696,0.97815 0.86126,0.97199 0.86126,2.65145 z m -1.19346,0 q 0,-1.33495 -0.52291,-1.9809 -0.52291,-0.6521 -1.45185,-0.6521 -0.94123,0 -1.46414,0.6521 -0.51676,0.64595 -0.51676,1.9809 0,1.2919 0.52291,1.96245 0.52291,0.6644 1.45799,0.6644 0.92279,0 1.44569,-0.65825 0.52907,-0.6644 0.52907,-1.9686 z"
       id="path4167"
       inkscape:connector-curvature="0" />
    <path
       d="m 122.8125,201.22162 -1.15655,0 0,-3.91259 q 0,-0.4737 -0.0554,-0.88587 -0.0554,-0.41833 -0.20301,-0.6521 -0.15379,-0.25838 -0.44293,-0.38142 -0.28914,-0.12918 -0.75053,-0.12918 -0.4737,0 -0.99045,0.23377 -0.51676,0.23377 -0.99045,0.59673 l 0,5.13066 -1.15656,0 0,-6.87164 1.15656,0 0,0.76283 q 0.54136,-0.44909 1.11964,-0.70131 0.57827,-0.25223 1.18731,-0.25223 1.11349,0 1.69791,0.67055 0.58443,0.67056 0.58443,1.93169 l 0,4.46011 z"
       id="path4169"
       inkscape:connector-curvature="0" />
    <path
       d="m 140.2223,192.06148 -2.38077,9.16014 -1.37187,0 -1.92554,-7.60371 -1.88247,7.60371 -1.34111,0 -2.42383,-9.16014 1.24883,0 1.92553,7.61602 1.89478,-7.61602 1.23652,0 1.91324,7.68984 1.91323,-7.68984 1.19346,0 z"
       id="path4171"
       inkscape:connector-curvature="0" />
    <path
       d="m 149.75155,196.65078 q 0,1.24883 -0.54752,2.26389 -0.54136,1.01506 -1.44569,1.57488 -0.62749,0.38756 -1.40262,0.55982 -0.76899,0.17225 -2.03012,0.17225 l -2.31311,0 0,-9.16014 2.2885,0 q 1.34111,0 2.12855,0.19686 0.79359,0.19071 1.34111,0.52906 0.93508,0.58443 1.45799,1.55643 0.52291,0.97199 0.52291,2.30695 z m -1.27344,-0.0185 q 0,-1.07657 -0.37526,-1.8148 -0.37527,-0.73822 -1.11964,-1.1627 -0.54137,-0.3076 -1.1504,-0.42448 -0.60904,-0.12304 -1.458,-0.12304 l -1.14425,0 0,7.0685 1.14425,0 q 0.87972,0 1.53182,-0.12919 0.65825,-0.12919 1.20577,-0.47984 0.68285,-0.43679 1.02121,-1.1504 0.3445,-0.71362 0.3445,-1.78405 z"
       id="path4173"
       inkscape:connector-curvature="0" />
    <path
       d="m 159.88983,201.22162 -1.21807,0 0,-7.89285 -2.54687,5.37058 -0.72593,0 -2.52841,-5.37058 0,7.89285 -1.1381,0 0,-9.16014 1.661,0 2.4423,5.0999 2.36232,-5.0999 1.69176,0 0,9.16014 z"
       id="path4175"
       inkscape:connector-curvature="0" />
    <path
       d="m 165.94942,203.75619 -1.40878,0 q -1.08888,-1.24883 -1.69176,-2.72528 -0.60288,-1.47645 -0.60288,-3.32816 0,-1.85171 0.60288,-3.32816 0.60288,-1.47645 1.69176,-2.72528 l 1.40878,0 0,0.0615 q -0.4983,0.44908 -0.95354,1.03966 -0.44908,0.58443 -0.83665,1.36572 -0.36911,0.75668 -0.60289,1.66715 -0.22761,0.91048 -0.22761,1.91939 0,1.05197 0.22146,1.92553 0.22762,0.87357 0.60904,1.66101 0.36911,0.75668 0.8428,1.36571 0.4737,0.61519 0.94739,1.03967 l 0,0.0615 z"
       id="path4177"
       inkscape:connector-curvature="0" />
    <path
       d="m 171.4738,197.70275 q 0,1.85171 -0.60288,3.32816 -0.60288,1.47645 -1.69177,2.72528 l -1.40877,0 0,-0.0615 q 0.47369,-0.42448 0.94738,-1.03967 0.47985,-0.60903 0.84281,-1.36571 0.38142,-0.78744 0.60288,-1.66101 0.22762,-0.87356 0.22762,-1.92553 0,-1.00891 -0.22762,-1.91939 -0.22762,-0.91047 -0.60288,-1.66715 -0.38757,-0.78129 -0.84281,-1.36572 -0.44908,-0.59058 -0.94738,-1.03966 l 0,-0.0615 1.40877,0 q 1.08889,1.24883 1.69177,2.72528 0.60288,1.47645 0.60288,3.32816 z"
       id="path4179"
       inkscape:connector-curvature="0" />
    <path
       d="m 183.87598,203.63315 -0.92278,0 q -1.10119,0 -1.7902,-0.61518 -0.68285,-0.60904 -0.68285,-1.76559 l 0,-0.91663 q 0,-1.03967 -0.51061,-1.62409 -0.5106,-0.59058 -1.56257,-0.59058 l -0.31375,0 0,-0.9597 0.31375,0 q 1.05197,0 1.56257,-0.58442 0.51061,-0.59058 0.51061,-1.63025 l 0,-0.91663 q 0,-1.15655 0.68285,-1.76559 0.68901,-0.61518 1.7902,-0.61518 l 0.92278,0 0,0.84896 -0.70131,0 q -0.83666,0 -1.21808,0.38756 -0.37526,0.38757 -0.37526,1.24883 l 0,1.07658 q 0,0.85511 -0.47369,1.43954 -0.4737,0.57827 -1.3165,0.91663 l 0,0.14764 q 0.8428,0.33835 1.3165,0.92278 0.47369,0.57828 0.47369,1.43339 l 0,1.07658 q 0,0.86126 0.37526,1.24883 0.38142,0.38756 1.21808,0.38756 l 0.70131,0 0,0.84896 z"
       id="path4181"
       inkscape:connector-curvature="0" />
    <path
       d="m 90.945811,216.53978 q -0.578276,0.27683 -1.101185,0.43063 -0.516758,0.1538 -1.101185,0.1538 -0.744377,0 -1.365716,-0.21532 -0.621339,-0.22147 -1.064273,-0.6644 -0.449087,-0.44294 -0.695162,-1.11964 -0.246075,-0.67671 -0.246075,-1.58103 0,-1.68562 0.922781,-2.64531 0.928933,-0.95969 2.448445,-0.95969 0.590579,0 1.156552,0.1661 0.572124,0.1661 1.045818,0.40602 l 0,1.28575 -0.06152,0 q -0.529061,-0.41218 -1.095033,-0.63365 -0.55982,-0.22146 -1.095033,-0.22146 -0.9843,0 -1.556424,0.6644 -0.565972,0.65825 -0.565972,1.93784 0,1.24267 0.553669,1.91323 0.55982,0.6644 1.568727,0.6644 0.350656,0 0.713617,-0.0923 0.36296,-0.0923 0.652098,-0.23992 0.252227,-0.12919 0.473694,-0.27068 0.221468,-0.14765 0.350657,-0.25223 l 0.06152,0 0,1.27344 z"
       id="path4183"
       inkscape:connector-curvature="0" />
    <path
       d="m 96.722417,211.3599 -0.06152,0 q -0.258379,-0.0615 -0.504454,-0.0861 -0.239923,-0.0308 -0.572124,-0.0308 -0.535213,0 -1.033514,0.23992 -0.498302,0.23377 -0.959692,0.60904 l 0,4.87843 -1.156552,0 0,-6.87164 1.156552,0 0,1.01506 q 0.689009,-0.55367 1.211918,-0.78129 0.529061,-0.23377 1.076578,-0.23377 0.301442,0 0.436783,0.0185 0.135341,0.0123 0.406023,0.0554 l 0,1.18731 z"
       id="path4185"
       inkscape:connector-curvature="0" />
    <path
       d="m 103.5756,213.65455 -5.062989,0 q 0,0.63364 0.190708,1.10734 0.190708,0.46754 0.522909,0.76898 0.319897,0.29529 0.75668,0.44294 0.442932,0.14764 0.971992,0.14764 0.70132,0 1.40878,-0.27683 0.71362,-0.28299 1.01506,-0.55367 l 0.0615,0 0,1.26113 q -0.58443,0.24608 -1.19346,0.41218 -0.60904,0.1661 -1.27959,0.1661 -1.710223,0 -2.669915,-0.92278 -0.959692,-0.92894 -0.959692,-2.633 0,-1.68562 0.916629,-2.67607 0.922781,-0.99045 2.423838,-0.99045 1.39032,0 2.14085,0.81205 0.75668,0.81204 0.75668,2.30695 l 0,0.62749 z m -1.12579,-0.88587 q -0.006,-0.91048 -0.46139,-1.40878 -0.44909,-0.4983 -1.37187,-0.4983 -0.928932,0 -1.4826,0.54752 -0.547517,0.54751 -0.621339,1.35956 l 3.937199,0 z"
       id="path4187"
       inkscape:connector-curvature="0" />
    <path
       d="m 110.66871,216.97041 -1.1504,0 0,-0.73207 q -0.1538,0.10458 -0.41833,0.29529 -0.25838,0.18455 -0.50445,0.29529 -0.28914,0.14149 -0.6644,0.23377 -0.37527,0.0984 -0.87972,0.0984 -0.92893,0 -1.57488,-0.61519 -0.64595,-0.61519 -0.64595,-1.56873 0,-0.78128 0.3322,-1.26113 0.33836,-0.486 0.9597,-0.76283 0.62749,-0.27684 1.5072,-0.37527 0.87972,-0.0984 1.88863,-0.14764 l 0,-0.17841 q 0,-0.39372 -0.14149,-0.65209 -0.13535,-0.25838 -0.39372,-0.40603 -0.24608,-0.14149 -0.59058,-0.19071 -0.34451,-0.0492 -0.71977,-0.0492 -0.45524,0 -1.01506,0.12304 -0.55982,0.11688 -1.15655,0.3445 l -0.0615,0 0,-1.17501 q 0.33835,-0.0923 0.97815,-0.20301 0.63979,-0.11073 1.26113,-0.11073 0.72592,0 1.26113,0.12304 0.54137,0.11688 0.93509,0.40602 0.38757,0.28299 0.59058,0.73207 0.20301,0.44909 0.20301,1.11349 l 0,4.66312 z m -1.1504,-1.69177 0,-1.91323 q -0.52906,0.0308 -1.24883,0.0923 -0.71362,0.0615 -1.13195,0.1784 -0.4983,0.1415 -0.80589,0.44294 -0.30759,0.29529 -0.30759,0.8182 0,0.59058 0.3568,0.89202 0.35681,0.29529 1.08889,0.29529 0.60903,0 1.11348,-0.23377 0.50446,-0.23992 0.93509,-0.57213 z"
       id="path4189"
       inkscape:connector-curvature="0" />
    <path
       d="m 116.47608,216.90889 q -0.32605,0.0861 -0.71362,0.14149 -0.38142,0.0554 -0.68286,0.0554 -1.05197,0 -1.59949,-0.56597 -0.54751,-0.56597 -0.54751,-1.8148 l 0,-3.65422 -0.78129,0 0,-0.97199 0.78129,0 0,-1.97475 1.15655,0 0,1.97475 2.38693,0 0,0.97199 -2.38693,0 0,3.13131 q 0,0.54136 0.0246,0.84896 0.0246,0.30144 0.17225,0.56597 0.13534,0.24607 0.36911,0.36296 0.23992,0.11073 0.72592,0.11073 0.28299,0 0.59058,-0.08 0.3076,-0.0861 0.44294,-0.1415 l 0.0615,0 0,1.03967 z"
       id="path4191"
       inkscape:connector-curvature="0" />
    <path
       d="m 123.6307,213.65455 -5.06299,0 q 0,0.63364 0.19071,1.10734 0.19071,0.46754 0.52291,0.76898 0.3199,0.29529 0.75668,0.44294 0.44294,0.14764 0.972,0.14764 0.70131,0 1.40878,-0.27683 0.71361,-0.28299 1.01505,-0.55367 l 0.0615,0 0,1.26113 q -0.58442,0.24608 -1.19346,0.41218 -0.60904,0.1661 -1.27959,0.1661 -1.71022,0 -2.66991,-0.92278 -0.95969,-0.92894 -0.95969,-2.633 0,-1.68562 0.91663,-2.67607 0.92278,-0.99045 2.42383,-0.99045 1.39033,0 2.14085,0.81205 0.75668,0.81204 0.75668,2.30695 l 0,0.62749 z m -1.12579,-0.88587 q -0.006,-0.91048 -0.46139,-1.40878 -0.44909,-0.4983 -1.37187,-0.4983 -0.92893,0 -1.4826,0.54752 -0.54751,0.54751 -0.62134,1.35956 l 3.9372,0 z"
       id="path4193"
       inkscape:connector-curvature="0" />
    <path
       d="m 132.28023,218.81597 -8.05895,0 0,-0.73822 8.05895,0 0,0.73822 z"
       id="path4195"
       inkscape:connector-curvature="0" />
    <path
       d="m 138.48747,216.53978 q -0.57827,0.27683 -1.10118,0.43063 -0.51676,0.1538 -1.10119,0.1538 -0.74438,0 -1.36571,-0.21532 -0.62134,-0.22147 -1.06428,-0.6644 -0.44908,-0.44294 -0.69516,-1.11964 -0.24607,-0.67671 -0.24607,-1.58103 0,-1.68562 0.92278,-2.64531 0.92893,-0.95969 2.44844,-0.95969 0.59058,0 1.15655,0.1661 0.57213,0.1661 1.04582,0.40602 l 0,1.28575 -0.0615,0 q -0.52906,-0.41218 -1.09503,-0.63365 -0.55982,-0.22146 -1.09503,-0.22146 -0.9843,0 -1.55643,0.6644 -0.56597,0.65825 -0.56597,1.93784 0,1.24267 0.55367,1.91323 0.55982,0.6644 1.56873,0.6644 0.35065,0 0.71361,-0.0923 0.36296,-0.0923 0.6521,-0.23992 0.25223,-0.12919 0.4737,-0.27068 0.22146,-0.14765 0.35065,-0.25223 l 0.0615,0 0,1.27344 z"
       id="path4197"
       inkscape:connector-curvature="0" />
    <path
       d="m 145.8328,213.53766 q 0,1.67947 -0.86126,2.65146 -0.86126,0.972 -2.30695,0.972 -1.45799,0 -2.31925,-0.972 -0.85511,-0.97199 -0.85511,-2.65146 0,-1.67946 0.85511,-2.65145 0.86126,-0.97815 2.31925,-0.97815 1.44569,0 2.30695,0.97815 0.86126,0.97199 0.86126,2.65145 z m -1.19346,0 q 0,-1.33495 -0.52291,-1.9809 -0.52291,-0.6521 -1.45184,-0.6521 -0.94124,0 -1.46414,0.6521 -0.51676,0.64595 -0.51676,1.9809 0,1.2919 0.52291,1.96245 0.52291,0.6644 1.45799,0.6644 0.92278,0 1.44569,-0.65825 0.52906,-0.6644 0.52906,-1.9686 z"
       id="path4199"
       inkscape:connector-curvature="0" />
    <path
       d="m 153.48574,213.53766 q 0,1.67947 -0.86127,2.65146 -0.86126,0.972 -2.30695,0.972 -1.45799,0 -2.31925,-0.972 -0.85511,-0.97199 -0.85511,-2.65146 0,-1.67946 0.85511,-2.65145 0.86126,-0.97815 2.31925,-0.97815 1.44569,0 2.30695,0.97815 0.86127,0.97199 0.86127,2.65145 z m -1.19347,0 q 0,-1.33495 -0.52291,-1.9809 -0.52291,-0.6521 -1.45184,-0.6521 -0.94123,0 -1.46414,0.6521 -0.51676,0.64595 -0.51676,1.9809 0,1.2919 0.52291,1.96245 0.52291,0.6644 1.45799,0.6644 0.92278,0 1.44569,-0.65825 0.52906,-0.6644 0.52906,-1.9686 z"
       id="path4201"
       inkscape:connector-curvature="0" />
    <path
       d="m 156.45093,216.97041 -1.15655,0 0,-9.57231 1.15655,0 0,9.57231 z"
       id="path4203"
       inkscape:connector-curvature="0" />
    <path
       d="m 165.59877,218.81597 -8.05895,0 0,-0.73822 8.05895,0 0,0.73822 z"
       id="path4205"
       inkscape:connector-curvature="0" />
    <path
       d="m 171.80601,216.53978 q -0.57828,0.27683 -1.10119,0.43063 -0.51676,0.1538 -1.10118,0.1538 -0.74438,0 -1.36572,-0.21532 -0.62134,-0.22147 -1.06427,-0.6644 -0.44909,-0.44294 -0.69516,-1.11964 -0.24608,-0.67671 -0.24608,-1.58103 0,-1.68562 0.92278,-2.64531 0.92893,-0.95969 2.44845,-0.95969 0.59058,0 1.15655,0.1661 0.57212,0.1661 1.04582,0.40602 l 0,1.28575 -0.0615,0 q -0.52906,-0.41218 -1.09504,-0.63365 -0.55982,-0.22146 -1.09503,-0.22146 -0.9843,0 -1.55642,0.6644 -0.56597,0.65825 -0.56597,1.93784 0,1.24267 0.55366,1.91323 0.55982,0.6644 1.56873,0.6644 0.35066,0 0.71362,-0.0923 0.36296,-0.0923 0.6521,-0.23992 0.25222,-0.12919 0.47369,-0.27068 0.22147,-0.14765 0.35066,-0.25223 l 0.0615,0 0,1.27344 z"
       id="path4207"
       inkscape:connector-curvature="0" />
    <path
       d="m 177.58261,211.3599 -0.0615,0 q -0.25837,-0.0615 -0.50445,-0.0861 -0.23992,-0.0308 -0.57212,-0.0308 -0.53522,0 -1.03352,0.23992 -0.4983,0.23377 -0.95969,0.60904 l 0,4.87843 -1.15655,0 0,-6.87164 1.15655,0 0,1.01506 q 0.68901,-0.55367 1.21192,-0.78129 0.52906,-0.23377 1.07658,-0.23377 0.30144,0 0.43678,0.0185 0.13534,0.0123 0.40602,0.0554 l 0,1.18731 z"
       id="path4209"
       inkscape:connector-curvature="0" />
    <path
       d="m 184.4358,213.65455 -5.06299,0 q 0,0.63364 0.1907,1.10734 0.19071,0.46754 0.52291,0.76898 0.3199,0.29529 0.75668,0.44294 0.44294,0.14764 0.972,0.14764 0.70131,0 1.40878,-0.27683 0.71361,-0.28299 1.01506,-0.55367 l 0.0615,0 0,1.26113 q -0.58442,0.24608 -1.19346,0.41218 -0.60903,0.1661 -1.27959,0.1661 -1.71022,0 -2.66991,-0.92278 -0.95969,-0.92894 -0.95969,-2.633 0,-1.68562 0.91663,-2.67607 0.92278,-0.99045 2.42383,-0.99045 1.39033,0 2.14086,0.81205 0.75668,0.81204 0.75668,2.30695 l 0,0.62749 z m -1.1258,-0.88587 q -0.006,-0.91048 -0.46139,-1.40878 -0.44908,-0.4983 -1.37186,-0.4983 -0.92894,0 -1.48261,0.54752 -0.54751,0.54751 -0.62133,1.35956 l 3.93719,0 z"
       id="path4211"
       inkscape:connector-curvature="0" />
    <path
       d="m 191.5289,216.97041 -1.1504,0 0,-0.73207 q -0.1538,0.10458 -0.41833,0.29529 -0.25838,0.18455 -0.50445,0.29529 -0.28914,0.14149 -0.6644,0.23377 -0.37527,0.0984 -0.87972,0.0984 -0.92893,0 -1.57488,-0.61519 -0.64595,-0.61519 -0.64595,-1.56873 0,-0.78128 0.33221,-1.26113 0.33835,-0.486 0.95969,-0.76283 0.62749,-0.27684 1.50721,-0.37527 0.87971,-0.0984 1.88862,-0.14764 l 0,-0.17841 q 0,-0.39372 -0.14149,-0.65209 -0.13534,-0.25838 -0.39372,-0.40603 -0.24608,-0.14149 -0.59058,-0.19071 -0.34451,-0.0492 -0.71977,-0.0492 -0.45524,0 -1.01506,0.12304 -0.55982,0.11688 -1.15655,0.3445 l -0.0615,0 0,-1.17501 q 0.33835,-0.0923 0.97815,-0.20301 0.63979,-0.11073 1.26113,-0.11073 0.72592,0 1.26113,0.12304 0.54137,0.11688 0.93509,0.40602 0.38757,0.28299 0.59058,0.73207 0.20301,0.44909 0.20301,1.11349 l 0,4.66312 z m -1.1504,-1.69177 0,-1.91323 q -0.52906,0.0308 -1.24883,0.0923 -0.71362,0.0615 -1.13194,0.1784 -0.49831,0.1415 -0.8059,0.44294 -0.30759,0.29529 -0.30759,0.8182 0,0.59058 0.35681,0.89202 0.3568,0.29529 1.08888,0.29529 0.60903,0 1.11349,-0.23377 0.50445,-0.23992 0.93508,-0.57213 z"
       id="path4213"
       inkscape:connector-curvature="0" />
    <path
       d="m 197.33628,216.90889 q -0.32605,0.0861 -0.71362,0.14149 -0.38142,0.0554 -0.68286,0.0554 -1.05197,0 -1.59948,-0.56597 -0.54752,-0.56597 -0.54752,-1.8148 l 0,-3.65422 -0.78129,0 0,-0.97199 0.78129,0 0,-1.97475 1.15655,0 0,1.97475 2.38693,0 0,0.97199 -2.38693,0 0,3.13131 q 0,0.54136 0.0246,0.84896 0.0246,0.30144 0.17225,0.56597 0.13534,0.24607 0.36911,0.36296 0.23993,0.11073 0.72592,0.11073 0.28299,0 0.59058,-0.08 0.3076,-0.0861 0.44294,-0.1415 l 0.0615,0 0,1.03967 z"
       id="path4215"
       inkscape:connector-curvature="0" />
    <path
       d="m 199.98157,208.94837 -1.30419,0 0,-1.19962 1.30419,0 0,1.19962 z m -0.0738,8.02204 -1.15655,0 0,-6.87164 1.15655,0 0,6.87164 z"
       id="path4217"
       inkscape:connector-curvature="0" />
    <path
       d="m 208.10204,210.09877 -2.78064,6.87164 -1.16271,0 -2.76219,-6.87164 1.25499,0 2.12854,5.46901 2.1101,-5.46901 1.21191,0 z"
       id="path4219"
       inkscape:connector-curvature="0" />
    <path
       d="m 215.36741,213.65455 -5.06299,0 q 0,0.63364 0.1907,1.10734 0.19071,0.46754 0.52291,0.76898 0.3199,0.29529 0.75668,0.44294 0.44294,0.14764 0.972,0.14764 0.70131,0 1.40878,-0.27683 0.71361,-0.28299 1.01506,-0.55367 l 0.0615,0 0,1.26113 q -0.58442,0.24608 -1.19346,0.41218 -0.60903,0.1661 -1.27959,0.1661 -1.71022,0 -2.66991,-0.92278 -0.95969,-0.92894 -0.95969,-2.633 0,-1.68562 0.91663,-2.67607 0.92278,-0.99045 2.42383,-0.99045 1.39033,0 2.14086,0.81205 0.75668,0.81204 0.75668,2.30695 l 0,0.62749 z m -1.1258,-0.88587 q -0.006,-0.91048 -0.46139,-1.40878 -0.44908,-0.4983 -1.37186,-0.4983 -0.92894,0 -1.48261,0.54752 -0.54751,0.54751 -0.62133,1.35956 l 3.93719,0 z"
       id="path4221"
       inkscape:connector-curvature="0" />
    <path
       d="m 220.7995,219.50498 -1.40877,0 q -1.08888,-1.24883 -1.69177,-2.72528 -0.60288,-1.47645 -0.60288,-3.32816 0,-1.85171 0.60288,-3.32816 0.60289,-1.47645 1.69177,-2.72528 l 1.40877,0 0,0.0615 q -0.4983,0.44908 -0.95354,1.03966 -0.44908,0.58443 -0.83665,1.36572 -0.36911,0.75668 -0.60288,1.66715 -0.22762,0.91048 -0.22762,1.91939 0,1.05197 0.22147,1.92553 0.22761,0.87357 0.60903,1.66101 0.36911,0.75668 0.84281,1.36572 0.47369,0.61518 0.94738,1.03966 l 0,0.0615 z"
       id="path4223"
       inkscape:connector-curvature="0" />
    <path
       d="m 226.32389,213.45154 q 0,1.85171 -0.60288,3.32816 -0.60288,1.47645 -1.69177,2.72528 l -1.40877,0 0,-0.0615 q 0.47369,-0.42448 0.94738,-1.03966 0.47985,-0.60904 0.84281,-1.36572 0.38142,-0.78744 0.60288,-1.66101 0.22762,-0.87356 0.22762,-1.92553 0,-1.00891 -0.22762,-1.91939 -0.22762,-0.91047 -0.60288,-1.66715 -0.38757,-0.78129 -0.84281,-1.36572 -0.44908,-0.59058 -0.94738,-1.03966 l 0,-0.0615 1.40877,0 q 1.08889,1.24883 1.69177,2.72528 0.60288,1.47645 0.60288,3.32816 z"
       id="path4225"
       inkscape:connector-curvature="0" />
    <path
       d="m 231.04852,211.85205 -1.4703,0 0,-1.75328 1.4703,0 0,1.75328 z m 0.44909,3.36508 -1.73483,4.02947 -0.89817,0 1.07042,-4.02947 1.56258,0 z"
       id="path4227"
       inkscape:connector-curvature="0" />
    <path
       d="m 90.945811,232.28857 q -0.578276,0.27683 -1.101185,0.43063 -0.516758,0.1538 -1.101185,0.1538 -0.744377,0 -1.365716,-0.21532 -0.621339,-0.22147 -1.064273,-0.6644 -0.449087,-0.44294 -0.695162,-1.11964 -0.246075,-0.67671 -0.246075,-1.58103 0,-1.68562 0.922781,-2.64531 0.928933,-0.95969 2.448445,-0.95969 0.590579,0 1.156552,0.1661 0.572124,0.1661 1.045818,0.40602 l 0,1.28575 -0.06152,0 q -0.529061,-0.41218 -1.095033,-0.63365 -0.55982,-0.22146 -1.095033,-0.22146 -0.9843,0 -1.556424,0.6644 -0.565972,0.65825 -0.565972,1.93784 0,1.24268 0.553669,1.91323 0.55982,0.6644 1.568727,0.6644 0.350656,0 0.713617,-0.0923 0.36296,-0.0923 0.652098,-0.23992 0.252227,-0.12919 0.473694,-0.27068 0.221468,-0.14765 0.350657,-0.25223 l 0.06152,0 0,1.27344 z"
       id="path4229"
       inkscape:connector-curvature="0" />
    <path
       d="m 98.180411,232.7192 -1.156552,0 0,-3.91259 q 0,-0.47369 -0.05537,-0.88587 -0.05537,-0.41833 -0.203012,-0.6521 -0.153796,-0.25838 -0.442934,-0.38141 -0.289138,-0.12919 -0.750529,-0.12919 -0.473694,0 -0.990451,0.23377 -0.516757,0.23377 -0.990451,0.59673 l 0,5.13066 -1.156552,0 0,-9.57231 1.156552,0 0,3.4635 q 0.541364,-0.44909 1.11964,-0.70131 0.578276,-0.25223 1.187312,-0.25223 1.113488,0 1.697916,0.67056 0.584428,0.67055 0.584428,1.93168 l 0,4.46011 z"
       id="path4231"
       inkscape:connector-curvature="0" />
    <path
       d="m 105.74721,232.7192 -1.1504,0 0,-0.73207 q -0.1538,0.10458 -0.41833,0.29529 -0.25837,0.18455 -0.50445,0.29529 -0.28914,0.14149 -0.6644,0.23377 -0.37527,0.0984 -0.87972,0.0984 -0.92893,0 -1.57488,-0.61519 -0.645944,-0.61519 -0.645944,-1.56873 0,-0.78128 0.332204,-1.26113 0.33835,-0.486 0.95969,-0.76283 0.62749,-0.27684 1.50721,-0.37527 0.87971,-0.0984 1.88862,-0.14764 l 0,-0.17841 q 0,-0.39372 -0.14149,-0.65209 -0.13534,-0.25838 -0.39372,-0.40603 -0.24608,-0.14149 -0.59058,-0.19071 -0.34451,-0.0492 -0.71977,-0.0492 -0.45524,0 -1.01506,0.12304 -0.55982,0.11688 -1.15655,0.3445 l -0.0615,0 0,-1.17501 q 0.33835,-0.0923 0.97815,-0.20301 0.63979,-0.11073 1.26113,-0.11073 0.72592,0 1.26114,0.12304 0.54136,0.11688 0.93508,0.40602 0.38757,0.28299 0.59058,0.73207 0.20301,0.44909 0.20301,1.11349 l 0,4.66312 z m -1.1504,-1.69176 0,-1.91324 q -0.52906,0.0308 -1.24883,0.0923 -0.71362,0.0615 -1.13194,0.17841 -0.4983,0.14149 -0.8059,0.44293 -0.30759,0.29529 -0.30759,0.8182 0,0.59058 0.35681,0.89202 0.35681,0.29529 1.08888,0.29529 0.60903,0 1.11349,-0.23377 0.50445,-0.23992 0.93508,-0.57212 z"
       id="path4233"
       inkscape:connector-curvature="0" />
    <path
       d="m 113.73234,232.7192 -1.15655,0 0,-3.91259 q 0,-0.47369 -0.0554,-0.88587 -0.0554,-0.41833 -0.20301,-0.6521 -0.1538,-0.25838 -0.44293,-0.38141 -0.28914,-0.12919 -0.75053,-0.12919 -0.4737,0 -0.99045,0.23377 -0.51676,0.23377 -0.99046,0.59673 l 0,5.13066 -1.15655,0 0,-6.87164 1.15655,0 0,0.76283 q 0.54137,-0.44909 1.11964,-0.70131 0.57828,-0.25223 1.18732,-0.25223 1.11348,0 1.69791,0.67056 0.58443,0.67055 0.58443,1.93168 l 0,4.46011 z"
       id="path4235"
       inkscape:connector-curvature="0" />
    <path
       d="m 121.53292,231.93791 q 0,1.74713 -0.7936,2.56533 -0.79359,0.8182 -2.44229,0.8182 -0.54752,0 -1.07042,-0.08 -0.51676,-0.0738 -1.02121,-0.21532 l 0,-1.18116 0.0615,0 q 0.28299,0.11074 0.89818,0.27068 0.61518,0.1661 1.23037,0.1661 0.59058,0 0.97815,-0.14149 0.38757,-0.14149 0.60288,-0.39372 0.21532,-0.23992 0.3076,-0.57827 0.0923,-0.33836 0.0923,-0.75668 l 0,-0.62749 q -0.52291,0.41832 -1.00275,0.62749 -0.4737,0.20301 -1.21192,0.20301 -1.23037,0 -1.95629,-0.88587 -0.71977,-0.89202 -0.71977,-2.50997 0,-0.88586 0.24607,-1.52566 0.25223,-0.64595 0.68286,-1.11349 0.39987,-0.43678 0.97199,-0.6767 0.57213,-0.24608 1.1381,-0.24608 0.59673,0 0.9966,0.12304 0.40603,0.11688 0.85511,0.36296 l 0.0738,-0.29529 1.08273,0 0,6.09035 z m -1.15656,-1.10733 0,-3.74649 q -0.46139,-0.20917 -0.86126,-0.29529 -0.39372,-0.0923 -0.78744,-0.0923 -0.95354,0 -1.50105,0.63979 -0.54752,0.6398 -0.54752,1.85787 0,1.15655 0.40602,1.75328 0.40603,0.59673 1.34726,0.59673 0.50446,0 1.00891,-0.19071 0.5106,-0.19686 0.93508,-0.5229 z"
       id="path4237"
       inkscape:connector-curvature="0" />
    <path
       d="m 129.56111,229.40334 -5.06299,0 q 0,0.63364 0.19071,1.10734 0.1907,0.46754 0.52291,0.76898 0.31989,0.29529 0.75668,0.44294 0.44293,0.14764 0.97199,0.14764 0.70131,0 1.40878,-0.27683 0.71362,-0.28299 1.01506,-0.55367 l 0.0615,0 0,1.26113 q -0.58443,0.24608 -1.19347,0.41218 -0.60903,0.1661 -1.27958,0.1661 -1.71022,0 -2.66992,-0.92278 -0.95969,-0.92893 -0.95969,-2.633 0,-1.68562 0.91663,-2.67607 0.92278,-0.99045 2.42384,-0.99045 1.39032,0 2.14085,0.81205 0.75668,0.81205 0.75668,2.30695 l 0,0.62749 z m -1.12579,-0.88587 q -0.006,-0.91048 -0.46139,-1.40878 -0.44909,-0.4983 -1.37187,-0.4983 -0.92893,0 -1.4826,0.54752 -0.54752,0.54751 -0.62134,1.35956 l 3.9372,0 z"
       id="path4239"
       inkscape:connector-curvature="0" />
    <path
       d="m 138.21064,234.56476 -8.05896,0 0,-0.73822 8.05896,0 0,0.73822 z"
       id="path4241"
       inkscape:connector-curvature="0" />
    <path
       d="m 142.90452,232.65768 q -0.32605,0.0861 -0.71362,0.14149 -0.38142,0.0554 -0.68286,0.0554 -1.05197,0 -1.59949,-0.56597 -0.54751,-0.56597 -0.54751,-1.8148 l 0,-3.65421 -0.78129,0 0,-0.972 0.78129,0 0,-1.97475 1.15655,0 0,1.97475 2.38693,0 0,0.972 -2.38693,0 0,3.1313 q 0,0.54136 0.0246,0.84896 0.0246,0.30144 0.17225,0.56597 0.13534,0.24607 0.36911,0.36296 0.23992,0.11073 0.72592,0.11073 0.28299,0 0.59058,-0.08 0.3076,-0.0861 0.44294,-0.1415 l 0.0615,0 0,1.03967 z"
       id="path4243"
       inkscape:connector-curvature="0" />
    <path
       d="m 150.05299,232.7192 -1.15655,0 0,-3.91259 q 0,-0.47369 -0.0554,-0.88587 -0.0554,-0.41833 -0.20301,-0.6521 -0.1538,-0.25838 -0.44294,-0.38141 -0.28913,-0.12919 -0.75052,-0.12919 -0.4737,0 -0.99046,0.23377 -0.51675,0.23377 -0.99045,0.59673 l 0,5.13066 -1.15655,0 0,-9.57231 1.15655,0 0,3.4635 q 0.54137,-0.44909 1.11964,-0.70131 0.57828,-0.25223 1.18731,-0.25223 1.11349,0 1.69792,0.67056 0.58443,0.67055 0.58443,1.93168 l 0,4.46011 z"
       id="path4245"
       inkscape:connector-curvature="0" />
    <path
       d="m 158.03196,229.40334 -5.06299,0 q 0,0.63364 0.19071,1.10734 0.19071,0.46754 0.52291,0.76898 0.3199,0.29529 0.75668,0.44294 0.44294,0.14764 0.972,0.14764 0.70131,0 1.40878,-0.27683 0.71361,-0.28299 1.01505,-0.55367 l 0.0615,0 0,1.26113 q -0.58442,0.24608 -1.19346,0.41218 -0.60904,0.1661 -1.27959,0.1661 -1.71022,0 -2.66991,-0.92278 -0.95969,-0.92893 -0.95969,-2.633 0,-1.68562 0.91663,-2.67607 0.92278,-0.99045 2.42383,-0.99045 1.39033,0 2.14085,0.81205 0.75668,0.81205 0.75668,2.30695 l 0,0.62749 z m -1.12579,-0.88587 q -0.006,-0.91048 -0.46139,-1.40878 -0.44908,-0.4983 -1.37187,-0.4983 -0.92893,0 -1.4826,0.54752 -0.54751,0.54751 -0.62134,1.35956 l 3.9372,0 z"
       id="path4247"
       inkscape:connector-curvature="0" />
    <path
       d="m 166.6815,234.56476 -8.05895,0 0,-0.73822 8.05895,0 0,0.73822 z"
       id="path4249"
       inkscape:connector-curvature="0" />
    <path
       d="m 176.45067,225.84756 -1.79019,6.87164 -1.07043,0 -1.76558,-5.29676 -1.75329,5.29676 -1.06427,0 -1.80865,-6.87164 1.20576,0 1.26114,5.32137 1.71637,-5.32137 0.95354,0 1.75944,5.32137 1.19346,-5.32137 1.1627,0 z"
       id="path4251"
       inkscape:connector-curvature="0" />
    <path
       d="m 183.97441,229.28646 q 0,1.67946 -0.86127,2.65145 -0.86126,0.972 -2.30695,0.972 -1.45799,0 -2.31925,-0.972 -0.85511,-0.97199 -0.85511,-2.65145 0,-1.67947 0.85511,-2.65146 0.86126,-0.97815 2.31925,-0.97815 1.44569,0 2.30695,0.97815 0.86127,0.97199 0.86127,2.65146 z m -1.19347,0 q 0,-1.33496 -0.52291,-1.98091 -0.5229,-0.6521 -1.45184,-0.6521 -0.94123,0 -1.46414,0.6521 -0.51676,0.64595 -0.51676,1.98091 0,1.29189 0.52291,1.96244 0.52291,0.6644 1.45799,0.6644 0.92278,0 1.44569,-0.65825 0.52906,-0.6644 0.52906,-1.96859 z"
       id="path4253"
       inkscape:connector-curvature="0" />
    <path
       d="m 190.05861,227.10869 -0.0615,0 q -0.25838,-0.0615 -0.50445,-0.0861 -0.23992,-0.0308 -0.57213,-0.0308 -0.53521,0 -1.03351,0.23992 -0.4983,0.23377 -0.95969,0.60904 l 0,4.87843 -1.15655,0 0,-6.87164 1.15655,0 0,1.01506 q 0.68901,-0.55367 1.21192,-0.78129 0.52906,-0.23377 1.07657,-0.23377 0.30145,0 0.43679,0.0185 0.13534,0.0123 0.40602,0.0554 l 0,1.18731 z"
       id="path4255"
       inkscape:connector-curvature="0" />
    <path
       d="m 192.32865,232.7192 -1.15655,0 0,-9.57231 1.15655,0 0,9.57231 z"
       id="path4257"
       inkscape:connector-curvature="0" />
    <path
       d="m 200.15383,232.7192 -1.15655,0 0,-0.71977 q -0.4983,0.43063 -1.03967,0.67055 -0.54136,0.23993 -1.17501,0.23993 -1.23037,0 -1.95629,-0.94739 -0.71977,-0.94739 -0.71977,-2.62685 0,-0.87357 0.24608,-1.55642 0.25222,-0.68286 0.6767,-1.16271 0.41833,-0.46754 0.972,-0.71361 0.55982,-0.24608 1.15655,-0.24608 0.54136,0 0.95969,0.11689 0.41833,0.11073 0.87972,0.35065 l 0,-2.9775 1.15655,0 0,9.57231 z m -1.15655,-1.69176 0,-3.94335 q -0.46754,-0.20917 -0.83666,-0.28914 -0.36911,-0.08 -0.80589,-0.08 -0.972,0 -1.51336,0.67671 -0.54137,0.6767 -0.54137,1.91938 0,1.22423 0.41833,1.86402 0.41833,0.63364 1.34111,0.63364 0.49215,0 0.9966,-0.21531 0.50446,-0.22147 0.94124,-0.56597 z"
       id="path4259"
       inkscape:connector-curvature="0" />
    <path
       d="m 206.10885,235.25377 -1.40878,0 q -1.08888,-1.24883 -1.69177,-2.72528 -0.60288,-1.47645 -0.60288,-3.32816 0,-1.85171 0.60288,-3.32816 0.60289,-1.47645 1.69177,-2.72528 l 1.40878,0 0,0.0615 q -0.49831,0.44908 -0.95354,1.03966 -0.44909,0.58443 -0.83666,1.36572 -0.36911,0.75668 -0.60288,1.66716 -0.22762,0.91047 -0.22762,1.91938 0,1.05197 0.22147,1.92553 0.22762,0.87357 0.60903,1.66101 0.36911,0.75668 0.84281,1.36572 0.47369,0.61518 0.94739,1.03966 l 0,0.0615 z"
       id="path4261"
       inkscape:connector-curvature="0" />
    <path
       d="m 211.63322,229.20033 q 0,1.85171 -0.60288,3.32816 -0.60289,1.47645 -1.69177,2.72528 l -1.40878,0 0,-0.0615 q 0.4737,-0.42448 0.94739,-1.03966 0.47985,-0.60904 0.84281,-1.36572 0.38141,-0.78744 0.60288,-1.66101 0.22762,-0.87356 0.22762,-1.92553 0,-1.00891 -0.22762,-1.91938 -0.22762,-0.91048 -0.60288,-1.66716 -0.38757,-0.78129 -0.84281,-1.36572 -0.44909,-0.59058 -0.94739,-1.03966 l 0,-0.0615 1.40878,0 q 1.08888,1.24883 1.69177,2.72528 0.60288,1.47645 0.60288,3.32816 z"
       id="path4263"
       inkscape:connector-curvature="0" />
    <path
       d="m 216.35786,227.60084 -1.47029,0 0,-1.75328 1.47029,0 0,1.75328 z m 0.44909,3.36508 -1.73483,4.02947 -0.89817,0 1.07042,-4.02947 1.56258,0 z"
       id="path4265"
       inkscape:connector-curvature="0" />
    <path
       d="m 78.371386,245.36745 -0.313746,0 q -1.05197,0 -1.562575,0.59058 -0.510605,0.58442 -0.510605,1.62409 l 0,0.91663 q 0,1.15655 -0.68901,1.76559 -0.682858,0.61518 -1.784043,0.61518 l -0.92278,0 0,-0.84895 0.701313,0 q 0.836654,0 1.211919,-0.38757 0.381416,-0.38757 0.381416,-1.24883 l 0,-1.07658 q 0,-0.85511 0.473694,-1.43339 0.473694,-0.58442 1.3165,-0.92278 l 0,-0.14764 q -0.842806,-0.33835 -1.3165,-0.91663 -0.473694,-0.58443 -0.473694,-1.43954 l 0,-1.07658 q 0,-0.86126 -0.381416,-1.24883 -0.375265,-0.38756 -1.211919,-0.38756 l -0.701313,0 0,-0.84896 0.92278,0 q 1.101185,0 1.784043,0.61519 0.68901,0.60903 0.68901,1.76558 l 0,0.91663 q 0,1.03967 0.510605,1.63025 0.510605,0.58443 1.562575,0.58443 l 0.313746,0 0,0.95969 z"
       id="path4267"
       inkscape:connector-curvature="0" />
    <path
       d="m 81.219702,257.34514 -1.790194,6.87164 -1.070426,0 -1.765587,-5.29676 -1.753283,5.29676 -1.064274,0 -1.80865,-6.87164 1.205766,0 1.261134,5.32137 1.716372,-5.32137 0.95354,0 1.759435,5.32137 1.193463,-5.32137 1.162704,0 z"
       id="path4269"
       inkscape:connector-curvature="0" />
    <path
       d="m 84.129536,256.19474 -1.304196,0 0,-1.19961 1.304196,0 0,1.19961 z m -0.07382,8.02204 -1.156552,0 0,-6.87164 1.156552,0 0,6.87164 z"
       id="path4271"
       inkscape:connector-curvature="0" />
    <path
       d="m 92.053147,264.21678 -1.156552,0 0,-3.91259 q 0,-0.47369 -0.05537,-0.88587 -0.05537,-0.41833 -0.203012,-0.6521 -0.153796,-0.25838 -0.442934,-0.38141 -0.289138,-0.12919 -0.750529,-0.12919 -0.473694,0 -0.990451,0.23377 -0.516757,0.23377 -0.990451,0.59673 l 0,5.13066 -1.156552,0 0,-6.87164 1.156552,0 0,0.76283 q 0.541364,-0.44908 1.11964,-0.70131 0.578276,-0.25223 1.187312,-0.25223 1.113488,0 1.697916,0.67056 0.584428,0.67055 0.584428,1.93168 l 0,4.46011 z"
       id="path4273"
       inkscape:connector-curvature="0" />
    <path
       d="m 99.85372,264.21678 -1.156551,0 0,-0.71977 q -0.498302,0.43063 -1.039667,0.67056 -0.541364,0.23992 -1.175007,0.23992 -1.230374,0 -1.956295,-0.94739 -0.719769,-0.94739 -0.719769,-2.62685 0,-0.87356 0.246075,-1.55642 0.252226,-0.68286 0.676706,-1.16271 0.418327,-0.46754 0.971995,-0.71361 0.559821,-0.24608 1.156552,-0.24608 0.541365,0 0.959692,0.11689 0.418327,0.11073 0.879718,0.35065 l 0,-2.9775 1.156551,0 0,9.57231 z m -1.156551,-1.69176 0,-3.94335 q -0.467543,-0.20917 -0.836655,-0.28914 -0.369112,-0.08 -0.805895,-0.08 -0.971996,0 -1.51336,0.67671 -0.541365,0.67671 -0.541365,1.91938 0,1.22423 0.418327,1.86402 0.418327,0.63364 1.341108,0.63364 0.49215,0 0.996603,-0.21531 0.504454,-0.22147 0.941237,-0.56597 z"
       id="path4275"
       inkscape:connector-curvature="0" />
    <path
       d="m 107.9865,260.78404 q 0,1.67946 -0.86127,2.65145 -0.86126,0.972 -2.30695,0.972 -1.45799,0 -2.31925,-0.972 -0.85511,-0.97199 -0.85511,-2.65145 0,-1.67946 0.85511,-2.65146 0.86126,-0.97815 2.31925,-0.97815 1.44569,0 2.30695,0.97815 0.86127,0.972 0.86127,2.65146 z m -1.19347,0 q 0,-1.33496 -0.52291,-1.98091 -0.52291,-0.65209 -1.45184,-0.65209 -0.94123,0 -1.46414,0.65209 -0.51676,0.64595 -0.51676,1.98091 0,1.29189 0.52291,1.96244 0.52291,0.66441 1.45799,0.66441 0.92278,0 1.44569,-0.65825 0.52906,-0.66441 0.52906,-1.9686 z"
       id="path4277"
       inkscape:connector-curvature="0" />
    <path
       d="m 118.42622,257.34514 -1.79019,6.87164 -1.07043,0 -1.76559,-5.29676 -1.75328,5.29676 -1.06427,0 -1.80865,-6.87164 1.20576,0 1.26114,5.32137 1.71637,-5.32137 0.95354,0 1.75943,5.32137 1.19347,-5.32137 1.1627,0 z"
       id="path4279"
       inkscape:connector-curvature="0" />
    <path
       d="m 121.982,264.21678 -1.4703,0 0,-1.75328 1.4703,0 0,1.75328 z"
       id="path4281"
       inkscape:connector-curvature="0" />
    <path
       d="m 130.52695,260.78404 q 0,1.67946 -0.86126,2.65145 -0.86126,0.972 -2.30695,0.972 -1.458,0 -2.31926,-0.972 -0.85511,-0.97199 -0.85511,-2.65145 0,-1.67946 0.85511,-2.65146 0.86126,-0.97815 2.31926,-0.97815 1.44569,0 2.30695,0.97815 0.86126,0.972 0.86126,2.65146 z m -1.19346,0 q 0,-1.33496 -0.52291,-1.98091 -0.52291,-0.65209 -1.45184,-0.65209 -0.94124,0 -1.46415,0.65209 -0.51676,0.64595 -0.51676,1.98091 0,1.29189 0.52291,1.96244 0.52291,0.66441 1.458,0.66441 0.92278,0 1.44569,-0.65825 0.52906,-0.66441 0.52906,-1.9686 z"
       id="path4283"
       inkscape:connector-curvature="0" />
    <path
       d="m 138.06915,264.21678 -1.15655,0 0,-3.91259 q 0,-0.47369 -0.0554,-0.88587 -0.0554,-0.41833 -0.20301,-0.6521 -0.1538,-0.25838 -0.44294,-0.38141 -0.28914,-0.12919 -0.75053,-0.12919 -0.47369,0 -0.99045,0.23377 -0.51675,0.23377 -0.99045,0.59673 l 0,5.13066 -1.15655,0 0,-6.87164 1.15655,0 0,0.76283 q 0.54137,-0.44908 1.11964,-0.70131 0.57828,-0.25223 1.18731,-0.25223 1.11349,0 1.69792,0.67056 0.58443,0.67055 0.58443,1.93168 l 0,4.46011 z"
       id="path4285"
       inkscape:connector-curvature="0" />
    <path
       d="m 141.46498,264.21678 -1.15655,0 0,-9.57231 1.15655,0 0,9.57231 z"
       id="path4287"
       inkscape:connector-curvature="0" />
    <path
       d="m 149.57315,260.78404 q 0,1.67946 -0.86127,2.65145 -0.86126,0.972 -2.30695,0.972 -1.45799,0 -2.31925,-0.972 -0.85511,-0.97199 -0.85511,-2.65145 0,-1.67946 0.85511,-2.65146 0.86126,-0.97815 2.31925,-0.97815 1.44569,0 2.30695,0.97815 0.86127,0.972 0.86127,2.65146 z m -1.19347,0 q 0,-1.33496 -0.52291,-1.98091 -0.52291,-0.65209 -1.45184,-0.65209 -0.94123,0 -1.46414,0.65209 -0.51676,0.64595 -0.51676,1.98091 0,1.29189 0.52291,1.96244 0.52291,0.66441 1.45799,0.66441 0.92278,0 1.44569,-0.65825 0.52906,-0.66441 0.52906,-1.9686 z"
       id="path4289"
       inkscape:connector-curvature="0" />
    <path
       d="m 156.70931,264.21678 -1.1504,0 0,-0.73207 q -0.15379,0.10458 -0.41832,0.29529 -0.25838,0.18455 -0.50446,0.29529 -0.28914,0.14149 -0.6644,0.23377 -0.37526,0.0984 -0.87972,0.0984 -0.92893,0 -1.57488,-0.61519 -0.64594,-0.61519 -0.64594,-1.56873 0,-0.78128 0.3322,-1.26113 0.33835,-0.486 0.95969,-0.76283 0.62749,-0.27684 1.50721,-0.37527 0.87972,-0.0984 1.88862,-0.14764 l 0,-0.1784 q 0,-0.39372 -0.14149,-0.6521 -0.13534,-0.25838 -0.39372,-0.40603 -0.24608,-0.14149 -0.59058,-0.1907 -0.3445,-0.0492 -0.71977,-0.0492 -0.45524,0 -1.01506,0.12304 -0.55982,0.11688 -1.15655,0.3445 l -0.0615,0 0,-1.175 q 0.33835,-0.0923 0.97815,-0.20302 0.63979,-0.11073 1.26113,-0.11073 0.72592,0 1.26114,0.12304 0.54136,0.11688 0.93508,0.40602 0.38757,0.28299 0.59058,0.73207 0.20301,0.44909 0.20301,1.11349 l 0,4.66312 z m -1.1504,-1.69176 0,-1.91324 q -0.52906,0.0308 -1.24883,0.0923 -0.71361,0.0615 -1.13194,0.17841 -0.4983,0.14149 -0.8059,0.44293 -0.30759,0.29529 -0.30759,0.8182 0,0.59058 0.35681,0.89202 0.35681,0.29529 1.08888,0.29529 0.60903,0 1.11349,-0.23377 0.50445,-0.23992 0.93508,-0.57212 z"
       id="path4291"
       inkscape:connector-curvature="0" />
    <path
       d="m 164.52219,264.21678 -1.15655,0 0,-0.71977 q -0.4983,0.43063 -1.03967,0.67056 -0.54136,0.23992 -1.175,0.23992 -1.23038,0 -1.9563,-0.94739 -0.71977,-0.94739 -0.71977,-2.62685 0,-0.87356 0.24608,-1.55642 0.25222,-0.68286 0.6767,-1.16271 0.41833,-0.46754 0.972,-0.71361 0.55982,-0.24608 1.15655,-0.24608 0.54137,0 0.95969,0.11689 0.41833,0.11073 0.87972,0.35065 l 0,-2.9775 1.15655,0 0,9.57231 z m -1.15655,-1.69176 0,-3.94335 q -0.46754,-0.20917 -0.83665,-0.28914 -0.36912,-0.08 -0.8059,-0.08 -0.97199,0 -1.51336,0.67671 -0.54136,0.67671 -0.54136,1.91938 0,1.22423 0.41832,1.86402 0.41833,0.63364 1.34111,0.63364 0.49215,0 0.9966,-0.21531 0.50446,-0.22147 0.94124,-0.56597 z"
       id="path4293"
       inkscape:connector-curvature="0" />
    <path
       d="m 178.89296,259.40602 -7.29612,0 0,-0.9843 7.29612,0 0,0.9843 z m 0,2.58378 -7.29612,0 0,-0.9843 7.29612,0 0,0.9843 z"
       id="path4295"
       inkscape:connector-curvature="0" />
    <path
       d="m 196.72108,255.05664 -2.38077,9.16014 -1.37187,0 -1.92554,-7.60371 -1.88247,7.60371 -1.34111,0 -2.42383,-9.16014 1.24883,0 1.92553,7.61602 1.89478,-7.61602 1.23652,0 1.91324,7.68984 1.91323,-7.68984 1.19346,0 z"
       id="path4297"
       inkscape:connector-curvature="0" />
    <path
       d="m 206.25033,259.64594 q 0,1.24883 -0.54752,2.26389 -0.54136,1.01506 -1.44569,1.57488 -0.62749,0.38757 -1.40263,0.55982 -0.76898,0.17225 -2.03011,0.17225 l -2.31311,0 0,-9.16014 2.2885,0 q 1.34111,0 2.12855,0.19686 0.79359,0.19071 1.3411,0.52907 0.93509,0.58442 1.458,1.55642 0.52291,0.97199 0.52291,2.30695 z m -1.27344,-0.0185 q 0,-1.07657 -0.37526,-1.8148 -0.37527,-0.73822 -1.11964,-1.1627 -0.54137,-0.30759 -1.1504,-0.42448 -0.60904,-0.12304 -1.458,-0.12304 l -1.14425,0 0,7.0685 1.14425,0 q 0.87972,0 1.53182,-0.12919 0.65825,-0.12919 1.20576,-0.47984 0.68286,-0.43679 1.02122,-1.1504 0.3445,-0.71362 0.3445,-1.78405 z"
       id="path4299"
       inkscape:connector-curvature="0" />
    <path
       d="m 216.38861,264.21678 -1.21807,0 0,-7.89285 -2.54688,5.37058 -0.72592,0 -2.52842,-5.37058 0,7.89285 -1.13809,0 0,-9.16014 1.661,0 2.4423,5.09991 2.36232,-5.09991 1.69176,0 0,9.16014 z"
       id="path4301"
       inkscape:connector-curvature="0" />
    <path
       d="m 222.44822,266.75135 -1.40878,0 q -1.08888,-1.24883 -1.69177,-2.72528 -0.60288,-1.47645 -0.60288,-3.32816 0,-1.85171 0.60288,-3.32816 0.60289,-1.47645 1.69177,-2.72528 l 1.40878,0 0,0.0615 q -0.4983,0.44908 -0.95354,1.03966 -0.44909,0.58443 -0.83666,1.36572 -0.36911,0.75668 -0.60288,1.66716 -0.22762,0.91047 -0.22762,1.91938 0,1.05197 0.22147,1.92554 0.22762,0.87356 0.60903,1.661 0.36911,0.75668 0.84281,1.36572 0.47369,0.61518 0.94739,1.03966 l 0,0.0615 z"
       id="path4303"
       inkscape:connector-curvature="0" />
    <path
       d="m 227.97259,260.69791 q 0,1.85171 -0.60288,3.32816 -0.60289,1.47645 -1.69177,2.72528 l -1.40878,0 0,-0.0615 q 0.4737,-0.42448 0.94739,-1.03966 0.47985,-0.60904 0.84281,-1.36572 0.38141,-0.78744 0.60288,-1.661 0.22762,-0.87357 0.22762,-1.92554 0,-1.00891 -0.22762,-1.91938 -0.22762,-0.91048 -0.60288,-1.66716 -0.38757,-0.78129 -0.84281,-1.36572 -0.44909,-0.59058 -0.94739,-1.03966 l 0,-0.0615 1.40878,0 q 1.08888,1.24883 1.69177,2.72528 0.60288,1.47645 0.60288,3.32816 z"
       id="path4305"
       inkscape:connector-curvature="0" />
    <path
       d="m 232.69723,259.09842 -1.47029,0 0,-1.75328 1.47029,0 0,1.75328 z m 0.44909,3.36508 -1.73483,4.02947 -0.89817,0 1.07042,-4.02947 1.56258,0 z"
       id="path4307"
       inkscape:connector-curvature="0" />
  </g>
</svg>
