<?xml version="1.0" encoding="UTF-8" standalone="no"?>
<svg
   xmlns:dc="http://purl.org/dc/elements/1.1/"
   xmlns:cc="http://creativecommons.org/ns#"
   xmlns:rdf="http://www.w3.org/1999/02/22-rdf-syntax-ns#"
   xmlns:svg="http://www.w3.org/2000/svg"
   xmlns="http://www.w3.org/2000/svg"
   xmlns:sodipodi="http://sodipodi.sourceforge.net/DTD/sodipodi-0.dtd"
   xmlns:inkscape="http://www.inkscape.org/namespaces/inkscape"
   width="266pt"
   height="300pt"
   viewBox="0 0 266 300"
   version="1.1"
   id="svg2"
   inkscape:version="0.91 r13725"
   sodipodi:docname="photography.svg">
  <metadata
     id="metadata13">
    <rdf:RDF>
      <cc:Work
         rdf:about="">
        <dc:format>image/svg+xml</dc:format>
        <dc:type
           rdf:resource="http://purl.org/dc/dcmitype/StillImage" />
        <dc:title></dc:title>
      </cc:Work>
    </rdf:RDF>
  </metadata>
  <defs
     id="defs11" />
  <sodipodi:namedview
     pagecolor="#ffffc8"
     bordercolor="#666666"
     borderopacity="1"
     objecttolerance="10"
     gridtolerance="10"
     guidetolerance="10"
     inkscape:pageopacity="0"
     inkscape:pageshadow="2"
     inkscape:window-width="640"
     inkscape:window-height="480"
     id="namedview9"
     showgrid="false"
     inkscape:zoom="1.4820958"
     inkscape:cx="133.18863"
     inkscape:cy="179.36086"
     inkscape:current-layer="svg2" />
  <rect
     style="opacity:0.97000002;fill:#041a25;fill-opacity:0.76862745;fill-rule:evenodd;stroke:none;stroke-width:2.50948715;stroke-linecap:round;stroke-linejoin:round;stroke-miterlimit:4;stroke-dasharray:none;stroke-dashoffset:0;stroke-opacity:1"
     id="rect12859"
     width="269.42941"
     height="302.75391"
     x="-0.48221651"
     y="-0.64117247" />
  <g
     id="g9077"
     transform="matrix(1.1544355,0,0,1.1501019,-22.367913,-25.075441)">
    <g
       transform="translate(21.846141,40.135948)"
       id="#384a5dff-5">
      <path
         style="opacity:1;fill:#384a5d"
         inkscape:connector-curvature="0"
         id="path48-0"
         d="m 73.84,12.09 c 2.64,-1.47 5.39,-2.72 8.2,-3.84 2.48,1.91 4.79,4.01 7.04,6.17 L 88.4,14.7 c -4.34,1.58 -8.4,3.9 -11.62,7.24 -0.36,-0.03 -1.08,-0.08 -1.44,-0.11 -0.67,-3.22 -1.05,-6.49 -1.5,-9.74 z" />
      <path
         style="opacity:1;fill:#384a5d"
         inkscape:connector-curvature="0"
         id="path50-43"
         d="m 22.65,56.51 c 3.28,-2.32 6.39,-5.77 10.45,-6.37 -0.22,0.25 -0.66,0.73 -0.87,0.98 0.25,2.79 0.72,5.55 1.18,8.32 -0.95,0.65 -1.93,1.26 -2.95,1.8 -0.68,-0.05 -2.04,-0.15 -2.72,-0.2 0.07,11.31 0.5,22.63 0.07,33.94 0.14,2.52 -1.11,6.69 2.87,6.33 0.63,3.33 0.51,6.74 0,10.08 -0.54,-0.44 -1.6,-1.34 -2.14,-1.79 -0.51,-1.73 -1.02,-3.46 -1.52,-5.19 l -0.22,-0.8 c 1.46,-0.01 1.65,-0.57 0.56,-1.68 0.06,-5.32 0.13,-10.64 -0.02,-15.95 -0.2,-8.24 0.57,-16.51 -0.28,-24.72 -0.92,-0.46 -1.74,-1.04 -2.47,-1.74 -0.67,-0.99 -1.31,-2 -1.94,-3.01 z" />
    </g>
    <g
       transform="translate(21.846141,40.135948)"
       id="#24384dff-0">
      <path
         style="opacity:1;fill:#24384d"
         inkscape:connector-curvature="0"
         id="path53-04"
         d="M 76.78,21.94 C 80,18.6 84.06,16.28 88.4,14.7 c 1.34,3.38 2.91,6.67 4.5,9.95 -1,0.7 -2,1.41 -3.02,2.07 -3.23,1.42 -6.77,2.61 -9.07,5.44 -0.48,-0.99 -0.94,-1.98 -1.45,-2.95 -0.48,-1.12 -0.95,-2.24 -1.43,-3.35 -1.64,2.18 -3.98,3.5 -6.71,3.78 -0.44,0.35 -0.89,0.7 -1.34,1.05 -1.87,1.46 -3.84,2.78 -5.85,4.01 -8.48,5.31 -16.94,10.64 -25.42,15.94 -0.35,0.22 -1.05,0.66 -1.41,0.88 -0.95,0.57 -1.9,1.15 -2.86,1.73 -0.08,2.09 -0.2,4.2 -0.93,6.19 -0.46,-2.77 -0.93,-5.53 -1.18,-8.32 0.21,-0.25 0.65,-0.73 0.87,-0.98 7.74,-5.11 15.81,-9.71 23.53,-14.86 2.14,-1.38 4.27,-2.8 6.32,-4.31 -8.1,-0.51 -16.23,-0.29 -24.34,-0.24 0.01,1.36 0.01,2.71 0.02,4.07 0,1.38 -0.05,2.76 -0.14,4.14 -1.98,-1 -1.36,-3.45 -1.56,-5.21 0.01,-0.37 0.04,-1.12 0.06,-1.49 0.02,-0.54 0.07,-1.62 0.1,-2.16 8.3,0.09 16.6,-0.23 24.9,0.03 4.24,0.28 7.49,-3.11 10.26,-5.87 1.2,-1.3 3.3,-1.04 4.53,-2.3 z" />
      <path
         style="opacity:1;fill:#24384d"
         inkscape:connector-curvature="0"
         id="path55-37"
         d="m 123.28,29.48 c 1.48,0.23 2.96,0.46 4.45,0.64 0.59,0.4 1.18,0.81 1.78,1.21 1.33,0.81 2.18,2.09 2.73,3.51 l 0.21,1.43 C 109.07,46.32 85.8,56.67 62.33,66.5 c -0.56,-0.9 -1.12,-1.81 -1.67,-2.71 0.43,-0.87 0.86,-1.74 1.29,-2.62 2.15,0.35 4.32,0.18 6.44,-0.28 0.07,-0.39 0.19,-1.19 0.25,-1.58 3.91,-1.53 7.66,-3.39 11.5,-5.07 10.77,-4.39 21.44,-9.01 32.03,-13.81 5.3,-2.75 11.13,-4.49 16.12,-7.84 -1.78,-0.85 -3.6,-1.7 -5.01,-3.11 z" />
      <path
         style="opacity:1;fill:#24384d"
         inkscape:connector-curvature="0"
         id="path57-40"
         d="m 8.24,66.29 c 4.47,-3.74 9.83,-6.21 14.41,-9.78 0.63,1.01 1.27,2.02 1.94,3.01 -4.58,2.9 -9.1,5.91 -13.77,8.65 -1.16,1.14 -3.89,-0.19 -2.58,-1.88 z" />
    </g>
    <g
       transform="translate(21.846141,40.135948)"
       id="#3b4c5eff-9">
      <path
         style="opacity:1;fill:#3b4c5e"
         inkscape:connector-curvature="0"
         id="path60-6"
         d="m 92.9,24.65 c 7.36,0.28 15.55,-0.94 22.22,2.43 0.82,1.36 1.41,1.35 1.77,-0.03 1.84,0.6 3.87,0.85 5.42,2.11 0.1,-0.04 0.32,-0.12 0.43,-0.16 l 0.54,0.48 c 1.41,1.41 3.23,2.26 5.01,3.11 -4.99,3.35 -10.82,5.09 -16.12,7.84 -1.75,-2.75 -3.22,-5.74 -5.46,-8.14 -4.57,-4.09 -10.92,-5.15 -16.83,-5.57 1.02,-0.66 2.02,-1.37 3.02,-2.07 z" />
      <path
         style="opacity:1;fill:#3b4c5e"
         inkscape:connector-curvature="0"
         id="path62-23"
         d="m 69.88,30.69 c 0.45,-0.35 0.9,-0.7 1.34,-1.05 2.56,0.32 5.25,0.87 7.75,-0.04 l 0.39,-0.39 c 0.51,0.97 0.97,1.96 1.45,2.95 -4.16,6.81 -1.39,14.77 -0.67,22.08 -3.84,1.68 -7.59,3.54 -11.5,5.07 -0.06,0.39 -0.18,1.19 -0.25,1.58 -2.12,0.46 -4.29,0.63 -6.44,0.28 l 0.45,-0.95 c 2.05,-0.39 3.95,-2.95 1.67,-4.44 2.72,-5.69 4.69,-11.83 8.45,-16.96 1.71,0.27 2.5,-0.46 2.37,-2.18 0.35,-0.43 1.03,-1.29 1.38,-1.72 1.15,-1.37 2.35,-2.69 3.54,-4.03 -3.31,-0.09 -6.62,-0.17 -9.93,-0.2 z" />
    </g>
    <g
       transform="translate(21.846141,40.135948)"
       id="#506070ff-91">
      <path
         style="opacity:1;fill:#506070"
         inkscape:connector-curvature="0"
         id="path65-5"
         d="m 80.81,32.16 c 2.3,-2.83 5.84,-4.02 9.07,-5.44 5.91,0.42 12.26,1.48 16.83,5.57 2.24,2.4 3.71,5.39 5.46,8.14 -10.59,4.8 -21.26,9.42 -32.03,13.81 -0.72,-7.31 -3.49,-15.27 0.67,-22.08 z" />
    </g>
    <g
       transform="translate(21.846141,40.135948)"
       id="#090a0eff-5">
      <path
         style="opacity:1;fill:#090a0e"
         inkscape:connector-curvature="0"
         id="path68-92"
         d="m 115.12,27.08 c 0.45,-0.01 1.33,-0.02 1.77,-0.03 -0.36,1.38 -0.95,1.39 -1.77,0.03 z" />
    </g>
    <g
       transform="translate(21.846141,40.135948)"
       id="#000000ff-26">
      <path
         style="opacity:1;fill:#000000"
         inkscape:connector-curvature="0"
         id="path71-56"
         d="M 122.31,29.16 122.74,29 c -0.11,0.04 -0.33,0.12 -0.43,0.16 z" />
    </g>
    <g
       transform="translate(21.846141,40.135948)"
       id="#616266ff-2">
      <path
         style="opacity:1;fill:#616266"
         inkscape:connector-curvature="0"
         id="path74-3"
         d="m 127.73,30.12 c 19.23,-0.25 38.47,-0.1 57.71,-0.08 -5.3,1.74 -10.95,0.7 -16.41,0.96 -13.17,0.23 -26.38,-0.47 -39.52,0.33 -0.6,-0.4 -1.19,-0.81 -1.78,-1.21 z" />
    </g>
    <g
       transform="translate(21.846141,40.135948)"
       id="#929ba6ff-41">
      <path
         style="opacity:1;fill:#929ba6"
         inkscape:connector-curvature="0"
         id="path77-64"
         d="m 185.44,30.04 0.71,-0.23 c 0.01,1.67 0.04,3.34 0.1,5 -18,0.23 -36.01,0.01 -54.01,0.03 -0.55,-1.42 -1.4,-2.7 -2.73,-3.51 13.14,-0.8 26.35,-0.1 39.52,-0.33 5.46,-0.26 11.11,0.78 16.41,-0.96 z" />
      <path
         style="opacity:1;fill:#929ba6"
         inkscape:connector-curvature="0"
         id="path79-42"
         d="m 38.61,30.73 c 8.11,-0.05 16.24,-0.27 24.34,0.24 -2.05,1.51 -4.18,2.93 -6.32,4.31 -5.98,-0.62 -12.01,-0.04 -18,-0.48 -0.01,-1.36 -0.01,-2.71 -0.02,-4.07 z" />
      <path
         style="opacity:1;fill:#929ba6"
         inkscape:connector-curvature="0"
         id="path81-12"
         d="m 64.03,34.7 c 2.01,-1.23 3.98,-2.55 5.85,-4.01 3.31,0.03 6.62,0.11 9.93,0.2 -1.19,1.34 -2.39,2.66 -3.54,4.03 C 72.19,34.9 68.1,34.89 64.03,34.7 Z" />
    </g>
    <g
       transform="translate(21.846141,40.135948)"
       id="#46505cff-49">
      <path
         style="opacity:1;fill:#46505c"
         inkscape:connector-curvature="0"
         id="path84-88"
         d="m 186.15,29.81 c 0.55,0.41 1.64,1.23 2.19,1.64 1.52,0.31 3.66,0.25 2.8,2.5 -0.71,0.04 -2.12,0.1 -2.83,0.13 -0.09,1.8 -0.03,3.73 -1.53,5.01 -0.16,5.6 -0.01,11.21 0.03,16.82 2.84,0.88 5.72,1.64 8.59,2.43 -0.56,0.15 -1.68,0.45 -2.24,0.61 3.02,2.62 6.52,4.72 9.2,7.72 1.98,2.21 3.72,4.62 5.71,6.82 0.21,-1.5 0.23,-2.99 0.08,-4.48 -2.87,-3.79 -7.26,-5.96 -10.64,-9.24 4.69,2.16 8.93,5.39 12.09,9.49 -0.1,0.67 -0.28,2.01 -0.38,2.67 1.13,-1.82 3.12,-2.71 5.13,-3.22 -0.92,1.59 -1.99,3.09 -2.98,4.65 -0.82,0.39 -1.65,0.77 -2.47,1.16 1.42,-0.3 2.66,0 3.73,0.92 0.26,-0.16 0.79,-0.49 1.05,-0.65 1.4,2.84 3.64,5.22 4.58,8.29 -2.15,-2.47 -3.57,-5.95 -7.04,-6.81 2.48,4.46 5.42,8.68 7.47,13.38 0.31,-0.88 0.94,-2.66 1.25,-3.54 0.37,3.27 0.66,6.57 0.27,9.86 -2.12,-2.92 -2.56,-6.67 -4.31,-9.79 -2.02,-3.59 -3.72,-7.63 -7.14,-10.14 5.15,14.19 4.65,29.65 1.77,44.27 2.55,-1.9 4.9,-4.06 7.59,-5.76 0.37,-0.05 1.1,-0.16 1.46,-0.21 -4.26,2.78 -7.8,6.44 -11,10.36 -4.65,-3.65 -9.49,-7.26 -15.16,-9.15 1.28,-0.2 2.61,-0.19 3.77,0.46 4.16,1.91 7.75,4.79 11.57,7.27 4.07,-15.21 5.17,-32.06 -1.13,-46.83 -5.08,13.3 -13.28,25.31 -22.91,35.73 1.78,0.42 3.56,0.83 5.33,1.31 -1.44,13.23 0.61,26.65 -0.81,39.87 -0.03,-13.09 -0.36,-26.19 -0.08,-39.27 -0.61,-0.07 -1.83,-0.2 -2.44,-0.26 -0.54,8.21 -0.73,16.43 -0.98,24.65 l -0.44,1.25 c -0.57,-8.27 0.55,-16.55 0.74,-24.82 0.48,-1.81 -1.8,-1.87 -2.88,-2.37 -0.81,-1.85 -1.62,-3.7 -2.34,-5.59 l 0.72,0.82 c 0.89,1.24 1.57,2.6 2.3,3.94 10.27,-10.36 18.28,-23.03 23.29,-36.73 -15.19,-1.41 -30.31,2.93 -43.77,9.71 7.62,4.91 13.52,12.21 17.24,20.4 0,0.38 0.01,1.14 0.01,1.52 -2.69,-4.64 -5.16,-9.48 -8.87,-13.42 -2.88,-3.43 -6.78,-5.77 -9.87,-8.97 13.95,-6.05 28.79,-11.4 44.27,-10.28 -0.74,-0.55 -1.47,-1.1 -2.2,-1.65 0.29,-0.24 0.87,-0.72 1.16,-0.96 C 199.8,64.56 192.74,59.47 185,55.84 l 1.16,0.37 c -0.32,-7.14 0.37,-14.27 0.09,-21.4 -0.06,-1.66 -0.09,-3.33 -0.1,-5 z" />
    </g>
    <g
       transform="translate(21.846141,40.135948)"
       id="#202936ff-87">
      <path
         style="opacity:1;fill:#202936"
         inkscape:connector-curvature="0"
         id="path87-87"
         d="m 33.87,33 c 0.76,-1.4 1.79,-1.65 3.12,-0.76 -0.02,0.37 -0.05,1.12 -0.06,1.49 -1.37,0.83 -2.39,0.59 -3.06,-0.73 z" />
    </g>
    <g
       transform="translate(21.846141,40.135948)"
       id="#1f2732ff-9">
      <path
         style="opacity:1;fill:#1f2732"
         inkscape:connector-curvature="0"
         id="path90-69"
         d="m 72.52,38.82 c 0.5,-1.04 1.29,-1.77 2.37,-2.18 0.13,1.72 -0.66,2.45 -2.37,2.18 z" />
    </g>
    <g
       transform="translate(21.846141,40.135948)"
       id="#454c5eff-38">
      <path
         style="opacity:1;fill:#454c5e"
         inkscape:connector-curvature="0"
         id="path93-8"
         d="m 37.2,51.52 c 0.36,-0.22 1.06,-0.66 1.41,-0.88 0.68,28.22 -0.74,56.51 1.37,84.69 5.51,-2.58 10.69,-6.36 16.84,-7.19 0.93,-0.9 1.85,-1.8 2.78,-2.69 5.4,1.56 6.17,7.53 6.67,12.27 -1.51,0.24 -3.04,0.38 -4.56,0.55 -0.83,0.76 -1.67,1.49 -2.53,2.22 1.6,-4.08 1.05,-10.49 -4.42,-10.92 0.61,1.14 1.23,2.29 1.85,3.43 -3.88,1.95 -7.84,3.76 -11.59,5.95 -0.74,-0.6 -1.49,-1.19 -2.23,-1.79 -0.89,0.17 -1.78,0.33 -2.67,0.5 1.97,3.19 3.54,6.6 5.18,9.97 -1.66,0.95 -3.41,1.71 -5.17,2.44 -0.51,2.52 -1.04,5.05 -2.02,7.45 0.28,-2.56 0.82,-5.07 1.32,-7.58 -2.43,-3.07 -4.95,-6.79 -4.28,-10.89 1.16,-1.39 2.77,-2.28 4.21,-3.34 -2.08,-28.2 -0.72,-56.48 -1.29,-84.72 l -0.87,0.53 z" />
    </g>
    <g
       transform="translate(21.846141,40.135948)"
       id="#bec3c9ff-4">
      <path
         style="opacity:1;fill:#bec3c9"
         inkscape:connector-curvature="0"
         id="path96-21"
         d="m 173.61,53.06 c 1.15,0.21 2.29,0.47 3.43,0.74 0.7,1.82 2.86,1.87 4.09,0.56 0.32,0.08 0.95,0.24 1.27,0.32 0.24,1.67 0.82,1.88 1.72,0.64 0.22,0.13 0.66,0.39 0.88,0.52 7.74,3.63 14.8,8.72 20.1,15.49 -0.29,0.24 -0.87,0.72 -1.16,0.96 0.73,0.55 1.46,1.1 2.2,1.65 -15.48,-1.12 -30.32,4.23 -44.27,10.28 0.28,-1.11 0.56,-2.22 0.85,-3.33 0.29,0.35 0.87,1.06 1.16,1.42 0.06,-4.22 0.31,-8.46 -0.14,-12.66 l -0.91,-1.15 c -0.01,-0.04 -0.04,-0.12 -0.05,-0.15 -0.35,-2.7 -1.12,-5.31 -2.07,-7.85 6.33,0.17 12.63,0.8 18.88,1.73 8.15,1.39 15.56,5.25 22.95,8.76 -3.37,-3.15 -7.88,-4.5 -12.01,-6.34 -8.77,-3.89 -18.58,-3.65 -27.93,-4.81 0.35,-0.49 1.05,-1.46 1.41,-1.95 1.5,-1.07 3.16,-1.9 4.82,-2.73 1.25,1.97 3.7,0.63 4.05,-1.27 l 0.73,-0.83 z" />
    </g>
    <g
       transform="translate(21.846141,40.135948)"
       id="#909194ff-72">
      <path
         style="opacity:1;fill:#909194"
         inkscape:connector-curvature="0"
         id="path99-7"
         d="m 168.83,55.16 c 1.24,-0.72 2.65,-1.03 4.05,-1.27 -0.35,1.9 -2.8,3.24 -4.05,1.27 z" />
    </g>
    <g
       transform="translate(21.846141,40.135948)"
       id="#868587ff-29">
      <path
         style="opacity:1;fill:#868587"
         inkscape:connector-curvature="0"
         id="path102-7"
         d="m 177.04,53.8 c 1.41,-0.14 2.77,0.05 4.09,0.56 -1.23,1.31 -3.39,1.26 -4.09,-0.56 z" />
    </g>
    <g
       transform="translate(21.846141,40.135948)"
       id="#757372ff-63">
      <path
         style="opacity:1;fill:#757372"
         inkscape:connector-curvature="0"
         id="path105-0"
         d="m 182.4,54.68 c 0.43,0.16 1.29,0.48 1.72,0.64 -0.9,1.24 -1.48,1.03 -1.72,-0.64 z" />
    </g>
    <g
       transform="translate(21.846141,40.135948)"
       id="#203348ff-7">
      <path
         style="opacity:1;fill:#203348"
         inkscape:connector-curvature="0"
         id="path108-1"
         d="m 64.07,55.78 c 2.28,1.49 0.38,4.05 -1.67,4.44 0.42,-1.53 0.94,-3.03 1.67,-4.44 z" />
      <path
         style="opacity:1;fill:#203348"
         inkscape:connector-curvature="0"
         id="path110-9"
         d="m 27.02,104.41 c 0.5,1.73 1.01,3.46 1.52,5.19 0.54,0.45 1.6,1.35 2.14,1.79 -0.51,11.54 -0.03,23.1 -0.24,34.64 0.11,2.82 -1.05,6.83 2.8,7.52 0.78,2.45 2.01,4.71 3.32,6.91 0.36,-0.66 1.08,-1.98 1.44,-2.63 -0.2,0.88 -0.6,2.65 -0.8,3.53 1.2,2.11 2.41,4.21 3.6,6.33 0.56,1 1.12,2.01 1.69,3.02 1.4,2.46 2.85,4.89 4.27,7.34 1.12,1.91 1.99,3.99 2.26,6.21 -2.33,-2.41 -3.74,-5.5 -5.32,-8.41 -1.37,-2.54 -2.75,-5.06 -4.11,-7.6 -2.71,2.17 -5.38,4.41 -8.29,6.31 l -0.49,-0.05 c -0.62,1.11 -0.94,2.95 -2.64,2.19 -1.23,-2.8 -0.41,-5.94 -0.56,-8.89 -1.44,6.37 -2.01,12.9 -2.92,19.36 -0.09,1.37 -0.71,2.61 -1.89,3.4 0,-4.96 0.94,-9.85 1.68,-14.74 0.09,-0.61 0.26,-1.83 0.35,-2.44 -2.11,-1.84 -4.38,-3.48 -6.5,-5.29 -1.34,2.46 -2.75,4.89 -4.17,7.32 -1.74,2.97 -3.15,6.16 -5.29,8.88 -0.04,-2.33 1.1,-4.38 2.23,-6.32 4.47,-8.26 9.66,-16.18 13.57,-24.71 0.6,-0.13 1.82,-0.4 2.43,-0.54 0.67,-2.87 0.34,-5.83 0.37,-8.75 0.01,-9.67 -0.02,-19.34 0.03,-29 0.08,-3.55 -1.14,-7.03 -0.48,-10.57 m 3.49,50.69 c 0.01,5.16 -0.18,10.33 0.05,15.49 l 0.43,0.55 0.26,0.64 -1.13,2.21 c 3.59,-0.96 5.95,-4.28 9.03,-6.23 -0.85,-1.61 -1.75,-3.19 -2.72,-4.72 -1.37,2.23 -1.87,5.44 -4.2,6.85 0.99,-2.73 3.23,-4.94 3.76,-7.87 -1.66,-2.29 -2.28,-6.57 -5.48,-6.92 m -11.83,12.66 c 2.07,1.51 4.13,3.05 6.23,4.52 0.74,-5.51 1.73,-11.02 1.99,-16.57 l -0.82,-1.19 c -2.56,4.36 -5.06,8.75 -7.4,13.24 z" />
    </g>
    <g
       transform="translate(21.846141,40.135948)"
       id="#3b414dff-7">
      <path
         style="opacity:1;fill:#3b414d"
         inkscape:connector-curvature="0"
         id="path113-6"
         d="m 160.06,60.6 c 1.32,-0.89 2.64,-1.79 3.95,-2.71 -0.36,0.49 -1.06,1.46 -1.41,1.95 9.35,1.16 19.16,0.92 27.93,4.81 4.13,1.84 8.64,3.19 12.01,6.34 -7.39,-3.51 -14.8,-7.37 -22.95,-8.76 -6.25,-0.93 -12.55,-1.56 -18.88,-1.73 0.95,2.54 1.72,5.15 2.07,7.85 -1.1,-2.52 -2,-5.1 -2.72,-7.75 z" />
      <path
         style="opacity:1;fill:#3b414d"
         inkscape:connector-curvature="0"
         id="path115-92"
         d="m 221.79,111.56 c -0.49,-5.01 -1.44,-10 -1.31,-15.04 1.17,4.9 1.9,10 1.31,15.04 z" />
      <path
         style="opacity:1;fill:#3b414d"
         inkscape:connector-curvature="0"
         id="path117-57"
         d="m 159.91,123.92 c 1.83,-1.75 4.56,-1.46 6.88,-1.81 -0.32,0.51 -0.96,1.54 -1.28,2.05 -3.01,0.35 -5.36,2.67 -4.83,5.87 -0.02,5.36 7.09,3.47 9.9,6.61 -0.84,1.16 -1.66,2.32 -2.51,3.47 -0.54,-0.22 -1.61,-0.67 -2.14,-0.89 -2.52,1.32 -5.22,2.27 -8.07,2.48 1.98,-1.75 3.79,-3.68 5.11,-5.98 -1.53,-1.3 -3.48,-2.31 -4.41,-4.17 -0.55,-2.54 -0.48,-5.59 1.35,-7.63 z" />
      <path
         style="opacity:1;fill:#3b414d"
         inkscape:connector-curvature="0"
         id="path119-76"
         d="m 213.83,189.71 c 0.22,-0.11 0.66,-0.34 0.88,-0.46 3.16,2.58 6.58,4.82 9.64,7.53 -14.36,-0.03 -28.76,-0.04 -43.13,0.14 -0.09,-0.15 -0.27,-0.46 -0.36,-0.61 13.79,-0.93 27.68,0.4 41.43,-0.56 -2.92,-1.87 -5.7,-3.95 -8.46,-6.04 z" />
      <path
         style="opacity:1;fill:#3b414d"
         inkscape:connector-curvature="0"
         id="path121-6"
         d="m 9.05,189.72 c 0.44,0.39 0.88,0.78 1.32,1.18 -2.87,1.13 -5.27,3.12 -7.6,5.08 14.13,0.65 28.3,-0.18 42.44,0.36 -0.13,0.24 -0.39,0.71 -0.52,0.94 -2.17,-0.61 -4.43,-0.52 -6.66,-0.51 -12.45,0.14 -24.92,-0.01 -37.37,0.01 2.64,-2.53 6.27,-4.04 8.39,-7.06 z" />
    </g>
    <g
       transform="translate(21.846141,40.135948)"
       id="#aab0b8ff-1">
      <path
         style="opacity:1;fill:#aab0b8"
         inkscape:connector-curvature="0"
         id="path124-8"
         d="m 195.4,58.34 c 0.27,0.19 0.8,0.59 1.07,0.78 0.08,0.11 0.23,0.32 0.3,0.43 l 0.04,-0.39 c 0.17,0.16 0.53,0.46 0.7,0.61 3.38,3.28 7.77,5.45 10.64,9.24 0.15,1.49 0.13,2.98 -0.08,4.48 -1.99,-2.2 -3.73,-4.61 -5.71,-6.82 -2.68,-3 -6.18,-5.1 -9.2,-7.72 0.56,-0.16 1.68,-0.46 2.24,-0.61 z" />
    </g>
    <g
       transform="translate(21.846141,40.135948)"
       id="#5e5a58ff-8">
      <path
         style="opacity:1;fill:#5e5a58"
         inkscape:connector-curvature="0"
         id="path127-0"
         d="m 196.47,59.12 0.34,0.04 -0.04,0.39 c -0.07,-0.11 -0.22,-0.32 -0.3,-0.43 z" />
    </g>
    <g
       transform="translate(21.846141,40.135948)"
       id="#1f3348ff-00">
      <path
         style="opacity:1;fill:#1f3348"
         inkscape:connector-curvature="0"
         id="path130-148"
         d="m 27.74,61.04 c 0.68,0.05 2.04,0.15 2.72,0.2 0.19,13.35 -0.24,26.72 0.22,40.07 -3.98,0.36 -2.73,-3.81 -2.87,-6.33 0.43,-11.31 0,-22.63 -0.07,-33.94 z" />
    </g>
    <g
       transform="translate(21.846141,40.135948)"
       id="#818081ff-10">
      <path
         style="opacity:1;fill:#818081"
         inkscape:connector-curvature="0"
         id="path133-78"
         d="m 162.83,68.5 0.91,1.15 c 0.45,4.2 0.2,8.44 0.14,12.66 -0.29,-0.36 -0.87,-1.07 -1.16,-1.42 0.48,-4.12 0.4,-8.27 0.11,-12.39 z" />
    </g>
    <g
       transform="translate(21.846141,40.135948)"
       id="#606165ff-55">
      <path
         style="opacity:1;fill:#606165"
         inkscape:connector-curvature="0"
         id="path136-529"
         d="m 212.22,73.61 c 0.66,0.51 0.66,0.51 0,0 z" />
    </g>
    <g
       transform="translate(21.846141,40.135948)"
       id="#b3b9c1ff-2">
      <path
         style="opacity:1;fill:#b3b9c1"
         inkscape:connector-curvature="0"
         id="path139-0"
         d="m 163.36,84.69 c 13.46,-6.78 28.58,-11.12 43.77,-9.71 -5.01,13.7 -13.02,26.37 -23.29,36.73 -0.73,-1.34 -1.41,-2.7 -2.3,-3.94 l -0.72,-0.82 c -0.05,-0.08 -0.16,-0.25 -0.21,-0.34 0,-0.38 -0.01,-1.14 -0.01,-1.52 -3.72,-8.19 -9.62,-15.49 -17.24,-20.4 z" />
    </g>
    <g
       transform="translate(21.846141,40.135948)"
       id="#a8afb8ff-8">
      <path
         style="opacity:1;fill:#a8afb8"
         inkscape:connector-curvature="0"
         id="path142-59"
         d="m 207.63,76.45 c 6.3,14.77 5.2,31.62 1.13,46.83 -3.82,-2.48 -7.41,-5.36 -11.57,-7.27 -1.16,-0.65 -2.49,-0.66 -3.77,-0.46 -0.06,-0.17 -0.18,-0.5 -0.24,-0.67 l -0.47,-0.57 c -0.67,-0.21 -2,-0.62 -2.66,-0.82 -1.77,-0.48 -3.55,-0.89 -5.33,-1.31 9.63,-10.42 17.83,-22.43 22.91,-35.73 z" />
    </g>
    <g
       transform="translate(21.846141,40.135948)"
       id="#9da5afff-88">
      <path
         style="opacity:1;fill:#9da5af"
         inkscape:connector-curvature="0"
         id="path145-21"
         d="m 208.76,76.04 c 3.42,2.51 5.12,6.55 7.14,10.14 1.75,3.12 2.19,6.87 4.31,9.79 l 0.24,0.3 0.03,0.25 c -0.13,5.04 0.82,10.03 1.31,15.04 0.49,1.41 -0.86,2.71 -2.21,2.78 -0.36,0.05 -1.09,0.16 -1.46,0.21 -2.69,1.7 -5.04,3.86 -7.59,5.76 2.88,-14.62 3.38,-30.08 -1.77,-44.27 z" />
    </g>
    <g
       transform="translate(21.846141,40.135948)"
       id="#949ca6ff-3">
      <path
         style="opacity:1;fill:#949ca6"
         inkscape:connector-curvature="0"
         id="path148-1"
         d="m 211.22,76.27 c 3.47,0.86 4.89,4.34 7.04,6.81 0.2,0.26 0.6,0.79 0.8,1.05 -1.44,0.45 -1.45,1.02 -0.03,1.69 0.23,0.07 0.68,0.22 0.91,0.29 -0.31,0.88 -0.94,2.66 -1.25,3.54 -2.05,-4.7 -4.99,-8.92 -7.47,-13.38 z" />
    </g>
    <g
       transform="translate(21.846141,40.135948)"
       id="#6a6c72ff-75">
      <path
         style="opacity:1;fill:#6a6c72"
         inkscape:connector-curvature="0"
         id="path151-5"
         d="m 219.03,85.82 c -1.42,-0.67 -1.41,-1.24 0.03,-1.69 -0.01,0.42 -0.02,1.27 -0.03,1.69 z" />
    </g>
    <g
       transform="translate(21.846141,40.135948)"
       id="#1a222eff-78">
      <path
         style="opacity:1;fill:#1a222e"
         inkscape:connector-curvature="0"
         id="path154-140"
         d="m 27.36,101.93 c 1.09,1.11 0.9,1.67 -0.56,1.68 0.14,-0.42 0.42,-1.26 0.56,-1.68 z" />
    </g>
    <g
       transform="translate(21.846141,40.135948)"
       id="#455667ff-4">
      <path
         style="opacity:1;fill:#455667"
         inkscape:connector-curvature="0"
         id="path157-2"
         d="m 149.7,124.76 c 1.15,-6.13 6.81,-11.71 13.36,-10.75 4.9,0.62 7.24,5.93 7.38,10.35 l -0.29,1.2 c -1.56,-0.42 -3.1,-0.89 -4.64,-1.4 0.32,-0.51 0.96,-1.54 1.28,-2.05 -2.32,0.35 -5.05,0.06 -6.88,1.81 -1.83,2.04 -1.9,5.09 -1.35,7.63 0.93,1.86 2.88,2.87 4.41,4.17 -1.32,2.3 -3.13,4.23 -5.11,5.98 -7.73,-1.11 -10.09,-10.46 -8.16,-16.94 z" />
      <path
         style="opacity:1;fill:#455667"
         inkscape:connector-curvature="0"
         id="path159-96"
         d="m 174.03,125.52 c 1.2,0.4 2.33,0.94 3.4,1.61 l 0.24,0.2 0.24,0.22 c 2.44,2.55 1.68,7.35 -1.16,9.36 -1.79,1.12 -3.91,0.34 -5.78,-0.02 -2.67,-4.08 0.05,-8.43 3.06,-11.37 z" />
      <path
         style="opacity:1;fill:#455667"
         inkscape:connector-curvature="0"
         id="path161-68"
         d="m 109.39,187.98 c 1.31,-1.05 2.51,-2.58 4.33,-2.66 1.59,0.56 2.81,1.79 4.15,2.78 -0.29,0.94 -0.58,1.89 -0.87,2.84 -2.95,0.13 -6.84,0.89 -7.61,-2.96 z" />
    </g>
    <g
       transform="translate(21.846141,40.135948)"
       id="#323b4aff-29">
      <path
         style="opacity:1;fill:#323b4a"
         inkscape:connector-curvature="0"
         id="path164-3"
         d="m 190.05,113.49 c 0.66,0.2 1.99,0.61 2.66,0.82 l 0.47,0.57 -1.37,0.2 c 0.48,12.66 -0.19,25.35 0.24,38.02 0.23,1.37 1.89,1.53 2.79,2.31 5.59,8.82 11.85,17.23 17.95,25.71 0.93,1.44 1.67,2.99 2.39,4.55 -0.48,-0.18 -1.43,-0.54 -1.9,-0.72 -1.3,-2.02 -2.64,-4.01 -4.02,-5.97 -2.79,-3.89 -5.29,-8.01 -8.41,-11.65 -2.83,-3.58 -4.39,-8.89 -8.82,-10.76 0.81,5.56 0.43,11.45 2.81,16.66 1.64,-1.48 3.24,-3 4.9,-4.45 -1.33,1.69 -2.71,3.34 -3.99,5.08 l -1.77,-1.01 c 0.26,5.76 1.47,11.43 1.81,17.19 -0.2,0.63 -0.59,1.89 -0.79,2.52 -1.66,-4.95 -1.88,-10.24 -2.15,-15.41 -1.67,1.13 -3.36,1 -4.73,-0.47 -3.25,-2.38 -6.28,-5.03 -9.16,-7.83 -2.21,3.2 -4.57,6.3 -6.6,9.62 -0.35,0.59 -0.7,1.19 -1.05,1.78 2.85,4.32 5.43,8.81 8,13.3 0.39,0.69 1.16,2.07 1.55,2.76 0.09,0.15 0.27,0.46 0.36,0.61 1.43,2.75 2.97,5.45 4.38,8.21 0.15,0.63 0.45,1.89 0.6,2.52 -1.78,-1.2 -2.78,-3.1 -3.73,-4.95 -1.06,-2 -2.18,-3.96 -3.33,-5.91 -3.08,-0.01 -6.17,-0.09 -9.22,0.37 l 0.62,1.38 c -1.56,0.01 -2.75,0.66 -3.29,2.2 -0.71,-0.34 -1.41,-0.68 -2.1,-1.04 -0.26,4.3 -0.63,8.63 -1.46,12.87 -0.44,0.22 -1.32,0.64 -1.76,0.86 0.44,-4.12 1.02,-8.22 1.56,-12.33 0.19,-1.42 0.38,-2.83 0.56,-4.24 -2.92,-0.2 -5.84,-0.18 -8.75,-0.03 -0.93,1.72 -1.87,3.44 -2.79,5.17 -1.24,1.88 -1.82,4.7 -4.3,5.28 0.39,-0.98 0.81,-1.96 1.25,-2.92 1.26,-2.5 2.67,-4.92 3.9,-7.43 -11.34,-0.48 -22.69,-0.14 -34.03,-0.18 l -0.03,-0.6 c 11.5,0.13 23,-0.26 34.49,0.21 2.88,-6.07 7.45,-11.3 9.62,-17.69 l 0.79,0.13 c 2.22,-0.06 4.58,0.12 6.65,-0.85 2.97,-4.36 6,-8.68 9.02,-13.01 1.91,-2.79 3.86,-5.55 5.97,-8.19 -0.63,-5.65 -0.79,-11.34 -0.54,-17.02 l 0.44,-1.25 c -0.04,5.62 -0.19,11.26 0.66,16.83 0.71,-0.49 2.13,-1.47 2.84,-1.95 1.42,-13.22 -0.63,-26.64 0.81,-39.87 m -3,43.51 c 0.37,1.39 0.67,2.79 0.74,4.24 -0.27,-0.84 -0.83,-2.51 -1.11,-3.35 -2.47,3.53 -5.24,6.89 -7.2,10.75 3.31,2.69 6.3,5.75 9.81,8.2 -0.72,-4.88 0.38,-9.88 -0.83,-14.68 0.86,-1.63 0.89,-3.44 0.86,-5.23 -0.56,0.01 -1.7,0.05 -2.27,0.07 m -27.96,33.18 c 1.73,1.94 3.24,4.07 5.04,5.95 0.6,-5.36 1.25,-10.73 1.52,-16.12 -3.07,2.67 -4.24,6.89 -6.56,10.17 m 9.3,-6.08 c -0.89,-2.46 -2.8,1.5 -0.35,0.73 -0.07,1.92 0,3.85 0.02,5.77 -0.01,1.98 -0.01,3.95 0,5.93 3.11,0.27 4.97,-2.37 6.94,-4.29 1.38,0.02 0.92,-1.94 0.27,-2.59 -1.59,-2.81 -3.27,-5.57 -4.64,-8.49 -0.87,0.86 -1.68,1.85 -2.24,2.94 m -12.62,12.07 c 2.34,0.01 4.69,0 7.03,-0.02 -1.31,-1.81 -2.69,-3.56 -4.07,-5.31 -1.01,1.76 -2,3.54 -2.96,5.33 m 16.32,-0.04 c 2.24,0.04 4.47,0.04 6.71,0.05 -0.75,-1.45 -1.5,-2.89 -2.24,-4.34 -1.61,1.3 -3.1,2.74 -4.47,4.29 m -3.6,1.36 c 0.29,0.29 0.29,0.29 0,0 z" />
    </g>
    <g
       transform="translate(21.846141,40.135948)"
       id="#30353dff-26">
      <path
         style="opacity:1;fill:#30353d"
         inkscape:connector-curvature="0"
         id="path167-04"
         d="m 59.6,125.45 c 0.75,-0.6 1.56,-1.11 2.42,-1.53 4.99,2.01 6.63,8.24 6.06,13.14 -0.46,0.16 -1.36,0.49 -1.81,0.66 -0.5,-4.74 -1.27,-10.71 -6.67,-12.27 z" />
    </g>
    <g
       transform="translate(21.846141,40.135948)"
       id="#5b6a79ff-5">
      <path
         style="opacity:1;fill:#5b6a79"
         inkscape:connector-curvature="0"
         id="path170-4"
         d="m 160.68,130.03 c -0.53,-3.2 1.82,-5.52 4.83,-5.87 1.54,0.51 3.08,0.98 4.64,1.4 l 0.29,-1.2 c 1.2,0.38 2.4,0.75 3.59,1.16 -3.01,2.94 -5.73,7.29 -3.06,11.37 l -0.39,-0.25 c -2.81,-3.14 -9.92,-1.25 -9.9,-6.61 z" />
      <path
         style="opacity:1;fill:#5b6a79"
         inkscape:connector-curvature="0"
         id="path172-5"
         d="m 54.76,129.57 c 5.47,0.43 6.02,6.84 4.42,10.92 -1,0.55 -2.03,1.07 -3.05,1.6 l -0.33,-1.15 c -3.38,1.77 -7.61,2.66 -9.68,6.19 -0.2,0.12 -0.62,0.37 -0.82,0.5 -1.64,-3.37 -3.21,-6.78 -5.18,-9.97 0.89,-0.17 1.78,-0.33 2.67,-0.5 0.74,0.6 1.49,1.19 2.23,1.79 3.75,-2.19 7.71,-4 11.59,-5.95 -0.62,-1.14 -1.24,-2.29 -1.85,-3.43 z" />
      <path
         style="opacity:1;fill:#5b6a79"
         inkscape:connector-curvature="0"
         id="path174-02"
         d="m 108.95,192.01 c 3.29,-0.09 6.58,-0.1 9.86,0.14 l -0.02,0.17 c -1.1,3.69 -1.14,7.57 -1.87,11.33 -2.31,0.01 -4.61,0.04 -6.92,0.08 -0.87,-3.84 -1.11,-7.79 -1.05,-11.72 z" />
    </g>
    <g
       transform="translate(21.846141,40.135948)"
       id="#1b1517ff-91">
      <path
         style="opacity:1;fill:#1b1517"
         inkscape:connector-curvature="0"
         id="path177-82"
         d="m 177.43,127.13 c 0.12,0.1 0.36,0.31 0.48,0.42 l -0.24,-0.22 -0.24,-0.2 z" />
    </g>
    <g
       transform="translate(21.846141,40.135948)"
       id="#142537ff-55">
      <path
         style="opacity:1;fill:#142537"
         inkscape:connector-curvature="0"
         id="path180-57"
         d="m 165.93,139.22 c 0.53,0.22 1.6,0.67 2.14,0.89 0.02,0.37 0.07,1.1 0.1,1.47 -0.43,12.02 0.03,24.04 -0.14,36.06 l 0,0.06 c -0.85,-0.01 -1.69,-0.06 -2.53,-0.13 0.61,-12.77 0.01,-25.57 0.43,-38.35 z" />
    </g>
    <g
       transform="translate(21.846141,40.135948)"
       id="#333b4dff-13">
      <path
         style="opacity:1;fill:#333b4d"
         inkscape:connector-curvature="0"
         id="path183-88"
         d="m 46.12,147.13 c 2.07,-3.53 6.3,-4.42 9.68,-6.19 l 0.33,1.15 c 1.1,2.45 0.54,5.03 0.15,7.56 -0.48,10.46 -0.15,20.95 -0.23,31.43 -0.4,2.05 1.37,3.23 2.64,4.47 1.8,4.01 4.93,7.22 7.33,10.87 13.88,-0.49 27.78,-0.26 41.66,-0.15 0.27,0.92 0.82,2.75 1.09,3.67 -0.6,0.01 -1.79,0.02 -2.39,0.03 0.6,1.69 1.18,3.4 1.66,5.14 0.14,2.85 -0.68,6.14 1.15,8.62 2.8,0.56 5.79,0.69 8.56,-0.07 2.17,-2.53 0.67,-6.11 1.49,-9.06 l 0.56,0.03 c 0.56,2.84 0.46,6.13 -0.34,8.97 -2.09,2.82 -6.35,1.84 -9.39,1.65 -2.86,-0.01 -3.26,-3.2 -3.3,-5.38 -0.07,-2.12 0,-4.24 -0.01,-6.36 -0.56,-1.13 -2.34,-2.02 -1.61,-3.49 0.88,-0.88 1.88,-1.63 2.79,-2.48 -2.15,-1.15 -4.62,-0.79 -6.95,-0.85 -11.56,0.19 -23.13,-0.25 -34.68,0.26 1.78,2.71 3.62,5.38 5.51,8.02 1.03,1.79 2.85,3.44 2.67,5.67 -2.22,-2.22 -3.98,-4.81 -5.72,-7.39 -1.6,-2.35 -3.08,-4.84 -5.32,-6.65 -1.64,2.3 -3.8,4.12 -6.07,5.76 -0.91,0.82 -1.8,1.65 -2.67,2.51 -0.38,-0.41 -1.12,-1.24 -1.5,-1.65 -0.56,3.78 -0.96,7.59 -1.46,11.38 -0.45,0.1 -1.35,0.28 -1.79,0.37 0.57,-4.06 1.09,-8.13 1.62,-12.2 0.16,-2.9 -2.94,-4.25 -4.62,-6.14 -1.27,2.02 -2.5,4.06 -3.68,6.14 -1.55,2.65 -2.79,5.61 -5.26,7.58 0.6,-2.08 1.47,-4.07 2.53,-5.95 1.37,-2.38 2.78,-4.73 4.14,-7.12 0.13,-0.23 0.39,-0.7 0.52,-0.94 1.09,-2.13 2.28,-4.21 3.52,-6.25 0.92,-1.55 1.8,-3.14 2.66,-4.72 0.59,-0.66 1.15,-1.34 1.69,-2.05 0.67,-7.41 0.15,-14.86 0.3,-22.29 -0.33,-4.81 0.59,-9.71 -0.59,-14.44 -0.74,-0.35 -2.22,-1.06 -2.96,-1.42 -1.24,0.65 -2.47,1.3 -3.71,1.96 m 8.36,2.55 c -0.45,11.22 -0.43,22.49 0.01,33.7 0.69,-1.02 1,-2.15 0.95,-3.38 -0.02,-8.69 0.03,-17.37 0.05,-26.06 -0.05,-1.47 0.07,-3.08 -1.01,-4.26 m -7.27,46.58 c 1.71,0.06 3.41,0.1 5.11,0.13 0.47,-3.41 0.93,-6.82 1.04,-10.26 -2.67,2.95 -4.26,6.67 -6.15,10.13 m 8.87,-0.14 c 2.55,0.12 5.1,0.23 7.66,0.25 -2.18,-3.54 -4.53,-6.95 -6.96,-10.31 -1.39,3.14 -0.42,6.72 -0.7,10.06 m -4.25,3.55 c 0.56,-1.46 0.09,-2.43 -1.41,-2.9 -0.85,0.82 0.16,3.23 1.41,2.9 m 4.21,-2.99 c 0.03,1.98 0.04,3.97 0.05,5.96 2.22,-1.76 4.45,-3.52 6.35,-5.64 -2.13,-0.15 -4.26,-0.25 -6.4,-0.32 z" />
    </g>
    <path
       d="m 190.01614,181.71595 c 1.44,7.36 0.18,14.89 0.87,22.32 3.63,-0.02 7.36,-0.28 10.83,1.04 -3.02,4.33 -6.05,8.65 -9.02,13.01 -0.94,-0.1 -1.88,-0.19 -2.82,-0.25 l 0,-0.06 c 0.17,-12.02 -0.29,-24.04 0.14,-36.06 z"
       id="path186-3"
       inkscape:connector-curvature="0"
       style="opacity:1;fill:#f4f5f6;fill-opacity:0.78734179" />
    <path
       d="m 208.89614,197.13595 c 0.57,-0.02 1.71,-0.06 2.27,-0.07 0.03,1.79 0,3.6 -0.86,5.23 1.21,4.8 0.11,9.8 0.83,14.68 -3.51,-2.45 -6.5,-5.51 -9.81,-8.2 1.96,-3.86 4.73,-7.22 7.2,-10.75 0.28,0.84 0.84,2.51 1.11,3.35 -0.07,-1.45 -0.37,-2.85 -0.74,-4.24 z"
       id="path188-72"
       inkscape:connector-curvature="0"
       style="opacity:1;fill:#f4f5f6;fill-opacity:0.78734179" />
    <path
       d="m 53.146141,214.69595 c 2.91,-1.9 5.58,-4.14 8.29,-6.31 1.36,2.54 2.74,5.06 4.11,7.6 -4.18,0.19 -8.33,-0.36 -12.4,-1.29 z"
       id="path190-0"
       inkscape:connector-curvature="0"
       style="opacity:1;fill:#f4f5f6;fill-opacity:0.78734179" />
    <path
       d="m 173.83614,210.14595 c 4.35,0 8.77,0.38 13.04,-0.68 0.02,3.17 -0.27,6.34 -0.83,9.47 l -0.79,-0.13 c -15.19,-2.49 -30.55,2 -45.8,-0.32 -0.18,-0.61 -0.56,-1.82 -0.74,-2.43 -2.19,0.01 -4.38,0.03 -6.56,0.08 -0.32,1.03 -0.64,2.05 -0.94,3.09 -17.48,-0.19 -34.959999,-0.03 -52.439999,-0.08 -0.44,-2.95 -0.17,-5.93 0.02,-8.89 11.37,-0.2 22.749999,-0.01 34.119999,0.11 5.65,-0.01 11.25,0.99 16.91,0.84 6.02,0.16 11.99,-0.95 18.01,-0.86 8.66,0.01 17.33,-0.2 26,-0.2 z"
       id="path192-3"
       inkscape:connector-curvature="0"
       style="opacity:1;fill:#f4f5f6;fill-opacity:0.78734179" />
    <path
       d="m 194.20614,218.60595 c 2.03,-3.32 4.39,-6.42 6.6,-9.62 2.88,2.8 5.91,5.45 9.16,7.83 -5.23,0.73 -10.45,2.19 -15.76,1.79 z"
       id="path194-6"
       inkscape:connector-curvature="0"
       style="opacity:1;fill:#f4f5f6;fill-opacity:0.78734179" />
    <g
       transform="translate(21.846141,40.135948)"
       id="#152f49ff-3">
      <path
         style="opacity:1;fill:#152f49"
         inkscape:connector-curvature="0"
         id="path197-55"
         d="m 54.48,149.68 c 1.08,1.18 0.96,2.79 1.01,4.26 -0.02,8.69 -0.07,17.37 -0.05,26.06 0.05,1.23 -0.26,2.36 -0.95,3.38 -0.44,-11.21 -0.46,-22.48 -0.01,-33.7 z" />
    </g>
    <path
       d="m 78.126141,189.78595 c 0.56,5.64 0.12,11.32 0.79,16.95 34.329999,0.08 68.659999,0.08 102.979999,0.05 1.65,0.03 3.3,0.11 4.95,0.25 0.01,0.61 0.02,1.82 0.03,2.43 -4.27,1.06 -8.69,0.68 -13.04,0.68 -8.67,0 -17.34,0.21 -26,0.2 -6.02,-0.09 -11.99,1.02 -18.01,0.86 -5.66,0.15 -11.26,-0.85 -16.91,-0.84 -11.37,-0.12 -22.749999,-0.31 -34.119999,-0.11 -0.19,2.96 -0.46,5.94 -0.02,8.89 0.97,2.06 1.73,4.22 1.76,6.54 -1.27,-1.24 -3.04,-2.42 -2.64,-4.47 0.08,-10.48 -0.25,-20.97 0.23,-31.43 z"
       id="path200-52"
       inkscape:connector-curvature="0"
       style="opacity:1;fill:#e5e7ea" />
    <path
       d="m 62.646141,207.82595 c 3.6,-1.57 7.56,-1.15 11.37,-0.89 0.02,0.84 0.06,2.53 0.07,3.37 -3.25,0.09 -6.51,0.26 -9.75,0.54 -0.57,-1.01 -1.13,-2.02 -1.69,-3.02 z"
       id="path202-28"
       inkscape:connector-curvature="0"
       style="opacity:1;fill:#e5e7ea" />
    <path
       d="m 49.456141,207.94595 c 0.15,2.95 -0.67,6.09 0.56,8.89 1.7,0.76 2.02,-1.08 2.64,-2.19 l 0.49,0.05 c 4.07,0.93 8.22,1.48 12.4,1.29 1.58,2.91 2.99,6 5.32,8.41 -0.27,-2.22 -1.14,-4.3 -2.26,-6.21 0.62,-0.38 1.88,-1.15 2.51,-1.53 2.72,1.23 3.42,4.1 3.81,6.8 -0.54,0.71 -1.1,1.39 -1.69,2.05 -0.86,1.58 -1.74,3.17 -2.66,4.72 -7.74,0.87 -15.55,2.25 -23.35,1.31 -4.57,-0.55 -9.31,-0.3 -13.68,-2 -3.4,-0.8 -7.14,-1.8 -9.37,-4.69 -0.75,-1.24 -0.22,-2.73 0.81,-3.6 2.05,-2.18 5.09,-2.84 7.96,-3.13 -1.13,1.94 -2.27,3.99 -2.23,6.32 2.14,-2.72 3.55,-5.91 5.29,-8.88 3.4,0.66 6.88,0.55 10.32,0.41 -0.74,4.89 -1.68,9.78 -1.68,14.74 1.18,-0.79 1.8,-2.03 1.89,-3.4 0.91,-6.46 1.48,-12.99 2.92,-19.36 z"
       id="path204-5"
       inkscape:connector-curvature="0"
       style="opacity:1;fill:#e5e7ea;fill-opacity:0.78481014" />
    <path
       d="m 215.82614,212.98595 1.77,1.01 c 1.34,0.76 2.55,1.72 3.78,2.65 2.68,2.25 6.48,1.82 9.73,2.47 1.38,1.96 2.72,3.95 4.02,5.97 0.47,0.18 1.42,0.54 1.9,0.72 -0.72,-1.56 -1.46,-3.11 -2.39,-4.55 2.06,0.23 4.28,0.93 5.3,2.92 0.66,2.47 -1.5,4.16 -3.38,5.21 -0.22,0.12 -0.66,0.35 -0.88,0.46 -6.3,2.42 -13.07,3.42 -19.79,3.5 -4.91,0.2 -9.86,-0.56 -14.73,0.34 -2.57,-4.49 -5.15,-8.98 -8,-13.3 0.35,-0.59 0.7,-1.19 1.05,-1.78 5.31,0.4 10.53,-1.06 15.76,-1.79 1.37,1.47 3.06,1.6 4.73,0.47 0.27,5.17 0.49,10.46 2.15,15.41 0.2,-0.63 0.59,-1.89 0.79,-2.52 -0.34,-5.76 -1.55,-11.43 -1.81,-17.19 z"
       id="path206-36"
       inkscape:connector-curvature="0"
       style="opacity:1;fill:#e5e7ea;fill-opacity:0.78481014" />
    <path
       d="m 190.23614,224.23595 c 0.56,-1.09 1.37,-2.08 2.24,-2.94 1.37,2.92 3.05,5.68 4.64,8.49 0.65,0.65 1.11,2.61 -0.27,2.59 -2.31,-0.58 -4.62,-1.14 -6.94,-1.64 -0.02,-1.92 -0.09,-3.85 -0.02,-5.77 l 0.35,-0.73 z"
       id="path208-41"
       inkscape:connector-curvature="0"
       style="opacity:1;fill:#e5e7ea" />
    <path
       d="m 143.86614,238.72595 c -0.35,3.67 -1.87,7.22 -1.14,10.96 2.46,0.46 5.05,0.96 7,2.68 0.5,1.76 -1.31,2.48 -2.6,3.07 -4.86,1.96 -10.2,1.45 -15.32,1.49 -3.65,-0.14 -7.78,-0.52 -10.59,-3.1 -0.16,-3.59 4.87,-3.63 7.4,-3.82 0.04,2.18 0.44,5.37 3.3,5.38 3.04,0.19 7.3,1.17 9.39,-1.65 0.8,-2.84 0.9,-6.13 0.34,-8.97 l -0.56,-0.03 c -0.82,2.95 0.68,6.53 -1.49,9.06 -2.77,0.76 -5.76,0.63 -8.56,0.07 -1.83,-2.48 -1.01,-5.77 -1.15,-8.62 0.09,-0.57 0.27,-1.71 0.36,-2.28 0.46,2.4 0.91,4.81 1.42,7.21 2.42,-0.01 4.84,-0.02 7.26,-0.03 0.79,-2.47 0.76,-5.43 2.84,-7.27 1.12,-1.12 1.52,-2.73 2.1,-4.15 z"
       id="path210-55"
       inkscape:connector-curvature="0"
       style="opacity:1;fill:#e5e7ea;fill-opacity:0.78481014" />
    <path
       d="m 186.99614,239.83595 c 0.69,0.36 1.39,0.7 2.1,1.04 5.05,0.83 10.17,1.08 15.22,1.96 0.95,1.85 1.95,3.75 3.73,4.95 -0.15,-0.63 -0.45,-1.89 -0.6,-2.52 1.78,-0.33 3.35,0.59 4.04,2.23 -0.19,2.46 -2.58,3.81 -4.69,4.48 -7.02,2.48 -14.57,2.55 -21.92,2.17 -6.14,-0.06 -12.85,-0.41 -17.94,-4.22 -3.33,-2.55 1.46,-6.36 4.37,-5.43 -0.44,0.96 -0.86,1.94 -1.25,2.92 2.48,-0.58 3.06,-3.4 4.3,-5.28 3.67,-0.1 7.34,-0.35 10.98,-0.9 -0.54,4.11 -1.12,8.21 -1.56,12.33 0.44,-0.22 1.32,-0.64 1.76,-0.86 0.83,-4.24 1.2,-8.57 1.46,-12.87 z"
       id="path212-11"
       inkscape:connector-curvature="0"
       style="opacity:1;fill:#e5e7ea;fill-opacity:0.78481014" />
    <path
       d="m 59.866141,250.48595 c 2.47,-1.97 3.71,-4.93 5.26,-7.58 2.76,0.01 5.53,0.02 8.3,0 -0.53,4.07 -1.05,8.14 -1.62,12.2 -5.34,0.22 -10.79,-0.74 -15.51,-3.3 -1.15,-0.72 -2.77,-1.8 -2.08,-3.37 1.58,-2.92 5.06,-3.98 8.18,-3.9 -1.06,1.88 -1.93,3.87 -2.53,5.95 z"
       id="path214-8"
       inkscape:connector-curvature="0"
       style="opacity:1;fill:#e5e7ea;fill-opacity:0.78987343" />
    <path
       d="m 75.056141,243.35595 c 0.38,0.41 1.12,1.24 1.5,1.65 0.87,-0.86 1.76,-1.69 2.67,-2.51 3.79,0.35 7.58,0.72 11.39,0.89 1.74,2.58 3.5,5.17 5.72,7.39 0.18,-2.23 -1.64,-3.88 -2.67,-5.67 2.34,0.24 4.74,1.09 6.04,3.19 0.629999,1.62 -0.95,2.8 -2.15,3.52 -5.95,3.18 -12.87,3.32 -19.45,3.79 -1.55,0.12 -3.05,-0.44 -4.51,-0.87 0.5,-3.79 0.9,-7.6 1.46,-11.38 z"
       id="path216-2"
       inkscape:connector-curvature="0"
       style="opacity:1;fill:#e5e7ea;fill-opacity:0.78987343" />
    <g
       transform="translate(21.846141,40.135948)"
       id="#304252ff-46">
      <path
         style="opacity:1;fill:#304252"
         inkscape:connector-curvature="0"
         id="path219-1"
         d="m 110.31,176 c 2.18,-0.05 4.37,-0.07 6.56,-0.08 0.18,0.61 0.56,1.82 0.74,2.43 0.21,0.67 0.62,2.02 0.83,2.69 -0.36,0.36 -1.06,1.07 -1.41,1.43 0.87,0.93 1.74,1.87 2.6,2.83 1.81,-0.86 3.61,-1.74 5.41,-2.6 0.03,2.05 0.3,4.14 -0.08,6.19 -1.01,1.36 -2.36,2.42 -3.7,3.44 -0.61,-0.05 -1.83,-0.14 -2.45,-0.18 -3.28,-0.24 -6.57,-0.23 -9.86,-0.14 -0.06,3.93 0.18,7.88 1.05,11.72 2.31,-0.04 4.61,-0.07 6.92,-0.08 0.73,-3.76 0.77,-7.64 1.87,-11.33 0.13,0.96 0.38,2.87 0.51,3.83 l 0.03,0.6 c -0.04,0.83 -0.12,2.47 -0.16,3.3 0.71,-0.37 2.14,-1.1 2.85,-1.46 -0.58,1.42 -0.98,3.03 -2.1,4.15 -2.08,1.84 -2.05,4.8 -2.84,7.27 -2.42,0.01 -4.84,0.02 -7.26,0.03 -0.51,-2.4 -0.96,-4.81 -1.42,-7.21 -0.09,0.57 -0.27,1.71 -0.36,2.28 -0.48,-1.74 -1.06,-3.45 -1.66,-5.14 0.6,-0.01 1.79,-0.02 2.39,-0.03 -0.27,-0.92 -0.82,-2.75 -1.09,-3.67 0.06,-1.36 0.16,-2.72 0.3,-4.07 -2.61,0.58 -4.69,-1.25 -6.06,-3.23 -0.31,-2.09 -0.03,-4.21 0.05,-6.3 1.72,0.88 3.43,1.79 5.14,2.69 0.93,-0.93 1.87,-1.86 2.81,-2.77 -0.25,-0.42 -0.75,-1.27 -0.99,-1.69 0.11,-0.45 0.33,-1.36 0.44,-1.81 0.3,-1.04 0.62,-2.06 0.94,-3.09 m -0.92,11.98 c 0.77,3.85 4.66,3.09 7.61,2.96 0.29,-0.95 0.58,-1.9 0.87,-2.84 -1.34,-0.99 -2.56,-2.22 -4.15,-2.78 -1.82,0.08 -3.02,1.61 -4.33,2.66 z" />
    </g>
    <g
       transform="translate(21.846141,40.135948)"
       id="#0c0909ff-85">
      <path
         style="opacity:1;fill:#0c0909"
         inkscape:connector-curvature="0"
         id="path222-66"
         d="m 168.04,184.83 c -2.45,0.77 -0.54,-3.19 0.35,-0.73 l -0.35,0.73 z" />
    </g>
    <g
       transform="translate(21.846141,40.135948)"
       id="#fcfcfcff-9">
      <path
         style="opacity:1;fill:#fcfcfc"
         inkscape:connector-curvature="0"
         id="path225-4"
         d="m 155.77,196.17 c 0.96,-1.79 1.95,-3.57 2.96,-5.33 1.38,1.75 2.76,3.5 4.07,5.31 -2.34,0.02 -4.69,0.03 -7.03,0.02 z" />
      <path
         style="opacity:1;fill:#fcfcfc"
         inkscape:connector-curvature="0"
         id="path227-55"
         d="m 172.09,196.13 c 1.37,-1.55 2.86,-2.99 4.47,-4.29 0.74,1.45 1.49,2.89 2.24,4.34 -2.24,-0.01 -4.47,-0.01 -6.71,-0.05 z" />
    </g>
    <g
       transform="translate(21.846141,40.135948)"
       id="#fdfefeff-04">
      <path
         style="opacity:1;fill:#fdfefe"
         inkscape:connector-curvature="0"
         id="path230-6"
         d="m 51.83,199.67 c -1.25,0.33 -2.26,-2.08 -1.41,-2.9 1.5,0.47 1.97,1.44 1.41,2.9 z" />
    </g>
    <g
       transform="translate(21.846141,40.135948)"
       id="#f9f9f9ff-1">
      <path
         style="opacity:1;fill:#f9f9f9"
         inkscape:connector-curvature="0"
         id="path233-8"
         d="m 56.04,196.68 c 2.14,0.07 4.27,0.17 6.4,0.32 -1.9,2.12 -4.13,3.88 -6.35,5.64 -0.01,-1.99 -0.02,-3.98 -0.05,-5.96 z" />
    </g>
  </g>
</svg>
