<?xml version="1.0" encoding="UTF-8" standalone="no"?>
<svg
   xmlns:dc="http://purl.org/dc/elements/1.1/"
   xmlns:cc="http://creativecommons.org/ns#"
   xmlns:rdf="http://www.w3.org/1999/02/22-rdf-syntax-ns#"
   xmlns:svg="http://www.w3.org/2000/svg"
   xmlns="http://www.w3.org/2000/svg"
   xmlns:sodipodi="http://sodipodi.sourceforge.net/DTD/sodipodi-0.dtd"
   xmlns:inkscape="http://www.inkscape.org/namespaces/inkscape"
   width="267.81009pt"
   height="301.67438pt"
   viewBox="0 0 267.81009 301.67438"
   version="1.1"
   id="svg2"
   inkscape:version="0.91 r13725"
   sodipodi:docname="python.svg">
  <metadata
     id="metadata13">
    <rdf:RDF>
      <cc:Work
         rdf:about="">
        <dc:format>image/svg+xml</dc:format>
        <dc:type
           rdf:resource="http://purl.org/dc/dcmitype/StillImage" />
        <dc:title></dc:title>
      </cc:Work>
    </rdf:RDF>
  </metadata>
  <defs
     id="defs11" />
  <sodipodi:namedview
     pagecolor="#ffffc8"
     bordercolor="#666666"
     borderopacity="1"
     objecttolerance="10"
     gridtolerance="10"
     guidetolerance="10"
     inkscape:pageopacity="0"
     inkscape:pageshadow="2"
     inkscape:window-width="640"
     inkscape:window-height="480"
     id="namedview9"
     showgrid="false"
     inkscape:zoom="2.096"
     inkscape:cx="160.96397"
     inkscape:cy="180.33476"
     inkscape:current-layer="svg2"
     showguides="true"
     fit-margin-top="0"
     fit-margin-left="0"
     fit-margin-right="0"
     fit-margin-bottom="0" />
  <rect
     style="opacity:0.97000002;fill:#041a25;fill-opacity:0.76862745;fill-rule:evenodd;stroke:none;stroke-width:2.50948715;stroke-linecap:round;stroke-linejoin:round;stroke-miterlimit:4;stroke-dasharray:none;stroke-dashoffset:0;stroke-opacity:1"
     id="rect12859"
     width="267.81009"
     height="301.67438"
     x="0"
     y="0" />
  <g
     id="#00000011"
     transform="matrix(0.28274886,0,0,0.259899,-7.4297889,46.930134)">
    <path
       d="m 278.19,721.39 c 5.61,-1.05 11.08,-2.92 16.81,-3.29 0.02,5.01 -0.03,10.01 -0.01,15.03 -35.32,8.88 -70.55,19.67 -102.59,37.32 -16.22,9.36 -32.33,20.14 -43.38,35.57 -6.64,8.84 -10.59,19.69 -10.65,30.78 0.38,11.28 4.89,22.23 12,30.94 9.95,13.5 24.06,23.05 38.17,31.73 28.09,15.94 58.73,26.86 89.86,35.15 46.03,12.29 93.35,19.19 140.79,23.07 9.8,0.83 19.59,1.6 29.42,1.77 8.4,1.26 16.89,0.36 25.33,0.87 10.97,1.46 22.04,0.66 33.06,0.8 5.26,-0.1 10.55,0.28 15.79,-0.47 6.69,-0.9 13.45,-0.35 20.18,-0.47 22.39,-1.36 44.8,-2.72 67.1,-5.29 24.69,-2.55 49.2,-6.6 73.57,-11.24 42.46,-9.17 85.04,-20.65 123.32,-41.69 15.7,-8.54 30.63,-19.06 41.99,-33.02 7.53,-8.97 12.23,-20.3 13.06,-31.99 -0.45,-9.17 -2.68,-18.42 -7.82,-26.12 -6.92,-11.7 -17.22,-20.9 -28.13,-28.8 -8.06,-5.48 -16.17,-11 -25.05,-15.08 -20.39,-10.58 -41.99,-18.78 -64.07,-25.03 -0.01,-5.62 -0.01,-11.24 0,-16.85 26.22,6.29 51.9,14.78 76.7,25.36 21.62,9.41 42.75,20.78 60.39,36.61 4.98,3.64 8.44,8.81 12.48,13.38 6.23,7.96 11.1,17.17 12.83,27.21 1.39,10 0.52,20.59 -4.07,29.72 -4.28,9.4 -10.88,17.55 -18.04,24.91 -14.3,12.92 -30.55,23.67 -47.92,32.01 -16.16,8.29 -33.14,14.89 -50.4,20.49 -24.78,8.56 -50.27,14.9 -75.96,20.03 -34.3,7.17 -69.11,11.58 -103.97,14.88 -6.38,0.13 -12.65,1.41 -19.03,1.27 -5.95,1.07 -11.98,0.68 -17.96,1.01 -9.04,1.89 -18.34,-0.11 -27.41,1.48 -6.49,0.81 -13.05,0.13 -19.58,0.4 -15.65,-0.22 -31.31,0.23 -46.95,-0.23 -9.95,-1.8 -20.12,0.23 -30.06,-1.62 -5.64,-0.41 -11.34,0.19 -16.92,-1.02 -10.07,-0.07 -20.04,-1.64 -30.09,-2.31 -38.42,-3.83 -76.7,-9.5 -114.33,-18.27 -31.51,-7.34 -62.71,-16.61 -92.33,-29.75 -12.25,-5.24 -24.12,-11.4 -35.35,-18.59 -10,-5.64 -18.51,-13.43 -27.2,-20.84 -7.38,-8.53 -15.23,-17.27 -18.59,-28.3 -4.07,-10.76 -4.24,-23.04 0.07,-33.76 3,-9.03 8.52,-17.03 14.99,-23.93 7.83,-8.95 17.28,-16.3 27.22,-22.79 16.18,-11.1 34.09,-19.25 52.18,-26.67 26.13,-10.3 53.21,-18.02 80.55,-24.37 z"
       id="path181"
       inkscape:connector-curvature="0"
       style="opacity:0.07000002;fill:#000000" />
  </g>
  <g
     id="#274e70ff"
     transform="matrix(0.24641828,0,0,0.21454982,11.498964,5.6012352)">
    <path
       d="m 425,28.94 c 44.5,-8.55 90.7,-8.18 135.03,1.27 20.66,4.38 41.25,9.72 60.73,18.02 17.08,7.11 33.33,16.43 47.35,28.57 18.33,15.91 32.01,37.79 35.58,62.02 1.76,10.98 1.23,22.12 1.31,33.19 0,31.07 0,62.13 0,93.2 -0.02,27.44 0.04,54.87 -0.03,82.31 -1.17,19.18 -6.41,38.11 -15.6,54.99 l -0.28,1.09 0,0.02 c -2.23,0.37 -3.38,2.84 -3.02,4.92 -17.96,29.7 -48.02,53.5 -82.92,58.64 -1.79,-0.71 -4,-0.82 -5.33,0.78 -0.65,0.04 -1.96,0.11 -2.62,0.15 -25.4,0.49 -50.81,0.09 -76.21,0.22 -33.65,0 -67.29,0 -100.94,0 -10.38,0.1 -20.94,-0.65 -31.08,2.05 -5.58,1.54 -11.22,3.12 -16.43,5.67 -18.06,7.72 -34.01,19.85 -47.24,34.28 -9.91,11.27 -18.32,24.06 -23.17,38.34 -3.7,9.76 -5.29,20.35 -4.92,30.78 -0.26,31.02 0.05,62.05 -0.16,93.07 -36.64,-0.04 -73.27,0.14 -109.91,-0.09 -20.13,-0.81 -40.37,-6.84 -56.63,-18.97 C 111.43,641.3 99.12,623.6 90.16,604.87 81.73,586.79 76.13,567.55 71.72,548.14 60.84,501.59 54.82,453.13 61.67,405.5 c 3.19,-24.71 10.31,-48.71 18.85,-72.06 8.04,-22.23 17.33,-44.4 31.58,-63.45 6.7,-8.55 14.26,-16.57 23.33,-22.65 15.75,-11.29 35.32,-16.34 54.55,-16.38 24.33,-0.06 48.67,0 73,-0.04 0.19,-24.98 0.03,-49.96 0.08,-74.94 -0.1,-15.08 3.25,-30.28 10.37,-43.62 C 281.71,96.5 294.46,83.29 308.98,73 323.33,62.36 339.62,54.75 356.11,48.06 378.38,39.46 401.57,33.4 425,28.94 m -38.68,44.51 0.02,0.11 c -21.37,6.82 -42.71,15.43 -60.58,29.24 -12.19,9.46 -23.19,21.77 -27.05,37.08 -1.25,4.95 -1.88,10.05 -1.84,15.16 0.02,11.98 -0.06,23.96 0.04,35.93 -0.07,13.06 -0.05,26.13 -0.01,39.19 l 0.42,0.47 c 69.53,0.26 139.07,0.2 208.6,0.23 0.08,11.53 0.01,23.05 0.03,34.58 -76.66,-0.39 -153.33,-0.31 -230,-0.31 -9.96,-0.57 -19.95,-0.34 -29.93,-0.4 -18.66,0.01 -37.32,-0.02 -55.98,0.02 -9.71,0.03 -19.56,1.68 -28.3,6.04 -14.06,7.19 -24.38,20.03 -31.75,33.7 -11.46,21.35 -19.32,44.42 -26.52,67.49 -2.86,10.13 -5.56,20.41 -6.95,30.83 l -0.21,0 c -2.81,16.44 -3.95,33.15 -3.64,49.83 0.36,33.73 6.73,67.08 14.87,99.71 5.61,21.54 13.24,43.23 27.37,60.77 8.35,10.16 19.33,18.79 32.21,22.17 l 0.02,0.21 c 8.04,2.45 16.51,3.21 24.88,3.14 22.98,-0.04 45.96,0.03 68.93,-0.03 0.57,-21.54 -0.11,-43.13 0.35,-64.67 1.25,-36.56 19.62,-70.92 45.72,-95.91 25.37,-24.18 58.42,-42.03 93.95,-43.76 61.34,-0.06 122.68,-0.03 184.02,-0.05 6.49,0.11 13.05,-0.37 19.36,-1.98 17.66,-4.29 33.01,-15.59 44.3,-29.59 14.15,-17.56 22.74,-39.98 22.14,-62.66 0.01,-39.72 -0.05,-79.44 0.02,-119.15 0.02,-24.02 0.25,-48.08 -0.24,-72.09 -0.31,-5.45 -1.5,-10.89 -3.27,-16.05 -2.59,-7.95 -7.06,-15.18 -12.41,-21.57 C 642.98,97.32 626.92,87.93 610.43,80.62 591.38,72.46 571.23,67.23 551,62.92 c -25.31,-5.03 -51.24,-7.37 -77.02,-5.85 -29.79,1.51 -59.19,7.65 -87.66,16.38 z"
       id="path5"
       inkscape:connector-curvature="0"
       style="opacity:1;fill:#274e70" />
  </g>
  <g
     id="#638fb4ff"
     transform="matrix(0.24641828,0,0,0.21454982,11.498964,5.6012352)">
    <path
       d="m 386.32,73.45 c 28.47,-8.73 57.87,-14.87 87.66,-16.38 25.78,-1.52 51.71,0.82 77.02,5.85 20.23,4.31 40.38,9.54 59.43,17.7 16.49,7.31 32.55,16.7 44.46,30.51 5.35,6.39 9.82,13.62 12.41,21.57 -8.47,0.05 -17.04,0.77 -25.45,-0.19 -0.54,-1.03 -1.08,-2.05 -1.6,-3.07 -4.84,-1.11 -9.97,-0.88 -14.78,0.27 -13.22,-11.56 -29.61,-18.65 -46.11,-24.13 -18.11,-5.55 -36.57,-10.09 -55.36,-12.63 -21.46,-3.13 -43.3,-2.9 -64.84,-0.74 -0.08,-2.65 -0.08,-5.31 -0.49,-7.93 -6.51,-0.98 -13.11,0.28 -19.63,-0.42 -1.81,-0.02 -1.91,-2.27 -2.86,-3.38 -1.97,-0.68 -4.12,-0.46 -6.16,-0.53 -11.34,0.23 -22.68,-0.13 -34.02,0.07 -2.85,0.02 -5.72,0.13 -8.54,-0.31 -0.56,-2.01 -0.83,-4.09 -1.12,-6.15 l -0.02,-0.11 z"
       id="path8"
       inkscape:connector-curvature="0"
       style="opacity:1;fill:#638fb4" />
  </g>
  <g
     id="#6492b8ff"
     transform="matrix(0.24641828,0,0,0.21454982,11.498964,5.6012352)">
    <path
       d="m 325.76,102.8 c 17.87,-13.81 39.21,-22.42 60.58,-29.24 0.29,2.06 0.56,4.14 1.12,6.15 2.82,0.44 5.69,0.33 8.54,0.31 11.34,-0.2 22.68,0.16 34.02,-0.07 2.04,0.07 4.19,-0.15 6.16,0.53 0.95,1.11 1.05,3.36 2.86,3.38 6.52,0.7 13.12,-0.56 19.63,0.42 0.41,2.62 0.41,5.28 0.49,7.93 -18.7,2.39 -37.16,6.36 -55.28,11.54 -2.83,0.8 -5.59,1.81 -8.3,2.94 -10.85,-5.84 -24.59,-5.55 -35.31,0.45 -5.75,-0.29 -11.53,0.24 -17.27,-0.25 -1.86,-0.04 -1.89,-2.35 -2.79,-3.51 -4.75,-0.85 -9.65,-0.2 -14.45,-0.58 z"
       id="path11"
       inkscape:connector-curvature="0"
       style="opacity:1;fill:#6492b8" />
  </g>
  <g
     id="#4b7ea9ff"
     transform="matrix(0.24641828,0,0,0.21454982,11.498964,5.6012352)">
    <path
       d="m 459.16,92.21 c 21.54,-2.16 43.38,-2.39 64.84,0.74 18.79,2.54 37.25,7.08 55.36,12.63 16.5,5.48 32.89,12.57 46.11,24.13 5.18,5.27 10.23,11.36 10.83,19.05 -0.7,2.33 0.63,6.65 -2.25,7.48 -0.72,-1.58 -1.11,-3.28 -1.82,-4.85 -6.69,-1.06 -13.51,0.05 -20.25,-0.33 -7.13,-0.44 -14.33,0.67 -21.41,-0.4 -0.46,-1.42 -0.79,-2.88 -1.24,-4.3 -4.75,-0.64 -9.57,-0.17 -14.35,-0.27 -43.68,-0.07 -87.36,-0.08 -131.04,-0.17 -4.21,-0.08 -8.46,0.47 -12.64,-0.2 -1.1,-0.94 -1.38,-2.59 -2.57,-3.42 -4.3,-0.85 -8.73,-0.24 -13.08,-0.2 0.98,-14.4 -7.21,-28.87 -20.07,-35.41 2.71,-1.13 5.47,-2.14 8.3,-2.94 18.12,-5.18 36.58,-9.15 55.28,-11.54 z"
       id="path14"
       inkscape:connector-curvature="0"
       style="opacity:1;fill:#4b7ea9" />
  </g>
  <g
     id="#6997bcff"
     transform="matrix(0.24641828,0,0,0.21454982,11.498964,5.6012352)">
    <path
       d="m 298.71,139.88 c 3.86,-15.31 14.86,-27.62 27.05,-37.08 4.8,0.38 9.7,-0.27 14.45,0.58 0.9,1.16 0.93,3.47 2.79,3.51 5.74,0.49 11.52,-0.04 17.27,0.25 -10.59,5.98 -17.95,17.25 -18.98,29.39 -2.19,1.84 -4.32,3.75 -6.28,5.83 -0.51,-1.34 -1,-2.68 -1.65,-3.96 -7.73,-0.94 -15.56,-0.06 -23.33,-0.36 -3.8,0.17 -8.23,-1.02 -11.32,1.84 z"
       id="path17"
       inkscape:connector-curvature="0"
       style="opacity:1;fill:#6997bc" />
  </g>
  <path
     style="opacity:1;fill:#ffffff;fill-opacity:0.74936709"
     inkscape:connector-curvature="0"
     id="path20"
     d="m 100.27608,28.588103 c 2.6416,-1.287299 6.02739,-1.349518 8.70104,-0.09655 3.16893,1.403156 5.1871,4.507693 4.94561,7.59721 -0.16265,3.510034 -3.25273,6.70039 -7.20281,7.42557 -2.63175,0.493463 -5.50252,-0.0515 -7.611866,-1.519013 -2.459252,-1.645597 -3.802232,-4.419727 -3.508994,-7.1016 0.253811,-2.604634 2.067449,-5.022612 4.67702,-6.30562 z" />
  <path
     style="opacity:1;fill:#ffffff;fill-opacity:0.84810127"
     inkscape:connector-curvature="0"
     id="path22"
     d="m 156.53338,173.1153 c 1.32326,-2.77197 4.53163,-4.78874 7.9938,-4.90245 3.03094,-0.16521 6.089,1.10707 7.86322,3.25042 1.42183,1.65633 2.01816,3.79539 1.72738,5.84005 -0.38194,2.68831 -2.42721,5.13846 -5.25856,6.26485 -2.36562,0.96763 -5.20928,0.98694 -7.58722,0.0429 -2.20297,-0.85605 -3.98212,-2.49306 -4.83719,-4.45834 -0.85754,-1.92452 -0.81565,-4.13223 0.0985,-6.03743 z" />
  <g
     id="#6d94b5ff"
     transform="matrix(0.24641828,0,0,0.21454982,11.498964,5.6012352)">
    <path
       d="m 625.47,129.71 c 4.81,-1.15 9.94,-1.38 14.78,-0.27 0.52,1.02 1.06,2.04 1.6,3.07 8.41,0.96 16.98,0.24 25.45,0.19 1.77,5.16 2.96,10.6 3.27,16.05 -1.08,4.93 -0.4,9.99 -0.93,14.96 -4.82,0.78 -9.72,0.28 -14.57,0.35 -4,-0.07 -8.02,0.34 -12,-0.13 -1.76,-0.06 -2.01,-2.19 -2.98,-3.25 -1.04,-0.46 -2.1,-0.83 -3.19,-1.11 -0.07,-3.61 -0.04,-7.24 -0.6,-10.81 -0.6,-7.69 -5.65,-13.78 -10.83,-19.05 z"
       id="path25"
       inkscape:connector-curvature="0"
       style="opacity:1;fill:#6d94b5" />
  </g>
  <g
     id="#5788b2ff"
     transform="matrix(0.24641828,0,0,0.21454982,11.498964,5.6012352)">
    <path
       d="m 335.01,142.36 c 1.96,-2.08 4.09,-3.99 6.28,-5.83 -1.19,12.5 4.26,25.43 14.24,33.1 8.56,6.84 20.21,9.38 30.89,7.08 2.06,0.91 4.28,1.49 6.55,1.34 10,-0.3 20,0.18 30,-0.18 2.07,0.08 4.29,-0.22 6.24,0.61 0.55,0.96 1.11,1.92 1.66,2.89 1.73,0.55 3.56,0.66 5.29,1.21 0.55,0.98 1.11,1.96 1.66,2.95 1.02,0.31 2.07,0.46 3.15,0.45 15.23,0.21 30.5,-0.43 45.7,0.29 0.44,3.06 0.3,6.17 0.69,9.24 16.22,0.41 32.46,0.06 48.69,0.14 1.27,0.22 3.01,-0.16 3.91,1.03 -69.6,-0.1 -139.21,-0.08 -208.81,-0.14 -0.71,-13.5 -0.34,-27.04 -0.58,-40.55 -0.35,-4.98 1.74,-9.58 4.44,-13.63 z"
       id="path28"
       inkscape:connector-curvature="0"
       style="opacity:1;fill:#5788b2" />
  </g>
  <g
     id="#6f9bbfff"
     transform="matrix(0.24641828,0,0,0.21454982,11.498964,5.6012352)">
    <path
       d="m 298.71,139.88 c 3.09,-2.86 7.52,-1.67 11.32,-1.84 7.77,0.3 15.6,-0.58 23.33,0.36 0.65,1.28 1.14,2.62 1.65,3.96 -2.7,4.05 -4.79,8.65 -4.44,13.63 0.24,13.51 -0.13,27.05 0.58,40.55 l -0.75,-0.07 c -0.42,-1.7 -0.64,-3.44 -1.05,-5.14 -10.77,-0.93 -21.63,-0.08 -32.44,-0.36 -0.1,-11.97 -0.02,-23.95 -0.04,-35.93 -0.04,-5.11 0.59,-10.21 1.84,-15.16 z"
       id="path31"
       inkscape:connector-curvature="0"
       style="opacity:1;fill:#6f9bbf" />
  </g>
  <g
     id="#5584adff"
     transform="matrix(0.24641828,0,0,0.21454982,11.498964,5.6012352)">
    <path
       d="m 415.65,142.1 c 4.35,-0.04 8.78,-0.65 13.08,0.2 1.19,0.83 1.47,2.48 2.57,3.42 4.18,0.67 8.43,0.12 12.64,0.2 43.68,0.09 87.36,0.1 131.04,0.17 4.78,0.1 9.6,-0.37 14.35,0.27 0.45,1.42 0.78,2.88 1.24,4.3 7.08,1.07 14.28,-0.04 21.41,0.4 6.74,0.38 13.56,-0.73 20.25,0.33 0.71,1.57 1.1,3.27 1.82,4.85 2.88,-0.83 1.55,-5.15 2.25,-7.48 0.56,3.57 0.53,7.2 0.6,10.81 -0.08,2.69 -0.13,5.39 -0.22,8.08 -1.3,6.37 -0.6,12.88 -0.83,19.32 -0.22,8.56 0.16,17.14 -0.3,25.69 -2.17,0.34 -4.37,0.39 -6.55,0.39 -11.32,-0.26 -22.65,-0.13 -33.97,-0.12 -1.41,-0.07 -2.86,-0.01 -4.2,-0.46 -0.95,-1.52 -1.46,-3.87 -3.75,-3.52 -9.36,-0.18 -18.73,0.1 -28.08,0 -5.86,-0.12 -11.75,0.54 -17.57,-0.29 -0.4,-3.35 -0.5,-6.74 -1.14,-10.06 -0.08,-0.48 -0.25,-1.44 -0.33,-1.92 -0.9,-1.19 -2.64,-0.81 -3.91,-1.03 -16.23,-0.08 -32.47,0.27 -48.69,-0.14 -0.39,-3.07 -0.25,-6.18 -0.69,-9.24 -15.2,-0.72 -30.47,-0.08 -45.7,-0.29 -1.08,0.01 -2.13,-0.14 -3.15,-0.45 -0.55,-0.99 -1.11,-1.97 -1.66,-2.95 -1.73,-0.55 -3.56,-0.66 -5.29,-1.21 -0.55,-0.97 -1.11,-1.93 -1.66,-2.89 -1.95,-0.83 -4.17,-0.53 -6.24,-0.61 -10,0.36 -20,-0.12 -30,0.18 -2.27,0.15 -4.49,-0.43 -6.55,-1.34 16.03,-3.38 28.57,-18.25 29.23,-34.61 z"
       id="path34"
       inkscape:connector-curvature="0"
       style="opacity:1;fill:#5584ad" />
  </g>
  <g
     id="#749ab9ff"
     transform="matrix(0.24641828,0,0,0.21454982,11.498964,5.6012352)">
    <path
       d="m 670.57,148.75 c 0.49,24.01 0.26,48.07 0.24,72.09 -10.31,10.76 -21.49,20.69 -33.28,29.8 -0.58,-1.82 -1.04,-3.7 -1.01,-5.63 0.01,-18.35 0.32,-36.69 0.43,-55.04 0.06,-7.44 0.62,-14.91 -0.27,-22.32 0.09,-2.69 0.14,-5.39 0.22,-8.08 1.09,0.28 2.15,0.65 3.19,1.11 0.97,1.06 1.22,3.19 2.98,3.25 3.98,0.47 8,0.06 12,0.13 4.85,-0.07 9.75,0.43 14.57,-0.35 0.53,-4.97 -0.15,-10.03 0.93,-14.96 z"
       id="path37"
       inkscape:connector-curvature="0"
       style="opacity:1;fill:#749ab9" />
  </g>
  <g
     id="#5f8bb0ff"
     transform="matrix(0.24641828,0,0,0.21454982,11.498964,5.6012352)">
    <path
       d="m 635.85,186.97 c 0.23,-6.44 -0.47,-12.95 0.83,-19.32 0.89,7.41 0.33,14.88 0.27,22.32 -0.11,18.35 -0.42,36.69 -0.43,55.04 -0.03,1.93 0.43,3.81 1.01,5.63 -0.39,0.31 -0.77,0.63 -1.14,0.94 -0.5,0.29 -1.48,0.88 -1.98,1.17 -9.43,-1.96 -19.17,0.27 -28.61,-1.22 -0.55,-1.03 -1.09,-2.06 -1.62,-3.08 -1.7,-0.51 -3.5,-0.42 -5.24,-0.48 -14.66,0.17 -29.32,0.03 -43.98,0.01 -4.49,-0.01 -9.02,0.38 -13.48,-0.27 -0.43,-3.01 -0.68,-6.05 -1.23,-9.05 -0.3,-6.88 -0.18,-13.77 -0.3,-20.66 -0.02,-6.47 -0.51,-12.96 0.34,-19.4 0.64,3.32 0.74,6.71 1.14,10.06 5.82,0.83 11.71,0.17 17.57,0.29 9.35,0.1 18.72,-0.18 28.08,0 2.29,-0.35 2.8,2 3.75,3.52 1.34,0.45 2.79,0.39 4.2,0.46 11.32,-0.01 22.65,-0.14 33.97,0.12 2.18,0 4.38,-0.05 6.55,-0.39 0.46,-8.55 0.08,-17.13 0.3,-25.69 z"
       id="path40"
       inkscape:connector-curvature="0"
       style="opacity:1;fill:#5f8bb0" />
  </g>
  <path
     style="opacity:1;fill:#779fc0"
     inkscape:connector-curvature="0"
     id="path43"
     d="m 84.663016,46.573814 c 2.663781,0.06007 5.339884,-0.122293 7.993809,0.07724 0.101031,0.364735 0.155243,0.738052 0.258739,1.102786 l 0.184813,0.01502 c 17.150713,0.01287 34.303893,0.0086 51.454603,0.03004 0.0197,0.102984 0.0616,0.308951 0.0813,0.411935 -0.20946,1.381701 -0.0887,2.77413 -0.0838,4.162267 0.0296,1.478248 0,2.956496 0.0739,4.432599 -0.17988,2.231318 0.0641,4.466927 -0.069,6.700391 -1.89988,-0.06007 -3.81948,0.111566 -5.70951,-0.07509 -0.13306,-0.218841 -0.26613,-0.435537 -0.39673,-0.652232 -0.74172,-0.169494 -1.51794,-0.154476 -2.27691,-0.227423 -0.005,-2.473759 0.0123,-4.945373 -0.007,-7.419132 -17.13346,-0.0064 -34.26939,0.0064 -51.402853,-0.04935 l -0.103496,-0.100838 c -0.0099,-2.802021 -0.01479,-5.606187 0.0025,-8.408208 z" />
  <g
     id="#5784abff"
     transform="matrix(0.24641828,0,0,0.21454982,11.498964,5.6012352)">
    <path
       d="m 637.53,250.64 c 11.79,-9.11 22.97,-19.04 33.28,-29.8 -0.07,39.71 -0.01,79.43 -0.02,119.15 0.6,22.68 -7.99,45.1 -22.14,62.66 -11.29,14 -26.64,25.3 -44.3,29.59 1.12,-6.36 0.52,-12.82 0.63,-19.23 -0.07,-5.55 0.66,-11.2 -0.83,-16.63 20.6,-11.28 33.46,-34.98 32.5,-58.35 -0.04,-24.33 -0.02,-48.66 -0.01,-72.99 0.02,-4.49 0.09,-8.99 -0.25,-13.46 0.37,-0.31 0.75,-0.63 1.14,-0.94 z"
       id="path46"
       inkscape:connector-curvature="0"
       style="opacity:1;fill:#5784ab" />
  </g>
  <g
     id="#6590b4ff"
     transform="matrix(0.24641828,0,0,0.21454982,11.498964,5.6012352)">
    <path
       d="m 540.25,238.66 c 0.55,3 0.8,6.04 1.23,9.05 4.46,0.65 8.99,0.26 13.48,0.27 14.66,0.02 29.32,0.16 43.98,-0.01 1.74,0.06 3.54,-0.03 5.24,0.48 0.53,1.02 1.07,2.05 1.62,3.08 9.44,1.49 19.18,-0.74 28.61,1.22 -16.11,12.2 -33.75,22.37 -52.33,30.33 -13.56,5.89 -27.75,10.12 -41.96,14.1 0.22,-9.1 -0.16,-18.2 -0.15,-27.29 0.54,-10.41 -0.45,-20.83 0.28,-31.23 z"
       id="path49"
       inkscape:connector-curvature="0"
       style="opacity:1;fill:#6590b4" />
  </g>
  <g
     id="#366e9eff"
     transform="matrix(0.24641828,0,0,0.21454982,11.498964,5.6012352)">
    <path
       d="m 634.41,252.75 c 0.5,-0.29 1.48,-0.88 1.98,-1.17 0.34,4.47 0.27,8.97 0.25,13.46 -0.01,24.33 -0.03,48.66 0.01,72.99 0.96,23.37 -11.9,47.07 -32.5,58.35 -5.08,2.24 -10.54,3.76 -16.13,3.67 -52.69,-0.03 -105.37,-0.12 -158.05,-0.1 0.09,-30.37 0.1,-60.73 0.01,-91.1 31.55,-0.31 63.26,-2.2 94.22,-8.55 5.28,-1.13 10.84,-1.14 15.92,-3.12 14.21,-3.98 28.4,-8.21 41.96,-14.1 18.58,-7.96 36.22,-18.13 52.33,-30.33 z"
       id="path52"
       inkscape:connector-curvature="0"
       style="opacity:1;fill:#366e9e" />
  </g>
  <g
     id="#81a6c6ff"
     transform="matrix(0.24641828,0,0,0.21454982,11.498964,5.6012352)">
    <path
       d="m 161.74,270.79 c 8.74,-4.36 18.59,-6.01 28.3,-6.04 18.66,-0.04 37.32,-0.01 55.98,-0.02 9.98,0.06 19.97,-0.17 29.93,0.4 76.67,0 153.34,-0.08 230,0.31 3.08,0.34 6.23,0.27 9.24,1.06 0.53,1.01 1.07,2.02 1.61,3.04 7.67,0.87 15.46,0.07 23.17,0.35 -0.01,9.09 0.37,18.19 0.15,27.29 -5.08,1.98 -10.64,1.99 -15.92,3.12 -5.03,-0.83 -10.13,-0.78 -15.21,-0.71 -88.33,-0.03 -176.67,0.05 -265,0.11 -3.7,-0.12 -7.24,-1.49 -10.96,-1.4 -12.66,0.1 -25.32,0.07 -37.98,0.03 -10.82,-0.33 -21.67,3.74 -29.85,10.78 -11.19,-0.69 -22.45,0.36 -33.61,-0.53 -0.64,-1.32 -1.12,-2.71 -1.6,-4.09 7.37,-13.67 17.69,-26.51 31.75,-33.7 z"
       id="path55"
       inkscape:connector-curvature="0"
       style="opacity:1;fill:#81a6c6" />
  </g>
  <g
     id="#bb9400ff"
     transform="matrix(0.24641828,0,0,0.21454982,11.498964,5.6012352)">
    <path
       d="m 705,265.21 c 35.02,-0.03 70.05,-0.01 105.07,-0.01 19.65,0.05 39.55,4.87 56.22,15.5 15.32,9.7 27.68,23.64 36.67,39.31 15.67,26.56 22.78,56.99 29.12,86.87 5.99,29.96 9.82,60.51 9.07,91.1 -0.78,29.5 -5.77,58.88 -15.01,86.92 -7.66,23.06 -15.82,46.18 -28.02,67.3 -10.41,18.38 -25.09,35.01 -44.17,44.6 -13.54,6.88 -28.78,9.91 -43.89,10 -24.37,0.01 -48.74,-0.02 -73.1,0.01 -0.05,6.09 -0.01,12.18 -0.02,18.27 -0.01,5.61 -0.01,11.23 0,16.85 -0.02,5.65 0,11.31 0.01,16.96 -0.07,9.33 0.09,18.66 -0.1,27.99 -0.53,11.29 -3.02,22.46 -7.5,32.85 -10.23,23.13 -29.69,40.77 -51.12,53.48 -25.15,14.6 -52.92,24.11 -81.12,30.84 -27.19,6.55 -55.07,10.75 -83.09,10.81 -35.17,0.67 -70.23,-5.12 -104.02,-14.64 -14.28,-3.96 -28.23,-9.12 -41.58,-15.59 -25.21,-12.14 -48.7,-30.23 -62.01,-55.34 -5.68,-10.66 -9.32,-22.45 -10.64,-34.45 -0.97,-7.58 -0.73,-15.22 -0.79,-22.82 -0.02,-7.75 0.05,-15.5 0.01,-23.24 -0.02,-5.22 0.04,-10.44 0,-15.65 -0.02,-5.02 0.03,-10.02 0.01,-15.03 0.03,-15.19 -0.06,-30.39 0.05,-45.58 0.21,-31.02 -0.1,-62.05 0.16,-93.07 0.58,-10.39 1.76,-20.82 4.92,-30.78 4.85,-14.28 13.26,-27.07 23.17,-38.34 13.23,-14.43 29.18,-26.56 47.24,-34.28 6.37,-2.34 13.03,-3.71 19.68,-4.92 13.13,-2.29 26.5,-1.62 39.76,-1.82 52.33,-0.38 104.67,-0.51 157,-0.74 2.74,-0.05 5.5,-0.07 8.22,-0.46 0.66,-0.04 1.97,-0.11 2.62,-0.15 1.79,0.22 3.77,0.35 5.33,-0.78 34.9,-5.14 64.96,-28.94 82.92,-58.64 1.38,-1.33 2.4,-3.12 3.02,-4.92 l 0,-0.02 c 9.85,-16.95 16.13,-36.34 15.88,-56.08 0.07,-27.44 0.01,-54.87 0.03,-82.31 m 33.93,33.92 c -0.27,16.95 -0.05,33.91 -0.12,50.86 -0.2,20.39 -5.76,40.42 -14.48,58.74 -5.81,10.83 -11.98,21.87 -20.08,31 l 0.79,0.78 -1.47,-0.23 c -0.63,3.4 -4.94,4.88 -6.22,8.16 -4.8,5.15 -9.79,10.14 -14.95,14.92 -3,0.78 -4.05,4.91 -7.23,5.34 -0.86,0.9 -1.61,1.92 -2.6,2.67 -2.41,0.09 -2.94,3.4 -5.42,3.35 -0.99,2.03 -3.45,1.66 -4.47,3.67 -1.82,-0.17 -2.37,2.13 -4.08,2.24 -5.47,3.59 -11.31,6.65 -17.3,9.28 l -0.07,0.59 -0.97,-0.11 c -11.41,5.62 -23.82,8.97 -36.35,10.96 -12.9,1.71 -25.94,0.87 -38.91,1.2 -47.01,0.09 -93.98,0.74 -140.99,0.78 -8.83,0.19 -17.72,-0.31 -26.46,1.12 -21.14,2.54 -41.73,13.39 -54.11,30.99 -10.66,14.89 -15.12,33.7 -14.34,51.84 -0.27,16.67 -0.22,33.39 -0.03,50.07 -0.15,16.05 -0.34,32.19 0.1,48.23 0.09,21.49 0,42.98 0.07,64.47 -0.13,7.99 -0.01,15.99 -0.04,23.99 0.06,7.34 -0.35,14.77 1.15,22.01 1.75,9.96 6,19.45 12.15,27.47 8.83,11.66 20.98,20.37 33.8,27.18 17.19,9.35 35.99,15.25 54.89,20.04 19.24,4.93 38.9,8.31 58.73,9.68 32.97,2.39 66.21,-1.28 98.27,-9.14 24.98,-6.07 49.7,-14.21 72.12,-26.98 12.03,-6.76 22.87,-15.78 31.35,-26.69 8.07,-10.31 12.1,-23.52 11.55,-36.58 0.01,-24.62 0.1,-49.24 -0.04,-73.86 -69.72,-0.28 -139.45,0.29 -209.15,-0.33 -0.23,-11.48 0.11,-22.96 -0.05,-34.44 77.01,-0.1 154.02,0.33 231.02,0.2 1.34,-0.12 2.6,0.33 3.9,0.62 26.7,0 53.41,0 80.11,0 10.66,-0.02 21.61,-1.72 30.99,-7.05 15.76,-9.05 26.59,-24.6 34.1,-40.78 6.35,-13.04 11.37,-26.68 16.14,-40.36 4.9,-14.03 9.27,-28.3 12.03,-42.92 5.84,-28.4 6.43,-57.75 3.28,-86.53 -0.58,-6.25 -1.43,-12.5 -2.44,-18.7 -2,-13.46 -4.75,-26.79 -7.85,-40.03 -2.29,-10.07 -4.89,-20.08 -8.16,-29.88 -6.73,-19.58 -16.11,-39.25 -32.28,-52.81 -11.76,-10.14 -27.41,-14.93 -42.79,-15.02 -24.36,-0.06 -48.73,-0.04 -73.09,-0.01 z"
       id="path58"
       inkscape:connector-curvature="0"
       style="opacity:1;fill:#bb9400" />
  </g>
  <g
     id="#6c9abfff"
     transform="matrix(0.24641828,0,0,0.21454982,11.498964,5.6012352)">
    <path
       d="m 165.2,309.11 c 8.18,-7.04 19.03,-11.11 29.85,-10.78 12.66,0.04 25.32,0.07 37.98,-0.03 3.72,-0.09 7.26,1.28 10.96,1.4 88.33,-0.06 176.67,-0.14 265,-0.11 5.08,-0.07 10.18,-0.12 15.21,0.71 -30.96,6.35 -62.67,8.24 -94.22,8.55 -28.86,-0.25 -57.82,0.94 -86.33,5.69 -19.51,3.12 -38.76,7.78 -57.65,13.58 -1.43,-1.81 -2,-5.38 -4.91,-5.05 -14.04,-0.05 -28.09,-0.05 -42.13,0.02 -1.4,-0.07 -2.83,-0.07 -4.16,-0.51 -0.53,-1.06 -1.05,-2.11 -1.56,-3.15 -1.38,-0.43 -2.84,-0.4 -4.26,-0.45 -12,0.09 -24.01,0.07 -36.02,0.09 -3.82,-0.02 -7.68,0.25 -11.47,-0.38 -0.41,-1.79 -0.63,-3.61 -1.03,-5.39 -5.74,-0.9 -11.7,0.79 -17.3,-1.21 0.67,-1.01 1.35,-2 2.04,-2.98 z"
       id="path61"
       inkscape:connector-curvature="0"
       style="opacity:1;fill:#6c9abf" />
  </g>
  <path
     style="opacity:1;fill:#ffefa5;fill-opacity:0.87341775"
     inkscape:connector-curvature="0"
     id="path64"
     d="m 193.58483,69.779524 c 6.00275,-0.0064 12.00796,-0.01072 18.0107,0.0021 3.78993,0.01931 7.64637,1.047003 10.54426,3.222539 3.98458,2.909296 6.29598,7.129491 7.95437,11.330377 -1.41691,-0.04935 -2.83627,-0.03432 -4.24086,0.130875 -1.50315,0.188803 -3.04818,-0.122294 -4.52424,0.253168 -0.0739,-0.113711 -0.14539,-0.227422 -0.21191,-0.341134 -0.77376,-1.531886 -1.63376,-3.048752 -2.8141,-4.378961 -0.68258,-0.787399 -1.67811,-1.298027 -2.66379,-1.750728 -1.55243,-0.701577 -3.25765,-1.244388 -5.02693,-1.201479 -2.87816,0.01502 -5.7588,-0.03003 -8.6345,0.02146 -0.10841,1.866585 0.0739,3.743896 -0.14784,5.608334 -0.0789,-0.63936 -0.13061,-1.283008 -0.24149,-1.918076 -2.66872,-0.17164 -5.35714,-0.0085 -8.03324,-0.06651 0.0173,-3.63662 -0.0369,-7.275385 0.0296,-10.912005 z" />
  <g
     id="#8aafcfff"
     transform="matrix(0.24641828,0,0,0.21454982,11.498964,5.6012352)">
    <path
       d="m 103.47,371.98 c 7.2,-23.07 15.06,-46.14 26.52,-67.49 0.48,1.38 0.96,2.77 1.6,4.09 11.16,0.89 22.42,-0.16 33.61,0.53 -0.69,0.98 -1.37,1.97 -2.04,2.98 -7.13,10.81 -11.13,23.3 -15.78,35.3 -3.15,8.37 -5.65,16.97 -8.72,25.37 -2.2,-0.44 -4.42,-0.81 -6.67,-0.83 -9.51,0 -19.01,0.07 -28.52,0.05 z"
       id="path67"
       inkscape:connector-curvature="0"
       style="opacity:1;fill:#8aafcf" />
  </g>
  <g
     id="#3672a4ff"
     transform="matrix(0.24641828,0,0,0.21454982,11.498964,5.6012352)">
    <path
       d="m 343.65,314.54 c 28.51,-4.75 57.47,-5.94 86.33,-5.69 0.09,30.37 0.08,60.73 -0.01,91.1 -11.38,0.27 -22.79,-0.4 -34.14,0.57 -41.46,2.86 -80.87,21.84 -111,50.12 -0.36,-1.87 -0.73,-3.74 -0.83,-5.63 -0.07,-38.74 0.16,-77.48 -0.14,-116.22 0.54,-0.17 1.61,-0.5 2.14,-0.67 18.89,-5.8 38.14,-10.46 57.65,-13.58 z"
       id="path70"
       inkscape:connector-curvature="0"
       style="opacity:1;fill:#3672a4" />
  </g>
  <g
     id="#739fc3ff"
     transform="matrix(0.24641828,0,0,0.21454982,11.498964,5.6012352)">
    <path
       d="m 147.38,347.39 c 4.65,-12 8.65,-24.49 15.78,-35.3 5.6,2 11.56,0.31 17.3,1.21 0.4,1.78 0.62,3.6 1.03,5.39 3.79,0.63 7.65,0.36 11.47,0.38 12.01,-0.02 24.02,0 36.02,-0.09 1.42,0.05 2.88,0.02 4.26,0.45 0.51,1.04 1.03,2.09 1.56,3.15 1.33,0.44 2.76,0.44 4.16,0.51 14.04,-0.07 28.09,-0.07 42.13,-0.02 2.91,-0.33 3.48,3.24 4.91,5.05 -0.53,0.17 -1.6,0.5 -2.14,0.67 -36.13,11.46 -70.48,28.28 -102.21,48.97 -1.23,-1.25 -2.82,-2 -4.59,-1.88 -13.13,-0.14 -26.27,0.28 -39.4,-0.17 0.25,-0.74 0.75,-2.21 1,-2.95 3.07,-8.4 5.57,-17 8.72,-25.37 z"
       id="path73"
       inkscape:connector-curvature="0"
       style="opacity:1;fill:#739fc3" />
  </g>
  <g
     id="#3675a9ff"
     transform="matrix(0.24641828,0,0,0.21454982,11.498964,5.6012352)">
    <path
       d="m 181.65,377.76 c 31.73,-20.69 66.08,-37.51 102.21,-48.97 0.3,38.74 0.07,77.48 0.14,116.22 0.1,1.89 0.47,3.76 0.83,5.63 -23.04,22.25 -41.06,49.96 -50.3,80.73 -4.38,14.46 -6.86,29.5 -7.28,44.61 -0.44,9.52 0.38,19.09 -0.44,28.59 -11.93,0.24 -23.87,0.02 -35.81,0.1 -8.58,0.14 -16.44,-3.89 -23.81,-7.84 -6.37,-4.06 -10.08,-10.86 -13.7,-17.25 -8.96,-17.04 -13.53,-35.9 -17.64,-54.57 -7.84,-34.71 -12.35,-70.62 -8.09,-106.14 l 0.54,-0.57 c 16.98,-14.52 34.56,-28.4 53.35,-40.54 z"
       id="path76"
       inkscape:connector-curvature="0"
       style="opacity:1;fill:#3675a9" />
  </g>
  <g
     id="#ffe675ff"
     transform="matrix(0.24641828,0,0,0.21454982,11.498964,5.6012352)">
    <path
       d="m 772.99,333.1 c 11.67,-0.24 23.36,-0.03 35.04,-0.1 7.18,-0.2 14.1,2.33 20.4,5.6 4,2.11 8.04,4.49 10.81,8.16 4.79,6.2 8.28,13.27 11.42,20.41 -2.85,0.63 -5.75,1.01 -8.66,0.94 -23.45,-0.27 -46.9,-0.08 -70.35,-0.18 0.3,-2.9 0.59,-5.79 0.74,-8.69 0.9,-8.69 0.16,-17.44 0.6,-26.14 z"
       id="path79"
       inkscape:connector-curvature="0"
       style="opacity:1;fill:#ffe675" />
  </g>
  <path
     style="opacity:1;fill:#fff0ae;fill-opacity:0.86075948"
     inkscape:connector-curvature="0"
     id="path82"
     d="m 193.55526,80.691528 c 2.6761,0.05793 5.36452,-0.105128 8.03324,0.06652 0.11088,0.635068 0.16263,1.278717 0.24149,1.918075 -0.0369,0.622195 -0.10843,1.242244 -0.18236,1.864439 -0.38194,2.27208 -0.89695,4.535585 -1.74217,6.717554 -0.31049,0.757358 -0.60866,1.521155 -0.96596,2.263498 -0.53966,-0.11156 -1.08671,-0.19738 -1.64115,-0.193096 -2.43707,0.01073 -4.87662,0.04508 -7.31122,-0.03434 2.14876,-3.930553 3.51884,-8.227984 3.56813,-12.602655 z" />
  <g
     id="#ffe77eff"
     transform="matrix(0.24641828,0,0,0.21454982,11.498964,5.6012352)">
    <path
       d="m 850.66,367.17 c 0.27,0.53 0.56,1.06 0.86,1.59 3.72,9.18 6.66,18.68 8.83,28.34 -0.57,0.89 -1.18,1.75 -1.82,2.59 -1.16,0.25 -2.33,0.38 -3.5,0.39 -23.35,-0.11 -46.71,0.02 -70.06,-0.11 -6.8,-0.19 -13.69,0.77 -20.39,-0.73 3.43,-10.17 5.52,-20.72 7.07,-31.31 23.45,0.1 46.9,-0.09 70.35,0.18 2.91,0.07 5.81,-0.31 8.66,-0.94 z"
       id="path85"
       inkscape:connector-curvature="0"
       style="opacity:1;fill:#ffe77e" />
  </g>
  <path
     style="opacity:1;fill:#fff0af;fill-opacity:0.84556963"
     inkscape:connector-curvature="0"
     id="path88"
     d="m 225.8533,84.46546 c 1.40459,-0.165203 2.82395,-0.180222 4.24086,-0.130876 0.80579,2.10259 1.44648,4.250235 2.01078,6.410749 -1.71507,-0.369029 -3.48682,-0.109422 -5.22654,-0.175933 -1.08424,0.03863 -2.23501,-0.190949 -3.26504,0.190949 l -0.10841,0.03863 c -0.53474,-2.072547 -1.25921,-4.110771 -2.17589,-6.080338 1.47606,-0.375463 3.02109,-0.06437 4.52424,-0.253169 z" />
  <g
     id="#91b4d2ff"
     transform="matrix(0.24641828,0,0,0.21454982,11.498964,5.6012352)">
    <path
       d="m 103.47,371.98 c 9.51,0.02 19.01,-0.05 28.52,-0.05 2.25,0.02 4.47,0.39 6.67,0.83 -0.25,0.74 -0.75,2.21 -1,2.95 -3.28,9.09 -5.27,18.59 -7.21,28.04 -11.21,-1.78 -22.64,-0.07 -33.93,-0.94 1.39,-10.42 4.09,-20.7 6.95,-30.83 z"
       id="path91"
       inkscape:connector-curvature="0"
       style="opacity:1;fill:#91b4d2" />
  </g>
  <g
     id="#7ba5c8ff"
     transform="matrix(0.24641828,0,0,0.21454982,11.498964,5.6012352)">
    <path
       d="m 130.45,403.75 c 1.94,-9.45 3.93,-18.95 7.21,-28.04 13.13,0.45 26.27,0.03 39.4,0.17 1.77,-0.12 3.36,0.63 4.59,1.88 -18.79,12.14 -36.37,26.02 -53.35,40.54 0.38,-4.89 1.2,-9.74 2.15,-14.55 z"
       id="path94"
       inkscape:connector-curvature="0"
       style="opacity:1;fill:#7ba5c8" />
  </g>
  <path
     style="opacity:1;fill:#fff1b5;fill-opacity:0.84303798"
     inkscape:connector-curvature="0"
     id="path97"
     d="m 223.61336,90.760349 c 1.03003,-0.381898 2.1808,-0.152332 3.26504,-0.190949 1.73972,0.06654 3.51147,-0.193096 5.22654,0.175933 0.7639,2.840637 1.44154,5.700592 1.93438,8.588432 -0.34252,-0.274623 -0.76389,-0.459141 -1.23702,-0.414085 -2.40258,0.02575 -4.80269,0.01503 -7.20527,0.02575 -0.0148,-0.05151 -0.0444,-0.156623 -0.0616,-0.210257 -0.62097,-2.66042 -1.27152,-5.318693 -1.92206,-7.974821 z" />
  <g
     id="#5787afff"
     transform="matrix(0.24641828,0,0,0.21454982,11.498964,5.6012352)">
    <path
       d="m 588.02,400.05 c 5.59,0.09 11.05,-1.43 16.13,-3.67 1.49,5.43 0.76,11.08 0.83,16.63 -0.11,6.41 0.49,12.87 -0.63,19.23 -6.31,1.61 -12.87,2.09 -19.36,1.98 -61.34,0.02 -122.68,-0.01 -184.02,0.05 -0.22,-10.92 0.43,-21.87 -0.29,-32.76 -1.59,-0.47 -3.23,-0.75 -4.85,-0.99 11.35,-0.97 22.76,-0.3 34.14,-0.57 52.68,-0.02 105.36,0.07 158.05,0.1 z"
       id="path100"
       inkscape:connector-curvature="0"
       style="opacity:1;fill:#5787af" />
  </g>
  <g
     id="#ffe988ff"
     transform="matrix(0.24641828,0,0,0.21454982,11.498964,5.6012352)">
    <path
       d="m 860.35,397.1 0.44,-0.18 c 2.64,12.38 5.28,24.77 7.8,37.17 -1.13,1.41 -2.71,2.17 -4.53,1.99 -36.67,-0.24 -73.36,-0.11 -110.03,0 -1.92,-0.09 -3.79,-0.47 -5.65,-0.85 4.76,-8.15 8.81,-16.68 12.28,-25.44 1.45,-3.46 2.66,-7.02 3.92,-10.55 6.7,1.5 13.59,0.54 20.39,0.73 23.35,0.13 46.71,0 70.06,0.11 1.17,-0.01 2.34,-0.14 3.5,-0.39 0.64,-0.84 1.25,-1.7 1.82,-2.59 z"
       id="path103"
       inkscape:connector-curvature="0"
       style="opacity:1;fill:#ffe988" />
  </g>
  <g
     id="#578bb5ff"
     transform="matrix(0.24641828,0,0,0.21454982,11.498964,5.6012352)">
    <path
       d="m 284.83,450.64 c 30.13,-28.28 69.54,-47.26 111,-50.12 1.62,0.24 3.26,0.52 4.85,0.99 0.72,10.89 0.07,21.84 0.29,32.76 -35.53,1.73 -68.58,19.58 -93.95,43.76 -26.1,24.99 -44.47,59.35 -45.72,95.91 -0.46,21.54 0.22,43.13 -0.35,64.67 -22.97,0.06 -45.95,-0.01 -68.93,0.03 -8.37,0.07 -16.84,-0.69 -24.88,-3.14 l -0.02,-0.21 c -0.15,-12.82 -0.26,-25.64 0.07,-38.46 7.37,3.95 15.23,7.98 23.81,7.84 11.94,-0.08 23.88,0.14 35.81,-0.1 0.82,-9.5 0,-19.07 0.44,-28.59 0.42,-15.11 2.9,-30.15 7.28,-44.61 9.24,-30.77 27.26,-58.48 50.3,-80.73 z"
       id="path106"
       inkscape:connector-curvature="0"
       style="opacity:1;fill:#578bb5" />
  </g>
  <g
     id="#95b7d4ff"
     transform="matrix(0.24641828,0,0,0.21454982,11.498964,5.6012352)">
    <path
       d="m 96.31,402.81 0.21,0 c 11.29,0.87 22.72,-0.84 33.93,0.94 -0.95,4.81 -1.77,9.66 -2.15,14.55 l -0.54,0.57 c -12.21,10.71 -23.77,22.13 -35.09,33.77 -0.31,-16.68 0.83,-33.39 3.64,-49.83 z"
       id="path109"
       inkscape:connector-curvature="0"
       style="opacity:1;fill:#95b7d4" />
  </g>
  <g
     id="#3c4b42ca"
     transform="matrix(0.24641828,0,0,0.21454982,11.498964,5.6012352)">
    <path
       d="m 686.07,408.54 c -0.36,-2.08 0.79,-4.55 3.02,-4.92 -0.62,1.8 -1.64,3.59 -3.02,4.92 z"
       id="path112"
       inkscape:connector-curvature="0"
       style="opacity:0.79000005;fill:#3c4b42" />
  </g>
  <path
     style="opacity:1;fill:#fff1b7;fill-opacity:0.84050634"
     inkscape:connector-curvature="0"
     id="path115"
     d="m 185.03905,99.94523 c 1.99598,-1.958842 3.51637,-4.327467 4.94808,-6.651046 2.4346,0.07942 4.87415,0.04508 7.31122,0.03434 0.55444,-0.0042 1.10149,0.08156 1.64115,0.193096 -0.85507,1.87946 -1.85306,3.709571 -3.02602,5.458147 -0.3302,0.454848 -0.65301,0.913982 -0.9906,1.366683 -3.21083,-0.34328 -6.47588,0.11372 -9.68916,-0.23386 l -0.19467,-0.167345 z" />
  <g
     id="#578dbaff"
     transform="matrix(0.24641828,0,0,0.21454982,11.498964,5.6012352)">
    <path
       d="m 92.67,452.64 c 11.32,-11.64 22.88,-23.06 35.09,-33.77 -4.26,35.52 0.25,71.43 8.09,106.14 4.11,18.67 8.68,37.53 17.64,54.57 3.62,6.39 7.33,13.19 13.7,17.25 -0.33,12.82 -0.22,25.64 -0.07,38.46 -12.88,-3.38 -23.86,-12.01 -32.21,-22.17 C 120.78,595.58 113.15,573.89 107.54,552.35 99.4,519.72 93.03,486.37 92.67,452.64 Z"
       id="path118"
       inkscape:connector-curvature="0"
       style="opacity:1;fill:#578dba" />
  </g>
  <g
     id="#ffea93ff"
     transform="matrix(0.24641828,0,0,0.21454982,11.498964,5.6012352)">
    <path
       d="m 868.59,434.09 c 0.07,0.25 0.19,0.74 0.25,0.98 1.81,11.6 3.45,23.23 4.18,34.96 -48.01,-0.12 -96.01,-0.08 -144.01,-0.01 -1.81,-0.11 -3.59,-0.38 -5.37,-0.64 7.62,-8.7 14.59,-17.98 20.72,-27.78 1.37,-2.11 2.68,-4.25 4.02,-6.37 1.86,0.38 3.73,0.76 5.65,0.85 36.67,-0.11 73.36,-0.24 110.03,0 1.82,0.18 3.4,-0.58 4.53,-1.99 z"
       id="path121"
       inkscape:connector-curvature="0"
       style="opacity:1;fill:#ffea93" />
  </g>
  <path
     style="opacity:1;fill:#fff2bd;fill-opacity:0.88860761"
     inkscape:connector-curvature="0"
     id="path124"
     d="m 225.59703,98.945428 c 2.40258,-0.01073 4.80269,0 7.20527,-0.02575 0.47313,-0.04508 0.8945,0.139462 1.23702,0.414085 0.24889,1.330207 0.45833,2.671147 0.60127,4.012087 -2.54305,2.09615 -4.97027,4.31245 -7.76712,6.15972 -0.0838,-1.02126 -0.13059,-2.04251 -0.24642,-3.05948 -0.17988,-2.51667 -0.584,-5.01188 -1.03002,-7.500664 z" />
  <path
     style="opacity:1;fill:#fff3bf;fill-opacity:0.8"
     inkscape:connector-curvature="0"
     id="path127"
     d="m 184.87148,100.06323 0.36224,0.0494 c 3.21328,0.34757 6.47833,-0.10942 9.68916,0.23386 -1.51055,2.10259 -3.22808,4.09361 -5.10578,5.9602 -1.79147,1.69065 -3.62728,3.36414 -5.70706,4.79304 -1.7471,-0.30251 -3.53117,-0.0708 -5.29553,-0.15447 -3.09993,-0.0901 -6.21712,0.18665 -9.30475,-0.10728 l 0.0173,-0.12658 c 1.47605,-0.56427 2.91514,-1.22079 4.26304,-1.99102 0.42137,-0.0236 0.55691,-0.51707 1.00538,-0.4806 0.25136,-0.43124 0.85754,-0.35186 1.1015,-0.7874 0.61111,0.0107 0.74172,-0.69943 1.33558,-0.71874 0.24396,-0.16091 0.42878,-0.37975 0.64069,-0.57285 0.78361,-0.0922 1.04235,-0.97834 1.78161,-1.14569 1.27151,-1.02555 2.50115,-2.09615 3.68395,-3.20109 0.31542,-0.70372 1.37748,-1.02126 1.53272,-1.75073 z" />
  <g
     id="#ffe889ff"
     transform="matrix(0.24641828,0,0,0.21454982,11.498964,5.6012352)">
    <path
       d="m 874.02,484.29 c 11.35,-8.61 21.2,-18.94 31.52,-28.71 3.15,28.78 2.56,58.13 -3.28,86.53 -9.99,-2.03 -20.21,-0.69 -30.31,-1.13 -1.5,0.19 -2.47,-0.9 -3.43,-1.81 3.96,-17.85 5.83,-36.21 5.09,-54.48 0.1,-0.1 0.31,-0.3 0.41,-0.4 z"
       id="path130"
       inkscape:connector-curvature="0"
       style="opacity:1;fill:#ffe889" />
  </g>
  <g
     id="#4a553dd6"
     transform="matrix(0.24641828,0,0,0.21454982,11.498964,5.6012352)">
    <path
       d="m 597.82,467.96 c 1.33,-1.6 3.54,-1.49 5.33,-0.78 -1.56,1.13 -3.54,1 -5.33,0.78 z"
       id="path133"
       inkscape:connector-curvature="0"
       style="opacity:0.83999999;fill:#4a553d" />
  </g>
  <g
     id="#ffec9dff"
     transform="matrix(0.24641828,0,0,0.21454982,11.498964,5.6012352)">
    <path
       d="m 700.48,491.72 c 8.44,-6.66 15.89,-14.46 23.16,-22.34 1.78,0.26 3.56,0.53 5.37,0.64 48,-0.07 96,-0.11 144.01,0.01 0.47,4.74 0.66,9.5 1,14.26 -0.1,0.1 -0.31,0.3 -0.41,0.4 -4.76,4 -9.74,7.75 -14.88,11.25 -7.43,-1.91 -15.14,-0.52 -22.7,-0.9 -7.36,-0.37 -14.65,0.52 -21.96,1.03 -33.69,-0.07 -67.39,0.05 -101.08,-0.11 -5.56,-0.08 -11.23,0.84 -16.65,-0.81 1.39,-1.14 2.76,-2.29 4.14,-3.43 z"
       id="path136"
       inkscape:connector-curvature="0"
       style="opacity:1;fill:#ffec9d" />
  </g>
  <g
     id="#ffd536ff"
     transform="matrix(0.24641828,0,0,0.21454982,11.498964,5.6012352)">
    <path
       d="m 873.61,484.69 c 0.74,18.27 -1.13,36.63 -5.09,54.48 -3.66,17.06 -9.69,33.48 -15.44,49.92 -4.48,12.08 -8.94,24.28 -15.44,35.45 -5.65,9.07 -16.59,13.17 -26.69,14.71 -14.99,0.25 -29.98,0.02 -44.97,0.12 -3.03,0.13 -5.89,-1.18 -8.91,-1.03 -98.97,0.05 -197.95,-0.03 -296.92,0.04 -0.36,20.86 0.01,41.75 -0.12,62.63 -0.07,3.78 0.01,7.55 -0.1,11.33 -1.59,-8 -0.51,-16.21 -0.83,-24.3 -0.33,-13.6 0.36,-27.24 -0.4,-40.81 -10.52,-1 -21.14,0.35 -31.67,-0.55 -8.31,-1.18 -16.72,-0.71 -25.08,-0.73 -9.46,0.71 -18.8,-1.55 -28.27,-1.16 12.76,-10.37 26.02,-20.14 39.82,-29.08 19.17,-12.42 39.24,-23.48 60.13,-32.71 42.15,-18.63 87.4,-30.16 133.33,-33.94 26.3,-2.5 52.73,-1.05 79.08,-2.37 29.09,-1.28 58.2,-4.58 86.48,-11.71 30.79,-7.61 60.3,-20.68 86.21,-39.04 5.14,-3.5 10.12,-7.25 14.88,-11.25 z"
       id="path139"
       inkscape:connector-curvature="0"
       style="opacity:1;fill:#ffd536" />
  </g>
  <path
     style="opacity:1;fill:#fff5c9;fill-opacity:0.83037971"
     inkscape:connector-curvature="0"
     id="path142"
     d="m 160.31344,113.1658 c 3.08761,-0.42695 6.14566,-1.1457 8.9573,-2.35147 l 0.23902,0.0236 c 3.08763,0.29393 6.20482,0.0172 9.30475,0.10727 1.76436,0.0837 3.54843,-0.14804 5.29553,0.15448 -0.34005,0.24458 -0.67764,0.49132 -1.02017,0.7359 -5.50005,3.79325 -11.84286,6.70683 -18.66865,8.1958 -3.05804,0.50421 -6.14567,0.97192 -9.26778,0.96334 -14.12224,0.002 -28.24448,-0.004 -42.36671,0.004 -2.03049,-0.0559 -3.87861,0.77451 -5.5444,1.69279 -1.50809,-0.30251 -3.05559,-0.11157 -4.58339,-0.13945 -2.07237,-0.0322 -4.147216,0.0623 -6.217129,-0.0816 2.23255,-3.19893 5.544419,-5.84005 9.457529,-7.41054 1.15817,-0.47631 2.4494,-0.6651 3.56321,-1.22937 2.1537,-0.30681 4.34435,-0.19953 6.52024,-0.2403 11.58412,-0.009 23.15839,-0.14804 34.74251,-0.16736 3.19605,-0.0708 6.40934,0.10943 9.58814,-0.25745 z" />
  <g
     id="#ffeda6ff"
     transform="matrix(0.24641828,0,0,0.21454982,11.498964,5.6012352)">
    <path
       d="m 620.58,533.35 c 27.7,-6.94 53.44,-20.52 75.76,-38.2 5.42,1.65 11.09,0.73 16.65,0.81 33.69,0.16 67.39,0.04 101.08,0.11 7.31,-0.51 14.6,-1.4 21.96,-1.03 7.56,0.38 15.27,-1.01 22.7,0.9 -25.91,18.36 -55.42,31.43 -86.21,39.04 -2.14,-0.58 -4.3,-1.16 -6.51,-1.15 -44.66,0.17 -89.31,0.06 -133.97,0.12 -3.83,0.16 -7.69,0.24 -11.46,-0.6 z"
       id="path145"
       inkscape:connector-curvature="0"
       style="opacity:1;fill:#ffeda6" />
  </g>
  <path
     style="opacity:1;fill:#ffeeae;fill-opacity:0.82531643"
     inkscape:connector-curvature="0"
     id="path148"
     d="m 96.12886,120.4798 c 3.05066,-3.77607 8.12441,-6.10394 13.33369,-6.6489 -1.11381,0.56427 -2.40504,0.75307 -3.56321,1.22937 -3.91311,1.5705 -7.224979,4.21162 -9.457529,7.41055 -2.042808,2.75267 -3.289684,5.89797 -3.84659,9.13125 -0.192207,-3.89194 0.906819,-7.92762 3.533639,-11.12227 z" />
  <g
     id="#ffefb3ff"
     transform="matrix(0.24641828,0,0,0.21454982,11.498964,5.6012352)">
    <path
       d="m 582.97,537.84 c 12.67,0.04 25.2,-2.14 37.61,-4.49 3.77,0.84 7.63,0.76 11.46,0.6 44.66,-0.06 89.31,0.05 133.97,-0.12 2.21,-0.01 4.37,0.57 6.51,1.15 -28.28,7.13 -57.39,10.43 -86.48,11.71 -26.35,1.32 -52.78,-0.13 -79.08,2.37 -45.93,3.78 -91.18,15.31 -133.33,33.94 -3.41,-1.26 -7.06,-1.38 -10.65,-1.2 -30.66,0.12 -61.31,-0.08 -91.97,0.07 -1.89,-0.15 -4.41,0.41 -5.37,-1.72 4.23,-13.27 11.76,-25.82 22.9,-34.4 6.76,-4.28 14.26,-8.15 22.5,-7.89 57.31,-0.04 114.62,-0.01 171.93,-0.02 z"
       id="path151"
       inkscape:connector-curvature="0"
       style="opacity:1;fill:#ffefb3" />
  </g>
  <g
     id="#ffe684ff"
     transform="matrix(0.24641828,0,0,0.21454982,11.498964,5.6012352)">
    <path
       d="m 853.08,589.09 c 5.75,-16.44 11.78,-32.86 15.44,-49.92 0.96,0.91 1.93,2 3.43,1.81 10.1,0.44 20.32,-0.9 30.31,1.13 -2.76,14.62 -7.13,28.89 -12.03,42.92 -4.77,13.68 -9.79,27.32 -16.14,40.36 -6.66,1.17 -13.43,0.37 -20.14,0.64 -5.49,0.25 -10.92,-0.62 -16.31,-1.49 6.5,-11.17 10.96,-23.37 15.44,-35.45 z"
       id="path154"
       inkscape:connector-curvature="0"
       style="opacity:1;fill:#ffe684" />
  </g>
  <path
     style="opacity:1;fill:#fff6d6;fill-opacity:0.86075948"
     inkscape:connector-curvature="0"
     id="path157"
     d="m 92.595221,131.60207 c 0.556906,-3.23328 1.803782,-6.37858 3.84659,-9.13125 2.069913,0.14375 4.144759,0.0494 6.217129,0.0816 1.5278,0.0279 3.0753,-0.16307 4.58339,0.13944 -2.7451,1.84084 -4.60064,4.53345 -5.64298,7.38053 -0.2341,0.6608 -0.3647,1.34522 -0.49037,2.02748 -0.43124,2.07041 -0.0418,4.19231 -0.16757,6.28416 -2.681033,0.0515 -5.381776,-0.133 -8.048023,0.0966 -0.268596,1.27659 0.118281,2.60035 -0.305558,3.86405 -0.04682,-3.5787 -0.05914,-7.16597 0.0074,-10.74251 z" />
  <g
     id="#fff2c2ff"
     transform="matrix(0.24641828,0,0,0.21454982,11.498964,5.6012352)">
    <path
       d="m 363.65,589.6 c 0.51,-3.18 1.04,-6.37 1.99,-9.45 0.96,2.13 3.48,1.57 5.37,1.72 30.66,-0.15 61.31,0.05 91.97,-0.07 3.59,-0.18 7.24,-0.06 10.65,1.2 -20.89,9.23 -40.96,20.29 -60.13,32.71 -1.82,-0.3 -3.64,-0.61 -5.48,-0.73 -14.5,-0.34 -29.04,0.29 -43.53,-0.29 -0.65,-8.35 0.26,-16.77 -0.84,-25.09 z"
       id="path160"
       inkscape:connector-curvature="0"
       style="opacity:1;fill:#fff2c2" />
  </g>
  <g
     id="#fff4ceff"
     transform="matrix(0.24641828,0,0,0.21454982,11.498964,5.6012352)">
    <path
       d="m 362.97,618.89 c 0.51,-9.75 -1.07,-19.64 0.68,-29.29 1.1,8.32 0.19,16.74 0.84,25.09 14.49,0.58 29.03,-0.05 43.53,0.29 1.84,0.12 3.66,0.43 5.48,0.73 -13.8,8.94 -27.06,18.71 -39.82,29.08 -3.01,2.43 -5.88,5.04 -8.94,7.42 -0.44,-2.74 -0.87,-5.5 -0.91,-8.27 0.05,-8.36 -0.9,-16.69 -0.86,-25.05 z"
       id="path163"
       inkscape:connector-curvature="0"
       style="opacity:1;fill:#fff4ce" />
  </g>
  <path
     style="opacity:1;fill:#fff9e5;fill-opacity:0.85316455"
     inkscape:connector-curvature="0"
     id="path166"
     d="m 92.893387,138.48053 c 2.666247,-0.22957 5.36699,-0.0451 8.048023,-0.0966 -0.01,1.79363 0.22424,3.58084 0.21192,5.37448 0.01,0.59429 0.11582,1.18646 0.22424,1.77432 -0.12074,0.0966 -0.24149,0.19524 -0.36223,0.29609 -2.932384,2.16265 -5.714446,4.47335 -8.40287,6.86344 -0.108424,-3.44137 -0.0616,-6.90422 -0.02464,-10.34774 0.423838,-1.2637 0.03696,-2.58747 0.305558,-3.86404 z" />
  <g
     id="#ffe480ff"
     transform="matrix(0.24641828,0,0,0.21454982,11.498964,5.6012352)">
    <path
       d="m 810.95,639.25 c 10.1,-1.54 21.04,-5.64 26.69,-14.71 5.39,0.87 10.82,1.74 16.31,1.49 6.71,-0.27 13.48,0.53 20.14,-0.64 -7.51,16.18 -18.34,31.73 -34.1,40.78 -9.38,5.33 -20.33,7.03 -30.99,7.05 -26.7,0 -53.41,0 -80.11,0 -1.3,-0.29 -2.56,-0.74 -3.9,-0.62 -77,0.13 -154.01,-0.3 -231.02,-0.2 l -0.74,0.05 c -0.92,9.38 0.37,18.86 -0.54,28.25 -10.85,0.82 -21.78,-0.07 -32.66,0.31 0.13,-20.88 -0.24,-41.77 0.12,-62.63 98.97,-0.07 197.95,0.01 296.92,-0.04 3.02,-0.15 5.88,1.16 8.91,1.03 14.99,-0.1 29.98,0.13 44.97,-0.12 z"
       id="path169"
       inkscape:connector-curvature="0"
       style="opacity:1;fill:#ffe480" />
  </g>
  <g
     id="#ffd12dff"
     transform="matrix(0.24641828,0,0,0.21454982,11.498964,5.6012352)">
    <path
       d="m 364.74,652.21 c 3.06,-2.38 5.93,-4.99 8.94,-7.42 9.47,-0.39 18.81,1.87 28.27,1.16 8.36,0.02 16.77,-0.45 25.08,0.73 10.53,0.9 21.15,-0.45 31.67,0.55 0.76,13.57 0.07,27.21 0.4,40.81 0.32,8.09 -0.76,16.3 0.83,24.3 0.05,9.61 0.17,19.23 -0.03,28.84 -2.3,-6.3 0,-13.33 -1.25,-19.88 -9.79,-1.06 -19.69,0.41 -29.48,-0.64 -8.67,-1.3 -17.45,-0.53 -26.17,-0.67 -7.36,0.54 -14.61,-1.31 -21.96,-1.04 -5.54,0.17 -11.12,-0.47 -16.62,0.34 -0.34,18.2 -0.11,36.42 -0.17,54.63 0.02,5.45 0.03,10.91 -0.31,16.36 -0.43,-1.71 -0.63,-3.48 -0.61,-5.23 0.01,-11.34 0.1,-22.69 0.01,-34.03 -0.07,-32.48 0.3,-64.96 -0.07,-97.43 0.49,-0.47 0.98,-0.93 1.47,-1.38 z"
       id="path172"
       inkscape:connector-curvature="0"
       style="opacity:1;fill:#ffd12d" />
  </g>
  <g
     id="#ffe27cff"
     transform="matrix(0.24641828,0,0,0.21454982,11.498964,5.6012352)">
    <path
       d="m 329.17,685.58 c 10.91,-11.14 22.2,-21.91 34.1,-31.99 0.37,32.47 0,64.95 0.07,97.43 -7.34,-0.07 -14.71,0.49 -22.02,-0.47 -4.01,-0.5 -8.05,-0.56 -12.08,-0.5 -0.07,-21.49 0.02,-42.98 -0.07,-64.47 z"
       id="path175"
       inkscape:connector-curvature="0"
       style="opacity:1;fill:#ffe27c" />
  </g>
  <g
     id="#ffe27bff"
     transform="matrix(0.24641828,0,0,0.21454982,11.498964,5.6012352)">
    <path
       d="m 493.23,672.45 0.74,-0.05 c 0.16,11.48 -0.18,22.96 0.05,34.44 69.7,0.62 139.43,0.05 209.15,0.33 0.14,24.62 0.05,49.24 0.04,73.86 -7.79,-0.2 -15.63,0.49 -23.38,-0.66 -3,-0.33 -6.11,-0.82 -9.07,0 -0.65,1.56 -1.1,3.2 -1.53,4.85 0.26,-14.65 0.21,-29.31 0.01,-43.95 -69.78,-0.14 -139.56,0.02 -209.34,-0.09 0.2,-9.61 0.08,-19.23 0.03,-28.84 0.11,-3.78 0.03,-7.55 0.1,-11.33 10.88,-0.38 21.81,0.51 32.66,-0.31 0.91,-9.39 -0.38,-18.87 0.54,-28.25 z"
       id="path178"
       inkscape:connector-curvature="0"
       style="opacity:1;fill:#ffe27b" />
  </g>
  <g
     id="#ffce27ff"
     transform="matrix(0.24641828,0,0,0.21454982,11.498964,5.6012352)">
    <path
       d="m 364.42,719.29 c 5.5,-0.81 11.08,-0.17 16.62,-0.34 7.35,-0.27 14.6,1.58 21.96,1.04 8.72,0.14 17.5,-0.63 26.17,0.67 9.79,1.05 19.69,-0.42 29.48,0.64 1.25,6.55 -1.05,13.58 1.25,19.88 69.78,0.11 139.56,-0.05 209.34,0.09 0.2,14.64 0.25,29.3 -0.01,43.95 -0.98,6.06 -4.91,11.02 -9.3,15.07 1.18,-9.53 -1.24,-19.5 -7.01,-27.22 -7.2,-9.99 -19.61,-15.92 -31.91,-15.15 -14.05,0.53 -27.07,9.93 -32.44,22.85 -6.42,-1.51 -13.04,-0.61 -19.56,-0.7 -6.72,0.29 -13.33,-1.43 -20.06,-1.11 -9.67,-0.16 -19.39,0.62 -29.01,-0.68 -10.94,-0.98 -21.96,0.36 -32.9,-0.54 -8.95,-1.3 -17.99,-0.6 -26.99,-0.72 -8.04,0.48 -15.97,-1.52 -24.01,-1.05 -9.05,-0.17 -18.15,0.56 -27.15,-0.71 -9.63,-0.73 -19.3,-0.08 -28.94,-0.22 -5.24,-0.31 -10.43,-1.28 -15.7,-1.12 0.06,-18.21 -0.17,-36.43 0.17,-54.63 z"
       id="path184"
       inkscape:connector-curvature="0"
       style="opacity:1;fill:#ffce27" />
  </g>
  <g
     id="#ffdf74ff"
     transform="matrix(0.24641828,0,0,0.21454982,11.498964,5.6012352)">
    <path
       d="m 329.24,750.05 c 4.03,-0.06 8.07,0 12.08,0.5 7.31,0.96 14.68,0.4 22.02,0.47 0.09,11.34 0,22.69 -0.01,34.03 -0.02,1.75 0.18,3.52 0.61,5.23 1.04,8.51 7.54,14.8 13.6,20.25 12.44,10.1 27.49,16.36 42.56,21.43 23.7,7.37 48.13,12.85 72.94,14.59 36.38,2.72 72.86,-3.48 107.64,-13.92 2.45,-0.77 5.02,-1.39 7.12,-2.94 9.65,4.4 21.19,4.31 30.79,-0.2 11.49,-5.25 19.79,-16.67 21.34,-29.2 4.39,-4.05 8.32,-9.01 9.3,-15.07 0.43,-1.65 0.88,-3.29 1.53,-4.85 2.96,-0.82 6.07,-0.33 9.07,0 7.75,1.15 15.59,0.46 23.38,0.66 0.55,13.06 -3.48,26.27 -11.55,36.58 -8.48,10.91 -19.32,19.93 -31.35,26.69 -22.42,12.77 -47.14,20.91 -72.12,26.98 -32.06,7.86 -65.3,11.53 -98.27,9.14 -19.83,-1.37 -39.49,-4.75 -58.73,-9.68 -18.9,-4.79 -37.7,-10.69 -54.89,-20.04 -12.82,-6.81 -24.97,-15.52 -33.8,-27.18 -6.15,-8.02 -10.4,-17.51 -12.15,-27.47 -1.5,-7.24 -1.09,-14.67 -1.15,-22.01 0.03,-8 -0.09,-16 0.04,-23.99 z"
       id="path193"
       inkscape:connector-curvature="0"
       style="opacity:1;fill:#ffdf74" />
  </g>
  <g
     id="#ffcc22ff"
     transform="matrix(0.24641828,0,0,0.21454982,11.498964,5.6012352)">
    <path
       d="m 364.25,773.92 c 5.27,-0.16 10.46,0.81 15.7,1.12 9.64,0.14 19.31,-0.51 28.94,0.22 9,1.27 18.1,0.54 27.15,0.71 8.04,-0.47 15.97,1.53 24.01,1.05 9,0.12 18.04,-0.58 26.99,0.72 10.94,0.9 21.96,-0.44 32.9,0.54 9.62,1.3 19.34,0.52 29.01,0.68 6.73,-0.32 13.34,1.4 20.06,1.11 6.52,0.09 13.14,-0.81 19.56,0.7 -3.71,8.88 -3.88,19.17 -0.4,28.14 3.47,9.16 10.69,16.79 19.63,20.78 -2.1,1.55 -4.67,2.17 -7.12,2.94 -34.78,10.44 -71.26,16.64 -107.64,13.92 -24.81,-1.74 -49.24,-7.22 -72.94,-14.59 -15.07,-5.07 -30.12,-11.33 -42.56,-21.43 -6.06,-5.45 -12.56,-11.74 -13.6,-20.25 0.34,-5.45 0.33,-10.91 0.31,-16.36 z"
       id="path199"
       inkscape:connector-curvature="0"
       style="opacity:1;fill:#ffcc22" />
  </g>
  <text
     xml:space="preserve"
     style="font-style:normal;font-variant:normal;font-weight:normal;font-stretch:normal;font-size:20px;line-height:125%;font-family:sans-serif;-inkscape-font-specification:'sans-serif, Normal';text-align:start;letter-spacing:0px;word-spacing:0px;writing-mode:lr-tb;text-anchor:start;fill:#000000;fill-opacity:1;stroke:none;stroke-width:1px;stroke-linecap:butt;stroke-linejoin:miter;stroke-opacity:1"
     x="-235.08989"
     y="138.08527"
     id="text4850"
     sodipodi:linespacing="125%"><tspan
       sodipodi:role="line"
       id="tspan4852"
       x="-235.08989"
       y="138.08527" /></text>
  <g
     style="font-style:normal;font-variant:normal;font-weight:normal;font-stretch:normal;font-size:20px;line-height:125%;font-family:sans-serif;-inkscape-font-specification:'sans-serif, Normal';text-align:start;letter-spacing:0px;word-spacing:0px;writing-mode:lr-tb;text-anchor:start;fill:#779fc0;fill-opacity:0.63921569;stroke:none;stroke-width:1px;stroke-linecap:butt;stroke-linejoin:miter;stroke-opacity:1"
     id="text4854"
     transform="matrix(0.76108578,0,0,0.76674746,-333.23939,152.17915)">
    <path
       d="m 477.23447,121.50343 -3.51563,0 0,-1.14257 q -0.9082,0.74218 -1.69922,1.09375 -0.79101,0.35156 -1.82617,0.35156 -2.00195,0 -3.20312,-1.54297 -1.20118,-1.54297 -1.20118,-4.16016 0,-1.39648 0.40039,-2.4707 0.41016,-1.08398 1.11329,-1.85547 0.66406,-0.73242 1.61132,-1.13281 0.94727,-0.41016 1.89454,-0.41016 0.98632,0 1.61132,0.21485 0.63477,0.20507 1.29883,0.52734 l 0,-4.66797 3.51563,0 0,15.19531 z m -3.51563,-3.02734 0,-5.38086 q -0.37109,-0.15625 -0.78125,-0.22461 -0.41015,-0.0684 -0.75195,-0.0684 -1.38672,0 -2.08008,0.86914 -0.69336,0.85938 -0.69336,2.39258 0,1.61133 0.55664,2.34375 0.55664,0.72266 1.78711,0.72266 0.47852,0 1.01563,-0.17578 0.53711,-0.18555 0.94726,-0.47852 z"
       style="font-style:normal;font-variant:normal;font-weight:bold;font-stretch:normal;font-size:20px;line-height:125%;font-family:sans-serif;-inkscape-font-specification:'sans-serif, Bold';text-align:start;writing-mode:lr-tb;text-anchor:start;fill:#779fc0;fill-opacity:0.63921569"
       id="path4869"
       inkscape:connector-curvature="0" />
    <path
       d="m 491.35556,116.66945 -8.04687,0 q 0.0781,1.28906 0.97656,1.97266 0.9082,0.68359 2.66601,0.68359 1.11328,0 2.15821,-0.40039 1.04492,-0.40039 1.65039,-0.85938 l 0.39062,0 0,2.82227 q -1.1914,0.47851 -2.24609,0.69336 -1.05469,0.21484 -2.33399,0.21484 -3.30078,0 -5.05859,-1.48437 -1.75781,-1.48438 -1.75781,-4.22852 0,-2.71484 1.66015,-4.29687 1.66993,-1.5918 4.57032,-1.5918 2.67578,0 4.02343,1.35742 1.34766,1.34766 1.34766,3.88672 l 0,1.23047 z m -3.49609,-2.06055 q -0.0293,-1.10351 -0.54688,-1.66015 -0.51758,-0.55664 -1.61133,-0.55664 -1.01562,0 -1.66992,0.52734 -0.6543,0.52734 -0.73242,1.68945 l 4.56055,0 z"
       style="font-style:normal;font-variant:normal;font-weight:bold;font-stretch:normal;font-size:20px;line-height:125%;font-family:sans-serif;-inkscape-font-specification:'sans-serif, Bold';text-align:start;writing-mode:lr-tb;text-anchor:start;fill:#779fc0;fill-opacity:0.63921569"
       id="path4871"
       inkscape:connector-curvature="0" />
    <path
       d="m 500.9454,108.88625 -0.26367,0 q -0.23437,-0.0684 -0.61523,-0.15625 -0.3711,-0.0879 -0.80078,-0.0879 -1.03516,0 -1.40625,0.37109 -0.36133,0.37109 -0.36133,1.43555 l 0,0.0879 2.71484,0 0,2.38281 -2.59765,0 0,8.58398 -3.51563,0 0,-8.58398 -1.50391,0 0,-2.38281 1.50391,0 0,-0.30274 q 0,-2.01172 1.06445,-3.01758 1.07422,-1.00586 3.24219,-1.00586 0.78125,0 1.41602,0.0586 0.63476,0.0488 1.12304,0.13672 l 0,2.48047 z"
       style="font-style:normal;font-variant:normal;font-weight:bold;font-stretch:normal;font-size:20px;line-height:125%;font-family:sans-serif;-inkscape-font-specification:'sans-serif, Bold';text-align:start;writing-mode:lr-tb;text-anchor:start;fill:#779fc0;fill-opacity:0.63921569"
       id="path4873"
       inkscape:connector-curvature="0" />
    <path
       d="m 526.52158,106.96242 -3.7793,14.54101 -2.17774,0 -3.05664,-12.07031 -2.98828,12.07031 -2.1289,0 -3.84766,-14.54101 1.98242,0 3.05664,12.08984 3.00782,-12.08984 1.96289,0 3.03711,12.20703 3.0371,-12.20703 1.89454,0 z"
       id="path4875"
       inkscape:connector-curvature="0"
       style="fill:#779fc0;fill-opacity:0.63921569" />
    <path
       d="m 541.64853,114.24757 q 0,1.98243 -0.86914,3.59375 -0.85938,1.61133 -2.29492,2.5 -0.9961,0.61524 -2.22657,0.88868 -1.2207,0.27343 -3.22265,0.27343 l -3.67188,0 0,-14.54101 3.63282,0 q 2.1289,0 3.3789,0.3125 1.25977,0.30273 2.12891,0.83984 1.48437,0.92774 2.31445,2.4707 0.83008,1.54297 0.83008,3.66211 z m -2.02149,-0.0293 q 0,-1.70899 -0.5957,-2.88086 -0.5957,-1.17188 -1.77734,-1.84571 -0.85938,-0.48828 -1.82617,-0.67382 -0.9668,-0.19532 -2.31446,-0.19532 l -1.8164,0 0,11.22071 1.8164,0 q 1.39649,0 2.43164,-0.20508 1.04493,-0.20508 1.91407,-0.76172 1.08398,-0.69336 1.62109,-1.82617 0.54687,-1.13281 0.54687,-2.83203 z"
       id="path4877"
       inkscape:connector-curvature="0"
       style="fill:#779fc0;fill-opacity:0.63921569" />
    <path
       d="m 557.74228,121.50343 -1.93359,0 0,-12.52929 -4.04297,8.52539 -1.15235,0 -4.01367,-8.52539 0,12.52929 -1.80664,0 0,-14.54101 2.63672,0 3.87695,8.0957 3.75,-8.0957 2.68555,0 0,14.54101 z"
       id="path4879"
       inkscape:connector-curvature="0"
       style="fill:#779fc0;fill-opacity:0.63921569" />
    <path
       d="m 567.36142,125.52687 -2.23633,0 q -1.72851,-1.98242 -2.68555,-4.32617 -0.95703,-2.34375 -0.95703,-5.2832 0,-2.93946 0.95703,-5.28321 0.95704,-2.34375 2.68555,-4.32617 l 2.23633,0 0,0.0977 q -0.79102,0.71289 -1.51367,1.65039 -0.71289,0.92773 -1.32813,2.16797 -0.58593,1.20117 -0.95703,2.64648 -0.36133,1.44531 -0.36133,3.04688 0,1.66992 0.35157,3.05664 0.36132,1.38672 0.96679,2.63672 0.58594,1.20117 1.33789,2.16796 0.75196,0.97657 1.50391,1.65039 l 0,0.0977 z"
       id="path4881"
       inkscape:connector-curvature="0"
       style="fill:#779fc0;fill-opacity:0.63921569" />
    <path
       d="m 576.13095,115.9175 q 0,2.93945 -0.95703,5.2832 -0.95703,2.34375 -2.68555,4.32617 l -2.23633,0 0,-0.0977 q 0.75196,-0.67382 1.50391,-1.65039 0.76172,-0.96679 1.33789,-2.16796 0.60547,-1.25 0.95703,-2.63672 0.36133,-1.38672 0.36133,-3.05664 0,-1.60157 -0.36133,-3.04688 -0.36133,-1.44531 -0.95703,-2.64648 -0.61523,-1.24024 -1.33789,-2.16797 -0.71289,-0.9375 -1.50391,-1.65039 l 0,-0.0977 2.23633,0 q 1.72852,1.98242 2.68555,4.32617 0.95703,2.34375 0.95703,5.28321 z"
       id="path4883"
       inkscape:connector-curvature="0"
       style="fill:#779fc0;fill-opacity:0.63921569" />
    <path
       d="m 583.63095,113.37843 -2.33398,0 0,-2.7832 2.33398,0 0,2.7832 z m 0,8.125 -2.33398,0 0,-2.7832 2.33398,0 0,2.7832 z"
       id="path4885"
       inkscape:connector-curvature="0"
       style="fill:#779fc0;fill-opacity:0.63921569" />
    <path
       d="m 498.86533,142.62648 2.5,-7.08984 3.61328,0 -6.09375,14.99023 -3.8086,0 1.73828,-4.10156 -4.26757,-10.88867 3.6914,0 2.62696,7.08984 z"
       style="font-style:normal;font-variant:normal;font-weight:bold;font-stretch:normal;font-size:20px;line-height:125%;font-family:sans-serif;-inkscape-font-specification:'sans-serif, Bold';text-align:start;writing-mode:lr-tb;text-anchor:start;fill:#779fc0;fill-opacity:0.63921569"
       id="path4887"
       inkscape:connector-curvature="0" />
    <path
       d="m 510.43759,146.50343 -3.51562,0 0,-10.96679 3.51562,0 0,10.96679 z m 0.0977,-12.52929 -3.71094,0 0,-2.66602 3.71094,0 0,2.66602 z"
       style="font-style:normal;font-variant:normal;font-weight:bold;font-stretch:normal;font-size:20px;line-height:125%;font-family:sans-serif;-inkscape-font-specification:'sans-serif, Bold';text-align:start;writing-mode:lr-tb;text-anchor:start;fill:#779fc0;fill-opacity:0.63921569"
       id="path4889"
       inkscape:connector-curvature="0" />
    <path
       d="m 524.55869,141.66945 -8.04688,0 q 0.0781,1.28906 0.97656,1.97266 0.90821,0.68359 2.66602,0.68359 1.11328,0 2.1582,-0.40039 1.04492,-0.40039 1.65039,-0.85938 l 0.39063,0 0,2.82227 q -1.19141,0.47851 -2.2461,0.69336 -1.05468,0.21484 -2.33398,0.21484 -3.30078,0 -5.05859,-1.48437 -1.75782,-1.48438 -1.75782,-4.22852 0,-2.71484 1.66016,-4.29687 1.66992,-1.5918 4.57031,-1.5918 2.67578,0 4.02344,1.35742 1.34766,1.34766 1.34766,3.88672 l 0,1.23047 z m -3.4961,-2.06055 q -0.0293,-1.10351 -0.54687,-1.66015 -0.51758,-0.55664 -1.61133,-0.55664 -1.01563,0 -1.66992,0.52734 -0.6543,0.52734 -0.73243,1.68945 l 4.56055,0 z"
       style="font-style:normal;font-variant:normal;font-weight:bold;font-stretch:normal;font-size:20px;line-height:125%;font-family:sans-serif;-inkscape-font-specification:'sans-serif, Bold';text-align:start;writing-mode:lr-tb;text-anchor:start;fill:#779fc0;fill-opacity:0.63921569"
       id="path4891"
       inkscape:connector-curvature="0" />
    <path
       d="m 530.55478,146.50343 -3.51563,0 0,-15.19531 3.51563,0 0,15.19531 z"
       style="font-style:normal;font-variant:normal;font-weight:bold;font-stretch:normal;font-size:20px;line-height:125%;font-family:sans-serif;-inkscape-font-specification:'sans-serif, Bold';text-align:start;writing-mode:lr-tb;text-anchor:start;fill:#779fc0;fill-opacity:0.63921569"
       id="path4893"
       inkscape:connector-curvature="0" />
    <path
       d="m 544.53915,146.50343 -3.51562,0 0,-1.14257 q -0.9082,0.74218 -1.69922,1.09375 -0.79102,0.35156 -1.82617,0.35156 -2.00195,0 -3.20313,-1.54297 -1.20117,-1.54297 -1.20117,-4.16016 0,-1.39648 0.40039,-2.4707 0.41016,-1.08398 1.11328,-1.85547 0.66407,-0.73242 1.61133,-1.13281 0.94727,-0.41016 1.89453,-0.41016 0.98633,0 1.61133,0.21485 0.63477,0.20507 1.29883,0.52734 l 0,-4.66797 3.51562,0 0,15.19531 z m -3.51562,-3.02734 0,-5.38086 q -0.37109,-0.15625 -0.78125,-0.22461 -0.41016,-0.0684 -0.75195,-0.0684 -1.38672,0 -2.08008,0.86914 -0.69336,0.85938 -0.69336,2.39258 0,1.61133 0.55664,2.34375 0.55664,0.72266 1.78711,0.72266 0.47851,0 1.01562,-0.17578 0.53711,-0.18555 0.94727,-0.47852 z"
       style="font-style:normal;font-variant:normal;font-weight:bold;font-stretch:normal;font-size:20px;line-height:125%;font-family:sans-serif;-inkscape-font-specification:'sans-serif, Bold';text-align:start;writing-mode:lr-tb;text-anchor:start;fill:#779fc0;fill-opacity:0.63921569"
       id="path4895"
       inkscape:connector-curvature="0" />
    <path
       d="m 562.83017,143.3589 q 0,1.49414 -1.24023,2.45117 -1.23047,0.95704 -3.36915,0.95704 -1.21093,0 -2.22656,-0.28321 -1.00586,-0.29297 -1.68945,-0.63476 l 0,-2.06055 0.0977,0 q 0.86914,0.6543 1.93359,1.04492 1.06445,0.38086 2.04101,0.38086 1.21094,0 1.89454,-0.39062 0.68359,-0.39063 0.68359,-1.23047 0,-0.64453 -0.37109,-0.97657 -0.3711,-0.33203 -1.42579,-0.5664 -0.39062,-0.0879 -1.02539,-0.20508 -0.625,-0.11719 -1.14257,-0.25391 -1.43555,-0.38086 -2.04102,-1.11328 -0.5957,-0.74218 -0.5957,-1.8164 0,-0.67383 0.27343,-1.26953 0.28321,-0.59571 0.84961,-1.06446 0.54688,-0.45898 1.38672,-0.72265 0.84961,-0.27344 1.89453,-0.27344 0.97657,0 1.97266,0.24414 1.00586,0.23437 1.66992,0.57617 l 0,1.96289 -0.0977,0 q -0.70313,-0.51758 -1.70899,-0.86914 -1.00586,-0.36133 -1.97265,-0.36133 -1.00586,0 -1.69922,0.39063 -0.69336,0.38086 -0.69336,1.14258 0,0.67382 0.41992,1.01562 0.41016,0.3418 1.32812,0.55664 0.50782,0.11719 1.13282,0.23438 0.63476,0.11718 1.05468,0.21484 1.2793,0.29297 1.97266,1.00586 0.69336,0.72266 0.69336,1.91406 z"
       id="path4897"
       inkscape:connector-curvature="0"
       style="fill:#779fc0;fill-opacity:0.63921569" />
    <path
       d="m 574.76376,141.05421 q 0,2.66602 -1.36718,4.20899 -1.36719,1.54297 -3.66211,1.54297 -2.31446,0 -3.68164,-1.54297 -1.35743,-1.54297 -1.35743,-4.20899 0,-2.66601 1.35743,-4.20898 1.36718,-1.55273 3.68164,-1.55273 2.29492,0 3.66211,1.55273 1.36718,1.54297 1.36718,4.20898 z m -1.89453,0 q 0,-2.11914 -0.83008,-3.14453 -0.83007,-1.03515 -2.30468,-1.03515 -1.49414,0 -2.32422,1.03515 -0.82031,1.02539 -0.82031,3.14453 0,2.05079 0.83007,3.11524 0.83008,1.05469 2.31446,1.05469 1.46484,0 2.29492,-1.04493 0.83984,-1.05468 0.83984,-3.125 z"
       id="path4899"
       inkscape:connector-curvature="0"
       style="fill:#779fc0;fill-opacity:0.63921569" />
    <path
       d="m 579.47079,146.50343 -1.83593,0 0,-15.19531 1.83593,0 0,15.19531 z"
       id="path4901"
       inkscape:connector-curvature="0"
       style="fill:#779fc0;fill-opacity:0.63921569" />
    <path
       d="m 592.47861,135.59523 -4.41407,10.9082 -1.8457,0 -4.38476,-10.9082 1.99218,0 3.37891,8.68164 3.34961,-8.68164 1.92383,0 z"
       id="path4903"
       inkscape:connector-curvature="0"
       style="fill:#779fc0;fill-opacity:0.63921569" />
    <path
       d="m 604.01181,141.23976 -8.03711,0 q 0,1.00586 0.30274,1.75781 0.30273,0.74219 0.83007,1.22071 0.50782,0.46875 1.20118,0.70312 0.70312,0.23438 1.54296,0.23438 1.11329,0 2.23633,-0.43946 1.13281,-0.44921 1.61133,-0.8789 l 0.0977,0 0,2.00195 q -0.92774,0.39063 -1.89453,0.6543 -0.9668,0.26367 -2.03125,0.26367 -2.71485,0 -4.23829,-1.46484 -1.52343,-1.47461 -1.52343,-4.17969 0,-2.67578 1.45507,-4.24805 1.46485,-1.57226 3.84766,-1.57226 2.20703,0 3.39844,1.28906 1.20117,1.28906 1.20117,3.66211 l 0,0.99609 z m -1.78711,-1.40625 q -0.01,-1.44531 -0.73242,-2.23633 -0.71289,-0.79101 -2.17774,-0.79101 -1.4746,0 -2.35351,0.86914 -0.86914,0.86914 -0.98633,2.1582 l 6.25,0 z"
       id="path4905"
       inkscape:connector-curvature="0"
       style="fill:#779fc0;fill-opacity:0.63921569" />
    <path
       d="m 617.74228,149.43312 -12.79297,0 0,-1.17187 12.79297,0 0,1.17187 z"
       id="path4907"
       inkscape:connector-curvature="0"
       style="fill:#779fc0;fill-opacity:0.63921569" />
    <path
       d="m 625.19345,146.40578 q -0.51758,0.13672 -1.13281,0.22461 -0.60547,0.0879 -1.08399,0.0879 -1.66992,0 -2.53906,-0.89844 -0.86914,-0.89844 -0.86914,-2.88086 l 0,-5.80078 -1.24023,0 0,-1.54297 1.24023,0 0,-3.13477 1.83594,0 0,3.13477 3.78906,0 0,1.54297 -3.78906,0 0,4.9707 q 0,0.85938 0.0391,1.34766 0.0391,0.47851 0.27344,0.89844 0.21484,0.39062 0.58594,0.57617 0.38086,0.17578 1.15234,0.17578 0.44922,0 0.9375,-0.12695 0.48828,-0.13672 0.70312,-0.22461 l 0.0977,0 0,1.65039 z"
       id="path4909"
       inkscape:connector-curvature="0"
       style="fill:#779fc0;fill-opacity:0.63921569" />
    <path
       d="m 636.54111,146.50343 -1.83594,0 0,-6.21093 q 0,-0.75196 -0.0879,-1.40625 -0.0879,-0.66407 -0.32227,-1.03516 -0.24414,-0.41016 -0.70312,-0.60547 -0.45899,-0.20508 -1.19141,-0.20508 -0.75195,0 -1.57226,0.3711 -0.82032,0.37109 -1.57227,0.94726 l 0,8.14453 -1.83594,0 0,-15.19531 1.83594,0 0,5.49805 q 0.85938,-0.71289 1.77734,-1.11328 0.91797,-0.40039 1.88477,-0.40039 1.76758,0 2.69531,1.06445 0.92774,1.06445 0.92774,3.06641 l 0,7.08007 z"
       id="path4911"
       inkscape:connector-curvature="0"
       style="fill:#779fc0;fill-opacity:0.63921569" />
    <path
       d="m 649.20712,141.23976 -8.03711,0 q 0,1.00586 0.30274,1.75781 0.30273,0.74219 0.83008,1.22071 0.50781,0.46875 1.20117,0.70312 0.70312,0.23438 1.54297,0.23438 1.11328,0 2.23632,-0.43946 1.13282,-0.44921 1.61133,-0.8789 l 0.0977,0 0,2.00195 q -0.92774,0.39063 -1.89453,0.6543 -0.9668,0.26367 -2.03125,0.26367 -2.71485,0 -4.23828,-1.46484 -1.52344,-1.47461 -1.52344,-4.17969 0,-2.67578 1.45508,-4.24805 1.46484,-1.57226 3.84765,-1.57226 2.20703,0 3.39844,1.28906 1.20117,1.28906 1.20117,3.66211 l 0,0.99609 z m -1.78711,-1.40625 q -0.01,-1.44531 -0.73242,-2.23633 -0.71289,-0.79101 -2.17773,-0.79101 -1.47461,0 -2.35352,0.86914 -0.86914,0.86914 -0.98633,2.1582 l 6.25,0 z"
       id="path4913"
       inkscape:connector-curvature="0"
       style="fill:#779fc0;fill-opacity:0.63921569" />
    <path
       d="m 662.93759,149.43312 -12.79297,0 0,-1.17187 12.79297,0 0,1.17187 z"
       id="path4915"
       inkscape:connector-curvature="0"
       style="fill:#779fc0;fill-opacity:0.63921569" />
    <path
       d="m 674.32431,140.9175 q 0,1.32812 -0.38086,2.43164 -0.38086,1.09375 -1.07422,1.85547 -0.64453,0.72265 -1.52344,1.12304 -0.86914,0.39063 -1.8457,0.39063 -0.84961,0 -1.54297,-0.18555 -0.68359,-0.18555 -1.39648,-0.57617 l 0,4.57031 -1.83594,0 0,-14.93164 1.83594,0 0,1.14258 q 0.73242,-0.61524 1.64062,-1.02539 0.91797,-0.41992 1.95313,-0.41992 1.97265,0 3.0664,1.49414 1.10352,1.48437 1.10352,4.13086 z m -1.89453,0.0488 q 0,-1.97265 -0.67383,-2.94921 -0.67383,-0.97657 -2.07031,-0.97657 -0.79102,0 -1.5918,0.3418 -0.80078,0.3418 -1.5332,0.89844 l 0,6.18164 q 0.78125,0.35156 1.33789,0.47851 0.56641,0.12696 1.2793,0.12696 1.5332,0 2.39257,-1.03516 0.85938,-1.03516 0.85938,-3.06641 z"
       id="path4917"
       inkscape:connector-curvature="0"
       style="fill:#779fc0;fill-opacity:0.63921569" />
    <path
       d="m 683.99228,137.59718 -0.0977,0 q -0.41015,-0.0977 -0.80078,-0.13672 -0.38086,-0.0488 -0.9082,-0.0488 -0.84961,0 -1.64063,0.38086 -0.79101,0.37109 -1.52343,0.96679 l 0,7.74414 -1.83594,0 0,-10.9082 1.83594,0 0,1.61133 q 1.09375,-0.87891 1.92382,-1.24024 0.83985,-0.37109 1.70899,-0.37109 0.47851,0 0.69336,0.0293 0.21484,0.0195 0.64453,0.0879 l 0,1.88476 z"
       id="path4919"
       inkscape:connector-curvature="0"
       style="fill:#779fc0;fill-opacity:0.63921569" />
    <path
       d="m 695.0372,141.05421 q 0,2.66602 -1.36719,4.20899 -1.36718,1.54297 -3.66211,1.54297 -2.31445,0 -3.68164,-1.54297 -1.35742,-1.54297 -1.35742,-4.20899 0,-2.66601 1.35742,-4.20898 1.36719,-1.55273 3.68164,-1.55273 2.29493,0 3.66211,1.55273 1.36719,1.54297 1.36719,4.20898 z m -1.89453,0 q 0,-2.11914 -0.83008,-3.14453 -0.83008,-1.03515 -2.30469,-1.03515 -1.49414,0 -2.32421,1.03515 -0.82032,1.02539 -0.82032,3.14453 0,2.05079 0.83008,3.11524 0.83008,1.05469 2.31445,1.05469 1.46485,0 2.29493,-1.04493 0.83984,-1.05468 0.83984,-3.125 z"
       id="path4921"
       inkscape:connector-curvature="0"
       style="fill:#779fc0;fill-opacity:0.63921569" />
    <path
       d="m 707.48837,140.96632 q 0,1.36719 -0.39062,2.46094 -0.38086,1.09375 -1.03516,1.83594 -0.69336,0.77148 -1.52344,1.16211 -0.83007,0.38086 -1.82617,0.38086 -0.92773,0 -1.62109,-0.22461 -0.69336,-0.21485 -1.36719,-0.58594 l -0.11719,0.50781 -1.71875,0 0,-15.19531 1.83594,0 0,5.42969 q 0.77149,-0.63477 1.64063,-1.03516 0.86914,-0.41015 1.95312,-0.41015 1.93359,0 3.04688,1.48437 1.12304,1.48438 1.12304,4.18945 z m -1.89453,0.0488 q 0,-1.95312 -0.64453,-2.95898 -0.64453,-1.01563 -2.08008,-1.01563 -0.80078,0 -1.62109,0.35157 -0.82031,0.34179 -1.52344,0.88867 l 0,6.25 q 0.78125,0.35156 1.33789,0.48828 0.56641,0.13672 1.2793,0.13672 1.52344,0 2.38281,-0.9961 0.86914,-1.00586 0.86914,-3.14453 z"
       id="path4923"
       inkscape:connector-curvature="0"
       style="fill:#779fc0;fill-opacity:0.63921569" />
    <path
       d="m 712.20517,146.50343 -1.83594,0 0,-15.19531 1.83594,0 0,15.19531 z"
       id="path4925"
       inkscape:connector-curvature="0"
       style="fill:#779fc0;fill-opacity:0.63921569" />
    <path
       d="m 724.91025,141.23976 -8.03711,0 q 0,1.00586 0.30273,1.75781 0.30274,0.74219 0.83008,1.22071 0.50781,0.46875 1.20117,0.70312 0.70313,0.23438 1.54297,0.23438 1.11328,0 2.23633,-0.43946 1.13281,-0.44921 1.61133,-0.8789 l 0.0976,0 0,2.00195 q -0.92773,0.39063 -1.89453,0.6543 -0.96679,0.26367 -2.03125,0.26367 -2.71484,0 -4.23828,-1.46484 -1.52344,-1.47461 -1.52344,-4.17969 0,-2.67578 1.45508,-4.24805 1.46485,-1.57226 3.84766,-1.57226 2.20703,0 3.39844,1.28906 1.20117,1.28906 1.20117,3.66211 l 0,0.99609 z m -1.78711,-1.40625 q -0.01,-1.44531 -0.73242,-2.23633 -0.71289,-0.79101 -2.17774,-0.79101 -1.47461,0 -2.35351,0.86914 -0.86914,0.86914 -0.98633,2.1582 l 6.25,0 z"
       id="path4927"
       inkscape:connector-curvature="0"
       style="fill:#779fc0;fill-opacity:0.63921569" />
    <path
       d="m 743.61142,146.50343 -1.83594,0 0,-6.21093 q 0,-0.70313 -0.0684,-1.35743 -0.0586,-0.65429 -0.26367,-1.04492 -0.22461,-0.41992 -0.64453,-0.63476 -0.41992,-0.21485 -1.21094,-0.21485 -0.77148,0 -1.54297,0.39063 -0.77148,0.38086 -1.54297,0.97656 0.0293,0.22461 0.0488,0.52734 0.0195,0.29297 0.0195,0.58594 l 0,6.98242 -1.83593,0 0,-6.21093 q 0,-0.72266 -0.0684,-1.36719 -0.0586,-0.6543 -0.26367,-1.04492 -0.22461,-0.41993 -0.64454,-0.625 -0.41992,-0.21485 -1.21093,-0.21485 -0.75196,0 -1.51368,0.3711 -0.75195,0.37109 -1.5039,0.94726 l 0,8.14453 -1.83594,0 0,-10.9082 1.83594,0 0,1.21094 q 0.85937,-0.71289 1.70898,-1.11328 0.85938,-0.40039 1.82617,-0.40039 1.11329,0 1.88477,0.46875 0.78125,0.46875 1.16211,1.29882 1.11328,-0.9375 2.03125,-1.34765 0.91797,-0.41992 1.96289,-0.41992 1.79688,0 2.64648,1.09375 0.85938,1.08398 0.85938,3.03711 l 0,7.08007 z"
       id="path4929"
       inkscape:connector-curvature="0"
       style="fill:#779fc0;fill-opacity:0.63921569" />
    <path
       d="m 752.98642,150.52687 -2.23633,0 q -1.72851,-1.98242 -2.68555,-4.32617 -0.95703,-2.34375 -0.95703,-5.2832 0,-2.93946 0.95703,-5.28321 0.95704,-2.34375 2.68555,-4.32617 l 2.23633,0 0,0.0977 q -0.79102,0.71289 -1.51367,1.65039 -0.71289,0.92773 -1.32813,2.16797 -0.58593,1.20117 -0.95703,2.64648 -0.36133,1.44531 -0.36133,3.04688 0,1.66992 0.35157,3.05664 0.36132,1.38672 0.96679,2.63672 0.58594,1.20117 1.33789,2.16796 0.75196,0.97657 1.50391,1.65039 l 0,0.0977 z"
       id="path4931"
       inkscape:connector-curvature="0"
       style="fill:#779fc0;fill-opacity:0.63921569" />
    <path
       d="m 761.75595,140.9175 q 0,2.93945 -0.95703,5.2832 -0.95703,2.34375 -2.68555,4.32617 l -2.23633,0 0,-0.0977 q 0.75196,-0.67382 1.50391,-1.65039 0.76172,-0.96679 1.33789,-2.16796 0.60547,-1.25 0.95703,-2.63672 0.36133,-1.38672 0.36133,-3.05664 0,-1.60157 -0.36133,-3.04688 -0.36133,-1.44531 -0.95703,-2.64648 -0.61523,-1.24024 -1.33789,-2.16797 -0.71289,-0.9375 -1.50391,-1.65039 l 0,-0.0977 2.23633,0 q 1.72852,1.98242 2.68555,4.32617 0.95703,2.34375 0.95703,5.28321 z"
       id="path4933"
       inkscape:connector-curvature="0"
       style="fill:#779fc0;fill-opacity:0.63921569" />
    <path
       d="m 498.86533,167.62648 2.5,-7.08984 3.61328,0 -6.09375,14.99023 -3.8086,0 1.73828,-4.10156 -4.26757,-10.88867 3.6914,0 2.62696,7.08984 z"
       style="font-style:normal;font-variant:normal;font-weight:bold;font-stretch:normal;font-size:20px;line-height:125%;font-family:sans-serif;-inkscape-font-specification:'sans-serif, Bold';text-align:start;writing-mode:lr-tb;text-anchor:start;fill:#779fc0;fill-opacity:0.63921569"
       id="path4935"
       inkscape:connector-curvature="0" />
    <path
       d="m 510.43759,171.50343 -3.51562,0 0,-10.96679 3.51562,0 0,10.96679 z m 0.0977,-12.52929 -3.71094,0 0,-2.66602 3.71094,0 0,2.66602 z"
       style="font-style:normal;font-variant:normal;font-weight:bold;font-stretch:normal;font-size:20px;line-height:125%;font-family:sans-serif;-inkscape-font-specification:'sans-serif, Bold';text-align:start;writing-mode:lr-tb;text-anchor:start;fill:#779fc0;fill-opacity:0.63921569"
       id="path4937"
       inkscape:connector-curvature="0" />
    <path
       d="m 524.55869,166.66945 -8.04688,0 q 0.0781,1.28906 0.97656,1.97266 0.90821,0.68359 2.66602,0.68359 1.11328,0 2.1582,-0.40039 1.04492,-0.40039 1.65039,-0.85938 l 0.39063,0 0,2.82227 q -1.19141,0.47851 -2.2461,0.69336 -1.05468,0.21484 -2.33398,0.21484 -3.30078,0 -5.05859,-1.48437 -1.75782,-1.48438 -1.75782,-4.22852 0,-2.71484 1.66016,-4.29687 1.66992,-1.5918 4.57031,-1.5918 2.67578,0 4.02344,1.35742 1.34766,1.34766 1.34766,3.88672 l 0,1.23047 z m -3.4961,-2.06055 q -0.0293,-1.10351 -0.54687,-1.66015 -0.51758,-0.55664 -1.61133,-0.55664 -1.01563,0 -1.66992,0.52734 -0.6543,0.52734 -0.73243,1.68945 l 4.56055,0 z"
       style="font-style:normal;font-variant:normal;font-weight:bold;font-stretch:normal;font-size:20px;line-height:125%;font-family:sans-serif;-inkscape-font-specification:'sans-serif, Bold';text-align:start;writing-mode:lr-tb;text-anchor:start;fill:#779fc0;fill-opacity:0.63921569"
       id="path4939"
       inkscape:connector-curvature="0" />
    <path
       d="m 530.55478,171.50343 -3.51563,0 0,-15.19531 3.51563,0 0,15.19531 z"
       style="font-style:normal;font-variant:normal;font-weight:bold;font-stretch:normal;font-size:20px;line-height:125%;font-family:sans-serif;-inkscape-font-specification:'sans-serif, Bold';text-align:start;writing-mode:lr-tb;text-anchor:start;fill:#779fc0;fill-opacity:0.63921569"
       id="path4941"
       inkscape:connector-curvature="0" />
    <path
       d="m 544.53915,171.50343 -3.51562,0 0,-1.14257 q -0.9082,0.74218 -1.69922,1.09375 -0.79102,0.35156 -1.82617,0.35156 -2.00195,0 -3.20313,-1.54297 -1.20117,-1.54297 -1.20117,-4.16016 0,-1.39648 0.40039,-2.4707 0.41016,-1.08398 1.11328,-1.85547 0.66407,-0.73242 1.61133,-1.13281 0.94727,-0.41016 1.89453,-0.41016 0.98633,0 1.61133,0.21485 0.63477,0.20507 1.29883,0.52734 l 0,-4.66797 3.51562,0 0,15.19531 z m -3.51562,-3.02734 0,-5.38086 q -0.37109,-0.15625 -0.78125,-0.22461 -0.41016,-0.0684 -0.75195,-0.0684 -1.38672,0 -2.08008,0.86914 -0.69336,0.85938 -0.69336,2.39258 0,1.61133 0.55664,2.34375 0.55664,0.72266 1.78711,0.72266 0.47851,0 1.01562,-0.17578 0.53711,-0.18555 0.94727,-0.47852 z"
       style="font-style:normal;font-variant:normal;font-weight:bold;font-stretch:normal;font-size:20px;line-height:125%;font-family:sans-serif;-inkscape-font-specification:'sans-serif, Bold';text-align:start;writing-mode:lr-tb;text-anchor:start;fill:#779fc0;fill-opacity:0.63921569"
       id="path4943"
       inkscape:connector-curvature="0" />
    <path
       d="m 563.10361,170.81984 q -0.91797,0.43945 -1.74805,0.68359 -0.82031,0.24414 -1.74805,0.24414 -1.18164,0 -2.16797,-0.34179 -0.98632,-0.35157 -1.68945,-1.05469 -0.71289,-0.70313 -1.10351,-1.77734 -0.39063,-1.07422 -0.39063,-2.50977 0,-2.67578 1.46484,-4.19922 1.47461,-1.52344 3.88672,-1.52344 0.9375,0 1.83594,0.26368 0.9082,0.26367 1.66016,0.64453 l 0,2.04101 -0.0977,0 q -0.83984,-0.65429 -1.73828,-1.00586 -0.88867,-0.35156 -1.73828,-0.35156 -1.5625,0 -2.4707,1.05469 -0.89844,1.04492 -0.89844,3.07617 0,1.97266 0.8789,3.03711 0.88868,1.05469 2.49024,1.05469 0.55664,0 1.13281,-0.14649 0.57617,-0.14648 1.03516,-0.38086 0.40039,-0.20507 0.75195,-0.42968 0.35156,-0.23438 0.55664,-0.40039 l 0.0977,0 0,2.02148 z"
       id="path4945"
       inkscape:connector-curvature="0"
       style="fill:#779fc0;fill-opacity:0.63921569" />
    <path
       d="m 574.58798,171.50343 -1.83594,0 0,-6.21093 q 0,-0.75196 -0.0879,-1.40625 -0.0879,-0.66407 -0.32226,-1.03516 -0.24414,-0.41016 -0.70313,-0.60547 -0.45898,-0.20508 -1.1914,-0.20508 -0.75196,0 -1.57227,0.3711 -0.82031,0.37109 -1.57226,0.94726 l 0,8.14453 -1.83594,0 0,-15.19531 1.83594,0 0,5.49805 q 0.85937,-0.71289 1.77734,-1.11328 0.91797,-0.40039 1.88477,-0.40039 1.76757,0 2.69531,1.06445 0.92773,1.06445 0.92773,3.06641 l 0,7.08007 z"
       id="path4947"
       inkscape:connector-curvature="0"
       style="fill:#779fc0;fill-opacity:0.63921569" />
    <path
       d="m 586.5997,171.50343 -1.82617,0 0,-1.16211 q -0.24414,0.16602 -0.66406,0.46875 -0.41016,0.29297 -0.80078,0.46875 -0.45899,0.22461 -1.05469,0.3711 -0.59571,0.15625 -1.39649,0.15625 -1.47461,0 -2.5,-0.97656 -1.02539,-0.97657 -1.02539,-2.49024 0,-1.24023 0.52735,-2.00195 0.53711,-0.77149 1.52343,-1.21094 0.9961,-0.43945 2.39258,-0.5957 1.39649,-0.15625 2.99805,-0.23438 l 0,-0.2832 q 0,-0.625 -0.22461,-1.03516 -0.21484,-0.41015 -0.625,-0.64453 -0.39063,-0.22461 -0.9375,-0.30273 -0.54688,-0.0781 -1.14258,-0.0781 -0.72265,0 -1.61133,0.19531 -0.88867,0.18555 -1.83593,0.54688 l -0.0977,0 0,-1.86523 q 0.53711,-0.14649 1.55273,-0.32227 1.01563,-0.17578 2.00196,-0.17578 1.15234,0 2.00195,0.19531 0.85938,0.18555 1.48438,0.64453 0.61523,0.44922 0.9375,1.16211 0.32226,0.71289 0.32226,1.76758 l 0,7.40234 z m -1.82617,-2.68554 0,-3.03711 q -0.83984,0.0488 -1.98242,0.14648 -1.13282,0.0977 -1.79688,0.2832 -0.79101,0.22461 -1.27929,0.70313 -0.48829,0.46875 -0.48829,1.29883 0,0.9375 0.56641,1.41601 0.56641,0.46875 1.72852,0.46875 0.96679,0 1.76757,-0.37109 0.80079,-0.38086 1.48438,-0.9082 z"
       id="path4949"
       inkscape:connector-curvature="0"
       style="fill:#779fc0;fill-opacity:0.63921569" />
    <path
       d="m 599.27548,171.50343 -1.83594,0 0,-6.21093 q 0,-0.75196 -0.0879,-1.40625 -0.0879,-0.66407 -0.32226,-1.03516 -0.24414,-0.41016 -0.70313,-0.60547 -0.45898,-0.20508 -1.1914,-0.20508 -0.75196,0 -1.57227,0.3711 -0.82031,0.37109 -1.57226,0.94726 l 0,8.14453 -1.83594,0 0,-10.9082 1.83594,0 0,1.21094 q 0.85937,-0.71289 1.77734,-1.11328 0.91797,-0.40039 1.88477,-0.40039 1.76757,0 2.69531,1.06445 0.92773,1.06445 0.92773,3.06641 l 0,7.08007 z"
       id="path4951"
       inkscape:connector-curvature="0"
       style="fill:#779fc0;fill-opacity:0.63921569" />
    <path
       d="m 611.65829,170.2632 q 0,2.77344 -1.25976,4.07226 -1.25977,1.29883 -3.87695,1.29883 -0.86914,0 -1.69922,-0.12695 -0.82032,-0.11719 -1.6211,-0.3418 l 0,-1.875 0.0977,0 q 0.44922,0.17578 1.42578,0.42969 0.97656,0.26367 1.95313,0.26367 0.9375,0 1.55273,-0.22461 0.61523,-0.22461 0.95703,-0.625 0.3418,-0.38086 0.48828,-0.91797 0.14649,-0.53711 0.14649,-1.20117 l 0,-0.99609 q -0.83008,0.66406 -1.5918,0.99609 -0.75195,0.32227 -1.92383,0.32227 -1.95312,0 -3.10547,-1.40625 -1.14257,-1.41602 -1.14257,-3.98438 0,-1.40625 0.39062,-2.42187 0.40039,-1.02539 1.08398,-1.76758 0.63477,-0.69336 1.54297,-1.07422 0.90821,-0.39062 1.80664,-0.39062 0.94727,0 1.58204,0.19531 0.64453,0.18555 1.35742,0.57617 l 0.11718,-0.46875 1.71875,0 0,9.66797 z m -1.83593,-1.75781 0,-5.94727 q -0.73242,-0.33203 -1.36719,-0.46875 -0.625,-0.14648 -1.25,-0.14648 -1.51367,0 -2.38281,1.01562 -0.86914,1.01563 -0.86914,2.94922 0,1.83594 0.64453,2.7832 0.64453,0.94727 2.13867,0.94727 0.80078,0 1.60156,-0.30274 0.81055,-0.3125 1.48438,-0.83007 z"
       id="path4953"
       inkscape:connector-curvature="0"
       style="fill:#779fc0;fill-opacity:0.63921569" />
    <path
       d="m 624.40244,166.23976 -8.03711,0 q 0,1.00586 0.30273,1.75781 0.30273,0.74219 0.83008,1.22071 0.50781,0.46875 1.20117,0.70312 0.70313,0.23438 1.54297,0.23438 1.11328,0 2.23633,-0.43946 1.13281,-0.44921 1.61133,-0.8789 l 0.0977,0 0,2.00195 q -0.92773,0.39063 -1.89453,0.6543 -0.9668,0.26367 -2.03125,0.26367 -2.71484,0 -4.23828,-1.46484 -1.52344,-1.47461 -1.52344,-4.17969 0,-2.67578 1.45508,-4.24805 1.46484,-1.57226 3.84766,-1.57226 2.20703,0 3.39843,1.28906 1.20118,1.28906 1.20118,3.66211 l 0,0.99609 z m -1.78711,-1.40625 q -0.01,-1.44531 -0.73243,-2.23633 -0.71289,-0.79101 -2.17773,-0.79101 -1.47461,0 -2.35352,0.86914 -0.86914,0.86914 -0.98632,2.1582 l 6.25,0 z"
       id="path4955"
       inkscape:connector-curvature="0"
       style="fill:#779fc0;fill-opacity:0.63921569" />
    <path
       d="m 638.1329,174.43312 -12.79296,0 0,-1.17187 12.79296,0 0,1.17187 z"
       id="path4957"
       inkscape:connector-curvature="0"
       style="fill:#779fc0;fill-opacity:0.63921569" />
    <path
       d="m 645.58408,171.40578 q -0.51758,0.13672 -1.13282,0.22461 -0.60547,0.0879 -1.08398,0.0879 -1.66992,0 -2.53906,-0.89844 -0.86914,-0.89844 -0.86914,-2.88086 l 0,-5.80078 -1.24024,0 0,-1.54297 1.24024,0 0,-3.13477 1.83593,0 0,3.13477 3.78907,0 0,1.54297 -3.78907,0 0,4.9707 q 0,0.85938 0.0391,1.34766 0.0391,0.47851 0.27343,0.89844 0.21485,0.39062 0.58594,0.57617 0.38086,0.17578 1.15234,0.17578 0.44922,0 0.9375,-0.12695 0.48829,-0.13672 0.70313,-0.22461 l 0.0977,0 0,1.65039 z"
       id="path4959"
       inkscape:connector-curvature="0"
       style="fill:#779fc0;fill-opacity:0.63921569" />
    <path
       d="m 656.93173,171.50343 -1.83594,0 0,-6.21093 q 0,-0.75196 -0.0879,-1.40625 -0.0879,-0.66407 -0.32226,-1.03516 -0.24414,-0.41016 -0.70313,-0.60547 -0.45898,-0.20508 -1.1914,-0.20508 -0.75196,0 -1.57227,0.3711 -0.82031,0.37109 -1.57226,0.94726 l 0,8.14453 -1.83594,0 0,-15.19531 1.83594,0 0,5.49805 q 0.85937,-0.71289 1.77734,-1.11328 0.91797,-0.40039 1.88477,-0.40039 1.76757,0 2.69531,1.06445 0.92773,1.06445 0.92773,3.06641 l 0,7.08007 z"
       id="path4961"
       inkscape:connector-curvature="0"
       style="fill:#779fc0;fill-opacity:0.63921569" />
    <path
       d="m 669.59775,166.23976 -8.03711,0 q 0,1.00586 0.30273,1.75781 0.30274,0.74219 0.83008,1.22071 0.50781,0.46875 1.20117,0.70312 0.70313,0.23438 1.54297,0.23438 1.11328,0 2.23633,-0.43946 1.13281,-0.44921 1.61133,-0.8789 l 0.0976,0 0,2.00195 q -0.92773,0.39063 -1.89453,0.6543 -0.96679,0.26367 -2.03125,0.26367 -2.71484,0 -4.23828,-1.46484 -1.52344,-1.47461 -1.52344,-4.17969 0,-2.67578 1.45508,-4.24805 1.46485,-1.57226 3.84766,-1.57226 2.20703,0 3.39844,1.28906 1.20117,1.28906 1.20117,3.66211 l 0,0.99609 z m -1.78711,-1.40625 q -0.01,-1.44531 -0.73242,-2.23633 -0.71289,-0.79101 -2.17774,-0.79101 -1.47461,0 -2.35351,0.86914 -0.86914,0.86914 -0.98633,2.1582 l 6.25,0 z"
       id="path4963"
       inkscape:connector-curvature="0"
       style="fill:#779fc0;fill-opacity:0.63921569" />
    <path
       d="m 683.32822,174.43312 -12.79297,0 0,-1.17187 12.79297,0 0,1.17187 z"
       id="path4965"
       inkscape:connector-curvature="0"
       style="fill:#779fc0;fill-opacity:0.63921569" />
    <path
       d="m 698.83603,160.59523 -2.8418,10.9082 -1.69922,0 -2.80273,-8.4082 -2.7832,8.4082 -1.68946,0 -2.87109,-10.9082 1.91406,0 2.00195,8.44727 2.72461,-8.44727 1.51368,0 2.79296,8.44727 1.89454,-8.44727 1.8457,0 z"
       id="path4967"
       inkscape:connector-curvature="0"
       style="fill:#779fc0;fill-opacity:0.63921569" />
    <path
       d="m 710.77939,166.05421 q 0,2.66602 -1.36719,4.20899 -1.36719,1.54297 -3.66211,1.54297 -2.31445,0 -3.68164,-1.54297 -1.35742,-1.54297 -1.35742,-4.20899 0,-2.66601 1.35742,-4.20898 1.36719,-1.55273 3.68164,-1.55273 2.29492,0 3.66211,1.55273 1.36719,1.54297 1.36719,4.20898 z m -1.89453,0 q 0,-2.11914 -0.83008,-3.14453 -0.83008,-1.03515 -2.30469,-1.03515 -1.49414,0 -2.32422,1.03515 -0.82031,1.02539 -0.82031,3.14453 0,2.05079 0.83008,3.11524 0.83008,1.05469 2.31445,1.05469 1.46485,0 2.29492,-1.04493 0.83985,-1.05468 0.83985,-3.125 z"
       id="path4969"
       inkscape:connector-curvature="0"
       style="fill:#779fc0;fill-opacity:0.63921569" />
    <path
       d="m 720.43759,162.59718 -0.0977,0 q -0.41016,-0.0977 -0.80079,-0.13672 -0.38086,-0.0488 -0.9082,-0.0488 -0.84961,0 -1.64062,0.38086 -0.79102,0.37109 -1.52344,0.96679 l 0,7.74414 -1.83594,0 0,-10.9082 1.83594,0 0,1.61133 q 1.09375,-0.87891 1.92383,-1.24024 0.83984,-0.37109 1.70898,-0.37109 0.47852,0 0.69336,0.0293 0.21484,0.0195 0.64453,0.0879 l 0,1.88476 z"
       id="path4971"
       inkscape:connector-curvature="0"
       style="fill:#779fc0;fill-opacity:0.63921569" />
    <path
       d="m 724.04111,171.50343 -1.83594,0 0,-15.19531 1.83594,0 0,15.19531 z"
       id="path4973"
       inkscape:connector-curvature="0"
       style="fill:#779fc0;fill-opacity:0.63921569" />
    <path
       d="m 736.46298,171.50343 -1.83594,0 0,-1.14257 q -0.79101,0.68359 -1.65039,1.06445 -0.85937,0.38086 -1.86523,0.38086 -1.95313,0 -3.10547,-1.50391 -1.14258,-1.5039 -1.14258,-4.16992 0,-1.38672 0.39063,-2.4707 0.40039,-1.08399 1.07422,-1.84571 0.66406,-0.74218 1.54297,-1.13281 0.88867,-0.39062 1.83593,-0.39062 0.85938,0 1.52344,0.18554 0.66406,0.17578 1.39648,0.55664 l 0,-4.72656 1.83594,0 0,15.19531 z m -1.83594,-2.68554 0,-6.25977 q -0.74218,-0.33203 -1.32812,-0.45898 -0.58594,-0.12696 -1.2793,-0.12696 -1.54297,0 -2.40234,1.07422 -0.85938,1.07422 -0.85938,3.04688 0,1.94336 0.66407,2.95898 0.66406,1.00586 2.1289,1.00586 0.78125,0 1.58203,-0.3418 0.80079,-0.35156 1.49414,-0.89843 z"
       id="path4975"
       inkscape:connector-curvature="0"
       style="fill:#779fc0;fill-opacity:0.63921569" />
    <path
       d="m 745.91611,175.52687 -2.23633,0 q -1.72852,-1.98242 -2.68555,-4.32617 -0.95703,-2.34375 -0.95703,-5.2832 0,-2.93946 0.95703,-5.28321 0.95703,-2.34375 2.68555,-4.32617 l 2.23633,0 0,0.0977 q -0.79102,0.71289 -1.51367,1.65039 -0.7129,0.92773 -1.32813,2.16797 -0.58594,1.20117 -0.95703,2.64648 -0.36133,1.44531 -0.36133,3.04688 0,1.66992 0.35156,3.05664 0.36133,1.38672 0.9668,2.63672 0.58594,1.20117 1.33789,2.16796 0.75195,0.97657 1.50391,1.65039 l 0,0.0977 z"
       id="path4977"
       inkscape:connector-curvature="0"
       style="fill:#779fc0;fill-opacity:0.63921569" />
    <path
       d="m 754.68564,165.9175 q 0,2.93945 -0.95703,5.2832 -0.95703,2.34375 -2.68555,4.32617 l -2.23633,0 0,-0.0977 q 0.75196,-0.67382 1.50391,-1.65039 0.76172,-0.96679 1.33789,-2.16796 0.60547,-1.25 0.95703,-2.63672 0.36133,-1.38672 0.36133,-3.05664 0,-1.60157 -0.36133,-3.04688 -0.36133,-1.44531 -0.95703,-2.64648 -0.61524,-1.24024 -1.33789,-2.16797 -0.71289,-0.9375 -1.50391,-1.65039 l 0,-0.0977 2.23633,0 q 1.72852,1.98242 2.68555,4.32617 0.95703,2.34375 0.95703,5.28321 z"
       id="path4979"
       inkscape:connector-curvature="0"
       style="fill:#779fc0;fill-opacity:0.63921569" />
  </g>
</svg>
