<svg height="300.86469pt" viewBox="0 0 266.73053 300.86469" width="266.73053pt" xmlns="http://www.w3.org/2000/svg"><path d="m0 0h266.73053v300.86468h-266.73053z" fill="#041a25" fill-opacity=".76862745" fill-rule="evenodd" opacity=".97000002"/><g transform="matrix(.36085638 0 0 .40138567 12.011989 16.497742)"><path d="m265.53 0h8.79l.05.41c.61 4.08.81 8.21.5 12.33-2.75.16-5.5.43-8.2 1.01-1.96.37-3.91.83-5.84 1.32-2.25-3.58-1.94-7.78-1.51-11.79-.38-.28-1.15-.85-1.53-1.13 2.54-.86 5.14-1.53 7.74-2.15z" fill="#96c40b"/><path d="m425.05 112.28c3.92-1.36 6.42 2.87 8.18 5.65-2.5 1.49-5.76 3.65-8.51 1.41-2.72-1.56-2.94-6.03.33-7.06z" fill="#96c40b"/><path d="m274.32 0h6.05l.43.4c-1.92 1.35-4.54 1.44-6.43.01z" fill="#a4c74a"/><path d="m280.37 0h128.26c-6.26 1.8-12.83.49-19.23 1.1-19.97-.04-39.95-.33-59.92-.01-12.81-.24-25.63-.13-38.44-.32-2.59-.08-5.18.18-7.72.67-.85-.33-1.69-.67-2.52-1.04z" fill="#5e7e50"/><path d="m408.63 0h6.42c.52.2 1.57.59 2.09.79 6.76.23 12.95 3.74 18.34 7.57-6.07 1.4-12.36.6-18.48 1.7-17.81 0-35.39 3.2-53.02 5.29-4.06.85-7.86 2.56-11.74 3.98.35.34 1.06 1.04 1.41 1.38-3.78 1.22-7.4 2.96-11.33 3.68-9.22 1.82-17.59 6.24-26.35 9.44-2.58-4.78-5.59-9.3-8.78-13.68 5.74 1 10.79-2.62 16.17-3.95 5.67-2.27 12.09-2.2 17.38-5.43 6.17-3.45 13.37-3.64 20.14-5.02 8.18-2.11 16.72-1.8 25.05-2.95 1.24-.36 2.34-1.08 3.47-1.7 6.4-.61 12.97.7 19.23-1.1z" fill="#426e19"/><path d="m415.05 0h1.91l.18.79c-.52-.2-1.57-.59-2.09-.79z" fill="#658045"/><path d="m274.37.41c1.89 1.43 4.51 1.34 6.43-.01.83.37 1.67.71 2.52 1.04 2.63 1.11 5.24 2.32 7.7 3.81-1.58 4.61-.4 9.45-.81 14.19-7.05-4.29-15.34-6.03-23.54-5.69 2.7-.58 5.45-.85 8.2-1.01.31-4.12.11-8.25-.5-12.33z" fill="#8bbb10"/><path d="m283.32 1.44c2.54-.49 5.13-.75 7.72-.67 12.81.19 25.63.08 38.44.32-2.04 1-4.19 1.7-6.42 2.11-5.97 1.17-11.7 3.35-17.71 4.39-2.66.44-5.24 1.26-7.69 2.4-2.08-1.77-4.32-3.32-6.64-4.74-2.46-1.49-5.07-2.7-7.7-3.81z" fill="#23501f"/><path d="m329.48 1.09c19.97-.32 39.95-.03 59.92.01-1.13.62-2.23 1.34-3.47 1.7-8.33 1.15-16.87.84-25.05 2.95-6.77 1.38-13.97 1.57-20.14 5.02-5.29 3.23-11.71 3.16-17.38 5.43-5.38 1.33-10.43 4.95-16.17 3.95-2.79-3.73-6.14-6.99-9.53-10.16 2.45-1.14 5.03-1.96 7.69-2.4 6.01-1.04 11.74-3.22 17.71-4.39 2.23-.41 4.38-1.11 6.42-2.11z" fill="#325e1d"/><path d="m233.83 20.76c6.2-8.1 14.25-15.13 23.96-18.61.38.28 1.15.85 1.53 1.13-.43 4.01-.74 8.21 1.51 11.79-4.08 1.03-7.91 2.87-11.46 5.11-4.49 2.71-8.35 6.3-11.88 10.15l-.32-.2c-1.05-3.15-1.98-6.34-3.34-9.37z" fill="#a3ce09"/><path d="m290.21 19.44c.41-4.74-.77-9.58.81-14.19 2.32 1.42 4.56 2.97 6.64 4.74 3.39 3.17 6.74 6.43 9.53 10.16 3.19 4.38 6.2 8.9 8.78 13.68.5.93 1.02 1.86 1.55 2.78-.73-.1-2.2-.3-2.93-.4-.78 2.82 1.11 6.14-1.11 8.48-5.7-10.02-13.4-19.13-23.27-25.25z" fill="#7bb116"/><path d="m435.48 8.36c5.23 3.82 9.75 8.55 13.56 13.78-6.29.26-12.6-.85-18.87.13-12.35 1.63-25.03.4-37.16 3.57-14.09 2.1-28.36 3.68-41.94 8.23-5.39 1.38-10.28 4.14-15.65 5.56-3.3 3.41-7.49 5.65-12.13 6.57-1.75-3.31-3.85-6.4-5.77-9.59-.53-.92-1.05-1.85-1.55-2.78 8.76-3.2 17.13-7.62 26.35-9.44 3.93-.72 7.55-2.46 11.33-3.68-.35-.34-1.06-1.04-1.41-1.38 3.88-1.42 7.68-3.13 11.74-3.98 17.63-2.09 35.21-5.29 53.02-5.29 6.12-1.1 12.41-.3 18.48-1.7z" fill="#548317"/><path d="m260.83 15.07c1.93-.49 3.88-.95 5.84-1.32 8.2-.34 16.49 1.4 23.54 5.69 9.87 6.12 17.57 15.23 23.27 25.25 1.99 3.62 4.02 7.22 6.16 10.75-1.18.15-2.46.22-3.29-.82-2.88-2.47-4.89-5.77-7.74-8.27-7.33-6.59-15.46-12.33-24.28-16.73-5.93-2.72-12.19-4.63-18.44-6.45-5.4-1.66-11.23-.91-16.52-2.99 3.55-2.24 7.38-4.08 11.46-5.11z" fill="#276930"/><path d="m237.49 30.33c3.53-3.85 7.39-7.44 11.88-10.15 5.29 2.08 11.12 1.33 16.52 2.99 6.25 1.82 12.51 3.73 18.44 6.45 8.82 4.4 16.95 10.14 24.28 16.73 2.85 2.5 4.86 5.8 7.74 8.27.83 1.04 2.11.97 3.29.82 2.73 4.35 5.24 8.83 7.79 13.28 2.98 5.72 6.52 11.11 9.55 16.8-2.92 4.94-5.74 9.95-8.63 14.91-2.88-2.43-3.72-6.22-5.31-9.46-3.66-7.8-7.8-15.39-12.44-22.66-7.83-11.22-16.37-22.29-27.71-30.19-8.92-7.15-20.26-12.08-31.88-10.95-4.35-.06-8.23 2.06-12.08 3.8-.36-.16-1.08-.48-1.44-.64z" fill="#33722c"/><path d="m218.99 44.93c4.83-8.12 9.03-16.67 14.84-24.17 1.36 3.03 2.29 6.22 3.34 9.37-3.05 3.91-6.02 7.9-8.62 12.12-2.51 4.14-4.81 8.4-7.36 12.51-.9-3.26.69-7.35-2.2-9.83z" fill="#aad314"/><path d="m393.01 25.84c12.13-3.17 24.81-1.94 37.16-3.57 6.27-.98 12.58.13 18.87-.13 2.29 3.1 4.38 6.36 6.28 9.72-5.44.35-10.88-1.36-16.28-.08-6.55 1.45-13.33-.19-19.85 1.59-8 2.11-16.34 2.08-24.51 3.1-7.3 1.42-14.49 3.44-21.6 5.6-4.39 2.32-8.95 4.32-13.89 5.12-4.56.67-8.19 3.83-12.67 4.75-2.37 2.79-6.1 2.63-9.35 3.38-2.11 1.2-3.54 3.26-5.2 4.97-3.18-4.52-6.01-9.27-8.68-14.09 4.64-.92 8.83-3.16 12.13-6.57 5.37-1.42 10.26-4.18 15.65-5.56 13.58-4.55 27.85-6.13 41.94-8.23z" fill="#669716"/><path d="m238.93 30.97c3.85-1.74 7.73-3.86 12.08-3.8 11.62-1.13 22.96 3.8 31.88 10.95 11.34 7.9 19.88 18.97 27.71 30.19 4.64 7.27 8.78 14.86 12.44 22.66 1.59 3.24 2.43 7.03 5.31 9.46-1.37 2.35-2.76 4.69-4.12 7.05-7.41-10.64-16.88-19.58-26.56-28.1-18.89-15.73-40.99-27.62-64.62-34.44-1.75-.42-3.13-1.6-4.5-2.69 2.6-4.22 5.57-8.21 8.62-12.12l.32.2c.36.16 1.08.48 1.44.64z" fill="#4f8e26"/><path d="m439.04 31.78c5.4-1.28 10.84.43 16.28.08 1.7 2.95 3.39 5.9 5.09 8.84-12.46 1.07-25.02-.59-37.43 1.15-4.12.01-8.17.5-12.04 1.91-8.65.47-17.07 2.95-25.1 6.1-8.91 2.61-17.63 6.36-25.28 11.66-.77.03-1.53.07-2.28.1-3.4 2.92-7.71 4.57-10.9 7.74-2.13 2.11-4.34 4.13-6.67 6.01-.98-1.06-2.46-1.49-3.41-2.6-2.81-3.57-4.67-7.76-7.35-11.42-.29 1.07-.53 2.14-.79 3.21-.14.34-.4 1.02-.54 1.37-.49.89-.85 1.84-1.19 2.79-2.55-4.45-5.06-8.93-7.79-13.28-2.14-3.53-4.17-7.13-6.16-10.75 2.22-2.34.33-5.66 1.11-8.48.73.1 2.2.3 2.93.4 1.92 3.19 4.02 6.28 5.77 9.59 2.67 4.82 5.5 9.57 8.68 14.09 1.66-1.71 3.09-3.77 5.2-4.97 3.25-.75 6.98-.59 9.35-3.38 4.48-.92 8.11-4.08 12.67-4.75 4.94-.8 9.5-2.8 13.89-5.12 7.11-2.16 14.3-4.18 21.6-5.6 8.17-1.02 16.51-.99 24.51-3.1 6.52-1.78 13.3-.14 19.85-1.59z" fill="#74a514"/><path d="m422.98 41.85c12.41-1.74 24.97-.08 37.43-1.15 5.33 9.17 10.54 18.4 15.89 27.55-4.34 1.26-8.79 2.02-13.17 3.07-3.33.74-6.51 2.79-10.02 2.02.42-.64 1.27-1.94 1.69-2.58 1.66-2.64 3.25-5.31 4.96-7.91 1.82-2.69 3.18-5.65 4.23-8.71-13.17-.28-26.63-1.94-39.56 1.31-2.89-4-8.12-7.06-13.06-4.97-4.66 1.58-6.51 6.89-5.86 11.42-3.68.89-7.22 2.62-11.07 2.48-.18-1.01-.35-2.03-.5-3.05-1.77.46-3.54.9-5.29 1.4-.18.06-.54.18-.72.24-.39 1.37-.69 2.76-1.01 4.15-1.26.29-2.56.48-3.73 1.04-12.08 6.35-24.31 13.67-31.91 25.39-.92-.5-1.82-1.01-2.71-1.53-1.32-1.9-2.58-3.83-3.74-5.83-2.33-4.57-5.09-8.9-7.53-13.42.95 1.11 2.43 1.54 3.41 2.6 2.33-1.88 4.54-3.9 6.67-6.01 3.19-3.17 7.5-4.82 10.9-7.74.75-.03 1.51-.07 2.28-.1 7.65-5.3 16.37-9.05 25.28-11.66 8.03-3.15 16.45-5.63 25.1-6.1 3.87-1.41 7.92-1.9 12.04-1.91z" fill="#83b30f"/><path d="m221.19 54.76c2.55-4.11 4.85-8.37 7.36-12.51 1.37 1.09 2.75 2.27 4.5 2.69 23.63 6.82 45.73 18.71 64.62 34.44 9.68 8.52 19.15 17.46 26.56 28.1-4.25 7.33-8.44 14.7-12.71 22.02-8.87-9.22-15.64-20.48-25.96-28.26-8.38-8.21-18.63-14.13-28.56-20.23-7.38-3.84-14.87-7.51-22.64-10.45-6.42-1.43-12.66-3.49-18.82-5.74 2.01-3.28 3.77-6.7 5.65-10.06z" fill="#639d1e"/><path d="m198.9 79.78c6.66-11.64 13.4-23.23 20.09-34.85 2.89 2.48 1.3 6.57 2.2 9.83-1.88 3.36-3.64 6.78-5.65 10.06-4.62 7.34-8.43 15.15-12.99 22.52-.58-2.78-1.62-5.5-3.65-7.56z" fill="#b2d926"/><g fill="#fffffe"><path d="m411.37 50.48c4.94-2.09 10.17.97 13.06 4.97 1.66 2.72 2.86 5.71 3.62 8.8-.18.27-.54.8-.71 1.06-1.48.42-2.98.76-4.46 1.12-.94-3.61-1.7-7.99-5.28-9.97-2.49-1.49-5.91.66-5.77 3.52-.03 4.92 1.62 9.96-.14 14.77-2.02 2.79-5.03 5.15-8.61 5.21-3.37.29-6.3-1.66-8.68-3.8-3.26-3.77-5.26-8.48-5.75-13.43 1.75-.5 3.52-.94 5.29-1.4.15 1.02.32 2.04.5 3.05.81 3.36 2.09 7.14 5.34 8.88 2.48 1.39 5.91-.46 6.34-3.22.35-2.73-.33-5.44-.61-8.14-.65-4.53 1.2-9.84 5.86-11.42z"/><path d="m404.99 89.82c1.91-7.81 11.09-12.67 18.66-10.26 5.35 1.86 8.74 7.69 8.08 13.27-1.58 4.41-5.19 7.62-9.39 9.48-2.93-5.1-5.81-10.23-8.81-15.29-1.47 1.69-3.35 3.48-3.05 5.96.25 4.16 3.32 7.26 5.85 10.26-1.09.95-2.16 1.92-3.33 2.76-4.88-3.8-8.46-9.84-8.01-16.18m13.1-4.17c1.62 3.24 3.52 6.35 5.61 9.32 1.16-1.53 2.94-2.86 3.14-4.92.2-3.17-2.7-6.11-5.88-5.85-1.08.21-3.1-.29-2.87 1.45z"/><path d="m433.34 103.25c1.14-.98 2.28-1.97 3.43-2.95 1.88 1.79 3.76 3.59 5.39 5.62 1.7 2.89 3.37 6.31 2.34 9.73-.96 3.35-4.01 5.41-6.85 7.06-4.11 2.34-8.21 4.71-12.21 7.23-.88-1.65-1.76-3.29-2.64-4.93.45-.42 1.35-1.25 1.8-1.66-2.53-1.18-4.89-2.74-6.63-4.96-.78-2.09-1.09-4.33-1.17-6.55 1.85-4.61 7.14-7 11.8-5.14 3.62 2.26 6.19 5.71 8.54 9.19.94-1.51 2.82-2.9 2.16-4.92-.76-3.33-3.6-5.5-5.96-7.72m-8.29 9.03c-3.27 1.03-3.05 5.5-.33 7.06 2.75 2.24 6.01.08 8.51-1.41-1.76-2.78-4.26-7.01-8.18-5.65z"/><path d="m441.37 156.96c-1.34-7.39 4.76-13.44 11.47-15.14 3.18-.04 6.59.1 9.29 2.03 4.04 2.53 6.15 7.02 7.44 11.44-1.63.52-3.24 1.03-4.86 1.55-.92-2.65-1.66-5.7-4.13-7.38-5.17-3.86-13.85 1.11-13.21 7.51.21 3.09 2.54 5.35 4.42 7.57-1.26 1.05-2.52 2.1-3.77 3.15-3.01-3.01-5.51-6.58-6.65-10.73z"/><path d="m451.24 170.96c10.66-5.35 20.75-11.81 31.15-17.66.63 1.06 1.25 2.12 1.88 3.19.48.84.96 1.68 1.46 2.52-4.33 2.51-8.66 5.01-12.97 7.54 1.49.53 3 1.04 4.47 1.64 1.66 1.62 2.94 3.58 3.92 5.67.23 3.56-1.08 7.18-4.1 9.24-4.86 3.43-10.26 6-15.31 9.13-.31-.47-.93-1.41-1.24-1.88-.75-1.18-1.5-2.36-2.23-3.55 4.9-3.37 10.63-5.52 15.15-9.41 3.68-3.39-.94-9.62-5.31-7.95-4.28 1.8-8.08 4.56-12.15 6.76-.93.53-1.85 1.07-2.77 1.6-1.06-1.83-2.15-3.66-3.1-5.55.28-.32.86-.97 1.15-1.29z"/><path d="m140.15 286.97c6.43-2.48 13.83 1.34 16.37 7.55.98 4.83-.83 10.2-5.03 12.95-7.18 4.87-18.46-1.81-17.73-10.44.25-4.21 2.97-7.8 6.39-10.06m.16 5.4c-3.41 2.29-2.12 7.33 1.08 9.17 3.09 2.76 9.65 3.48 10.87-1.52.47-5.66-7.07-10.16-11.95-7.65z"/><path d="m82.34 388.53c-1.72-5.15 3.18-11.13 8.61-9.41 5.51 1.75 10.12 5.44 15.22 8.08-.87 1.57-1.74 3.14-2.6 4.72-4.58-2.29-8.69-5.58-13.57-7.24-3.16-.96-4.85 2.5-4.47 5.14 3.63 4.29 9.47 5.52 13.57 9.2-.59 1.56-1.38 3.05-2.12 4.55-4.75-2.26-8.91-5.75-13.93-7.37-3.65-.93-5.59 4.42-2.91 6.62 3.83 3.19 8.6 4.97 12.64 7.88-.94 1.46-1.87 2.94-2.81 4.41-4.7-2.67-9.35-5.43-14.07-8.07-1.59-.88-3.2-1.73-4.81-2.57.44-.85.88-1.69 1.33-2.52.2-.4.62-1.19.82-1.58.84.29 1.68.58 2.51.87-.22-2.57-.77-5.43.92-7.66 1.16-2.25 3.81-2.65 5.99-3.31-.11-.58-.22-1.17-.32-1.74z"/><path d="m35.49 455.67c10.62-2.1 22.81 7.36 20.59 18.72-.88 1.72-1.7 3.48-2.62 5.19-2.14 3.01-5.42 4.98-9.01 5.73-5.25.51-10.14-1.79-14.26-4.83-3.52-3.76-5.87-8.79-4.76-14.04 1.57-4.87 5.01-9.26 10.06-10.77m.61 5.49c-4.56.65-7.54 6.12-5.53 10.29 2.4 4.97 7.94 8.23 13.4 8.3 5.19.06 9.14-5.96 6.75-10.64-2.65-5.19-8.78-8.69-14.62-7.95z"/><path d="m494.13 532.28c2.17.01 4.35.02 6.53.04.03.27.1.8.13 1.07-.16 8.21-.15 16.43-.05 24.64-2.22-.01-4.42-.02-6.63-.02-.01-8.57-.04-17.15.02-25.73z"/></g><path d="m424.43 55.45c12.93-3.25 26.39-1.59 39.56-1.31-1.05 3.06-2.41 6.02-4.23 8.71-3.7-3-8.51-.26-12.72-.86-5.01-.7-10.06-.31-15.08-.73-2.07-.59-2.85 1.74-3.91 2.99-.76-3.09-1.96-6.08-3.62-8.8z" fill="#91bd0b"/><path d="m411.83 59.98c-.14-2.86 3.28-5.01 5.77-3.52 3.58 1.98 4.34 6.36 5.28 9.97 1.48-.36 2.98-.7 4.46-1.12.17-.26.53-.79.71-1.06 1.06-1.25 1.84-3.58 3.91-2.99 5.02.42 10.07.03 15.08.73 4.21.6 9.02-2.14 12.72.86-1.71 2.6-3.3 5.27-4.96 7.91-6.16-1.96-12.54.07-18.81-.58-8.41-.84-16.27 2.77-24.3 4.57 1.76-4.81.11-9.85.14-14.77z" fill="#9ac509"/><path d="m329.16 64.56c.26-1.07.5-2.14.79-3.21 2.68 3.66 4.54 7.85 7.35 11.42 2.44 4.52 5.2 8.85 7.53 13.42-.53 2.45-.85 4.94-1.08 7.44-.54-.03-1.64-.09-2.18-.11-1.54-2.66-3.09-5.32-4.59-8-3.03-5.69-6.57-11.08-9.55-16.8.34-.95.7-1.9 1.19-2.79.14-.35.4-1.03.54-1.37z" fill="#619b1f"/><path d="m387.93 62.97c.18-.06.54-.18.72-.24.49 4.95 2.49 9.66 5.75 13.43-2.92 2.29-6.51 3.5-9.36 5.9-2.44 2.07-5.46 3.22-8.12 4.95-4.82 3.8-8.64 8.7-13.51 12.44-2.49 1.97-4.59 4.36-6.7 6.71-2.79-4.67-5.48-9.4-8.14-14.14.89.52 1.79 1.03 2.71 1.53 7.6-11.72 19.83-19.04 31.91-25.39 1.17-.56 2.47-.75 3.73-1.04.32-1.39.62-2.78 1.01-4.15z" fill="#93c10c"/><path d="m394.44 64.38c3.85.14 7.39-1.59 11.07-2.48.28 2.7.96 5.41.61 8.14-.43 2.76-3.86 4.61-6.34 3.22-3.25-1.74-4.53-5.52-5.34-8.88z" fill="#95c20b"/><path d="m202.55 87.34c4.56-7.37 8.37-15.18 12.99-22.52 6.16 2.25 12.4 4.31 18.82 5.74 7.77 2.94 15.26 6.61 22.64 10.45 9.93 6.1 20.18 12.02 28.56 20.23 10.32 7.78 17.09 19.04 25.96 28.26-.89 1.53-1.77 3.07-2.66 4.61-7.26 2.63-15.1 2.55-22.58 4.2-.6-.14-1.79-.44-2.38-.58-.88-2.73-2.84-4.86-4.69-6.96-7.26-8.79-16.48-15.69-25.82-22.1-11.29-7.95-24.4-12.72-37.53-16.67-4.64-1.5-9.52-1.93-14.24-3.09.24-.39.7-1.17.93-1.57z" fill="#79ae16"/><path d="m463.13 71.32c4.38-1.05 8.83-1.81 13.17-3.07 4.53 7.89 9.1 15.76 13.65 23.65-7.55-.19-14.78 2.35-21.87 4.59-4.4.79-8.84 1.65-12.89 3.62-4.25 2.16-8.96 3.29-13.03 5.81-1.63-2.03-3.51-3.83-5.39-5.62-1.15.98-2.29 1.97-3.43 2.95 2.36 2.22 5.2 4.39 5.96 7.72.66 2.02-1.22 3.41-2.16 4.92-2.35-3.48-4.92-6.93-8.54-9.19 2.27-3.02 4.67-5.94 7.09-8.85 6.14-7.93 11.85-16.17 17.42-24.51 3.51.77 6.69-1.28 10.02-2.02z" fill="#8ebe0f"/><path d="m411.69 74.75c8.03-1.8 15.89-5.41 24.3-4.57 6.27.65 12.65-1.38 18.81.58-.42.64-1.27 1.94-1.69 2.58-5.57 8.34-11.28 16.58-17.42 24.51-.65-2.15-2.25-3.68-3.96-5.02.66-5.58-2.73-11.41-8.08-13.27-7.57-2.41-16.75 2.45-18.66 10.26-3.29 2.45-6.87 4.52-9.89 7.32-2.37 2.42-6.31 1.97-8.65 4.4-6.32 6.95-13.52 13.37-17.51 22.08-.57-.09-1.71-.28-2.28-.38-3.34-5.62-6.55-11.31-9.87-16.94l-.08-.14c2.11-2.35 4.21-4.74 6.7-6.71 4.87-3.74 8.69-8.64 13.51-12.44 2.66-1.73 5.68-2.88 8.12-4.95 2.85-2.4 6.44-3.61 9.36-5.9 2.38 2.14 5.31 4.09 8.68 3.8 3.58-.06 6.59-2.42 8.61-5.21z" fill="#a3cd08"/><path d="m180.98 110.92c5.94-10.4 11.95-20.76 17.92-31.14 2.03 2.06 3.07 4.78 3.65 7.56-.23.4-.69 1.18-.93 1.57-3.33 5.3-6.17 10.88-9.35 16.26-2.35 3.99-4.59 8.04-6.98 12-.96-2.38-2.22-4.67-4.31-6.25z" fill="#bce13b"/><path d="m418.09 85.65c-.23-1.74 1.79-1.24 2.87-1.45 3.18-.26 6.08 2.68 5.88 5.85-.2 2.06-1.98 3.39-3.14 4.92-2.09-2.97-3.99-6.08-5.61-9.32z" fill="#a7d110"/><path d="m343.75 93.63c.23-2.5.55-4.99 1.08-7.44 1.16 2 2.42 3.93 3.74 5.83 2.66 4.74 5.35 9.47 8.14 14.14l.08.14c-1.84 1.28-2.3 3.37-2.26 5.47-.57.07-1.7.2-2.27.26-3.56-6.17-7.14-12.33-10.69-18.51.54.02 1.64.08 2.18.11z" fill="#589423"/><path d="m410.48 92.98c-.3-2.48 1.58-4.27 3.05-5.96 3 5.06 5.88 10.19 8.81 15.29 4.2-1.86 7.81-5.07 9.39-9.48 1.71 1.34 3.31 2.87 3.96 5.02-2.42 2.91-4.82 5.83-7.09 8.85-4.66-1.86-9.95.53-11.8 5.14-.38-.12-1.15-.35-1.53-.47-8.31 4.48-16.67 10.05-21.25 18.59-3.96 5.68-8.8 11.31-9.13 18.6-.68.96-1.36 1.92-2.03 2.89-.31-.55-.95-1.65-1.27-2.19-3.72-6.63-7.61-13.16-11.38-19.76-1.18-2.09-2.35-4.19-3.55-6.26.57.1 1.71.29 2.28.38 3.99-8.71 11.19-15.13 17.51-22.08 2.34-2.43 6.28-1.98 8.65-4.4 3.02-2.8 6.6-4.87 9.89-7.32-.45 6.34 3.13 12.38 8.01 16.18 1.17-.84 2.24-1.81 3.33-2.76-2.53-3-5.6-6.1-5.85-10.26z" fill="#abd416"/><path d="m192.27 105.17c3.18-5.38 6.02-10.96 9.35-16.26 4.72 1.16 9.6 1.59 14.24 3.09 13.13 3.95 26.24 8.72 37.53 16.67 9.34 6.41 18.56 13.31 25.82 22.1 1.85 2.1 3.81 4.23 4.69 6.96.59.14 1.78.44 2.38.58-3.35.69-6.67 1.47-10.02 2.14-3.24.63-6.48 1.29-9.7 1.99-3.14-3.85-6.31-7.74-10.15-10.91-4.11-3.6-8.84-6.37-13.19-9.63-2.4-1.84-5.17-3.06-7.92-4.26-5.24-2.26-9.93-5.75-15.45-7.35-8.99-2.58-18.12-5.45-27.58-5.12z" fill="#8dbd0f"/><path d="m468.08 96.49c7.09-2.24 14.32-4.78 21.87-4.59 3.64 6.36 7.35 12.68 10.98 19.05-10.47.06-21.03 1.45-30.93 5.01-6.25 2.1-13.4 3.08-17.98 8.29-.25-.39-.74-1.17-.98-1.56-7.01 4.43-14.39 8.24-21.41 12.64-.12.21-.37.64-.5.86-.79 1.32-1.56 2.65-2.39 3.95-6.18 6.79-15.18 10.8-19.83 18.94-1.51 2.22-3.89 3.58-5.95 5.22-.33 2.08-1.54 3.78-3.03 5.21-.75 1.37-1.45 2.77-2.16 4.16-4.35-7.38-8.62-14.81-12.91-22.22.67-.97 1.35-1.93 2.03-2.89 11.98-8.95 22.7-19.43 33.08-30.17 1.74 2.22 4.1 3.78 6.63 4.96-.45.41-1.35 1.24-1.8 1.66.88 1.64 1.76 3.28 2.64 4.93 4-2.52 8.1-4.89 12.21-7.23 2.84-1.65 5.89-3.71 6.85-7.06 1.03-3.42-.64-6.84-2.34-9.73 4.07-2.52 8.78-3.65 13.03-5.81 4.05-1.97 8.49-2.83 12.89-3.62z" fill="#9bc80a"/><path d="m185.29 117.17c2.39-3.96 4.63-8.01 6.98-12 9.46-.33 18.59 2.54 27.58 5.12 5.52 1.6 10.21 5.09 15.45 7.35 2.75 1.2 5.52 2.42 7.92 4.26 4.35 3.26 9.08 6.03 13.19 9.63 3.84 3.17 7.01 7.06 10.15 10.91-8.43 2.3-17.12 3.64-25.37 6.54-.47.12-1.4.37-1.87.49-15.74-14.26-37.2-20.96-58.22-21.09-.38-.37-1.14-1.11-1.52-1.47 1.91-3.24 3.76-6.52 5.71-9.74z" fill="#9fcb09"/><path d="m354.53 111.77c-.04-2.1.42-4.19 2.26-5.47 3.32 5.63 6.53 11.32 9.87 16.94 1.2 2.07 2.37 4.17 3.55 6.26-1.72 1.56-3.44 3.12-5.15 4.69-4.27-7.39-8.54-14.77-12.8-22.16.57-.06 1.7-.19 2.27-.26z" fill="#4e8d26"/><path d="m415.27 111.37c.38.12 1.15.35 1.53.47.08 2.22.39 4.46 1.17 6.55-10.38 10.74-21.1 21.22-33.08 30.17.33-7.29 5.17-12.92 9.13-18.6 4.58-8.54 12.94-14.11 21.25-18.59z" fill="#b4db2a"/><path d="m489.6 163.59c5.62-2.08 11.71-1.19 17.52-2.26 5.61-1.16 11.2.58 16.82.62 6.26-.25 11.8 3.01 17.69 4.56.6.87 1.21 1.75 1.82 2.62-.7 1.71-1.39 3.42-2.07 5.14-3.5 3.55-7.79-.31-11.72-.75-5.87-.79-11.71-1.85-17.6-2.36-9.92 1.11-19.98 2.19-29.38 5.78-.52-1.03-1.03-2.05-1.53-3.08-.98-2.09-2.26-4.05-3.92-5.67 4.18-1.38 8.25-3.07 12.37-4.6z" fill="#b4db2a"/><path d="m470 115.96c9.9-3.56 20.46-4.95 30.93-5.01 2.88 4.97 5.76 9.94 8.61 14.93-2.09.51-4.21.91-6.33 1.25-.41-.38-1.25-1.13-1.67-1.51-11.16 1.23-22.43 2.86-32.94 7.01-3.16 1.13-6.12 3.29-9.64 2.93-1.1-3.88-4.91-5.54-8.64-5.79 1.2-.73 2.4-1.46 3.61-2.19-.63-1.12-1.25-2.24-1.91-3.33 4.58-5.21 11.73-6.19 17.98-8.29z" fill="#a4ce08"/><path d="m164.28 140.03c5.5-9.75 11.13-19.41 16.7-29.11 2.09 1.58 3.35 3.87 4.31 6.25-1.95 3.22-3.8 6.5-5.71 9.74-4.23 7.13-7.92 14.59-12.43 21.56-.77-2.87-1.28-5.88-2.87-8.44z" fill="#c6e952"/><path d="m429.63 135.33c7.02-4.4 14.4-8.21 21.41-12.64.24.39.73 1.17.98 1.56.66 1.09 1.28 2.21 1.91 3.33-1.21.73-2.41 1.46-3.61 2.19 3.73.25 7.54 1.91 8.64 5.79-1.55.49-3.02 1.18-4.5 1.84-.22.1-.68.3-.91.4-1.44-2.68-4.18-5.37-7.49-4.1-4.95 1.89-9.22 5.17-13.93 7.56-1.02-1.68-2.05-3.36-3-5.07.13-.22.38-.65.5-.86z" fill="#fffffd"/><path d="m468.6 132.63c10.51-4.15 21.78-5.78 32.94-7.01.42.38 1.26 1.13 1.67 1.51 2.12-.34 4.24-.74 6.33-1.25 4.97 8.6 9.93 17.2 14.89 25.81-5.33-1.67-10.93-1.22-16.42-1.24-7.35-.99-14.11 2.99-21.45 2.81-.77 1.08-1.53 2.15-2.29 3.23-.63-1.07-1.25-2.13-1.88-3.19-10.4 5.85-20.49 12.31-31.15 17.66-6.26 1.16-9.37 7.49-13.86 11.31-8.85 6.82-12.87 17.61-19.34 26.36-.59-.11-1.78-.33-2.37-.44-3.71-6.4-7.42-12.8-11.1-19.23 1.42.63 2.85 1.25 4.28 1.88.3-2.15.37-4.32.68-6.47 2.44-3.76 7.17-5.96 7.97-10.76.53-.06 1.08-.12 1.63-.17 1.38-1.44 2.85-2.8 4.39-4.06.05-.64.1-1.27.16-1.89 3.22-1.21 5.33-3.99 7.77-6.26.07-.58.14-1.16.22-1.74 2.54-1.26 4.94-2.76 7.19-4.49.83.65 1.67 1.3 2.51 1.96 1.14 4.15 3.64 7.72 6.65 10.73 1.25-1.05 2.51-2.1 3.77-3.15-1.88-2.22-4.21-4.48-4.42-7.57-.64-6.4 8.04-11.37 13.21-7.51 2.47 1.68 3.21 4.73 4.13 7.38 1.62-.52 3.23-1.03 4.86-1.55-1.29-4.42-3.4-8.91-7.44-11.44-2.7-1.93-6.11-2.07-9.29-2.03 1-.81 1.96-1.68 2.89-2.58-.31-.46-.95-1.38-1.27-1.84 1.48-.66 2.95-1.35 4.5-1.84 3.52.36 6.48-1.8 9.64-2.93z" fill="#aad313"/><path d="m167.15 148.47c4.51-6.97 8.2-14.43 12.43-21.56.38.36 1.14 1.1 1.52 1.47 21.02.13 42.48 6.83 58.22 21.09-8.96 2.38-17.88 4.98-26.65 8.02-1.56.57-3.1 1.17-4.66 1.74-3.17-1.78-6.42-3.64-10.08-4.17-5.6-.89-11.16-2.97-16.91-2.04-5.36.93-11.21.41-15.98 3.45-.37-.41-1.13-1.23-1.5-1.64 1.22-2.11 2.36-4.26 3.61-6.36z" fill="#aad315"/><path d="m365.06 134.19c1.71-1.57 3.43-3.13 5.15-4.69 3.77 6.6 7.66 13.13 11.38 19.76-1.66 2.64-1.74 5.88-2.72 8.78-4.65-7.93-9.22-15.9-13.81-23.85z" fill="#45862a"/><path d="m286.28 138.31c7.48-1.65 15.32-1.57 22.58-4.2-5.51 9.48-10.96 19-16.45 28.5-4.53-7.99-11.75-14.07-16.15-22.16 3.35-.67 6.67-1.45 10.02-2.14z" fill="#a6d226"/><path d="m432.13 141.26c4.71-2.39 8.98-5.67 13.93-7.56 3.31-1.27 6.05 1.42 7.49 4.1.23-.1.69-.3.91-.4.32.46.96 1.38 1.27 1.84-.93.9-1.89 1.77-2.89 2.58-6.71 1.7-12.81 7.75-11.47 15.14-.84-.66-1.68-1.31-2.51-1.96-2.25 1.73-4.65 3.23-7.19 4.49-.08.58-.15 1.16-.22 1.74-2.44 2.27-4.55 5.05-7.77 6.26-.06.62-.11 1.25-.16 1.89-1.54 1.26-3.01 2.62-4.39 4.06-.55.05-1.1.11-1.63.17-.8 4.8-5.53 7-7.97 10.76-.31 2.15-.38 4.32-.68 6.47-1.43-.63-2.86-1.25-4.28-1.88-2.26-3.89-4.59-7.74-6.76-11.68-.68-1.21-1.35-2.41-2.04-3.61.71-1.39 1.41-2.79 2.16-4.16 1.49-1.43 2.7-3.13 3.03-5.21 2.06-1.64 4.44-3 5.95-5.22 4.65-8.14 13.65-12.15 19.83-18.94.83-1.3 1.6-2.63 2.39-3.95.95 1.71 1.98 3.39 3 5.07z" fill="#a5cf09"/><path d="m151.76 161.85c4.07-7.33 8.34-14.55 12.52-21.82 1.59 2.56 2.1 5.57 2.87 8.44-1.25 2.1-2.39 4.25-3.61 6.36-3.39 5.44-6.23 11.2-9.65 16.62-.59-2.08-.7-4.24-.59-6.38-.6-.49-1.2-.96-1.79-1.44.06-.44.19-1.33.25-1.78z" fill="#d2f269"/><path d="m266.56 142.44c3.22-.7 6.46-1.36 9.7-1.99 4.4 8.09 11.62 14.17 16.15 22.16-5.38 9.26-10.69 18.57-16.1 27.82-1.43-3.19-2.34-6.63-4.15-9.65-4.52-7.28-9.8-14.06-15.2-20.7-3.4-4.11-7.81-7.18-12.56-9.54.41-.41.82-.82 1.23-1.23-1.48-.13-2.96-.26-4.44-.33 8.25-2.9 16.94-4.24 25.37-6.54z" fill="#b8e025"/><path d="m526.67 155.49c8.74-5.07 17.44-10.2 26.26-15.13.04 2.15.11 4.31.12 6.47-.38-.13-1.13-.4-1.51-.53-2.2 6.52-4.82 12.9-6.82 19.49-.41 1.12-.83 2.23-1.27 3.34-.61-.87-1.22-1.75-1.82-2.62-5.89-1.55-11.43-4.81-17.69-4.56-5.62-.04-11.21-1.78-16.82-.62-5.81 1.07-11.9.18-17.52 2.26-4.12 1.53-8.19 3.22-12.37 4.6-1.47-.6-2.98-1.11-4.47-1.64 4.31-2.53 8.64-5.03 12.97-7.54-.5-.84-.98-1.68-1.46-2.52.76-1.08 1.52-2.15 2.29-3.23 7.34.18 14.1-3.8 21.45-2.81 5.49.02 11.09-.43 16.42 1.24.73 1.27 1.49 2.53 2.24 3.8z" fill="#afd71f"/><path d="m437.38 182.27c4.49-3.82 7.6-10.15 13.86-11.31-.29.32-.87.97-1.15 1.29.95 1.89 2.04 3.72 3.1 5.55.92-.53 1.84-1.07 2.77-1.6.42.56 1.26 1.7 1.68 2.27-6.6 4.65-11.84 10.88-17.42 16.65-4.11 4.13-6.38 9.57-9.68 14.28-2.15 2.92-2.53 6.64-4.19 9.8-2.89 5.28-3.16 11.44-4.92 17.11-1.9.45-3.78.93-5.69 1.3-6.27-.9-12.43-2.66-18.74-3.17-.69.76-1.53 1.39-2.17 2.2-.79-.93-1.52-1.9-2.21-2.9l-.06-.9c7.38-4.22 14.69-8.55 22.11-12.69 1.89-1.04 3.82-2.05 5.58-3.32-.91-3.15-3.05-5.77-4.58-8.64.59.11 1.78.33 2.37.44 6.47-8.75 10.49-19.54 19.34-26.36z" fill="#afd71f"/><path d="m551.54 146.3c.38.13 1.13.4 1.51.53-.17 6.08-3.28 11.53-4.83 17.31-1.17.55-2.34 1.1-3.5 1.65 2-6.59 4.62-12.97 6.82-19.49z" fill="#98c60b"/><path d="m239.32 149.47c.47-.12 1.4-.37 1.87-.49 1.48.07 2.96.2 4.44.33-.41.41-.82.82-1.23 1.23 4.75 2.36 9.16 5.43 12.56 9.54 5.4 6.64 10.68 13.42 15.2 20.7 1.81 3.02 2.72 6.46 4.15 9.65-4.48 7.84-9.02 15.64-13.54 23.45-1.04-.02-2.07-.03-3.09-.05.84-5.75-2.7-10.69-4.63-15.83-1.56-4.46-4.94-7.86-7.16-11.95-2.96-5.98-9.01-9.51-12.53-15.1-2.17-1.12-3.95-2.82-5.81-4.36-5.21-3.75-10.76-7.07-16.88-9.1 8.77-3.04 17.69-5.64 26.65-8.02z" fill="#bde433"/><path d="m378.87 158.04c.98-2.9 1.06-6.14 2.72-8.78.32.54.96 1.64 1.27 2.19 4.29 7.41 8.56 14.84 12.91 22.22.69 1.2 1.36 2.4 2.04 3.61-2.11 1.53-3.11 3.96-4.2 6.22-5.03-8.42-9.86-16.95-14.74-25.46z" fill="#3b7e2e"/><path d="m165.04 156.47c4.77-3.04 10.62-2.52 15.98-3.45 5.75-.93 11.31 1.15 16.91 2.04 3.66.53 6.91 2.39 10.08 4.17-5.78 2.1-11.65 3.98-17.25 6.54-10.21 4.36-20.66 8.23-30.49 13.44-5.2 2.53-10 5.82-15.35 8.04 3.05-5.23 5.89-10.58 8.97-15.8 3.42-5.42 6.26-11.18 9.65-16.62.37.41 1.13 1.23 1.5 1.64z" fill="#b7dd30"/><path d="m208.01 159.23c1.56-.57 3.1-1.17 4.66-1.74 6.12 2.03 11.67 5.35 16.88 9.1 1.86 1.54 3.64 3.24 5.81 4.36 3.52 5.59 9.57 9.12 12.53 15.1 2.22 4.09 5.6 7.49 7.16 11.95 1.93 5.14 5.47 10.08 4.63 15.83 1.02.02 2.05.03 3.09.05-5.26 8.99-10.38 18.06-15.69 27.02-1.05-4.3-.09-8.75-.92-13.07-1.1-5.72-1.35-11.69-3.9-17.04-2.08-6.14-5.89-11.42-9.27-16.88-1.77-2.79-4.74-4.47-6.76-7.04-1.74-2.25-3.52-4.54-5.99-6.02-6.7-4.18-13.23-8.97-20.95-11.07-3.08-.79-5.9-2.27-8.53-4.01 5.6-2.56 11.47-4.44 17.25-6.54z" fill="#c4e843"/><path d="m136.22 188.95c5.08-9.09 10.35-18.07 15.54-27.1-.06.45-.19 1.34-.25 1.78.59.48 1.19.95 1.79 1.44-.11 2.14 0 4.3.59 6.38-3.08 5.22-5.92 10.57-8.97 15.8-.93 1.78-1.63 3.66-2.3 5.55-2.12-1.3-4.24-2.62-6.4-3.85z" fill="#dbf97e"/><path d="m544.72 165.79c1.16-.55 2.33-1.1 3.5-1.65-2.11 6.3-4.24 12.6-6.32 18.91-.81-.12-2.45-.37-3.26-.5.95-2.75 1.75-5.54 2.74-8.28.68-1.72 1.37-3.43 2.07-5.14.44-1.11.86-2.22 1.27-3.34z" fill="#8bbc11"/><path d="m160.27 179.21c9.83-5.21 20.28-9.08 30.49-13.44 2.63 1.74 5.45 3.22 8.53 4.01 7.72 2.1 14.25 6.89 20.95 11.07 2.47 1.48 4.25 3.77 5.99 6.02 2.02 2.57 4.99 4.25 6.76 7.04 3.38 5.46 7.19 10.74 9.27 16.88 2.55 5.35 2.8 11.32 3.9 17.04.83 4.32-.13 8.77.92 13.07-1.76 3.07-3.52 6.13-5.26 9.21-6.53-3.72-13.01-7.53-19.51-11.32 1.79-7.57-.24-15.63-3.55-22.53-2.35-5.84-6.26-10.98-10.81-15.28-5.86-4.15-11.89-8.49-19.08-9.9-8.17-1.94-16.91-1.73-24.9.89-4.43 1.28-8.25 3.97-12.32 6.04-3.02-1.72-6.06-3.41-9.03-5.21.67-1.89 1.37-3.77 2.3-5.55 5.35-2.22 10.15-5.51 15.35-8.04z" fill="#cbed58"/><path d="m455.96 176.2c4.07-2.2 7.87-4.96 12.15-6.76 4.37-1.67 8.99 4.56 5.31 7.95-4.52 3.89-10.25 6.04-15.15 9.41.73 1.19 1.48 2.37 2.23 3.55-3.5 3.21-7.23 6.22-10.37 9.81-5.03 6.77-10.28 13.5-13.39 21.43-2.02 5.55-3.96 11.16-5.05 16.99-1.69.33-3.38.68-5.07.96l-.63.01c-3.46-.43-6.84-1.27-10.25-1.94 1.91-.37 3.79-.85 5.69-1.3 1.76-5.67 2.03-11.83 4.92-17.11 1.66-3.16 2.04-6.88 4.19-9.8 3.3-4.71 5.57-10.15 9.68-14.28 5.58-5.77 10.82-12 17.42-16.65-.42-.57-1.26-1.71-1.68-2.27z" fill="#b3db2a"/><path d="m482.68 176.94c9.4-3.59 19.46-4.67 29.38-5.78 5.89.51 11.73 1.57 17.6 2.36 3.93.44 8.22 4.3 11.72.75-.99 2.74-1.79 5.53-2.74 8.28-1.42 4.04-2.96 8.03-4.35 12.07-10.28-3.23-21.26-4.74-31.98-3.25-6.08 1.66-12.65 2.32-18.02 5.88-5.14 3.13-10.74 5.72-14.75 10.37-5.86 4.98-10.04 11.53-13.64 18.25-2.05 4.63-4.5 9.3-4.62 14.47.24 2.06-2.07 2.49-3.41 3.42-1.52-.27-3.04-.54-4.54-.81-5.58-1.11-11.16-2.21-16.71-3.41 1.69-.28 3.38-.63 5.07-.96 1.09-5.83 3.03-11.44 5.05-16.99 3.11-7.93 8.36-14.66 13.39-21.43 3.14-3.59 6.87-6.6 10.37-9.81.31.47.93 1.41 1.24 1.88 5.05-3.13 10.45-5.7 15.31-9.13 3.02-2.06 4.33-5.68 4.1-9.24.5 1.03 1.01 2.05 1.53 3.08z" fill="#bbe038"/><path d="m393.61 183.5c1.09-2.26 2.09-4.69 4.2-6.22 2.17 3.94 4.5 7.79 6.76 11.68 3.68 6.43 7.39 12.83 11.1 19.23 1.53 2.87 3.67 5.49 4.58 8.64-1.76 1.27-3.69 2.28-5.58 3.32-4.9-8.64-9.99-17.18-14.84-25.84-1.32-2.78-2.75-5.51-4.44-8.07-.58-.93-1.18-1.84-1.78-2.74z" fill="#2c7333"/><path d="m534.29 194.62c1.39-4.04 2.93-8.03 4.35-12.07.81.13 2.45.38 3.26.5-1.69 5.06-3.4 10.1-5.08 15.16-1.27.05-2.53.1-3.79.14.41-1.25.83-2.49 1.26-3.73z" fill="#7fb214"/><path d="m443.33 242.95c1.5.27 3.02.54 4.54.81 3.48.57 6.94 1.27 10.41 1.96.09.53.26 1.59.35 2.13-1.83.95-3.71 1.82-5.67 2.43-6.48-1.2-12.95-2.45-19.42-3.68 3.59-.13 7.14-1.11 9.79-3.65z" fill="#7fb214"/><path d="m395.39 186.24c1.69 2.56 3.12 5.29 4.44 8.07-1.48-1.39-3.02-2.7-4.5-4.07.28-1.34.31-2.67.06-4z" fill="#86b9ee"/><path d="m492.93 297.59c23.42-13.51 46.86-26.99 70.25-40.56.02 6.97-.09 14.37-3.41 20.69-6.76 16.89-24.49 29-42.79 28.49-5.19.36-10.01-1.8-14.85-3.3-3.41-1.09-6.76-2.62-9.2-5.32z" fill="#86b9ee"/><path d="m163.97 191.97c7.99-2.62 16.73-2.83 24.9-.89 7.19 1.41 13.22 5.75 19.08 9.9 4.55 4.3 8.46 9.44 10.81 15.28 3.31 6.9 5.34 14.96 3.55 22.53-23.49-13.7-47.05-27.29-70.66-40.78 4.07-2.07 7.89-4.76 12.32-6.04z" fill="#d4f46f"/><path d="m502.31 191.37c10.72-1.49 21.7.02 31.98 3.25-.43 1.24-.85 2.48-1.26 3.73-1.09 3.3-2.28 6.56-3.48 9.82-5.16-1.21-10.26-2.88-15.58-3.12-12.29-.77-24.88 3.61-33.84 12.12-9.05 7.29-14.46 18.23-15.96 29.65-1.97-.36-3.94-.73-5.89-1.1-3.47-.69-6.93-1.39-10.41-1.96 1.34-.93 3.65-1.36 3.41-3.42.12-5.17 2.57-9.84 4.62-14.47 3.6-6.72 7.78-13.27 13.64-18.25 4.01-4.65 9.61-7.24 14.75-10.37 5.37-3.56 11.94-4.22 18.02-5.88z" fill="#c2e649"/><path d="m533.03 198.35c1.26-.04 2.52-.09 3.79-.14-2.02 6.12-4.06 12.22-6.14 18.31-1.6.23-3.11.79-4.56 1.48 1.14-3.28 2.24-6.57 3.43-9.83 1.2-3.26 2.39-6.52 3.48-9.82z" fill="#70a71b"/><path d="m480.13 217.17c8.96-8.51 21.55-12.89 33.84-12.12 5.32.24 10.42 1.91 15.58 3.12-1.19 3.26-2.29 6.55-3.43 9.83-.91 2.77-1.86 5.52-2.86 8.26-5.78-1.3-11.84-2.11-17.69-.82-3.29.87-6.29 2.51-9.51 3.58-3.86 3.58-8.26 7.12-10.03 12.27-1.31 3.13-2.12 6.87-5.28 8.7-.3-.04-.92-.12-1.22-.16-5.1-1.11-10.22-2.13-15.36-3.01 1.5-11.42 6.91-22.36 15.96-29.65z" fill="#cbed5d"/><path d="m526.12 218c1.45-.69 2.96-1.25 4.56-1.48-2.36 7.2-4.79 14.37-7.19 21.56-1.56.3-3.11.61-4.66.91 1.47-4.24 2.9-8.51 4.43-12.73 1-2.74 1.95-5.49 2.86-8.26z" fill="#5f9a20"/><path d="m505.57 225.44c5.85-1.29 11.91-.48 17.69.82-1.53 4.22-2.96 8.49-4.43 12.73-.12.34-.35 1-.46 1.34-2.87-.6-5.85-1.69-8.77-.79-2.85.88-6.32 1.43-8.03 4.15-1.93 2.89-2.7 6.34-4.29 9.4-5.52-1.02-10.99-2.24-16.53-3.1 3.16-1.83 3.97-5.57 5.28-8.7 1.77-5.15 6.17-8.69 10.03-12.27 3.22-1.07 6.22-2.71 9.51-3.58z" fill="#d5f572"/><path d="m392.62 233.74c.69 1 1.42 1.97 2.21 2.9.64-.81 1.48-1.44 2.17-2.2 6.31.51 12.47 2.27 18.74 3.17 3.41.67 6.79 1.51 10.25 1.94-2.86.8-5.56 2.13-7.76 4.15-8.53-1.57-17.05-3.17-25.56-4.8-.01-1.72-.01-3.44-.05-5.16z" fill="#a2cd08"/><path d="m133.2 246.49c15.24-3.16 30.49-6.27 45.75-9.35 1.73-.84 1.77 1.77 2.41 2.71 4.97 14.41 10.09 28.77 15.1 43.17-1.77.33-3.54.65-5.31.97-4.76-14.03-9.83-27.95-14.52-42-2.74.4-5.44 1.05-8.11 1.75-7.29 1.56-14.73 2.44-21.94 4.35-1.41.37-2.85.68-4.29.93-3.21-.01-6.45-.58-9.09-2.53z" fill="#fb9309"/><path d="m518.83 238.99c1.55-.3 3.1-.61 4.66-.91-2.62 7.96-5.37 15.89-7.94 23.87-7.68-1.32-15.34-2.81-23-4.26 2.14-1.46 4.29-2.88 6.48-4.28 4.61.88 9.23 1.77 13.85 2.64 1.85-5.23 3.65-10.49 5.49-15.72.11-.34.34-1 .46-1.34z" fill="#4c8c27"/><path d="m509.6 239.54c2.92-.9 5.9.19 8.77.79-1.84 5.23-3.64 10.49-5.49 15.72-4.62-.87-9.24-1.76-13.85-2.64-.44-.08-1.32-.24-1.75-.32 1.59-3.06 2.36-6.51 4.29-9.4 1.71-2.72 5.18-3.27 8.03-4.15z" fill="#ddfa83"/><path d="m418.23 243.7c2.2-2.02 4.9-3.35 7.76-4.15l.63-.01c5.55 1.2 11.13 2.3 16.71 3.41-2.65 2.54-6.2 3.52-9.79 3.65-5.11-.91-10.21-1.89-15.31-2.9z" fill="#8ebf0e"/><path d="m168.52 243.74c2.67-.7 5.37-1.35 8.11-1.75 4.69 14.05 9.76 27.97 14.52 42 4.09 12.78 9.34 25.2 12.85 38.15-.74-1.26-1.45-2.54-2.04-3.87-2.83-8.41-5.96-16.71-8.84-25.09-2.49-7.01-4.96-14.02-7.46-21.02-3.31-9.66-6.86-19.24-10.12-28.91-2.34.17-4.69.31-7.02.49z" fill="#fdd854"/><path d="m168.52 243.74c2.33-.18 4.68-.32 7.02-.49 3.26 9.67 6.81 19.25 10.12 28.91-4.47 1.7-9.33 2.83-14.11 1.96.2-.45.6-1.34.8-1.78-4.2-2.4-8.3-4.98-12.62-7.14-2.37-1.31-5.14-1.08-7.66-.44-3.09-3.84-5.07-8.37-6.54-13.04.34-1.21.68-2.43 1.05-3.63 7.21-1.91 14.65-2.79 21.94-4.35z" fill="#fff300"/><path d="m458.28 245.72c1.95.37 3.92.74 5.89 1.1 5.14.88 10.26 1.9 15.36 3.01-2.69 1.22-5.3 2.61-7.94 3.92-6.22-1.14-12.42-2.32-18.63-3.47 1.96-.61 3.84-1.48 5.67-2.43-.09-.54-.26-1.6-.35-2.13z" fill="#70a71a"/><path d="m97.08 253.84c12.04-2.45 24.07-4.94 36.12-7.35 2.64 1.95 5.88 2.52 9.09 2.53-3.59.62-7.18 1.17-10.75 1.87-11.64 1.35-23.04 4.21-34.59 6.15.04-.8.1-2.4.13-3.2z" fill="#fca20b"/><path d="m573.09 251.18c1.98-1.25 4-2.45 6.03-3.64 13.64 23.58 27.28 47.18 40.88 70.79-3.64.64-5.87-3.7-9.48-2.86-1.17-1.98-2.39-3.92-3.58-5.89-4-6.52-7.47-13.34-11.43-19.88-6.39-11.07-12.59-22.24-19.15-33.2-1.02-1.82-2.14-3.58-3.27-5.32z" fill="#4189d3"/><path d="m142.29 249.02c1.44-.25 2.88-.56 4.29-.93-.37 1.2-.71 2.42-1.05 3.63 1.47 4.67 3.45 9.2 6.54 13.04-3.33 2.45-4.71 6.54-3.67 10.54-2.75-1.09-3.85 1.55-4.97 3.43 6.43 3.48 12.75 7.16 19.04 10.91.97-1.6 1.93-3.2 2.9-4.79-4.08-2.73-8.7-4.63-12.56-7.67-2.76-2.45-.58-8.08 3.29-7.2 4.95 1.56 9.05 4.99 13.69 7.24.59-1.03 1.2-2.06 1.76-3.1 4.78.87 9.64-.26 14.11-1.96 2.5 7 4.97 14.01 7.46 21.02-8.28 4.01-17.8 4.73-26.81 3.41-3.25-.77-6.47-1.68-9.79-2.07-2.54-6.21-9.94-10.03-16.37-7.55.11-.81.22-1.62.34-2.41-5.09-3.67-8.35-9.13-11.81-14.23-2.76-5.32-5.16-11.05-5.42-17.12 2.86-.4 5.6-1.3 8.28-2.32 3.57-.7 7.16-1.25 10.75-1.87z" fill="#ffe701"/><path d="m479.53 249.83c.3.04.92.12 1.22.16 5.54.86 11.01 2.08 16.53 3.1.43.08 1.31.24 1.75.32-2.19 1.4-4.34 2.82-6.48 4.28-6.99-1.31-13.98-2.61-20.96-3.94 2.64-1.31 5.25-2.7 7.94-3.92z" fill="#5e9921"/><path d="m96.95 257.04c11.55-1.94 22.95-4.8 34.59-6.15-2.68 1.02-5.42 1.92-8.28 2.32-8.61 1.41-17.12 3.35-25.72 4.84-12.82 2.5-25.62 5.14-38.5 7.32.38.79.76 1.57 1.14 2.36-1.34-.78-2.68-1.58-4.01-2.38 1.64-1.01 3.28-2 4.93-2.97-.33.42-.99 1.27-1.31 1.7 12.43-2.07 24.8-4.56 37.16-7.04z" fill="#ffd640"/><path d="m260.49 480.1c15.31-.23 30.64-.28 45.95.03-4.99 1.53-10.24.79-15.36 1.11.91.4 1.82.8 2.74 1.21-2.61 2.24-5.55 4.05-8.31 6.1-9.8 8.08-18.46 18.14-22.6 30.33-3.03 7.28-4.94 15.16-4.37 23.09-.76 9.31 2.15 18.35 4.58 27.22-8.02-5.77-15.42-12.32-23.03-18.62-3.72-3.63-7.72-6.97-11.46-10.58.75-.23 1.49-.44 2.25-.65.12-14.43 4.33-28.68 11.02-41.39 3.07-4.6 5.91-9.34 8.97-13.94-.53-.97-1.05-1.92-1.57-2.87 3.76.08 7.55-.01 11.19-1.04z" fill="#ffd640"/><path d="m563.18 257.03c3.31-1.94 6.66-3.8 9.91-5.85 1.13 1.74 2.25 3.5 3.27 5.32-.33 19.19-2.83 38.28-5.41 57.28-1.76 2.11-3.54 4.43-6.32 5.19-.08.62-.16 1.24-.23 1.87-1.3.53-2.59 1.07-3.87 1.62-.26.5-.77 1.48-1.02 1.98-2.19.23-4.56.25-6.36 1.69-5.43 4-12.04 5.81-18.56 7.06-.04.44-.1 1.32-.14 1.75-7.97-1.48-16.04 1.15-24.02-.42-6.97-1.61-14.14-2.12-21.03-4.11-.53.54-1.61 1.62-2.14 2.15-4.62-7.91-9.11-15.9-13.81-23.77 6.5-3.73 12.96-7.51 19.48-11.2 2.44 2.7 5.79 4.23 9.2 5.32 4.84 1.5 9.66 3.66 14.85 3.3 18.3.51 36.03-11.6 42.79-28.49 3.32-6.32 3.43-13.72 3.41-20.69z" fill="#7dafe2"/><path d="m97.54 258.05c8.6-1.49 17.11-3.43 25.72-4.84.26 6.07 2.66 11.8 5.42 17.12 3.46 5.1 6.72 10.56 11.81 14.23-.12.79-.23 1.6-.34 2.41-3.42 2.26-6.14 5.85-6.39 10.06-.73 8.63 10.55 15.31 17.73 10.44 4.2-2.75 6.01-8.12 5.03-12.95 3.32.39 6.54 1.3 9.79 2.07 9.01 1.32 18.53.6 26.81-3.41 2.88 8.38 6.01 16.68 8.84 25.09-5.27 1.88-10.78 2.96-16.17 4.43-9.38.99-18.88.25-28.18-1.28-3.83-.78-7.95-1.52-10.74-4.51-6.03-4.15-12.62-7.43-18.91-11.16-.52.88-1.03 1.77-1.54 2.66-.57-.84-1.11-1.69-1.63-2.54-.56-2.66-2.36-4.06-5.04-4.24-3.74-5.02-8.52-9.23-11.48-14.83-5.36-7.31-8.64-15.89-10.56-24.7-.22-1.34-.17-2.7-.17-4.05z" fill="#ffdc00"/><path d="m66.96 259.98c10.04-2.03 20.08-4.09 30.12-6.14-.03.8-.09 2.4-.13 3.2-12.36 2.48-24.73 4.97-37.16 7.04.32-.43.98-1.28 1.31-1.7 1.79-1.16 3.75-2.05 5.86-2.4z" fill="#fdb20e"/><path d="m576.36 256.5c6.56 10.96 12.76 22.13 19.15 33.2-1.41 4-2.33 8.15-3.62 12.19-.3 1.43-1.49 2.3-2.5 3.22-.34.77-.66 1.55-.97 2.34-4.8 7.97-10.64 16.34-19.62 19.9.43-4.57 1.54-9.03 2.15-13.57 2.58-19 5.08-38.09 5.41-57.28z" fill="#6ea5dd"/><path d="m387.16 477.1c2.49-2.77 4.95-5.54 7.36-8.37 8.52 5.59 14.89 13.8 20.56 22.14 4.56 6.43 6.79 14.06 9.9 21.22 1.42 3.22 2.34 6.67 2.51 10.21-6.87.18-13.75.06-20.62.06-.49.41-.97.83-1.45 1.26-.57-1.98-1.16-3.94-1.8-5.88-.36 2.04-.73 4.1-1.04 6.24-2.34-13.79-11.27-25.28-21.04-34.78-.17-1.63-.33-3.26-.5-4.89 2-2.44 4.05-4.84 6.12-7.21z" fill="#6ea5dd"/><path d="m404.44 551.14c.27.28.82.86 1.09 1.15.31 1.98.65 3.95 1.05 5.92 7.33-.27 14.66 0 22-.28-.65 4.69-3.02 8.91-4.22 13.46-2.53 9.41-7.9 17.69-13.18 25.76-4.13 6.46-10.96 10.53-15.1 16.99-3.94-4.61-7.86-9.24-11.91-13.75-1.76-2-3.49-4.02-5.2-6.05 9.27-6.24 16.21-15.68 20.32-26.01 1.17-.23 2.35-.45 3.54-.67.06-1.2.11-2.4.15-3.59-.98 1.14-1.63 2.14-2.71 3.27.82-5.56 3.83-10.54 4.17-16.2z" fill="#6ea5dd"/><path d="m59.04 265.37c12.88-2.18 25.68-4.82 38.5-7.32 0 1.35-.05 2.71.17 4.05 1.92 8.81 5.2 17.39 10.56 24.7 2.96 5.6 7.74 9.81 11.48 14.83-.81 1.82-2.63 4.34-.43 5.93 1.99 1.82 4.08-.27 5.47-1.69.52.85 1.06 1.7 1.63 2.54-.42.74-.84 1.48-1.26 2.23 6.35 3.55 12.62 7.26 18.93 10.87.93-1.54 1.85-3.07 2.78-4.6 2.79 2.99 6.91 3.73 10.74 4.51 9.3 1.53 18.8 2.27 28.18 1.28 5.39-1.47 10.9-2.55 16.17-4.43.59 1.33 1.3 2.61 2.04 3.87 2.19 10.81 7.13 20.83 10.44 31.32.12 1.06.07 2.13-.16 3.2-6.74-3.74-13.25-7.87-20.09-11.4-.24.42-.7 1.24-.93 1.65.13-.51.41-1.53.54-2.05-1.77-1.18-3.61-2.27-5.51-3.23-2.58 1.8-3.79 4.77-5.29 7.41-1.75 3.18-3.74 6.22-5.53 9.38-5.79-.92-11.61-1.49-17.46-1.67-10.56-1.59-21.11-4.08-30.83-8.58.03-1.51 0-3.02-.02-4.52 2.56.58 3.4-2.01 4.52-3.75-5.34-2.44-9.97-6.42-15.64-8.05-4.68-1.02-7.98 3.19-9.73 6.92-.37-1.17-.73-2.32-1.09-3.49-4.61-2.01-7.28-6.46-11.37-9.17-4.08-2.88-5.89-7.93-10.03-10.77-3.96-6.58-9.07-12.44-12.31-19.47 2.94-5.13 6-10.2 8.78-15.41-7.4-4.19-14.74-8.49-22.11-12.73-.38-.79-.76-1.57-1.14-2.36m64.2 48.89c-1.07 1.39-1.96 2.92-2.89 4.41-1.75-.92-3.34-2.39-5.36-2.63-.59 1.6-1.51 3.3-1.2 5.05 1.2.8 2.5 1.43 3.77 2.11-.33.76-.98 2.27-1.31 3.03 1.15.62 2.31 1.26 3.47 1.9.64-.88 1.28-1.75 1.92-2.61 4.03 2.37 7.88 5.23 12.36 6.69 4.38 1.09 6.9-3.45 8.02-6.93-1.2-.67-2.39-1.34-3.57-2.01-1.04 1.28-1.8 3.96-3.93 3.23-3.71-1.46-6.97-3.84-10.47-5.71.88-1.43 1.77-2.85 2.67-4.25-1.07-.88-2.23-1.67-3.48-2.28z" fill="#ffcf00"/><g fill="#fefefd"><path d="m152.07 264.76c2.52-.64 5.29-.87 7.66.44 4.32 2.16 8.42 4.74 12.62 7.14-.2.44-.6 1.33-.8 1.78-.56 1.04-1.17 2.07-1.76 3.1-4.64-2.25-8.74-5.68-13.69-7.24-3.87-.88-6.05 4.75-3.29 7.2 3.86 3.04 8.48 4.94 12.56 7.67-.97 1.59-1.93 3.19-2.9 4.79-6.29-3.75-12.61-7.43-19.04-10.91 1.12-1.88 2.22-4.52 4.97-3.43-1.04-4 .34-8.09 3.67-10.54z"/><path d="m127.96 305.75c6.29 3.73 12.88 7.01 18.91 11.16-.93 1.53-1.85 3.06-2.78 4.6-6.31-3.61-12.58-7.32-18.93-10.87.42-.75.84-1.49 1.26-2.23.51-.89 1.02-1.78 1.54-2.66z"/><path d="m108.31 338.77c1.75-3.73 5.05-7.94 9.73-6.92 5.67 1.63 10.3 5.61 15.64 8.05-1.12 1.74-1.96 4.33-4.52 3.75.02 1.5.05 3.01.02 4.52-1.06 2.34-2.55 4.92-5.26 5.55-3.83 1.06-8.08-1.9-8.53-5.81-.5-3.9 1.6-7.43 2.77-11-1.63.33-3.78-.24-4.87 1.36-1.64 1.96-1.99 4.59-2.65 6.97-1.18-.26-2.35-.51-3.53-.76.35-1.91.7-3.83 1.2-5.71m12.8.6c-.59 1.85-1.46 3.65-1.61 5.61-.14 2.2 2.4 4.17 4.48 3.3 2.28-1.15 2.87-4.49 1.3-6.44-1.09-1.26-2.74-1.75-4.17-2.47z"/><path d="m95.47 361.83c2.93-4.88 5.75-9.83 8.62-14.74 1.19 1 2.75 1.76 3.36 3.29 2.21 5.02 4.05 10.19 6.13 15.26 1.87-3.29 3.75-6.57 5.63-9.85 1.29.74 2.58 1.49 3.88 2.25-2.5 4.25-4.91 8.55-7.41 12.8-.73 1.17-1.49 2.34-2.26 3.49-1.35-1.27-2.79-2.56-3.4-4.36-1.95-4.74-3.83-9.51-5.55-14.34-1.9 2.93-3.67 5.94-5.39 8.98-1.11-.61-2.21-1.23-3.31-1.86-.07-.23-.22-.69-.3-.92z"/><path d="m84.34 363.34c1.51-1.55 4.73-.45 4.91 1.68.56 2.21-1.83 4.61-4.06 3.71-2.31-.71-2.68-3.96-.85-5.39z"/><path d="m90.11 371.2c.95-1.61 1.9-3.22 2.85-4.82 6.32 3.62 12.58 7.34 18.93 10.88-.91 1.59-1.54 3.43-2.91 4.71-6.42-3.33-12.59-7.18-18.87-10.77z"/><path d="m65.3 414.11c.9-1.51 1.77-3.03 2.8-4.45 3.9 1.41 7.2 4.03 10.85 5.94 2.75 1.57 5.46 3.18 8.16 4.83-.9 1.53-1.78 3.06-2.66 4.6-6.55-3.35-12.8-7.23-19.15-10.92z"/><path d="m63.19 417.85c1.21.66 2.42 1.32 3.63 2-.86 1.49-1.72 2.98-2.58 4.48 3.54 2.04 6.86 4.63 10.81 5.83 1.89.51 2.48-2.13 3.59-3.13 1.23.69 2.47 1.39 3.7 2.09-1.19 2.35-2.62 4.56-4.28 6.6-3.08.5-6.09-.32-8.68-2-2.58-1.49-5.12-3.03-7.69-4.53-.67.85-1.33 1.7-1.99 2.56-1.08-.62-2.16-1.25-3.23-1.86.43-.92.86-1.83 1.3-2.73-1.37-.97-2.96-1.73-3.99-3.08.47-1.77 1.17-3.44 1.83-5.13 1.49 1.4 3.28 2.43 5.06 3.45.84-1.52 1.68-3.04 2.52-4.55z"/></g><path d="m191.15 283.99c1.77-.32 3.54-.64 5.31-.97 5.09 14.61 10.28 29.18 15.34 43.8-3.59.66-5.78-2.28-7.8-4.68-3.51-12.95-8.76-25.37-12.85-38.15z" fill="#fda90b"/><path d="m595.51 289.7c3.96 6.54 7.43 13.36 11.43 19.88-3.96 6.95-8.17 13.82-13.45 19.85-7.42 8.78-17.29 15.08-27.39 20.34-.58-.19-1.72-.57-2.3-.76 1.24-7.33 3.63-14.38 5-21.66 8.98-3.56 14.82-11.93 19.62-19.9.31-.79.63-1.57.97-2.34 1.01-.92 2.2-1.79 2.5-3.22 1.29-4.04 2.21-8.19 3.62-12.19z" fill="#669bd1"/><path d="m237.41 291.44c.03-.02.1-.06.14-.08-.04.02-.11.06-.14.08z" fill="#995f62" opacity=".6"/><path d="m398.35 291.48c.04-.02.12-.07.16-.09-.04.02-.12.07-.16.09z" fill="#975c5d" opacity=".6"/><path d="m140.31 292.37c4.88-2.51 12.42 1.99 11.95 7.65-1.22 5-7.78 4.28-10.87 1.52-3.2-1.84-4.49-6.88-1.08-9.17z" fill="#ffdf01"/><path d="m58.55 321.76c5-8.62 9.97-17.27 14.96-25.89 3.24 7.03 8.35 12.89 12.31 19.47 4.14 2.84 5.95 7.89 10.03 10.77 4.09 2.71 6.76 7.16 11.37 9.17.36 1.17.72 2.32 1.09 3.49-.5 1.88-.85 3.8-1.2 5.71 1.18.25 2.35.5 3.53.76.66-2.38 1.01-5.01 2.65-6.97 1.09-1.6 3.24-1.03 4.87-1.36-1.17 3.57-3.27 7.1-2.77 11 .45 3.91 4.7 6.87 8.53 5.81 2.71-.63 4.2-3.21 5.26-5.55 9.72 4.5 20.27 6.99 30.83 8.58 5.85.18 11.67.75 17.46 1.67-4.3 7.77-8.82 15.41-13.25 23.1-7.82 1.12-15.76-.51-23.37-2.26-8.67-1.91-16.86-5.39-25.17-8.42 2.5-4.25 4.91-8.55 7.41-12.8-1.3-.76-2.59-1.51-3.88-2.25-1.88 3.28-3.76 6.56-5.63 9.85-2.08-5.07-3.92-10.24-6.13-15.26-.61-1.53-2.17-2.29-3.36-3.29-2.87 4.91-5.69 9.86-8.62 14.74-.4-1.21-.77-2.43-1.09-3.65-3.7-2.77-7.57-5.35-10.86-8.62-4.35-4.35-9.34-8.11-13-13.12-4.08-4.82-7.83-9.91-11.97-14.68z" fill="#ffc100"/><path d="m119.32 307.56c-2.2-1.59-.38-4.11.43-5.93 2.68.18 4.48 1.58 5.04 4.24-1.39 1.42-3.48 3.51-5.47 1.69z" fill="#fdfefd"/><path d="m59.35 406.42c2.21-2.32 6.5.58 4.83 3.46-.62 2.1-3.76 2.69-5.05.9-1.33-1.22-.8-3.15.22-4.36z" fill="#fdfefd"/><path d="m593.49 329.43c5.28-6.03 9.49-12.9 13.45-19.85 1.19 1.97 2.41 3.91 3.58 5.89 2.35 3.93 4.53 7.95 6.8 11.92-4.02 4.98-7.51 10.4-11.95 15.03-6.76 7.02-14.09 13.64-22.68 18.34-7.39 5.1-15.84 8.25-24.52 10.3 1.48-5.08 2.56-10.26 3.91-15.37.59-2.23 1.21-4.44 1.72-6.68.58.19 1.72.57 2.3.76 10.1-5.26 19.97-11.56 27.39-20.34z" fill="#5f92c7"/><path d="m123.24 314.26c1.25.61 2.41 1.4 3.48 2.28-.9 1.4-1.79 2.82-2.67 4.25 3.5 1.87 6.76 4.25 10.47 5.71 2.13.73 2.89-1.95 3.93-3.23 1.18.67 2.37 1.34 3.57 2.01-1.12 3.48-3.64 8.02-8.02 6.93-4.48-1.46-8.33-4.32-12.36-6.69-.64.86-1.28 1.73-1.92 2.61-1.16-.64-2.32-1.28-3.47-1.9.33-.76.98-2.27 1.31-3.03-1.27-.68-2.57-1.31-3.77-2.11-.31-1.75.61-3.45 1.2-5.05 2.02.24 3.61 1.71 5.36 2.63.93-1.49 1.82-3.02 2.89-4.41z" fill="#fefefe"/><path d="m55.35 435.52c3.98-1.1 7.95.7 11.2 2.86 2.89 2.65 5.2 6.55 4.09 10.6-.61 3.34-3.39 5.57-6.4 6.73 3.15 1.89 6.3 3.79 9.63 5.34-.97 1.65-1.94 3.3-2.91 4.96-5.24-3.01-10.48-6.05-15.73-9.07-3.65-2.14-7.33-4.23-11.07-6.22 1.09-2.03 2.23-4.38 5.01-3.46-.19-2.13-.31-4.28.14-6.38 1.39-2.35 3.23-4.73 6.04-5.36m-.15 5.72c-3.34 1.41-3.81 6.41-.93 8.55 2.24 1.61 4.79 3.56 7.72 3.14 3.43-.64 5.2-5.13 3.08-7.91-2.17-2.93-6.24-5.19-9.87-3.78z" fill="#fefefe"/><path d="m494.12 526.89c-1.16-2.14.39-4.09 2-5.36 1.58.22 3.66.09 4.51 1.78.69 1.62-.2 3.37-.43 5-2.07.08-4.82.79-6.08-1.42z" fill="#fefefe"/><path d="m431.36 314.4c.05.07.16.2.21.27-.05-.07-.16-.2-.21-.27z" fill="#4d3837" opacity=".52999998"/><path d="m564.63 318.97c2.78-.76 4.56-3.08 6.32-5.19-.61 4.54-1.72 9-2.15 13.57-1.37 7.28-3.76 14.33-5 21.66-.51 2.24-1.13 4.45-1.72 6.68-5.12.87-9.74 3.35-14.75 4.6-6.99 1.82-14.09 3.6-21.35 3.68-6.83.11-13.67-.26-20.49.23-6.08-10.54-12.2-21.07-18.23-31.64.53-.53 1.61-1.61 2.14-2.15 6.89 1.99 14.06 2.5 21.03 4.11 7.98 1.57 16.05-1.06 24.02.42.04-.43.1-1.31.14-1.75 6.52-1.25 13.13-3.06 18.56-7.06 1.8-1.44 4.17-1.46 6.36-1.69.25-.5.76-1.48 1.02-1.98 1.28-.55 2.57-1.09 3.87-1.62.07-.63.15-1.25.23-1.87z" fill="#71a3d4"/><path d="m610.52 315.47c3.61-.84 5.84 3.5 9.48 2.86 11.43 19.63 22.75 39.31 34.1 58.98-3.51.39-6.47-1.74-9.52-3.1-1.35-2.57-2.96-4.99-4.44-7.47-4.58-8.01-9.35-15.92-13.98-23.91-2.95-5.14-5.76-10.37-8.84-15.44-2.27-3.97-4.45-7.99-6.8-11.92z" fill="#397dc2"/><path d="m36.97 359.13c7.18-12.47 14.39-24.92 21.58-37.37 4.14 4.77 7.89 9.86 11.97 14.68 3.66 5.01 8.65 8.77 13 13.12 3.29 3.27 7.16 5.85 10.86 8.62.32 1.22.69 2.44 1.09 3.65.08.23.23.69.3.92 1.1.63 2.2 1.25 3.31 1.86 1.72-3.04 3.49-6.05 5.39-8.98 1.72 4.83 3.6 9.6 5.55 14.34.61 1.8 2.05 3.09 3.4 4.36.77-1.15 1.53-2.32 2.26-3.49 8.31 3.03 16.5 6.51 25.17 8.42 7.61 1.75 15.55 3.38 23.37 2.26-3.91 6.66-7.7 13.39-11.6 20.05-.99 1.55-1.32 3.36-1.63 5.14-2.14-.18-4.28-.48-6.29-1.27-15.55-6.07-31.69-10.58-48.02-14-3.68-.79-7.4-1.34-11.15-1.62-.38-2.64 1.31-6.1 4.47-5.14 4.88 1.66 8.99 4.95 13.57 7.24.86-1.58 1.73-3.15 2.6-4.72-5.1-2.64-9.71-6.33-15.22-8.08-5.43-1.72-10.33 4.26-8.61 9.41-6.33-.34-12.56-1.64-18.88-2.04l.64-.48c1.46-.35 2.93-.71 4.4-1.06-4.03-3.46-8.42-6.49-12.3-10.11-3.68-3.69-6.79-8-11.16-10.93-1.99-1.23-3.26-3.2-4.27-5.25-1.18.68-2.47.92-3.8.47m47.37 4.21c-1.83 1.43-1.46 4.68.85 5.39 2.23.9 4.62-1.5 4.06-3.71-.18-2.13-3.4-3.23-4.91-1.68m5.77 7.86c6.28 3.59 12.45 7.44 18.87 10.77 1.37-1.28 2-3.12 2.91-4.71-6.35-3.54-12.61-7.26-18.93-10.88-.95 1.6-1.9 3.21-2.85 4.82z" fill="#ffb200"/><path d="m195.11 505.63c3.55 3.85 6.92 7.87 10.66 11.54 3.13 3.14 6.12 6.43 9.22 9.6-4.68 12.35-3.1 25.77-1.44 38.54 1.76 9.82 6.03 18.88 9.79 28.05-.06.4-.19 1.22-.25 1.63-9.06.29-18.12-.08-27.17.07-2.29-4.89-2.96-10.29-4.63-15.38-1.34-4.82-3.49-9.55-3.29-14.66.11-4.45-1.84-8.59-1.94-13.01-.62-9.82 1.81-19.43 2.73-29.14 1.68-5.85 1.94-12.59 6.32-17.24z" fill="#ffb200"/><path d="m204 322.14c2.02 2.4 4.21 5.34 7.8 4.68 3.12 9.35 6.9 18.53 9.56 28-1.58 1.12-3.27 2.06-4.92 3.06-.73-.41-1.44-.83-2.16-1.22.23-1.07.28-2.14.16-3.2-3.31-10.49-8.25-20.51-10.44-31.32z" fill="#feb90e"/><path d="m605.37 342.42c4.44-4.63 7.93-10.05 11.95-15.03 3.08 5.07 5.89 10.3 8.84 15.44-3.96 7.51-11.09 12.5-16.63 18.74-2.79 3.32-6.89 4.99-10.09 7.82-3.51 3.06-8.07 4.51-11.65 7.48-3.54 2.19-7.26 4.71-11.54 4.94-4.71 2.33-9.78 3.77-14.61 5.82-2.8 1.22-5.9 1.5-8.85.7 1.53-5.84 3.48-11.55 5.38-17.27 8.68-2.05 17.13-5.2 24.52-10.3 8.59-4.7 15.92-11.32 22.68-18.34z" fill="#5789bc"/><path d="m121.11 339.37c1.43.72 3.08 1.21 4.17 2.47 1.57 1.95.98 5.29-1.3 6.44-2.08.87-4.62-1.1-4.48-3.3.15-1.96 1.02-3.76 1.61-5.61z" fill="#fec702"/><path d="m183 349.04c1.5-2.64 2.71-5.61 5.29-7.41-1.15 2.67-2.54 5.22-4.02 7.72-11.19 19.06-21.93 38.39-33.28 57.36.31-1.78.64-3.59 1.63-5.14 3.9-6.66 7.69-13.39 11.6-20.05 4.43-7.69 8.95-15.33 13.25-23.1 1.79-3.16 3.78-6.2 5.53-9.38z" fill="#fcb93e"/><path d="m188.29 341.63c1.9.96 3.74 2.05 5.51 3.23-.13.52-.41 1.54-.54 2.05-14.04 24.65-28.34 49.15-42.52 73.72-3.25-.65-6.13 1.27-9.04 2.37 3.1-5.43 6.26-10.82 9.29-16.29 11.35-18.97 22.09-38.3 33.28-57.36 1.48-2.5 2.87-5.05 4.02-7.72z" fill="#f65f03"/><path d="m609.53 361.57c5.54-6.24 12.67-11.23 16.63-18.74 4.63 7.99 9.4 15.9 13.98 23.91-4.16 3.66-7.38 8.24-11.58 11.87-7.57 6.54-15.3 13.02-24.08 17.92-8.86 5.2-18.5 8.81-27.96 12.73-4.72 1.56-9.6 2.51-14.36 3.91-6.22 1.85-12.73 2.09-19.12 2.98 2.28-6.56 4.97-12.97 6.89-19.65.92-2.74 2-5.42 2.86-8.17 2.95.8 6.05.52 8.85-.7 4.83-2.05 9.9-3.49 14.61-5.82 4.28-.23 8-2.75 11.54-4.94 3.58-2.97 8.14-4.42 11.65-7.48 3.2-2.83 7.3-4.5 10.09-7.82z" fill="#4e7eaf"/><path d="m640.59 480.09c3.22-.44 6.41-1.07 9.54-1.94.13.43.39 1.29.52 1.72-2.08 4.78-2.64 10.05-4.84 14.8-3.04 9.9-7.61 19.24-11.09 28.99-.75 1.3.28 2.51.78 3.69-9.35 16.35-18.94 32.56-28.16 48.98-3.07 6.9-7.95 13.02-14.4 17.05.4-4.25 3.47-7.38 5.15-11.11 3.3-7.78 8.18-14.78 11.36-22.61 1.66-4.28 4.45-8 5.98-12.33 2.91-7.89 6.57-15.48 9.46-23.39 6.96-13.95 10.71-29.15 15.7-43.85z" fill="#244260"/><path d="m435.09 357.11c.21-.58.63-1.74.84-2.32-.21.58-.63 1.74-.84 2.32z" fill="#8b2d30" opacity=".57999998"/><path d="m547.33 360.29c5.01-1.25 9.63-3.73 14.75-4.6-1.35 5.11-2.43 10.29-3.91 15.37-1.9 5.72-3.85 11.43-5.38 17.27-.86 2.75-1.94 5.43-2.86 8.17-4.35.09-8.56 1.81-12.93 1.24-1.98-.2-3.93-.63-5.91-.72-1.96.62-2.95 2.74-4.32 4.15-7.08-12.33-14.21-24.63-21.28-36.97 6.82-.49 13.66-.12 20.49-.23 7.26-.08 14.36-1.86 21.35-3.68z" fill="#6795c6"/><path d="m36.97 359.13c1.33.45 2.62.21 3.8-.47 1.01 2.05 2.28 4.02 4.27 5.25 4.37 2.93 7.48 7.24 11.16 10.93 3.88 3.62 8.27 6.65 12.3 10.11-1.47.35-2.94.71-4.4 1.06-9.75-.29-19.48-1.18-29.24-1.17-4.15-.02-8.31.08-12.43-.52 4.82-8.42 9.67-16.81 14.54-25.19z" fill="#ffa500"/><path d="m640.14 366.74c1.48 2.48 3.09 4.9 4.44 7.47.74 1.44 1.43 2.92 2.19 4.36-3.07 3.05-5.51 6.71-8.98 9.33-5.34 4.24-10.35 8.9-15.81 12.99-5.31 3.01-9.96 7.09-15.56 9.6-11.14 6.86-23.73 10.85-36.15 14.72-5.14 1.81-10.7 1.75-15.89 3.41-3.73 1.3-7.7.77-11.54.49-1.04-1.8-2.06-3.6-3.08-5.4 1.18-2.48 2.33-4.98 3.28-7.56 6.39-.89 12.9-1.13 19.12-2.98 4.76-1.4 9.64-2.35 14.36-3.91 9.46-3.92 19.1-7.53 27.96-12.73 8.78-4.9 16.51-11.38 24.08-17.92 4.2-3.63 7.42-8.21 11.58-11.87z" fill="#4574a4"/><path d="m644.58 374.21c3.05 1.36 6.01 3.49 9.52 3.1 5.27 8.97 10.41 18.01 15.64 27 3.29 5.61 6.15 11.49 8.17 17.69-.87.16-1.74.33-2.59.5-1.91-2.86-4.95-4.73-8.46-4-.67-2.4-1.52-4.74-2.25-7.1-1.79-6.87-6.37-12.45-9.66-18.6-2.55-4.85-5.44-9.5-8.18-14.23-.76-1.44-1.45-2.92-2.19-4.36z" fill="#3372b2"/><path d="m637.79 387.9c3.47-2.62 5.91-6.28 8.98-9.33 2.74 4.73 5.63 9.38 8.18 14.23-10.06 9.09-20.01 18.49-31.68 25.53-3.33 2.54-7.28 4-11.32 4.96-1.65 4.89-7.59 5.04-11.54 7.12-8.07 4.44-17.46 5.35-25.86 8.99-4.2 1.85-9.03.97-13.19 2.94-3.31 1.43-6.99.69-10.48.75-2.66-4.67-5.36-9.32-8.04-13.98 3.84.28 7.81.81 11.54-.49 5.19-1.66 10.75-1.6 15.89-3.41 12.42-3.87 25.01-7.86 36.15-14.72 5.6-2.51 10.25-6.59 15.56-9.6 5.46-4.09 10.47-8.75 15.81-12.99z" fill="#406d9b"/><path d="m18.27 391.5c1.39-2.39 2.78-4.78 4.16-7.18 4.12.6 8.28.5 12.43.52 2.33 3.25 4.13 6.82 5.8 10.44 3.15 6.02 6.99 11.67 11.11 17.07 1.49 2.06 3.84 3.81 3.84 6.6-.66 1.69-1.36 3.36-1.83 5.13 1.03 1.35 2.62 2.11 3.99 3.08-.44.9-.87 1.81-1.3 2.73 1.07.61 2.15 1.24 3.23 1.86.66-.86 1.32-1.71 1.99-2.56 2.57 1.5 5.11 3.04 7.69 4.53-.94 1.55-1.89 3.1-2.83 4.66-3.25-2.16-7.22-3.96-11.2-2.86-2.81.63-4.65 3.01-6.04 5.36-4.77-8.72-10.54-16.81-16.26-24.92-2.45-3.35-3.95-7.27-6.27-10.7-3.06-4.47-4.7-9.8-8.51-13.76z" fill="#f4ad33"/><path d="m34.86 384.84c9.76-.01 19.49.88 29.24 1.17l-.64.48c-.21.47-.61 1.39-.82 1.86 1.94 5.36 6.22 9.31 9.78 13.6-.45.83-.89 1.67-1.33 2.52 1.61.84 3.22 1.69 4.81 2.57-.13.43-.39 1.3-.53 1.74 1.75 1.56 3.5 3.11 5.25 4.67-.56.71-1.11 1.43-1.67 2.15-3.65-1.91-6.95-4.53-10.85-5.94-1.03 1.42-1.9 2.94-2.8 4.45 6.35 3.69 12.6 7.57 19.15 10.92.88-1.54 1.76-3.07 2.66-4.6 5 3.05 10.5 5.13 15.73 7.75 4.79 2.37 10.21 2.5 15.33 3.66 5.45 1.42 11.31.78 16.49 3.27-5.09 8.86-10.03 17.82-15.44 26.49.41-2.1.87-4.18 1.41-6.24-6.38-2.48-13.09-3.89-19.82-5.09-2.35-5.56-9.44-3.98-13.07-8.04-2.72-2.86-5.93-5.21-9.68-6.51 1.66-2.04 3.09-4.25 4.28-6.6-1.23-.7-2.47-1.4-3.7-2.09-1.11 1-1.7 3.64-3.59 3.13-3.95-1.2-7.27-3.79-10.81-5.83.86-1.5 1.72-2.99 2.58-4.48-1.21-.68-2.42-1.34-3.63-2-.84 1.51-1.68 3.03-2.52 4.55-1.78-1.02-3.57-2.05-5.06-3.45 0-2.79-2.35-4.54-3.84-6.6-4.12-5.4-7.96-11.05-11.11-17.07-1.67-3.62-3.47-7.19-5.8-10.44m24.49 21.58c-1.02 1.21-1.55 3.14-.22 4.36 1.29 1.79 4.43 1.2 5.05-.9 1.67-2.88-2.62-5.78-4.83-3.46z" fill="#fdbf38"/><path d="m62.64 388.35c.21-.47.61-1.39.82-1.86 6.32.4 12.55 1.7 18.88 2.04.1.57.21 1.16.32 1.74-2.18.66-4.83 1.06-5.99 3.31-1.69 2.23-1.14 5.09-.92 7.66-.83-.29-1.67-.58-2.51-.87-.2.39-.62 1.18-.82 1.58-3.56-4.29-7.84-8.24-9.78-13.6z" fill="#fecb3c"/><path d="m85.53 389.82c3.75.28 7.47.83 11.15 1.62 16.33 3.42 32.47 7.93 48.02 14 2.01.79 4.15 1.09 6.29 1.27-3.03 5.47-6.19 10.86-9.29 16.29-2.4 4.01-4.76 8.03-7.04 12.11-5.18-2.49-11.04-1.85-16.49-3.27-5.12-1.16-10.54-1.29-15.33-3.66-5.23-2.62-10.73-4.7-15.73-7.75-2.7-1.65-5.41-3.26-8.16-4.83.56-.72 1.11-1.44 1.67-2.15-1.75-1.56-3.5-3.11-5.25-4.67.14-.44.4-1.31.53-1.74 4.72 2.64 9.37 5.4 14.07 8.07.94-1.47 1.87-2.95 2.81-4.41-4.04-2.91-8.81-4.69-12.64-7.88-2.68-2.2-.74-7.55 2.91-6.62 5.02 1.62 9.18 5.11 13.93 7.37.74-1.5 1.53-2.99 2.12-4.55-4.1-3.68-9.94-4.91-13.57-9.2z" fill="#ffd03d"/><path d="m7.43 410.63c3.37-6.51 7.21-12.77 10.84-19.13 3.81 3.96 5.45 9.29 8.51 13.76 2.32 3.43 3.82 7.35 6.27 10.7 5.72 8.11 11.49 16.2 16.26 24.92-.45 2.1-.33 4.25-.14 6.38-2.78-.92-3.92 1.43-5.01 3.46 3.74 1.99 7.42 4.08 11.07 6.22-.47.34-1.41 1.03-1.89 1.37 4.48.94 6.19 5.45 8.78 8.65-.3.27-.91.79-1.22 1.06-.72.11-2.15.33-2.87.44-.26 1.42-.53 2.85-.8 4.28-.29.41-.86 1.24-1.15 1.65 2.22-11.36-9.97-20.82-20.59-18.72-3.73-6.33-8.49-12.05-11.42-18.84-5.87-8.52-10.17-18.09-16.64-26.2z" fill="#e6992c"/><path d="m623.27 418.33c11.67-7.04 21.62-16.44 31.68-25.53 3.29 6.15 7.87 11.73 9.66 18.6-.64 5.31-.03 10.9-2.18 15.94-1.58 4.28-4.71 7.68-7.24 11.39-4.54 3.3-8.97 6.81-13.97 9.39-21.13 10.37-45.24 11.94-68.39 10.65-4.66-.27-9.26-1.03-13.88-1.59-2.62-4.74-5.39-9.39-8.07-14.09 3.49-.06 7.17.68 10.48-.75 4.16-1.97 8.99-1.09 13.19-2.94 8.4-3.64 17.79-4.55 25.86-8.99 3.95-2.08 9.89-2.23 11.54-7.12 4.04-.96 7.99-2.42 11.32-4.96z" fill="#36618e"/><path d="m537 397.74c4.37.57 8.58-1.15 12.93-1.24-1.92 6.68-4.61 13.09-6.89 19.65-.95 2.58-2.1 5.08-3.28 7.56-4.33-7.51-8.66-15.03-12.99-22.54 1.37-1.41 2.36-3.53 4.32-4.15 1.98.09 3.93.52 5.91.72z" fill="#5b89b8"/><path d="m .95 429.86c1.21-6.69 3.4-13.18 6.48-19.23 6.47 8.11 10.77 17.68 16.64 26.2 2.93 6.79 7.69 12.51 11.42 18.84-5.05 1.51-8.49 5.9-10.06 10.77-7.97-12.13-14.43-25.14-22.55-37.18-.48.15-1.44.45-1.93.6z" fill="#cd8024"/><path d="m662.43 427.34c2.15-5.04 1.54-10.63 2.18-15.94.73 2.36 1.58 4.7 2.25 7.1 1.92 7.64 2.62 15.73.76 23.46-1.74 6.47-4.79 12.74-9.79 17.33-5.13 5.01-11.5 8.71-18.36 10.8-6.7 1.81-13.57 3.12-20.52 3.18-16.91.14-33.81.01-50.71.12-3.05-5.43-6.29-10.76-9.29-16.21 4.62.56 9.22 1.32 13.88 1.59-.1.5-.31 1.5-.41 2 7.3 2.41 14.87 4.62 22.64 4.38 4.34-.12 8.68.06 13.01-.18 9.19-1.04 17.94-4.25 26.19-8.32.11-.27.32-.81.43-1.08 6.1-2.32 10.87-6.94 15.97-10.85 2.1-1.49 3.6-3.6 4.53-5.99 2.53-3.71 5.66-7.11 7.24-11.39z" fill="#143f6b"/><path d="m666.86 418.5c3.51-.73 6.55 1.14 8.46 4 .85-.17 1.72-.34 2.59-.5 2.9 9 3.83 18.83 1.35 28.04-2.02-.42-3.95-1.16-5.74-2.15.06-.93.12-1.85.19-2.77-1.49-.28-2.95-.66-4.42-.95-.56-.75-1.12-1.48-1.67-2.21 1.86-7.73 1.16-15.82-.76-23.46z" fill="#2d69a7"/><path d="m141.7 423c2.91-1.1 5.79-3.02 9.04-2.37-10.23 17.77-20.48 35.54-30.77 53.28-2.77-.35-5.52.21-8.19.9.57-1.09 1.14-2.17 1.72-3.24 2.22-3.13 4.11-6.49 5.72-9.97 5.41-8.67 10.35-17.63 15.44-26.49 2.28-4.08 4.64-8.1 7.04-12.11z" fill="#f76b05"/><path d="m .95 429.86c.49-.15 1.45-.45 1.93-.6 8.12 12.04 14.58 25.05 22.55 37.18-1.11 5.25 1.24 10.28 4.76 14.04 3.19 7.92 9.28 14.29 12.13 22.38 1.55 4.36 4.34 8.15 5.79 12.55-3.55-3.42-6.49-7.42-8.85-11.75-.97-1.93-2.56-3.4-4.28-4.66 1.22 2.88 2.55 5.74 3.18 8.83-.73-.36-1.45-.72-2.18-1.07-.49-1.76-1.73-2.78-3.66-2.68-9.4-15.75-18.12-31.9-27.81-47.46-1.96-3.6-3.21-7.56-3.67-11.63-.12-4.82-.15-9.64-.03-14.46z" fill="#ac641c"/><path d="m0 432.07.81-1.54c-.12 4.82-.09 9.64.03 14.46l-.84 1.45z" fill="#6b4f2f" opacity=".56000001"/><path d="m69.38 433.72c2.59 1.68 5.6 2.5 8.68 2 3.75 1.3 6.96 3.65 9.68 6.51 3.63 4.06 10.72 2.48 13.07 8.04 6.73 1.2 13.44 2.61 19.82 5.09-.54 2.06-1 4.14-1.41 6.24-1.61 3.48-3.5 6.84-5.72 9.97-4.07 2.13-5.41 6.95-6.43 11.09-.84 1.67-1.77 3.29-2.79 4.86.1-1.57.14-3.12.18-4.68-4.29-1.88-8.8-3.66-12.11-7.09-3.82-1.42-6.35-4.79-9.97-6.54-3.86-1.65-4.45-6.8-8.51-8.16-3.33-1.55-6.48-3.45-9.63-5.34 3.01-1.16 5.79-3.39 6.4-6.73 1.11-4.05-1.2-7.95-4.09-10.6.94-1.56 1.89-3.11 2.83-4.66z" fill="#fcb033"/><path d="m641.22 448.12c5-2.58 9.43-6.09 13.97-9.39-.93 2.39-2.43 4.5-4.53 5.99-5.1 3.91-9.87 8.53-15.97 10.85-.11.27-.32.81-.43 1.08-8.25 4.07-17 7.28-26.19 8.32-4.33.24-8.67.06-13.01.18-7.77.24-15.34-1.97-22.64-4.38.1-.5.31-1.5.41-2 23.15 1.29 47.26-.28 68.39-10.65z" fill="#194675"/><path d="m55.2 441.24c3.63-1.41 7.7.85 9.87 3.78 2.12 2.78.35 7.27-3.08 7.91-2.93.42-5.48-1.53-7.72-3.14-2.88-2.14-2.41-7.14.93-8.55z" fill="#f3a730"/><path d="m657.83 459.29c5-4.59 8.05-10.86 9.79-17.33.55.73 1.11 1.46 1.67 2.21 1.47.29 2.93.67 4.42.95-.07.92-.13 1.84-.19 2.77 1.79.99 3.72 1.73 5.74 2.15-1.51 5.46-4.44 10.38-8.04 14.71-1.45 1.15-2.91 2.27-4.34 3.43.41-1.65.87-3.28 1.37-4.9-3.26-1.84-6.61-3.74-10.42-3.99z" fill="#29629d"/><path d="m407.47 444.99c1.64.91 3.29 1.82 4.88 2.85-5.57 7.27-12.09 13.75-17.83 20.89-2.41 2.83-4.87 5.6-7.36 8.37.37-1.67.65-3.35.95-5.02-.42-.63-1.27-1.89-1.69-2.52 7.02-8.19 14.12-16.31 21.05-24.57z" fill="#3778ba"/><path d="m412.35 447.84.3.44c.15 8.39-.07 16.78.09 25.17.05 2.18.08 4.37.09 6.56l.47.2c.41.19 1.21.58 1.61.77 3.28 1.7 7.12 1.02 10.68 1.27 6.62 10.97 12.2 22.73 14.81 35.36 1.31 4.87 1.19 10.15 3.59 14.71-1.56 1.08-3.05 2.27-4.54 3.44-.12-1.2-.24-2.39-.35-3.58-1.85.1-3.69.19-5.52.32.37 8.52.1 17.06.21 25.59 2.26-.05 4.51-.11 6.77-.16.05.41.13 1.23.17 1.64-.75-.13-1.5-.26-2.24-.37-.07 6.49-2.02 12.73-4.62 18.62-2.3 6.06-5 12-8.71 17.34-1.63 2.22-2.92 4.67-3.58 7.36-2.97 0-5.94.02-8.9.06 0 10.14.07 20.28-.06 30.42h-.02l-1.1-.75c-5.05-6.11-10.35-12.02-15.42-18.11 4.14-6.46 10.97-10.53 15.1-16.99 5.28-8.07 10.65-16.35 13.18-25.76 1.2-4.55 3.57-8.77 4.22-13.46-.1-1.73-.24-3.46-.36-5.19-4.97-.06-9.93-.07-14.9-.04-.01-3.48-.01-6.97-.01-10.45 4.49.04 8.99.03 13.48-.14-.02-1.71-.02-3.41-.02-5.11-4.45-.12-8.9-.13-13.35-.04-.09-3.05-.11-6.11-.06-9.16 4.76.01 9.54.01 14.31-.08-.06-1.82-.09-3.62-.18-5.42-.17-3.54-1.09-6.99-2.51-10.21-3.11-7.16-5.34-14.79-9.9-21.22-5.67-8.34-12.04-16.55-20.56-22.14 5.74-7.14 12.26-13.62 17.83-20.89z" fill="#6a9ed5"/><path d="m55.23 456.94c5.25 3.02 10.49 6.06 15.73 9.07.97-1.66 1.94-3.31 2.91-4.96 4.06 1.36 4.65 6.51 8.51 8.16 3.62 1.75 6.15 5.12 9.97 6.54 3.31 3.43 7.82 5.21 12.11 7.09-.04 1.56-.08 3.11-.18 4.68-.18.29-.54.86-.72 1.14-4.02 3.19-6.39 8.07-7.48 13-.91 2.57-2.35 4.9-4.02 7.04.54-3.25 1.88-6.26 2.85-9.39-3.41-1.4-7.25-2.56-9.35-5.85-1.76-2.73-4.45-4.46-7.56-5.26-2.05-3.91-5.91-6.26-8.58-9.65-2.81-3.54-6.15-6.67-8.52-10.53.31-.27.92-.79 1.22-1.06-2.59-3.2-4.3-7.71-8.78-8.65.48-.34 1.42-1.03 1.89-1.37z" fill="#f69d2c"/><path d="m639.47 470.09c6.86-2.09 13.23-5.79 18.36-10.8 3.81.25 7.16 2.15 10.42 3.99-.5 1.62-.96 3.25-1.37 4.9-4.55 3.9-10 6.57-15.66 8.44-4.1-1.83-8.21-3.73-11.75-6.53z" fill="#265c94"/><path d="m36.1 461.16c5.84-.74 11.97 2.76 14.62 7.95 2.39 4.68-1.56 10.7-6.75 10.64-5.46-.07-11-3.33-13.4-8.3-2.01-4.17.97-9.64 5.53-10.29z" fill="#d58325"/><path d="m666.88 468.18c1.43-1.16 2.89-2.28 4.34-3.43-.65 1.25-1.25 2.53-1.91 3.77-6.02 3.9-12.15 7.82-19.18 9.63-3.13.87-6.32 1.5-9.54 1.94-7.19 1.26-14.5.78-21.76.86-8.71-.11-17.43-.07-26.14.15-3.01-.14-6.01-.14-9.01-.15-11.36-.01-22.74-.22-34.08.36-5.98-.28-11.96-.1-17.94-.09-6.37-.26-12.76-.24-19.13.05-7.85-.55-15.72-.18-23.58-.35-15.78.26-31.58-.17-47.35.33-8.89-.46-17.8-.38-26.69-.27-.4-.19-1.2-.58-1.61-.77 18.08-.55 36.17.09 54.25-.35 34.6.3 69.22.13 103.83-.01 12.52.33 25.06.08 37.59.15 14.12-.16 28.63 1.19 42.25-3.38 5.66-1.87 11.11-4.54 15.66-8.44z" fill="#7d9eb9"/><path d="m58.03 468.46c.72-.11 2.15-.33 2.87-.44 2.37 3.86 5.71 6.99 8.52 10.53 2.67 3.39 6.53 5.74 8.58 9.65 3.11.8 5.8 2.53 7.56 5.26 2.1 3.29 5.94 4.45 9.35 5.85-.97 3.13-2.31 6.14-2.85 9.39-.05.17-.15.52-.2.69l-.43.4c-3.32 2.07-4.47 5.99-6.49 9.11-1.49-2.75-3.33-5.34-6.04-7.01-2.82-2.8-4.7-6.43-7.56-9.21-3.63-3.5-5.52-8.42-9.46-11.61-3.72-3.09-5.96-7.44-8.42-11.49.92-1.71 1.74-3.47 2.62-5.19.29-.41.86-1.24 1.15-1.65.27-1.43.54-2.86.8-4.28z" fill="#eb8e28"/><path d="m650.13 478.15c7.03-1.81 13.16-5.73 19.18-9.63-10.98 19.77-22.54 39.22-33.81 58.83-.5-1.18-1.53-2.39-.78-3.69 3.48-9.75 8.05-19.09 11.09-28.99 2.2-4.75 2.76-10.02 4.84-14.8-.13-.43-.39-1.29-.52-1.72z" fill="#1c3652"/><path d="m368.15 490.73c6.15-7 12.16-14.13 18.27-21.17.42.63 1.27 1.89 1.69 2.52-.3 1.67-.58 3.35-.95 5.02-2.07 2.37-4.12 4.77-6.12 7.21-3.36 3.94-6.78 7.83-10.28 11.64.22-1.69.49-3.37.6-5.07-1.03-.38-2.16-.14-3.21-.15z" fill="#306eac"/><path d="m618.95 473.27c6.95-.06 13.82-1.37 20.52-3.18 3.54 2.8 7.65 4.7 11.75 6.53-13.62 4.57-28.13 3.22-42.25 3.38-12.53-.07-25.07.18-37.59-.15-6.97-1.66-14.16-.36-21.21-1.17-3.73-.55-7.35-2.24-9.75-5.21 9.27-.07 18.54.04 27.82-.08 16.9-.11 33.8.02 50.71-.12z" fill="#1e5083"/><path d="m107.07 482.66c1.02-4.14 2.36-8.96 6.43-11.09-.58 1.07-1.15 2.15-1.72 3.24-1.42 2.7-3.11 5.25-4.71 7.85z" fill="#fcae51"/><path d="m111.78 474.81c2.67-.69 5.42-1.25 8.19-.9-.76 1.3-1.53 2.6-2.29 3.92-.31.5-.93 1.51-1.24 2.01-7.34 12.23-14.31 24.71-21.19 37.21-.55.82-1.1 1.64-1.65 2.48-3.48-.42-5.82 3.06-9.29 3.01 2.46-4.21 4.89-8.43 7.12-12.75l.43-.4c.05-.17.15-.52.2-.69 1.67-2.14 3.11-4.47 4.02-7.04 2.75-4.18 5.35-8.46 7.48-13 .18-.28.54-.85.72-1.14 1.02-1.57 1.95-3.19 2.79-4.86 1.6-2.6 3.29-5.15 4.71-7.85z" fill="#f87508"/><path d="m412.74 473.45c6.91-.04 13.81-.08 20.71.04 2.68 2.55 6.56 1.91 9.76 3.23 7.44 4.35 16.47.21 24.34 3.14-18.08.44-36.17-.2-54.25.35l-.47-.2c-.01-2.19-.04-4.38-.09-6.56z" fill="#0c3259"/><path d="m433.45 473.49c35.66-.08 71.31-.1 106.97-.02 2.4 2.97 6.02 4.66 9.75 5.21 7.05.81 14.24-.49 21.21 1.17-34.61.14-69.23.31-103.83.01-7.87-2.93-16.9 1.21-24.34-3.14-3.2-1.32-7.08-.68-9.76-3.23z" fill="#133e6a"/><path d="m116.44 479.84c.31-.5.93-1.51 1.24-2.01l.29 1c62.92.49 125.85.33 188.77.44l.05.8-.35.06c-15.31-.31-30.64-.26-45.95-.03-10.99-.21-21.99-.27-32.98-.01-17.86-.26-35.72-.13-53.57-.07-.4.01-1.21.04-1.61.05-12.37-.21-24.75 0-37.12-.12-6.26-.11-12.51.02-18.77-.11z" fill="#383532" opacity=".22000002"/><path d="m44.45 485.31c3.59-.75 6.87-2.72 9.01-5.73 2.46 4.05 4.7 8.4 8.42 11.49 3.94 3.19 5.83 8.11 9.46 11.61 2.86 2.78 4.74 6.41 7.56 9.21 2.71 1.67 4.55 4.26 6.04 7.01-2.66 4.59-5.29 9.2-7.77 13.9-3.08-3.68-5.13-8.07-8.18-11.77-2.33-2.8-4.25-5.9-6.19-8.97-3.96-6.22-9.92-11-13.02-17.79-1.31-3.28-4.87-5.35-5.33-8.96z" fill="#db7d22"/><path d="m95.25 517.05c6.88-12.5 13.85-24.98 21.19-37.21 6.26.13 12.51 0 18.77.11-4.88 6.83-10.23 13.36-14.24 20.77-4.95 6.64-8.1 14.36-11.3 21.94-5.19 12.75-8.34 26.54-7.69 40.36.8 11.77 6.27 24.78 17.97 29.35l-.09.67c-.75.07-2.25.2-2.99.26-.42-.12-1.25-.36-1.66-.48-6.02-2.22-12.33-4.17-17.35-8.33-1-6.48-4.88-12.1-5.56-18.65-1.6-8.61-3.39-17.45-1.67-26.2 1.38-5.73 1.98-11.66 4.02-17.22.67-1.71.79-3.56.6-5.37z" fill="#f85800"/><path d="m135.21 479.95c12.37.12 24.75-.09 37.12.12-2.24.38-4.48.82-6.72 1.22-1.82 6.39-5.3 12.18-6.69 18.71-1.09 4.41-2.9 8.62-3.65 13.12-1.37 9.28-3.5 18.51-3.42 27.94.02 5.98.01 11.96-.02 17.94-.04 7.44 2.11 14.62 3.33 21.9.8 4.8 2.52 9.37 3.97 14-9.01.11-18.03.2-27.04.34-5.13.06-10.29-.47-15.22-1.94.74-.06 2.24-.19 2.99-.26l.09-.67c.75-4.32-.37-8.58-1.34-12.75-1.4-8.79-2.22-17.65-2.89-26.51-1.32-6.04.63-12.07.56-18.14 1.28-11.46 2.79-22.89 4.69-34.25 4.01-7.41 9.36-13.94 14.24-20.77z" fill="#ff8700"/><path d="m172.33 480.07c.4-.01 1.21-.04 1.61-.05 2.66 3.38 5.19 6.88 7.93 10.2-3.51 3.62-4.53 8.81-6.26 13.39-2.99 11.97-6.93 23.96-6.75 36.44-.17 3.52-1.15 7.05-.44 10.58.92 5.2.24 10.52 1.09 15.74 1.4 8.92 4.18 17.55 5.86 26.41.94.74 1.89 1.48 2.86 2.2-6.37-.1-12.74.15-19.1-.08-1.45-4.63-3.17-9.2-3.97-14-1.22-7.28-3.37-14.46-3.33-21.9.03-5.98.04-11.96.02-17.94-.08-9.43 2.05-18.66 3.42-27.94.75-4.5 2.56-8.71 3.65-13.12 1.39-6.53 4.87-12.32 6.69-18.71 2.24-.4 4.48-.84 6.72-1.22z" fill="#ff9700"/><path d="m173.94 480.02c17.85-.06 35.71-.19 53.57.07-2.56.56-5.15.99-7.76 1.21-3.29 5.21-5.15 11.12-7.86 16.61-2.96 6.1-4.2 12.81-6.12 19.26-3.74-3.67-7.11-7.69-10.66-11.54-4.46-5.1-8.87-10.23-13.24-15.41-2.74-3.32-5.27-6.82-7.93-10.2z" fill="#ffbb37"/><path d="m227.51 480.09c10.99-.26 21.99-.2 32.98.01-3.64 1.03-7.43 1.12-11.19 1.04.52.95 1.04 1.9 1.57 2.87-3.06 4.6-5.9 9.34-8.97 13.94-6.69 12.71-10.9 26.96-11.02 41.39-.76.21-1.5.42-2.25.65-4.62-4.33-9.15-8.76-13.64-13.22-3.1-3.17-6.09-6.46-9.22-9.6 1.92-6.45 3.16-13.16 6.12-19.26 2.71-5.49 4.57-11.4 7.86-16.61 2.61-.22 5.2-.65 7.76-1.21z" fill="#ffc83b"/><path d="m306.44 480.13.35-.06c.08 38.38-.08 76.76.05 115.14-1.86-.02-3.72-.03-5.58-.01-12.99-8.24-26.08-16.41-38.14-26.01-2.43-8.87-5.34-17.91-4.58-27.22-.57-7.93 1.34-15.81 4.37-23.09 4.14-12.19 12.8-22.25 22.6-30.33 2.76-2.05 5.7-3.86 8.31-6.1-.92-.41-1.83-.81-2.74-1.21 5.12-.32 10.37.42 15.36-1.11z" fill="#ffe544"/><path d="m618.83 480.95c7.26-.08 14.57.4 21.76-.86-4.99 14.7-8.74 29.9-15.7 43.85-2.89 7.91-6.55 15.5-9.46 23.39-1.53 4.33-4.32 8.05-5.98 12.33-3.18 7.83-8.06 14.83-11.36 22.61-1.68 3.73-4.75 6.86-5.15 11.11-5.15 3.44-11 5.72-17.01 7.16 7.17-13.83 14.48-27.61 20.65-41.92 6.31-11.91 9.52-25.08 14.38-37.59 1.58-5.81 4.96-11 5.9-16.99 1.32-7.19 2.46-14.4 3.64-21.61-.41-.37-1.25-1.11-1.67-1.48z" fill="#2e5074"/><path d="m30.19 480.48c4.12 3.04 9.01 5.34 14.26 4.83.46 3.61 4.02 5.68 5.33 8.96 3.1 6.79 9.06 11.57 13.02 17.79 1.94 3.07 3.86 6.17 6.19 8.97 3.05 3.7 5.1 8.09 8.18 11.77-2.76 5.6-4.67 11.59-6.19 17.64-8.06-11.39-15.57-23.15-22.87-35.03-1.45-4.4-4.24-8.19-5.79-12.55-2.85-8.09-8.94-14.46-12.13-22.38z" fill="#c46a1d"/><path d="m414.91 480.98c8.89-.11 17.8-.19 26.69.27 3.29.78 6.66 1.05 10.04.95-.51.6-1.01 1.2-1.51 1.81 7.86 15.75 12.34 33.15 13.14 50.73.65.09 1.97.27 2.62.36-3.95 4.86-4.41 11.66-2.05 17.33-2.04 4.57-1.98 9.64-3.01 14.45-1.63 8.92-5.2 17.3-8.28 25.78-1.48 3.22-3.17 6.38-3.97 9.87-9 0-18 .05-27-.01.66-2.69 1.95-5.14 3.58-7.36 3.71-5.34 6.41-11.28 8.71-17.34 2.6-5.89 4.55-12.13 4.62-18.62.74.11 1.49.24 2.24.37-.04-.41-.12-1.23-.17-1.64-.37-5.27-.36-10.56-.13-15.83.06-3.2 3.4-5.79 6.52-4.93 2.24.44 3.4 2.79 3.5 4.9.34 5.32 0 10.65.14 15.98 2.15 0 4.31 0 6.47.01-.29-6.77.78-13.71-.73-20.36-1.49-5.2-7.58-7.05-12.34-5.38-2.4-4.56-2.28-9.84-3.59-14.71-2.61-12.63-8.19-24.39-14.81-35.36-3.56-.25-7.4.43-10.68-1.27z" fill="#6498ce"/><path d="m441.6 481.25c15.77-.5 31.57-.07 47.35-.33.23 1.1.46 2.2.68 3.31 1.84 10.65 3.71 21.32 6.73 31.72.35 1.85 1.45 4.08-.24 5.58-1.61 1.27-3.16 3.22-2 5.36 1.26 2.21 4.01 1.5 6.08 1.42.13 1.33.28 2.67.46 4.01-2.18-.02-4.36-.03-6.53-.04-.06 8.58-.03 17.16-.02 25.73 2.21 0 4.41.01 6.63.02.01.31.02.92.02 1.22-1.6.27-4-.12-4.57 1.89-1.53 4.46-1.22 9.27-2.22 13.84-1.38 6.4-2.85 12.81-5.21 18.93-1.05 2.78-1.65 5.71-2.12 8.64-12.69-.03-25.37.05-38.06-.02.8-3.49 2.49-6.65 3.97-9.87 3.08-8.48 6.65-16.86 8.28-25.78 1.03-4.81.97-9.88 3.01-14.45 2.11 2.97 5.28 5.56 9.12 5.48 3.17.34 5.75-1.72 8.26-3.3-.42 2.9-.39 6.57-3.21 8.31-3.78 2.31-8.32.7-12.14-.63-.23 1.69-1.53 3.59-.59 5.22 4.84 2.02 10.61 2.28 15.48.24 3.9-1.6 6.1-5.74 6.32-9.81.62-8.47-.11-16.97.46-25.45-1.75-.11-3.5-.22-5.25-.32-.29.93-.57 1.87-.85 2.81-4.16-4.48-11.34-4.05-15.55.12-.65-.09-1.97-.27-2.62-.36-.8-17.58-5.28-34.98-13.14-50.73.5-.61 1-1.21 1.51-1.81-3.38.1-6.75-.17-10.04-.95z" fill="#5b8ec1"/><path d="m488.95 480.92c7.86.17 15.73-.2 23.58.35 2.09.43 4.18.85 6.3 1.19 3.98 3.55 4.87 9 7.18 13.58 2.13 6.07 3.96 12.41 3.97 18.9.3 6.63 2.61 13.79-.99 19.96-2.19-1.95-4.95-3.54-7.99-3.13-3.09-.03-5.42 2.15-7.63 4-.13-1.17-.25-2.33-.37-3.49-1.83-.01-3.66-.02-5.47-.02l.06-.57c.57-.68 1.19-1.33 1.81-1.97-.54-4.8.51-9.89-1.55-14.42-1.06-2.46.38-5.17-.33-7.69-1.63-5.36-5.03-9.92-7.14-15.07-.48-.27-1.42-.81-1.9-1.08-.41-4.61-4.06-7.51-7.83-9.57-.26.58-.76 1.76-1.02 2.34-.22-1.11-.45-2.21-.68-3.31z" fill="#659ad0"/><path d="m512.53 481.27c6.37-.29 12.76-.31 19.13-.05 3.17.66 7.39.67 8.9 4.13 2.28 5.56 1.86 11.79 3.7 17.49 1.92 5.55 1.88 11.47 2.66 17.23.12 4.18-1.39 8.21-2.41 12.23-9.18 3.59-11.06 17.09-4.04 23.65-3.08 4.34-4.82 9.44-7.68 13.93-2.25 5.52-5.52 10.58-9.7 14.85-1.83-3.48-3.83-6.88-5.37-10.51-1.09-2.64-2.22-5.25-3.42-7.84 3.31-3.79 5.11-8.53 7.17-13.04 1.43-3.17 1.38-6.78 2.84-9.93.21 4.83.09 9.67.04 14.5 2.2.06 4.4.13 6.6.18-.57-7.69 1.57-16-1.96-23.19 3.6-6.17 1.29-13.33.99-19.96-.01-6.49-1.84-12.83-3.97-18.9-2.31-4.58-3.2-10.03-7.18-13.58-2.12-.34-4.21-.76-6.3-1.19z" fill="#5d90c4"/><path d="m531.66 481.22c5.98-.01 11.96-.19 17.94.09 3.65.72 7.4.65 11.09 1.09 2.86 1.64 3.36 5.26 3.62 8.25.16 3.85 1.57 7.61 1.04 11.49-.33 1.84.29 3.61.88 5.33-2.06 3.68-.82 7.71-.3 11.6-.58 3.96-2.7 7.55-3.27 11.55-.99 3.62-.14 7.86-2.71 10.93-.99-3.12-2.22-6.54-5.2-8.28-3.04-1.96-6.86-1.72-10.24-.97 1.02-4.02 2.53-8.05 2.41-12.23-.78-5.76-.74-11.68-2.66-17.23-1.84-5.7-1.42-11.93-3.7-17.49-1.51-3.46-5.73-3.47-8.9-4.13z" fill="#5485b6"/><path d="m549.6 481.31c11.34-.58 22.72-.37 34.08-.36 1.01.53 2.02 1.09 3.03 1.66-.62.18-1.87.54-2.5.73 2.09 1.61 2.99 3.88 2.61 6.5-.63-.97-1.26-1.93-1.89-2.88-.16 2.23.3 4.41 1.29 6.43-.34 3.29-.2 6.6.23 9.88.38 2.51-1.22 4.69-1.74 7.07-.97 4.63-1.08 9.43-2.38 14-2.51 9.18-4.24 18.61-7.7 27.5-3.21 5.97-4.48 12.77-8.33 18.43-2.28 5.53-5.44 10.63-7.76 16.14-.31.04-.93.11-1.24.15.01.7.04 1.41.07 2.13-2.42 4.6-7.84 8.08-6.8 13.87-13.27-.01-26.55.02-39.82 0-.48-2.69-.12-5.39 1.01-7.87 2.66-6.62 2.1-14.31 5.96-20.47 1.54 3.63 3.54 7.03 5.37 10.51 2.48 4.66 4.8 9.55 8.58 13.32 1.51-1.61 3.07-3.19 4.26-5.05 6.48-11.33 13.59-22.4 18.11-34.71 1.5-.34 3-.73 4.5-1.11-.37-1.53-.71-3.05-1.08-4.56-1.56.35-3.12.67-4.68.98 1.42-2.96 3.38-5.72 6.88-6.24l.09-.4c.14-1.81.19-3.61.2-5.41 2.57-3.07 1.72-7.31 2.71-10.93.57-4 2.69-7.59 3.27-11.55-.52-3.89-1.76-7.92.3-11.6-.59-1.72-1.21-3.49-.88-5.33.53-3.88-.88-7.64-1.04-11.49-.26-2.99-.76-6.61-3.62-8.25-3.69-.44-7.44-.37-11.09-1.09z" fill="#4b7aa9"/><path d="m583.68 480.95c3 .01 6 .01 9.01.15 1.63.35 3.26.77 4.89 1.18-.15 5.47-.34 10.95.3 16.39-2.54 4.28-2.1 9.44-3.05 14.17-1.02 8.22-3.56 16.12-5.82 24.05-3.64 10.55-6.99 21.25-11.84 31.32-2.98 5.41-6.12 10.75-8.65 16.39-2.51 6.19-7.32 11.26-8.69 17.94-3.09.06-6.18.03-9.26.02-1.04-5.79 4.38-9.27 6.8-13.87-.03-.72-.06-1.43-.07-2.13.31-.04.93-.11 1.24-.15 2.32-5.51 5.48-10.61 7.76-16.14 3.85-5.66 5.12-12.46 8.33-18.43 3.46-8.89 5.19-18.32 7.7-27.5 1.3-4.57 1.41-9.37 2.38-14 .52-2.38 2.12-4.56 1.74-7.07-.43-3.28-.57-6.59-.23-9.88-.99-2.02-1.45-4.2-1.29-6.43.63.95 1.26 1.91 1.89 2.88.38-2.62-.52-4.89-2.61-6.5.63-.19 1.88-.55 2.5-.73-1.01-.57-2.02-1.13-3.03-1.66z" fill="#426d99"/><path d="m592.69 481.1c8.71-.22 17.43-.26 26.14-.15.42.37 1.26 1.11 1.67 1.48-1.18 7.21-2.32 14.42-3.64 21.61-.94 5.99-4.32 11.18-5.9 16.99-4.86 12.51-8.07 25.68-14.38 37.59-6.17 14.31-13.48 28.09-20.65 41.92-5.28 1.23-10.68 1.91-16.1 2 1.37-6.68 6.18-11.75 8.69-17.94 2.53-5.64 5.67-10.98 8.65-16.39 4.85-10.07 8.2-20.77 11.84-31.32 2.26-7.93 4.8-15.83 5.82-24.05.95-4.73.51-9.89 3.05-14.17-.64-5.44-.45-10.92-.3-16.39-1.63-.41-3.26-.83-4.89-1.18z" fill="#39618a"/><path d="m489.63 484.23c.26-.58.76-1.76 1.02-2.34 3.77 2.06 7.42 4.96 7.83 9.57.48.27 1.42.81 1.9 1.08 2.11 5.15 5.51 9.71 7.14 15.07.71 2.52-.73 5.23.33 7.69 2.06 4.53 1.01 9.62 1.55 14.42-.62.64-1.24 1.29-1.81 1.97l-.06.57c.08 6.01.23 12.01.05 18.03-2.47-5.56-4.03-11.48-6.79-16.9-.03-.27-.1-.8-.13-1.07-.18-1.34-.33-2.68-.46-4.01.23-1.63 1.12-3.38.43-5-.85-1.69-2.93-1.56-4.51-1.78 1.69-1.5.59-3.73.24-5.58-3.02-10.4-4.89-21.07-6.73-31.72z" fill="#6da1da"/><path d="m370.76 495.95c3.5-3.81 6.92-7.7 10.28-11.64.17 1.63.33 3.26.5 4.89 9.77 9.5 18.7 20.99 21.04 34.78.31-2.14.68-4.2 1.04-6.24.64 1.94 1.23 3.9 1.8 5.88.48-.43.96-.85 1.45-1.26-.22 11.95.31 23.92-.29 35.85-.4-1.97-.74-3.94-1.05-5.92-.27-.29-.82-.87-1.09-1.15-.34 5.66-3.35 10.64-4.17 16.2 1.08-1.13 1.73-2.13 2.71-3.27-.04 1.19-.09 2.39-.15 3.59-1.19.22-2.37.44-3.54.67-4.11 10.33-11.05 19.77-20.32 26.01-5.44-6.4-10.97-12.73-16.4-19.13.23-.49.7-1.47.93-1.95.22.36.67 1.08.9 1.44 2.49-5.08 7.37-8.45 9.68-13.65 6.18-9.44 5.53-21.31 3.6-31.93-2.92-9.06-9.37-16.17-14.98-23.64 2.71-3.16 5.38-6.34 8.06-9.53z" fill="#76aee7"/><path d="m96.08 501.66c1.09-4.93 3.46-9.81 7.48-13-2.13 4.54-4.73 8.82-7.48 13z" fill="#faa64f"/><path d="m368.15 490.73c1.05.01 2.18-.23 3.21.15-.11 1.7-.38 3.38-.6 5.07-2.68 3.19-5.35 6.37-8.06 9.53-3.42 4.01-6.88 7.98-10.37 11.94-.4-1.24-.79-2.45-1.19-3.68-.49-.22-1.47-.66-1.96-.89 6.32-7.37 12.68-14.71 18.97-22.12z" fill="#2b649f"/><path d="m175.61 503.61c1.73-4.58 2.75-9.77 6.26-13.39 4.37 5.18 8.78 10.31 13.24 15.41-4.38 4.65-4.64 11.39-6.32 17.24-.92 9.71-3.35 19.32-2.73 29.14.1 4.42 2.05 8.56 1.94 13.01-.2 5.11 1.95 9.84 3.29 14.66 1.67 5.09 2.34 10.49 4.63 15.38-5.16.11-10.31.14-15.46.2-.56-.07-1.67-.21-2.23-.28-.97-.72-1.92-1.46-2.86-2.2-1.68-8.86-4.46-17.49-5.86-26.41-.85-5.22-.17-10.54-1.09-15.74-.71-3.53.27-7.06.44-10.58-.18-12.48 3.76-24.47 6.75-36.44z" fill="#ffa300"/><path d="m34.98 499c1.72 1.26 3.31 2.73 4.28 4.66 2.36 4.33 5.3 8.33 8.85 11.75 7.3 11.88 14.81 23.64 22.87 35.03-1.49 6.51-1.06 13.23-.4 19.82-12.92-21.96-25.6-44.07-38.26-66.18 1.93-.1 3.17.92 3.66 2.68.73.35 1.45.71 2.18 1.07-.63-3.09-1.96-5.95-3.18-8.83z" fill="#a75316"/><path d="m109.67 522.66c3.2-7.58 6.35-15.3 11.3-21.94-1.9 11.36-3.41 22.79-4.69 34.25.07 6.07-1.88 12.1-.56 18.14.67 8.86 1.49 17.72 2.89 26.51.97 4.17 2.09 8.43 1.34 12.75-11.7-4.57-17.17-17.58-17.97-29.35-.65-13.82 2.5-27.61 7.69-40.36z" fill="#f70"/><path d="m352.33 517.42c3.49-3.96 6.95-7.93 10.37-11.94 5.61 7.47 12.06 14.58 14.98 23.64 1.93 10.62 2.58 22.49-3.6 31.93-2.31 5.2-7.19 8.57-9.68 13.65-.23-.36-.68-1.08-.9-1.44-.23.48-.7 1.46-.93 1.95-3.84-4.48-7.7-8.93-11.6-13.35-2.5-2.85-4.94-5.74-7.4-8.62 4.46-2.32 3.38-8.38 7.76-10.64-.58-1.19-1.16-2.37-1.72-3.55-.08-2.06.03-4.45-1.64-5.97-1.31-1.04-2.95-1.52-4.47-2.15.47-1.58.94-3.18 1.42-4.75 2.38-2.99 4.88-5.89 7.41-8.76z" fill="#7db7f1"/><path d="m84.94 518.9c2.02-3.12 3.17-7.04 6.49-9.11-2.23 4.32-4.66 8.54-7.12 12.75-7.04 10.94-12.3 23.31-13.23 36.41-.32 5.18 1.08 10.23 1.95 15.3-.77-1.37-1.62-2.67-2.45-3.99-.66-6.59-1.09-13.31.4-19.82 1.52-6.05 3.43-12.04 6.19-17.64 2.48-4.7 5.11-9.31 7.77-13.9z" fill="#ea9a55" opacity=".98000004"/><path d="m349.18 512.85c.49.23 1.47.67 1.96.89.4 1.23.79 2.44 1.19 3.68-2.53 2.87-5.03 5.77-7.41 8.76-1.05 1.24-2.11 2.48-3.24 3.65-1.24 1.05-2.27 2.31-3.12 3.69-1.88 2.25-4.07 4.24-5.69 6.7 2.82 4.85 7.28 8.57 10.7 13.02 2.46 2.88 4.9 5.77 7.4 8.62-.19 1.76-.38 3.53-.56 5.31-8.1-9.15-16.23-18.28-24.3-27.45 7.69-8.96 15.35-17.94 23.07-26.87z" fill="#245990"/><path d="m93.6 519.53c.55-.84 1.1-1.66 1.65-2.48.19 1.81.07 3.66-.6 5.37-2.04 5.56-2.64 11.49-4.02 17.22-1.72 8.75.07 17.59 1.67 26.2.68 6.55 4.56 12.17 5.56 18.65-2.52-1.95-4.94-4.06-6.95-6.54-4.28-5.83-7.44-12.64-7.91-19.94-1.23-13.59 3.63-27.01 10.6-38.48z" fill="#f74a00"/><path d="m84.31 522.54c3.47.05 5.81-3.43 9.29-3.01-6.97 11.47-11.83 24.89-10.6 38.48.47 7.3 3.63 14.11 7.91 19.94-.67.03-2.03.1-2.71.13.37.32 1.09.97 1.45 1.29-3.78 1.32-7.66 2.76-10.48 5.75-2.66-3.24-4.63-6.98-6.14-10.87-.87-5.07-2.27-10.12-1.95-15.3.93-13.1 6.19-25.47 13.23-36.41z" fill="#fa820a"/><path d="m406.87 522.36c6.87 0 13.75.12 20.62-.06.09 1.8.12 3.6.18 5.42-4.77.09-9.55.09-14.31.08-.05 3.05-.03 6.11.06 9.16 4.45-.09 8.9-.08 13.35.04 0 1.7 0 3.4.02 5.11-4.49.17-8.99.18-13.48.14 0 3.48 0 6.97.01 10.45 4.97-.03 9.93-.02 14.9.04.12 1.73.26 3.46.36 5.19-7.34.28-14.67.01-22 .28.6-11.93.07-23.9.29-35.85z" fill="#fff"/><path d="m433.58 532.5c1.83-.13 3.67-.22 5.52-.32.11 1.19.23 2.38.35 3.58 1.49-1.17 2.98-2.36 4.54-3.44 4.76-1.67 10.85.18 12.34 5.38 1.51 6.65.44 13.59.73 20.36-2.16-.01-4.32-.01-6.47-.01-.14-5.33.2-10.66-.14-15.98-.1-2.11-1.26-4.46-3.5-4.9-3.12-.86-6.46 1.73-6.52 4.93-.23 5.27-.24 10.56.13 15.83-2.26.05-4.51.11-6.77.16-.11-8.53.16-17.07-.21-25.59z" fill="#fff"/><path d="m465.89 535.1c4.21-4.17 11.39-4.6 15.55-.12.28-.94.56-1.88.85-2.81 1.75.1 3.5.21 5.25.32-.57 8.48.16 16.98-.46 25.45-.22 4.07-2.42 8.21-6.32 9.81-4.87 2.04-10.64 1.78-15.48-.24-.94-1.63.36-3.53.59-5.22 3.82 1.33 8.36 2.94 12.14.63 2.82-1.74 2.79-5.41 3.21-8.31-2.51 1.58-5.09 3.64-8.26 3.3-3.84.08-7.01-2.51-9.12-5.48-2.36-5.67-1.9-12.47 2.05-17.33m6.45 2.43c-3.51 2.35-3.87 7.29-2.85 11.03.91 3.61 5.43 5.8 8.67 3.69 3.55-2.14 2.73-6.87 2.62-10.36-.06-4.04-5.08-6.68-8.44-4.36z" fill="#fff"/><path d="m507.53 532.26c1.81 0 3.64.01 5.47.02.12 1.16.24 2.32.37 3.49 2.21-1.85 4.54-4.03 7.63-4 3.04-.41 5.8 1.18 7.99 3.13 3.53 7.19 1.39 15.5 1.96 23.19-2.2-.05-4.4-.12-6.6-.18.05-4.83.17-9.67-.04-14.5-.05-2.22-.33-4.95-2.62-5.97-3.25-1.57-7.3 1.05-7.39 4.59-.35 5.34 0 10.71-.17 16.06-1.32-.01-2.64-.02-3.95-.04-.63-.02-1.88-.06-2.5-.08-.02-2.57-.03-5.13-.1-7.68.18-6.02.03-12.02-.05-18.03z" fill="#fff"/><path d="m544.51 532.3c3.38-.75 7.2-.99 10.24.97 2.98 1.74 4.21 5.16 5.2 8.28-.01 1.8-.06 3.6-.2 5.41-5.83.02-11.65-.05-17.47.11.51 5.19 5.87 7.36 10.5 6.53 1.56-.31 3.12-.63 4.68-.98.37 1.51.71 3.03 1.08 4.56-1.5.38-3 .77-4.5 1.11-4.64.72-9.58.3-13.57-2.34-7.02-6.56-5.14-20.06 4.04-23.65m-2.11 10.09c3.91.08 7.83.12 11.74-.09-.73-2.31-1.33-5.4-4.12-5.95-3.96-1.28-7.18 2.41-7.62 6.04z" fill="#fff"/><path d="m214.99 526.77c4.49 4.46 9.02 8.89 13.64 13.22 3.74 3.61 7.74 6.95 11.46 10.58.36 8.08 2.5 16.12 5.62 23.56-.02.77-.03 1.54-.03 2.32 3.25 2.96 4.48 7.31 7.17 10.69 1.25 1.62 2.32 3.38 3.11 5.28.82.88 1.65 1.76 2.5 2.65-11.79.43-23.58-.22-35.37-.08.06-.41.19-1.23.25-1.63-3.76-9.17-8.03-18.23-9.79-28.05-1.66-12.77-3.24-26.19 1.44-38.54z" fill="#ffc300"/><path d="m341.68 529.83c1.13-1.17 2.19-2.41 3.24-3.65-.48 1.57-.95 3.17-1.42 4.75 1.52.63 3.16 1.11 4.47 2.15 1.67 1.52 1.56 3.91 1.64 5.97.56 1.18 1.14 2.36 1.72 3.55-4.38 2.26-3.3 8.32-7.76 10.64-3.42-4.45-7.88-8.17-10.7-13.02 1.62-2.46 3.81-4.45 5.69-6.7 2.26.64 4.12-1.56 3.12-3.69z" fill="#85c0fc"/><path d="m338.56 533.52c.85-1.38 1.88-2.64 3.12-3.69 1 2.13-.86 4.33-3.12 3.69z" fill="#9abfd9"/><path d="m500.79 533.39c2.76 5.42 4.32 11.34 6.79 16.9.07 2.55.08 5.11.1 7.68.62.02 1.87.06 2.5.08 1.59 2.66 2.83 5.52 4.12 8.33 1.2 2.59 2.33 5.2 3.42 7.84-3.86 6.16-3.3 13.85-5.96 20.47-1.13 2.48-1.49 5.18-1.01 7.87-8.04-.03-16.07.01-24.11-.01.47-2.93 1.07-5.86 2.12-8.64 2.36-6.12 3.83-12.53 5.21-18.93 1-4.57.69-9.38 2.22-13.84.57-2.01 2.97-1.62 4.57-1.89 0-.3-.01-.91-.02-1.22-.1-8.21-.11-16.43.05-24.64z" fill="#5284b5"/><path d="m542.4 542.39c.44-3.63 3.66-7.32 7.62-6.04 2.79.55 3.39 3.64 4.12 5.95-3.91.21-7.83.17-11.74.09z" fill="#5789ba"/><path d="m472.34 537.53c3.36-2.32 8.38.32 8.44 4.36.11 3.49.93 8.22-2.62 10.36-3.24 2.11-7.76-.08-8.67-3.69-1.02-3.74-.66-8.68 2.85-11.03z" fill="#5d90c5"/><path d="m514.3 542.03c.09-3.54 4.14-6.16 7.39-4.59 2.29 1.02 2.57 3.75 2.62 5.97-1.46 3.15-1.41 6.76-2.84 9.93-2.06 4.51-3.86 9.25-7.17 13.04-1.29-2.81-2.53-5.67-4.12-8.33 1.31.02 2.63.03 3.95.04.17-5.35-.18-10.72.17-16.06z" fill="#6598cf"/><path d="m542.28 547.07c5.82-.16 11.64-.09 17.47-.11l-.09.4c-3.5.52-5.46 3.28-6.88 6.24-4.63.83-9.99-1.34-10.5-6.53z" fill="#5585b6"/><path d="m240.09 550.57c7.61 6.3 15.01 12.85 23.03 18.62 12.06 9.6 25.15 17.77 38.14 26.01-14.27.34-28.54-.16-42.8-.13-.85-.89-1.68-1.77-2.5-2.65-.79-1.9-1.86-3.66-3.11-5.28-2.69-3.38-3.92-7.73-7.17-10.69 0-.78.01-1.55.03-2.32-3.12-7.44-5.26-15.48-5.62-23.56z" fill="#ffd500"/><path d="m540.47 555.95c3.99 2.64 8.93 3.06 13.57 2.34-4.52 12.31-11.63 23.38-18.11 34.71-1.19 1.86-2.75 3.44-4.26 5.05-3.78-3.77-6.1-8.66-8.58-13.32 4.18-4.27 7.45-9.33 9.7-14.85 2.86-4.49 4.6-9.59 7.68-13.93z" fill="#5686b7"/><path d="m350.97 561.86c3.9 4.42 7.76 8.87 11.6 13.35 5.43 6.4 10.96 12.73 16.4 19.13 1.71 2.03 3.44 4.05 5.2 6.05-.44.71-1.33 2.13-1.78 2.84-10.69-11.99-21.29-24.06-31.98-36.06.18-1.78.37-3.55.56-5.31z" fill="#2b649e"/><path d="m88.2 578.08c.68-.03 2.04-.1 2.71-.13 2.01 2.48 4.43 4.59 6.95 6.54 5.02 4.16 11.33 6.11 17.35 8.33-1.47 3.85-5.97 4.88-8.71 7.59-10.36-2.14-20.48-7.04-27.33-15.29 2.82-2.99 6.7-4.43 10.48-5.75-.36-.32-1.08-.97-1.45-1.29z" fill="#fb8f0e"/><path d="m106.5 600.41c2.74-2.71 7.24-3.74 8.71-7.59.41.12 1.24.36 1.66.48 4.93 1.47 10.09 2 15.22 1.94 9.01-.14 18.03-.23 27.04-.34 6.36.23 12.73-.02 19.1.08.56.07 1.67.21 2.23.28-3.54.74-6.62 2.62-9.73 4.36-2.83.81-5.85.56-8.77.83 8.12 1.44 16.57-.93 24.5 1.55-16.17.23-32.34.06-48.5.11-10.5-.14-21.14.68-31.46-1.7z" fill="#fc9910"/><path d="m180.46 595.26c5.15-.06 10.3-.09 15.46-.2 9.05-.15 18.11.22 27.17-.07 11.79-.14 23.58.51 35.37.08 14.26-.03 28.53.47 42.8.13 1.86-.02 3.72-.01 5.58.01.04 2.29.06 4.58.07 6.87-40.15-.04-80.3.16-120.45-.08-7.93-2.48-16.38-.11-24.5-1.55 2.92-.27 5.94-.02 8.77-.83 3.11-1.74 6.19-3.62 9.73-4.36z" fill="#feaa15"/><path d="m382.39 603.23c.45-.71 1.34-2.13 1.78-2.84 4.05 4.51 7.97 9.14 11.91 13.75 5.07 6.09 10.37 12 15.42 18.11-3.01-1.87-6.45-3.23-8.76-6.03-6.76-7.69-13.54-15.35-20.35-22.99z" fill="#3470b0"/></g></svg>