<?xml version="1.0" encoding="UTF-8" standalone="no"?>
<svg
   xmlns:dc="http://purl.org/dc/elements/1.1/"
   xmlns:cc="http://creativecommons.org/ns#"
   xmlns:rdf="http://www.w3.org/1999/02/22-rdf-syntax-ns#"
   xmlns:svg="http://www.w3.org/2000/svg"
   xmlns="http://www.w3.org/2000/svg"
   xmlns:sodipodi="http://sodipodi.sourceforge.net/DTD/sodipodi-0.dtd"
   xmlns:inkscape="http://www.inkscape.org/namespaces/inkscape"
   width="200mm"
   height="200mm"
   viewBox="1 46 200 200"
   id="svg2"
   version="1.1"
   inkscape:version="0.91 r13725"
   sodipodi:docname="Target.svg">
  <metadata
     id="metadata24">
    <rdf:RDF>
      <cc:Work
         rdf:about="">
        <dc:format>image/svg+xml</dc:format>
        <dc:type
           rdf:resource="http://purl.org/dc/dcmitype/StillImage" />
        <dc:title />
      </cc:Work>
    </rdf:RDF>
  </metadata>
  <defs
     id="defs22" />
  <sodipodi:namedview
     pagecolor="#ffffff"
     bordercolor="#666666"
     borderopacity="1"
     objecttolerance="10"
     gridtolerance="10"
     guidetolerance="10"
     inkscape:pageopacity="0"
     inkscape:pageshadow="2"
     inkscape:window-width="640"
     inkscape:window-height="480"
     id="namedview20"
     showgrid="false"
     inkscape:zoom="0.38071636"
     inkscape:cx="33.090227"
     inkscape:cy="558.8778"
     inkscape:current-layer="g4197" />
  <g
     transform="matrix(0.17700614,0,0,0.17010115,-16.665065,51.861866)"
     id="g4197"
     style="fill:#fece1a;fill-opacity:1">
    <path
       d="m 120.2725,-3.2167539 c 0.63776,-1.5331734 1.43012,-1.8099963 2.38675,-0.7985278 33.02801,28.2040007 66.07534,56.3760607 99.06469,84.6439437 -0.27056,0.479117 -0.80203,1.458645 -1.07259,1.948408 C 187.24649,53.893953 153.73534,25.37054 120.2725,-3.2167539 Z"
       id="path5-6"
       inkscape:connector-curvature="0"
       style="fill:#c0aa8b;fill-opacity:0.67450982;stroke:#c0aa8b;stroke-width:0.09514202;stroke-opacity:0.67450982" />
    <path
       d="m 127.11388,30.470471 c 33.42419,28.395648 66.82905,56.833884 100.30155,85.165649 -0.34787,0.42588 -1.06293,1.27764 -1.4108,1.71417 C 192.6191,88.975939 159.26255,60.558998 125.81904,32.291114 c 0.31888,-0.457822 0.9663,-1.36282 1.29484,-1.820643 z"
       id="path19"
       inkscape:connector-curvature="0"
       style="fill:#c0aa8b;fill-opacity:0.67450982;stroke:#c0aa8b;stroke-width:0.09514202;stroke-opacity:0.67450982" />
    <path
       d="m 143.37664,38.753866 c 33.53048,28.523412 66.93534,57.217177 100.47548,85.729944 -0.31887,0.44717 -0.96629,1.34152 -1.28517,1.7887 -32.52553,-27.927178 -65.03173,-55.87565 -97.57659,-83.781534 -0.85034,-1.075351 -3.24676,-1.863232 -1.61372,-3.73711 z"
       id="path21-8"
       inkscape:connector-curvature="0"
       style="fill:#c0aa8b;fill-opacity:0.67450982;stroke:#c0aa8b;stroke-width:0.09514202;stroke-opacity:0.67450982" />
    <path
       d="m 116.25271,56.055301 1.14989,-0.68141 c 33.4725,28.204001 66.74208,56.716769 100.19526,84.963359 -0.30922,0.45782 -0.92765,1.38411 -1.23686,1.84193 -33.29857,-28.52341 -66.71309,-56.897762 -99.98267,-85.463763 l -0.12562,-0.660116 z"
       id="path23"
       inkscape:connector-curvature="0"
       style="fill:#c0aa8b;fill-opacity:0.67450982;stroke:#c0aa8b;stroke-width:0.09514202;stroke-opacity:0.67450982" />
    <path
       d="m 177.24533,59.185636 c 0.32854,-0.436528 0.98562,-1.309585 1.31416,-1.756761 33.30823,28.597942 66.62612,57.206535 99.92469,85.815115 -0.38652,0.362 -1.15956,1.09665 -1.54607,1.45865 -33.27925,-28.4277 -66.40388,-57.089521 -99.69278,-85.517004 z"
       id="path25"
       inkscape:connector-curvature="0"
       style="fill:#c0aa8b;fill-opacity:0.67450982;stroke:#c0aa8b;stroke-width:0.09514202;stroke-opacity:0.67450982" />
    <path
       d="m 156.04479,71.759681 c -1.23686,-1.320233 -4.64789,-2.704348 -1.99057,-4.578226 33.35654,28.395647 66.75174,56.748705 100.16626,85.069825 -0.28022,0.46847 -0.86,1.40541 -1.14023,1.87388 C 220.71899,126.6985 188.42537,99.175801 156.04479,71.759681 Z"
       id="path27"
       inkscape:connector-curvature="0"
       style="fill:#c0aa8b;fill-opacity:0.67450982;stroke:#c0aa8b;stroke-width:0.09514202;stroke-opacity:0.67450982" />
    <path
       d="m 273.88461,126.16615 c 0.34787,-0.31941 1.05326,-0.95824 1.41079,-1.27765 3.49799,3.06635 7.08295,6.01558 10.55196,9.11387 0.39618,0.0958 1.18854,0.26617 1.58472,0.35135 1.73934,3.15152 4.84115,4.8444 7.32453,7.18675 5.24699,3.9394 9.76925,8.9861 15.21916,12.60609 2.90855,3.28993 6.49351,5.69616 9.62431,8.70928 0.39618,0.0852 1.17888,0.25552 1.57507,0.35135 1.48809,2.6937 4.03911,4.23752 6.19395,6.19657 1.57507,1.28829 3.00519,2.98117 4.99576,3.48158 1.80697,2.85341 4.62855,4.57823 7.00564,6.77152 4.66721,3.63064 9.15083,7.58069 13.24792,11.98856 10.74522,12.35057 16.87154,28.34242 23.31673,43.64221 1.69102,3.37511 2.8699,7.1761 5.11171,10.16792 71.21603,60.90105 142.52869,121.69563 213.74472,182.60733 4.88946,-6.48405 8.96723,-13.76662 14.44613,-19.65443 2.11618,2.34235 3.42068,5.36611 5.00541,8.14498 10.81285,19.49473 21.52908,39.06398 32.39991,58.52677 -0.28022,0.45782 -0.85034,1.37346 -1.14032,1.82064 -21.42279,-7.1974 -42.76818,-14.67162 -64.19106,-21.90096 -1.37214,-0.45782 -2.69597,-1.10729 -3.97148,-1.7887 4.24204,-6.88863 9.18948,-13.21297 13.72141,-19.86737 -71.10974,-60.7094 -142.20981,-121.42946 -213.30023,-182.16016 -0.76337,-0.69205 -1.63304,-1.14988 -2.609,-1.36282 -11.72117,-3.17281 -23.42302,-6.4521 -34.98958,-10.28503 -12.32994,-4.10976 -24.53426,-9.40134 -35.02824,-17.8125 -14.5041,-11.55203 -27.37517,-25.35059 -41.35748,-37.62663 -6.22294,-5.57904 -12.66814,-10.84933 -18.98772,-16.30061 0.24158,-0.35135 0.73439,-1.05406 0.98563,-1.41606 18.13738,4.55694 36.21678,9.42263 54.30584,14.22445 -8.7932,-18.11072 -17.34492,-36.37028 -26.19619,-54.4383 m 39.18341,33.37835 c 7.86565,16.26867 15.76029,32.5267 23.56796,48.82731 0.087,0.52171 0.24158,1.55447 0.32854,2.07617 -3.73956,0.543 -7.31486,-0.8837 -10.89982,-1.77805 -14.78433,-3.87552 -29.54934,-7.82557 -44.33367,-11.6798 3.08249,2.72564 6.37756,5.14252 9.53734,7.76169 0.35753,-0.12776 1.08226,-0.38329 1.44945,-0.50041 17.77985,4.55693 35.50172,9.40133 53.26225,14.10732 -8.42611,-17.17367 -16.63962,-34.46446 -25.05606,-51.62748 -2.1646,-2.90664 -5.24709,-4.81235 -7.85599,-7.18675 z"
       id="path29"
       inkscape:connector-curvature="0"
       style="fill:#c0aa8b;fill-opacity:0.67450982;stroke:#c0aa8b;stroke-width:0.09514202;stroke-opacity:0.67450982" />
    <path
       d="m 415.65002,254.23935 c 0.91798,-1.17117 1.92293,-1.14988 2.82159,0.0213 58.43193,49.99848 116.97981,99.84791 175.39232,149.87834 -0.27056,0.48976 -0.80202,1.45864 -1.06292,1.93776 C 533.80872,355.38621 474.69072,304.85526 415.65002,254.23935 Z"
       id="path31"
       inkscape:connector-curvature="0"
       style="fill:#c0aa8b;fill-opacity:0.67450982;stroke:#c0aa8b;stroke-width:0.09514202;stroke-opacity:0.67450982" />
    <path
       d="m 325.08874,280.36708 c 4.21305,2.83211 7.6434,6.86734 11.99174,9.48651 3.21776,3.51352 6.87036,6.56922 10.6969,9.26292 3.24675,3.33252 6.76407,6.38822 10.53263,8.9861 4.16473,4.72728 9.59532,7.70845 13.87601,12.24409 2.37709,2.05488 4.72519,4.17364 7.3825,5.80264 3.21777,3.52416 6.88003,6.59051 10.72589,9.25227 4.01979,4.09911 8.57105,7.64457 11.86612,12.55286 10.27173,13.61756 15.07422,30.79123 22.92054,45.96326 62.2488,53.5333 124.84547,106.59813 187.16191,160.04626 5.83643,-18.88785 15.51872,-36.10411 27.10461,-51.35066 18.14704,-23.76419 41.00961,-44.10003 67.97894,-54.12954 15.52838,-5.67487 32.39991,-8.86898 48.61436,-5.0254 18.22435,4.18428 34.06194,18.8772 41.12557,37.81827 5.98137,15.94927 5.70115,33.84694 2.82158,50.56289 -5.42092,32.06888 -21.9156,60.63488 -42.56534,83.51536 -13.85669,15.53403 -30.06148,28.78959 -48.30515,37.3711 -16.52367,7.61263 -34.72869,12.25474 -52.68247,9.74204 -14.11759,-2.00165 -27.35585,-9.99757 -36.54532,-21.94355 -8.21352,-10.35956 -12.84208,-23.79612 -13.87602,-37.42433 -1.15955,-13.97956 0.73439,-28.07624 4.12609,-41.54474 0.74405,-1.6077 -1.14023,-2.28911 -1.92303,-3.17282 -60.6061,-51.65942 -121.13489,-103.43596 -181.7119,-155.14862 -1.93259,-1.51188 -3.60429,-3.56676 -5.86542,-4.46111 -17.39333,-5.06799 -35.17318,-9.22033 -51.70651,-17.26949 -13.27691,-6.40952 -24.16707,-17.18432 -35.09588,-27.39483 -11.83713,-11.54139 -24.18639,-22.42266 -36.76757,-32.94193 0.23191,-0.34071 0.71506,-1.03276 0.95664,-1.37347 17.08411,4.3014 34.11991,8.89028 51.16538,13.39397 -8.15554,-17.05655 -16.50434,-34.02793 -24.41831,-51.2016 l 0.41551,-1.61845 z"
       id="path33"
       inkscape:connector-curvature="0"
       style="fill:#c0aa8b;fill-opacity:0.67450982;stroke:#c0aa8b;stroke-width:0.09514202;stroke-opacity:0.67450982" />
    <path
       d="m 420.28815,305.62185 c 0.12562,-1.81 1.68135,-2.19329 2.63799,-0.76659 50.56628,43.46121 101.2775,86.70947 151.79537,130.22391 -0.16427,0.43653 -0.50248,1.30959 -0.66675,1.74612 -51.24249,-43.74857 -102.37898,-87.6676 -153.76661,-131.20344 z"
       id="path35"
       inkscape:connector-curvature="0"
       style="fill:#c0aa8b;fill-opacity:0.67450982;stroke:#c0aa8b;stroke-width:0.09514202;stroke-opacity:0.67450982" />
    <path
       d="m 796.96973,320.64492 c 40.98062,-12.70191 84.9471,-18.55778 126.79739,-7.47422 54.92428,14.14992 101.81858,60.81588 120.43918,119.43847 9.5566,29.68393 12.156,61.64634 10.378,92.94863 -2.5027,43.00338 -12.185,85.39988 -27.752,124.90039 -14.4945,36.8281 -34.02332,71.09027 -56.74094,102.41385 -19.70278,27.05412 -41.54107,52.24501 -65.34095,74.95514 -28.03225,26.73471 -59.09868,49.7749 -92.75477,67.01245 -33.46284,17.12043 -69.40906,28.54471 -106.11865,32.83546 -29.89721,3.38576 -60.71239,1.05406 -89.14083,-10.17857 -28.0709,-10.9345 -53.03999,-30.66346 -72.36592,-55.503 -17.18074,-21.9329 -29.33675,-48.47596 -35.54037,-76.60543 -5.9234,-26.44724 -7.03464,-54.00177 -4.96676,-81.08783 3.44967,-45.40962 14.80365,-89.97811 32.61249,-131.07568 5.44025,-12.30797 10.94814,-24.65853 17.72187,-36.16798 -6.14564,14.09668 -12.85174,27.95912 -17.78951,42.67332 -9.2088,26.0746 -15.53804,53.38425 -18.65918,81.15172 -4.41597,38.70198 -2.18383,79.38431 12.67781,115.26482 13.22859,32.18599 36.17813,59.16559 63.85285,76.81837 24.32168,15.48079 52.56651,22.46525 80.52146,22.50784 31.09541,0.0319 61.92026,-7.17621 91.19904,-18.39808 41.05792,-15.97056 78.62752,-41.71509 111.41395,-73.1132 27.31719,-26.34077 52.0737,-55.98212 73.06166,-88.64723 30.61226,-47.49644 52.15105,-102.64809 59.04065,-160.6212 4.5126,-36.54064 3.3338,-74.77414 -8.8126,-109.49413 -10.8998,-31.71753 -31.22101,-59.04847 -56.40269,-78.35155 -25.28797,-19.54796 -56.13214,-29.29 -86.86036,-30.00335 -26.10933,-0.75594 -52.16067,4.00329 -77.22639,11.80757 -10.89983,3.30058 -21.43245,7.82557 -32.05205,12.0205 15.5767,-8.51763 32.17766,-14.56515 48.80762,-20.02708 z"
       id="path37"
       inkscape:connector-curvature="0"
       style="fill:#c0aa8b;fill-opacity:0.67450982;stroke:#c0aa8b;stroke-width:0.09514202;stroke-opacity:0.67450982" />
    <path
       d="m 706.46643,395.40842 c 34.62239,-22.00743 73.42885,-36.73228 113.36587,-40.37357 19.73177,-1.67158 39.87904,0.0532 58.7798,6.75022 32.4289,11.39233 60.13261,37.89281 75.31312,71.39904 13.60545,30.00335 16.30142,64.61686 13.045,97.56944 -5.23732,54.51283 -24.87256,106.60878 -53.34921,151.30504 -13.07399,20.74043 -27.93562,40.0861 -43.93749,58.15412 -34.69003,39.27692 -76.05717,72.32532 -122.95153,91.41546 -28.82461,11.54139 -59.44654,18.99431 -90.25206,17.6316 -28.30282,-1.09664 -56.51867,-11.72239 -78.4246,-31.73892 -12.47489,-11.20069 -23.2201,-24.82879 -31.14373,-40.28839 -8.50341,-16.46032 -13.65376,-34.86905 -15.94389,-53.60783 -2.79259,-23.5406 -1.46877,-47.50719 2.43507,-70.8028 5.62384,-35.07134 17.12277,-68.85439 32.94104,-99.86921 3.42069,-6.69698 6.73508,-13.53238 10.9578,-19.67572 -3.24676,7.28257 -7.00565,14.28832 -10.08814,21.66672 -9.35374,22.10325 -15.9922,45.6332 -19.40322,69.74874 -3.07283,21.83707 -3.72024,44.31297 0.12561,66.09681 3.45935,19.97384 11.02544,39.14915 22.44707,55.16229 12.90005,18.13191 29.9745,32.81417 49.45504,41.3318 18.27266,8.0811 38.28465,10.66833 57.86181,9.31616 26.71809,-1.90582 52.97236,-9.72075 77.35201,-21.81578 41.64737,-20.74043 77.06212,-54.38506 106.07034,-92.91669 15.72164,-21.10243 29.3754,-44.18521 39.61814,-69.07798 12.7841,-31.03611 20.31155,-64.86175 20.89132,-98.9855 0.21259,-17.66344 -1.75865,-35.45463 -6.92834,-52.22372 -12.16567,-40.34162 -43.71524,-72.81508 -81.05292,-83.49406 -18.63986,-5.48323 -38.26533,-5.84522 -57.31103,-3.077 -22.36976,3.27929 -44.26603,10.33828 -64.79983,20.62332 -10.86116,5.24898 -21.06525,11.95662 -31.22103,18.64296 7.99127,-7.36786 17.24839,-12.93626 26.14798,-18.86655 z"
       id="path39"
       inkscape:connector-curvature="0"
       style="fill:#c0aa8b;fill-opacity:0.67450982;stroke:#c0aa8b;stroke-width:0.09514202;stroke-opacity:0.67450982" />
    <path
       d="m 1216.5452,388.16833 c -0.2802,-8.86899 -1.3819,-17.71667 -1.1596,-26.5963 7.4888,50.98866 5.4306,103.22302 -2.8988,153.92421 -14.0984,88.60464 -47.107,172.82271 -92.3007,247.49038 -20.5531,34.1344 -43.5702,66.43751 -68.2979,97.02644 -48.9912,60.42194 -104.46625,114.99865 -167.05315,157.83154 -36.04285,24.7118 -74.40481,45.3671 -114.45779,60.9224 -42.64265,16.4711 -87.1116,27.81 -132.2473,31.2597 -44.2467,3.29 -89.58532,-2.2465 -130.8365,-20.8255 -40.40085,-17.9829 -75.94122,-48.2525 -103.18111,-85.6022 C 383.36597,975.11818 368.07916,941.93137 359.04429,906.80679 346.782,859.53395 345.2939,809.5674 350.05774,760.8998 c 8.6097,-88.86017 36.39071,-174.84564 77.48729,-251.67466 -4.56092,11.26456 -10.13645,22.00742 -14.75534,33.25069 -19.15199,45.30315 -33.4725,93.11899 -42.06288,142.21248 -8.87059,51.21224 -12.28162,104.1919 -4.41597,155.84068 6.01036,40.0648 19.40323,78.97972 40.40085,112.454 27.78101,44.18521 67.15758,79.77811 112.5735,99.69871 39.64714,17.5464 83.06282,22.7421 125.49279,19.761 45.52222,-3.3858 90.36802,-14.9698 133.2909,-31.8239 72.76211,-28.7045 139.24328,-74.75289 197.366,-130.56455 30.09042,-28.81089 58.15182,-60.16641 84.28032,-93.33193 48.5757,-61.73152 89.9042,-131.03298 117.7915,-206.94646 17.9925,-48.79537 30.3031,-100.16732 36.0816,-152.46557 2.4062,-22.93382 3.73,-46.05908 2.9569,-69.14196 z"
       id="path41"
       inkscape:connector-curvature="0"
       style="fill:#c0aa8b;fill-opacity:0.67450982;stroke:#c0aa8b;stroke-width:0.09514202;stroke-opacity:0.67450982" />
    <path
       d="m 762.5406,396.31331 c 20.66907,-4.25882 42.55568,-4.59952 62.62565,3.06635 18.98773,7.16545 35.52096,21.58154 46.73009,39.8625 8.90925,14.5545 13.98231,31.70688 15.53804,49.11478 2.05812,20.6872 -0.38652,41.61927 -4.6962,61.77411 -8.55172,39.44728 -26.84371,75.72173 -50.08313,106.9282 -18.85244,25.26541 -40.46848,48.18849 -65.00275,66.68239 -26.60213,20.04837 -56.99214,34.36863 -88.90891,39.89445 -18.66884,3.14087 -38.18802,2.92793 -56.22877,-3.75841 -18.92975,-6.86734 -35.47274,-20.96401 -46.85571,-38.91492 -9.23779,-14.5545 -14.54275,-31.86669 -16.28209,-49.45549 -2.10652,-20.34648 0.25124,-40.84203 4.01979,-60.77328 0.5218,3.87552 0.13529,7.78298 -0.10629,11.66915 -0.36719,16.04508 1.83596,32.37764 7.96228,47.02796 8.77397,21.08114 25.31696,38.1164 45.00042,46.33591 16.14681,6.79281 33.92666,7.37839 50.88515,4.63146 32.0134,-5.2277 62.12319,-21.01725 87.49813,-42.90756 23.36513,-20.32519 43.85052,-44.83467 59.89103,-72.49568 17.15176,-29.77976 28.15787,-64.25486 29.35608,-99.64561 0.51214,-19.57991 -2.91821,-39.74539 -12.32027,-56.59965 -11.10284,-20.02708 -29.44305,-35.17781 -50.22808,-40.6078 -22.21515,-5.94105 -45.51255,-2.08682 -67.06096,5.21705 15.28681,-8.00647 31.65587,-13.48969 48.2665,-17.04591 z"
       id="path43"
       inkscape:connector-curvature="0"
       style="fill:#c0aa8b;fill-opacity:0.67450982;stroke:#c0aa8b;stroke-width:0.09514202;stroke-opacity:0.67450982" />
  </g>
</svg>
