<?xml version="1.0" encoding="UTF-8" standalone="no"?>
<svg
   xmlns:dc="http://purl.org/dc/elements/1.1/"
   xmlns:cc="http://creativecommons.org/ns#"
   xmlns:rdf="http://www.w3.org/1999/02/22-rdf-syntax-ns#"
   xmlns:svg="http://www.w3.org/2000/svg"
   xmlns="http://www.w3.org/2000/svg"
   xmlns:sodipodi="http://sodipodi.sourceforge.net/DTD/sodipodi-0.dtd"
   xmlns:inkscape="http://www.inkscape.org/namespaces/inkscape"
   width="200mm"
   height="200mm"
   viewBox="1 46 200 200"
   id="svg2"
   version="1.1"
   inkscape:version="0.91 r13725"
   sodipodi:docname="Znak_kachestva.svg">
  <metadata
     id="metadata24">
    <rdf:RDF>
      <cc:Work
         rdf:about="">
        <dc:format>image/svg+xml</dc:format>
        <dc:type
           rdf:resource="http://purl.org/dc/dcmitype/StillImage" />
        <dc:title />
      </cc:Work>
    </rdf:RDF>
  </metadata>
  <defs
     id="defs22" />
  <sodipodi:namedview
     pagecolor="#94a59a"
     bordercolor="#666666"
     borderopacity="1"
     objecttolerance="10"
     gridtolerance="10"
     guidetolerance="10"
     inkscape:pageopacity="0"
     inkscape:pageshadow="2"
     inkscape:window-width="640"
     inkscape:window-height="480"
     id="namedview20"
     showgrid="false"
     inkscape:zoom="0.76143272"
     inkscape:cx="-24.695575"
     inkscape:cy="358.77062"
     inkscape:current-layer="svg2" />
  <polygon
     style="fill:#c0aa8b;fill-opacity:0.67450982;fill-rule:evenodd"
     id="polygon6"
     points="104.855,162.652 161.61,230.677 104.855,193.761 50.4501,231.783 "
     transform="matrix(1,0,0,0.97991063,-3.669211,-0.0027315)" />
  <path
     inkscape:connector-curvature="0"
     style="fill:#c0aa8b;fill-opacity:0.67450982;fill-rule:evenodd"
     id="path8"
     d="m 101.18579,159.38169 c 0,0 -0.1383,0.54297 90.9047,-37.6612 -46.0401,12.46554 -68.7145,12.73424 -91.1124,12.19225 -22.397801,-0.54189 -67.054901,-2.16237 -90.421101,-10.56746 90.628801,36.03641 90.628801,36.03641 90.628801,36.03641 z" />
  <path
     inkscape:connector-curvature="0"
     style="fill:#c0aa8b;fill-opacity:0.67450982;fill-rule:evenodd"
     id="path10"
     d="m 2.674889,120.25484 c 20.0551,-28.082768 69.4869,-62.084001 96.5185,-70.620297 33.557901,9.670347 83.928101,46.726157 100.806001,69.108887 0.486,34.27217 -19.2932,92.94952 -36.1288,115.36488 -33.289,10.51983 -97.609701,9.10376 -123.799001,-0.76149 -20.4195,-27.8278 -38.1061,-85.26751 -37.3974,-113.09149 z m 7.6065,2.68378 c 19.1939,-23.570476 50.3141,-48.744086 89.3209,-65.839803 28.919101,10.311305 64.427201,33.594472 93.403401,64.369743 -1.508,30.11902 -12.3644,69.46792 -33.807,105.68826 -29.8242,7.43213 -72.434201,9.99822 -114.065001,0.54865 -16.3583,-25.54196 -31.2759,-63.03981 -34.8527,-104.76714 z" />
  <g
     id="g4201"
     transform="translate(-1.4825851,2.0639795)"
     style="fill:#c0aa8b;fill-opacity:0.67450982;stroke:#c0aa8b;stroke-width:2.25777769;stroke-miterlimit:4;stroke-dasharray:none;stroke-opacity:0.67450982">
    <g
       style="font-style:normal;font-variant:normal;font-weight:normal;font-stretch:normal;font-size:35.27777481px;line-height:121.00000381%;font-family:Kartika;-inkscape-font-specification:'Kartika, Normal';text-align:start;letter-spacing:0px;word-spacing:0px;writing-mode:lr-tb;text-anchor:start;fill:#c0aa8b;fill-opacity:0.67450982;stroke:#c0aa8b;stroke-width:2.25777769;stroke-linecap:butt;stroke-linejoin:miter;stroke-miterlimit:4;stroke-dasharray:none;stroke-opacity:0.67450982"
       id="text4189">
      <path
         inkscape:connector-curvature="0"
         d="m 83.569574,95.702434 -7.269151,26.131046 -3.290066,0 -6.287299,-22.737627 -6.304524,22.737627 -3.307291,0 -7.269151,-26.131046 3.669026,0 5.236545,21.256236 5.908338,-21.256236 4.116889,0 5.908338,21.256236 5.219319,-21.256236 3.669027,0 z"
         style="fill:#c0aa8b;fill-opacity:0.67450982;stroke:#c0aa8b;stroke-width:2.25777769;stroke-miterlimit:4;stroke-dasharray:none;stroke-opacity:0.67450982"
         id="path4210" />
    </g>
    <g
       style="font-style:normal;font-variant:normal;font-weight:normal;font-stretch:normal;font-size:35.27777481px;line-height:121.00000381%;font-family:Kartika;-inkscape-font-specification:'Kartika, Normal';text-align:start;letter-spacing:0px;word-spacing:0px;writing-mode:lr-tb;text-anchor:start;fill:#c0aa8b;fill-opacity:0.67450982;stroke:#c0aa8b;stroke-width:2.25777769;stroke-linecap:butt;stroke-linejoin:miter;stroke-miterlimit:4;stroke-dasharray:none;stroke-opacity:0.67450982"
       id="text4193">
      <path
         inkscape:connector-curvature="0"
         d="m 94.434378,95.702434 8.251002,0 q 13.34974,0 13.34974,12.901886 0,13.22916 -13.34974,13.22916 l -8.251002,0 0,-26.131046 z m 3.410644,22.996006 4.754228,0 q 2.96279,0 4.87481,-0.68901 1.91203,-0.70625 3.01446,-2.01539 1.10243,-1.30913 1.53307,-3.16948 0.43064,-1.87758 0.43064,-4.22024 0,-2.29099 -0.44787,-4.09967 -0.43063,-1.80867 -1.55029,-3.08336 -1.10243,-1.29191 -3.01446,-1.963702 -1.8948,-0.671794 -4.84036,-0.671794 l -4.754228,0 0,19.912646 z"
         style="fill:#c0aa8b;fill-opacity:0.67450982;stroke:#c0aa8b;stroke-width:2.25777769;stroke-miterlimit:4;stroke-dasharray:none;stroke-opacity:0.67450982"
         id="path4213" />
    </g>
    <g
       style="font-style:normal;font-variant:normal;font-weight:normal;font-stretch:normal;font-size:35.27777481px;line-height:121.00000381%;font-family:Kartika;-inkscape-font-specification:'Kartika, Normal';text-align:start;letter-spacing:0px;word-spacing:0px;writing-mode:lr-tb;text-anchor:start;fill:#c0aa8b;fill-opacity:0.67450982;stroke:#c0aa8b;stroke-width:2.25777769;stroke-linecap:butt;stroke-linejoin:miter;stroke-miterlimit:4;stroke-dasharray:none;stroke-opacity:0.67450982"
       id="text4197">
      <path
         inkscape:connector-curvature="0"
         d="m 154.19261,121.83348 -3.32451,0 0,-22.238089 -7.44141,22.238089 -3.13503,0 -7.44141,-22.238089 0,22.238089 -3.23839,0 0,-26.131046 5.13319,0 7.13135,21.773006 7.0969,-21.773006 5.21931,0 0,26.131046 z"
         style="fill:#c0aa8b;fill-opacity:0.67450982;stroke:#c0aa8b;stroke-width:2.25777769;stroke-miterlimit:4;stroke-dasharray:none;stroke-opacity:0.67450982"
         id="path4216" />
    </g>
  </g>
</svg>
