<?xml version="1.0" encoding="UTF-8" standalone="no"?>
<!-- Generator: Adobe Illustrator 21.0.0, SVG Export Plug-In . SVG Version: 6.00 Build 0)  -->

<svg
   xmlns:dc="http://purl.org/dc/elements/1.1/"
   xmlns:cc="http://creativecommons.org/ns#"
   xmlns:rdf="http://www.w3.org/1999/02/22-rdf-syntax-ns#"
   xmlns:svg="http://www.w3.org/2000/svg"
   xmlns="http://www.w3.org/2000/svg"
   xmlns:sodipodi="http://sodipodi.sourceforge.net/DTD/sodipodi-0.dtd"
   xmlns:inkscape="http://www.inkscape.org/namespaces/inkscape"
   version="1.1"
   id="Слой_1"
   x="0px"
   y="0px"
   viewBox="0 0 245.78293 293.11349"
   xml:space="preserve"
   inkscape:version="0.91 r13725"
   sodipodi:docname="consult.svg"
   width="245.78293"
   height="293.11349"><metadata
     id="metadata432"><rdf:RDF><cc:Work
         rdf:about=""><dc:format>image/svg+xml</dc:format><dc:type
           rdf:resource="http://purl.org/dc/dcmitype/StillImage" /><dc:title></dc:title></cc:Work></rdf:RDF></metadata><defs
     id="defs430" /><sodipodi:namedview
     pagecolor="#041a25"
     bordercolor="#666666"
     borderopacity="1"
     objecttolerance="10"
     gridtolerance="10"
     guidetolerance="10"
     inkscape:pageopacity="0.76862745"
     inkscape:pageshadow="2"
     inkscape:window-width="640"
     inkscape:window-height="480"
     id="namedview428"
     showgrid="false"
     inkscape:zoom="1.4035715"
     inkscape:cx="-82.107048"
     inkscape:cy="144.94239"
     inkscape:current-layer="Слой_1"
     fit-margin-top="2"
     fit-margin-left="2"
     fit-margin-right="2"
     fit-margin-bottom="2" /><radialGradient
     id="SVGID_1_"
     cx="133.3708"
     cy="263.69901"
     r="38.1423"
     gradientUnits="userSpaceOnUse"
     gradientTransform="translate(0,-200)"><stop
       offset="0"
       style="stop-color:#B0B0AF"
       id="stop6" /><stop
       offset="1"
       style="stop-color:#1A1A1A"
       id="stop8" /></radialGradient><radialGradient
     id="SVGID_2_"
     cx="139.72121"
     cy="290.17059"
     r="7.3699002"
     gradientUnits="userSpaceOnUse"
     gradientTransform="translate(0,-200)"><stop
       offset="0"
       style="stop-color:#E5CDB4"
       id="stop13" /><stop
       offset="0.4188"
       style="stop-color:#E3AE6D"
       id="stop15" /><stop
       offset="0.8207"
       style="stop-color:#D9A662"
       id="stop17" /><stop
       offset="1"
       style="stop-color:#D3A25B"
       id="stop19" /></radialGradient><radialGradient
     id="SVGID_3_"
     cx="157.35451"
     cy="296.90881"
     r="31.434"
     gradientUnits="userSpaceOnUse"
     gradientTransform="translate(0,-200)"><stop
       offset="0"
       style="stop-color:#FCE8D2"
       id="stop26" /><stop
       offset="0.4188"
       style="stop-color:#FBC887"
       id="stop28" /><stop
       offset="0.7888"
       style="stop-color:#F3C17C"
       id="stop30" /><stop
       offset="1"
       style="stop-color:#EDBB73"
       id="stop32" /></radialGradient><radialGradient
     id="SVGID_4_"
     cx="159.6927"
     cy="273.1441"
     r="12.1813"
     gradientUnits="userSpaceOnUse"
     gradientTransform="translate(0,-200)"><stop
       offset="0"
       style="stop-color:#FCE8D2"
       id="stop37" /><stop
       offset="0.4188"
       style="stop-color:#FBC887"
       id="stop39" /><stop
       offset="0.7888"
       style="stop-color:#F3C17C"
       id="stop41" /><stop
       offset="1"
       style="stop-color:#EDBB73"
       id="stop43" /></radialGradient><radialGradient
     id="SVGID_5_"
     cx="5377.4126"
     cy="-6666.46"
     r="17.1455"
     gradientTransform="matrix(-0.155,1.0236,0.9428,0.1683,7290.999,-4290.4302)"
     gradientUnits="userSpaceOnUse"><stop
       offset="0"
       style="stop-color:#FCE8D2"
       id="stop48" /><stop
       offset="0.4188"
       style="stop-color:#FBC887"
       id="stop50" /><stop
       offset="0.7888"
       style="stop-color:#F3C17C"
       id="stop52" /><stop
       offset="1"
       style="stop-color:#EDBB73"
       id="stop54" /></radialGradient><radialGradient
     id="SVGID_6_"
     cx="5387.0659"
     cy="-6667.7681"
     r="28.924"
     gradientTransform="matrix(-0.155,1.0236,0.9428,0.1683,7290.999,-4290.4302)"
     gradientUnits="userSpaceOnUse"><stop
       offset="0"
       style="stop-color:#FAE4CA"
       id="stop59" /><stop
       offset="0.4188"
       style="stop-color:#F6BF7C"
       id="stop61" /><stop
       offset="0.7394"
       style="stop-color:#ECB771"
       id="stop63" /><stop
       offset="1"
       style="stop-color:#E0AD64"
       id="stop65" /></radialGradient><radialGradient
     id="SVGID_7_"
     cx="5388.9844"
     cy="-6667.5815"
     r="0.87110001"
     gradientTransform="matrix(-0.155,1.0236,0.9428,0.1683,7290.999,-4290.4302)"
     gradientUnits="userSpaceOnUse"><stop
       offset="0"
       style="stop-color:#FAE4CA"
       id="stop70" /><stop
       offset="0.1361"
       style="stop-color:#FFFFFF"
       id="stop72" /></radialGradient><radialGradient
     id="SVGID_8_"
     cx="5302.9771"
     cy="-5554.3315"
     r="14.5582"
     gradientTransform="matrix(-0.3253,0.9753,0.8984,0.3532,6892.3726,-3116.5732)"
     gradientUnits="userSpaceOnUse"><stop
       offset="0"
       style="stop-color:#FCE8D2"
       id="stop77" /><stop
       offset="0.4188"
       style="stop-color:#FBC887"
       id="stop79" /><stop
       offset="0.7888"
       style="stop-color:#F3C17C"
       id="stop81" /><stop
       offset="1"
       style="stop-color:#EDBB73"
       id="stop83" /></radialGradient><radialGradient
     id="SVGID_9_"
     cx="5310.8608"
     cy="-5555.314"
     r="25.1001"
     gradientTransform="matrix(-0.3253,0.9753,0.8984,0.3532,6892.3726,-3116.5732)"
     gradientUnits="userSpaceOnUse"><stop
       offset="0"
       style="stop-color:#FAE4CA"
       id="stop88" /><stop
       offset="0.4188"
       style="stop-color:#F6BF7C"
       id="stop90" /><stop
       offset="0.7394"
       style="stop-color:#ECB771"
       id="stop92" /><stop
       offset="1"
       style="stop-color:#E0AD64"
       id="stop94" /></radialGradient><radialGradient
     id="SVGID_10_"
     cx="5312.5269"
     cy="-5555.1519"
     r="0.7561"
     gradientTransform="matrix(-0.3253,0.9753,0.8984,0.3532,6892.3726,-3116.5732)"
     gradientUnits="userSpaceOnUse"><stop
       offset="0"
       style="stop-color:#FAE4CA"
       id="stop99" /><stop
       offset="0.1361"
       style="stop-color:#FFFFFF"
       id="stop101" /></radialGradient><radialGradient
     id="SVGID_14_"
     cx="5276.1592"
     cy="-7645.6641"
     r="25.7117"
     gradientTransform="matrix(0,1.0373,0.9555,0,7472.1992,-5383.7383)"
     gradientUnits="userSpaceOnUse"><stop
       offset="0"
       style="stop-color:#FCE8D2"
       id="stop137" /><stop
       offset="0.4188"
       style="stop-color:#FBC887"
       id="stop139" /><stop
       offset="0.7888"
       style="stop-color:#F3C17C"
       id="stop141" /><stop
       offset="1"
       style="stop-color:#EDBB73"
       id="stop143" /></radialGradient><radialGradient
     id="SVGID_15_"
     cx="5288.8354"
     cy="-7647.4834"
     r="31.8354"
     gradientTransform="matrix(0,1.0373,0.9555,0,7472.1992,-5383.7383)"
     gradientUnits="userSpaceOnUse"><stop
       offset="0"
       style="stop-color:#FAE4CA"
       id="stop148" /><stop
       offset="0.4188"
       style="stop-color:#F6BF7C"
       id="stop150" /><stop
       offset="0.7394"
       style="stop-color:#ECB771"
       id="stop152" /><stop
       offset="1"
       style="stop-color:#E0AD64"
       id="stop154" /></radialGradient><radialGradient
     id="SVGID_16_"
     cx="5290.9453"
     cy="-7647.2773"
     r="0.95850003"
     gradientTransform="matrix(0,1.0373,0.9555,0,7472.1992,-5383.7383)"
     gradientUnits="userSpaceOnUse"><stop
       offset="0"
       style="stop-color:#FAE4CA"
       id="stop159" /><stop
       offset="0.1361"
       style="stop-color:#FFFFFF"
       id="stop161" /></radialGradient><radialGradient
     id="SVGID_17_"
     cx="158.205"
     cy="296.42929"
     r="5.4145999"
     gradientUnits="userSpaceOnUse"
     gradientTransform="translate(0,-200)"><stop
       offset="0"
       style="stop-color:#FCE8D2"
       id="stop166" /><stop
       offset="0.4188"
       style="stop-color:#FBC887"
       id="stop168" /><stop
       offset="0.7888"
       style="stop-color:#F3C17C"
       id="stop170" /><stop
       offset="1"
       style="stop-color:#EDBB73"
       id="stop172" /></radialGradient><radialGradient
     id="SVGID_18_"
     cx="183.8877"
     cy="-2746.3977"
     r="2.9507"
     gradientTransform="matrix(1.0453,0,0,1.7014,-32.9317,4759.0996)"
     gradientUnits="userSpaceOnUse"><stop
       offset="0"
       style="stop-color:#FCE8D2"
       id="stop177" /><stop
       offset="0.4188"
       style="stop-color:#FBC887"
       id="stop179" /><stop
       offset="0.7888"
       style="stop-color:#F3C17C"
       id="stop181" /><stop
       offset="1"
       style="stop-color:#EDBB73"
       id="stop183" /></radialGradient><radialGradient
     id="SVGID_19_"
     cx="183.8877"
     cy="-2745.8276"
     r="2.9500999"
     gradientTransform="matrix(1.0453,0,0,1.7014,-32.9317,4759.0996)"
     gradientUnits="userSpaceOnUse"><stop
       offset="0"
       style="stop-color:#FCE8D2"
       id="stop188" /><stop
       offset="0.4188"
       style="stop-color:#FBC887"
       id="stop190" /><stop
       offset="0.7888"
       style="stop-color:#F3C17C"
       id="stop192" /><stop
       offset="1"
       style="stop-color:#EDBB73"
       id="stop194" /></radialGradient><g
     id="g4216"
     transform="translate(-56.746882,-20.711185)"><g
       style="fill:#9b9b9b;fill-opacity:1"
       transform="matrix(0.72153707,0,0,0.63575173,53.062214,20.790244)"
       id="#010101ff"><path
         style="opacity:1;fill:#9b9b9b;fill-opacity:1"
         inkscape:connector-curvature="0"
         id="path52"
         d="m 162.96,3.63 c 9.91,-1.1 19.89,-0.54 29.79,0.35 19.09,3.26 36.8,13.36 50.02,27.43 14.92,15.74 24.05,36.92 24.97,58.61 3.31,2.48 7.26,5.26 7.93,9.65 -0.93,11.73 -0.25,23.55 -0.37,35.31 1.93,6.36 -3.47,11.79 -8.82,14.18 -5.27,0.65 -11.07,0.32 -15.32,-3.24 -5.3,-3.85 -5.44,-11.06 -5.52,-16.99 0.13,-9.78 -0.23,-19.56 0.21,-29.33 1.28,-3.84 3.99,-7.13 7.7,-8.84 0.58,-5.86 -0.23,-11.79 -2.44,-17.24 -4.2,-13.21 -11.17,-25.7 -21.39,-35.19 -8.2,-8.29 -18.57,-14.05 -29.4,-18.14 -14.39,-5.53 -30.99,-6.42 -45.59,-1.18 -16.63,4.84 -31.85,14.83 -42.08,28.9 -7.09,9.23 -11.46,20.2 -14.19,31.44 -0.82,4.19 -3.56,10.37 1.26,13.03 2.76,1.8 4.68,4.66 5.59,7.81 -0.13,12.88 0.34,25.78 -0.33,38.64 -0.66,4.55 -4.59,7.15 -7.65,10.05 3.09,4.21 7.09,7.67 11.22,10.84 7.03,5.94 16.42,8.33 25.44,8.73 5.33,-0.1 10.98,-0.28 15.85,-2.64 2.2,-2.89 2.92,-6.92 6.09,-9.03 3.54,-2.46 8,-1.16 11.9,-0.54 0.21,0.04 0.61,0.12 0.82,0.16 2.27,2.71 4.6,5.81 4.04,9.6 0.42,4.44 -2.88,8.03 -6.41,10.19 -6.17,1.54 -11.7,-3.67 -17.78,-1.49 -8.3,2.28 -17.09,2.45 -25.46,0.41 -7.32,-1.38 -13.84,-5.07 -20.45,-8.32 -6.63,-4.33 -11.78,-10.52 -16.19,-17.02 -6.49,-1.85 -11.98,-7.72 -11.95,-14.69 0.03,-10.67 -0.1,-21.35 0.06,-32.03 0.13,-5.65 4.05,-10.23 8.68,-13.04 1.28,-35.04 24.76,-67.98 57.33,-80.83 7.39,-2.18 14.75,-4.7 22.44,-5.55 z" /><path
         style="opacity:1;fill:#9b9b9b;fill-opacity:1"
         inkscape:connector-curvature="0"
         id="path54"
         d="m 153.62,27.55 c 7.06,-1.08 14.17,-2.6 21.36,-2.06 8.22,0.55 16.32,2.09 24.41,3.57 3.7,0.8 7.26,2.27 10.54,4.15 2.96,1.69 4.65,4.78 7.13,7.01 3.52,1.97 8.23,0.49 11.4,3.28 2.86,2.71 5.44,5.8 7.28,9.29 3.02,11.05 3.42,22.55 2.66,33.92 l -0.15,1.35 c -0.72,7.53 -2.06,14.98 -2.97,22.49 0.27,0.14 0.82,0.43 1.09,0.58 0.5,0.24 1.49,0.72 1.98,0.96 1.48,9.81 -0.71,19.76 -5.5,28.38 -1.25,2.44 -3.46,4.2 -5.88,5.42 -1.26,0.87 -3.16,1.45 -3.39,3.21 -1.01,3.9 -0.99,8.04 -2.51,11.81 -1.67,4.1 -4.85,7.3 -7.06,11.08 -1.45,2.39 -1.46,5.26 -1.87,7.94 4.36,3.11 11.42,1.47 14.02,6.88 2.71,4.31 4.32,9.37 7.9,13.11 3.64,3.43 8.59,4.89 13.17,6.63 10.25,3.44 19.87,8.57 30.28,11.61 13.24,5.48 26.93,11.58 36.79,22.33 -1.76,0.34 -3.52,0.74 -5.31,0.82 -85.32,0.02 -170.63,-0.13 -255.95,-0.02 -5.24,0.02 -10.52,0.27 -15.72,-0.61 0.63,0.69 1.26,1.37 1.9,2.05 4.26,0.22 8.51,0.76 12.8,0.73 90.98,-0.02 181.96,-0.01 272.94,0 4.84,-0.18 9.35,2.28 12.91,5.36 2.61,3.92 5.2,8.27 5.1,13.14 -0.03,7.66 -1.75,15.22 -1.56,22.9 -0.21,-0.92 -0.41,-1.83 -0.62,-2.74 -1.15,19.25 -4.5,38.33 -5.38,57.61 -0.07,2.42 -0.18,4.84 -0.37,7.26 -0.15,-3.02 -0.35,-6.05 -0.52,-9.06 -0.13,12.08 -2.1,24.03 -3.23,36.03 -1.48,13.76 -2.86,27.53 -4.45,41.27 -0.59,5 -0.72,10.13 -2.23,14.97 -2.6,7.66 -10.72,12.5 -18.64,12.32 -84.65,0 -169.31,-0.02 -253.96,0.01 -7.1,0.21 -15.22,0.5 -20.65,-4.93 -6.73,-5.47 -5.96,-14.84 -6.94,-22.59 -3.79,-29.27 -6.5,-58.69 -9.8,-88.02 -1.06,-11.31 -2.78,-22.57 -3.1,-33.94 -0.22,3 -0.47,6.01 -0.6,9.02 -0.18,-3.12 -0.25,-6.23 -0.35,-9.35 -0.39,-8.88 -1.5,-17.71 -2.5,-26.53 -0.45,-3.85 -0.08,-7.75 0.83,-11.5 2.44,-4.72 6.6,-8.92 11.88,-10.2 3.75,0.3 7.51,0.21 11.27,0.08 98.96,-0.13 197.92,0.09 296.87,-0.06 -97.29,-0.15 -194.59,0.01 -291.88,-0.07 -4.71,0.07 -9.45,0.19 -14.13,-0.51 4.71,-1.82 9.63,-0.43 14.49,-0.5 -0.07,-0.89 -0.22,-2.69 -0.29,-3.58 2.48,-2.27 4.82,-4.72 7.67,-6.53 16.09,-10.14 34.06,-16.57 51.45,-24.05 5.75,-2.49 12.01,-3.93 17.2,-7.57 1.22,-0.8 2.42,-1.64 3.51,-2.62 4.62,-4.46 5.62,-11.56 10.73,-15.58 3.11,-1.73 6.9,-0.83 10.31,-1.11 4.79,0.19 9.35,-1.59 14.1,-1.81 4.76,0.5 9.74,3.22 14.37,0.61 5.81,-2.41 10.75,-7.65 11.09,-14.17 0.84,-7.26 -4.34,-14.03 -10.86,-16.67 -4.79,-1.79 -10.49,-1.36 -14.64,1.76 -3.15,2.26 -4.72,5.95 -7.36,8.69 -3.93,1.7 -8.44,1.95 -12.66,1.42 -2.48,-0.34 -2.84,-3.24 -3.2,-5.23 -0.62,-2.99 -0.26,-6.33 -1.82,-9.04 -2.82,-2.94 -6.4,-5.03 -9.18,-8.02 -4.15,-6.46 -6.39,-14.31 -6.33,-21.98 -0.19,-3.15 1.5,-5.95 3.87,-7.88 -0.08,-0.71 -0.26,-2.11 -0.35,-2.82 -0.99,-10.4 -2.88,-20.76 -2.75,-31.24 -0.08,-6.62 0.86,-13.18 1.84,-19.7 0.85,-4.21 3.58,-7.69 6.4,-10.79 3.11,-3.47 7.64,-5.04 11.6,-7.3 7.19,-3.51 13.53,-8.95 21.52,-10.67 m 17.84,304.19 c -4.33,1.48 -7.85,5.52 -8.19,10.16 -0.99,6.44 4.14,12.9 10.59,13.49 7.07,1.08 14.04,-5.21 13.61,-12.36 0.13,-7.91 -8.59,-13.92 -16.01,-11.29 z" /><path
         style="opacity:1;fill:#9b9b9b;fill-opacity:1"
         inkscape:connector-curvature="0"
         id="path56"
         d="m 34.19,452.67 c 3.2,-4.45 9.11,-3.02 13.8,-3.19 87.34,0.08 174.69,0.02 262.03,0.08 2.71,-0.21 6.11,0.86 5.65,4.2 -0.36,1.34 -0.73,2.67 -1.09,4.02 -7.83,-1.23 -15.75,0.17 -23.59,-0.53 -5.02,0.25 -10.03,-0.09 -15.04,0.36 -7.64,-0.82 -15.33,-0.03 -22.98,-0.3 -61.96,-0.05 -123.98,-0.11 -185.97,-0.06 -9.63,-0.13 -19.28,0.16 -28.9,-0.17 -1.14,-0.59 -2.3,-1.14 -3.34,-1.9 -0.14,-0.63 -0.42,-1.88 -0.57,-2.51 z" /></g><path
       inkscape:connector-curvature="0"
       id="path4405"
       d="m 175.66452,245.66628 c -2.86603,-1.30159 -4.48428,-3.71436 -4.48428,-6.68593 0,-2.92767 1.2577,-4.78362 4.29252,-6.33433 2.81167,-1.4367 5.2216,-1.4367 8.0655,0 5.9704,3.01615 5.9704,9.83052 0,12.84667 -2.71519,1.37167 -5.11895,1.42466 -7.87374,0.17359 z"
       style="opacity:0.97000002;fill:#9b9b9b;fill-opacity:1;fill-rule:evenodd;stroke:#9b9b9b;stroke-width:1.301;stroke-linecap:round;stroke-linejoin:round;stroke-miterlimit:4;stroke-dasharray:none;stroke-dashoffset:0;stroke-opacity:1" /></g><g
     id="g4232"
     transform="matrix(1.3875,0,0,1.4966677,-49.091595,-106.29929)"><path
       sodipodi:nodetypes="cssccscsssccscccscccsccscccscscsccscccscccscc"
       inkscape:connector-curvature="0"
       id="path4143"
       d="m 90.371968,232.89832 28.453782,0 c 1.19335,0 7.20573,-0.21324 8.29546,-0.63973 1.08974,-0.42649 2.08435,-0.98625 2.98384,-1.67929 0.92594,-0.71081 1.72848,-1.51048 2.40763,-2.39899 0.70561,-0.90628 1.25773,-1.83034 1.65636,-2.77217 0.41368,-0.97736 0.65311,-1.94584 0.71832,-2.90544 0.0841,-0.95959 -0.0284,-1.81257 -0.33758,-2.55892 -0.30919,-0.74635 -0.82062,-1.35054 -1.53429,-1.81257 -0.71366,-0.46203 -1.63876,-0.69304 -2.77529,-0.69304 l -9.70107,0 -5.18977,12.2615 4.0915,0 c 0.75768,0 6.3479,-0.13328 7.02898,-0.39983 0.70003,-0.26656 1.32972,-0.61308 1.88908,-1.03956 0.5783,-0.42649 1.07874,-0.91517 1.50132,-1.46605 0.44153,-0.55088 0.78264,-1.11064 1.02332,-1.67929 0.23317,-0.55088 0.36786,-1.09288 0.40408,-1.62599 0.0437,-0.55088 -0.0468,-1.03067 -0.27157,-1.43939 -0.20586,-0.40872 -0.54973,-0.73746 -1.03164,-0.98625 -0.45544,-0.26655 -1.07148,-0.39983 -1.84811,-0.39983 l -7.25754,0 0.78408,-1.62598 7.13326,0 c 1.00394,0 1.82847,0.1777 2.47362,0.5331 0.65266,0.33764 1.12008,0.79967 1.40225,1.38609 0.30863,0.56865 0.44707,1.22614 0.4153,1.9725 -0.0242,0.72858 -0.20184,1.48382 -0.53278,2.26571 -0.3159,0.74636 -0.77387,1.49271 -1.37389,2.23906 -0.57357,0.72858 -1.24589,1.37719 -2.01695,1.94584 -0.77107,0.56865 -1.6296,1.03068 -2.5756,1.38609 -0.92705,0.35541 -6.77285,0.53311 -7.79573,0.53311 l -5.8247,0 6.54363,-15.46016 12.03095,0 c 1.30701,0 2.35913,0.26656 3.15636,0.79967 0.81617,0.53311 1.39989,1.23503 1.75114,2.10577 0.37019,0.87075 0.50779,1.86588 0.41278,2.98541 -0.0875,1.10176 -0.37944,2.23906 -0.87584,3.4119 -0.49642,1.17284 -1.18044,2.31902 -2.05207,3.43855 -0.85269,1.11953 -1.82698,2.12355 -2.92285,3.01207 -1.08835,0.87074 -2.27572,1.57267 -3.56212,2.10577 -1.26746,0.53311 -7.42553,0.79967 -8.73254,0.79967 l -29.022042,0 z"
       style="font-style:normal;font-variant:normal;font-weight:normal;font-stretch:normal;font-size:medium;line-height:125%;font-family:'HFF Clip Hanger';-inkscape-font-specification:'HFF Clip Hanger, Normal';text-align:start;letter-spacing:0px;word-spacing:0px;writing-mode:lr-tb;text-anchor:start;fill:#041a25;fill-opacity:0.76862745;stroke:none;stroke-width:0;stroke-linecap:butt;stroke-linejoin:miter;stroke-miterlimit:4;stroke-dasharray:none;stroke-opacity:0.94117647" /><path
       inkscape:connector-curvature="0"
       id="path4145"
       d="m 98.210528,228.74934 -4.25305,-10.79064 1.2888,0 3.09313,7.834 0.70884,-1.48911 -3.00721,-7.63977 -3.86641,0 5.9285,15.08531 5.412972,-11.37333 5.43445,11.37333 5.9285,-15.08531 -3.86641,0 -3.00721,7.63977 0.70884,1.48911 3.09313,-7.834 1.2888,0 -4.25305,10.79064 -5.32705,-11.09278 -5.305572,11.09278 z"
       style="font-style:normal;font-variant:normal;font-weight:normal;font-stretch:normal;font-size:medium;line-height:125%;font-family:'HFF Clip Hanger';-inkscape-font-specification:'HFF Clip Hanger, Normal';text-align:start;letter-spacing:0px;word-spacing:0px;writing-mode:lr-tb;text-anchor:start;fill:#041a25;fill-opacity:0.76862745;stroke:none;stroke-width:1.89999998;stroke-linecap:butt;stroke-linejoin:miter;stroke-miterlimit:4;stroke-dasharray:none;stroke-opacity:0.94117647" /><path
       inkscape:connector-curvature="0"
       id="path4145-0"
       d="m 142.06958,219.66362 -4.25305,10.79064 1.2888,0 3.09313,-7.834 0.70884,1.4891 -3.00721,7.63977 -3.8664,0 5.92849,-15.08531 5.41297,11.37333 5.43445,-11.37333 5.9285,15.08531 -3.86641,0 -3.00721,-7.63977 0.70884,-1.4891 3.09313,7.834 1.2888,0 -4.25305,-10.79064 -5.32705,11.09277 -5.30557,-11.09277 z"
       style="font-style:normal;font-variant:normal;font-weight:normal;font-stretch:normal;font-size:70px;line-height:125%;font-family:'HFF Clip Hanger';-inkscape-font-specification:'HFF Clip Hanger, Normal';text-align:start;letter-spacing:0px;word-spacing:0px;writing-mode:lr-tb;text-anchor:start;fill:#041a25;fill-opacity:0.76862745;stroke:none;stroke-width:1.89999998;stroke-linecap:butt;stroke-linejoin:miter;stroke-miterlimit:4;stroke-dasharray:none;stroke-opacity:0.94117647" /><path
       sodipodi:nodetypes="cssscssscssscsssccc"
       inkscape:connector-curvature="0"
       id="rect4869"
       d="m 107.88226,233.69124 -17.919092,0 c -0.49242,0 -0.93684,-0.19674 -1.25816,-0.51568 -0.32132,-0.31893 -0.51953,-0.76007 -0.51953,-1.24884 l 0,-8.51494 0,-8.51495 c 0,-0.48876 0.19821,-0.92989 0.51953,-1.24883 0.32132,-0.31894 0.76574,-0.51568 1.25816,-0.51568 l 35.838172,0 35.83816,0 c 0.49242,0 0.93685,0.19674 1.25816,0.51568 0.32132,0.31893 0.51954,0.76006 0.51954,1.24883 l 0,8.51495 0,8.51494 c 0,0.48877 -0.19822,0.92991 -0.51954,1.24884 -0.32131,0.31894 -0.76574,0.51568 -1.25816,0.51568 l -17.91908,0 -5.17768,0 -3.78186,0"
       style="font-style:normal;font-variant:normal;font-weight:normal;font-stretch:normal;font-size:medium;line-height:125%;font-family:'HFF Clip Hanger';-inkscape-font-specification:'HFF Clip Hanger, Normal';text-align:start;letter-spacing:0px;word-spacing:0px;writing-mode:lr-tb;text-anchor:start;fill:none;fill-opacity:0.02564105;stroke:#041a25;stroke-width:1.5959574;stroke-linecap:butt;stroke-linejoin:round;stroke-miterlimit:4;stroke-dasharray:none;stroke-dashoffset:0;stroke-opacity:0.76862745" /></g></svg>