<?xml version="1.0" encoding="UTF-8" standalone="no"?>
<!-- Generator: Adobe Illustrator 16.2.0, SVG Export Plug-In . SVG Version: 6.00 Build 0)  -->

<svg
   xmlns:dc="http://purl.org/dc/elements/1.1/"
   xmlns:cc="http://creativecommons.org/ns#"
   xmlns:rdf="http://www.w3.org/1999/02/22-rdf-syntax-ns#"
   xmlns:svg="http://www.w3.org/2000/svg"
   xmlns="http://www.w3.org/2000/svg"
   xmlns:sodipodi="http://sodipodi.sourceforge.net/DTD/sodipodi-0.dtd"
   xmlns:inkscape="http://www.inkscape.org/namespaces/inkscape"
   version="1.1"
   id="Слой_1"
   x="0px"
   y="0px"
   width="300.06421"
   height="353.39166"
   viewBox="0 0 300.0642 353.39166"
   enable-background="new 0 0 373.833 332.638"
   xml:space="preserve"
   inkscape:version="0.91 r13725"
   sodipodi:docname="WDM-mafia_01.svg"><metadata
     id="metadata9"><rdf:RDF><cc:Work
         rdf:about=""><dc:format>image/svg+xml</dc:format><dc:type
           rdf:resource="http://purl.org/dc/dcmitype/StillImage" /><dc:title></dc:title></cc:Work></rdf:RDF></metadata><defs
     id="defs7" /><sodipodi:namedview
     pagecolor="#041a25"
     bordercolor="#666666"
     borderopacity="1"
     objecttolerance="10"
     gridtolerance="10"
     guidetolerance="10"
     inkscape:pageopacity="0.76862745"
     inkscape:pageshadow="2"
     inkscape:window-width="640"
     inkscape:window-height="480"
     id="namedview5"
     showgrid="false"
     inkscape:zoom="1.1961229"
     inkscape:cx="81.747852"
     inkscape:cy="199.28822"
     inkscape:current-layer="Слой_1"
     fit-margin-top="3"
     fit-margin-left="3"
     fit-margin-right="3"
     fit-margin-bottom="3" /><path
     d="m 240.98114,92.239337 c 0.65,0 1.181,0.531 1.181,1.182 0,0.65 -0.53,1.181 -1.181,1.181 -0.651,0 -1.182,-0.531 -1.182,-1.181 0.001,-0.651 0.531,-1.182 1.182,-1.182 m -9.604,-37.84 c -1.158,-0.93 -0.823,-2.378 1.162,-3.713 9.787,3.506 15.046,4.236 25.125,4.528 0.146,2.045 0.146,2.045 -0.438,3.652 -6.202,2.397 -19.578,0.57 -25.849,-4.467 z m 6.316,18.158 c -0.575,-0.943 -0.914,-1.846 -1.078,-2.943 -0.273,-1.822 -0.44,-1.958 1.329,-1.958 l 2.574,0 c 2.495,0 2.283,1.709 1.245,3.636 -0.402,0.745 -0.702,1.195 -1.097,1.618 -1.6,1.707 -1.794,1.581 -2.973,-0.353 z m 7.554,42.842003 c -2.556,-4.218 -7.347,-9.977 -3.572,-14.933 7.539,4.194 5.733,9.428 5.514,17.654 -0.063,2.397 -0.208,3.047 -0.765,2.893 -3.126,-0.867 -1.963,-3.253 -1.177,-5.614 z m -94.22,13.001 c -3.871,-8.775 -5.99,-13.982 -6.175,-20.999 -0.169,-6.474 1.283,-25.691003 9.097,-26.769003 0.055,1.04 0.3,2.083 0.218,3.123 -0.416,5.301 0.417,9.959 1.392,15.289 1.971,10.765003 1.014,26.377003 -4.532,29.356003 z m -83.263998,145.931 c -0.292,-3.213 -0.584,-6.427 -0.73,-9.641 -3.359,-11.248 -3.798,-23.227 -7.742,-34.183 0,-1.752 0.146,-3.505 0.292,-5.258 4.674,2.337 5.697,10.517 7.012,15.046 0.876,13.585 1.899,21.473 2.191,33.598 -0.438,0.147 -0.73,0.292 -1.023,0.438 z m 128.109998,58.87 c -5.825,-3.929 -0.889,-16.982 -10.518,-25.125 0,-6.282 1.461,-12.563 1.461,-19.137 -4.383,-25.418 0.73,-51.857 1.461,-77.421 0.73,-7.742 1.606,-15.339 2.483,-22.935 0.146,-13.585 0.438,-27.17 0.73,-40.755 0.292,0 9.737,6.315 10.81,7.012 0.475,11.88 -1.38,38.968 4.09,48.498 0,25.125 -5.404,50.104 -10.371,74.646 -2.338,8.181 -6.281,17.529 -2.338,25.563 -4.82,3.798 -2.629,6.573 0.438,11.541 0,5.404 -2.337,13.585 2.483,17.236 -0.291,0.293 -0.583,0.585 -0.729,0.877 z m -106.559998,10.361 c 1.894,-5.86 4.738,-9.46 10.001999,-12.845 0.456,-1.096 0.855999,-4.417 1.375999,-7.537 0.485,-2.915 4.47,-7.762 4.028,-8.093 -8.186999,-1.023 -3.223,-6.747 0.292,-9.642 1.899,-14.023 4.966,-27.9 7.158,-41.778 0.292,-1.022 0.73,-2.045 1.168,-3.067 0,-15.722 -0.894,-31.892 -1.706,-47.724 -1.016,-19.902 3.229,-39.894 -0.778,-59.936 -4.329,12.2 -10.039,29.429 -22.641998,35.497 -2.191,-1.899 -3.36,-0.146 -5.113,1.314 -2.191,24.395 2.191,43.531 8.326,66.465 1.023,6.281 2.191,12.563 3.36,18.99 0.146,7.597 0.292,15.192 0.438,22.788 -1.169,1.169 -2.337,2.338 -3.36,3.652 l 0,16.552 c 0,5.331 0.601,7.777 -4.829,10.433 -2.776,1.357 -5.79,1.538 -9.241,1.162 -3.055,-0.331 -5.379,-0.534 -5.296,-4.371 0.091,-4.18 3.375,-10.049 4.32,-12.674 0.146,-2.63 0.292,-5.259 0.438,-7.889 -1.899,-3.213 -2.921,-6.719 -4.674,-9.349 -2.629,0.73 -5.259,1.607 -7.742,2.483 -7.834,-0.783 -8.753,2.804 -15.521,4.447 -4.321,1.05 -9.195,1.258 -12.846,-0.939 -2.197,-1.322 -2.403,-2.169 -0.93,-4.398 2.147,-3.249 6.59,-3.346 10.744,-3.346 0,-5.551 5.113,-9.933 5.113,-16.652 -15.776,-24.541 -16.799,-55.51 -19.866,-83.703 -1.461,-1.606 -1.461,-1.606 -4.382,-3.506 -0.876,-6.573 0.73,-14.169 1.46,-20.742 1.746,-6.528 4.08,-18.033 6.282,-24.249 -3.36,-2.191 -7.304,-2.629 -10.664,-4.674 -0.438,-7.158 -5.663216,-13.63727 -5.225216,-21.81727 -7.439789,-19.207281 -3.842443,-15.2464 -3.842443,-15.2464 l 17.563642,-0.0885 c 1.606,0.584 3.339017,5.45421 3.339017,5.45421 1.104,-2.711 2.248166,-2.82196 2.723166,-5.75796 l 5.41054,-4.774343 c 3.317,-1.789 5.996294,-7.7807 11.096339,-8.968672 5.100045,-1.187971 5.222955,-2.106779 5.308955,1.285969 -0.15901,2.022 -1.003,3.321 -1.542,5.134 -0.517,1.737 -0.396,3.492 1.544,4.460995 0.146,0.584001 0.292,1.168001 0.438,1.753001 -1.169,-0.146 -2.28475,-0.34425 -3.453748,-0.34425 -1.004,2.203 -2.760252,14.50126 0.823748,17.14326 1.46,-4.674 3.798,-8.764 5.697,-13.293 -0.292,-0.876 -0.292,-0.876 -2.045,-2.191 0.438,-0.876 1.022,-1.75301 1.607,-2.62901 3.944,2.33701 6.135,-1.168001 6.427,-4.965996 -3.214,0.292 -6.281,3.36 -8.911,1.899 l 0,-2.775 c 1.899,-0.146 3.067,-0.584 4.382,-1.899 -0.702,-3.792 -1.809,-5.692 -4.1,-8.559 -1.083,-0.534 -1.87,-1.255 -1.588,-2.132 0.388,-1.209 1.344,-0.525 2.11,-0.265 2.01,0.687 4.355,0.509 5.455,-1.168 -0.039,-0.534 -0.112,-1.072 -0.108,-2.187 -3.542,-0.085 -5.087,-2.981 -4.387,-2.981 0,0 0.852,0.284 1.136,0.284 0,0 2.131,0.426 2.131,-0.142 0,-0.852 -0.143,-1.989 -0.143,-2.699 0,-1.136 -1.704,-1.847 -1.42,-1.847 0.633,0 2.549,-0.422 4.068,-0.354 0.234,-0.605 0.307,-1.251 0.219,-1.897 -0.268,-1.982 -0.78,-1.85 -2.441,-1.863 -3.841,-0.036 -6.94,-0.995 -11.158,-1.506 -0.73,-4.236 -1.022,-3.798 -4.821,-4.528 l 0,-1.314 c 1.315,-1.169 1.315,-1.169 5.259,-3.214 1.889,-4.722 1.202,-9.748 3.759,-14.531 1.503,-2.811 1.814,-2.976 4.974,-2.323 2.091,0.433 3.692,0.922 6.605,-0.383 3.826,-0.425 5.195,-1.056 6.986,2.392 3.425,6.583 3.467,13.704 11.273,16.306 l 0,1.168 c -1.899,0.292 -3.652,0.584 -5.405,1.022 -1.753,5.697 0.292,12.271 -4.821,16.361 -0.73,8.034 -6.135,8.472 -10.664,14.462 1.022,0.438 2.191,0.876 3.36,1.46 3.195,-0.894 5.832,-5.144 7.322,-8.444 0.793,-1.757 1.194,-1.684 2.429,-0.026 0.986,1.321 1.972,2.664 2.958,4.088 4.82,2.775 13.146999,7.888 18.551998,7.304 1.606,-10.226 8.765,-11.541 18.114,-15.192 4.528,-1.022 4.528,-1.022 12.416,-4.09 4.382,-4.674 8.619,-8.765 7.888,-15.338 -1.607,-1.607 -3.214,-3.214 -4.82,-4.821 -0.511,-3.214 -0.667,-5.25 -0.786,-6.586 -0.268,-3.009 -0.35,-2.483 -3.887,-3.881 -3.586,-1.417 -4.968,-2.387 -7.16,-5.455 4.09,-0.876 8.18,-1.753 12.416,-2.483 0.255,-4.09 0.512,-8.069 0.767,-12.032 0.225,-3.524 4.792,-3.864 7.455,-3.917 4.654,-0.096 9.207,-0.444 13.779,-1.043 4.082,-0.534 4.465,-1.506 6.075,2.542 1.268,3.184 1.979,6.306 3.185,9.921 4.967,0.292 9.35,0.584 13.877,2.483 0,6.281 -11.54,7.888 -14.607,11.978 -4.09,-0.584 -5.989,-0.292 -8.181,3.068 0.438,0.438 4.236,1.023 4.821,1.607 -0.438,1.461 -0.438,1.461 -1.461,2.629 l -3.944,0 c -0.584,-1.314 -1.898,-3.067 -0.292,-4.236 -0.584,0 -1.169,0.146 -1.606,0.292 -0.877,3.067 -1.607,9.203 0.146,11.832 -1.314,2.775 -0.438,3.36 -0.146,6.72 -2.986,1.229 -1.085,7.548 3.012,3.451 0.896,-0.895 1.662,-1.991 2.393,-2.867 l 1.899,0 c 4.793,6.391 12.438,8.502 20.013,10.514 6.511,1.728 9.802,4.37 15.191,8.477 9.642,0 27.755,-9.349 29.07,-19.136 -4.967,-3.506 1.46,-10.225 -2.776,-13.877 -1.725,-0.246 -4.052,-1.879 -5.757,-3.807 -3.33,-3.763 -2.554,-5.396 2.14,-6.486 2.419,-0.562 4.896,-0.426 8,-0.517 0.73,-0.73 0.73,-0.73 3.651,-9.203 8.035,0 15.777,0.73 23.373,3.506 0.475,6.29 -0.304,9.11 3.147,11.199 2.25,1.363 4.48,2.316 6.729,3.829 4.132,2.777 2.515,5.122 0.068,7.221 -2.301,1.974 -5.194,2.512 -8.063,3.251 -2.862,0.739 -5.178,2.206 -7.747,3.375 -0.241,0.109 -0.465,0.224 -0.674,0.341 10e-4,1.458 -0.047,2.968 -0.408,4.272 -0.604,2.12 -1.309,0.808 -2.517,1.413 -0.949,0.476 -2.149,3.073 -3.107,4.653 -0.338,1.856 -0.533,1.885 -2.886,3.022 0.143,0.555 0.261,1.108 0.415,1.608 2.742,1.818 3.357,0.632 5.458,-0.415 0.906,-0.452 1.595,-0.678 2.195,-0.744 0.624,-2.944 5.776,1.087 5.776,1.466 0,0.173 -0.007,0.341 -0.018,0.502 1.217,0.426 2.466,0.764 3.727,1.022 5.372,1.101 11.646,2.882 13.025,8.922 1.74,7.600996 2.565,16.366006 5.428,23.678006 3.486,8.905 6.905,12.833 5.531,23.315 -0.978,7.451 -3.56196,16.38401 -3.56196,23.46501 -1.03615,6.00522 -0.53943,8.57551 -1.61244,11.14581 -1.073,2.57031 -7.46612,5.51971 -9.29008,11.03221 -1.608,1.697 -1.83052,3.17897 -2.26852,6.68497 -0.146,18.26 -0.146,18.26 -1.022,27.901 -3.359,16.36 -5.551,37.396 -3.944,53.902 0.585,1.899 1.169,3.798 1.899,5.844 0.438,4.966 1.022,13.293 3.652,17.821 2.921,2.045 5.988,4.236 9.057,6.427 10.371,11.833 -6.428,9.788 -14.315,6.866 -3.214,-2.337 -3.214,-2.337 -7.305,-4.383 -15.046,-2.045 -8.91,-0.876 -11.978,-12.563 -0.438,-0.292 -0.73,-0.584 -1.023,-0.876 0.293,-6.574 0.585,-13.001 1.023,-19.429 -3.944,-11.248 -2.046,-23.519 -5.405,-34.62 l -1.314,0 c -2.191,5.989 -4.383,12.124 -6.428,18.26 -2.922,13.146 -7.45,27.462 -12.563,40.024 -3.944,4.529 -3.944,4.529 -5.113,6.866 1.169,2.337 1.169,4.236 1.023,7.012 -4.318,4.317 -3.598,7.463 -2.725,11.618 0.875,4.171 1.889,6.223 -1.95,8.658 -2.843,1.804 -4.542,1.256 -8.367,0.846 -6.941,-0.746 0.775,4.302 2.523,6.925 6.835,12.019 -9.78,10.765 -18.697,4.675 -1.461,-2.045 -2.922,-3.944 -4.383,-5.844 -9.933,-2.629 -10.079,-2.045 -11.102,-11.54 -3.944,-3.944 -5.113,-18.844 -5.843,-23.664 -0.585,-24.541 -5.405,-48.498 -13.002,-71.871 -3.798,16.361 -10.371,32.283 -14.169,48.937 -2.045,13.877 -2.483,26.879 -9.349,39.003 -1.607,6.573 -1.022,14.315 -8.18,17.821 -1.753,0.438 -3.506,0.877 -5.113,1.314 -4.163,5.916 -7.34,8.957 -12.735999,10.416 -4.734999,1.281 -12.964999,1.275 -10.550999,-6.19 z"
     id="path3"
     inkscape:connector-curvature="0"
     style="clip-rule:evenodd;fill-rule:evenodd;fill:#9b9b9b;fill-opacity:1"
     sodipodi:nodetypes="csscccccccccsscccccccccccccccccccccccccccccccccccccccccccccccccscccccccccsccccccccccccccccccccccccccccccccccssscccccccccccccccccccccccccscccccccccccccccccccccccccccccccccccccccccccsccccccscccccccccccccccccccccccccccccccccc" /><g
     transform="matrix(0,-0.49936607,0.35385543,-0.05985657,183.27649,154.03238)"
     style="fill:none;fill-opacity:1;fill-rule:evenodd;stroke:#9b9b9b;stroke-width:4.32961162;stroke-miterlimit:4;stroke-dasharray:none;stroke-opacity:1"
     id="g4231"><path
       inkscape:connector-curvature="0"
       id="path16"
       d="m -358.51222,304.2143 2.05625,10.00484 c 0,0 57.90071,6.26755 148.14191,5.74548 90.2412,-0.52207 135.391855,-4.91016 135.391855,-4.91016 l 3.461226,-14.4261"
       style="fill:none;fill-opacity:1;stroke:#9b9b9b;stroke-width:4.32961162;stroke-linejoin:round;stroke-miterlimit:4;stroke-dasharray:none;stroke-opacity:1"
       sodipodi:nodetypes="ccscc" /><g
       transform="translate(-468.03926,-9.1176479)"
       id="g4219"
       style="fill:none;fill-opacity:1;stroke:#9b9b9b;stroke-width:4.32961162;stroke-miterlimit:4;stroke-dasharray:none;stroke-opacity:1"><path
         style="fill:none;fill-opacity:1;stroke:#9b9b9b;stroke-width:4.32961162;stroke-linejoin:round;stroke-miterlimit:4;stroke-dasharray:none;stroke-opacity:1"
         d="m 398.78898,310.15518 -12.74613,-58.05287 c 0,0 -211.3675,7.81775 -247.56145,2.02687 -16.04407,17.50481 -24.36252,49.03081 -28.95436,58.77662 0,0 89.75919,10.13436 163.59314,10.13436 73.83395,0 125.6688,-12.88498 125.6688,-12.88498 z"
         id="path8"
         inkscape:connector-curvature="0"
         sodipodi:nodetypes="ccccsc" /><g
         id="g4209"
         style="fill:none;fill-opacity:1;stroke:#9b9b9b;stroke-width:4.32961162;stroke-miterlimit:4;stroke-dasharray:none;stroke-opacity:1"><path
           inkscape:connector-curvature="0"
           id="path10"
           d="m 389.79436,305.22207 -10.6159,-46.28741 -39.1221,2.08829 7.04198,46.22016 z"
           style="fill:none;fill-opacity:1;stroke:#9b9b9b;stroke-width:4.32961162;stroke-linejoin:round;stroke-miterlimit:4;stroke-dasharray:none;stroke-opacity:1"
           sodipodi:nodetypes="ccccc" /><path
           inkscape:connector-curvature="0"
           id="path12"
           d="m 339.27392,309.07103 -7.04198,-48.83186 -24.2557,1.30585 0.78244,46.48187 30.51524,1.04414 z"
           style="fill:none;fill-opacity:1;stroke:#9b9b9b;stroke-width:4.32961162;stroke-linejoin:round;stroke-miterlimit:4;stroke-dasharray:none;stroke-opacity:1" /><path
           inkscape:connector-curvature="0"
           id="path62"
           d="m 125.44293,295.42503 c 0,0 45.08521,5.55053 93.85699,5.02846 48.77177,-0.52207 83.56774,-0.52608 83.56774,-0.52608 l 0.0975,-9.13962 c 0,0 -63.32173,1.57156 -103.48798,-0.51806 -40.16491,-2.0883 -70.28359,-4.13119 -70.28359,-4.13119 l 4.13119,-9.37729 c 0,0 57.0248,6.19678 90.93018,6.19678 33.90538,0 78.809,-1.31386 78.809,-1.31386 l 0.1135,-10.42944 c 0,0 -33.80123,3.12576 -72.92333,3.12576 -39.1221,0 -93.01981,-5.59059 -93.01981,-5.59059"
           style="fill:none;fill-opacity:1;stroke:#9b9b9b;stroke-width:4.32961162;stroke-linejoin:round;stroke-miterlimit:4;stroke-dasharray:none;stroke-opacity:1" /><path
           inkscape:connector-curvature="0"
           id="path64"
           d="m 307.19379,298.10349 30.46183,-0.25369 -1.65968,-11.51365 -27.57107,1.83727 -0.17625,-10.43345 26.37604,-0.90795 -1.40198,-9.72178 -25.12761,1.49279"
           style="fill:none;fill-opacity:1;stroke:#9b9b9b;stroke-width:4.32961162;stroke-linejoin:round;stroke-miterlimit:4;stroke-dasharray:none;stroke-opacity:1" /><path
           inkscape:connector-curvature="0"
           id="path66"
           d="m 344.99002,293.40617 c 0,0 12.54043,1.04148 23.49462,-0.78645 10.95419,-1.82792 19.26063,-3.04965 19.26063,-3.04965 l -2.86006,-10.22916 c 0,0 -12.22665,2.57298 -18.87741,3.74797 -6.65209,1.175 -22.43045,1.04415 -22.43045,1.04415 l -1.42869,-9.37328 c 0,0 13.55654,-0.67963 21.9017,-1.46341 8.34649,-0.78378 17.89869,-4.45431 17.89869,-4.45431"
           style="fill:none;fill-opacity:1;stroke:#9b9b9b;stroke-width:4.32961162;stroke-linejoin:round;stroke-miterlimit:4;stroke-dasharray:none;stroke-opacity:1" /><path
           inkscape:connector-curvature="0"
           id="path68"
           d="m 377.11153,305.49664 c 0,0 -10.21314,-45.90639 -9.43203,-45.94778 0.77977,-0.0427 -14.30427,0.76375 -14.30427,0.76375 l 7.28499,46.14138"
           style="fill:none;fill-opacity:1;stroke:#9b9b9b;stroke-width:4.32961162;stroke-linejoin:round;stroke-miterlimit:4;stroke-dasharray:none;stroke-opacity:1" /><path
           inkscape:connector-curvature="0"
           id="path70"
           d="m 324.0163,308.54896 c 0,0 -2.7065,-47.72095 -3.91221,-47.65686"
           style="fill:none;fill-opacity:1;stroke:#9b9b9b;stroke-width:4.32961162;stroke-linejoin:round;stroke-miterlimit:4;stroke-dasharray:none;stroke-opacity:1" /><path
           inkscape:connector-curvature="0"
           id="path72"
           d="m 281.9794,311.12327 3.87082,-49.19771 -17.55822,0.31378 -2.15638,37.82426 -24.0167,0.17225 6.47317,-37.72412 -20.42494,0.17892 -4.34616,37.71477 c 0,0 -17.06551,0.0561 -17.83861,0.0467 -0.77309,-0.008 7.78971,-37.71343 7.78971,-37.71343 l -17.93876,-0.0641 -8.16757,37.35026 -13.07586,-0.57414 9.20771,-36.92433 c 0,0 -13.12793,-0.30977 -13.87432,-0.33514 -0.74506,-0.0254 -13.00109,44.80616 -13.00109,44.80616 l -18.42611,-1.1977 17.26179,-44.28408"
           style="fill:none;fill-opacity:1;stroke:#9b9b9b;stroke-width:4.32961162;stroke-linejoin:round;stroke-miterlimit:4;stroke-dasharray:none;stroke-opacity:1" /></g></g></g><g
     transform="matrix(0.35961652,0,0,0.41933752,84.807356,19.83617)"
     style="fill:none;fill-opacity:1;fill-rule:evenodd;stroke:#9b9b9b;stroke-width:4.86183607;stroke-miterlimit:4;stroke-dasharray:none;stroke-opacity:1"
     id="g4262"><g
       transform="translate(-227.08297,-42.981005)"
       id="g4245"
       style="fill:none;fill-opacity:1;stroke:#9b9b9b;stroke-width:4.86183607;stroke-miterlimit:4;stroke-dasharray:none;stroke-opacity:1"><path
         style="fill:none;fill-opacity:1;stroke:#9b9b9b;stroke-width:4.86183607;stroke-linejoin:round;stroke-miterlimit:4;stroke-dasharray:none;stroke-opacity:1"
         d="m 152.86845,186.59482 0.62622,4.44497 -48.14956,47.60612 c 0,0 -15.44855,3.61579 -40.92786,3.21389 -25.479432,-0.40191 -53.366146,-2.20846 -53.366146,-2.20846 l -7.423319,-8.03539 c 0,0 -2.628925,-88.62291 -2.628925,-114.21384 0,-25.590927 0.782309,-82.778622 0.782309,-82.778622 l 8.467197,-11.309359 c 0,0 50.758324,-13.055833 68.814174,-15.0653468 18.05625,-2.008179 30.09464,-4.016357 30.09464,-4.016357 l 36.51307,1.405992 c 0,0 4.94701,92.8155158 4.86022,94.4551728"
         id="path34"
         inkscape:connector-curvature="0" /><path
         style="fill:none;fill-opacity:1;stroke:#9b9b9b;stroke-width:4.86183607;stroke-linejoin:round;stroke-miterlimit:4;stroke-dasharray:none;stroke-opacity:1"
         d="m 10.248366,23.314129 c 0,0 15.247739,-1.405992 38.720866,-1.004089 23.473128,0.401903 54.340998,0.576817 54.340998,0.576817 l 1.8346,9.86865 c 0.14821,0.79713 1.49679,189.142673 1.38329,193.838663 -0.11349,4.69598 -2.34999,12.29876 -2.34999,12.29876"
         id="path36"
         inkscape:connector-curvature="0" /><path
         style="fill:none;fill-opacity:1;stroke:#9b9b9b;stroke-width:4.86183607;stroke-linejoin:round;stroke-miterlimit:4;stroke-dasharray:none;stroke-opacity:1"
         d="m 106.52812,226.59417 c 0,0 -24.938,2.30994 -50.23691,2.83201 -25.299051,0.52207 -52.663425,2.18977 -52.663425,2.18977"
         id="path38"
         inkscape:connector-curvature="0" /><path
         style="fill:none;fill-opacity:1;stroke:#9b9b9b;stroke-width:4.86183607;stroke-linejoin:round;stroke-miterlimit:4;stroke-dasharray:none;stroke-opacity:1"
         d="m 1.781169,34.623488 c 0,0 27.385203,-0.260369 49.032811,-1.044147 21.64774,-0.783777 54.33085,-0.823834 54.33085,-0.823834"
         id="path40"
         inkscape:connector-curvature="0" /><g
         id="g44"
         transform="matrix(1.3352253,0,0,1.3352253,-58.81683,-431.1031)"
         style="fill:none;fill-opacity:1;stroke:#9b9b9b;stroke-width:3.64121027;stroke-miterlimit:4;stroke-dasharray:none;stroke-opacity:1"><path
           style="fill:none;fill-opacity:1;stroke:#9b9b9b;stroke-width:3.64121027;stroke-linejoin:round;stroke-miterlimit:4;stroke-dasharray:none;stroke-opacity:1"
           d="m 51.2753,431.637 40.6876,0 0,11.343 -40.6876,0 0,-11.343 z"
           id="path46"
           inkscape:connector-curvature="0" /><path
           style="fill:none;fill-opacity:1;stroke:#9b9b9b;stroke-width:3.64121027;stroke-linejoin:round;stroke-miterlimit:4;stroke-dasharray:none;stroke-opacity:1"
           d="m 54.2523,434.766 34.1382,0 0,1.369 -34.1382,0 0,-1.369 z"
           id="path48"
           inkscape:connector-curvature="0" /><path
           style="fill:none;fill-opacity:1;stroke:#9b9b9b;stroke-width:3.64121027;stroke-linejoin:round;stroke-miterlimit:4;stroke-dasharray:none;stroke-opacity:1"
           d="m 77.9907,436.408 -11.3926,0 0,2.347 11.3926,0 0,-2.347 z"
           id="path50"
           inkscape:connector-curvature="0" /></g><g
         id="g52"
         transform="matrix(1.3352253,0,0,1.3352253,-58.81683,-431.1031)"
         style="fill:none;fill-opacity:1;stroke:#9b9b9b;stroke-width:3.64121027;stroke-miterlimit:4;stroke-dasharray:none;stroke-opacity:1"><path
           style="fill:none;fill-opacity:1;stroke:#9b9b9b;stroke-width:3.64121027;stroke-linejoin:round;stroke-miterlimit:4;stroke-dasharray:none;stroke-opacity:1"
           d="m 52.1696,405.046 63.9054,0 c 0.878,0 1.59,0.701 1.59,1.564 l 0,18.97 c 0,0.864 -0.712,1.565 -1.59,1.565 l -63.9054,0 c -0.8774,0 -1.5896,-0.701 -1.5896,-1.565 l 0,-18.97 c 0,-0.863 0.7122,-1.564 1.5896,-1.564 z"
           id="path54"
           inkscape:connector-curvature="0" /><path
           style="fill:none;fill-opacity:1;stroke:#9b9b9b;stroke-width:3.64121027;stroke-linejoin:round;stroke-miterlimit:4;stroke-dasharray:none;stroke-opacity:1"
           d="m 53.557,408.175 60.138,0 0,9.778 -60.138,0 0,-9.778 z"
           id="path56"
           inkscape:connector-curvature="0" /><path
           style="fill:none;fill-opacity:1;stroke:#9b9b9b;stroke-width:3.64121027;stroke-linejoin:round;stroke-miterlimit:4;stroke-dasharray:none;stroke-opacity:1"
           d="m 110.997,421.239 -9.924,0 0,1.408 9.924,0 0,-1.408 z"
           id="path58"
           inkscape:connector-curvature="0" /></g><path
         style="fill:none;fill-opacity:1;stroke:#9b9b9b;stroke-width:4.86183607;stroke-linejoin:round;stroke-miterlimit:4;stroke-dasharray:none;stroke-opacity:1"
         d="m 49.591848,184.92713 c -4.155221,0 -7.528134,3.50363 -7.528134,7.81774 0,4.31545 3.372913,7.81774 7.528134,7.81774 4.155352,0 7.528272,-3.50229 7.528272,-7.81774 0,-4.31411 -3.37292,-7.81774 -7.528272,-7.81774 z"
         id="path60"
         inkscape:connector-curvature="0" /><path
         style="fill:none;fill-opacity:1;stroke:#9b9b9b;stroke-width:4.86183607;stroke-linejoin:round;stroke-miterlimit:4;stroke-dasharray:none;stroke-opacity:1"
         d="m 106.52812,226.59417 46.65411,-37.7762"
         id="path74"
         inkscape:connector-curvature="0" /><path
         style="fill:none;fill-opacity:1;stroke:#9b9b9b;stroke-width:4.86183607;stroke-linejoin:round;stroke-miterlimit:4;stroke-dasharray:none;stroke-opacity:1"
         d="m 49.661547,205.88616 c -2.077611,0 -3.764134,1.75048 -3.764134,3.9082 0,2.15773 1.686523,3.90954 3.764134,3.90954 2.077613,0 3.764133,-1.75181 3.764133,-3.90954 0,-2.15772 -1.68652,-3.9082 -3.764133,-3.9082 z"
         id="path78"
         inkscape:connector-curvature="0" /></g><path
       inkscape:connector-curvature="0"
       id="path42"
       d="m -124.08719,-9.5091475 40.748406,-22.9378345 -0.22299,-4.179255 -42.360016,17.24844"
       style="fill:none;fill-opacity:1;stroke:#9b9b9b;stroke-width:4.86183607;stroke-linejoin:round;stroke-miterlimit:4;stroke-dasharray:none;stroke-opacity:1" /></g></svg>