<?xml version="1.0" encoding="UTF-8" standalone="no"?>
<!-- Created with Inkscape (http://www.inkscape.org/) -->

<svg
   xmlns:dc="http://purl.org/dc/elements/1.1/"
   xmlns:cc="http://creativecommons.org/ns#"
   xmlns:rdf="http://www.w3.org/1999/02/22-rdf-syntax-ns#"
   xmlns:svg="http://www.w3.org/2000/svg"
   xmlns="http://www.w3.org/2000/svg"
   xmlns:sodipodi="http://sodipodi.sourceforge.net/DTD/sodipodi-0.dtd"
   xmlns:inkscape="http://www.inkscape.org/namespaces/inkscape"
   width="51.168461mm"
   height="15.82281mm"
   viewBox="0 0 181.30557 56.065075"
   id="svg2"
   version="1.1"
   inkscape:version="0.91 r13725"
   sodipodi:docname="WDM_logo_mob.svg">
  <defs
     id="defs4">
    <inkscape:path-effect
       effect="spiro"
       id="path-effect4866"
       is_visible="true" />
  </defs>
  <sodipodi:namedview
     id="base"
     pagecolor="#ffff9b"
     bordercolor="#666666"
     borderopacity="1.0"
     inkscape:pageopacity="0"
     inkscape:pageshadow="2"
     inkscape:zoom="4.0586655"
     inkscape:cx="71.790698"
     inkscape:cy="2.6021965"
     inkscape:document-units="px"
     inkscape:current-layer="text4136"
     showgrid="false"
     showborder="false"
     fit-margin-top="0"
     fit-margin-left="0"
     fit-margin-right="0"
     fit-margin-bottom="0" />
  <metadata
     id="metadata7">
    <rdf:RDF>
      <cc:Work
         rdf:about="">
        <dc:format>image/svg+xml</dc:format>
        <dc:type
           rdf:resource="http://purl.org/dc/dcmitype/StillImage" />
        <dc:title></dc:title>
      </cc:Work>
    </rdf:RDF>
  </metadata>
  <g
     inkscape:label="Layer 1"
     inkscape:groupmode="layer"
     id="layer1"
     transform="translate(-177.06172,-254.70506)">
    <g
       style="font-style:normal;font-variant:normal;font-weight:normal;font-stretch:normal;font-size:70px;line-height:125%;font-family:'HFF Clip Hanger';-inkscape-font-specification:'HFF Clip Hanger, Normal';text-align:start;letter-spacing:0px;word-spacing:0px;writing-mode:lr-tb;text-anchor:start;fill:#000000;fill-opacity:1;stroke:none;stroke-width:1px;stroke-linecap:butt;stroke-linejoin:miter;stroke-opacity:1"
       id="text4136">
      <path
         style="fill:#c0aa8b;fill-opacity:1;stroke:#c0aa8b;stroke-width:0;stroke-miterlimit:4;stroke-dasharray:none;stroke-opacity:1"
         d="m 184.17416,306.7198 67.09232,0 c 2.81386,0 16.99068,-0.54005 19.56021,-1.62013 2.56954,-1.0801 4.91477,-2.49772 7.0357,-4.25286 2.18331,-1.80015 4.07567,-3.82532 5.67705,-6.0755 1.66379,-2.29519 2.96566,-4.63538 3.90561,-7.02058 0.97542,-2.4752 1.54,-4.92791 1.69374,-7.35811 0.19838,-2.43019 -0.067,-4.59037 -0.79599,-6.48053 -0.72904,-1.89016 -1.93496,-3.42029 -3.61775,-4.59038 -1.68278,-1.1701 -3.8641,-1.75515 -6.54397,-1.75515 l -22.87455,0 -12.23717,31.05257 9.64751,0 c 1.78658,0 14.96797,-0.33753 16.57393,-1.01259 1.65063,-0.67505 3.1354,-1.55263 4.45432,-2.63271 1.3636,-1.08009 2.54362,-2.31769 3.54004,-3.71281 1.0411,-1.39511 1.8454,-2.81273 2.41293,-4.25285 0.54978,-1.39511 0.86738,-2.76773 0.95279,-4.11784 0.10314,-1.39512 -0.11031,-2.61022 -0.64036,-3.6453 -0.48539,-1.03509 -1.29623,-1.86765 -2.43253,-2.49771 -1.07391,-0.67505 -2.52649,-1.01258 -4.35773,-1.01258 l -17.11285,0 1.8488,-4.11784 16.81982,0 c 2.36721,0 4.31142,0.45004 5.83263,1.35011 1.53894,0.85508 2.64108,2.02517 3.30642,3.51029 0.72775,1.44012 1.05418,3.10525 0.97927,4.99541 -0.0571,1.84515 -0.47593,3.75781 -1.25628,5.73798 -0.74487,1.89016 -1.82472,3.78031 -3.23955,5.67046 -1.35244,1.84516 -2.93773,3.48779 -4.75585,4.92791 -1.81813,1.44012 -3.84249,2.61022 -6.0731,3.51029 -2.18594,0.90008 -15.96998,1.35012 -18.38186,1.35012 l -13.73431,0 15.42949,-39.15324 28.36828,0 c 3.08184,0 5.56268,0.67505 7.4425,2.02518 1.92449,1.3501 3.30085,3.12774 4.12908,5.33292 0.8729,2.20519 1.19734,4.72539 0.97332,7.56063 -0.2063,2.79023 -0.8947,5.67047 -2.06519,8.64071 -1.17052,2.97025 -2.7834,5.87299 -4.83866,8.70822 -2.01059,2.83524 -4.3079,5.37794 -6.89189,7.62814 -2.56627,2.20518 -5.36603,3.98282 -8.39928,5.33293 -2.98859,1.35011 -17.50895,2.02517 -20.5908,2.02517 l -68.43225,0 z"
         id="path4143"
         inkscape:connector-curvature="0"
         sodipodi:nodetypes="cssccscsssccscccscccsccscccscscsccscccscccscc" />
      <path
         style="fill:#c0aa8b;fill-opacity:1;stroke:#c0aa8b;stroke-opacity:1"
         d="m 200.65702,296.21239 -10.02844,-27.32757 3.03892,0 7.29341,19.83981 1.67141,-3.7712 -7.09082,-19.34792 -9.11676,0 13.97903,38.20394 12.76347,-28.80325 12.81411,28.80325 13.97904,-38.20394 -9.11676,0 -7.09082,19.34792 1.67141,3.7712 7.29341,-19.83981 3.03892,0 -10.02844,27.32757 -12.56087,-28.09274 -12.51022,28.09274 z"
         id="path4145"
         inkscape:connector-curvature="0" />
      <path
         style="font-style:normal;font-variant:normal;font-weight:normal;font-stretch:normal;font-size:70px;line-height:125%;font-family:'HFF Clip Hanger';-inkscape-font-specification:'HFF Clip Hanger, Normal';text-align:start;letter-spacing:0px;word-spacing:0px;writing-mode:lr-tb;text-anchor:start;fill:#c0aa8b;fill-opacity:1;stroke:#c0aa8b;stroke-width:1px;stroke-linecap:butt;stroke-linejoin:miter;stroke-opacity:1"
         d="m 308.07405,273.20257 -10.02844,27.32757 3.03892,0 7.29341,-19.83981 1.67141,3.7712 -7.09082,19.34792 -9.11676,0 13.97903,-38.20394 12.76347,28.80325 12.81411,-28.80325 13.97904,38.20394 -9.11676,0 -7.09082,-19.34792 1.67141,-3.7712 7.29341,19.83981 3.03892,0 -10.02844,-27.32757 -12.56087,28.09274 -12.51022,-28.09274 z"
         id="path4145-0"
         inkscape:connector-curvature="0" />
      <path
         style="fill:none;fill-opacity:0.02564105;stroke:#c0aa8b;stroke-width:3.9136641;stroke-linecap:butt;stroke-linejoin:round;stroke-miterlimit:4;stroke-dasharray:none;stroke-dashoffset:0;stroke-opacity:1"
         d="m 225.46238,308.72788 -42.25213,0 c -1.1611,0 -2.20903,-0.49826 -2.96667,-1.30597 -0.75766,-0.80771 -1.22503,-1.92489 -1.22503,-3.16271 l 0,-21.56432 0,-21.56431 c 0,-1.23782 0.46737,-2.35499 1.22503,-3.16271 0.75764,-0.80771 1.80557,-1.30597 2.96667,-1.30597 l 84.50425,0 84.50425,0 c 1.16111,0 2.20903,0.49826 2.96668,1.30597 0.75765,0.80771 1.22503,1.92488 1.22503,3.16271 l 0,21.56431 0,21.56432 c 0,1.23782 -0.46738,2.355 -1.22503,3.16271 -0.75765,0.80771 -1.80557,1.30597 -2.96668,1.30597 l -42.25213,0 -12.20865,0 -8.91741,0"
         id="rect4869"
         inkscape:connector-curvature="0"
         sodipodi:nodetypes="cssscssscssscsssccc" />
    </g>
  </g>
</svg>
