<?xml version="1.0" encoding="UTF-8" standalone="no"?>
<svg
   xmlns:dc="http://purl.org/dc/elements/1.1/"
   xmlns:cc="http://creativecommons.org/ns#"
   xmlns:rdf="http://www.w3.org/1999/02/22-rdf-syntax-ns#"
   xmlns:svg="http://www.w3.org/2000/svg"
   xmlns="http://www.w3.org/2000/svg"
   xmlns:sodipodi="http://sodipodi.sourceforge.net/DTD/sodipodi-0.dtd"
   xmlns:inkscape="http://www.inkscape.org/namespaces/inkscape"
   height="320.06772"
   viewBox="0 0 320.18958 320.06772"
   width="320.18958"
   id="svg2"
   version="1.1"
   inkscape:version="0.91 r13725"
   sodipodi:docname="WDM_academy_logo_rot.svg">
  <metadata
     id="metadata224">
    <rdf:RDF>
      <cc:Work
         rdf:about="">
        <dc:format>image/svg+xml</dc:format>
        <dc:type
           rdf:resource="http://purl.org/dc/dcmitype/StillImage" />
        <dc:title></dc:title>
      </cc:Work>
    </rdf:RDF>
  </metadata>
  <defs
     id="defs222" />
  <sodipodi:namedview
     pagecolor="#ffffff"
     bordercolor="#666666"
     borderopacity="1"
     objecttolerance="10"
     gridtolerance="10"
     guidetolerance="10"
     inkscape:pageopacity="0"
     inkscape:pageshadow="2"
     inkscape:window-width="640"
     inkscape:window-height="480"
     id="namedview220"
     showgrid="false"
     inkscape:zoom="3.2670057"
     inkscape:cx="177.39295"
     inkscape:cy="107.6916"
     inkscape:current-layer="svg2"
     fit-margin-top="5"
     fit-margin-left="5"
     fit-margin-right="5"
     fit-margin-bottom="5" />
  <path
     style="overflow:visible;fill:#433b31;stroke:#c0aa8b;stroke-width:0.99269044;stroke-opacity:1"
     inkscape:connector-curvature="0"
     d="M 78.414869,82.159269 C 34.263433,126.52917 32.313436,196.20095 74.076933,237.96445 115.84043,279.72794 185.5136,277.77933 229.8835,233.62789 l 0.0773,-0.0773 0.0373,-0.0373 0.0773,-0.0773 C 274.41336,189.09804 276.44173,119.27229 234.60541,77.435974 192.76909,35.599655 122.94473,37.629409 78.606884,81.967254 l -0.07734,0.07734 -0.03733,0.03733 z m 0.01246,0.01246 0.07734,-0.07734 0.03733,-0.03733 0.07734,-0.07734 C 122.95084,37.648211 192.76471,35.620128 234.59301,77.448427 c 41.8283,41.828303 39.80021,111.642163 -4.53129,155.973663 l -0.0773,0.0773 -0.0373,0.0373 -0.0773,0.0774 C 185.50614,277.75919 115.84489,279.70753 74.089404,237.95205 32.333907,196.19655 34.282224,126.53528 78.427332,82.171731 Z m 3.46234,9.469989 -0.0062,0.0098 C 75.271486,102.48781 77.39641,122.28394 88.58405,144.73933 l 0.0051,0.0108 0.0098,-0.006 c 9.158671,-5.73615 17.896145,-12.50772 26.102185,-20.27685 l 0.007,-0.007 -32.818316,-32.818316 z m 0.0042,0.03173 L 114.68038,124.46 c -8.20047,7.76298 -16.93247,14.53179 -26.084226,20.26442 C 77.417868,122.28351 75.297025,102.50147 81.893826,91.673452 Z m 6.460693,-6.35286 0.0018,0.0018 32.709213,32.70922 0.005,-0.005 c 7.69194,-8.12887 14.42409,-16.75612 20.15807,-25.839785 l 0.005,-0.0088 -0.01,-0.0042 C 118.95536,81.017991 99.270531,78.926617 88.365375,85.31527 l -0.01054,0.0053 z m 0.03171,0.0068 c 10.89599,-6.374909 30.565757,-4.287533 52.820317,6.858379 -5.73047,9.076695 -12.45698,17.695785 -20.14286,25.819075 z m 15.375427,-12.580142 0.0359,-2.1e-5 c 12.32667,-0.09578 26.8941,3.901753 42.03142,11.554015 l 0.008,0.0025 0.003,-0.0067 c 5.059,-9.064087 9.11627,-18.435794 12.31775,-28.045346 l 0.003,-0.01237 -0.015,-8.84e-4 c -18.70897,0.430892 -37.60201,5.925741 -54.35727,16.491204 l -0.0288,0.01817 z m 0.0677,-0.01785 c 16.74138,-10.549454 35.61561,-16.037663 54.30636,-16.470632 -3.19963,9.601492 -7.2524,18.96372 -12.3067,28.020504 C 130.70641,76.635767 116.1507,72.641031 103.82936,72.72942 Z m -34.601257,34.69795 -0.01676,0.0274 c -10.487975,16.67848 -15.943356,35.45831 -16.29492,54.01533 l 0.0027,0.0133 0.01153,-0.003 c 9.532436,-3.12431 18.830613,-7.17986 27.817481,-12.16167 l 0.0067,-0.003 -0.0025,-0.008 C 73.134295,134.28178 69.0965,119.75155 69.228685,107.46135 l 1.4e-5,-0.0331 z m -0.01934,0.0664 c -0.124549,12.2852 3.911318,26.80161 11.520881,41.81322 -8.979602,4.9772 -18.268339,9.02807 -27.792617,12.15064 0.353712,-18.53863 5.799457,-37.29969 16.271747,-53.96386 z m 97.992287,-50.994543 1.4e-4,0.0086 c -3.46313,10.889876 -8.04571,21.586496 -13.77752,31.905436 l -0.006,0.0085 0.01,0.0042 c 6.56695,3.791387 13.18601,8.260556 19.73409,13.317633 l 0.0138,-0.0138 c -6.54629,-5.055923 -13.16583,-9.523806 -19.73133,-13.314874 5.72901,-10.315204 10.3083,-21.010053 13.77063,-31.895767 21.1177,1.448081 41.55551,9.545034 57.86399,24.461465 l -10.08181,10.081809 0.0138,0.01379 10.09699,-10.09699 -0.009,-0.0066 C 208.78372,66.04645 188.33761,57.946959 167.21001,56.499796 l -0.007,-0.0016 -0.001,0.0014 z M 53.141804,170.56197 l -7.1e-5,0.005 c 1.44722,21.1277 9.545678,41.57578 24.435158,57.85448 l 0.0071,0.007 10.208854,-10.20886 -0.01244,-0.0124 -10.196427,10.19642 C 62.703882,212.13186 54.607828,191.69218 53.159761,170.57449 c 10.847097,-3.42373 21.503462,-7.96359 31.705164,-13.65185 3.776897,6.5976 8.244773,13.23787 13.306597,19.81141 l 0.01244,-0.0124 C 93.12116,170.14654 88.654451,163.5035 84.877384,156.90467 l -0.0057,-0.008 -0.0071,0.004 c -10.204788,5.6898 -20.86299,10.23297 -31.714294,13.65751 l -0.008,0.003 z m 39.488871,-18.22871 0.0042,0.01 c 3.389382,5.87374 7.404812,11.87996 12.016672,17.91107 l 0.0124,-0.0125 c -4.60813,-6.02694 -8.61945,-12.03168 -12.007001,-17.90142 9.841381,-6.20309 19.300561,-13.47909 28.081271,-21.82224 l 11.8247,11.8247 0.0138,-0.0138 -11.83853,-11.83852 -0.007,0.007 c -8.78398,8.34711 -18.24801,15.62684 -28.093698,21.83193 l -0.0064,0.004 z m 56.187415,-56.112746 -0.004,0.0064 c -6.16651,9.807062 -13.36871,19.119012 -21.67724,27.864432 l 0.0138,0.0138 -0.012,-0.002 11.83161,11.83161 0.0124,-0.0125 -11.8247,-11.82469 c 8.3045,-8.74205 15.50307,-18.04925 21.66757,-27.852 5.85608,3.379666 11.84691,7.37904 17.85996,11.97386 l 0.0125,-0.0124 c -6.01694,-4.59827 -12.01212,-8.601913 -17.87239,-11.983531 l -0.007,-0.0042 z m -65.244874,138.277606 0.0097,0.006 c 16.317281,14.85088 36.723927,22.98802 57.851557,24.43523 l 0.008,0.002 0.002,-0.008 c 3.46313,-10.8899 8.00275,-21.47446 13.65738,-31.71623 l 0.004,-0.007 -0.006,-0.004 c -6.01227,-3.44132 -12.0702,-7.45609 -18.07129,-11.97801 l -0.0124,0.0125 c 5.99911,4.52055 12.05515,8.53438 18.06576,11.97525 -5.65174,10.23762 -10.18967,20.81984 -13.65191,31.70514 -21.11907,-1.44725 -41.519223,-9.58178 -57.830306,-24.42367 l 10.235096,-10.2351 -0.01379,-0.0138 -10.248902,10.24891 z M 221.00328,97.068052 l 0.0138,0.01379 10.08179,-10.081795 c 14.88042,16.272494 22.94001,36.674784 24.42419,57.829464 -10.96032,3.46445 -21.65546,8.04177 -31.97035,13.77062 -3.43262,-5.99609 -7.41803,-12.0197 -11.90756,-17.98703 l -0.0124,0.0124 c 4.49041,5.96873 8.47746,11.99508 11.91033,17.99255 l 0.002,0.008 0.008,-0.006 c 10.31892,-5.73178 21.01512,-10.31222 31.98001,-13.77753 l 0.008,-0.003 -0.001,-0.007 c -1.48359,-21.164 -9.54436,-41.57424 -24.43386,-57.852943 l -0.008,-0.008 -10.09561,10.095611 z m -77.4586,111.645488 c 5.44007,4.05671 10.85264,7.63488 16.15574,10.69497 l 0.008,0.002 0.006,-0.008 c 6.16868,-9.88207 13.4489,-19.34563 21.79602,-28.1296 l 0.007,-0.007 -10.26271,-10.26271 -0.0152,0.0152 10.2489,10.24889 c -8.34314,8.78073 -15.61961,18.24216 -21.78635,28.11995 -5.29899,-3.05817 -10.70749,-6.63505 -16.1433,-10.6881 l -0.0138,0.0138 z m 34.10134,-34.10134 10.26271,10.26271 0.005,-0.005 c 8.7454,-8.3085 18.09462,-15.47344 27.90171,-21.63995 l 0.006,-0.004 -0.004,-0.01 c -3.05282,-5.29049 -6.62235,-10.68977 -10.66322,-16.11292 l -0.0138,0.0138 c 4.03784,5.41955 7.60389,10.81523 10.65494,16.10188 -9.80275,6.16446 -19.1472,13.32576 -27.8893,21.63027 l -10.2489,-10.2489 -0.0124,0.0124 z m 16.29104,16.29387 0.003,0 32.78103,32.78103 0.004,-0.01 c 6.42724,-10.94373 4.29915,-30.59098 -6.85425,-52.93495 l -0.004,-0.01 -0.008,0.006 c -9.12223,5.77256 -17.78549,12.46886 -25.91436,20.16084 l -0.007,0.007 z m 0.0276,0 c 8.12327,-7.68587 16.77972,-14.37523 25.89502,-20.14428 11.14378,22.32958 13.26905,41.96039 6.85561,52.89492 l -32.75064,-32.75064 z m -6.38875,6.43584 c -7.76878,8.20569 -14.54221,16.94404 -20.24197,26.13913 l -0.006,0.008 0.01,0.004 c 22.45541,11.18763 42.21651,13.27747 53.08966,6.70232 l 0.0108,-0.005 -32.85561,-32.8556 -0.007,0.007 z m 0.005,0.0195 32.82385,32.82384 c -10.8644,6.56053 -30.61008,4.47597 -53.05097,-6.70232 5.69626,-9.18808 12.46412,-17.92104 20.22712,-26.12152 z m 40.15869,-31.23147 0.004,0.01 c 7.65029,15.21217 11.68577,29.74061 11.55144,42.10582 l 0,0.0359 0.0185,-0.0284 c 10.56545,-16.75525 16.09819,-35.68782 16.49271,-54.43341 l 0,-0.0141 -0.0139,0.005 c -9.60951,3.2015 -18.97991,7.25736 -28.04397,12.31638 l -0.008,0.002 z m 0.0236,0.009 c 9.05674,-5.05437 18.42176,-9.10699 28.02326,-12.3067 -0.39653,18.72628 -5.92385,37.63963 -16.47303,54.38059 0.12678,-12.36003 -3.90826,-26.87644 -11.54988,-42.07425 z m -65.11052,65.15181 -0.004,0.006 c -4.94288,8.9479 -9.03561,18.28331 -12.15995,27.81573 l -0.004,0.0122 0.0141,0 c 18.63205,-0.35378 37.41145,-5.80696 54.08957,-16.29525 l 0.027,-0.0171 -0.0331,0 c -12.32668,0.0958 -26.82003,-3.90503 -41.92095,-11.52087 l -0.008,-0.002 z m 0.009,0.0245 c 15.08652,7.60668 29.56703,11.60607 41.88818,11.51771 -16.6637,10.472 -35.42404,15.91699 -54.03705,16.27312 3.12255,-9.52393 7.21071,-18.85043 12.14925,-27.79123 z"
     overflow="visible"
     id="path70" />
  <ellipse
     style="fill:none;stroke:#c0aa8b;stroke-width:3.98600054;stroke-linecap:round;stroke-linejoin:round;stroke-opacity:1"
     cx="-2.8516901"
     cy="220.97011"
     rx="123.01942"
     ry="116.31688"
     id="ellipse4"
     transform="matrix(0.70710678,-0.70710679,0.70710679,0.70710678,0,0)" />
  <path
     style="fill:#123013;fill-rule:evenodd"
     inkscape:connector-curvature="0"
     d="m 236.67366,125.64359 c 23.95501,14.67247 8.08488,55.09688 8.08488,55.09688 -11.82724,9.13317 -13.77444,22.45771 -13.77444,22.45771 l -2.5447,-5.53929 -1.34881,4.04288 c -3.44361,-3.44361 -6.58669,-3.44361 -6.58669,-3.44361 5.31479,5.31479 3.59298,13.02579 2.69496,13.92381 -0.89803,0.89803 -2.9946,0 -8.68407,5.68947 -4.34172,4.34173 -5.83885,8.53469 -5.83885,8.53469 -4.1919,4.19191 -13.17552,-1.19819 -13.17552,-1.19819 -1.19784,4.19244 3.14424,6.1383 3.14424,6.1383 -0.59883,1.79739 -4.34225,1.79668 -4.34225,1.79668 l 5.09108,2.54567 c -12.27696,1.49712 -22.0095,13.32446 -22.0095,13.32446 -40.12477,16.76903 -55.24722,-6.73776 -55.24722,-6.73776 -1.34721,14.8229 7.48632,23.65643 7.48632,23.65643 -6.13795,2.7e-4 -9.58227,-7.18677 -9.58227,-7.18677 -2.39559,11.67814 8.53416,19.91275 8.53416,19.91275 -2.84469,2.84469 -8.23436,-1.34694 -8.23436,-1.34694 8.38478,15.27148 23.50592,16.91761 23.50592,16.91761 -2.24595,2.24595 -6.58769,0.89901 -6.58769,0.89901 3.89303,5.98879 12.12752,7.03685 12.12752,7.03685 8.98344,3.5e-4 22.0094,-11.52832 22.0094,-11.52832 1.64633,3.44308 -1.94675,6.7374 -1.94675,6.7374 7.78516,2.39542 10.92949,-1.94692 10.92949,-1.94692 l 12.57634,-12.57634 c 1.94657,1.94657 0.29936,5.68964 0.29936,5.68964 l 7.33659,-1.34756 c 12.87606,-9.882 18.71491,-21.41005 18.71491,-21.41005 l -4.49128,12.87562 2.9945,4.4e-4 -3.59395,9.28246 5.53983,-3.5e-4 -3.96749,3.96748 c 9e-5,1.87198 0.97298,3.66883 0.97298,3.66883 -2.39471,4.79091 0.44954,9.13299 0.44954,9.13299 5.98902,4.19226 13.02562,4.19226 13.02562,4.19226 -3.5183,-3.5183 -2.84469,-5.68974 -2.84469,-5.68974 0.89802,-0.89802 3.59325,-2.6e-4 3.59325,-2.6e-4 l -2.69487,-4.49092 c 3.59316,1.7964 5.53983,-0.15027 5.53983,-0.15027 l 5.53982,5.53983 c -2.69522,2.69523 -5.98902,0 -5.98902,0 2.39542,6.28804 7.63561,10.0311 7.63561,10.0311 3.74307,2.24596 7.48605,-0.29901 7.48605,-0.29901 1.79676,-3.89315 -0.14982,-10.33109 -0.14982,-10.33109 l -3.89254,-5.6893 1.19776,-1.19775 3.59316,3.59316 c -9e-5,-5.09055 -3.44334,-10.62967 -3.44334,-10.62967 l 0.89838,-0.89838 2.54496,2.54497 c 2.7e-4,-5.2401 -3.14433,-14.82202 -3.14433,-14.82202 7.4864,10.47994 5.98867,22.15825 5.98867,22.15825 l 8.53425,-1.34722 0,-5.98901 c 3.59351,2.09639 2.99451,5.39001 2.99451,5.39001 l 8.2346,-1.64703 10e-6,-5.6892 2.84433,4.94073 11.07966,-4.19226 -4.34172,-4.34173 1.79675,-1.79676 4.04236,4.04236 c 5.38983,-7.18659 3.89262,-11.6784 3.89262,-11.6784 l -4.192,-2.69469 5.38975,-1.8e-4 c 3.14406,-4.64118 1.94587,-8.53345 1.94587,-8.53345 l -5.83876,-1.64738 6.13919,-2.7e-4 -4.4e-4,-8.68371 c -13.62427,-9e-5 -20.36176,-6.73758 -20.36176,-6.73758 9.30066,5.081 13.47472,3.29415 13.47472,3.29415 l -1.94694,-3.74299 c 5.83956,4.34226 11.22956,3.1438 11.22956,3.1438 l -3.74271,-3.74272 1.19766,-1.19766 6.4375,4.64145 c 5.39063,2.09551 10.18137,-0.29972 10.18137,-0.29972 2.24559,-4.04236 0.29937,-7.48588 0.29937,-7.48588 l -6.73749,-6.73749 -4.49225,-1.19713 c 2.3955,2.3955 1.49739,4.34172 1.49739,4.34172 l -0.8229,0.8229 c -2.76973,-2.76974 -5.16541,-2.77009 -5.16541,-2.77009 1.79649,-3.29291 -1.19837,-6.28777 -1.19837,-6.28777 l 1.19845,-1.49739 3.89254,3.89254 c 1.64668,-1.64668 -0.29964,-3.59299 -0.29964,-3.59299 l 1.19767,-1.19766 c 2.99477,1.7e-4 5.4403,4.24175 5.4403,4.24175 l -2.77284,-9.78733 -0.42161,-1.49111 c -2.09577,-6.58767 -9.73129,-1.64729 -9.73129,-1.64729 l -4.6418,-1.94596 -5.68947,4.19235 1.4973,-5.9892 -9.13299,3.74342 -0.5991,-0.59909 1.4973,-1.4973 c -4.19173,-3.5e-4 -13.47418,3.89236 -13.47418,3.89236 15.57057,-9.28246 20.21194,-17.51751 20.21194,-17.51751 2.02144,-4.41677 1.64693,-8.53363 1.64693,-8.53363 l -5.24001,-3.6e-4 12.65102,-12.65102 c 4.11705,-7.56082 0.97298,-11.60292 0.97298,-11.60292 -3.59298,3.59299 -7.33623,1.94632 -7.33623,1.94632 21.11067,-23.506 4.79153,-33.23844 4.79153,-33.23844 1.94631,7.03748 -1.04828,6.4382 -1.04828,6.4382 -0.58248,-6.71486 -5.5393,-13.62506 -5.5393,-13.62506 -5.09117,-8.084 -11.82813,-9.4328 -11.82813,-9.4328 4.042,5.3908 1.94631,8.53478 1.94631,8.53478 l -8.08488,-8.08489 c -4.79065,-2.39532 -13.02579,-1.0474 -13.02579,-1.0474 8.23426,3.44361 7.48649,9.5813 7.48649,9.5813 -12.72615,-9.73156 -23.35662,-6.58759 -23.35662,-6.58759"
     id="path6" />
  <g
     style="fill:#ffffbb;fill-opacity:0.83137255;stroke:#ffffbb;stroke-width:0.2003561"
     transform="matrix(0.61416869,-0.79087595,0.78790802,0.60783148,149.06247,-265.08398)"
     id="g8">
    <path
       inkscape:connector-curvature="0"
       d="m -465.52952,302.36862 0.15084,0.0649 q 0.79895,2.59054 0.97888,3.12246 0.71969,2.12766 1.40707,3.93121 l -0.0804,0.14319 -0.72849,0.24641 -0.16631,-0.0726 -0.39811,-0.98646 q -0.24982,-0.62425 -0.6661,-0.48344 -0.24283,0.0821 -0.97744,0.69144 l -2.12305,1.76194 q 0.51664,1.60357 1.07989,3.2687 0.30509,0.90195 0.93057,2.67489 l 1.58283,0.0316 q 1.80288,0.0345 2.2076,-0.10241 0.43941,-0.14863 0.33652,-0.71949 -0.0554,-0.3163 -0.30646,-1.21076 l 0.0765,-0.15475 0.74006,-0.25033 0.15475,0.0765 q 0.65423,2.1627 0.86153,2.77556 0.16037,0.4741 0.8634,2.3239 l -0.065,0.15084 -0.75162,0.25424 -0.15866,-0.0881 q -0.47225,-1.16756 -0.96694,-1.29662 -0.49859,-0.14062 -5.51425,-0.41566 l -8.57177,-0.4639 q -0.99225,-0.0381 -2.99222,-0.12187 l -0.55542,-1.642 12.34651,-11.00612 q 0.69975,-0.63617 0.70603,-0.96046 0.01,-0.42853 -0.23282,-1.14546 l 0.092,-0.14709 0.74005,-0.25033 z m -3.74127,9.43552 -5.22218,4.52414 6.86105,0.32092 q -0.28604,-0.95993 -0.79844,-2.47474 -0.49674,-1.46855 -0.84043,-2.37032 z"
       id="path10" />
    <path
       inkscape:connector-curvature="0"
       d="m -470.80046,285.13329 1.32499,0.33171 q 1.85052,2.28359 2.41578,5.41907 1.13053,6.27097 -2.97066,9.39186 -1.89758,1.44603 -4.33629,1.88568 -3.94037,0.71037 -6.75511,-1.48622 -2.89765,-2.24366 -3.73363,-6.88081 -0.53061,-2.94327 0.0318,-5.94715 l 0.15204,-0.18866 q 1.73148,0.10958 3.97128,-0.19498 l 0.13962,0.0865 0.12778,0.70879 -0.11049,0.14396 q -1.44712,0.29809 -1.99442,0.49599 -1.42316,1.80704 -0.91204,4.64219 0.52628,2.91925 2.67521,4.24356 2.14893,1.32432 5.32045,0.75256 4.28877,-0.77318 6.05054,-4.14212 0.94165,-1.79466 0.46518,-4.4376 -0.43315,-2.40267 -2.08418,-4.47414 l 0.22216,-0.35015 z"
       id="path12" />
    <path
       inkscape:connector-curvature="0"
       d="m -469.51557,265.10717 0.12537,0.10607 q 0.01,2.71093 0.027,3.27219 0.0688,2.24504 0.20107,4.1706 l -0.11865,0.11355 -0.76868,0.0236 -0.13795,-0.1179 -0.0935,-1.05964 q -0.0572,-0.66995 -0.49642,-0.65649 -0.25622,0.008 -1.13645,0.37678 l -2.54419,1.06719 q 0.0272,1.68452 0.081,3.44151 0.0292,0.9517 0.11114,2.82995 l 1.505,0.49124 q 1.71468,0.5581 2.14172,0.54501 0.46365,-0.0142 0.53149,-0.59028 0.0391,-0.31873 0.0595,-1.24752 l 0.11828,-0.12575 0.78088,-0.0239 0.12575,0.11827 q -0.004,2.25948 0.0158,2.90615 0.0153,0.50025 0.1491,2.47462 l -0.10607,0.12538 -0.79308,0.0243 -0.12613,-0.13048 q -0.11171,-1.25449 -0.54736,-1.52203 -0.43601,-0.27975 -5.15411,-2.00373 l -8.06501,-2.9404 q -0.93814,-0.32543 -2.827,-0.9881 l -0.0531,-1.73258 15.01685,-6.93289 q 0.8547,-0.40478 0.95517,-0.71318 0.13407,-0.40713 0.11089,-1.16361 l 0.13085,-0.11392 0.78089,-0.0239 z m -6.32727,7.93675 -6.31346,2.80698 6.47011,2.30536 q 0.006,-1.00163 -0.043,-2.59999 -0.0475,-1.54957 -0.11362,-2.51235 z"
       id="path14" />
    <path
       inkscape:connector-curvature="0"
       d="m -476.59084,243.80184 q 4.10565,0.51785 6.46883,3.53503 1.15512,1.4745 1.64654,3.43126 0.53517,2.09761 0.15067,4.75594 l -0.6119,4.26603 q -0.24419,1.74094 -0.29089,2.8916 l -0.13639,0.10583 -0.33911,-0.0428 -0.13769,-0.0789 q -0.45618,-0.96802 -0.59235,-1.05901 -0.20425,-0.1365 -1.59397,-0.33639 l -2.70829,-0.37851 -6.1403,-0.77447 q -2.88243,-0.36356 -3.77429,-0.3161 -0.35886,0.0163 -0.50004,0.35526 -0.0714,0.17555 -0.29984,1.40172 l -0.13639,0.10583 -0.82355,-0.10387 -0.0937,-0.13486 q 0.23459,-1.27461 0.38123,-2.43727 0.35592,-2.82188 0.56891,-5.09581 0.10573,-1.13091 0.24932,-2.26935 0.39717,-3.14887 1.32405,-4.74218 1.01941,-1.74159 2.83421,-2.57081 1.86631,-0.84733 4.55496,-0.50822 z m 0.11237,3.79142 q -3.35476,-0.42313 -5.364,0.97214 -1.05159,0.72863 -1.59954,1.9514 -0.51609,1.16528 -0.78952,3.33316 -0.14206,1.12633 -0.11446,2.17563 1.34116,0.2922 6.54892,0.94905 l 5.29558,0.64332 q 1.76974,0.21091 2.36177,0.19945 0.30398,-1.04438 0.44451,-2.1586 0.30399,-2.4101 -0.22279,-3.89147 -0.57357,-1.59801 -2.29083,-2.71277 -1.77476,-1.14663 -4.26964,-1.46131 z"
       id="path16" />
    <path
       inkscape:connector-curvature="0"
       d="m -466.97781,229.05894 q 1.65184,0.72103 3.82127,1.30282 l 0.0863,0.14952 -2.36944,8.55265 q -0.57547,2.14585 -0.74186,3.0491 l -0.14953,0.0863 -0.33013,-0.0885 -0.12567,-0.0969 q -0.32017,-1.0211 -0.44269,-1.12978 -0.19556,-0.16619 -1.53334,-0.55023 l -2.63156,-0.74364 -5.97773,-1.60308 q -2.80612,-0.75253 -3.69613,-0.82691 -0.35773,-0.0327 -0.54375,0.28389 -0.0946,0.1642 -0.48785,1.34785 l -0.14952,0.0863 -0.80175,-0.21501 -0.0745,-0.14636 q 0.39009,-1.17186 1.05725,-3.65963 0.59444,-2.2166 2.19001,-8.44911 l 0.12911,-0.1044 1.26763,0.50424 q 0.60592,0.23833 1.03267,0.39069 l 1.07438,0.37659 0.0981,0.15268 -0.18339,0.68385 -0.14952,0.0863 q -1.60666,-0.41823 -1.8781,-0.30145 -0.19985,0.0854 -0.60087,1.20381 -0.39787,1.10658 -0.62869,1.96728 -0.27508,1.02576 -0.47396,2.09724 1.20321,0.46169 3.39623,1.04981 l 2.44061,0.65451 q 0.30874,-0.91563 0.46367,-1.49336 l 0.40242,-1.54771 q 0.27911,-1.08788 0.15198,-1.27363 -0.16163,-0.24556 -1.5253,-0.67445 l -0.0863,-0.14952 0.19604,-0.73101 0.14952,-0.0863 q 1.30788,0.40129 2.40439,0.69535 1.19083,0.31935 2.61832,0.65161 l 0.0745,0.14636 -0.21185,0.78996 -0.14952,0.0863 q -1.3559,-0.36362 -1.65409,-0.24138 -0.30997,0.11909 -0.64862,1.05198 -0.25183,0.7034 -0.47,1.51694 -0.23082,0.8607 -0.37106,1.6193 l 3.59607,0.96438 q 1.54454,0.41421 3.01057,0.74417 l 0.43002,-1.60349 q 0.92327,-3.4428 0.86077,-4.29369 -0.0124,-0.14234 -0.0791,-0.22343 -0.13345,-0.16217 -0.64735,-0.41373 l -1.38612,-0.67504 -0.0981,-0.15269 0.19288,-0.71921 0.15268,-0.0981 z"
       id="path18" />
    <path
       inkscape:connector-curvature="0"
       d="m -453.53665,206.94551 0.0631,0.16068 q -0.54999,1.07858 -1.56934,3.41736 -1.04373,2.39473 -1.43505,3.47588 l -0.14461,0.0568 -0.76094,-0.33165 -0.0631,-0.16068 q 0.43034,-1.17068 0.45874,-1.35804 0.0519,-0.36354 -0.24822,-0.56093 -0.7423,-0.49664 -3.4056,-1.65742 l -7.56466,-3.29702 4.02635,4.72435 q 0.33257,0.39795 2.49925,2.82037 l 3.5836,3.99873 -0.32678,0.74975 q -1.64121,-0.0229 -4.19026,0.0513 l -4.00635,0.1181 -7.37657,0.27377 7.76609,3.38481 q 2.6633,1.16079 3.53241,1.36647 0.34891,0.0855 0.57987,-0.20001 0.11792,-0.14835 0.68254,-1.2605 l 0.16068,-0.0631 0.76094,0.33166 0.0519,0.15579 q -0.62802,1.25763 -1.11087,2.36547 -0.56089,1.28689 -1.0595,2.61423 l -0.14949,0.068 -0.76094,-0.33165 -0.0631,-0.16068 q 0.43033,-1.17068 0.45873,-1.35804 0.0519,-0.36354 -0.24821,-0.56093 -0.7423,-0.49664 -3.4056,-1.65742 l -5.91969,-2.58006 q -2.6633,-1.16079 -3.53241,-1.36648 -0.3489,-0.0855 -0.57987,0.20002 -0.11792,0.14834 -0.68254,1.26049 l -0.16067,0.0631 -0.76094,-0.33165 -0.052,-0.1558 q 0.57438,-1.13453 1.34986,-2.91379 0.59503,-1.36522 0.97171,-2.41281 1.01142,0.001 2.8532,-0.008 l 1.85641,-0.0431 8.99253,-0.31515 -2.72278,-3.22407 -4.5526,-5.16676 q -0.81348,-0.91383 -1.79337,-1.87355 0.61827,-1.23525 0.80848,-1.67167 0.95594,-2.1933 1.39604,-3.38636 l 0.14948,-0.068 0.77213,0.33653 0.0519,0.1558 q -0.43033,1.17068 -0.45873,1.35804 -0.0519,0.36354 0.24822,0.56093 0.7423,0.49664 3.40559,1.65742 l 5.91969,2.58006 q 2.6633,1.16079 3.53241,1.36648 0.3489,0.0855 0.57987,-0.20002 0.11792,-0.14834 0.68254,-1.26049 l 0.16067,-0.0631 0.74976,0.32677 z"
       id="path20" />
    <path
       inkscape:connector-curvature="0"
       d="m -458.1256,183.46133 q 1.18961,3.03196 3.18496,7.0057 1.12591,2.24106 1.56001,2.67392 0.22927,0.23136 0.73505,0.55068 l 1.02188,0.64515 q 3.02436,1.90937 3.48229,1.93862 0.19664,0.009 0.33568,-0.1201 0.23517,-0.21244 0.93573,-1.1849 l 0.16839,-0.038 0.69158,0.43661 0.038,0.16839 q -0.70708,0.98278 -2.06906,3.14009 -1.39456,2.20891 -1.94519,3.21829 l -0.15155,0.0342 -0.70189,-0.44313 -0.0381,-0.16838 q 0.5767,-1.05066 0.66736,-1.35433 0.0565,-0.1809 -0.0359,-0.35471 -0.22333,-0.40084 -3.24769,-2.31022 l -1.218,-0.76896 q -0.39224,-0.24763 -4.16101,-0.3605 -3.83994,-0.11448 -5.46026,0.234 -0.7849,0.16853 -0.9511,0.29459 -0.17652,0.11953 -0.561,0.72853 l -0.18522,0.0419 -0.57804,-0.36493 -0.0484,-0.1749 q 1.0946,-2.83138 1.3378,-3.67393 0.59692,-0.37383 1.27698,-0.53637 1.41065,-0.33649 5.30495,0.0577 l 3.55806,0.35517 q -0.59612,-1.22808 -2.47678,-4.81181 l -1.33074,-2.44256 q -0.22333,-0.40085 -0.61999,-1.0988 l 0.95143,-1.50701 0.16839,-0.0381 0.36127,0.22808 z"
       id="path22" />
    <path
       inkscape:connector-curvature="0"
       d="m -433.57416,166.45262 q 3.31725,3.04719 3.42965,6.71417 0.10801,3.5635 -2.88138,6.81782 -2.82422,3.07452 -6.16057,3.24201 -3.34535,0.15923 -6.42886,-2.67326 -4.3241,-3.97208 -2.95655,-8.79907 0.62394,-2.19497 2.63888,-4.38849 2.88204,-3.13745 6.12922,-3.37027 3.29893,-0.23501 6.22961,2.45709 z m -2.07598,3.19828 q -2.60705,-2.39481 -5.1015,-2.74686 -2.49519,-0.36929 -4.35323,1.65342 -2.45262,2.66998 -0.85336,5.74687 0.81871,1.58083 2.34698,2.98469 2.77786,2.55171 5.32844,3.00505 2.63756,0.46692 4.57819,-1.64569 2.35352,-2.5621 0.63666,-5.76359 -0.91007,-1.69791 -2.58218,-3.23389 z"
       id="path24" />
    <path
       inkscape:connector-curvature="0"
       d="m -427.13566,150.35406 0.7796,1.1636 q 0.26298,0.38523 0.70624,1.0017 l 0.57615,0.79189 -0.006,0.18136 -0.53975,0.4582 -0.17206,-0.0141 q -1.0851,-1.24052 -1.36548,-1.30673 -0.45894,-0.1068 -2.84129,1.91557 -0.38155,0.3239 -1.15309,1.07492 0.70342,1.03612 2.78899,3.49293 l 1.06648,1.25632 1.07529,-0.86477 q 0.48251,-0.39359 1.72725,-1.5303 0.24336,-0.22261 0.21652,-0.42399 -0.05,-0.34184 -0.87527,-1.3706 l 0.0141,-0.17206 0.57697,-0.48979 0.17206,0.0141 q 0.84757,1.07388 1.58225,1.93935 0.79789,0.93991 1.7831,2.02504 l -0.022,0.16275 -0.62351,0.52929 -0.17206,-0.0141 q -0.82948,-0.97714 -1.05544,-1.07355 -0.4347,-0.19141 -1.29032,0.42284 -0.58856,0.41956 -1.119,0.86985 -0.64212,0.54509 -1.12095,0.9996 l 1.88017,2.21485 q 1.87227,2.20554 2.56994,2.78219 0.27563,0.23037 0.6087,0.0757 0.0809,-0.0367 1.40977,-1.03662 l 0.17206,0.0141 0.52929,0.62351 -0.0234,0.17996 -3.78844,3.11992 q -0.80822,0.67008 -2.16744,1.936 l -0.16416,-0.005 -0.53719,-0.63282 0.0141,-0.17206 q 0.90182,-0.86162 1.00981,-1.01734 0.20668,-0.30355 0.0241,-0.61292 -0.45571,-0.78205 -2.32798,-2.98759 l -4.17904,-4.92291 q -1.87227,-2.20554 -2.56994,-2.78218 -0.27562,-0.23038 -0.6087,-0.0757 -0.17119,0.0813 -1.16781,0.83122 l -0.17206,-0.0141 -0.53719,-0.63281 0.022,-0.16276 q 0.94078,-0.70255 2.91367,-2.37732 1.27493,-1.08229 6.2249,-5.38036 l 0.15626,-0.005 z"
       id="path26" />
    <path
       inkscape:connector-curvature="0"
       d="m -402.91914,154.36211 -0.0256,0.16222 q -1.06349,0.60371 -3.20277,1.99382 -2.12905,1.38347 -3.11272,2.11001 l -0.15864,-0.0425 -0.44563,-0.6858 0.0358,-0.16887 q 1.00415,-0.73984 1.13108,-0.88055 0.24363,-0.27478 0.10192,-0.60487 -0.34583,-0.82345 -1.92883,-3.25957 l -3.51852,-5.41474 q -1.583,-2.43612 -2.19496,-3.08663 -0.24407,-0.26358 -0.59412,-0.15258 -0.18014,0.0588 -1.2641,0.67584 l -0.16887,-0.0359 -0.45228,-0.69603 0.0425,-0.15864 q 1.02255,-0.5771 3.19254,-1.98717 2.15975,-1.40342 3.10248,-2.10336 l 0.16222,0.0256 0.45229,0.69604 -0.0358,0.16887 q -1.00414,0.73984 -1.13107,0.88055 -0.24363,0.27478 -0.10192,0.60487 0.34582,0.82345 1.92882,3.25957 l 3.51853,5.41474 q 1.583,2.43612 2.19495,3.08663 0.24407,0.26358 0.59412,0.15258 0.18014,-0.0588 1.2641,-0.67584 l 0.16887,0.0359 0.44564,0.6858 z"
       id="path28" />
    <path
       inkscape:connector-curvature="0"
       d="m -391.73369,130.02564 -0.0644,0.16965 q -1.07692,0.62921 -1.21805,0.75568 -0.27139,0.24739 -0.16548,0.59065 0.25658,0.85547 1.57238,3.44569 l 2.24461,4.41861 q 2.48234,4.88659 3.37571,6.29484 l -0.0917,0.16983 q -1.33485,0.41794 -2.01031,0.65154 -4.58082,-1.79421 -16.02859,-6.89118 l 3.6157,7.11766 q 1.3158,2.59022 1.85534,3.30195 0.21475,0.28797 0.57459,0.21471 0.18537,-0.0394 1.32863,-0.53802 l 0.16412,0.0536 0.37594,0.74006 -0.0591,0.15324 q -1.28475,0.57049 -2.36219,1.11782 -1.25158,0.63579 -2.48087,1.3424 l -0.15859,-0.0427 -0.37594,-0.74006 0.0535,-0.16412 q 1.07693,-0.62922 1.21806,-0.75568 0.27139,-0.2474 0.16547,-0.59065 -0.25657,-0.85547 -1.57238,-3.44569 l -2.92462,-5.75726 q -1.31581,-2.59022 -1.85535,-3.30194 -0.21474,-0.28797 -0.57459,-0.21471 -0.18536,0.0394 -1.32863,0.53801 l -0.16412,-0.0536 -0.37594,-0.74006 0.0591,-0.15323 q 1.06708,-0.45992 2.00304,-0.93538 1.46924,-0.74636 2.40468,-1.3037 6.57171,3.23368 14.89618,6.5217 l -3.23423,-6.36672 q -1.3158,-2.59022 -1.85534,-3.30194 -0.21475,-0.28797 -0.57459,-0.21471 -0.18537,0.0394 -1.32863,0.53801 l -0.16412,-0.0536 -0.37595,-0.74006 0.0591,-0.15323 q 1.2521,-0.55391 2.35131,-1.11229 1.40394,-0.71319 2.49175,-1.34794 l 0.15859,0.0427 0.37594,0.74006 z"
       id="path30" />
    <path
       inkscape:connector-curvature="0"
       d="m -377.17717,123.79572 0.32888,1.36146 q 0.11345,0.45242 0.31605,1.18419 l 0.26659,0.94231 -0.0685,0.16804 -0.66494,0.24315 -0.15657,-0.0727 q -0.58889,-1.53933 -0.82904,-1.69847 -0.39365,-0.25898 -3.32857,0.81425 -0.47005,0.17188 -1.45377,0.60959 0.3015,1.2155 1.40826,4.24214 l 0.56596,1.54771 1.30807,-0.43933 q 0.58888,-0.20234 2.15003,-0.8382 0.30535,-0.12466 0.34984,-0.32289 0.0713,-0.33804 -0.34702,-1.58878 l 0.0727,-0.15657 0.7108,-0.25992 0.15657,0.0727 q 0.42368,1.3008 0.81356,2.367 0.42342,1.15792 0.97236,2.5169 l -0.0769,0.1451 -0.76812,0.28088 -0.15657,-0.0727 q -0.44019,-1.20378 -0.61883,-1.37241 -0.34163,-0.32999 -1.35693,-0.0497 -0.69737,0.19002 -1.35085,0.42898 -0.79105,0.28927 -1.39756,0.55004 l 0.99776,2.72857 q 0.99358,2.71709 1.44865,3.49951 0.1789,0.31151 0.54491,0.28165 0.0886,-0.006 1.68135,-0.48486 l 0.15657,0.0727 0.28089,0.76812 -0.0842,0.16076 -4.6339,1.61651 q -0.99015,0.34908 -2.70341,1.06655 l -0.15238,-0.0613 -0.28507,-0.77959 0.0727,-0.15657 q 1.14423,-0.4964 1.29943,-0.60514 0.29893,-0.2133 0.23468,-0.56673 -0.157,-0.89141 -1.15057,-3.60851 l -2.21772,-6.06474 q -0.99357,-2.7171 -1.44865,-3.49951 -0.1789,-0.31151 -0.54491,-0.28165 -0.18873,0.017 -1.38327,0.37585 l -0.15657,-0.0727 -0.28507,-0.77958 0.0769,-0.14511 q 1.12575,-0.33367 3.55624,-1.22243 1.57064,-0.57435 7.70195,-2.89439 l 0.14818,0.0498 z"
       id="path32" />
    <path
       inkscape:connector-curvature="0"
       d="m -353.33327,126.08102 q 1.02507,4.3862 -0.94721,7.47967 -1.91761,3.00549 -6.2206,4.01111 -4.06526,0.95006 -6.91654,-0.79048 -2.85406,-1.75243 -3.8069,-5.82958 -1.3362,-5.71751 2.5123,-8.93606 1.75173,-1.46241 4.65209,-2.14023 4.14847,-0.96951 6.96286,0.66683 2.85838,1.66367 3.764,5.53874 z m -3.51666,1.47372 q -0.80561,-3.44714 -2.66861,-5.14286 -1.85389,-1.71039 -4.5284,-1.08535 -3.53035,0.82506 -3.94165,4.26828 -0.21375,1.76737 0.2585,3.78812 0.85839,3.67299 2.71073,5.48402 1.91656,1.87125 4.70994,1.21843 3.38771,-0.79172 3.772,-4.40413 0.20419,-1.91558 -0.31251,-4.12651 z"
       id="path34" />
    <path
       inkscape:connector-curvature="0"
       d="m -332.6815,133.016 -0.1102,0.13289 q -0.0851,0.008 -0.46299,0.0309 -1.6708,0.0946 -2.08404,0.13318 -0.61987,0.0579 -1.96218,0.25668 -0.0758,-0.28717 -0.5526,-0.92924 l -3.48381,-4.75055 -1.5408,-1.92816 q -0.2904,-0.35296 -0.78629,-0.67449 l 0.0951,-0.42572 q 0.28069,-0.0139 0.41438,-0.0264 1.19111,-0.11115 1.83659,-0.55145 0.5881,-0.39816 1.03134,-1.29773 0.44323,-0.89956 0.33321,-2.07852 -0.19168,-2.05406 -1.79003,-2.62825 -0.76101,-0.27226 -2.15875,-0.14182 -0.60771,0.0567 -1.15773,0.20612 -0.0104,1.20245 0.2573,4.07084 l 0.5932,6.35665 q 0.26995,2.8927 0.50962,3.75306 0.0937,0.3468 0.4552,0.41114 0.18685,0.0316 1.43339,-0.0112 l 0.13288,0.1102 0.076,0.81433 -0.0981,0.13175 q -1.22222,0.0405 -3.7503,0.27642 -2.61315,0.24386 -3.73669,0.42226 l -0.13175,-0.098 -0.0771,-0.82649 0.1102,-0.13288 q 1.23292,-0.18862 1.41069,-0.25425 0.3434,-0.13012 0.37128,-0.48827 0.0763,-0.88985 -0.19361,-3.78255 l -0.60001,-6.42957 q -0.26994,-2.8927 -0.50961,-3.75306 -0.0937,-0.3468 -0.45521,-0.41114 -0.18685,-0.0316 -1.43338,0.0112 l -0.13289,-0.1102 -0.0771,-0.82649 0.11134,-0.12073 q 1.19791,-0.0382 3.7503,-0.27642 1.48281,-0.13837 2.40313,-0.26104 1.82847,-0.24419 2.74004,-0.32926 2.10268,-0.19622 3.12233,0.0887 1.37244,0.38684 1.93557,1.56029 0.27436,0.57514 0.35035,1.38948 0.30851,3.30594 -3.28137,5.03859 0.70298,0.96424 1.48116,1.94599 l 2.14056,2.70587 q 1.89116,2.39813 2.47099,2.69956 0.29656,0.15623 0.79489,0.10972 l 0.13288,0.1102 0.0726,0.77787 z"
       id="path36" />
    <path
       inkscape:connector-curvature="0"
       d="m -308.18192,134.14537 -0.12914,0.11456 q -1.20196,-0.14532 -3.74867,-0.29777 -2.60763,-0.15609 -3.75742,-0.15154 l -0.1031,-0.11624 0.0496,-0.82859 0.12915,-0.11456 q 1.24726,0.001 1.43296,-0.0365 0.35921,-0.0763 0.44128,-0.42605 0.21093,-0.86785 0.38453,-3.76793 l 0.49308,-8.23719 -3.05064,5.40597 q -0.25924,0.44918 -1.78831,3.31704 l -2.52165,4.74059 -0.81641,-0.0489 q -0.54319,-1.54889 -1.48981,-3.91681 l -1.4893,-3.72112 -2.79499,-6.83204 -0.50621,8.45653 q -0.1736,2.90008 -0.0677,3.7869 0.0398,0.35701 0.38731,0.47565 0.17986,0.0597 1.41838,0.20719 l 0.11455,0.12915 -0.0496,0.82859 -0.12841,0.10237 q -1.39692,-0.15699 -2.60326,-0.2292 -1.4013,-0.0839 -2.81916,-0.0954 l -0.11528,-0.11696 0.0496,-0.8286 0.12914,-0.11456 q 1.24727,0.001 1.43296,-0.0365 0.35921,-0.0763 0.44129,-0.42605 0.21092,-0.86785 0.38452,-3.76793 l 0.38586,-6.44597 q 0.1736,-2.90008 0.0677,-3.78689 -0.0398,-0.35702 -0.38731,-0.47565 -0.17986,-0.0597 -1.41838,-0.2072 l -0.11455,-0.12914 0.0496,-0.8286 0.12842,-0.10237 q 1.26289,0.14897 3.20033,0.26495 1.4866,0.089 2.59983,0.0822 0.34667,0.95014 0.98931,2.67619 l 0.6792,1.72824 3.38984,8.33511 2.09045,-3.66581 3.28498,-6.05231 q 0.57816,-1.07822 1.14215,-2.32849 1.37256,0.15554 1.84778,0.18398 2.3883,0.14297 3.65993,0.14571 l 0.11529,0.11696 -0.0503,0.84078 -0.12841,0.10238 q -1.24727,-0.001 -1.43297,0.0365 -0.3592,0.0763 -0.44128,0.42605 -0.21093,0.86785 -0.38452,3.76793 l -0.38586,6.44597 q -0.1736,2.90008 -0.0677,3.78689 0.0398,0.35702 0.38731,0.47565 0.17986,0.0597 1.41837,0.2072 l 0.11456,0.12914 -0.0489,0.81641 z"
       id="path38" />
    <path
       inkscape:connector-curvature="0"
       d="m -288.87229,138.46597 -0.13319,0.0961 q -2.63322,-0.64448 -3.18206,-0.76319 -2.19532,-0.47483 -4.09592,-0.81098 l -0.0816,-0.14254 0.16258,-0.75166 0.1477,-0.10544 1.05091,0.16486 q 0.66395,0.10614 0.75686,-0.32338 0.0542,-0.25055 -0.0915,-1.19378 l -0.42191,-2.7265 q -1.64133,-0.37998 -3.35941,-0.75159 -0.93063,-0.20129 -2.77318,-0.57484 l -0.83981,1.34205 q -0.95526,1.52939 -1.04558,1.94698 -0.0981,0.45339 0.44464,0.65819 0.29988,0.11482 1.19633,0.35867 l 0.0935,0.14512 -0.16516,0.76359 -0.14512,0.0935 q -2.19177,-0.549 -2.82412,-0.68577 -0.48917,-0.10581 -2.4375,-0.45228 l -0.0961,-0.13319 0.16774,-0.77552 0.15704,-0.0909 q 1.24439,0.19421 1.60913,-0.16402 0.37667,-0.35566 3.18792,-4.51851 l 4.79916,-7.11748 q 0.54213,-0.83193 1.6409,-2.50513 l 1.69422,0.36644 3.10547,16.24583 q 0.18664,0.92711 0.46169,1.099 0.36276,0.22834 1.10249,0.38833 l 0.079,0.15447 -0.16516,0.76359 z m -6.17596,-8.05504 -1.20102,-6.80416 -3.79812,5.72288 q 0.97061,0.2474 2.53358,0.58546 1.51526,0.32774 2.46556,0.49582 z"
       id="path40" />
    <path
       inkscape:connector-curvature="0"
       d="m -269.16321,127.4553 q -0.43766,0.80368 -0.76887,1.70945 l -0.69884,1.9152 -0.15564,0.0747 -0.72555,-0.25495 -0.0903,-0.14816 q 0.4604,-1.49437 0.48033,-1.77202 0.0237,-0.50923 -0.54688,-0.80028 -0.21819,-0.11549 -2.153,-0.79534 l -1.54324,-0.54226 q -0.16467,0.39499 -1.14803,3.19355 l -2.29855,6.5415 q -0.96313,2.74098 -1.10478,3.62279 -0.0598,0.35422 0.24184,0.56371 0.15656,0.10677 1.30699,0.58864 l 0.0747,0.15563 -0.27113,0.77162 -0.15564,0.0747 q -1.11587,-0.46973 -3.52287,-1.3155 -2.46458,-0.866 -3.57143,-1.1773 l -0.0672,-0.14007 0.27518,-0.78313 0.15563,-0.0747 q 1.19899,0.34366 1.38793,0.3583 0.36636,0.0252 0.5413,-0.28853 0.44108,-0.7766 1.40421,-3.51758 l 2.29855,-6.5415 q 0.99955,-2.84463 1.09045,-3.21378 l -1.6469,-0.57869 q -2.06149,-0.72437 -2.45151,-0.71909 -0.20854,0.004 -0.31406,0.0837 -0.1684,0.14784 -0.43175,0.67636 -0.29509,0.58206 -0.54474,1.21891 l -0.15564,0.0747 -0.72555,-0.25495 -0.0862,-0.15968 0.66896,-1.97745 q 0.27985,-0.83325 0.46477,-1.76456 l 0.14412,-0.0787 q 0.63901,0.35392 4.91172,1.85527 l 4.66427,1.63893 q 3.93872,1.38399 4.99266,1.62494 l 0.0747,0.15563 z"
       id="path42" />
    <path
       inkscape:connector-curvature="0"
       d="m -266.46185,147.61189 -0.1511,0.0644 q -1.07593,-0.58126 -3.38917,-1.65729 -2.30218,-1.07088 -3.43989,-1.51932 l -0.0481,-0.15701 0.34495,-0.74157 0.16216,-0.0592 q 1.15985,0.45874 1.34646,0.49169 0.36217,0.0608 0.56681,-0.23447 0.51458,-0.72998 1.73991,-3.36421 l 2.72354,-5.85506 q 1.22533,-2.63423 1.45214,-3.49806 0.094,-0.34672 -0.18583,-0.58457 -0.14543,-0.1215 -1.24349,-0.71306 l -0.0592,-0.16216 0.3501,-0.75264 0.15702,-0.0481 q 1.03165,0.56066 3.3781,1.65214 2.33539,1.08632 3.42882,1.51417 l 0.0643,0.1511 -0.3501,0.75263 -0.16216,0.0592 q -1.15985,-0.45874 -1.34647,-0.49169 -0.36216,-0.0608 -0.56681,0.23447 -0.51457,0.72998 -1.73991,3.36421 l -2.72353,5.85506 q -1.22534,2.63423 -1.45214,3.49806 -0.094,0.34672 0.18583,0.58457 0.14542,0.1215 1.24349,0.71306 l 0.0592,0.16216 -0.34494,0.74157 z"
       id="path44" />
    <path
       inkscape:connector-curvature="0"
       d="m -243.93868,150.38881 q -2.35491,3.83978 -5.93237,4.65291 -3.47674,0.789 -7.24367,-1.52124 -3.55882,-2.1826 -4.36266,-5.425 -0.79745,-3.2528 1.39153,-6.82202 3.06968,-5.00524 8.0693,-4.58819 2.27386,0.19168 4.8129,1.74885 3.63166,2.22727 4.48252,5.36964 0.86294,3.19272 -1.21755,6.58505 z m -3.53688,-1.42451 q 1.85075,-3.01771 1.71817,-5.5334 -0.11578,-2.5197 -2.45711,-3.95562 -3.09055,-1.89542 -5.80389,0.26392 -1.39461,1.10651 -2.47953,2.87552 -1.97199,3.21542 -1.92807,5.80561 0.0473,2.67815 2.49263,4.17789 2.96569,1.81884 5.77877,-0.4798 1.49201,-1.21862 2.67903,-3.15412 z"
       id="path46" />
    <path
       inkscape:connector-curvature="0"
       d="m -221.81741,159.40643 -0.1814,0.005 q -0.99208,-0.75595 -1.16278,-0.83825 -0.33213,-0.15666 -0.60914,0.0721 -0.69318,0.56317 -2.58667,2.76664 l -3.23007,3.75886 q -3.57217,4.15696 -4.53381,5.51952 l -0.19196,-0.0201 q -0.89502,-1.07491 -1.36836,-1.61042 -0.0865,-4.9189 0.26419,-17.44518 l -5.20312,6.05491 q -1.89349,2.20347 -2.34595,2.9735 -0.18443,0.30826 0.0204,0.61305 0.10705,0.15637 1.00366,1.02342 l 0.013,0.17214 -0.541,0.62956 -0.16418,0.004 q -1.01697,-0.97047 -1.93354,-1.7581 -1.0647,-0.91492 -2.1864,-1.78225 l -0.021,-0.16288 0.541,-0.62957 0.17214,-0.013 q 0.99208,0.75594 1.16278,0.83825 0.33213,0.15665 0.60914,-0.0721 0.69318,-0.56317 2.58667,-2.76664 l 4.20864,-4.89763 q 1.89349,-2.20347 2.34595,-2.97349 0.18443,-0.30827 -0.0204,-0.61306 -0.10705,-0.15637 -1.00366,-1.02341 l -0.013,-0.17214 0.541,-0.62957 0.16419,-0.004 q 0.8318,0.81135 1.62801,1.49555 1.24987,1.07404 2.12159,1.72656 -0.48582,7.30808 -0.35406,16.25741 l 4.65417,-5.41609 q 1.89349,-2.20347 2.34595,-2.97349 0.18443,-0.30827 -0.0204,-0.61306 -0.10705,-0.15637 -1.00366,-1.02341 l -0.013,-0.17215 0.541,-0.62956 0.16418,-0.004 q 0.9892,0.9466 1.92428,1.75014 1.19432,1.0263 2.19566,1.7902 l 0.021,0.16289 -0.541,0.62956 z"
       id="path48" />
    <path
       inkscape:connector-curvature="0"
       d="m -204.11084,179.13453 q -0.8013,0.44198 -1.56781,1.02729 l -1.61948,1.23841 -0.17138,-0.0208 -0.47443,-0.60526 0.004,-0.17346 q 1.19208,-1.01196 1.35825,-1.23528 0.29393,-0.41651 -0.0304,-0.9688 -0.12179,-0.21474 -1.38694,-1.82877 l -1.00911,-1.28738 q -0.35131,0.24436 -2.68589,2.07431 l -5.45695,4.27742 q -2.28653,1.79229 -2.88036,2.4594 -0.24096,0.26642 -0.0994,0.60528 0.0745,0.17423 0.78502,1.19936 l -0.0208,0.17138 -0.64369,0.50455 -0.17138,-0.0208 q -0.68789,-0.99631 -2.2618,-3.00424 -1.61156,-2.05596 -2.37709,-2.91386 l 0.0187,-0.15424 0.6533,-0.51209 0.17138,0.0208 q 0.82577,0.93476 0.97716,1.04875 0.29525,0.21836 0.61151,0.048 0.78963,-0.41731 3.07617,-2.20961 l 5.45694,-4.27741 q 2.37301,-1.86008 2.64824,-2.12235 l -1.07688,-1.37384 q -1.34799,-1.71971 -1.67959,-1.92509 -0.17814,-0.10853 -0.30979,-0.0984 -0.22149,0.034 -0.72782,0.33785 -0.5619,0.33187 -1.11498,0.73438 l -0.17137,-0.0208 -0.47444,-0.60526 0.0132,-0.18099 1.62779,-1.30695 q 0.68419,-0.55182 1.34112,-1.23736 l 0.16385,0.0112 q 0.34823,0.64214 3.14211,4.20645 l 3.04991,3.89095 q 2.57549,3.2857 3.33426,4.05584 l -0.0208,0.17138 z"
       id="path50" />
    <path
       inkscape:connector-curvature="0"
       d="m -206.51529,200.28527 q -1.66736,0.68436 -3.59496,1.8373 l -0.16742,-0.0421 -4.49252,-7.65372 q -1.14041,-1.90664 -1.67321,-2.65475 l 0.0421,-0.16743 0.29333,-0.17544 0.15704,-0.0228 q 0.95606,0.48072 1.11937,0.46839 0.25544,-0.0248 1.46225,-0.71814 l 2.36544,-1.37215 5.31138,-3.17686 q 2.49331,-1.49131 3.16613,-2.07865 0.27247,-0.23409 0.17457,-0.58803 -0.0521,-0.1822 -0.62836,-1.28836 l 0.0421,-0.16742 0.71237,-0.42609 0.15695,0.0484 q 0.57001,1.09568 1.89213,3.30614 1.17801,1.9695 4.54304,7.4528 l -0.0149,0.16537 -1.24431,0.55933 q -0.59283,0.26925 -0.99924,0.46966 l -1.01814,0.5094 -0.17789,-0.0358 -0.36343,-0.60762 0.0421,-0.16742 q 1.41848,-0.86265 1.52354,-1.13884 0.0777,-0.20296 -0.44626,-1.26927 -0.51772,-1.05583 -0.97514,-1.82059 -0.54514,-0.91142 -1.17615,-1.79993 -1.16891,0.54269 -3.11746,1.70817 l -2.16855,1.29706 q 0.44263,0.85894 0.74966,1.37227 l 0.83132,1.3661 q 0.58695,0.95753 0.80881,0.99552 0.28882,0.0548 1.54585,-0.62591 l 0.16743,0.0421 0.38849,0.64952 -0.0421,0.16742 q -1.19839,0.65989 -2.17267,1.24262 -1.05808,0.63287 -2.29015,1.42669 l -0.15694,-0.0484 -0.41982,-0.7019 0.0421,-0.16742 q 1.20475,-0.72059 1.32449,-1.01979 0.13022,-0.30547 -0.304,-1.1979 -0.32984,-0.67037 -0.76219,-1.39322 -0.45742,-0.76476 -0.90456,-1.39342 l -3.19521,1.91113 q -1.37236,0.82084 -2.62959,1.64394 l 0.85217,1.42475 q 1.82967,3.05902 2.48418,3.60632 0.11083,0.0902 0.21549,0.0987 0.20932,0.017 0.74762,-0.17691 l 1.44942,-0.52556 0.17789,0.0358 0.38223,0.63904 -0.0358,0.1779 z"
       id="path52" />
    <path
       inkscape:connector-curvature="0"
       d="m -200.62317,218.14172 -1.36573,-0.02 q -2.32353,-1.80011 -3.59057,-4.72337 -2.53408,-5.8465 0.74513,-9.82225 1.51678,-1.84151 3.79042,-2.82698 3.67366,-1.59229 6.91599,-0.0973 3.33381,1.52188 5.20766,5.84516 1.18937,2.74405 1.32851,5.79695 l -0.10489,0.21842 q -1.71068,0.28912 -3.82156,1.09761 l -0.15569,-0.0522 -0.28642,-0.66082 0.0747,-0.1654 q 1.34066,-0.621 1.82823,-0.93876 0.97241,-2.08452 -0.17326,-4.72777 -1.17966,-2.72165 -3.57442,-3.51967 -2.39475,-0.79803 -5.35161,0.48357 -3.99847,1.73307 -4.94349,5.41554 -0.50647,1.96239 0.56153,4.42644 0.97091,2.24004 3.05175,3.87926 l -0.13624,0.39165 z"
       id="path54" />
    <path
       inkscape:connector-curvature="0"
       d="m -197.01676,239.0941 -0.14905,-0.0871 q -0.2358,-1.18753 -0.88318,-3.65529 -0.66286,-2.5268 -1.02487,-3.61812 l 0.0753,-0.14596 0.8029,-0.21062 0.15215,0.0989 q 0.38679,1.18578 0.48048,1.3505 0.18429,0.31764 0.54219,0.28685 0.89041,-0.0695 3.70059,-0.80672 l 2.8456,-0.74649 q -0.0989,-0.61767 -0.94454,-3.84112 -0.78057,-2.97548 -1.0874,-3.90459 l -2.84561,0.74649 q -2.81018,0.7372 -3.62005,1.11372 -0.32693,0.14886 -0.33156,0.51606 -7.7e-4,0.1895 0.24433,1.41245 l -0.0871,0.14905 -0.7911,0.20753 -0.14596,-0.0753 q -0.2389,-1.19934 -0.88318,-3.65529 -0.66596,-2.53861 -1.02487,-3.61812 l 0.0753,-0.14596 0.80291,-0.21062 0.14905,0.0871 q 0.38678,1.18577 0.48048,1.3505 0.18428,0.31763 0.54219,0.28684 0.8904,-0.0695 3.70058,-0.80672 l 6.24616,-1.63857 q 2.81018,-0.7372 3.62006,-1.11371 0.32693,-0.14887 0.33156,-0.51607 7.7e-4,-0.1895 -0.24433,-1.41245 l 0.0871,-0.14905 0.80291,-0.21063 0.13724,0.0902 q 0.22651,1.15211 0.88318,3.65529 0.67215,2.56223 1.02487,3.61812 l -0.0784,0.13415 -0.81472,0.21372 -0.13724,-0.0902 q -0.38679,-1.18578 -0.48048,-1.3505 -0.18429,-0.31764 -0.54219,-0.28685 -0.89041,0.0695 -3.70059,0.80672 l -1.94823,0.51109 q 0.26929,1.26708 0.84542,3.46327 0.90447,3.44778 1.18653,4.28243 l 1.94823,-0.51108 q 2.81018,-0.7372 3.62005,-1.11372 0.32693,-0.14886 0.33157,-0.51606 7.6e-4,-0.1895 -0.24434,-1.41245 l 0.084,-0.16086 0.80291,-0.21063 0.13724,0.0902 q 0.22961,1.16391 0.88318,3.65529 0.67525,2.57403 1.02487,3.61812 l -0.0753,0.14596 -0.81472,0.21372 -0.13415,-0.0784 q -0.39298,-1.20939 -0.48357,-1.36231 -0.18429,-0.31763 -0.54219,-0.28684 -0.89041,0.0695 -3.70059,0.80672 l -6.24616,1.63857 q -2.81018,0.7372 -3.62005,1.11371 -0.32693,0.14887 -0.33157,0.51607 -7.6e-4,0.1895 0.24433,1.41245 l -0.0871,0.14905 -0.7911,0.20753 z"
       id="path56" />
    <path
       inkscape:connector-curvature="0"
       d="m -178.79889,258.37238 -0.13388,-0.1225 q -0.18723,-1.23314 -0.25267,-1.41099 -0.12974,-0.34354 -0.48785,-0.37182 -0.88976,-0.0773 -3.78276,0.18935 l -4.93512,0.45495 q -5.45781,0.50314 -7.09638,0.81356 l -0.12397,-0.14794 q 0.10433,-1.39486 0.13658,-2.10884 3.35849,-3.59496 12.32139,-12.35264 l -7.94968,0.73285 q -2.893,0.2667 -3.75363,0.5054 -0.3469,0.0933 -0.41165,0.45475 -0.0318,0.18681 0.01,1.43339 l -0.11035,0.13276 -0.82657,0.0762 -0.1206,-0.11147 q -0.0559,-1.4046 -0.16687,-2.60799 -0.12887,-1.39788 -0.33179,-2.80119 l 0.0982,-0.13164 0.82657,-0.0762 0.13276,0.11035 q 0.18723,1.23314 0.25266,1.41099 0.12974,0.34354 0.48785,0.37182 0.88976,0.0773 3.78276,-0.18936 l 6.43025,-0.59278 q 2.893,-0.26669 3.75362,-0.50539 0.34691,-0.0933 0.41166,-0.45475 0.0318,-0.18681 -0.01,-1.4334 l 0.11034,-0.13276 0.82658,-0.0762 0.1206,0.11147 q 0.0335,1.16149 0.12989,2.20686 0.15128,1.64099 0.32394,2.7161 -5.43122,4.91384 -11.55997,11.43659 l 7.11094,-0.65553 q 2.89301,-0.2667 3.75363,-0.5054 0.34691,-0.0933 0.41166,-0.45475 0.0318,-0.18681 -0.01,-1.43339 l 0.11035,-0.13276 0.82657,-0.0762 0.12061,0.11147 q 0.0526,1.36814 0.16575,2.59584 0.14455,1.56805 0.3329,2.81334 l -0.0982,0.13164 -0.82657,0.0762 z"
       id="path58" />
    <path
       inkscape:connector-curvature="0"
       d="m -187.34296,281.00801 q -4.49304,-0.31955 -6.86387,-3.1193 -2.30296,-2.72149 -1.98948,-7.1293 0.29617,-4.16428 2.80288,-6.37238 2.51888,-2.20723 6.69533,-1.9102 5.85678,0.41654 7.79157,5.04543 0.87819,2.10618 0.66689,5.07718 -0.30223,4.24952 -2.69848,6.45323 -2.43539,2.23765 -6.40484,1.95534 z m -0.36645,-3.79532 q 3.53112,0.25114 5.7024,-1.02626 2.18259,-1.26437 2.37744,-4.00402 0.2572,-3.61635 -2.90986,-5.02867 -1.62485,-0.72745 -3.69481,-0.87467 -3.76247,-0.26758 -6.04074,0.9655 -2.35479,1.27659 -2.5583,4.13801 -0.2468,3.47023 3.08986,4.90685 1.76923,0.76219 4.03401,0.92326 z"
       id="path60" />
    <path
       inkscape:connector-curvature="0"
       d="m -195.59007,296.2944 q -1.6878,-0.63228 -3.88507,-1.09803 l -0.0941,-0.14473 1.91187,-8.66642 q 0.46068,-2.17339 0.57888,-3.0842 l 0.14473,-0.0941 0.33437,0.0709 0.13064,0.0901 q 0.37395,1.00266 0.50206,1.10468 0.19217,0.15304 1.5604,0.46802 l 2.66734,0.60282 6.05444,1.28335 q 2.84212,0.60244 3.73483,0.62945 0.35896,0.0137 0.5279,-0.31237 0.0857,-0.169 0.41557,-1.37186 l 0.14473,-0.0941 0.81204,0.17212 0.0822,0.1422 q -0.33237,1.2148 -0.83609,3.5912 -0.52144,2.45999 -0.72063,3.75294 l -0.13279,0.0966 -0.82397,-0.17466 -0.0822,-0.14219 q 0.18654,-1.23324 0.17674,-1.42249 -0.0221,-0.36656 -0.35578,-0.49968 -0.82689,-0.33749 -3.66901,-0.93993 l -7.14113,-1.51369 q -1.56436,-0.33159 -3.04584,-0.58323 l -0.34426,1.62407 q -0.73912,3.48697 -0.63153,4.33334 0.0199,0.14149 0.0909,0.21892 0.14187,0.15485 0.66841,0.37876 l 1.42002,0.60048 0.10605,0.14726 -0.15441,0.72844 -0.14726,0.10605 z"
       id="path62" />
    <path
       inkscape:connector-curvature="0"
       d="m -197.73452,317.98835 q -4.24093,-1.51791 -5.77005,-4.85276 -1.48484,-3.24121 0.004,-7.40168 1.40684,-3.93062 4.41565,-5.38196 3.0203,-1.44722 6.9624,-0.0363 5.52815,1.97863 6.14468,6.95758 0.27845,2.26487 -0.72526,5.06917 -1.43563,4.01107 -4.33689,5.48793 -2.94807,1.49901 -6.6948,0.15799 z m 0.66934,-3.75376 q 3.33298,1.19293 5.76808,0.54755 2.44248,-0.62977 3.36803,-3.2157 1.22173,-3.41343 -1.44789,-5.62657 -1.36887,-1.13821 -3.32268,-1.83752 -3.55135,-1.27109 -6.07755,-0.69721 -2.61161,0.59516 -3.57829,3.29603 -1.17237,3.27551 1.65404,5.55774 1.49856,1.21055 3.63626,1.97568 z"
       id="path64" />
    <path
       inkscape:connector-curvature="0"
       d="m -210.58505,336.2795 -0.0598,-0.17132 q 0.19985,-0.75259 -0.0317,-1.01702 -0.2208,-0.25861 -2.10938,-1.28282 -0.9121,-0.49465 -1.8493,-0.89182 0.59163,-4.31726 2.17451,-7.23598 2.08334,-3.84155 5.52137,-5.05987 3.44294,-1.20176 7.15572,0.81176 4.8395,2.62455 4.62439,7.93754 -0.0974,2.43288 -1.70354,5.39452 -0.9311,1.7169 -2.26106,3.27304 -1.0968,1.27986 -1.94775,1.90153 l -0.24552,-0.008 q -0.79299,-0.7911 -3.03333,-2.24216 l -0.0433,-0.17623 0.34916,-0.64383 0.1655,-0.0491 q 0.20388,0.11057 0.86026,0.41099 0.66712,0.30624 0.95957,0.38152 0.89989,-0.12298 1.96743,-1.01601 1.13556,-0.96723 1.90372,-2.38367 2.06007,-3.79863 -0.22326,-6.91161 -1.05564,-1.43346 -2.92276,-2.44603 -2.98311,-1.6178 -5.80808,-1.09462 -2.935,0.54682 -4.37239,3.19728 -0.76234,1.40571 -0.8714,3.04073 0.71041,0.48247 2.01954,1.19244 1.06233,0.57612 1.32841,0.62321 0.20661,0.0287 0.46794,-0.27392 0.22151,-0.25481 1.14444,-1.72617 l 0.17132,-0.0598 0.67603,0.36663 0.0433,0.17623 q -0.88674,1.53265 -1.80129,3.24464 -0.52466,0.99303 -1.56815,2.96837 l -0.1655,0.0491 -0.51507,-0.27933 z"
       id="path66" />
    <path
       inkscape:connector-curvature="0"
       d="m -213.03651,357.48668 q -0.97562,-3.10743 -2.68946,-7.21044 -0.96715,-2.31402 -1.37006,-2.77605 -0.21261,-0.24677 -0.69493,-0.60052 l -0.97448,-0.71473 q -2.88408,-2.11531 -3.33886,-2.17638 -0.19556,-0.0223 -0.34323,0.0965 -0.24939,0.19554 -1.01596,1.11687 l -0.17063,0.0262 -0.6595,-0.4837 -0.0262,-0.17063 q 0.77379,-0.93117 2.28266,-2.98841 1.54497,-2.10646 2.16454,-3.07505 l 0.15357,-0.0236 0.66934,0.49092 0.0262,0.17063 q -0.64845,1.00796 -0.76004,1.30458 -0.0689,0.17653 0.0111,0.35634 0.19488,0.41543 3.07896,2.53074 l 1.16151,0.8519 q 0.37404,0.27434 4.12581,0.64933 3.82265,0.38155 5.4633,0.14673 0.79473,-0.11347 0.9693,-0.22765 0.18441,-0.10695 0.61036,-0.68771 l 0.18769,-0.0289 0.55123,0.40429 0.0361,0.17785 q -1.28908,2.74829 -1.59036,3.57187 -0.62149,0.33136 -1.31122,0.44616 -1.43065,0.23746 -5.28806,-0.42695 l -3.52469,-0.60203 q 0.50916,1.2666 2.13575,4.97258 l 1.15745,2.52928 q 0.19487,0.41542 0.54198,1.13929 l -1.05405,1.43712 -0.17062,0.0262 -0.34452,-0.25268 z"
       id="path68" />
  </g>
  <path
     style="fill:#ffffbb;fill-opacity:0.83137256"
     inkscape:connector-curvature="0"
     d="m 113.23713,236.86908 47.44144,-47.44144 c 1.9897,-1.9897 11.63235,-12.39609 12.68554,-14.97676 1.0532,-2.58069 1.70912,-5.24142 1.96777,-7.98222 0.27093,-2.81673 0.17703,-5.58684 -0.28175,-8.31031 -0.44646,-2.79943 -1.18067,-5.37474 -2.20262,-7.72598 -1.0605,-2.43996 -2.39561,-4.5735 -4.00531,-6.40063 -1.57813,-1.85868 -3.29325,-3.19849 -5.14527,-4.01957 -1.85206,-0.82104 -3.78673,-1.05028 -5.80402,-0.68775 -2.0173,0.36252 -3.97341,1.49125 -5.86836,3.3862 l -16.17475,16.17475 13.30448,30.61047 6.82182,-6.82182 c 1.2633,-1.2633 10.34529,-10.82263 11.00354,-12.43554 0.68984,-1.64451 1.11918,-3.31495 1.28806,-5.01129 0.20048,-1.72795 0.15977,-3.43746 -0.12216,-5.12854 -0.25033,-1.72266 -0.684,-3.29379 -1.30102,-4.71342 -0.59774,-1.37525 -1.34375,-2.57041 -2.23802,-3.58549 -0.91359,-1.05941 -1.92376,-1.76765 -3.03044,-2.12481 -1.07512,-0.38869 -2.23719,-0.40405 -3.48619,-0.0461 -1.2367,0.28202 -2.5025,1.07049 -3.79738,2.36537 l -12.10062,12.10062 -1.60445,-4.21906 11.89342,-11.89341 c 1.67386,-1.67386 3.36685,-2.7304 5.07895,-3.16961 1.69282,-0.48358 3.29953,-0.43553 4.82015,0.14414 1.53292,0.50373 2.94116,1.45034 4.22473,2.83985 1.26434,1.34509 2.32064,2.9937 3.16904,4.94569 0.80985,1.86325 1.38281,3.96336 1.71892,6.30033 0.3484,2.26103 0.38895,4.54353 0.12165,6.84745 -0.26729,2.30393 -0.87134,4.56274 -1.81217,6.77648 -0.90924,2.18213 -10.3378,12.24715 -12.04326,13.95261 l -9.71163,9.71163 -16.77522,-38.59583 20.0594,-20.0594 c 2.17919,-2.17919 4.41074,-3.45607 6.69467,-3.83061 2.31548,-0.40616 4.5457,-0.12241 6.69063,0.85123 2.17655,0.94208 4.18801,2.49471 6.03443,4.65794 1.82711,2.11887 3.37697,4.64227 4.64959,7.5702 1.27259,2.92798 2.18467,6.121 2.73619,9.57911 0.58312,3.4265 0.75663,6.84891 0.52061,10.2672 -0.25534,3.37393 -0.97808,6.61064 -2.16824,9.71014 -1.15858,3.06793 -10.94869,13.81271 -13.12789,15.99191 l -48.3889,48.38891 z"
     id="path72" />
  <path
     style="fill:#ffffbb;fill-opacity:0.83137256"
     inkscape:connector-curvature="0"
     d="m 116.0482,216.36986 -26.414693,-12.23232 2.148846,-2.14885 19.186077,8.87164 -1.48477,-3.84851 -18.695012,-8.66707 -6.446525,6.44653 36.898937,17.12959 -11.34184,-29.39211 29.42792,11.30603 -17.12959,-36.89894 -6.44653,6.44653 8.66708,18.695 3.8485,1.48478 -8.87164,-19.18607 2.14885,-2.14885 12.23233,26.41469 -28.74645,-10.98269 11.01851,28.71062 z"
     id="path74" />
  <path
     style="fill:#ffffbb;fill-opacity:0.83137256"
     inkscape:connector-curvature="0"
     d="m 175.73311,124.14415 12.23233,26.41469 2.14885,-2.14885 -8.87167,-19.18609 3.84852,1.48479 8.66709,18.69501 -6.44653,6.44653 -17.1296,-36.89893 29.39211,11.34183 -11.30602,-29.42792 36.89893,17.1296 -6.44652,6.44652 -18.69502,-8.66709 -1.48478,-3.84851 19.1861,8.87166 2.14884,-2.14885 -26.41469,-12.23232 10.98268,28.74643 z"
     id="path76" />
  <path
     style="fill:none;stroke:#ffffbb;stroke-width:3.91400003;stroke-linejoin:round;stroke-opacity:0.83137256"
     inkscape:connector-curvature="0"
     d="m 143.85223,209.09383 -29.87677,29.87676 c -0.82102,0.82102 -1.91434,1.20969 -3.02121,1.17429 -1.10687,-0.0354 -2.22733,-0.49487 -3.10259,-1.37014 L 92.603375,223.52646 77.355112,208.27819 c -0.875271,-0.87527 -1.334739,-1.9957 -1.370151,-3.10259 -0.0354,-1.10688 0.353274,-2.2002 1.174295,-3.02122 l 59.753534,-59.75353 59.75352,-59.753527 c 0.82103,-0.821028 1.91435,-1.209704 3.02123,-1.174306 1.10688,0.0354 2.22731,0.494869 3.10259,1.370154 l 15.24827,15.248263 15.24828,15.248286 c 0.87526,0.87526 1.33476,1.99571 1.37015,3.10258 0.0354,1.10688 -0.35328,2.2002 -1.17431,3.02123 l -29.87677,29.87677 -8.63282,8.63282 -6.30556,6.30556"
     id="path78" />
  <path
     id="path82"
     d="m 246.10567,251.25908 8.23497,8.23496 c 0.80203,-3.66634 -4.5e-4,-8.08496 -1.49757,-9.58208 -2.62018,-2.62019 -6.7374,1.34712 -6.7374,1.34712"
     inkscape:connector-curvature="0"
     style="fill:#123013;fill-rule:evenodd" />
  <path
     id="path84"
     d="m 250.29872,140.16668 c 9.28166,30.5426 -0.45078,48.06028 -0.45078,48.06028 -1.79605,1.79606 -3.29246,0.29964 -3.29246,0.29964 -8.23426,8.23426 -10.48021,19.76275 -10.48021,19.76275 -1.34792,4.64127 -3.14486,0 -3.14486,0 0,-14.97122 7.78525,-21.70994 7.78525,-21.70994 7.48649,-5.68868 6.88722,-11.67787 6.88722,-11.67787 6.36396,-16.54453 2.69584,-34.73486 2.69584,-34.73486"
     inkscape:connector-curvature="0"
     style="fill:#ffffbb;fill-opacity:0.83137256;fill-rule:evenodd" />
  <path
     id="path86"
     d="m 259.13137,179.54281 c 6.73784,-4.94003 7.56162,-0.74865 7.56162,-0.74865 1.27191,2.24595 -2.32107,4.94091 -2.32107,4.94091 3.96687,-0.82378 3.96687,2.09657 3.96687,2.09657 1.04828,1.04829 -3.51786,3.89262 -3.51786,3.89262 3.66723,1.42217 2.47045,3.36848 2.47045,3.36848 -5.01604,5.01604 -7.86037,3.36848 -7.86037,3.36848 3.89262,-0.89802 5.24054,-4.042 5.24054,-4.042 -2.69584,-1.04828 -6.28883,-0.29963 -6.28883,-0.29963 5.9892,-3.14486 7.26199,-5.76469 7.26199,-5.76469 -2.02144,-2.02144 -6.81298,-0.0742 -6.81298,-0.0742 3.7406,-2.99813 5.91495,-6.66271 5.91495,-6.66271 -2.32108,-1.42305 -5.61531,-0.0751 -5.61531,-0.0751"
     inkscape:connector-curvature="0"
     style="fill:#ffffbb;fill-opacity:0.83137256;fill-rule:evenodd" />
  <path
     id="path88"
     d="m 177.30895,269.59949 c -1.4858,-1.48581 -0.14902,-6.43768 -0.14902,-6.43768 -2.5462,4.19199 -2.17143,7.4111 -2.17143,7.4111 1.94613,2.84451 4.26668,0.52396 4.26668,0.52396 l 1.49774,-1.64623 c -1.8e-4,3.74254 1.87153,3.74289 1.87153,3.74289 2.54453,-7.1e-4 4.64083,-3.21954 4.64083,-3.21954 4.5e-4,2.32063 2.32108,1.7218 2.32108,1.7218 5.76416,-2.76956 3.96793,-7.11102 3.96793,-7.11102 -1.19846,3.74228 -3.96829,5.01481 -3.96829,5.01481 -1.34712,-2.84426 -0.74811,-6.2876 -0.74811,-6.2876 -1.34793,4.94003 -4.94082,7.33614 -4.94082,7.33614 -2.6208,-1.79684 -0.67379,-6.36369 -0.67379,-6.36369 -2.68417,3.82969 -5.61469,5.61469 -5.61469,5.61469 l -0.29963,-0.29964"
     inkscape:connector-curvature="0"
     style="fill:#ffffbb;fill-opacity:0.83137256;fill-rule:evenodd" />
  <path
     id="path90"
     d="m 137.25958,255.60116 c 23.20671,6.73749 47.46135,-0.74812 47.46135,-0.74812 3.74263,-1.64783 1.49669,-3.89377 1.49669,-3.89377 6.43767,-7.93498 19.61399,-10.92896 19.61399,-10.92896 2.99309,-2.6e-4 -0.15088,-3.14424 -0.15088,-3.14424 -16.91735,-1.34721 -26.20087,13.32446 -26.20087,13.32446 -15.61177,8.04396 -42.22028,5.39063 -42.22028,5.39063"
     inkscape:connector-curvature="0"
     style="fill:#ffffbb;fill-opacity:0.83137256;fill-rule:evenodd" />
  <path
     id="path92"
     d="m 208.07667,241.77687 5.3e-4,8.08523 3.09351,-0.79894 2.59552,5.98875 3.49311,-3.4931 -2.99407,-5.3e-4 -1.69714,-4.49181 -1.29754,-1.29755 -1.29754,1.29755 z"
     inkscape:connector-curvature="0"
     style="fill:#ffffbb;fill-opacity:0.83137255;fill-rule:evenodd" />
  <path
     id="path94"
     d="m 238.12058,211.5332 7.88601,0 0,2.89561 5.38992,2.39532 -3.19436,3.19436 -0.79903,-0.79904 1.59718,-1.59717 -5.98831,-2.39621 -0.59928,-0.59927 8.9e-4,-1.99493 z"
     inkscape:connector-curvature="0"
     style="fill:#ffffbb;fill-opacity:0.83137255;fill-rule:evenodd" />
  <path
     id="path96"
     d="m 197.49623,227.80302 c 11.37929,4.19297 13.27505,-0.0999 13.27505,-0.0999 5.88967,-2.99407 11.17989,-0.99756 11.17989,-0.99756 1.39653,1.39654 0.49833,1.39672 0.49833,1.39672 l 2.52084,2.52083 c 0,-2.84433 2.49511,-2.19636 2.49511,-2.19636 l -2.71971,-2.71971 c -1.49712,-1.8e-4 -1.49739,-1.09769 -1.49739,-1.09769 -2.39488,-4.59134 0.79815,-10.78073 0.79815,-10.78073 3.49399,-7.28585 -0.69827,-13.0744 -0.69827,-13.0744 6.48771,4.49189 4.19226,10.37944 4.19226,10.37944 -1.0969,3.10155 -2.09657,10.68085 -2.09657,10.68085 0,2.59508 2.19645,2.59419 2.19645,2.59419 3.89262,1.4973 5.38904,-1.99492 5.38904,-1.99492 1.3983,-3.79363 -1.99493,-4.79153 -1.99493,-4.79153 -2.19733,0 -2.19645,-1.39742 -2.19645,-1.39742 l 1.19766,-1.19766 c 3.69287,1.49729 4.59178,4.39201 4.59178,4.39201 1.49641,2.89472 -0.60016,3.9925 -0.60016,3.9925 l -2.29544,2.29545 c 2.8956,1.09778 4.7164,-1.47255 4.7164,-1.47255 2.19645,-3.59299 5.46505,-3.21822 5.46505,-3.21822 -3.24385,3.24385 -1.89681,4.59089 -1.89681,4.59089 -2.39533,2.39533 -1.49624,7.48579 -1.49624,7.48579 l -2.19663,-2.19663 8.9e-4,-1.49642 -1.39831,0 c 1.39742,2.09569 -1.59753,2.09605 -1.59753,2.09605 -1.67142,-1.67143 -5.48882,-0.89812 -5.48882,-0.89812 l 3.46818,3.31827 -0.82343,0.82343 -3.31836,-3.46809 c -0.59928,2.24506 1.37223,6.88677 1.37223,6.88677 l -2.49538,0.52432 c 0.40419,0.11553 0.73371,1.12245 1.07837,1.1225 1.91591,3.5e-4 2.41512,1.87242 2.41512,1.87242 -5.09116,-0.49922 -6.78734,2.19574 -6.78734,2.19574 -1.69705,-1.69705 -4.59159,1.597 -4.59159,1.597 -1.04794,-2.59543 0.19922,-4.19261 0.19922,-4.19261 2.32081,-0.67325 3.5937,-2.5949 3.5937,-2.5949 2.04636,-2.04637 0.9979,-3.99251 0.9979,-3.99251 -2.09525,3.89307 -4.3914,3.8929 -4.3914,3.8929 -4.39149,3.5e-4 -4.79083,-2.0964 -4.79083,-2.0964 -3.09447,-3.09448 -1.09831,-3.89209 -1.09831,-3.89209 -8e-5,-0.99871 1.69697,0.69835 1.69697,0.69835 -9e-5,-0.91915 -0.41216,2.23473 2.29553,3.29415 3.95706,1.06163 5.4396,-2.54576 5.4396,-2.54576 0.77437,-2.66942 -1.9213,-4.74142 -1.9213,-4.74142 -4.2665,-0.84765 -7.21081,0.99888 -7.21081,0.99888 -3.51865,1.43799 -7.88548,1.49677 -7.88548,1.49677 -4.39148,3.5e-4 -7.58619,-3.99268 -7.58619,-3.99268"
     inkscape:connector-curvature="0"
     style="fill:#ffffbb;fill-opacity:0.83076926;fill-rule:evenodd" />
  <path
     id="path98"
     d="m 226.29272,230.84756 0.54889,0.54889 1.09796,-1.09796 -0.49876,-0.59903 -1.14807,1.14808"
     inkscape:connector-curvature="0"
     style="fill:#343582;fill-rule:evenodd" />
  <path
     id="path100"
     d="m 281.14034,225.65705 c -2.70119,4.6209 -1.08328,8.64827 -1.08328,8.64827 1.4762,4.17029 6.69169,3.6971 6.69169,3.6971 4.77646,3.57968 9.56247,3.42302 9.56247,3.42302 l 1.18558,1.18557 c 2.94371,1.03983 6.45382,-0.58189 6.45382,-0.58189 1.82299,-5.66174 -1.51379,-4.35813 -1.51379,-4.35813 l -3.80791,0.85546 -1.43577,-1.25722 c -1.13717,0.1586 -3.14973,1.04164 -3.14973,1.04164 0.69915,-0.69915 0.0688,-2.32651 0.0688,-2.32651 -1.1293,-1.1293 -3.84268,-0.74909 -3.84268,-0.74909 1.94632,-1.94631 0.92139,-2.71137 0.92139,-2.71137 -0.52729,-0.52729 -2.66642,0.46606 -2.66642,0.46606 -1.32327,-0.32447 -3.55154,0.84136 -3.55154,0.84136 1.47127,-1.92284 -0.78414,-2.9797 -0.78414,-2.9797 2.25541,1.05686 5.31959,0.62793 5.31959,0.62793 l 0.70236,-1.64347 -2.70169,-1.85315 1.32101,-1.47207 0.67206,-1.72503 -1.10349,-0.85424 c -4.35499,-0.16184 -7.25834,1.72546 -7.25834,1.72546"
     inkscape:connector-curvature="0"
     style="fill:#ffffbb;fill-opacity:0.83137255;fill-rule:evenodd" />
  <path
     id="path102"
     d="m 284.83338,223.11164 3.59299,-3.59299 c 1.69069,0.1386 4.09246,0.99888 4.09246,0.99888 l 2.54541,1.99563 -1.57155,1.59629 1.94614,-1.8e-4 -3.41877,3.19445 c 0.39934,-1.99598 -1.19784,-2.79413 -1.19784,-2.79413 -2.9679,-1.42464 -5.98884,-1.39795 -5.98884,-1.39795"
     inkscape:connector-curvature="0"
     style="fill:#ffffbb;fill-opacity:0.83137255;fill-rule:evenodd" />
  <path
     id="path104"
     d="m 293.3427,220.19235 1.64703,-1.12306 c 6.13866,-1.64659 5.83937,1.42172 5.83937,1.42172 1.12316,1.12315 -2.6e-4,2.24657 -2.6e-4,2.24657 l -3.29379,2.54514 c -6.2e-4,-2.02117 -1.79676,-2.84505 -1.79676,-2.84505 -0.74865,-1.64667 -2.39559,-2.24532 -2.39559,-2.24532"
     inkscape:connector-curvature="0"
     style="fill:#ffffbb;fill-opacity:0.83137255;fill-rule:evenodd" />
  <path
     id="path106"
     d="m 218.65711,249.76152 c 1.99608,-0.998 4.49136,-0.69792 4.49136,-0.69792 l -2.29526,2.29527 c 2.29563,3.6e-4 5.0902,0.29938 5.0902,0.29938 l 18.56473,-18.56474 c 0,0 -4.68953,3.29194 0.60024,-8e-4 5.28943,-3.29308 11.67734,-0.49904 11.67734,-0.49904 -2.49458,-3.89288 -5.28995,-3.89341 -5.28995,-3.89341 -2.49494,-2.49494 -2.49547,-3.79125 -2.49547,-3.79125 l -0.89767,-2.39674 -2.39533,2.39533 c -0.59909,-0.5991 0.29929,-3.29282 0.29929,-3.29282 -4.69201,6.48735 -4.69192,11.47785 -4.69192,11.47785 l -0.79832,-0.79833 c -2.49521,2.49521 -1.89656,3.89289 -1.89656,3.89289 l -5.29012,5.29013 c -2.29598,0 -4.24229,1.94631 -4.24229,1.94631 l 1.14799,1.14799 c -6.48824,1.09796 -11.57826,5.1899 -11.57826,5.1899"
     inkscape:connector-curvature="0"
     style="fill:#ffffbb;fill-opacity:0.83137255;fill-rule:evenodd" />
  <path
     id="path108"
     d="m 218.05828,297.27353 c -2.89445,5.28977 1.59673,7.18606 1.59673,7.18606 l 3.59326,-3.59326 c -1.39769,9e-5 -5.18999,-3.5928 -5.18999,-3.5928"
     inkscape:connector-curvature="0"
     style="fill:#ffffbb;fill-opacity:0.83137255;fill-rule:evenodd" />
  <path
     id="path110"
     d="m 220.65328,298.6705 c -3.59326,-3.59325 -3.39332,-7.18641 -3.39332,-7.18641 l 3.59316,-3.59316 0.79859,0.99817 c -1.09752,5.28977 3.19409,6.58802 3.19409,6.58802 l -1.09858,2.09578 -0.89811,-0.89811 z"
     inkscape:connector-curvature="0"
     style="fill:#ffffbb;fill-opacity:0.83137255;fill-rule:evenodd" />
  <path
     id="path112"
     d="m 224.03569,291.59247 c -2.75868,0.53661 -1.95035,-1.55048 -1.95035,-1.55048 -0.59359,-4.38616 1.60259,-6.58234 1.60259,-6.58234 5.73067,-4.25032 10.63297,-1.34438 10.63297,-1.34438 3.09594,3.09594 1.33875,5.93018 1.33875,5.93018 6.46201,6.46201 2.55992,8.74834 2.55992,8.74834 3.63966,-1.35145 2.25145,1.65218 2.25145,1.65218 l -0.76365,3.92784 c 0.73073,2.02826 -1.88044,1.81242 -1.88044,1.81242 l -2.59047,0.50382 c -1.88421,1.0098 -0.69368,-1.39248 -0.69368,-1.39248 l 2.39541,-2.39541 c 0.60197,-3.09179 -2.32575,-2.9245 -2.32575,-2.9245 1.12953,-1.9082 0.65234,-2.94116 0.65234,-2.94116 -3.11528,-0.51968 -1.77051,-2.46932 -1.77051,-2.46932 -0.99654,-0.99653 -2.82733,0.0674 -2.82733,0.0674 -1.8582,-0.16097 -0.18099,-2.3769 -0.18099,-2.3769 -0.044,-1.84009 1.45381,-3.33792 1.45381,-3.33792 -1.83874,0.35791 -2.91579,-0.71915 -2.91579,-0.71915 0.89804,1.996 0.36173,4.75357 0.36173,4.75357 -2.15847,-0.0628 -3.35819,-1.33904 -3.35819,-1.33904 l -1.99172,1.97744"
     inkscape:connector-curvature="0"
     style="fill:#ffffbb;fill-opacity:0.83137255;fill-rule:evenodd" />
  <path
     id="path114"
     d="m 271.55851,236.78638 c 3.09359,0 5.78855,-1.39742 5.78855,-1.39742 -0.99772,1.39759 2.19619,4.79126 2.19619,4.79126 -3.19436,0 -7.98474,-3.39384 -7.98474,-3.39384"
     inkscape:connector-curvature="0"
     style="fill:#ffffbb;fill-opacity:0.83137255;fill-rule:evenodd" />
  <path
     id="path116"
     d="m 266.3679,233.79133 c 5.58968,-1.59629 8.68416,-4.69077 8.68416,-4.69077 -4.69174,6.68738 -8.68416,4.69077 -8.68416,4.69077"
     inkscape:connector-curvature="0"
     style="fill:#ffffbb;fill-opacity:0.83137255;fill-rule:evenodd" />
  <path
     id="path118"
     d="m 265.96874,236.78629 2.89446,-0.001 1.09831,2.39585 z"
     inkscape:connector-curvature="0"
     style="fill:#ffffbb;fill-opacity:0.83137255;fill-rule:evenodd" />
  <path
     id="path120"
     d="m 260.57944,232.59376 c 4.98961,-1.59709 9.28157,-4.09158 9.28157,-4.09158 -4.69077,6.48682 -9.28157,4.09158 -9.28157,4.09158"
     inkscape:connector-curvature="0"
     style="fill:#ffffbb;fill-opacity:0.83137255;fill-rule:evenodd" />
  <path
     id="path122"
     d="m 233.82897,269.32522 3.59316,3.59316 -1.19774,0.99888 -1.79676,-1.79676 z"
     inkscape:connector-curvature="0"
     style="fill:#ffffbb;fill-opacity:0.83137255;fill-rule:evenodd" />
  <path
     id="path124"
     d="m 234.02856,274.71549 c 0.73052,3.37954 -1.29719,6.08819 -1.29719,6.08819 2.79466,-0.9979 5.09028,2.29633 5.09028,2.29633 l -4.4e-4,-2.09684 c -1.62476,-2.08065 -1.69653,-4.19155 -1.69653,-4.19155 z"
     inkscape:connector-curvature="0"
     style="fill:#ffffbb;fill-opacity:0.83137255;fill-rule:evenodd" />
  <path
     id="path126"
     d="m 231.13383,270.51705 c -1.3131,3.4779 -4.49189,8.68415 -4.49189,8.68415 6.38844,-3.78718 4.49189,-8.68415 4.49189,-8.68415"
     inkscape:connector-curvature="0"
     style="fill:#ffffbb;fill-opacity:0.83137255;fill-rule:evenodd" />
  <path
     id="path128"
     d="m 228.23947,266.93007 2.09569,0 c 4.4e-4,3.19409 -4.19182,6.28839 -4.19182,6.28839 2.49556,-4.29231 2.09613,-6.28839 2.09613,-6.28839"
     inkscape:connector-curvature="0"
     style="fill:#ffffbb;fill-opacity:0.83137255;fill-rule:evenodd" />
  <path
     id="path130"
     d="m 198.79474,284.9962 c 8.88338,-8.88338 6.08837,-12.1769 6.08837,-12.1769 2.39551,4.04306 0.0999,7.985 0.0999,7.985 -3.12232,3.66502 -6.18825,4.1919 -6.18825,4.1919"
     inkscape:connector-curvature="0"
     style="fill:#c0aa8b;fill-opacity:1;fill-rule:evenodd" />
  <path
     id="path132"
     d="m 127.82651,273.31798 c 17.46721,8.88312 36.63219,-0.0995 36.63219,-0.0995 -22.95772,12.77538 -36.63219,0.0995 -36.63219,0.0995"
     inkscape:connector-curvature="0"
     style="fill:#c0aa8b;fill-rule:evenodd;fill-opacity:1" />
  <path
     id="path134"
     d="m 154.97622,296.07586 c 14.5725,-7.38652 15.57138,-15.17186 15.57138,-15.17186 -0.99879,12.97541 -15.57138,15.17186 -15.57138,15.17186"
     inkscape:connector-curvature="0"
     style="fill:#c0aa8b;fill-opacity:1;fill-rule:evenodd" />
  <path
     id="path136"
     d="m 266.86712,129.0872 c 9.68206,14.47271 1.79605,37.92921 1.79605,37.92921 12.4769,-29.24417 -1.79605,-37.92921 -1.79605,-37.92921"
     inkscape:connector-curvature="0"
     style="fill:#c0aa8b;fill-rule:evenodd;fill-opacity:1" />
  <path
     id="path138"
     d="m 276.84793,173.30436 c 11.42861,-6.33745 13.9742,-17.06779 13.9742,-17.06779 -1.39654,14.87222 -13.9742,17.06779 -13.9742,17.06779"
     inkscape:connector-curvature="0"
     style="fill:#c0aa8b;fill-opacity:1;fill-rule:evenodd" />
  <path
     id="path140"
     d="m 268.36495,208.2395 c 8.78253,-1.59603 12.57607,-7.78507 12.57607,-7.78507 -3.39394,10.58026 -12.57607,7.78507 -12.57607,7.78507"
     inkscape:connector-curvature="0"
     style="fill:#c0aa8b;fill-opacity:1;fill-rule:evenodd" />
  <path
     id="path142"
     d="m 231.7073,232.99372 4.41658,-7.1e-4 -2.6e-4,4.49163 -4.41629,-4.49096"
     inkscape:connector-curvature="0"
     style="fill:#ffffff;fill-rule:evenodd" />
  <path
     id="path144"
     d="m 229.174,234.72798 5.05343,5.05343 -4.79074,-0.79947 z"
     inkscape:connector-curvature="0"
     style="fill:#ffffff;fill-rule:evenodd" />
  <path
     id="path146"
     d="m 241.31458,228.10213 c 2.09604,-5.88896 5.28951,-9.08243 5.28951,-9.08243 l -7.18597,-2.19734 1.09866,-2.29367 -4.19225,-8.9e-4 -2.69585,-2.69584 -3.79274,1.19766 2.89472,8.8e-4 2.74445,2.74446 2.04619,8.8e-4 0,2.24507 6.38871,1.89681 c -3.59298,3.59299 -2.59543,8.18441 -2.59543,8.18441"
     inkscape:connector-curvature="0"
     style="fill:#c0aa8b;fill-rule:evenodd;fill-opacity:1" />
  <path
     id="path148"
     d="m 229.33743,207.5407 -1.09867,-1.09866 0,-3.79186 1.29754,-1.29755 z"
     inkscape:connector-curvature="0"
     style="fill:#ffffff;fill-rule:evenodd" />
  <path
     id="path150"
     d="m 229.03779,212.23147 c -1.22329,-2.18319 0.69827,-4.09238 0.69827,-4.09238 l 1.67231,1.67231 c 0.71594,2.49609 -2.37058,2.42007 -2.37058,2.42007"
     inkscape:connector-curvature="0"
     style="fill:#a3900c;fill-rule:evenodd" />
  <path
     id="path152"
     d="m 198.0955,232.79343 4.59107,-1.8e-4 0.79903,0.79903 -4.39228,-6.2e-4 z"
     inkscape:connector-curvature="0"
     style="fill:#ffffff;fill-rule:evenodd" />
  <path
     id="path154"
     d="m 205.2821,233.7916 c 8e-5,2.09648 1.79649,2.09613 1.79649,2.09613 l 1.84688,-1.84688 c -2.33522,-2.33522 -3.64337,-0.24925 -3.64337,-0.24925"
     inkscape:connector-curvature="0"
     style="fill:#a3900c;fill-rule:evenodd" />
  <path
     id="path156"
     d="m 224.44593,244.97078 c -5.09038,1.49721 -8.18405,5.78943 -8.18405,5.78943 l -2.49556,-7.0875 -2.59535,2.7e-4 1.8e-4,-4.09256 -2.64547,-2.64546 0.94815,-3.34347 0.8982,2.69566 2.29545,2.29545 5.3e-4,3.09483 2.09648,-0.79894 1.89593,5.88932 c 5.65464,-3.20983 7.78551,-1.79703 7.78551,-1.79703"
     inkscape:connector-curvature="0"
     style="fill:#c0aa8b;fill-rule:evenodd;fill-opacity:1" />
  <path
     id="path158"
     d="m 228.66302,221.39027 1.42251,-1.42251 -0.74853,-0.74853 -1.42251,1.42251 z"
     inkscape:connector-curvature="0"
     style="fill:#ffffff;fill-rule:evenodd" />
  <path
     id="path160"
     d="m 215.93705,232.61895 0.82378,0.82378 1.42216,-1.42217 -0.74865,-0.74865 z"
     inkscape:connector-curvature="0"
     style="fill:#ffffff;fill-rule:evenodd" />
  <path
     id="path162"
     d="m 229.83594,247.56613 1.1981,-1.19811 -3.09429,0.89838 z"
     inkscape:connector-curvature="0"
     style="fill:#ffffff;fill-rule:evenodd" />
  <path
     id="path164"
     d="m 243.0111,230.79744 0.4994,-0.49939 0.79894,0.79895 z"
     inkscape:connector-curvature="0"
     style="fill:#ffffff;fill-rule:evenodd" />
  <path
     id="path166"
     d="m 243.21139,233.39306 1.49708,-1.49708 -0.79928,-0.79929 -1.49708,1.49708 z"
     inkscape:connector-curvature="0"
     style="fill:#ffffff;fill-rule:evenodd" />
  <path
     id="path168"
     d="m 240.11674,236.2876 1.59721,-1.59721 -0.59904,-0.59903 -1.5972,1.59721 z"
     inkscape:connector-curvature="0"
     style="fill:#ffffff;fill-rule:evenodd" />
  <path
     id="path170"
     d="m 288.12779,230.39767 2.29456,-2.29456 4.09247,4.09246 c -3.39217,1.19696 -6.38703,-1.7979 -6.38703,-1.7979"
     inkscape:connector-curvature="0"
     style="fill:#c0aa8b;fill-rule:evenodd;fill-opacity:1" />
  <path
     id="path172"
     d="m 292.51936,226.20496 c 2.49503,1.09849 5.78891,4.39237 5.78891,4.39237 0.39987,-2.99424 -3.2945,-6.28732 -3.2945,-6.28732 z"
     inkscape:connector-curvature="0"
     style="fill:#c0aa8b;fill-rule:evenodd;fill-opacity:1" />
  <path
     id="path174"
     d="m 304.39708,229.69993 c 0,-3.19436 -3.69322,-7.08733 -3.69322,-7.08733 -0.99808,1.99651 -3.19506,1.99687 -3.19506,1.99687 5.3e-4,2.19609 2.19663,2.19663 2.19663,2.19663 1.39636,-1.8e-4 4.69165,2.89383 4.69165,2.89383"
     inkscape:connector-curvature="0"
     style="fill:#c0aa8b;fill-rule:evenodd;fill-opacity:1" />
  <path
     id="path176"
     d="m 259.48139,199.95521 c 5.26388,8.285 3.99242,14.57251 3.99242,14.57251 3.4931,-11.87763 -3.99242,-14.57251 -3.99242,-14.57251"
     inkscape:connector-curvature="0"
     style="fill:#ffffbb;fill-rule:evenodd;fill-opacity:0.83137256" />
  <path
     id="path178"
     d="m 273.05519,190.17328 c 11.47802,-3.29344 17.46819,-12.07827 17.46819,-12.07827 -6.08908,14.47359 -17.46819,12.07827 -17.46819,12.07827"
     inkscape:connector-curvature="0"
     style="fill:#c0aa8b;fill-rule:evenodd;fill-opacity:1" />
  <path
     id="path180"
     d="m 253.79095,133.17959 c 10.28133,9.08278 9.18355,35.13436 9.18355,35.13436 4.79064,-26.74985 -9.18355,-35.13436 -9.18355,-35.13436"
     inkscape:connector-curvature="0"
     style="fill:#c0aa8b;fill-rule:evenodd;fill-opacity:1" />
  <path
     id="path182"
     d="m 281.63858,134.87664 c 12.27802,14.67335 -7.88336,34.83473 -7.88336,34.83473 16.46764,-20.86053 7.88336,-34.83473 7.88336,-34.83473"
     inkscape:connector-curvature="0"
     style="fill:#c0aa8b;fill-rule:evenodd;fill-opacity:1" />
  <path
     id="path184"
     d="m 197.29736,262.73852 2.99371,2.99371 c 6.58742,3.59334 12.57704,0.3996 12.57704,0.3996 -5.09063,0 -11.47908,-1.2978 -11.47908,-1.2978 z"
     inkscape:connector-curvature="0"
     style="fill:#ffffbb;fill-rule:evenodd;fill-opacity:0.83137256" />
  <path
     id="path186"
     d="m 131.32014,260.04329 c 12.81313,13.61145 32.7379,7.98439 32.7379,7.98439 -19.36333,2.19653 -32.7379,-7.98439 -32.7379,-7.98439"
     inkscape:connector-curvature="0"
     style="fill:#c0aa8b;fill-rule:evenodd;fill-opacity:1" />
  <path
     id="path188"
     d="m 133.31675,287.99089 c 19.76293,9.98152 34.63497,-10.67996 34.63497,-10.67996 -13.67465,15.4707 -34.63497,10.67996 -34.63497,10.67996"
     inkscape:connector-curvature="0"
     style="fill:#c0aa8b;fill-rule:evenodd;fill-opacity:1" />
  <path
     id="path190"
     d="m 187.21579,277.01147 c -6.2e-4,10.18066 -11.17927,17.56692 -11.17927,17.56692 15.37091,-5.58951 11.17927,-17.56692 11.17927,-17.56692"
     inkscape:connector-curvature="0"
     style="fill:#c0aa8b;fill-rule:evenodd;fill-opacity:1" />
  <path
     id="path192"
     d="m 215.6626,230.99658 -1.09831,1.09831 c -0.72284,2.76992 2.69558,3.8929 2.69558,3.8929 3.77745,0.51468 4.19137,-2.59509 4.19137,-2.59509 6.2e-4,-2.68762 -1.99545,-2.68736 -1.99545,-2.68736 -0.69244,-5.3e-4 -0.34639,1.09062 -0.34639,1.09062 1.39396,0.79807 0.22114,1.97089 0.22114,1.97089 -1.89637,1.2476 -2.86953,0.27445 -2.86953,0.27445 1.87136,-1.87136 -0.79841,-3.04472 -0.79841,-3.04472"
     inkscape:connector-curvature="0"
     style="fill:#eed315;fill-rule:evenodd" />
  <path
     id="path194"
     d="m 227.3646,218.82082 1.09778,-1.09778 c 2.77009,-0.72302 3.89351,2.69496 3.89351,2.69496 1.61043,2.6817 -2.59597,4.19226 -2.59597,4.19226 -2.68789,8.8e-4 -2.687,-1.99581 -2.687,-1.99581 -8.9e-4,-0.69208 1.08983,-0.34736 1.08983,-0.34736 0.79903,1.39476 1.97194,0.22185 1.97194,0.22185 1.24716,-1.89593 0.274,-2.86909 0.274,-2.86909 -1.87118,1.87119 -3.04409,-0.79903 -3.04409,-0.79903"
     inkscape:connector-curvature="0"
     style="fill:#eed315;fill-rule:evenodd" />
  <path
     id="path196"
     d="m 228.14206,301.10141 c 2.13005,3.72652 5.50742,3.01186 5.50742,3.01186 3.86673,-3.86672 1.44706,-3.44399 1.44706,-3.44399 -4.37876,2.8104 -6.95448,0.43213 -6.95448,0.43213"
     inkscape:connector-curvature="0"
     style="fill:#c0aa8b;fill-rule:evenodd;fill-opacity:1" />
  <path
     style="fill:none;stroke:#a3900c"
     inkscape:connector-curvature="0"
     d="m 256.92511,258.81427 c -0.15408,-2.11435 0.37239,-4.27301 1.48261,-6.07902 1.6006,-2.60373 4.42822,-4.41549 7.46251,-4.78171 l 7.98169,2.66057 c 0.84018,0.63985 1.87682,1.01797 2.93166,1.06935 1.05483,0.0514 2.12331,-0.22422 3.0217,-0.77939 0.89838,-0.55517 1.62281,-1.38753 2.04869,-2.35392 0.42589,-0.96641 0.55139,-2.06271 0.35494,-3.10036 -0.25198,-1.33099 -1.00097,-2.50418 -1.59312,-3.72253 -0.29608,-0.60919 -0.55671,-1.24083 -0.6944,-1.90401 -0.13771,-0.66316 -0.14829,-1.36229 0.0496,-2.01005 0.26828,-0.87805 0.91213,-1.61562 1.69711,-2.0918 0.78498,-0.47618 1.70277,-0.70473 2.61919,-0.76065 1.83283,-0.11182 3.63159,0.43835 5.44017,0.75586 3.47132,0.60943 7.09118,0.35372 10.44235,-0.73764 l 0,0 c 0.96738,0.39708 1.92898,0.80821 2.88438,1.23326 1.13977,0.50704 2.27077,1.03389 3.41648,1.52738 0.77553,0.33404 1.55789,0.65283 2.35229,0.9391 0.98611,0.35535 2.00273,0.66633 2.88438,1.23325 1.59111,1.02315 2.59253,2.82329 2.88251,4.69262 0.28998,1.86934 -0.0791,3.7974 -0.79127,5.54993 -0.93988,2.31304 -2.46429,4.35971 -4.25838,6.09601 -1.79411,1.73627 -3.85624,3.17466 -5.99332,4.46555 -4.94321,2.98587 -10.36339,5.22602 -16.03237,6.32763 -3.43381,0.66727 -6.94883,0.91557 -10.44235,0.73764 l 0,0 c -4.97402,-1.78752 -10.09523,-3.16527 -15.29472,-4.11472 -1.75361,-0.32021 -3.52745,-0.59261 -5.30963,-0.55301 -1.78217,0.0396 -3.58559,0.4052 -5.13274,1.29067 -2.29929,1.31593 -3.81525,3.62309 -5.59,5.59 -3.54147,3.92493 -8.35522,6.71147 -11.18,11.18 -1.18617,1.8764 -1.96846,3.97407 -2.74772,6.05268 -1.24072,3.30956 -2.49547,6.6157 -3.57993,9.97969 -0.54611,1.69405 -1.05099,3.41241 -1.25963,5.18004 -0.20864,1.76762 -0.11021,3.59849 0.52198,5.26232 0.83768,2.20464 2.6401,4.03506 4.85236,4.85236 1.66446,0.61492 3.49378,0.66169 5.25331,0.43239 1.75954,-0.2293 3.47162,-0.72396 5.18905,-1.17004 3.22874,-0.83861 6.50998,-1.51328 9.64166,-2.66244 3.13168,-1.14917 6.15023,-2.81657 8.3494,-5.32488 1.68882,-1.92624 2.83738,-4.29023 3.51389,-6.76102 0.67651,-2.4708 0.89379,-5.05022 0.85506,-7.61167 -0.0266,-1.75796 -0.17214,-3.51394 -0.14491,-5.27189 0.0272,-1.75795 0.23354,-3.53648 0.88256,-5.17047 1.00019,-2.51808 3.07192,-4.58981 5.59001,-5.59001"
     id="path198" />
  <path
     style="fill:#c0aa8b;fill-rule:evenodd;fill-opacity:1"
     inkscape:connector-curvature="0"
     d="m 226.04355,293.08135 2.69513,-2.69513 c 2.29537,3.49337 2.29537,7.68563 2.29537,7.68563 z"
     id="path204" />
  <g
     style="fill:#c0aa8b;stroke:#c0aa8b;fill-opacity:1;stroke-opacity:1"
     transform="matrix(0.09941218,-0.09941218,-0.08030799,-0.08030799,181.24097,348.3287)"
     id="g208">
    <path
       inkscape:connector-curvature="0"
       d="m 863.89986,-10.589094 0,86.1144 c -9.9536,1.0488 -20.5288,1.4664 -31.5392,1.4664 -10.9936,0 -21.5696,-0.4176 -31.5232,-1.4664 l 0,-86.1144 63.0616,0 z"
       id="path210"
       style="fill:#c0aa8b;fill-opacity:1;stroke:#c0aa8b;stroke-opacity:1" />
    <path
       inkscape:connector-curvature="0"
       d="m 728.41346,-126.32588 c 0,-59.9488 46.5472,-108.528 103.956,-108.528 57.4424,0 103.9808,48.5784 103.9808,108.5272 l 0,103.071186 -207.9376,0 0,-103.071186 z"
       id="path212"
       style="fill:#c0aa8b;fill-opacity:1;stroke:#c0aa8b;stroke-opacity:1" />
    <path
       inkscape:connector-curvature="0"
       d="m 936.35026,-10.589094 0,16.8919998 c 0,43.4424002 -24.4776,60.9896002 -59.7936,67.3792002 l 0,-84.2712 59.7936,0 z"
       id="path214"
       style="fill:#c0aa8b;fill-opacity:1;stroke:#c0aa8b;stroke-opacity:1" />
    <path
       inkscape:connector-curvature="0"
       d="m 788.18226,73.682106 c -35.2752,-6.3984 -59.7688,-23.9376 -59.7688,-67.3792002 l 0,-16.8919998 59.7688,0 z"
       id="path216"
       style="fill:#c0aa8b;fill-opacity:1;stroke:#c0aa8b;stroke-opacity:1" />
    <path
       inkscape:connector-curvature="0"
       d="m 818.08226,87.263706 25.3296,0 0,-11.7968 -25.3296,0 0,11.796 z"
       id="path218"
       style="fill:#c0aa8b;fill-opacity:1;stroke:#c0aa8b;stroke-opacity:1" />
  </g>
  <path
     style="fill:#c0aa8b;fill-rule:evenodd;fill-opacity:1"
     inkscape:connector-curvature="0"
     d="m 227.74016,307.55415 c -4.58443,-0.95627 -7.48604,-2.5957 -7.48604,-2.5957 -1e-5,-2.09569 2.84469,-4.24158 2.84469,-4.24158 4.54165,4.54166 4.64135,6.83728 4.64135,6.83728"
     id="path200" />
  <path
     style="fill:#c0aa8b;fill-rule:evenodd;fill-opacity:1"
     inkscape:connector-curvature="0"
     d="m 221.85093,298.67086 c 4.2917,2.89392 6.8874,2.89401 6.8874,2.89401 -2.79457,-2.79457 -3.39358,-5.98796 -3.39358,-5.98796 z"
     id="path202" />
  <path
     style="fill:#c0aa8b;fill-rule:evenodd;fill-opacity:1"
     inkscape:connector-curvature="0"
     d="m 299.38111,237.90007 c 3.49302,4.29205 4.79109,-1.19811 4.79109,-1.19811 -4.4e-4,-2.89427 -5.1899,-6.08792 -5.1899,-6.08792 4.09132,6.98692 0.39881,7.28603 0.39881,7.28603"
     id="path206" />
</svg>
