<?xml version="1.0" encoding="UTF-8" standalone="no"?>
<!-- Created with Inkscape (http://www.inkscape.org/) -->

<svg
   xmlns:dc="http://purl.org/dc/elements/1.1/"
   xmlns:cc="http://creativecommons.org/ns#"
   xmlns:rdf="http://www.w3.org/1999/02/22-rdf-syntax-ns#"
   xmlns:svg="http://www.w3.org/2000/svg"
   xmlns="http://www.w3.org/2000/svg"
   xmlns:sodipodi="http://sodipodi.sourceforge.net/DTD/sodipodi-0.dtd"
   xmlns:inkscape="http://www.inkscape.org/namespaces/inkscape"
   width="70.368309mm"
   height="70.105927mm"
   viewBox="0 0 249.33653 248.40682"
   id="svg2"
   version="1.1"
   inkscape:version="0.91 r13725"
   sodipodi:docname="WDM_logo_vz.svg"
   inkscape:export-filename="C:\Users\Сергей\Desktop\Фотошоп\SEO\7.png"
   inkscape:export-xdpi="39.471237"
   inkscape:export-ydpi="39.471237">
  <defs
     id="defs4" />
  <sodipodi:namedview
     id="base"
     pagecolor="#ffffff"
     bordercolor="#666666"
     borderopacity="1.0"
     inkscape:pageopacity="0.0"
     inkscape:pageshadow="2"
     inkscape:zoom="1.6674818"
     inkscape:cx="162.26343"
     inkscape:cy="50.273077"
     inkscape:document-units="px"
     inkscape:current-layer="text4136"
     showgrid="false"
     inkscape:window-width="1280"
     inkscape:window-height="661"
     inkscape:window-x="-8"
     inkscape:window-y="-8"
     inkscape:window-maximized="1"
     fit-margin-top="0"
     fit-margin-left="0"
     fit-margin-right="0"
     fit-margin-bottom="0" />
  <metadata
     id="metadata7">
    <rdf:RDF>
      <cc:Work
         rdf:about="">
        <dc:format>image/svg+xml</dc:format>
        <dc:type
           rdf:resource="http://purl.org/dc/dcmitype/StillImage" />
        <dc:title />
      </cc:Work>
    </rdf:RDF>
  </metadata>
  <g
     inkscape:label="Layer 1"
     inkscape:groupmode="layer"
     id="layer1"
     transform="translate(-145.55354,-148.78963)">
    <g
       style="font-style:normal;font-variant:normal;font-weight:normal;font-stretch:normal;font-size:70px;line-height:125%;font-family:'HFF Clip Hanger';-inkscape-font-specification:'HFF Clip Hanger, Normal';text-align:start;letter-spacing:0px;word-spacing:0px;writing-mode:lr-tb;text-anchor:start;fill:#000000;fill-opacity:1;stroke:none;stroke-width:1px;stroke-linecap:butt;stroke-linejoin:miter;stroke-opacity:1"
       id="text4136">
      <g
         id="g4147">
        <path
           inkscape:connector-curvature="0"
           id="path3"
           d="m 190.41685,192.89973 c -44.13004,44.35995 -44.29023,115.79619 -0.33484,159.75157 43.95537,43.95537 115.39306,43.79664 159.75302,-0.33338 l 0.0773,-0.0773 0.0372,-0.0372 0.0773,-0.0773 c 44.32214,-44.32214 44.55867,-115.91428 0.52666,-159.9463 -44.03203,-44.03203 -115.62271,-43.79403 -159.94485,0.52811 l -0.0773,0.0773 -0.0373,0.0373 -0.0773,0.0773 z m 0.0131,0.0131 0.0773,-0.0773 0.0373,-0.0373 0.0773,-0.0773 c 44.3158,-44.3158 115.89575,-44.55236 159.91934,-0.52877 44.02359,44.02358 43.78703,115.60354 -0.52877,159.91934 l -0.0773,0.0773 -0.0373,0.0373 -0.0773,0.0773 c -44.35364,44.12367 -115.77911,44.28244 -159.72606,0.33549 -43.94696,-43.94696 -43.78821,-115.37245 0.33549,-159.72606 z m 3.80277,9.80828 -0.007,0.01 c -6.49766,10.94454 -3.79435,31.31277 8.27812,54.64901 l 0.006,0.0115 0.01,-0.007 c 9.24585,-5.6437 18.03215,-12.36093 26.24684,-20.11576 l 0.007,-0.007 -34.54073,-34.54073 z m 0.005,0.0327 34.50729,34.5073 c -8.20912,7.74868 -16.9899,14.46321 -26.22873,20.10348 -12.06251,-23.32113 -14.76124,-43.67481 -8.27856,-54.61078 z m 6.46121,-6.3478 0.001,0.001 34.4259,34.4259 0.006,-0.006 c 7.67768,-8.13753 14.35736,-16.81178 20.00082,-25.98074 l 0.006,-0.009 -0.0103,-0.005 c -23.14423,-12.03432 -43.39739,-14.70025 -54.418,-8.43318 l -0.0112,0.005 z m 0.0328,0.008 c 11.01158,-6.25321 31.24917,-3.59179 54.37825,8.43258 -5.64004,9.16188 -12.31416,17.82792 -19.98578,25.95989 l -34.3924,-34.3926 z m 15.44384,-12.50185 0.0369,9.5e-4 c 12.64542,0.22738 27.69816,4.71396 43.43219,12.96558 l 0.009,0.003 0.004,-0.007 c 4.95141,-9.16668 8.86684,-18.67547 11.89788,-28.45091 l 0.004,-0.0127 -0.0158,-0.002 c -19.18548,-0.052 -38.42579,5.08697 -55.33865,15.48516 l -0.0294,0.0175 z m 0.069,-0.0166 c 16.89902,-10.38214 36.12021,-15.51477 55.28669,-15.46523 -3.02936,9.76722 -6.94044,19.2664 -11.8872,28.42571 -15.71871,-8.24226 -30.75934,-12.72566 -43.39949,-12.96048 z m -34.58644,34.68824 -0.0161,0.028 c -10.32104,16.83572 -15.42248,35.96092 -15.29295,54.99233 l 0.003,0.0144 0.0115,-0.003 c 9.69834,-2.95392 19.13174,-6.86954 28.22123,-11.74377 l 0.007,-0.004 -0.003,-0.009 c -8.21355,-15.61884 -12.74045,-30.63446 -12.92951,-43.2415 l -8.8e-4,-0.034 z m -0.0181,0.0676 c 0.19676,12.6021 4.72132,27.6035 12.9258,43.20742 -9.08216,4.8697 -18.50598,8.78075 -28.19601,11.73309 -0.12684,-19.01247 4.96521,-38.11867 15.27021,-54.94051 z m 99.19921,-49.73489 2.2e-4,0.009 c -3.2657,11.08223 -7.68514,21.93658 -13.29373,32.37305 l -0.006,0.009 0.0103,0.005 c 6.83827,4.0637 13.74792,8.82423 20.60027,14.1861 l 0.0138,-0.0138 c -6.85048,-5.36065 -13.76059,-10.11987 -20.59737,-14.1832 5.60583,-10.43271 10.02194,-21.28533 13.28692,-32.36331 21.70637,2.04372 42.8908,10.89166 60.01842,26.62774 l -10.07823,10.07823 0.0145,0.0145 10.09342,-10.09341 -0.0101,-0.007 c -17.1345,-15.74629 -38.3275,-24.59704 -60.04403,-26.64009 l -0.007,-0.002 -10e-4,10e-4 z M 166.8201,282.9385 l 1.5e-4,0.006 c 2.04319,21.71645 10.89294,42.91145 26.60056,60.00781 l 0.007,0.007 10.20524,-10.20524 -0.0131,-0.0131 -10.19282,10.19282 c -15.69779,-17.08934 -24.54485,-38.27565 -26.58857,-59.98202 11.03938,-3.22641 21.85357,-7.60307 32.17089,-13.17008 4.04964,6.86935 8.80939,13.80073 14.17681,20.67934 l 0.0124,-0.0124 c -5.36847,-6.8802 -10.1271,-13.81439 -14.17695,-20.68501 l -0.006,-0.009 -0.007,0.004 c -10.32078,5.56961 -21.13676,9.94962 -32.18043,13.17675 l -0.009,0.003 z m 40.03656,-17.6606 0.005,0.0103 c 3.63292,6.1164 7.91168,12.38523 12.80307,18.69538 l 0.0124,-0.0124 c -4.88747,-6.30578 -9.16198,-12.573 -12.79289,-18.68521 9.93403,-6.10477 19.44752,-13.32053 28.23667,-21.64917 l 12.4453,12.4453 0.0138,-0.0138 -12.45984,-12.45984 -0.007,0.007 c -8.7924,8.33262 -18.31079,15.55206 -28.24916,21.65878 l -0.007,0.004 z m 56.16942,-56.09098 -0.004,0.007 c -6.06815,9.89977 -13.21208,19.26415 -21.50611,28.01802 l 0.0145,0.0145 -0.0131,-0.002 12.45257,12.45257 0.0124,-0.0124 -12.44529,-12.4453 c 8.29001,-8.75051 15.43031,-18.11013 21.49651,-28.00552 6.09801,3.62247 12.35065,7.88435 18.64181,12.75779 l 0.0124,-0.0125 c -6.29525,-4.87707 -12.55246,-9.14346 -18.65481,-12.76803 l -0.007,-0.005 z m -63.29186,140.15853 0.0101,0.007 c 17.13492,15.66903 38.28844,24.55739 60.00498,26.60048 l 0.009,0.003 0.003,-0.009 c 3.26571,-11.08226 7.64402,-21.82276 13.17546,-32.18209 l 0.004,-0.007 -0.007,-0.005 c -6.25989,-3.68986 -12.58177,-7.96932 -18.85874,-12.76762 l -0.0124,0.0124 c 6.27491,4.79687 12.59483,9.0753 18.853,12.76464 -5.52855,10.3552 -9.90519,21.09336 -13.17009,32.17089 -21.70692,-2.04341 -42.85369,-10.92891 -59.98201,-26.58857 l 10.23147,-10.23147 -0.0145,-0.0145 -10.24528,10.24528 z m 137.38141,-137.3814 0.0145,0.0145 10.07823,-10.07823 c 15.69816,17.08975 24.50683,38.23674 26.58856,59.98201 -11.15446,3.2652 -22.00744,7.67929 -32.43983,13.28495 -3.68049,-6.24306 -7.92893,-12.52897 -12.69312,-18.77044 l -0.0124,0.0124 c 4.76511,6.24293 9.01531,12.53169 12.6961,18.77618 l 0.003,0.009 0.009,-0.006 c 10.43644,-5.60858 21.29043,-10.02582 32.44957,-13.29178 l 0.009,-0.003 -0.002,-0.007 c -2.08139,-21.75483 -10.89148,-42.91001 -26.59911,-60.00636 l -0.009,-0.009 -10.09203,10.09204 z M 260.5876,324.47317 c 5.68903,4.30617 11.33722,8.1206 16.85938,11.40056 l 0.009,0.003 0.006,-0.009 c 6.06838,-9.97668 13.28834,-19.49456 21.62097,-28.28696 l 0.007,-0.007 -10.80133,-10.80133 -0.0152,0.0152 10.7868,10.7868 c -8.32863,8.78916 -15.54479,18.30496 -21.6113,28.27729 -5.51789,-3.27786 -11.16187,-7.09085 -16.84644,-11.39315 l -0.0138,0.0138 z m 34.08926,-34.08926 10.80133,10.80134 0.006,-0.006 c 8.75384,-8.29402 18.15747,-15.39871 28.05726,-21.46686 l 0.007,-0.004 -0.005,-0.0103 c -3.27216,-5.50905 -7.07737,-11.14335 -11.36683,-16.81461 l -0.0138,0.0138 c 4.28625,5.66749 8.08781,11.29801 11.35803,16.80305 -9.89539,6.06616 -19.2942,13.16725 -28.04476,21.45727 l -10.7868,-10.7868 -0.0124,0.0124 z m 17.14612,17.14896 0.003,7e-5 34.50148,34.50148 0.004,-0.01 c 6.30563,-11.05919 3.60302,-31.27475 -8.43137,-54.49577 l -0.005,-0.0103 -0.009,0.006 c -9.20748,5.68202 -17.91965,12.324 -26.05718,20.00169 l -0.007,0.007 z m 0.0283,7.3e-4 c 8.13196,-7.6716 16.8373,-14.30663 26.03778,-19.98521 12.02416,23.20598 14.72345,43.40461 8.43172,54.45471 l -34.4695,-34.4695 z m -6.38532,6.43473 c -7.75484,8.21467 -14.47395,17.00184 -20.07936,26.28602 l -0.006,0.009 0.0103,0.005 c 23.33627,12.07248 43.66763,14.73885 54.65047,8.27957 l 0.0112,-0.005 -34.57997,-34.57997 -0.007,0.007 z m 0.006,0.0202 34.54654,34.54654 c -10.97425,6.44451 -31.28965,3.78395 -54.61077,-8.27855 5.60199,-9.27707 12.31554,-18.05886 20.06423,-26.26799 z m 40.38032,-30.98457 0.005,0.0103 c 8.25139,15.81097 12.77588,30.82468 12.96471,43.50865 l 9.5e-4,0.0369 0.0175,-0.0294 c 10.39818,-16.91284 15.57496,-36.19271 15.48453,-55.41648 l -3.7e-4,-0.0145 -0.0141,0.005 c -9.77541,3.03106 -19.28289,6.94509 -28.44955,11.8965 l -0.009,0.003 z m 0.0245,0.0103 c 9.15928,-4.94684 18.66134,-8.85768 28.42855,-11.88713 0.0875,19.20424 -5.08421,38.46454 -15.46609,55.36315 -0.19644,-12.67883 -4.72016,-27.68021 -12.96246,-43.47602 z m -65.0863,65.12991 -0.004,0.007 c -4.83569,9.05089 -8.78846,18.52151 -11.7424,28.21985 l -0.004,0.0127 0.0145,3.8e-4 c 19.1083,0.12927 38.23312,-4.96993 55.06884,-15.29098 l 0.028,-0.0161 -0.034,-8.7e-4 c -12.64544,-0.22738 -27.62223,-4.71536 -43.31796,-12.92866 l -0.009,-0.003 z m 0.009,0.0257 c 15.68032,8.20389 30.64391,12.69008 43.28387,12.92493 -16.82137,10.30472 -35.92684,15.39601 -55.01558,15.26969 2.95233,-9.68967 6.90066,-19.15125 11.73171,-28.19462 z"
           style="color:#000000;font-style:normal;font-variant:normal;font-weight:normal;font-stretch:normal;font-size:medium;line-height:125%;font-family:'HFF Clip Hanger';-inkscape-font-specification:'HFF Clip Hanger, Normal';text-indent:0;text-align:start;text-decoration:none;text-decoration-line:none;text-decoration-style:solid;text-decoration-color:#000000;letter-spacing:0px;word-spacing:0px;text-transform:none;direction:ltr;block-progression:tb;writing-mode:lr-tb;baseline-shift:baseline;text-anchor:start;white-space:normal;clip-rule:nonzero;display:inline;overflow:visible;visibility:visible;opacity:1;isolation:auto;mix-blend-mode:normal;color-interpolation:sRGB;color-interpolation-filters:linearRGB;solid-color:#000000;solid-opacity:1;fill:#433b31;fill-opacity:1;fill-rule:nonzero;stroke:#e7eacd;stroke-width:1.01822686;stroke-linecap:butt;stroke-linejoin:miter;stroke-miterlimit:4;stroke-dasharray:none;stroke-dashoffset:0;stroke-opacity:1;color-rendering:auto;image-rendering:auto;shape-rendering:auto;text-rendering:auto;enable-background:accumulate" />
        <path
           style="fill:#e7eacd;fill-opacity:1;stroke:#e7eacd;stroke-width:1.02572441px;stroke-opacity:1"
           sodipodi:nodetypes="cssccscsssccscccscccsccscccscscsccscccscccscc"
           inkscape:connector-curvature="0"
           id="path4143"
           d="m 230.23395,352.56194 47.42464,-47.42464 c 1.98899,-1.98899 11.60806,-12.41189 12.62053,-15.03199 1.01247,-2.62013 1.61519,-5.33288 1.80817,-8.13828 0.20359,-2.88299 0.034,-5.72779 -0.50863,-8.53436 -0.53206,-2.88418 -1.35344,-5.54603 -2.46414,-7.98555 -1.15261,-2.53157 -2.57888,-4.756 -4.27881,-6.67327 -1.66836,-1.94881 -3.46359,-3.36887 -5.38557,-4.26027 -1.92202,-0.89137 -3.91318,-1.17771 -5.97348,-0.85902 -2.06029,0.31868 -4.03758,1.42515 -5.93186,3.31944 l -16.16902,16.16902 14.45996,31.7598 6.8194,-6.8194 c 1.26286,-1.26286 10.32901,-10.8314 10.9618,-12.46898 0.66438,-1.66914 1.06079,-3.37177 1.18926,-5.10787 0.16005,-1.76769 0.0731,-3.52284 -0.26084,-5.26544 -0.30236,-1.77418 -0.78885,-3.39772 -1.45945,-4.87065 -0.64965,-1.42688 -1.44669,-2.6729 -2.39109,-3.73805 -0.96537,-1.11118 -2.02055,-1.8646 -3.16554,-2.26026 -1.11343,-0.42723 -2.30619,-0.47369 -3.57829,-0.13939 -1.26148,0.25672 -2.53945,1.03229 -3.83387,2.32671 l -12.09633,12.09633 -1.75773,-4.37141 11.8892,-11.8892 c 1.67327,-1.67327 3.38248,-2.71262 5.1276,-3.11805 1.72418,-0.45145 3.37404,-0.3597 4.94959,0.27525 1.58618,0.55735 3.05614,1.56583 4.40988,3.02548 1.33283,1.41355 2.46021,3.13304 3.38229,5.15831 0.88018,1.93321 1.52356,4.10319 1.93017,6.50996 0.41722,2.32918 0.51912,4.67223 0.30573,7.02914 -0.21339,2.35692 -0.77351,4.65866 -1.68039,6.90523 -0.87529,2.215 -10.2837,12.29327 -11.98855,13.99812 l -9.70818,9.70819 -18.23212,-40.04498 20.05231,-20.0523 c 2.17841,-2.17842 4.4344,-3.42964 6.76795,-3.75361 2.36511,-0.35557 4.66095,-0.006 6.88752,1.05019 2.25816,1.02413 4.36307,2.67037 6.31476,4.93876 1.93071,2.22236 3.58764,4.85249 4.97078,7.89036 1.38312,3.03791 2.40332,6.33825 3.06057,9.90106 0.68884,3.53123 0.95729,7.04742 0.80542,10.54857 -0.17285,3.45512 -0.82892,6.7571 -1.96822,9.90595 -1.10773,3.11728 -10.86914,13.88348 -13.04757,16.06191 l -48.37177,48.37177 z" />
        <path
           style="fill:#e7eacd;fill-opacity:1;stroke:#e7eacd;stroke-width:0.61543465;stroke-miterlimit:4;stroke-dasharray:none;stroke-opacity:1"
           inkscape:connector-curvature="0"
           id="path4145"
           d="m 232.57673,331.60268 -27.42634,-13.249 2.14808,-2.14808 19.92054,9.60975 -1.62515,-3.98804 -19.41126,-9.38688 -6.44424,6.44424 38.31323,18.55089 -12.41396,-30.45784 30.49363,12.37817 -18.55088,-38.31324 -6.44424,6.44424 9.38687,19.41126 3.98805,1.62515 -9.60975,-19.92054 2.14808,-2.14808 13.249,27.42634 -29.78586,-12.02839 12.0642,29.75005 z" />
        <path
           inkscape:connector-curvature="0"
           id="path4145-0"
           d="m 291.38082,238.54994 13.24901,27.42634 2.14808,-2.14808 -9.60975,-19.92054 3.98804,1.62515 9.38688,19.41126 -6.44424,6.44424 -18.5509,-38.31322 30.45784,12.41395 -12.37816,-30.49363 38.31323,18.55088 -6.44424,6.44425 -19.41126,-9.38688 -1.62515,-3.98805 19.92054,9.60975 2.14808,-2.14808 -27.42634,-13.249 12.0284,29.78586 -29.75006,-12.0642 z"
           style="font-style:normal;font-variant:normal;font-weight:normal;font-stretch:normal;font-size:70px;line-height:125%;font-family:'HFF Clip Hanger';-inkscape-font-specification:'HFF Clip Hanger, Normal';text-align:start;letter-spacing:0px;word-spacing:0px;writing-mode:lr-tb;text-anchor:start;fill:#e7eacd;fill-opacity:1;stroke:#e7eacd;stroke-width:0.61543465;stroke-linecap:butt;stroke-linejoin:miter;stroke-miterlimit:4;stroke-dasharray:none;stroke-opacity:1" />
        <ellipse
           transform="matrix(0.70710678,-0.70710678,0.70710678,0.70710678,0,0)"
           ry="122.42156"
           rx="122.97586"
           cy="384.1109"
           cx="-1.9595691"
           id="path4242"
           style="fill:#000000;fill-opacity:0;stroke:#e7eacd;stroke-width:3.47310305;stroke-linecap:round;stroke-linejoin:round;stroke-miterlimit:4;stroke-dasharray:none;stroke-dashoffset:0;stroke-opacity:1" />
        <path
           sodipodi:nodetypes="cssscssscssscsssccc"
           inkscape:connector-curvature="0"
           id="rect4869"
           d="m 260.91325,324.87154 -29.86619,29.86619 c -0.82074,0.82073 -1.93229,1.19066 -3.06894,1.12509 -1.13667,-0.0656 -2.29846,-0.56662 -3.21967,-1.48783 L 208.7099,338.32644 192.66135,322.27789 c -0.92121,-0.92121 -1.42226,-2.08299 -1.48782,-3.21967 -0.0656,-1.13665 0.30435,-2.2482 1.12508,-3.06893 l 59.73237,-59.73238 59.73237,-59.73237 c 0.82074,-0.82074 1.93228,-1.19065 3.06894,-1.12509 1.13667,0.0656 2.29846,0.56661 3.21967,1.48783 l 16.04855,16.04855 16.04855,16.04855 c 0.92121,0.92121 1.42227,2.083 1.48783,3.21967 0.0656,1.13666 -0.30435,2.2482 -1.12509,3.06894 l -29.86619,29.86619 -8.62976,8.62976 -6.30333,6.30333"
           style="opacity:1;fill:#433b31;fill-opacity:0;stroke:#e7eacd;stroke-width:4.01468515;stroke-linecap:butt;stroke-linejoin:round;stroke-miterlimit:4;stroke-dasharray:none;stroke-dashoffset:0;stroke-opacity:1" />
      </g>
    </g>
  </g>
</svg>
