<svg height="340.24179" viewBox="0 0 315.94281 340.24179" width="315.94281" xmlns="http://www.w3.org/2000/svg"><ellipse cx="158.19345" cy="153.04678" fill="none" rx="123.01942" ry="116.31688" stroke="#fece1f" stroke-linecap="round" stroke-linejoin="round" stroke-width="3.98600054"/><path d="m239.55525 188.27367c6.56375 27.31375-33.2425 44.67625-33.2425 44.67625-14.82125-1.905-25.62 6.14-25.62 6.14l2.1175-5.71625-3.8125 1.905c0-4.87-2.2225-7.0925-2.2225-7.0925 0 7.51625-6.67 11.75125-7.94 11.75125s-2.1175-2.1175-10.16362-2.1175c-6.14013 0-10.16363 1.90625-10.16363 1.90625-5.92825 0-8.46925-10.16375-8.46925-10.16375-3.8115 2.1175-2.11712 6.56375-2.11712 6.56375-1.69438.8475-4.34088-1.8-4.34088-1.8l1.79988 5.4c-9.73975-7.6225-24.98488-6.14125-24.98488-6.14125-40.229995-16.515-34.30137-43.83-34.30137-43.83-11.434 9.52875-11.434 22.02125-11.434 22.02125-4.340375-4.34-1.693876-11.8575-1.693876-11.8575-9.951624 6.56375-8.045874 20.115-8.045874 20.115-4.023001 0-4.870138-6.775-4.870138-6.775-4.869638 16.7275 4.658638 28.58375 4.658638 28.58375-3.176251 0-5.293901-4.0225-5.293901-4.0225-1.481925 6.9875 3.599651 13.55125 3.599651 13.55125 6.352 6.3525 23.71475 7.41125 23.71475 7.41125-1.2705 3.59875-6.140625 3.3875-6.140625 3.3875 3.811124 7.19875 9.105 6.35163 9.105 6.35163h17.785625c0 2.75287-3.8115 4.23487-3.8115 4.23487l6.140625 4.23488c16.092375 2.11712 28.372625-1.90575 28.372625-1.90575l-12.28025 5.92862 2.11712 2.11775-9.105 4.02238 3.9175 3.917h-5.61087c-1.32363 1.32375-1.90625 3.28225-1.90625 3.28225-5.081 1.69437-6.140125 6.77587-6.140125 6.77587 1.270495 7.19925 6.246125 12.17488 6.246125 12.17488 0-4.97563 2.01175-6.03475 2.01175-6.03475 1.27 0 2.541 2.54062 2.541 2.54062l1.27-5.08112c1.2705 3.811 4.0235 3.811 4.0235 3.811v7.8345c-3.81163 0-4.23488-4.23488-4.23488-4.23488-2.7525 6.14013-1.69387 12.49225-1.69387 12.49225 1.05862 4.23488 5.50487 5.082 5.50487 5.082 4.02338-1.48237 7.19925-7.41112 7.19925-7.41112l1.2705-6.77538h1.69388v5.0815c3.5995-3.59962 5.0815-9.95112 5.0815-9.95112h1.2705v3.59912c3.7055-3.70512 8.25737-12.70412 8.25737-12.70412-2.11675 12.70412-11.43362 19.90287-11.43362 19.90287l6.98725 5.082 4.23487-4.23487c1.05863 4.02337-1.69387 5.92875-1.69387 5.92875l6.98737 4.65812 4.02288-4.02287-1.48238 5.50487 10.79888 4.87013v-6.14013h2.541v5.71675c8.89287-1.2705 11.01037-5.50537 11.01037-5.50537l-1.05875-4.86963 3.81125 3.811c5.505-1.05862 7.41-4.65812 7.41-4.65812l-2.96375-5.2935 4.34125 4.34087 6.14-6.14062c-9.63375-9.63388-9.63375-19.16213-9.63375-19.16213 2.98375 10.16938 7.19875 11.85738 7.19875 11.85738l1.27-4.02338c1.05875 7.19963 5.7175 10.1635 5.7175 10.1635v-5.293h1.69375l1.27 7.834c2.33 5.2935 7.41125 6.98738 7.41125 6.98738 4.44625-1.2705 5.505-5.08163 5.505-5.08163v-9.52825l-2.33-4.023c0 3.38775-2.01125 4.12888-2.01125 4.12888h-1.16375c0-3.917-1.69375-5.61125-1.69375-5.61125 3.59875-1.05813 3.59875-5.2935 3.59875-5.2935l1.90625-.21138v5.50488c2.32875 0 2.32875-2.7525 2.32875-2.7525h1.69375c2.1175 2.11775.8475 6.84625.8475 6.84625l4.96-8.88138.75625-1.3525c3.17625-6.14012-5.71625-8.04587-5.71625-8.04587l-1.90625-4.65825-6.9875-1.05863 5.29375-3.17625-9.105-3.811v-.84725h2.1175c-2.96375-2.96425-12.28-6.77537-12.28-6.77537 17.57375 4.44637 26.67875 1.90525 26.67875 1.90525 4.5525-1.69375 7.19875-4.86963 7.19875-4.86963l-3.705-3.7055h17.89125c8.2575-2.43512 8.8925-7.5165 8.8925-7.5165-5.08125 0-6.56375-3.81125-6.56375-3.81125 31.54875-1.69375 26.89125-20.115 26.89125-20.115-3.6 6.3525-5.29375 3.81125-5.29375 3.81125 4.33625-5.16 5.7175-13.55125 5.7175-13.55125 2.11625-9.31625-1.69375-15.03375-1.69375-15.03375-.95375 6.67-4.65875 7.41125-4.65875 7.41125v-11.43375c-1.69375-5.08125-8.47-9.95125-8.47-9.95125 3.3875 8.2575-1.48125 12.06875-1.48125 12.06875-2.1175-15.88-11.8575-21.17375-11.8575-21.17375" fill="#123013" fill-rule="evenodd"/><g fill="#ffb" fill-opacity=".83137256" stroke="#ffb" stroke-width=".20035609" transform="matrix(.99351659 -.12495089 .12733334 .98693686 453.89091 -149.96291)"><path d="m-465.52952 302.36862.15084.0649q.79895 2.59054.97888 3.12246.71969 2.12766 1.40707 3.93121l-.0804.14319-.72849.24641-.16631-.0726-.39811-.98646q-.24982-.62425-.6661-.48344-.24283.0821-.97744.69144l-2.12305 1.76194q.51664 1.60357 1.07989 3.2687.30509.90195.93057 2.67489l1.58283.0316q1.80288.0345 2.2076-.10241.43941-.14863.33652-.71949-.0554-.3163-.30646-1.21076l.0765-.15475.74006-.25033.15475.0765q.65423 2.1627.86153 2.77556.16037.4741.8634 2.3239l-.065.15084-.75162.25424-.15866-.0881q-.47225-1.16756-.96694-1.29662-.49859-.14062-5.51425-.41566l-8.57177-.4639q-.99225-.0381-2.99222-.12187l-.55542-1.642 12.34651-11.00612q.69975-.63617.70603-.96046.01-.42853-.23282-1.14546l.092-.14709.74005-.25033zm-3.74127 9.43552-5.22218 4.52414 6.86105.32092q-.28604-.95993-.79844-2.47474-.49674-1.46855-.84043-2.37032z"/><path d="m-470.80046 285.13329 1.32499.33171q1.85052 2.28359 2.41578 5.41907 1.13053 6.27097-2.97066 9.39186-1.89758 1.44603-4.33629 1.88568-3.94037.71037-6.75511-1.48622-2.89765-2.24366-3.73363-6.88081-.53061-2.94327.0318-5.94715l.15204-.18866q1.73148.10958 3.97128-.19498l.13962.0865.12778.70879-.11049.14396q-1.44712.29809-1.99442.49599-1.42316 1.80704-.91204 4.64219.52628 2.91925 2.67521 4.24356 2.14893 1.32432 5.32045.75256 4.28877-.77318 6.05054-4.14212.94165-1.79466.46518-4.4376-.43315-2.40267-2.08418-4.47414l.22216-.35015z"/><path d="m-469.51557 265.10717.12537.10607q.01 2.71093.027 3.27219.0688 2.24504.20107 4.1706l-.11865.11355-.76868.0236-.13795-.1179-.0935-1.05964q-.0572-.66995-.49642-.65649-.25622.008-1.13645.37678l-2.54419 1.06719q.0272 1.68452.081 3.44151.0292.9517.11114 2.82995l1.505.49124q1.71468.5581 2.14172.54501.46365-.0142.53149-.59028.0391-.31873.0595-1.24752l.11828-.12575.78088-.0239.12575.11827q-.004 2.25948.0158 2.90615.0153.50025.1491 2.47462l-.10607.12538-.79308.0243-.12613-.13048q-.11171-1.25449-.54736-1.52203-.43601-.27975-5.15411-2.00373l-8.06501-2.9404q-.93814-.32543-2.827-.9881l-.0531-1.73258 15.01685-6.93289q.8547-.40478.95517-.71318.13407-.40713.11089-1.16361l.13085-.11392.78089-.0239zm-6.32727 7.93675-6.31346 2.80698 6.47011 2.30536q.006-1.00163-.043-2.59999-.0475-1.54957-.11362-2.51235z"/><path d="m-476.59084 243.80184q4.10565.51785 6.46883 3.53503 1.15512 1.4745 1.64654 3.43126.53517 2.09761.15067 4.75594l-.6119 4.26603q-.24419 1.74094-.29089 2.8916l-.13639.10583-.33911-.0428-.13769-.0789q-.45618-.96802-.59235-1.05901-.20425-.1365-1.59397-.33639l-2.70829-.37851-6.1403-.77447q-2.88243-.36356-3.77429-.3161-.35886.0163-.50004.35526-.0714.17555-.29984 1.40172l-.13639.10583-.82355-.10387-.0937-.13486q.23459-1.27461.38123-2.43727.35592-2.82188.56891-5.09581.10573-1.13091.24932-2.26935.39717-3.14887 1.32405-4.74218 1.01941-1.74159 2.83421-2.57081 1.86631-.84733 4.55496-.50822zm.11237 3.79142q-3.35476-.42313-5.364.97214-1.05159.72863-1.59954 1.9514-.51609 1.16528-.78952 3.33316-.14206 1.12633-.11446 2.17563 1.34116.2922 6.54892.94905l5.29558.64332q1.76974.21091 2.36177.19945.30398-1.04438.44451-2.1586.30399-2.4101-.22279-3.89147-.57357-1.59801-2.29083-2.71277-1.77476-1.14663-4.26964-1.46131z"/><path d="m-466.97781 229.05894q1.65184.72103 3.82127 1.30282l.0863.14952-2.36944 8.55265q-.57547 2.14585-.74186 3.0491l-.14953.0863-.33013-.0885-.12567-.0969q-.32017-1.0211-.44269-1.12978-.19556-.16619-1.53334-.55023l-2.63156-.74364-5.97773-1.60308q-2.80612-.75253-3.69613-.82691-.35773-.0327-.54375.28389-.0946.1642-.48785 1.34785l-.14952.0863-.80175-.21501-.0745-.14636q.39009-1.17186 1.05725-3.65963.59444-2.2166 2.19001-8.44911l.12911-.1044 1.26763.50424q.60592.23833 1.03267.39069l1.07438.37659.0981.15268-.18339.68385-.14952.0863q-1.60666-.41823-1.8781-.30145-.19985.0854-.60087 1.20381-.39787 1.10658-.62869 1.96728-.27508 1.02576-.47396 2.09724 1.20321.46169 3.39623 1.04981l2.44061.65451q.30874-.91563.46367-1.49336l.40242-1.54771q.27911-1.08788.15198-1.27363-.16163-.24556-1.5253-.67445l-.0863-.14952.19604-.73101.14952-.0863q1.30788.40129 2.40439.69535 1.19083.31935 2.61832.65161l.0745.14636-.21185.78996-.14952.0863q-1.3559-.36362-1.65409-.24138-.30997.11909-.64862 1.05198-.25183.7034-.47 1.51694-.23082.8607-.37106 1.6193l3.59607.96438q1.54454.41421 3.01057.74417l.43002-1.60349q.92327-3.4428.86077-4.29369-.0124-.14234-.0791-.22343-.13345-.16217-.64735-.41373l-1.38612-.67504-.0981-.15269.19288-.71921.15268-.0981z"/><path d="m-453.53665 206.94551.0631.16068q-.54999 1.07858-1.56934 3.41736-1.04373 2.39473-1.43505 3.47588l-.14461.0568-.76094-.33165-.0631-.16068q.43034-1.17068.45874-1.35804.0519-.36354-.24822-.56093-.7423-.49664-3.4056-1.65742l-7.56466-3.29702 4.02635 4.72435q.33257.39795 2.49925 2.82037l3.5836 3.99873-.32678.74975q-1.64121-.0229-4.19026.0513l-4.00635.1181-7.37657.27377 7.76609 3.38481q2.6633 1.16079 3.53241 1.36647.34891.0855.57987-.20001.11792-.14835.68254-1.2605l.16068-.0631.76094.33166.0519.15579q-.62802 1.25763-1.11087 2.36547-.56089 1.28689-1.0595 2.61423l-.14949.068-.76094-.33165-.0631-.16068q.43033-1.17068.45873-1.35804.0519-.36354-.24821-.56093-.7423-.49664-3.4056-1.65742l-5.91969-2.58006q-2.6633-1.16079-3.53241-1.36648-.3489-.0855-.57987.20002-.11792.14834-.68254 1.26049l-.16067.0631-.76094-.33165-.052-.1558q.57438-1.13453 1.34986-2.91379.59503-1.36522.97171-2.41281 1.01142.001 2.8532-.008l1.85641-.0431 8.99253-.31515-2.72278-3.22407-4.5526-5.16676q-.81348-.91383-1.79337-1.87355.61827-1.23525.80848-1.67167.95594-2.1933 1.39604-3.38636l.14948-.068.77213.33653.0519.1558q-.43033 1.17068-.45873 1.35804-.0519.36354.24822.56093.7423.49664 3.40559 1.65742l5.91969 2.58006q2.6633 1.16079 3.53241 1.36648.3489.0855.57987-.20002.11792-.14834.68254-1.26049l.16067-.0631.74976.32677z"/><path d="m-458.1256 183.46133q1.18961 3.03196 3.18496 7.0057 1.12591 2.24106 1.56001 2.67392.22927.23136.73505.55068l1.02188.64515q3.02436 1.90937 3.48229 1.93862.19664.009.33568-.1201.23517-.21244.93573-1.1849l.16839-.038.69158.43661.038.16839q-.70708.98278-2.06906 3.14009-1.39456 2.20891-1.94519 3.21829l-.15155.0342-.70189-.44313-.0381-.16838q.5767-1.05066.66736-1.35433.0565-.1809-.0359-.35471-.22333-.40084-3.24769-2.31022l-1.218-.76896q-.39224-.24763-4.16101-.3605-3.83994-.11448-5.46026.234-.7849.16853-.9511.29459-.17652.11953-.561.72853l-.18522.0419-.57804-.36493-.0484-.1749q1.0946-2.83138 1.3378-3.67393.59692-.37383 1.27698-.53637 1.41065-.33649 5.30495.0577l3.55806.35517q-.59612-1.22808-2.47678-4.81181l-1.33074-2.44256q-.22333-.40085-.61999-1.0988l.95143-1.50701.16839-.0381.36127.22808z"/><path d="m-433.57416 166.45262q3.31725 3.04719 3.42965 6.71417.10801 3.5635-2.88138 6.81782-2.82422 3.07452-6.16057 3.24201-3.34535.15923-6.42886-2.67326-4.3241-3.97208-2.95655-8.79907.62394-2.19497 2.63888-4.38849 2.88204-3.13745 6.12922-3.37027 3.29893-.23501 6.22961 2.45709zm-2.07598 3.19828q-2.60705-2.39481-5.1015-2.74686-2.49519-.36929-4.35323 1.65342-2.45262 2.66998-.85336 5.74687.81871 1.58083 2.34698 2.98469 2.77786 2.55171 5.32844 3.00505 2.63756.46692 4.57819-1.64569 2.35352-2.5621.63666-5.76359-.91007-1.69791-2.58218-3.23389z"/><path d="m-427.13566 150.35406.7796 1.1636q.26298.38523.70624 1.0017l.57615.79189-.006.18136-.53975.4582-.17206-.0141q-1.0851-1.24052-1.36548-1.30673-.45894-.1068-2.84129 1.91557-.38155.3239-1.15309 1.07492.70342 1.03612 2.78899 3.49293l1.06648 1.25632 1.07529-.86477q.48251-.39359 1.72725-1.5303.24336-.22261.21652-.42399-.05-.34184-.87527-1.3706l.0141-.17206.57697-.48979.17206.0141q.84757 1.07388 1.58225 1.93935.79789.93991 1.7831 2.02504l-.022.16275-.62351.52929-.17206-.0141q-.82948-.97714-1.05544-1.07355-.4347-.19141-1.29032.42284-.58856.41956-1.119.86985-.64212.54509-1.12095.9996l1.88017 2.21485q1.87227 2.20554 2.56994 2.78219.27563.23037.6087.0757.0809-.0367 1.40977-1.03662l.17206.0141.52929.62351-.0234.17996-3.78844 3.11992q-.80822.67008-2.16744 1.936l-.16416-.005-.53719-.63282.0141-.17206q.90182-.86162 1.00981-1.01734.20668-.30355.0241-.61292-.45571-.78205-2.32798-2.98759l-4.17904-4.92291q-1.87227-2.20554-2.56994-2.78218-.27562-.23038-.6087-.0757-.17119.0813-1.16781.83122l-.17206-.0141-.53719-.63281.022-.16276q.94078-.70255 2.91367-2.37732 1.27493-1.08229 6.2249-5.38036l.15626-.005z"/><path d="m-402.91914 154.36211-.0256.16222q-1.06349.60371-3.20277 1.99382-2.12905 1.38347-3.11272 2.11001l-.15864-.0425-.44563-.6858.0358-.16887q1.00415-.73984 1.13108-.88055.24363-.27478.10192-.60487-.34583-.82345-1.92883-3.25957l-3.51852-5.41474q-1.583-2.43612-2.19496-3.08663-.24407-.26358-.59412-.15258-.18014.0588-1.2641.67584l-.16887-.0359-.45228-.69603.0425-.15864q1.02255-.5771 3.19254-1.98717 2.15975-1.40342 3.10248-2.10336l.16222.0256.45229.69604-.0358.16887q-1.00414.73984-1.13107.88055-.24363.27478-.10192.60487.34582.82345 1.92882 3.25957l3.51853 5.41474q1.583 2.43612 2.19495 3.08663.24407.26358.59412.15258.18014-.0588 1.2641-.67584l.16887.0359.44564.6858z"/><path d="m-391.73369 130.02564-.0644.16965q-1.07692.62921-1.21805.75568-.27139.24739-.16548.59065.25658.85547 1.57238 3.44569l2.24461 4.41861q2.48234 4.88659 3.37571 6.29484l-.0917.16983q-1.33485.41794-2.01031.65154-4.58082-1.79421-16.02859-6.89118l3.6157 7.11766q1.3158 2.59022 1.85534 3.30195.21475.28797.57459.21471.18537-.0394 1.32863-.53802l.16412.0536.37594.74006-.0591.15324q-1.28475.57049-2.36219 1.11782-1.25158.63579-2.48087 1.3424l-.15859-.0427-.37594-.74006.0535-.16412q1.07693-.62922 1.21806-.75568.27139-.2474.16547-.59065-.25657-.85547-1.57238-3.44569l-2.92462-5.75726q-1.31581-2.59022-1.85535-3.30194-.21474-.28797-.57459-.21471-.18536.0394-1.32863.53801l-.16412-.0536-.37594-.74006.0591-.15323q1.06708-.45992 2.00304-.93538 1.46924-.74636 2.40468-1.3037 6.57171 3.23368 14.89618 6.5217l-3.23423-6.36672q-1.3158-2.59022-1.85534-3.30194-.21475-.28797-.57459-.21471-.18537.0394-1.32863.53801l-.16412-.0536-.37595-.74006.0591-.15323q1.2521-.55391 2.35131-1.11229 1.40394-.71319 2.49175-1.34794l.15859.0427.37594.74006z"/><path d="m-377.17717 123.79572.32888 1.36146q.11345.45242.31605 1.18419l.26659.94231-.0685.16804-.66494.24315-.15657-.0727q-.58889-1.53933-.82904-1.69847-.39365-.25898-3.32857.81425-.47005.17188-1.45377.60959.3015 1.2155 1.40826 4.24214l.56596 1.54771 1.30807-.43933q.58888-.20234 2.15003-.8382.30535-.12466.34984-.32289.0713-.33804-.34702-1.58878l.0727-.15657.7108-.25992.15657.0727q.42368 1.3008.81356 2.367.42342 1.15792.97236 2.5169l-.0769.1451-.76812.28088-.15657-.0727q-.44019-1.20378-.61883-1.37241-.34163-.32999-1.35693-.0497-.69737.19002-1.35085.42898-.79105.28927-1.39756.55004l.99776 2.72857q.99358 2.71709 1.44865 3.49951.1789.31151.54491.28165.0886-.006 1.68135-.48486l.15657.0727.28089.76812-.0842.16076-4.6339 1.61651q-.99015.34908-2.70341 1.06655l-.15238-.0613-.28507-.77959.0727-.15657q1.14423-.4964 1.29943-.60514.29893-.2133.23468-.56673-.157-.89141-1.15057-3.60851l-2.21772-6.06474q-.99357-2.7171-1.44865-3.49951-.1789-.31151-.54491-.28165-.18873.017-1.38327.37585l-.15657-.0727-.28507-.77958.0769-.14511q1.12575-.33367 3.55624-1.22243 1.57064-.57435 7.70195-2.89439l.14818.0498z"/><path d="m-353.33327 126.08102q1.02507 4.3862-.94721 7.47967-1.91761 3.00549-6.2206 4.01111-4.06526.95006-6.91654-.79048-2.85406-1.75243-3.8069-5.82958-1.3362-5.71751 2.5123-8.93606 1.75173-1.46241 4.65209-2.14023 4.14847-.96951 6.96286.66683 2.85838 1.66367 3.764 5.53874zm-3.51666 1.47372q-.80561-3.44714-2.66861-5.14286-1.85389-1.71039-4.5284-1.08535-3.53035.82506-3.94165 4.26828-.21375 1.76737.2585 3.78812.85839 3.67299 2.71073 5.48402 1.91656 1.87125 4.70994 1.21843 3.38771-.79172 3.772-4.40413.20419-1.91558-.31251-4.12651z"/><path d="m-332.6815 133.016-.1102.13289q-.0851.008-.46299.0309-1.6708.0946-2.08404.13318-.61987.0579-1.96218.25668-.0758-.28717-.5526-.92924l-3.48381-4.75055-1.5408-1.92816q-.2904-.35296-.78629-.67449l.0951-.42572q.28069-.0139.41438-.0264 1.19111-.11115 1.83659-.55145.5881-.39816 1.03134-1.29773.44323-.89956.33321-2.07852-.19168-2.05406-1.79003-2.62825-.76101-.27226-2.15875-.14182-.60771.0567-1.15773.20612-.0104 1.20245.2573 4.07084l.5932 6.35665q.26995 2.8927.50962 3.75306.0937.3468.4552.41114.18685.0316 1.43339-.0112l.13288.1102.076.81433-.0981.13175q-1.22222.0405-3.7503.27642-2.61315.24386-3.73669.42226l-.13175-.098-.0771-.82649.1102-.13288q1.23292-.18862 1.41069-.25425.3434-.13012.37128-.48827.0763-.88985-.19361-3.78255l-.60001-6.42957q-.26994-2.8927-.50961-3.75306-.0937-.3468-.45521-.41114-.18685-.0316-1.43338.0112l-.13289-.1102-.0771-.82649.11134-.12073q1.19791-.0382 3.7503-.27642 1.48281-.13837 2.40313-.26104 1.82847-.24419 2.74004-.32926 2.10268-.19622 3.12233.0887 1.37244.38684 1.93557 1.56029.27436.57514.35035 1.38948.30851 3.30594-3.28137 5.03859.70298.96424 1.48116 1.94599l2.14056 2.70587q1.89116 2.39813 2.47099 2.69956.29656.15623.79489.10972l.13288.1102.0726.77787z"/><path d="m-308.18192 134.14537-.12914.11456q-1.20196-.14532-3.74867-.29777-2.60763-.15609-3.75742-.15154l-.1031-.11624.0496-.82859.12915-.11456q1.24726.001 1.43296-.0365.35921-.0763.44128-.42605.21093-.86785.38453-3.76793l.49308-8.23719-3.05064 5.40597q-.25924.44918-1.78831 3.31704l-2.52165 4.74059-.81641-.0489q-.54319-1.54889-1.48981-3.91681l-1.4893-3.72112-2.79499-6.83204-.50621 8.45653q-.1736 2.90008-.0677 3.7869.0398.35701.38731.47565.17986.0597 1.41838.20719l.11455.12915-.0496.82859-.12841.10237q-1.39692-.15699-2.60326-.2292-1.4013-.0839-2.81916-.0954l-.11528-.11696.0496-.8286.12914-.11456q1.24727.001 1.43296-.0365.35921-.0763.44129-.42605.21092-.86785.38452-3.76793l.38586-6.44597q.1736-2.90008.0677-3.78689-.0398-.35702-.38731-.47565-.17986-.0597-1.41838-.2072l-.11455-.12914.0496-.8286.12842-.10237q1.26289.14897 3.20033.26495 1.4866.089 2.59983.0822.34667.95014.98931 2.67619l.6792 1.72824 3.38984 8.33511 2.09045-3.66581 3.28498-6.05231q.57816-1.07822 1.14215-2.32849 1.37256.15554 1.84778.18398 2.3883.14297 3.65993.14571l.11529.11696-.0503.84078-.12841.10238q-1.24727-.001-1.43297.0365-.3592.0763-.44128.42605-.21093.86785-.38452 3.76793l-.38586 6.44597q-.1736 2.90008-.0677 3.78689.0398.35702.38731.47565.17986.0597 1.41837.2072l.11456.12914-.0489.81641z"/><path d="m-288.87229 138.46597-.13319.0961q-2.63322-.64448-3.18206-.76319-2.19532-.47483-4.09592-.81098l-.0816-.14254.16258-.75166.1477-.10544 1.05091.16486q.66395.10614.75686-.32338.0542-.25055-.0915-1.19378l-.42191-2.7265q-1.64133-.37998-3.35941-.75159-.93063-.20129-2.77318-.57484l-.83981 1.34205q-.95526 1.52939-1.04558 1.94698-.0981.45339.44464.65819.29988.11482 1.19633.35867l.0935.14512-.16516.76359-.14512.0935q-2.19177-.549-2.82412-.68577-.48917-.10581-2.4375-.45228l-.0961-.13319.16774-.77552.15704-.0909q1.24439.19421 1.60913-.16402.37667-.35566 3.18792-4.51851l4.79916-7.11748q.54213-.83193 1.6409-2.50513l1.69422.36644 3.10547 16.24583q.18664.92711.46169 1.099.36276.22834 1.10249.38833l.079.15447-.16516.76359zm-6.17596-8.05504-1.20102-6.80416-3.79812 5.72288q.97061.2474 2.53358.58546 1.51526.32774 2.46556.49582z"/><path d="m-269.16321 127.4553q-.43766.80368-.76887 1.70945l-.69884 1.9152-.15564.0747-.72555-.25495-.0903-.14816q.4604-1.49437.48033-1.77202.0237-.50923-.54688-.80028-.21819-.11549-2.153-.79534l-1.54324-.54226q-.16467.39499-1.14803 3.19355l-2.29855 6.5415q-.96313 2.74098-1.10478 3.62279-.0598.35422.24184.56371.15656.10677 1.30699.58864l.0747.15563-.27113.77162-.15564.0747q-1.11587-.46973-3.52287-1.3155-2.46458-.866-3.57143-1.1773l-.0672-.14007.27518-.78313.15563-.0747q1.19899.34366 1.38793.3583.36636.0252.5413-.28853.44108-.7766 1.40421-3.51758l2.29855-6.5415q.99955-2.84463 1.09045-3.21378l-1.6469-.57869q-2.06149-.72437-2.45151-.71909-.20854.004-.31406.0837-.1684.14784-.43175.67636-.29509.58206-.54474 1.21891l-.15564.0747-.72555-.25495-.0862-.15968.66896-1.97745q.27985-.83325.46477-1.76456l.14412-.0787q.63901.35392 4.91172 1.85527l4.66427 1.63893q3.93872 1.38399 4.99266 1.62494l.0747.15563z"/><path d="m-266.46185 147.61189-.1511.0644q-1.07593-.58126-3.38917-1.65729-2.30218-1.07088-3.43989-1.51932l-.0481-.15701.34495-.74157.16216-.0592q1.15985.45874 1.34646.49169.36217.0608.56681-.23447.51458-.72998 1.73991-3.36421l2.72354-5.85506q1.22533-2.63423 1.45214-3.49806.094-.34672-.18583-.58457-.14543-.1215-1.24349-.71306l-.0592-.16216.3501-.75264.15702-.0481q1.03165.56066 3.3781 1.65214 2.33539 1.08632 3.42882 1.51417l.0643.1511-.3501.75263-.16216.0592q-1.15985-.45874-1.34647-.49169-.36216-.0608-.56681.23447-.51457.72998-1.73991 3.36421l-2.72353 5.85506q-1.22534 2.63423-1.45214 3.49806-.094.34672.18583.58457.14542.1215 1.24349.71306l.0592.16216-.34494.74157z"/><path d="m-243.93868 150.38881q-2.35491 3.83978-5.93237 4.65291-3.47674.789-7.24367-1.52124-3.55882-2.1826-4.36266-5.425-.79745-3.2528 1.39153-6.82202 3.06968-5.00524 8.0693-4.58819 2.27386.19168 4.8129 1.74885 3.63166 2.22727 4.48252 5.36964.86294 3.19272-1.21755 6.58505zm-3.53688-1.42451q1.85075-3.01771 1.71817-5.5334-.11578-2.5197-2.45711-3.95562-3.09055-1.89542-5.80389.26392-1.39461 1.10651-2.47953 2.87552-1.97199 3.21542-1.92807 5.80561.0473 2.67815 2.49263 4.17789 2.96569 1.81884 5.77877-.4798 1.49201-1.21862 2.67903-3.15412z"/><path d="m-221.81741 159.40643-.1814.005q-.99208-.75595-1.16278-.83825-.33213-.15666-.60914.0721-.69318.56317-2.58667 2.76664l-3.23007 3.75886q-3.57217 4.15696-4.53381 5.51952l-.19196-.0201q-.89502-1.07491-1.36836-1.61042-.0865-4.9189.26419-17.44518l-5.20312 6.05491q-1.89349 2.20347-2.34595 2.9735-.18443.30826.0204.61305.10705.15637 1.00366 1.02342l.013.17214-.541.62956-.16418.004q-1.01697-.97047-1.93354-1.7581-1.0647-.91492-2.1864-1.78225l-.021-.16288.541-.62957.17214-.013q.99208.75594 1.16278.83825.33213.15665.60914-.0721.69318-.56317 2.58667-2.76664l4.20864-4.89763q1.89349-2.20347 2.34595-2.97349.18443-.30827-.0204-.61306-.10705-.15637-1.00366-1.02341l-.013-.17214.541-.62957.16419-.004q.8318.81135 1.62801 1.49555 1.24987 1.07404 2.12159 1.72656-.48582 7.30808-.35406 16.25741l4.65417-5.41609q1.89349-2.20347 2.34595-2.97349.18443-.30827-.0204-.61306-.10705-.15637-1.00366-1.02341l-.013-.17215.541-.62956.16418-.004q.9892.9466 1.92428 1.75014 1.19432 1.0263 2.19566 1.7902l.021.16289-.541.62956z"/><path d="m-204.11084 179.13453q-.8013.44198-1.56781 1.02729l-1.61948 1.23841-.17138-.0208-.47443-.60526.004-.17346q1.19208-1.01196 1.35825-1.23528.29393-.41651-.0304-.9688-.12179-.21474-1.38694-1.82877l-1.00911-1.28738q-.35131.24436-2.68589 2.07431l-5.45695 4.27742q-2.28653 1.79229-2.88036 2.4594-.24096.26642-.0994.60528.0745.17423.78502 1.19936l-.0208.17138-.64369.50455-.17138-.0208q-.68789-.99631-2.2618-3.00424-1.61156-2.05596-2.37709-2.91386l.0187-.15424.6533-.51209.17138.0208q.82577.93476.97716 1.04875.29525.21836.61151.048.78963-.41731 3.07617-2.20961l5.45694-4.27741q2.37301-1.86008 2.64824-2.12235l-1.07688-1.37384q-1.34799-1.71971-1.67959-1.92509-.17814-.10853-.30979-.0984-.22149.034-.72782.33785-.5619.33187-1.11498.73438l-.17137-.0208-.47444-.60526.0132-.18099 1.62779-1.30695q.68419-.55182 1.34112-1.23736l.16385.0112q.34823.64214 3.14211 4.20645l3.04991 3.89095q2.57549 3.2857 3.33426 4.05584l-.0208.17138z"/><path d="m-206.51529 200.28527q-1.66736.68436-3.59496 1.8373l-.16742-.0421-4.49252-7.65372q-1.14041-1.90664-1.67321-2.65475l.0421-.16743.29333-.17544.15704-.0228q.95606.48072 1.11937.46839.25544-.0248 1.46225-.71814l2.36544-1.37215 5.31138-3.17686q2.49331-1.49131 3.16613-2.07865.27247-.23409.17457-.58803-.0521-.1822-.62836-1.28836l.0421-.16742.71237-.42609.15695.0484q.57001 1.09568 1.89213 3.30614 1.17801 1.9695 4.54304 7.4528l-.0149.16537-1.24431.55933q-.59283.26925-.99924.46966l-1.01814.5094-.17789-.0358-.36343-.60762.0421-.16742q1.41848-.86265 1.52354-1.13884.0777-.20296-.44626-1.26927-.51772-1.05583-.97514-1.82059-.54514-.91142-1.17615-1.79993-1.16891.54269-3.11746 1.70817l-2.16855 1.29706q.44263.85894.74966 1.37227l.83132 1.3661q.58695.95753.80881.99552.28882.0548 1.54585-.62591l.16743.0421.38849.64952-.0421.16742q-1.19839.65989-2.17267 1.24262-1.05808.63287-2.29015 1.42669l-.15694-.0484-.41982-.7019.0421-.16742q1.20475-.72059 1.32449-1.01979.13022-.30547-.304-1.1979-.32984-.67037-.76219-1.39322-.45742-.76476-.90456-1.39342l-3.19521 1.91113q-1.37236.82084-2.62959 1.64394l.85217 1.42475q1.82967 3.05902 2.48418 3.60632.11083.0902.21549.0987.20932.017.74762-.17691l1.44942-.52556.17789.0358.38223.63904-.0358.1779z"/><path d="m-200.62317 218.14172-1.36573-.02q-2.32353-1.80011-3.59057-4.72337-2.53408-5.8465.74513-9.82225 1.51678-1.84151 3.79042-2.82698 3.67366-1.59229 6.91599-.0973 3.33381 1.52188 5.20766 5.84516 1.18937 2.74405 1.32851 5.79695l-.10489.21842q-1.71068.28912-3.82156 1.09761l-.15569-.0522-.28642-.66082.0747-.1654q1.34066-.621 1.82823-.93876.97241-2.08452-.17326-4.72777-1.17966-2.72165-3.57442-3.51967-2.39475-.79803-5.35161.48357-3.99847 1.73307-4.94349 5.41554-.50647 1.96239.56153 4.42644.97091 2.24004 3.05175 3.87926l-.13624.39165z"/><path d="m-197.01676 239.0941-.14905-.0871q-.2358-1.18753-.88318-3.65529-.66286-2.5268-1.02487-3.61812l.0753-.14596.8029-.21062.15215.0989q.38679 1.18578.48048 1.3505.18429.31764.54219.28685.89041-.0695 3.70059-.80672l2.8456-.74649q-.0989-.61767-.94454-3.84112-.78057-2.97548-1.0874-3.90459l-2.84561.74649q-2.81018.7372-3.62005 1.11372-.32693.14886-.33156.51606-.00077.1895.24433 1.41245l-.0871.14905-.7911.20753-.14596-.0753q-.2389-1.19934-.88318-3.65529-.66596-2.53861-1.02487-3.61812l.0753-.14596.80291-.21062.14905.0871q.38678 1.18577.48048 1.3505.18428.31763.54219.28684.8904-.0695 3.70058-.80672l6.24616-1.63857q2.81018-.7372 3.62006-1.11371.32693-.14887.33156-.51607.00077-.1895-.24433-1.41245l.0871-.14905.80291-.21063.13724.0902q.22651 1.15211.88318 3.65529.67215 2.56223 1.02487 3.61812l-.0784.13415-.81472.21372-.13724-.0902q-.38679-1.18578-.48048-1.3505-.18429-.31764-.54219-.28685-.89041.0695-3.70059.80672l-1.94823.51109q.26929 1.26708.84542 3.46327.90447 3.44778 1.18653 4.28243l1.94823-.51108q2.81018-.7372 3.62005-1.11372.32693-.14886.33157-.51606.00076-.1895-.24434-1.41245l.084-.16086.80291-.21063.13724.0902q.22961 1.16391.88318 3.65529.67525 2.57403 1.02487 3.61812l-.0753.14596-.81472.21372-.13415-.0784q-.39298-1.20939-.48357-1.36231-.18429-.31763-.54219-.28684-.89041.0695-3.70059.80672l-6.24616 1.63857q-2.81018.7372-3.62005 1.11371-.32693.14887-.33157.51607-.00076.1895.24433 1.41245l-.0871.14905-.7911.20753z"/><path d="m-178.79889 258.37238-.13388-.1225q-.18723-1.23314-.25267-1.41099-.12974-.34354-.48785-.37182-.88976-.0773-3.78276.18935l-4.93512.45495q-5.45781.50314-7.09638.81356l-.12397-.14794q.10433-1.39486.13658-2.10884 3.35849-3.59496 12.32139-12.35264l-7.94968.73285q-2.893.2667-3.75363.5054-.3469.0933-.41165.45475-.0318.18681.01 1.43339l-.11035.13276-.82657.0762-.1206-.11147q-.0559-1.4046-.16687-2.60799-.12887-1.39788-.33179-2.80119l.0982-.13164.82657-.0762.13276.11035q.18723 1.23314.25266 1.41099.12974.34354.48785.37182.88976.0773 3.78276-.18936l6.43025-.59278q2.893-.26669 3.75362-.50539.34691-.0933.41166-.45475.0318-.18681-.01-1.4334l.11034-.13276.82658-.0762.1206.11147q.0335 1.16149.12989 2.20686.15128 1.64099.32394 2.7161-5.43122 4.91384-11.55997 11.43659l7.11094-.65553q2.89301-.2667 3.75363-.5054.34691-.0933.41166-.45475.0318-.18681-.01-1.43339l.11035-.13276.82657-.0762.12061.11147q.0526 1.36814.16575 2.59584.14455 1.56805.3329 2.81334l-.0982.13164-.82657.0762z"/><path d="m-187.34296 281.00801q-4.49304-.31955-6.86387-3.1193-2.30296-2.72149-1.98948-7.1293.29617-4.16428 2.80288-6.37238 2.51888-2.20723 6.69533-1.9102 5.85678.41654 7.79157 5.04543.87819 2.10618.66689 5.07718-.30223 4.24952-2.69848 6.45323-2.43539 2.23765-6.40484 1.95534zm-.36645-3.79532q3.53112.25114 5.7024-1.02626 2.18259-1.26437 2.37744-4.00402.2572-3.61635-2.90986-5.02867-1.62485-.72745-3.69481-.87467-3.76247-.26758-6.04074.9655-2.35479 1.27659-2.5583 4.13801-.2468 3.47023 3.08986 4.90685 1.76923.76219 4.03401.92326z"/><path d="m-195.59007 296.2944q-1.6878-.63228-3.88507-1.09803l-.0941-.14473 1.91187-8.66642q.46068-2.17339.57888-3.0842l.14473-.0941.33437.0709.13064.0901q.37395 1.00266.50206 1.10468.19217.15304 1.5604.46802l2.66734.60282 6.05444 1.28335q2.84212.60244 3.73483.62945.35896.0137.5279-.31237.0857-.169.41557-1.37186l.14473-.0941.81204.17212.0822.1422q-.33237 1.2148-.83609 3.5912-.52144 2.45999-.72063 3.75294l-.13279.0966-.82397-.17466-.0822-.14219q.18654-1.23324.17674-1.42249-.0221-.36656-.35578-.49968-.82689-.33749-3.66901-.93993l-7.14113-1.51369q-1.56436-.33159-3.04584-.58323l-.34426 1.62407q-.73912 3.48697-.63153 4.33334.0199.14149.0909.21892.14187.15485.66841.37876l1.42002.60048.10605.14726-.15441.72844-.14726.10605z"/><path d="m-197.73452 317.98835q-4.24093-1.51791-5.77005-4.85276-1.48484-3.24121.004-7.40168 1.40684-3.93062 4.41565-5.38196 3.0203-1.44722 6.9624-.0363 5.52815 1.97863 6.14468 6.95758.27845 2.26487-.72526 5.06917-1.43563 4.01107-4.33689 5.48793-2.94807 1.49901-6.6948.15799zm.66934-3.75376q3.33298 1.19293 5.76808.54755 2.44248-.62977 3.36803-3.2157 1.22173-3.41343-1.44789-5.62657-1.36887-1.13821-3.32268-1.83752-3.55135-1.27109-6.07755-.69721-2.61161.59516-3.57829 3.29603-1.17237 3.27551 1.65404 5.55774 1.49856 1.21055 3.63626 1.97568z"/><path d="m-210.58505 336.2795-.0598-.17132q.19985-.75259-.0317-1.01702-.2208-.25861-2.10938-1.28282-.9121-.49465-1.8493-.89182.59163-4.31726 2.17451-7.23598 2.08334-3.84155 5.52137-5.05987 3.44294-1.20176 7.15572.81176 4.8395 2.62455 4.62439 7.93754-.0974 2.43288-1.70354 5.39452-.9311 1.7169-2.26106 3.27304-1.0968 1.27986-1.94775 1.90153l-.24552-.008q-.79299-.7911-3.03333-2.24216l-.0433-.17623.34916-.64383.1655-.0491q.20388.11057.86026.41099.66712.30624.95957.38152.89989-.12298 1.96743-1.01601 1.13556-.96723 1.90372-2.38367 2.06007-3.79863-.22326-6.91161-1.05564-1.43346-2.92276-2.44603-2.98311-1.6178-5.80808-1.09462-2.935.54682-4.37239 3.19728-.76234 1.40571-.8714 3.04073.71041.48247 2.01954 1.19244 1.06233.57612 1.32841.62321.20661.0287.46794-.27392.22151-.25481 1.14444-1.72617l.17132-.0598.67603.36663.0433.17623q-.88674 1.53265-1.80129 3.24464-.52466.99303-1.56815 2.96837l-.1655.0491-.51507-.27933z"/><path d="m-213.03651 357.48668q-.97562-3.10743-2.68946-7.21044-.96715-2.31402-1.37006-2.77605-.21261-.24677-.69493-.60052l-.97448-.71473q-2.88408-2.11531-3.33886-2.17638-.19556-.0223-.34323.0965-.24939.19554-1.01596 1.11687l-.17063.0262-.6595-.4837-.0262-.17063q.77379-.93117 2.28266-2.98841 1.54497-2.10646 2.16454-3.07505l.15357-.0236.66934.49092.0262.17063q-.64845 1.00796-.76004 1.30458-.0689.17653.0111.35634.19488.41543 3.07896 2.53074l1.16151.8519q.37404.27434 4.12581.64933 3.82265.38155 5.4633.14673.79473-.11347.9693-.22765.18441-.10695.61036-.68771l.18769-.0289.55123.40429.0361.17785q-1.28908 2.74829-1.59036 3.57187-.62149.33136-1.31122.44616-1.43065.23746-5.28806-.42695l-3.52469-.60203q.50916 1.2666 2.13575 4.97258l1.15745 2.52928q.19487.41542.54198 1.13929l-1.05405 1.43712-.17062.0262-.34452-.25268z"/></g><path d="m158.39745 45.619745c-62.594035.154475-113.238285 48.041012-113.238285 107.103515 0 59.0625 50.64425 106.951 113.238285 107.10547h.10938.0528.10937c62.70318 0 113.51171-47.93998 113.51171-107.10547s-50.80853-107.103515-113.51171-107.103515h-.10937-.0528zm0 .01762h.10938.0528.10937c62.69421 0 113.49414 47.931788 113.49414 107.085935 0 59.15415-50.79993 107.08593-113.49414 107.08593h-.10937-.0528-.10938c-62.585073-.15449-113.220698-48.03475-113.220698-107.08592 0-59.05119 50.635625-106.931478 113.220698-107.08594zm-4.24805 9.144537-.0113.0025c-12.33781 2.987088-24.83324 18.487613-32.80074 42.276826l-.004.01125.0113.0025c10.53223 2.420087 21.49878 3.810192 32.79493 4.119132h.01v-46.412107zm-.0195.02538v46.367188c-11.28786-.30935-22.24859-1.697538-32.77344-4.115225 7.96388-23.772363 20.45223-39.260038 32.77344-42.251963zm9.06055.07625v.0025 46.257818h.007c11.187-.30896 22.04773-1.648993 32.52539-4.01758l.01-.0025-.004-.01c-7.85793-23.634575-20.29838-39.032675-32.52695-42.226325l-.0112-.0037zm.0176.02725c12.21237 3.196888 24.645 18.581513 32.5 42.199213-10.47025 2.366137-21.32123 3.704395-32.5 4.013685zm19.76757 1.976563.0254.02537c8.784 8.64855 16.25805 21.775962 21.55078 37.890625l.004.0075.007-.0025c9.98653-2.832025 19.48225-6.5899 28.54102-11.121088l.0112-.0063-.01-.01125c-13.53393-12.924557-30.77877-22.398507-50.09744-26.775357l-.0332-.0075zm.0605.03525c19.29753 4.37835 36.52438 13.8437 50.04689 26.7539-9.05176 4.5268-18.5376 8.28115-28.51564 11.111337-5.28851-16.098087-12.75625-29.215237-21.53125-37.865237zm-49.00194.06837-.0312.0075c-19.20958 4.377343-36.346466 13.799155-49.716853 26.672355l-.0075.01125.01.0063c8.949675 4.531225 18.392183 8.238325 28.269533 11.070325l.007.0025.004-.0075c5.23818-16.0117 12.65745-29.141275 21.4414-37.738287l.0234-.02338zm-.0606.03325c-8.77502 8.59888-16.18588 21.717318-21.41992 37.712905-9.86895-2.830125-19.301471-6.533862-28.244146-11.06055 13.3589-12.858675 30.475696-22.274025 49.664076-26.65235zm105.3496 33.232425-.006.0062c-10.14911 5.2515-20.95314 9.574775-32.30273 12.81837l-.01.002.004.01c1.96262 7.32445 3.48282 15.16501 4.53712 23.37109h.0195c-1.05385-8.204-2.5753-16.04399-4.53712-23.36719 11.34497-3.242932 22.14542-7.567282 32.29102-12.816407 13.90852 15.956417 22.63482 36.133537 23.61915 58.212887h-14.25783v.0195h14.2793l-.002-.0113c-.98196-22.09083-9.71234-42.27562-23.62851-58.238388l-.004-.0062h-.002zm-161.306638.0025-.0038.0037c-13.916202 15.96288-22.648703 36.14833-23.631028 58.18756v.01h14.4375v-.0176h-14.419925c.984313-22.0279 9.712575-42.20571 23.6211-58.162112 10.091001 5.249112 20.836351 9.574137 32.072251 12.765622-1.99454 7.33588-3.53065 15.19052-4.5996 23.41797h.0176c1.06933-8.22922 2.60823-16.085 4.60352-23.42187l.002-.01-.008-.002c-11.239171-3.192578-21.988158-7.516565-32.082708-12.768077l-.0075-.0038zm40.812498 15.0332-.004.01c-1.75671 6.55002-3.16441 13.63639-4.16797 21.16211h.0176c1.00325-7.52014 2.41281-14.60256 4.16798-21.14845 11.34516 2.57266 23.17872 4.1164 35.28711 4.4258v16.72265h.0195v-16.7422h-.01c-12.11351-.30891-23.95314-1.85345-35.30275-4.42774l-.007-.002zm79.4082.0528-.007.002c-11.29502 2.57426-22.97229 4.06607-35.03125 4.375v.0195l-.007-.01v16.73242h.0176v-16.72265c12.05373-.30939 23.72507-1.80042 35.01562-4.37305 1.75109 6.53066 3.15926 13.5948 4.1621 21.0957h.0176c-1.00315-7.50609-2.41138-14.57632-4.16405-21.11132l-.002-.008zm-143.912123 51.64194.0025.0112c1.0369 22.03922 9.71275 42.22272 23.628912 58.18555l.0037.007.0075-.004c10.149125-5.25152 20.843538-9.52593 32.083991-12.76953l.008-.002-.002-.007c-1.81794-6.6847-3.26267-13.80717-4.3086-21.24806h-.0176c1.0455 7.43853 2.48956 14.559 4.30664 21.2422-11.235475 3.24271-21.927038 7.51667-32.072276 12.76556-13.910082-15.95679-22.583182-36.13386-23.622057-58.16234h14.474612v-.0195h-14.494137zm194.355463 0v .0195h14.25781c-.98435 22.02843-9.71195 42.15402-23.6211 58.16211-10.19985-5.30038-20.99911-9.62633-32.34375-12.86915 1.81265-6.6671 3.25388-13.74455 4.29884-21.13867h-.0176c-1.04533 7.39573-2.48733 14.47627-4.30078 21.14453l-.004.007.01.002c11.34956 3.24359 22.15178 7.56809 32.35547 12.87109l.008.004.004-.006c13.91615-16.01426 22.64854-36.14631 23.63086-58.18555v-.0113h-14.27735zm-133.71678 24.17378c.97818 6.71524 2.2753 13.07265 3.86134 18.98632l.004.007.01-.002c11.34959-2.62577 23.18923-4.16962 35.30274-4.47852h.01v-14.51366h-.0215v14.49413c-12.1084.30942-23.94388 1.85442-35.28908 4.47853-1.5845-5.9094-2.87965-12.26303-3.85741-18.97266h-.0195zm48.22657 0v14.51366h.007c12.05893.30894 23.73621 1.85346 35.03125 4.42774l.007.002.004-.01c1.58227-5.89961 2.8761-12.24151 3.85352-18.93359h-.0195c-.97702 6.68739-2.27076 13.02429-3.85157 18.91993-11.29052-2.57266-22.96185-4.11638-35.01562-4.4258v-14.49413h-.0176zm-.002 23.04101.002.002v46.35938l.01-.004c12.28313-3.19365 24.67105-18.59114 32.58398-42.27735l.004-.01-.01-.002c-10.5322-2.36857-21.39306-3.75942-32.58008-4.06835h-.01zm.0195.0195c11.17876.30929 22.02988 1.70023 32.5547 4.06639-7.90955 23.66924-20.28784 39.05311-32.5547 42.25v-46.3164zm-9.06835.0333c-11.29565.30894-22.26414 1.69835-32.79639 4.16992l-.01.002.004.01c7.96752 23.78922 20.46299 39.24017 32.8008 42.27931l.0112.004v-46.46484h-.01zm-.01.0176v46.41992c-12.32129-3.04329-24.80958-18.4796-32.77344-42.25195 10.52481-2.46909 21.48555-3.85862 32.77344-4.16797zm50.48046 6.3125-.004.01c-5.34706 16.1662-12.7667 29.29287-21.60521 37.94141l-.0254.0254.0332-.007c19.31865-4.37685 36.61824-13.85196 50.15234-26.82812l.01-.01-.0137-.006c-9.05875-4.53115-18.55255-8.2891-28.53908-11.12109l-.007-.004zm.01.0234c9.97806 2.8301 19.46577 6.58654 28.51759 11.11329-13.52187 12.96109-30.80403 22.42644-50.10108 26.80469 8.82951-8.65021 16.24096-21.76807 21.58399-37.91798zm-92.10938.0292-.007.002c-9.82227 2.83198-19.317395 6.53911-28.267083 11.07031l-.01125.006.01.01c13.425013 12.92469 30.560033 22.34775 49.769583 26.72462l.0312.007-.0234-.0234c-8.784-8.64855-16.20335-21.72589-21.4961-37.78907l-.004-.007zm-.0113.0234c5.28905 16.04652 12.70032 29.11378 21.47517 37.76367-19.18784-4.37819-36.30359-13.79357-49.716803-26.70313 8.942413-4.52646 18.428013-8.23052 28.242183-11.06055z" fill="#433b31" overflow="visible" stroke="#123013" stroke-width=".99269044"/><path d="m73.624152 179.63916h67.092328c2.81386 0 16.99067-.54005 19.5602-1.62014 2.56955-1.0801 4.91477-2.49771 7.0357-4.25286 2.18331-1.80015 4.07567-3.82531 5.67705-6.0755 1.6638-2.29519 2.96566-4.63538 3.90561-7.02058.97542-2.4752 1.54-4.92791 1.69374-7.35811.19838-2.43019-.067-4.59036-.79599-6.48052-.72904-1.89017-1.93496-3.42029-3.61775-4.59038-1.68278-1.1701-3.8641-1.75515-6.54396-1.75515h-22.87455l-12.23718 31.05256h9.64751c1.78658 0 14.96798-.33753 16.57393-1.01258 1.65064-.67505 3.1354-1.55264 4.45432-2.63272 1.3636-1.08008 2.54362-2.31768 3.54004-3.71281 1.0411-1.39511 1.8454-2.81272 2.41293-4.25285.54978-1.39511.86738-2.76772.9528-4.11784.10312-1.39512-.11038-2.61022-.64037-3.64531-.48538-1.03507-1.29623-1.86764-2.43253-2.49769-1.0739-.67506-2.52649-1.01258-4.35773-1.01258h-17.11285l1.8488-4.11784h16.81983c2.3672 0 4.31141.45004 5.83262 1.35011 1.53894.85506 2.64108 2.02516 3.30643 3.51028.72775 1.44013 1.05417 3.10526.97926 4.99541-.0571 1.84515-.47593 3.75781-1.25628 5.73799-.74487 1.89016-1.82472 3.78031-3.23955 5.67046-1.35243 1.84515-2.93773 3.48779-4.75585 4.9279-1.81813 1.44012-3.84248 2.61022-6.0731 3.5103-2.18593.90007-15.96997 1.35011-18.38186 1.35011h-13.73431l15.4295-39.15324h28.36827c3.08184 0 5.56268.67505 7.4425 2.02519 1.92449 1.3501 3.30085 3.12774 4.12908 5.33291.8729 2.2052 1.19734 4.72539.97332 7.56064-.2063 2.79023-.8947 5.67046-2.06518 8.6407-1.17053 2.97025-2.7834 5.87299-4.83867 8.70823-2.01058 2.83523-4.3079 5.37793-6.89188 7.62813-2.56628 2.20518-5.36604 3.98283-8.39929 5.33293-2.98859 1.35011-17.50895 2.02517-20.5908 2.02517h-68.43225z" fill="#fece1f"/><path d="m90.107014 167.13175-10.02845-27.32757h3.038926l7.293412 19.8398 1.671412-3.7712-7.090825-19.34791h-9.116762l13.979038 38.20394 12.763465-28.80325 12.81411 28.80325 13.97904-38.20394h-9.11677l-7.09081 19.34791 1.67141 3.7712 7.2934-19.8398h3.03893l-10.02844 27.32757-12.56087-28.09274-12.510215 28.09274z" fill="#fece1f"/><path d="m197.52404 144.12193-10.02844 27.32757h3.03893l7.2934-19.83983 1.67141 3.77121-7.09081 19.34793h-9.11677l13.97903-38.20394 12.76347 28.80324 12.81412-28.80324 13.97903 38.20394h-9.11676l-7.09082-19.34793 1.67141-3.77121 7.29341 19.83983h3.03893l-10.02845-27.32757-12.56087 28.09273z" fill="#fece1f"/><path d="m114.91236 181.64723h-42.252121c-1.1611 0-2.209025-.49826-2.966674-1.30597-.757651-.8077-1.225025-1.92489-1.225025-3.1627v-21.56433-21.5643c0-1.23782.467374-2.35498 1.225025-3.16271.75765-.80771 1.805574-1.30597 2.966674-1.30597h84.504251 84.50425c1.16111 0 2.20904.49826 2.96669 1.30597s1.22502 1.92487 1.22502 3.16271v21.5643 21.56433c0 1.23781-.46737 2.355-1.22502 3.1627-.75765.80771-1.80558 1.30597-2.96669 1.30597h-42.25213-12.20865-8.91741" fill="none" stroke="#fece1f" stroke-linejoin="round" stroke-width="3.91400003"/><g fill-rule="evenodd"><path d="m157.40113 283.76667v11.646c3.15962-2.02537 5.71662-5.71725 5.71662-7.8345 0-3.7055-5.71662-3.8115-5.71662-3.8115" fill="#123013"/><path d="m238.92025 208.17742c-15.03375 28.16-34.3025 33.665-34.3025 33.665-2.54 0-2.54-2.11625-2.54-2.11625-11.645 0-21.385 6.56375-21.385 6.56375-4.235 2.32875-2.22375-2.22375-2.22375-2.22375 10.58625-10.58625 20.85625-9.84625 20.85625-9.84625 9.31625 1.27125 13.1275-3.3875 13.1275-3.3875 16.19875-7.19875 26.4675-22.655 26.4675-22.655" fill="#ffb" fill-opacity=".83137256"/><path d="m217.32275 242.26617c8.2575 1.27125 5.87625 4.8175 5.87625 4.8175-.68875 2.4875-5.135 1.8525-5.135 1.8525 3.3875 2.2225 1.3225 4.2875 1.3225 4.2875 0 1.4825-5.24.265-5.24.265 1.5875 3.59875-.635 4.12875-.635 4.12875-7.09375 0-7.94-3.17625-7.94-3.17625 3.3875 2.1175 6.56375.8475 6.56375.8475-1.165-2.6475-4.235-4.65875-4.235-4.65875 6.45875 2.01125 9.21125 1.05875 9.21125 1.05875 0-2.85875-4.765-4.87-4.765-4.87 4.765.525 8.89375-.52875 8.89375-.52875-.635-2.6475-3.9175-4.02375-3.9175-4.02375" fill="#ffb" fill-opacity=".83137256"/><path d="m95.785879 248.08867c0-2.10125 4.446751-4.6575 4.446751-4.6575-4.764625 1.16375-6.775875 3.705-6.775875 3.705-.63525 3.3875 2.646499 3.3875 2.646499 3.3875l2.223126-.105c-2.646501 2.64625-1.323251 3.97-1.323251 3.97 1.799751 1.79875 5.558121 1.005 5.558121 1.005-1.64062 1.64125.42375 2.85875.42375 2.85875 6.03425 2.1175 7.834-2.2225 7.834-2.2225-3.49362 1.79875-6.352.74-6.352.74 1.05863-2.96375 3.917-4.975 3.917-4.975-4.44625 2.54-8.68112 1.69375-8.68112 1.69375-.582625-3.12375 4.02337-4.97625 4.02337-4.97625-4.605995.81-7.94037 0-7.94037 0v-.42375" fill="#ffb" fill-opacity=".83137256"/><path d="m77.365004 209.87117c11.6455 21.17375 34.089246 33.03125 34.089246 33.03125 3.81163 1.48125 3.81163-1.695 3.81163-1.695 10.163-1.05875 21.59712 6.14125 21.59712 6.14125 2.11663 2.11625 2.11663-2.33 2.11663-2.33-11.00975-12.915-27.94863-9.105-27.94863-9.105-16.727121-5.35125-33.665996-26.0425-33.665996-26.0425" fill="#ffb" fill-opacity=".83137256"/><path d="m137.2155 250.17117-5.71675 5.7175 2.75238 1.6225-2.39938 6.07h4.94l-2.11675-2.1175 1.97613-4.37625v-1.835h-1.835z" fill="#ffb" fill-opacity=".83137256"/><path d="m179.84525 250.02992 5.57625 5.57625-2.0475 2.0475 2.1175 5.505h-4.5175v-1.13h2.25875l-2.54-5.92875v-.8475l1.41125-1.41z" fill="#ffb" fill-opacity=".83137256"/><path d="m139.615 232.80867c5.0815 11.01125 9.4575 9.31625 9.4575 9.31625 6.28175 2.0475 8.61075 7.2 8.61075 7.2 0 1.975-.63525 1.34-.63525 1.34v3.565c2.01125-2.01125 3.31738.21125 3.31738.21125v-3.84625c-1.0585-1.05875-.28263-1.835-.28263-1.835 1.55313-4.94 8.1875-7.05875 8.1875-7.05875 7.6225-2.68125 8.75125-9.73875 8.75125-9.73875 1.41125 7.76375-4.375 10.30375-4.375 10.30375-2.96875 1.4175-9.035 6.07-9.035 6.07-1.835 1.835-.28125 3.3875-.28125 3.3875 1.69375 3.81125 5.22125 2.4 5.22125 2.4 3.67125-1.69375 1.9775-4.79875 1.9775-4.79875-1.55375-1.55375-.565-2.54125-.565-2.54125h1.69375c1.5525 3.67.14125 6.3525.14125 6.3525-.98875 3.105-3.2475 2.39875-3.2475 2.39875h-3.24625c1.27125 2.82375 4.37625 2.29375 4.37625 2.29375 4.09375-.9875 6.14 1.58875 6.14 1.58875-4.5875 0-4.5875 1.905-4.5875 1.905-3.3875 0-6.35125 4.23525-6.35125 4.23525v-3.1065l1.05875-1.0575-.98875-.98875c-.49375 2.47-2.61175.3525-2.61175.3525 0-2.36375-3.24612-4.51625-3.24612-4.51625l.106 4.79875h-1.1645l.10587-4.79875c-2.01125 1.16375-3.89937 5.84-3.89937 5.84l-2.13525-1.39375c.20412.3675-.27488 1.3125-.0312 1.55625 1.3545 1.355.38375 3.03175.38375 3.03175-3.247-3.953-6.352-3.24675-6.352-3.24675 0-2.4-4.376-2.1175-4.376-2.1175 1.09425-2.57625 3.1055-2.82375 3.1055-2.82375 2.11712 1.165 4.376.70625 4.376.70625 2.894 0 3.52875-2.1175 3.52875-2.1175-4.23438 1.27125-5.85788-.3525-5.85788-.3525-3.1055-3.105-1.90525-4.87-1.90525-4.87 0-4.37625 1.9755-3.52875 1.9755-3.52875.70613-.70625.70613 1.69375.70613 1.69375.64987-.65-1.87163 1.28875-.70613 3.9525 2.04738 3.54875 5.6465 2.04625 5.6465 2.04625 2.43513-1.34 1.99413-4.71125 1.99413-4.71125-2.4175-3.61625-5.80513-4.3925-5.80513-4.3925-3.50487-1.47125-6.63425-4.5175-6.63425-4.5175-3.1055-3.105-2.541-8.1875-2.541-8.1875" fill="#ffb" fill-opacity=".83076924"/><path d="m157.82438 255.32367v.77625h1.55275l.0709-.77625h-1.62362" fill="#343582"/><path d="m200.27775 290.43655c-5.1775 1.35744-6.88125 5.34926-6.88125 5.34926-1.905 3.99267 2.1175 7.34598 2.1175 7.34598.84625 5.90868 4.34125 9.18213 4.34125 9.18213v1.67666c1.34625 2.81679 4.975 4.15208 4.975 4.15208 5.2925-2.71441 2.01125-4.15208 2.01125-4.15208l-3.2975-2.08769-.12625-1.90423c-.91625-.69196-2.96375-1.49065-2.96375-1.49065.98875 0 1.69375-1.59643 1.69375-1.59643 0-1.59708-2.1875-3.24687-2.1875-3.24687 2.7525 0 2.56875-1.26571 2.56875-1.26571 0-.7457-2.215-1.55589-2.215-1.55589-.70625-1.16513-3.10625-1.91639-3.10625-1.91639 2.4-.31931 1.5525-2.66144 1.5525-2.66144.8475 2.34213 3.3175 4.20554 3.3175 4.20554l1.65875-.66547-.6-3.22076 1.975-.10681 1.695-.74457-.17625-1.38432c-2.965-3.19388-6.3525-3.91234-6.3525-3.91234" fill="#ffb" fill-opacity=".83137256"/><path d="m204.689 291.24805h5.08125c1.0975 1.2935 2.1875 3.60012 2.1875 3.60012l.38875 3.211-2.24.0175 1.37625 1.376-4.67625-.15862c1.69375-1.129 1.12875-2.82275 1.12875-2.82275-1.09125-3.106-3.24625-5.22325-3.24625-5.22325" fill="#ffb" fill-opacity=".83137256"/><path d="m212.77025 295.2008 1.95875.3705c5.505 3.17637 3.12375 5.13437 3.12375 5.13437 0 1.58838-1.58875 1.58838-1.58875 1.58838l-4.12875-.52938c1.42875-1.42962.74125-3.28225.74125-3.28225.635-1.69375-.10625-3.28162-.10625-3.28162" fill="#ffb" fill-opacity=".83137256"/><path d="m139.051 263.29867c2.11713.70575 3.66938 2.68237 3.66938 2.68237h-3.246c1.623 1.62351 3.38762 3.81101 3.38762 3.81101h26.2545s-5.64375-.98825.425.42387c6.06875 1.41163 8.61 7.90425 8.61 7.90425.98875-4.51662-.9875-6.49362-.9875-6.49362 0-3.52838.91625-4.44538.91625-4.44538l1.06-2.3295h-3.3875c0-.84725 2.54-2.11675 2.54-2.11675-7.905 1.2695-11.43375 4.79838-11.43375 4.79838v-1.129c-3.52875 0-4.09375 1.41162-4.09375 1.41162h-7.48137c-1.6235-1.6235-4.376-1.6235-4.376-1.6235v1.6235c-5.36425-3.8115-11.85688-4.51725-11.85688-4.51725" fill="#ffb" fill-opacity=".83137256"/><path d="m105.0315 296.4713c-5.787121 1.69375-3.95225 6.21037-3.95225 6.21037h5.08163c-.98838-.98825-1.12938-6.21037-1.12938-6.21037" fill="#ffb" fill-opacity=".83137256"/><path d="m105.87863 299.29405c0-5.08163 2.68212-7.481 2.68212-7.481h5.0815l-.14112 1.2705c-4.5165 2.96437-2.39988 6.917-2.39988 6.917l-2.25875.70512v-1.27012z" fill="#ffb" fill-opacity=".83137256"/><path d="m113.27528 296.68085c-2.33012-1.57124-.28275-2.47546-.28275-2.47546 2.68175-3.52122 5.78762-3.52122 5.78762-3.52122 7.05763 1.04677 8.46926 6.56803 8.46926 6.56803 0 4.37832-3.24663 5.13991-3.24663 5.13991 0 9.13866-4.37587 7.99614-4.37587 7.99614 3.52925 1.61802.42375 2.76029.42375 2.76029l-3.31738 2.23742c-.9175 1.9509-2.61125-.0481-2.61125-.0481l-2.188-1.47548c-2.04637-.6183.49413-1.47514.49413-1.47514h3.38762c2.61188-1.76057.42338-3.71249.42338-3.71249 2.148-.5506 2.54099-1.61844 2.54099-1.61844-1.83537-2.5703.49413-2.99801.49413-2.99801 0-1.40931-2.04687-1.95157-2.04687-1.95157-1.20013-1.42777 1.55274-1.8087 1.55274-1.8087 1.27001-1.33227 3.38826-1.33227 3.38826-1.33227-1.55326-1.0471-1.55326-2.57029-1.55326-2.57029-.77637 2.0464-3.10549 3.61706-3.10549 3.61706-1.48188-1.57066-1.42776-3.32144-1.42776-3.32144l-2.80662-.0101" fill="#ffb" fill-opacity=".83137256"/><path d="m185.63275 291.5308c2.1875 2.1875 5.08125 3.105 5.08125 3.105-1.69375.28275-1.835 4.94087-1.835 4.94087-2.25875-2.25875-3.24625-8.04587-3.24625-8.04587" fill="#ffb" fill-opacity=".83137256"/><path d="m184.08025 285.74267c5.08125 2.82375 9.4575 2.82375 9.4575 2.82375-8.04625 1.41113-9.4575-2.82375-9.4575-2.82375" fill="#ffb" fill-opacity=".83137256"/><path d="m181.68025 287.57817 2.0475 2.04588-.9175 2.47075z" fill="#ffb" fill-opacity=".83137256"/><path d="m180.834 280.8028c4.6575 2.39887 9.45625 3.66987 9.45625 3.66987-7.90375 1.27-9.45625-3.66987-9.45625-3.66987" fill="#ffb" fill-opacity=".83137256"/><path d="m135.9455 287.86042v5.0815l-1.55325-.14062v-2.541z" fill="#ffb" fill-opacity=".83137256"/><path d="m132.27513 291.81305c-1.87313 2.90625-5.22225 3.38775-5.22225 3.38775 2.68175 1.2705 1.97562 5.22312 1.97562 5.22312l1.48238-1.483c.32237-2.62012 1.76425-4.1635 1.76425-4.1635z" fill="#ffb" fill-opacity=".83137256"/><path d="m133.197 286.79742c-3.38775 1.53075-9.31687 2.96437-9.31687 2.96437 7.19525 1.83938 9.31687-2.96437 9.31687-2.96437" fill="#ffb" fill-opacity=".83137256"/><path d="m133.68675 282.21442 1.48188 1.48188c-2.25825 2.25887-7.41063 1.4825-7.41063 1.4825 4.79975-1.2705 5.92875-2.96438 5.92875-2.96438" fill="#ffb" fill-opacity=".83137256"/><path d="m100.0915 274.16854c12.563 0 12.9155-4.30525 12.9155-4.30525-1.165 4.55276-5.57562 5.71688-5.57562 5.71688-4.79938.38375-7.33988-1.41163-7.33988-1.41163" fill="#ffb" fill-opacity=".83137256"/><path d="m58.16713 215.72867c6.069874 18.6325 25.973249 25.8325 25.973249 25.8325-25.267124-7.2-25.973249-25.8325-25.973249-25.8325" fill="#a3900c"/><path d="m61.272629 251.01867c15.527375 5.08125 21.738751.2825 21.738751.2825-9.88125 8.46875-21.738751-.2825-21.738751-.2825" fill="#ffb" fill-opacity=".83137256"/><path d="m258.47025 212.05867c-3.3875 17.08-25.55 28.09-25.55 28.09 29.50125-11.85625 25.55-28.09 25.55-28.09" fill="#a3900c"/><path d="m234.2615 250.38242c12.5625 3.6 21.95-2.1875 21.95-2.1875-11.50375 9.52875-21.95 2.1875-21.95 2.1875" fill="#ffb" fill-opacity=".83137256"/><path d="m203.56025 269.08692c7.33875 5.08162 14.3975 3.38775 14.3975 3.38775-9.88125 5.0815-14.3975-3.38775-14.3975-3.38775" fill="#ffb" fill-opacity=".83137256"/><path d="m160.1355 260.66992 3.1235 3.1225-3.17625 3.17587.0528-6.29837" fill="#fff"/><path d="m157.11788 260.10492v7.14663l-2.82225-3.95288z" fill="#fff"/><path d="m170.38775 264.00442c5.64625-2.682 10.1625-2.682 10.1625-2.682l-3.5275-6.635 2.39875-.845-2.96375-2.965v-3.8125l-3.52875-1.835 2.04625 2.0475v3.88125l1.44625 1.4475-1.5875 1.5875 3.17625 5.85875c-5.08125 0-7.6225 3.952-7.6225 3.952" fill="#a3900c"/><path d="m176.45775 240.99617v-1.55375l2.68125-2.68125h1.835z" fill="#fff"/><path d="m172.929 244.10117c.67875-2.40875 3.3875-2.4 3.3875-2.4v2.365c-1.25875 2.27125-3.3875.035-3.3875.035" fill="#a3900c"/><path d="m136.51 236.76117 3.2465 3.24625v1.13l-3.10537-3.10625z" fill="#fff"/><path d="m140.88588 242.54867c-1.48238 1.4825-.21188 2.7525-.21188 2.7525h2.61188c0-3.3025-2.4-2.7525-2.4-2.7525" fill="#a3900c"/><path d="m146.53188 264.00442c-4.65813-2.54075-9.88075-1.69325-9.88075-1.69325l3.247-6.77625-1.83538-1.835 2.894-2.89375v-3.74125l3.03463-1.69375-1.271 2.54125v3.24625l-2.188 2.18875 2.04737.9175-2.82375 5.505c6.26813 1.72875 6.77588 4.2345 6.77588 4.2345" fill="#a3900c"/><path d="m166.18775 250.31242h2.01173v-1.05859h-2.01173z" fill="#fff"/><path d="m149.24925 249.25367v1.165h2.01125v-1.05875z" fill="#fff"/><path d="m148.508 269.65092h1.69438l-2.82325-1.55275z" fill="#fff"/><path d="m169.6815 267.10992h.70625v1.12988z" fill="#fff"/><path d="m167.98775 269.08692h2.11719v-1.13036h-2.11719z" fill="#fff"/><path d="m163.75275 268.94542h2.25879v-.84716h-2.25879z" fill="#fff"/><path d="m201.8665 298.72955h3.245v5.78762c-3.245-1.55225-3.245-5.78762-3.245-5.78762" fill="#f0d314"/><path d="m207.9365 298.87017c.9875 2.541.9875 7.19925.9875 7.19925 2.4-1.8345 2.11625-6.77537 2.11625-6.77537z" fill="#eed315"/><path d="m213.864 309.7403c2.25875-2.25875 2.4-7.623 2.4-7.623-2.1175.706-3.67125-.84725-3.67125-.84725-1.5525 1.55325 0 3.1065 0 3.1065.9875.98725 1.27125 5.36375 1.27125 5.36375" fill="#eed315"/><path d="m203.1365 256.94742c-2.13625 9.5805-7.48125 13.12738-7.48125 13.12738 10.86875-5.92875 7.48125-13.12738 7.48125-13.12738" fill="#a3900c"/><path d="m219.6515 259.62867c10.445 5.78738 20.8925 3.81125 20.8925 3.81125-14.54 5.92875-20.8925-3.81125-20.8925-3.81125" fill="#a3900c"/><path d="m246.33025 205.70617c.8475 13.6925-18.35 31.3375-18.35 31.3375 22.3025-15.5275 18.35-31.3375 18.35-31.3375" fill="#a3900c"/><path d="m264.8215 226.59742c-1.69375 19.0575-30.20625 19.0575-30.20625 19.0575 26.395-3.10625 30.20625-19.0575 30.20625-19.0575" fill="#a3900c"/><path d="m114.77125 257.37117v4.23375c2.11713 7.19888 8.61075 9.17587 8.61075 9.17587-3.59962-3.59962-7.19925-9.03462-7.19925-9.03462z" fill="#a3900c"/><path d="m70.024129 208.81242c-.564499 18.685 17.503375 28.795 17.503375 28.795-15.245125-12.13875-17.503375-28.795-17.503375-28.795" fill="#a3900c"/><path d="m51.674004 229.98617c6.916501 21.0325 32.0425 16.93875 32.0425 16.93875-20.608875 1.27-32.0425-16.93875-32.0425-16.93875" fill="#a3900c"/><path d="m97.550004 260.33492c-7.19925 7.19838-20.326625 4.51675-20.326625 4.51675 14.82125 6.9165 20.326625-4.51675 20.326625-4.51675" fill="#a3900c"/><path d="m150.20238 247.91242h-1.55325c-2.46975 1.4475-.84663 4.65875-.84663 4.65875 2.30713 3.035 4.79875 1.12875 4.79875 1.12875 1.90088-1.9.48925-3.31125.48925-3.31125-.48925-.49-1.01612.52625-1.01612.52625.42137 1.55-1.23725 1.55-1.23725 1.55-2.22313-.45875-2.22313-1.835-2.22313-1.835 2.6465 0 1.58838-2.7175 1.58838-2.7175" fill="#eed315"/><path d="m167.0865 247.57742h1.5525c2.47 1.4475.8475 4.65875.8475 4.65875-.7575 3.035-4.8 1.12875-4.8 1.12875-1.90125-1.9-.48875-3.31125-.48875-3.31125.48875-.49 1.01625.525 1.01625.525-.42125 1.55125 1.2375 1.55125 1.2375 1.55125 2.2225-.45875 2.2225-1.835 2.2225-1.835-2.64625 0-1.5875-2.7175-1.5875-2.7175" fill="#eed315"/><path d="m109.45509 306.30833c-1.12888 4.14122 1.76462 6.02404 1.76462 6.02404 5.46838 0 3.4585-1.41205 3.4585-1.41205-5.0835-1.10899-5.22312-4.61199-5.22312-4.61199" fill="#eed315"/></g><path d="m159.7093 296.75949c1.38612-1.60402 3.2848-2.75815 5.34688-3.25015 2.97291-.70932 6.25345.009 8.65797 1.89561l3.7626 7.52522c.14166 1.04654.6073 2.04693 1.31685 2.82914.70956.7822 1.65996 1.34286 2.68778 1.58555s2.12863.16637 3.11312-.21583c.9845-.38221 1.84844-1.06866 2.44326-1.9413.76298-1.11933 1.06293-2.47852 1.50572-3.75874.2214-.64012.48375-1.27105.85532-1.83735.37156-.5663.85843-1.06814 1.45641-1.38623.81058-.43117 1.78739-.49744 2.67917-.27909.89177.21835 1.70236.70572 2.3899 1.31419 1.37508 1.21693 2.25797 2.87788 3.31231 4.38125 2.02366 2.88553 4.7641 5.26434 7.90545 6.86227l0 0c .40326.96481.7925 1.93548 1.16752 2.91161.4474 1.16447.8746 2.33675 1.33579 3.49584.31218.78458.63998 1.56321.99928 2.32736.44601.94856.94498 1.88731 1.16752 2.9116.40161 1.84857-.16317 3.82956-1.27994 5.35643s-2.74112 2.62921-4.48391 3.36488c-2.30016.97097-4.82529 1.34026-7.32165 1.2994-2.49636-.0409-4.9716-.48195-7.39554-1.0803-5.60671-1.38404-11.02338-3.63267-15.81091-6.86228-2.8999-1.95624-5.56097-4.26616-7.90545-6.86227l0 0c-2.25319-4.78113-4.90022-9.37659-7.90545-13.72454-1.01357-1.46642-2.07525-2.91333-3.36344-4.14552-1.28819-1.23218-2.82191-2.24887-4.54203-2.71675-2.55635-.69534-5.25971-.13588-7.90546 0-5.27954.27115-10.65376-1.16231-15.81091 0-2.16556.48807-4.202 1.41818-6.22282 2.33696-3.21753 1.46289-6.44257 2.91344-9.5881 4.52531-1.58403.81171-3.1561 1.66978-4.55353 2.77215s-2.62245 2.46658-3.35193 4.09012c-.96658 2.15124-.98638 4.72005 0 6.86227.74214 1.61177 2.00259 2.93836 3.40891 4.0204s2.96672 1.94289 4.49655 2.84187c2.87605 1.69007 5.6733 3.5332 8.70031 4.93505 3.02702 1.40185 6.34049 2.35726 9.66918 2.13866 2.55623-.16788 5.03998-1.02732 7.26546-2.29607s4.20305-2.93904 5.98688-4.77764c1.22428-1.26186 2.36301-2.60645 3.62533-3.83026 1.26231-1.2238 2.6658-2.33553 4.28013-3.03201 2.4878-1.07331 5.41767-1.07331 7.90547 0" fill="none" stroke="#a3900c"/><path d="m104.60813 310.58692c-2.5655-3.91787-3.458-7.12887-3.458-7.12887 1.48187-1.48188 5.01075-.98775 5.01075-.98775 0 6.42287-1.55275 8.11662-1.55275 8.11662" fill="#eed315" fill-rule="evenodd"/><path d="m106.72525 300.14117c.98838 5.081 2.82375 6.9165 2.82375 6.9165 0-3.95212 1.8345-6.63375 1.8345-6.63375z" fill="#eed315" fill-rule="evenodd"/><path d="m113.64225 299.15342h3.8115c-.84712 4.09325-3.8115 7.05763-3.8115 7.05763z" fill="#eed315" fill-rule="evenodd"/><path d="m204.5188 311.99185c-.565 5.50487 4.235 2.54062 4.235 2.54062 2.04625-2.04687.635-7.97462.635-7.97462-2.0475 7.8335-4.87 5.434-4.87 5.434" fill="#f0d314" fill-rule="evenodd"/><g fill="#fece1f" stroke="#fece1f" transform="matrix(.14059005 0 0 -.11357265 42.89627 306.53899)"><path d="m863.89986-10.589094v86.1144c-9.9536 1.0488-20.5288 1.4664-31.5392 1.4664-10.9936 0-21.5696-.4176-31.5232-1.4664v-86.1144h63.0616z"/><path d="m728.41346-126.32588c0-59.9488 46.5472-108.528 103.956-108.528 57.4424 0 103.9808 48.5784 103.9808 108.5272v103.071186h-207.9376v-103.071186z"/><path d="m936.35026-10.589094v16.8919998c0 43.4424002-24.4776 60.9896002-59.7936 67.3792002v-84.2712h59.7936z"/><path d="m788.18226 73.682106c-35.2752-6.3984-59.7688-23.9376-59.7688-67.3792002v-16.8919998h59.7688z"/><path d="m818.08226 87.263706h25.3296v-11.7968h-25.3296v11.796z"/></g></svg>